G04 #@! TF.GenerationSoftware,KiCad,Pcbnew,(5.1.4)-1*
G04 #@! TF.CreationDate,2019-11-26T14:30:42+00:00*
G04 #@! TF.ProjectId,MidiMonger,4d696469-4d6f-46e6-9765-722e6b696361,rev?*
G04 #@! TF.SameCoordinates,Original*
G04 #@! TF.FileFunction,Paste,Bot*
G04 #@! TF.FilePolarity,Positive*
%FSLAX46Y46*%
G04 Gerber Fmt 4.6, Leading zero omitted, Abs format (unit mm)*
G04 Created by KiCad (PCBNEW (5.1.4)-1) date 2019-11-26 14:30:42*
%MOMM*%
%LPD*%
G04 APERTURE LIST*
%ADD10R,1.450000X0.450000*%
%ADD11R,1.500000X1.300000*%
%ADD12R,1.500000X1.250000*%
%ADD13R,1.250000X1.500000*%
%ADD14R,1.600000X2.200000*%
%ADD15R,3.000000X1.600000*%
%ADD16R,0.900000X1.200000*%
%ADD17R,1.200000X0.900000*%
%ADD18R,1.300000X1.500000*%
%ADD19C,0.100000*%
%ADD20C,0.300000*%
%ADD21R,1.600000X3.100000*%
%ADD22R,1.143000X0.508000*%
%ADD23R,1.500000X2.000000*%
%ADD24R,3.800000X2.000000*%
%ADD25R,1.500000X0.450000*%
%ADD26R,4.500000X2.000000*%
G04 APERTURE END LIST*
D10*
X118050000Y-65575000D03*
X118050000Y-66225000D03*
X118050000Y-66875000D03*
X118050000Y-67525000D03*
X118050000Y-68175000D03*
X118050000Y-68825000D03*
X118050000Y-69475000D03*
X118050000Y-70125000D03*
X118050000Y-70775000D03*
X118050000Y-71425000D03*
X123950000Y-71425000D03*
X123950000Y-70775000D03*
X123950000Y-70125000D03*
X123950000Y-69475000D03*
X123950000Y-68825000D03*
X123950000Y-68175000D03*
X123950000Y-67525000D03*
X123950000Y-66875000D03*
X123950000Y-66225000D03*
X123950000Y-65575000D03*
D11*
X131350000Y-55000000D03*
X128650000Y-55000000D03*
D12*
X126450000Y-87500000D03*
X123950000Y-87500000D03*
X108750000Y-75500000D03*
X106250000Y-75500000D03*
X112750000Y-75500000D03*
X115250000Y-75500000D03*
X124250000Y-96000000D03*
X126750000Y-96000000D03*
X126750000Y-93500000D03*
X124250000Y-93500000D03*
X111250000Y-98500000D03*
X108750000Y-98500000D03*
D13*
X107250000Y-84250000D03*
X107250000Y-86750000D03*
X101300000Y-85550000D03*
X101300000Y-83050000D03*
D14*
X111000000Y-118250000D03*
X111000000Y-115250000D03*
D15*
X117800000Y-122000000D03*
X122200000Y-122000000D03*
X107300000Y-139000000D03*
X111700000Y-139000000D03*
X100550000Y-145250000D03*
X104950000Y-145250000D03*
X133700000Y-145000000D03*
X129300000Y-145000000D03*
X107300000Y-123000000D03*
X111700000Y-123000000D03*
D12*
X119750000Y-79500000D03*
X122250000Y-79500000D03*
X121400000Y-57650000D03*
X118900000Y-57650000D03*
D16*
X112400000Y-145500000D03*
X109100000Y-145500000D03*
D17*
X127500000Y-137150000D03*
X127500000Y-140450000D03*
D11*
X122350000Y-82000000D03*
X119650000Y-82000000D03*
D18*
X130000000Y-122600000D03*
X130000000Y-119900000D03*
D11*
X120350000Y-47000000D03*
X117650000Y-47000000D03*
X127250000Y-100000000D03*
X124550000Y-100000000D03*
X106350000Y-47000000D03*
X103650000Y-47000000D03*
X106350000Y-50250000D03*
X103650000Y-50250000D03*
X120350000Y-50500000D03*
X117650000Y-50500000D03*
X120350000Y-43750000D03*
X117650000Y-43750000D03*
X103650000Y-43750000D03*
X106350000Y-43750000D03*
X103650000Y-53750000D03*
X106350000Y-53750000D03*
X120350000Y-53750000D03*
X117650000Y-53750000D03*
X131350000Y-50000000D03*
X128650000Y-50000000D03*
X128650000Y-62750000D03*
X131350000Y-62750000D03*
X132900000Y-90800000D03*
X130200000Y-90800000D03*
D18*
X101800000Y-59750000D03*
X101800000Y-57050000D03*
X101750000Y-65350000D03*
X101750000Y-62650000D03*
X100000000Y-74350000D03*
X100000000Y-71650000D03*
X97500000Y-71650000D03*
X97500000Y-74350000D03*
D11*
X103100000Y-105300000D03*
X100400000Y-105300000D03*
D18*
X130250000Y-96350000D03*
X130250000Y-93650000D03*
D11*
X129900000Y-81800000D03*
X127200000Y-81800000D03*
D18*
X116750000Y-102550000D03*
X116750000Y-105250000D03*
D19*
G36*
X111832351Y-84050361D02*
G01*
X111839632Y-84051441D01*
X111846771Y-84053229D01*
X111853701Y-84055709D01*
X111860355Y-84058856D01*
X111866668Y-84062640D01*
X111872579Y-84067024D01*
X111878033Y-84071967D01*
X111882976Y-84077421D01*
X111887360Y-84083332D01*
X111891144Y-84089645D01*
X111894291Y-84096299D01*
X111896771Y-84103229D01*
X111898559Y-84110368D01*
X111899639Y-84117649D01*
X111900000Y-84125000D01*
X111900000Y-85525000D01*
X111899639Y-85532351D01*
X111898559Y-85539632D01*
X111896771Y-85546771D01*
X111894291Y-85553701D01*
X111891144Y-85560355D01*
X111887360Y-85566668D01*
X111882976Y-85572579D01*
X111878033Y-85578033D01*
X111872579Y-85582976D01*
X111866668Y-85587360D01*
X111860355Y-85591144D01*
X111853701Y-85594291D01*
X111846771Y-85596771D01*
X111839632Y-85598559D01*
X111832351Y-85599639D01*
X111825000Y-85600000D01*
X111675000Y-85600000D01*
X111667649Y-85599639D01*
X111660368Y-85598559D01*
X111653229Y-85596771D01*
X111646299Y-85594291D01*
X111639645Y-85591144D01*
X111633332Y-85587360D01*
X111627421Y-85582976D01*
X111621967Y-85578033D01*
X111617024Y-85572579D01*
X111612640Y-85566668D01*
X111608856Y-85560355D01*
X111605709Y-85553701D01*
X111603229Y-85546771D01*
X111601441Y-85539632D01*
X111600361Y-85532351D01*
X111600000Y-85525000D01*
X111600000Y-84125000D01*
X111600361Y-84117649D01*
X111601441Y-84110368D01*
X111603229Y-84103229D01*
X111605709Y-84096299D01*
X111608856Y-84089645D01*
X111612640Y-84083332D01*
X111617024Y-84077421D01*
X111621967Y-84071967D01*
X111627421Y-84067024D01*
X111633332Y-84062640D01*
X111639645Y-84058856D01*
X111646299Y-84055709D01*
X111653229Y-84053229D01*
X111660368Y-84051441D01*
X111667649Y-84050361D01*
X111675000Y-84050000D01*
X111825000Y-84050000D01*
X111832351Y-84050361D01*
X111832351Y-84050361D01*
G37*
D20*
X111750000Y-84825000D03*
D19*
G36*
X112332351Y-84050361D02*
G01*
X112339632Y-84051441D01*
X112346771Y-84053229D01*
X112353701Y-84055709D01*
X112360355Y-84058856D01*
X112366668Y-84062640D01*
X112372579Y-84067024D01*
X112378033Y-84071967D01*
X112382976Y-84077421D01*
X112387360Y-84083332D01*
X112391144Y-84089645D01*
X112394291Y-84096299D01*
X112396771Y-84103229D01*
X112398559Y-84110368D01*
X112399639Y-84117649D01*
X112400000Y-84125000D01*
X112400000Y-85525000D01*
X112399639Y-85532351D01*
X112398559Y-85539632D01*
X112396771Y-85546771D01*
X112394291Y-85553701D01*
X112391144Y-85560355D01*
X112387360Y-85566668D01*
X112382976Y-85572579D01*
X112378033Y-85578033D01*
X112372579Y-85582976D01*
X112366668Y-85587360D01*
X112360355Y-85591144D01*
X112353701Y-85594291D01*
X112346771Y-85596771D01*
X112339632Y-85598559D01*
X112332351Y-85599639D01*
X112325000Y-85600000D01*
X112175000Y-85600000D01*
X112167649Y-85599639D01*
X112160368Y-85598559D01*
X112153229Y-85596771D01*
X112146299Y-85594291D01*
X112139645Y-85591144D01*
X112133332Y-85587360D01*
X112127421Y-85582976D01*
X112121967Y-85578033D01*
X112117024Y-85572579D01*
X112112640Y-85566668D01*
X112108856Y-85560355D01*
X112105709Y-85553701D01*
X112103229Y-85546771D01*
X112101441Y-85539632D01*
X112100361Y-85532351D01*
X112100000Y-85525000D01*
X112100000Y-84125000D01*
X112100361Y-84117649D01*
X112101441Y-84110368D01*
X112103229Y-84103229D01*
X112105709Y-84096299D01*
X112108856Y-84089645D01*
X112112640Y-84083332D01*
X112117024Y-84077421D01*
X112121967Y-84071967D01*
X112127421Y-84067024D01*
X112133332Y-84062640D01*
X112139645Y-84058856D01*
X112146299Y-84055709D01*
X112153229Y-84053229D01*
X112160368Y-84051441D01*
X112167649Y-84050361D01*
X112175000Y-84050000D01*
X112325000Y-84050000D01*
X112332351Y-84050361D01*
X112332351Y-84050361D01*
G37*
D20*
X112250000Y-84825000D03*
D19*
G36*
X112832351Y-84050361D02*
G01*
X112839632Y-84051441D01*
X112846771Y-84053229D01*
X112853701Y-84055709D01*
X112860355Y-84058856D01*
X112866668Y-84062640D01*
X112872579Y-84067024D01*
X112878033Y-84071967D01*
X112882976Y-84077421D01*
X112887360Y-84083332D01*
X112891144Y-84089645D01*
X112894291Y-84096299D01*
X112896771Y-84103229D01*
X112898559Y-84110368D01*
X112899639Y-84117649D01*
X112900000Y-84125000D01*
X112900000Y-85525000D01*
X112899639Y-85532351D01*
X112898559Y-85539632D01*
X112896771Y-85546771D01*
X112894291Y-85553701D01*
X112891144Y-85560355D01*
X112887360Y-85566668D01*
X112882976Y-85572579D01*
X112878033Y-85578033D01*
X112872579Y-85582976D01*
X112866668Y-85587360D01*
X112860355Y-85591144D01*
X112853701Y-85594291D01*
X112846771Y-85596771D01*
X112839632Y-85598559D01*
X112832351Y-85599639D01*
X112825000Y-85600000D01*
X112675000Y-85600000D01*
X112667649Y-85599639D01*
X112660368Y-85598559D01*
X112653229Y-85596771D01*
X112646299Y-85594291D01*
X112639645Y-85591144D01*
X112633332Y-85587360D01*
X112627421Y-85582976D01*
X112621967Y-85578033D01*
X112617024Y-85572579D01*
X112612640Y-85566668D01*
X112608856Y-85560355D01*
X112605709Y-85553701D01*
X112603229Y-85546771D01*
X112601441Y-85539632D01*
X112600361Y-85532351D01*
X112600000Y-85525000D01*
X112600000Y-84125000D01*
X112600361Y-84117649D01*
X112601441Y-84110368D01*
X112603229Y-84103229D01*
X112605709Y-84096299D01*
X112608856Y-84089645D01*
X112612640Y-84083332D01*
X112617024Y-84077421D01*
X112621967Y-84071967D01*
X112627421Y-84067024D01*
X112633332Y-84062640D01*
X112639645Y-84058856D01*
X112646299Y-84055709D01*
X112653229Y-84053229D01*
X112660368Y-84051441D01*
X112667649Y-84050361D01*
X112675000Y-84050000D01*
X112825000Y-84050000D01*
X112832351Y-84050361D01*
X112832351Y-84050361D01*
G37*
D20*
X112750000Y-84825000D03*
D19*
G36*
X113332351Y-84050361D02*
G01*
X113339632Y-84051441D01*
X113346771Y-84053229D01*
X113353701Y-84055709D01*
X113360355Y-84058856D01*
X113366668Y-84062640D01*
X113372579Y-84067024D01*
X113378033Y-84071967D01*
X113382976Y-84077421D01*
X113387360Y-84083332D01*
X113391144Y-84089645D01*
X113394291Y-84096299D01*
X113396771Y-84103229D01*
X113398559Y-84110368D01*
X113399639Y-84117649D01*
X113400000Y-84125000D01*
X113400000Y-85525000D01*
X113399639Y-85532351D01*
X113398559Y-85539632D01*
X113396771Y-85546771D01*
X113394291Y-85553701D01*
X113391144Y-85560355D01*
X113387360Y-85566668D01*
X113382976Y-85572579D01*
X113378033Y-85578033D01*
X113372579Y-85582976D01*
X113366668Y-85587360D01*
X113360355Y-85591144D01*
X113353701Y-85594291D01*
X113346771Y-85596771D01*
X113339632Y-85598559D01*
X113332351Y-85599639D01*
X113325000Y-85600000D01*
X113175000Y-85600000D01*
X113167649Y-85599639D01*
X113160368Y-85598559D01*
X113153229Y-85596771D01*
X113146299Y-85594291D01*
X113139645Y-85591144D01*
X113133332Y-85587360D01*
X113127421Y-85582976D01*
X113121967Y-85578033D01*
X113117024Y-85572579D01*
X113112640Y-85566668D01*
X113108856Y-85560355D01*
X113105709Y-85553701D01*
X113103229Y-85546771D01*
X113101441Y-85539632D01*
X113100361Y-85532351D01*
X113100000Y-85525000D01*
X113100000Y-84125000D01*
X113100361Y-84117649D01*
X113101441Y-84110368D01*
X113103229Y-84103229D01*
X113105709Y-84096299D01*
X113108856Y-84089645D01*
X113112640Y-84083332D01*
X113117024Y-84077421D01*
X113121967Y-84071967D01*
X113127421Y-84067024D01*
X113133332Y-84062640D01*
X113139645Y-84058856D01*
X113146299Y-84055709D01*
X113153229Y-84053229D01*
X113160368Y-84051441D01*
X113167649Y-84050361D01*
X113175000Y-84050000D01*
X113325000Y-84050000D01*
X113332351Y-84050361D01*
X113332351Y-84050361D01*
G37*
D20*
X113250000Y-84825000D03*
D19*
G36*
X113832351Y-84050361D02*
G01*
X113839632Y-84051441D01*
X113846771Y-84053229D01*
X113853701Y-84055709D01*
X113860355Y-84058856D01*
X113866668Y-84062640D01*
X113872579Y-84067024D01*
X113878033Y-84071967D01*
X113882976Y-84077421D01*
X113887360Y-84083332D01*
X113891144Y-84089645D01*
X113894291Y-84096299D01*
X113896771Y-84103229D01*
X113898559Y-84110368D01*
X113899639Y-84117649D01*
X113900000Y-84125000D01*
X113900000Y-85525000D01*
X113899639Y-85532351D01*
X113898559Y-85539632D01*
X113896771Y-85546771D01*
X113894291Y-85553701D01*
X113891144Y-85560355D01*
X113887360Y-85566668D01*
X113882976Y-85572579D01*
X113878033Y-85578033D01*
X113872579Y-85582976D01*
X113866668Y-85587360D01*
X113860355Y-85591144D01*
X113853701Y-85594291D01*
X113846771Y-85596771D01*
X113839632Y-85598559D01*
X113832351Y-85599639D01*
X113825000Y-85600000D01*
X113675000Y-85600000D01*
X113667649Y-85599639D01*
X113660368Y-85598559D01*
X113653229Y-85596771D01*
X113646299Y-85594291D01*
X113639645Y-85591144D01*
X113633332Y-85587360D01*
X113627421Y-85582976D01*
X113621967Y-85578033D01*
X113617024Y-85572579D01*
X113612640Y-85566668D01*
X113608856Y-85560355D01*
X113605709Y-85553701D01*
X113603229Y-85546771D01*
X113601441Y-85539632D01*
X113600361Y-85532351D01*
X113600000Y-85525000D01*
X113600000Y-84125000D01*
X113600361Y-84117649D01*
X113601441Y-84110368D01*
X113603229Y-84103229D01*
X113605709Y-84096299D01*
X113608856Y-84089645D01*
X113612640Y-84083332D01*
X113617024Y-84077421D01*
X113621967Y-84071967D01*
X113627421Y-84067024D01*
X113633332Y-84062640D01*
X113639645Y-84058856D01*
X113646299Y-84055709D01*
X113653229Y-84053229D01*
X113660368Y-84051441D01*
X113667649Y-84050361D01*
X113675000Y-84050000D01*
X113825000Y-84050000D01*
X113832351Y-84050361D01*
X113832351Y-84050361D01*
G37*
D20*
X113750000Y-84825000D03*
D19*
G36*
X114332351Y-84050361D02*
G01*
X114339632Y-84051441D01*
X114346771Y-84053229D01*
X114353701Y-84055709D01*
X114360355Y-84058856D01*
X114366668Y-84062640D01*
X114372579Y-84067024D01*
X114378033Y-84071967D01*
X114382976Y-84077421D01*
X114387360Y-84083332D01*
X114391144Y-84089645D01*
X114394291Y-84096299D01*
X114396771Y-84103229D01*
X114398559Y-84110368D01*
X114399639Y-84117649D01*
X114400000Y-84125000D01*
X114400000Y-85525000D01*
X114399639Y-85532351D01*
X114398559Y-85539632D01*
X114396771Y-85546771D01*
X114394291Y-85553701D01*
X114391144Y-85560355D01*
X114387360Y-85566668D01*
X114382976Y-85572579D01*
X114378033Y-85578033D01*
X114372579Y-85582976D01*
X114366668Y-85587360D01*
X114360355Y-85591144D01*
X114353701Y-85594291D01*
X114346771Y-85596771D01*
X114339632Y-85598559D01*
X114332351Y-85599639D01*
X114325000Y-85600000D01*
X114175000Y-85600000D01*
X114167649Y-85599639D01*
X114160368Y-85598559D01*
X114153229Y-85596771D01*
X114146299Y-85594291D01*
X114139645Y-85591144D01*
X114133332Y-85587360D01*
X114127421Y-85582976D01*
X114121967Y-85578033D01*
X114117024Y-85572579D01*
X114112640Y-85566668D01*
X114108856Y-85560355D01*
X114105709Y-85553701D01*
X114103229Y-85546771D01*
X114101441Y-85539632D01*
X114100361Y-85532351D01*
X114100000Y-85525000D01*
X114100000Y-84125000D01*
X114100361Y-84117649D01*
X114101441Y-84110368D01*
X114103229Y-84103229D01*
X114105709Y-84096299D01*
X114108856Y-84089645D01*
X114112640Y-84083332D01*
X114117024Y-84077421D01*
X114121967Y-84071967D01*
X114127421Y-84067024D01*
X114133332Y-84062640D01*
X114139645Y-84058856D01*
X114146299Y-84055709D01*
X114153229Y-84053229D01*
X114160368Y-84051441D01*
X114167649Y-84050361D01*
X114175000Y-84050000D01*
X114325000Y-84050000D01*
X114332351Y-84050361D01*
X114332351Y-84050361D01*
G37*
D20*
X114250000Y-84825000D03*
D19*
G36*
X114832351Y-84050361D02*
G01*
X114839632Y-84051441D01*
X114846771Y-84053229D01*
X114853701Y-84055709D01*
X114860355Y-84058856D01*
X114866668Y-84062640D01*
X114872579Y-84067024D01*
X114878033Y-84071967D01*
X114882976Y-84077421D01*
X114887360Y-84083332D01*
X114891144Y-84089645D01*
X114894291Y-84096299D01*
X114896771Y-84103229D01*
X114898559Y-84110368D01*
X114899639Y-84117649D01*
X114900000Y-84125000D01*
X114900000Y-85525000D01*
X114899639Y-85532351D01*
X114898559Y-85539632D01*
X114896771Y-85546771D01*
X114894291Y-85553701D01*
X114891144Y-85560355D01*
X114887360Y-85566668D01*
X114882976Y-85572579D01*
X114878033Y-85578033D01*
X114872579Y-85582976D01*
X114866668Y-85587360D01*
X114860355Y-85591144D01*
X114853701Y-85594291D01*
X114846771Y-85596771D01*
X114839632Y-85598559D01*
X114832351Y-85599639D01*
X114825000Y-85600000D01*
X114675000Y-85600000D01*
X114667649Y-85599639D01*
X114660368Y-85598559D01*
X114653229Y-85596771D01*
X114646299Y-85594291D01*
X114639645Y-85591144D01*
X114633332Y-85587360D01*
X114627421Y-85582976D01*
X114621967Y-85578033D01*
X114617024Y-85572579D01*
X114612640Y-85566668D01*
X114608856Y-85560355D01*
X114605709Y-85553701D01*
X114603229Y-85546771D01*
X114601441Y-85539632D01*
X114600361Y-85532351D01*
X114600000Y-85525000D01*
X114600000Y-84125000D01*
X114600361Y-84117649D01*
X114601441Y-84110368D01*
X114603229Y-84103229D01*
X114605709Y-84096299D01*
X114608856Y-84089645D01*
X114612640Y-84083332D01*
X114617024Y-84077421D01*
X114621967Y-84071967D01*
X114627421Y-84067024D01*
X114633332Y-84062640D01*
X114639645Y-84058856D01*
X114646299Y-84055709D01*
X114653229Y-84053229D01*
X114660368Y-84051441D01*
X114667649Y-84050361D01*
X114675000Y-84050000D01*
X114825000Y-84050000D01*
X114832351Y-84050361D01*
X114832351Y-84050361D01*
G37*
D20*
X114750000Y-84825000D03*
D19*
G36*
X115332351Y-84050361D02*
G01*
X115339632Y-84051441D01*
X115346771Y-84053229D01*
X115353701Y-84055709D01*
X115360355Y-84058856D01*
X115366668Y-84062640D01*
X115372579Y-84067024D01*
X115378033Y-84071967D01*
X115382976Y-84077421D01*
X115387360Y-84083332D01*
X115391144Y-84089645D01*
X115394291Y-84096299D01*
X115396771Y-84103229D01*
X115398559Y-84110368D01*
X115399639Y-84117649D01*
X115400000Y-84125000D01*
X115400000Y-85525000D01*
X115399639Y-85532351D01*
X115398559Y-85539632D01*
X115396771Y-85546771D01*
X115394291Y-85553701D01*
X115391144Y-85560355D01*
X115387360Y-85566668D01*
X115382976Y-85572579D01*
X115378033Y-85578033D01*
X115372579Y-85582976D01*
X115366668Y-85587360D01*
X115360355Y-85591144D01*
X115353701Y-85594291D01*
X115346771Y-85596771D01*
X115339632Y-85598559D01*
X115332351Y-85599639D01*
X115325000Y-85600000D01*
X115175000Y-85600000D01*
X115167649Y-85599639D01*
X115160368Y-85598559D01*
X115153229Y-85596771D01*
X115146299Y-85594291D01*
X115139645Y-85591144D01*
X115133332Y-85587360D01*
X115127421Y-85582976D01*
X115121967Y-85578033D01*
X115117024Y-85572579D01*
X115112640Y-85566668D01*
X115108856Y-85560355D01*
X115105709Y-85553701D01*
X115103229Y-85546771D01*
X115101441Y-85539632D01*
X115100361Y-85532351D01*
X115100000Y-85525000D01*
X115100000Y-84125000D01*
X115100361Y-84117649D01*
X115101441Y-84110368D01*
X115103229Y-84103229D01*
X115105709Y-84096299D01*
X115108856Y-84089645D01*
X115112640Y-84083332D01*
X115117024Y-84077421D01*
X115121967Y-84071967D01*
X115127421Y-84067024D01*
X115133332Y-84062640D01*
X115139645Y-84058856D01*
X115146299Y-84055709D01*
X115153229Y-84053229D01*
X115160368Y-84051441D01*
X115167649Y-84050361D01*
X115175000Y-84050000D01*
X115325000Y-84050000D01*
X115332351Y-84050361D01*
X115332351Y-84050361D01*
G37*
D20*
X115250000Y-84825000D03*
D19*
G36*
X115832351Y-84050361D02*
G01*
X115839632Y-84051441D01*
X115846771Y-84053229D01*
X115853701Y-84055709D01*
X115860355Y-84058856D01*
X115866668Y-84062640D01*
X115872579Y-84067024D01*
X115878033Y-84071967D01*
X115882976Y-84077421D01*
X115887360Y-84083332D01*
X115891144Y-84089645D01*
X115894291Y-84096299D01*
X115896771Y-84103229D01*
X115898559Y-84110368D01*
X115899639Y-84117649D01*
X115900000Y-84125000D01*
X115900000Y-85525000D01*
X115899639Y-85532351D01*
X115898559Y-85539632D01*
X115896771Y-85546771D01*
X115894291Y-85553701D01*
X115891144Y-85560355D01*
X115887360Y-85566668D01*
X115882976Y-85572579D01*
X115878033Y-85578033D01*
X115872579Y-85582976D01*
X115866668Y-85587360D01*
X115860355Y-85591144D01*
X115853701Y-85594291D01*
X115846771Y-85596771D01*
X115839632Y-85598559D01*
X115832351Y-85599639D01*
X115825000Y-85600000D01*
X115675000Y-85600000D01*
X115667649Y-85599639D01*
X115660368Y-85598559D01*
X115653229Y-85596771D01*
X115646299Y-85594291D01*
X115639645Y-85591144D01*
X115633332Y-85587360D01*
X115627421Y-85582976D01*
X115621967Y-85578033D01*
X115617024Y-85572579D01*
X115612640Y-85566668D01*
X115608856Y-85560355D01*
X115605709Y-85553701D01*
X115603229Y-85546771D01*
X115601441Y-85539632D01*
X115600361Y-85532351D01*
X115600000Y-85525000D01*
X115600000Y-84125000D01*
X115600361Y-84117649D01*
X115601441Y-84110368D01*
X115603229Y-84103229D01*
X115605709Y-84096299D01*
X115608856Y-84089645D01*
X115612640Y-84083332D01*
X115617024Y-84077421D01*
X115621967Y-84071967D01*
X115627421Y-84067024D01*
X115633332Y-84062640D01*
X115639645Y-84058856D01*
X115646299Y-84055709D01*
X115653229Y-84053229D01*
X115660368Y-84051441D01*
X115667649Y-84050361D01*
X115675000Y-84050000D01*
X115825000Y-84050000D01*
X115832351Y-84050361D01*
X115832351Y-84050361D01*
G37*
D20*
X115750000Y-84825000D03*
D19*
G36*
X116332351Y-84050361D02*
G01*
X116339632Y-84051441D01*
X116346771Y-84053229D01*
X116353701Y-84055709D01*
X116360355Y-84058856D01*
X116366668Y-84062640D01*
X116372579Y-84067024D01*
X116378033Y-84071967D01*
X116382976Y-84077421D01*
X116387360Y-84083332D01*
X116391144Y-84089645D01*
X116394291Y-84096299D01*
X116396771Y-84103229D01*
X116398559Y-84110368D01*
X116399639Y-84117649D01*
X116400000Y-84125000D01*
X116400000Y-85525000D01*
X116399639Y-85532351D01*
X116398559Y-85539632D01*
X116396771Y-85546771D01*
X116394291Y-85553701D01*
X116391144Y-85560355D01*
X116387360Y-85566668D01*
X116382976Y-85572579D01*
X116378033Y-85578033D01*
X116372579Y-85582976D01*
X116366668Y-85587360D01*
X116360355Y-85591144D01*
X116353701Y-85594291D01*
X116346771Y-85596771D01*
X116339632Y-85598559D01*
X116332351Y-85599639D01*
X116325000Y-85600000D01*
X116175000Y-85600000D01*
X116167649Y-85599639D01*
X116160368Y-85598559D01*
X116153229Y-85596771D01*
X116146299Y-85594291D01*
X116139645Y-85591144D01*
X116133332Y-85587360D01*
X116127421Y-85582976D01*
X116121967Y-85578033D01*
X116117024Y-85572579D01*
X116112640Y-85566668D01*
X116108856Y-85560355D01*
X116105709Y-85553701D01*
X116103229Y-85546771D01*
X116101441Y-85539632D01*
X116100361Y-85532351D01*
X116100000Y-85525000D01*
X116100000Y-84125000D01*
X116100361Y-84117649D01*
X116101441Y-84110368D01*
X116103229Y-84103229D01*
X116105709Y-84096299D01*
X116108856Y-84089645D01*
X116112640Y-84083332D01*
X116117024Y-84077421D01*
X116121967Y-84071967D01*
X116127421Y-84067024D01*
X116133332Y-84062640D01*
X116139645Y-84058856D01*
X116146299Y-84055709D01*
X116153229Y-84053229D01*
X116160368Y-84051441D01*
X116167649Y-84050361D01*
X116175000Y-84050000D01*
X116325000Y-84050000D01*
X116332351Y-84050361D01*
X116332351Y-84050361D01*
G37*
D20*
X116250000Y-84825000D03*
D19*
G36*
X116832351Y-84050361D02*
G01*
X116839632Y-84051441D01*
X116846771Y-84053229D01*
X116853701Y-84055709D01*
X116860355Y-84058856D01*
X116866668Y-84062640D01*
X116872579Y-84067024D01*
X116878033Y-84071967D01*
X116882976Y-84077421D01*
X116887360Y-84083332D01*
X116891144Y-84089645D01*
X116894291Y-84096299D01*
X116896771Y-84103229D01*
X116898559Y-84110368D01*
X116899639Y-84117649D01*
X116900000Y-84125000D01*
X116900000Y-85525000D01*
X116899639Y-85532351D01*
X116898559Y-85539632D01*
X116896771Y-85546771D01*
X116894291Y-85553701D01*
X116891144Y-85560355D01*
X116887360Y-85566668D01*
X116882976Y-85572579D01*
X116878033Y-85578033D01*
X116872579Y-85582976D01*
X116866668Y-85587360D01*
X116860355Y-85591144D01*
X116853701Y-85594291D01*
X116846771Y-85596771D01*
X116839632Y-85598559D01*
X116832351Y-85599639D01*
X116825000Y-85600000D01*
X116675000Y-85600000D01*
X116667649Y-85599639D01*
X116660368Y-85598559D01*
X116653229Y-85596771D01*
X116646299Y-85594291D01*
X116639645Y-85591144D01*
X116633332Y-85587360D01*
X116627421Y-85582976D01*
X116621967Y-85578033D01*
X116617024Y-85572579D01*
X116612640Y-85566668D01*
X116608856Y-85560355D01*
X116605709Y-85553701D01*
X116603229Y-85546771D01*
X116601441Y-85539632D01*
X116600361Y-85532351D01*
X116600000Y-85525000D01*
X116600000Y-84125000D01*
X116600361Y-84117649D01*
X116601441Y-84110368D01*
X116603229Y-84103229D01*
X116605709Y-84096299D01*
X116608856Y-84089645D01*
X116612640Y-84083332D01*
X116617024Y-84077421D01*
X116621967Y-84071967D01*
X116627421Y-84067024D01*
X116633332Y-84062640D01*
X116639645Y-84058856D01*
X116646299Y-84055709D01*
X116653229Y-84053229D01*
X116660368Y-84051441D01*
X116667649Y-84050361D01*
X116675000Y-84050000D01*
X116825000Y-84050000D01*
X116832351Y-84050361D01*
X116832351Y-84050361D01*
G37*
D20*
X116750000Y-84825000D03*
D19*
G36*
X117332351Y-84050361D02*
G01*
X117339632Y-84051441D01*
X117346771Y-84053229D01*
X117353701Y-84055709D01*
X117360355Y-84058856D01*
X117366668Y-84062640D01*
X117372579Y-84067024D01*
X117378033Y-84071967D01*
X117382976Y-84077421D01*
X117387360Y-84083332D01*
X117391144Y-84089645D01*
X117394291Y-84096299D01*
X117396771Y-84103229D01*
X117398559Y-84110368D01*
X117399639Y-84117649D01*
X117400000Y-84125000D01*
X117400000Y-85525000D01*
X117399639Y-85532351D01*
X117398559Y-85539632D01*
X117396771Y-85546771D01*
X117394291Y-85553701D01*
X117391144Y-85560355D01*
X117387360Y-85566668D01*
X117382976Y-85572579D01*
X117378033Y-85578033D01*
X117372579Y-85582976D01*
X117366668Y-85587360D01*
X117360355Y-85591144D01*
X117353701Y-85594291D01*
X117346771Y-85596771D01*
X117339632Y-85598559D01*
X117332351Y-85599639D01*
X117325000Y-85600000D01*
X117175000Y-85600000D01*
X117167649Y-85599639D01*
X117160368Y-85598559D01*
X117153229Y-85596771D01*
X117146299Y-85594291D01*
X117139645Y-85591144D01*
X117133332Y-85587360D01*
X117127421Y-85582976D01*
X117121967Y-85578033D01*
X117117024Y-85572579D01*
X117112640Y-85566668D01*
X117108856Y-85560355D01*
X117105709Y-85553701D01*
X117103229Y-85546771D01*
X117101441Y-85539632D01*
X117100361Y-85532351D01*
X117100000Y-85525000D01*
X117100000Y-84125000D01*
X117100361Y-84117649D01*
X117101441Y-84110368D01*
X117103229Y-84103229D01*
X117105709Y-84096299D01*
X117108856Y-84089645D01*
X117112640Y-84083332D01*
X117117024Y-84077421D01*
X117121967Y-84071967D01*
X117127421Y-84067024D01*
X117133332Y-84062640D01*
X117139645Y-84058856D01*
X117146299Y-84055709D01*
X117153229Y-84053229D01*
X117160368Y-84051441D01*
X117167649Y-84050361D01*
X117175000Y-84050000D01*
X117325000Y-84050000D01*
X117332351Y-84050361D01*
X117332351Y-84050361D01*
G37*
D20*
X117250000Y-84825000D03*
D19*
G36*
X117832351Y-84050361D02*
G01*
X117839632Y-84051441D01*
X117846771Y-84053229D01*
X117853701Y-84055709D01*
X117860355Y-84058856D01*
X117866668Y-84062640D01*
X117872579Y-84067024D01*
X117878033Y-84071967D01*
X117882976Y-84077421D01*
X117887360Y-84083332D01*
X117891144Y-84089645D01*
X117894291Y-84096299D01*
X117896771Y-84103229D01*
X117898559Y-84110368D01*
X117899639Y-84117649D01*
X117900000Y-84125000D01*
X117900000Y-85525000D01*
X117899639Y-85532351D01*
X117898559Y-85539632D01*
X117896771Y-85546771D01*
X117894291Y-85553701D01*
X117891144Y-85560355D01*
X117887360Y-85566668D01*
X117882976Y-85572579D01*
X117878033Y-85578033D01*
X117872579Y-85582976D01*
X117866668Y-85587360D01*
X117860355Y-85591144D01*
X117853701Y-85594291D01*
X117846771Y-85596771D01*
X117839632Y-85598559D01*
X117832351Y-85599639D01*
X117825000Y-85600000D01*
X117675000Y-85600000D01*
X117667649Y-85599639D01*
X117660368Y-85598559D01*
X117653229Y-85596771D01*
X117646299Y-85594291D01*
X117639645Y-85591144D01*
X117633332Y-85587360D01*
X117627421Y-85582976D01*
X117621967Y-85578033D01*
X117617024Y-85572579D01*
X117612640Y-85566668D01*
X117608856Y-85560355D01*
X117605709Y-85553701D01*
X117603229Y-85546771D01*
X117601441Y-85539632D01*
X117600361Y-85532351D01*
X117600000Y-85525000D01*
X117600000Y-84125000D01*
X117600361Y-84117649D01*
X117601441Y-84110368D01*
X117603229Y-84103229D01*
X117605709Y-84096299D01*
X117608856Y-84089645D01*
X117612640Y-84083332D01*
X117617024Y-84077421D01*
X117621967Y-84071967D01*
X117627421Y-84067024D01*
X117633332Y-84062640D01*
X117639645Y-84058856D01*
X117646299Y-84055709D01*
X117653229Y-84053229D01*
X117660368Y-84051441D01*
X117667649Y-84050361D01*
X117675000Y-84050000D01*
X117825000Y-84050000D01*
X117832351Y-84050361D01*
X117832351Y-84050361D01*
G37*
D20*
X117750000Y-84825000D03*
D19*
G36*
X118332351Y-84050361D02*
G01*
X118339632Y-84051441D01*
X118346771Y-84053229D01*
X118353701Y-84055709D01*
X118360355Y-84058856D01*
X118366668Y-84062640D01*
X118372579Y-84067024D01*
X118378033Y-84071967D01*
X118382976Y-84077421D01*
X118387360Y-84083332D01*
X118391144Y-84089645D01*
X118394291Y-84096299D01*
X118396771Y-84103229D01*
X118398559Y-84110368D01*
X118399639Y-84117649D01*
X118400000Y-84125000D01*
X118400000Y-85525000D01*
X118399639Y-85532351D01*
X118398559Y-85539632D01*
X118396771Y-85546771D01*
X118394291Y-85553701D01*
X118391144Y-85560355D01*
X118387360Y-85566668D01*
X118382976Y-85572579D01*
X118378033Y-85578033D01*
X118372579Y-85582976D01*
X118366668Y-85587360D01*
X118360355Y-85591144D01*
X118353701Y-85594291D01*
X118346771Y-85596771D01*
X118339632Y-85598559D01*
X118332351Y-85599639D01*
X118325000Y-85600000D01*
X118175000Y-85600000D01*
X118167649Y-85599639D01*
X118160368Y-85598559D01*
X118153229Y-85596771D01*
X118146299Y-85594291D01*
X118139645Y-85591144D01*
X118133332Y-85587360D01*
X118127421Y-85582976D01*
X118121967Y-85578033D01*
X118117024Y-85572579D01*
X118112640Y-85566668D01*
X118108856Y-85560355D01*
X118105709Y-85553701D01*
X118103229Y-85546771D01*
X118101441Y-85539632D01*
X118100361Y-85532351D01*
X118100000Y-85525000D01*
X118100000Y-84125000D01*
X118100361Y-84117649D01*
X118101441Y-84110368D01*
X118103229Y-84103229D01*
X118105709Y-84096299D01*
X118108856Y-84089645D01*
X118112640Y-84083332D01*
X118117024Y-84077421D01*
X118121967Y-84071967D01*
X118127421Y-84067024D01*
X118133332Y-84062640D01*
X118139645Y-84058856D01*
X118146299Y-84055709D01*
X118153229Y-84053229D01*
X118160368Y-84051441D01*
X118167649Y-84050361D01*
X118175000Y-84050000D01*
X118325000Y-84050000D01*
X118332351Y-84050361D01*
X118332351Y-84050361D01*
G37*
D20*
X118250000Y-84825000D03*
D19*
G36*
X118832351Y-84050361D02*
G01*
X118839632Y-84051441D01*
X118846771Y-84053229D01*
X118853701Y-84055709D01*
X118860355Y-84058856D01*
X118866668Y-84062640D01*
X118872579Y-84067024D01*
X118878033Y-84071967D01*
X118882976Y-84077421D01*
X118887360Y-84083332D01*
X118891144Y-84089645D01*
X118894291Y-84096299D01*
X118896771Y-84103229D01*
X118898559Y-84110368D01*
X118899639Y-84117649D01*
X118900000Y-84125000D01*
X118900000Y-85525000D01*
X118899639Y-85532351D01*
X118898559Y-85539632D01*
X118896771Y-85546771D01*
X118894291Y-85553701D01*
X118891144Y-85560355D01*
X118887360Y-85566668D01*
X118882976Y-85572579D01*
X118878033Y-85578033D01*
X118872579Y-85582976D01*
X118866668Y-85587360D01*
X118860355Y-85591144D01*
X118853701Y-85594291D01*
X118846771Y-85596771D01*
X118839632Y-85598559D01*
X118832351Y-85599639D01*
X118825000Y-85600000D01*
X118675000Y-85600000D01*
X118667649Y-85599639D01*
X118660368Y-85598559D01*
X118653229Y-85596771D01*
X118646299Y-85594291D01*
X118639645Y-85591144D01*
X118633332Y-85587360D01*
X118627421Y-85582976D01*
X118621967Y-85578033D01*
X118617024Y-85572579D01*
X118612640Y-85566668D01*
X118608856Y-85560355D01*
X118605709Y-85553701D01*
X118603229Y-85546771D01*
X118601441Y-85539632D01*
X118600361Y-85532351D01*
X118600000Y-85525000D01*
X118600000Y-84125000D01*
X118600361Y-84117649D01*
X118601441Y-84110368D01*
X118603229Y-84103229D01*
X118605709Y-84096299D01*
X118608856Y-84089645D01*
X118612640Y-84083332D01*
X118617024Y-84077421D01*
X118621967Y-84071967D01*
X118627421Y-84067024D01*
X118633332Y-84062640D01*
X118639645Y-84058856D01*
X118646299Y-84055709D01*
X118653229Y-84053229D01*
X118660368Y-84051441D01*
X118667649Y-84050361D01*
X118675000Y-84050000D01*
X118825000Y-84050000D01*
X118832351Y-84050361D01*
X118832351Y-84050361D01*
G37*
D20*
X118750000Y-84825000D03*
D19*
G36*
X119332351Y-84050361D02*
G01*
X119339632Y-84051441D01*
X119346771Y-84053229D01*
X119353701Y-84055709D01*
X119360355Y-84058856D01*
X119366668Y-84062640D01*
X119372579Y-84067024D01*
X119378033Y-84071967D01*
X119382976Y-84077421D01*
X119387360Y-84083332D01*
X119391144Y-84089645D01*
X119394291Y-84096299D01*
X119396771Y-84103229D01*
X119398559Y-84110368D01*
X119399639Y-84117649D01*
X119400000Y-84125000D01*
X119400000Y-85525000D01*
X119399639Y-85532351D01*
X119398559Y-85539632D01*
X119396771Y-85546771D01*
X119394291Y-85553701D01*
X119391144Y-85560355D01*
X119387360Y-85566668D01*
X119382976Y-85572579D01*
X119378033Y-85578033D01*
X119372579Y-85582976D01*
X119366668Y-85587360D01*
X119360355Y-85591144D01*
X119353701Y-85594291D01*
X119346771Y-85596771D01*
X119339632Y-85598559D01*
X119332351Y-85599639D01*
X119325000Y-85600000D01*
X119175000Y-85600000D01*
X119167649Y-85599639D01*
X119160368Y-85598559D01*
X119153229Y-85596771D01*
X119146299Y-85594291D01*
X119139645Y-85591144D01*
X119133332Y-85587360D01*
X119127421Y-85582976D01*
X119121967Y-85578033D01*
X119117024Y-85572579D01*
X119112640Y-85566668D01*
X119108856Y-85560355D01*
X119105709Y-85553701D01*
X119103229Y-85546771D01*
X119101441Y-85539632D01*
X119100361Y-85532351D01*
X119100000Y-85525000D01*
X119100000Y-84125000D01*
X119100361Y-84117649D01*
X119101441Y-84110368D01*
X119103229Y-84103229D01*
X119105709Y-84096299D01*
X119108856Y-84089645D01*
X119112640Y-84083332D01*
X119117024Y-84077421D01*
X119121967Y-84071967D01*
X119127421Y-84067024D01*
X119133332Y-84062640D01*
X119139645Y-84058856D01*
X119146299Y-84055709D01*
X119153229Y-84053229D01*
X119160368Y-84051441D01*
X119167649Y-84050361D01*
X119175000Y-84050000D01*
X119325000Y-84050000D01*
X119332351Y-84050361D01*
X119332351Y-84050361D01*
G37*
D20*
X119250000Y-84825000D03*
D19*
G36*
X121882351Y-86600361D02*
G01*
X121889632Y-86601441D01*
X121896771Y-86603229D01*
X121903701Y-86605709D01*
X121910355Y-86608856D01*
X121916668Y-86612640D01*
X121922579Y-86617024D01*
X121928033Y-86621967D01*
X121932976Y-86627421D01*
X121937360Y-86633332D01*
X121941144Y-86639645D01*
X121944291Y-86646299D01*
X121946771Y-86653229D01*
X121948559Y-86660368D01*
X121949639Y-86667649D01*
X121950000Y-86675000D01*
X121950000Y-86825000D01*
X121949639Y-86832351D01*
X121948559Y-86839632D01*
X121946771Y-86846771D01*
X121944291Y-86853701D01*
X121941144Y-86860355D01*
X121937360Y-86866668D01*
X121932976Y-86872579D01*
X121928033Y-86878033D01*
X121922579Y-86882976D01*
X121916668Y-86887360D01*
X121910355Y-86891144D01*
X121903701Y-86894291D01*
X121896771Y-86896771D01*
X121889632Y-86898559D01*
X121882351Y-86899639D01*
X121875000Y-86900000D01*
X120475000Y-86900000D01*
X120467649Y-86899639D01*
X120460368Y-86898559D01*
X120453229Y-86896771D01*
X120446299Y-86894291D01*
X120439645Y-86891144D01*
X120433332Y-86887360D01*
X120427421Y-86882976D01*
X120421967Y-86878033D01*
X120417024Y-86872579D01*
X120412640Y-86866668D01*
X120408856Y-86860355D01*
X120405709Y-86853701D01*
X120403229Y-86846771D01*
X120401441Y-86839632D01*
X120400361Y-86832351D01*
X120400000Y-86825000D01*
X120400000Y-86675000D01*
X120400361Y-86667649D01*
X120401441Y-86660368D01*
X120403229Y-86653229D01*
X120405709Y-86646299D01*
X120408856Y-86639645D01*
X120412640Y-86633332D01*
X120417024Y-86627421D01*
X120421967Y-86621967D01*
X120427421Y-86617024D01*
X120433332Y-86612640D01*
X120439645Y-86608856D01*
X120446299Y-86605709D01*
X120453229Y-86603229D01*
X120460368Y-86601441D01*
X120467649Y-86600361D01*
X120475000Y-86600000D01*
X121875000Y-86600000D01*
X121882351Y-86600361D01*
X121882351Y-86600361D01*
G37*
D20*
X121175000Y-86750000D03*
D19*
G36*
X121882351Y-87100361D02*
G01*
X121889632Y-87101441D01*
X121896771Y-87103229D01*
X121903701Y-87105709D01*
X121910355Y-87108856D01*
X121916668Y-87112640D01*
X121922579Y-87117024D01*
X121928033Y-87121967D01*
X121932976Y-87127421D01*
X121937360Y-87133332D01*
X121941144Y-87139645D01*
X121944291Y-87146299D01*
X121946771Y-87153229D01*
X121948559Y-87160368D01*
X121949639Y-87167649D01*
X121950000Y-87175000D01*
X121950000Y-87325000D01*
X121949639Y-87332351D01*
X121948559Y-87339632D01*
X121946771Y-87346771D01*
X121944291Y-87353701D01*
X121941144Y-87360355D01*
X121937360Y-87366668D01*
X121932976Y-87372579D01*
X121928033Y-87378033D01*
X121922579Y-87382976D01*
X121916668Y-87387360D01*
X121910355Y-87391144D01*
X121903701Y-87394291D01*
X121896771Y-87396771D01*
X121889632Y-87398559D01*
X121882351Y-87399639D01*
X121875000Y-87400000D01*
X120475000Y-87400000D01*
X120467649Y-87399639D01*
X120460368Y-87398559D01*
X120453229Y-87396771D01*
X120446299Y-87394291D01*
X120439645Y-87391144D01*
X120433332Y-87387360D01*
X120427421Y-87382976D01*
X120421967Y-87378033D01*
X120417024Y-87372579D01*
X120412640Y-87366668D01*
X120408856Y-87360355D01*
X120405709Y-87353701D01*
X120403229Y-87346771D01*
X120401441Y-87339632D01*
X120400361Y-87332351D01*
X120400000Y-87325000D01*
X120400000Y-87175000D01*
X120400361Y-87167649D01*
X120401441Y-87160368D01*
X120403229Y-87153229D01*
X120405709Y-87146299D01*
X120408856Y-87139645D01*
X120412640Y-87133332D01*
X120417024Y-87127421D01*
X120421967Y-87121967D01*
X120427421Y-87117024D01*
X120433332Y-87112640D01*
X120439645Y-87108856D01*
X120446299Y-87105709D01*
X120453229Y-87103229D01*
X120460368Y-87101441D01*
X120467649Y-87100361D01*
X120475000Y-87100000D01*
X121875000Y-87100000D01*
X121882351Y-87100361D01*
X121882351Y-87100361D01*
G37*
D20*
X121175000Y-87250000D03*
D19*
G36*
X121882351Y-87600361D02*
G01*
X121889632Y-87601441D01*
X121896771Y-87603229D01*
X121903701Y-87605709D01*
X121910355Y-87608856D01*
X121916668Y-87612640D01*
X121922579Y-87617024D01*
X121928033Y-87621967D01*
X121932976Y-87627421D01*
X121937360Y-87633332D01*
X121941144Y-87639645D01*
X121944291Y-87646299D01*
X121946771Y-87653229D01*
X121948559Y-87660368D01*
X121949639Y-87667649D01*
X121950000Y-87675000D01*
X121950000Y-87825000D01*
X121949639Y-87832351D01*
X121948559Y-87839632D01*
X121946771Y-87846771D01*
X121944291Y-87853701D01*
X121941144Y-87860355D01*
X121937360Y-87866668D01*
X121932976Y-87872579D01*
X121928033Y-87878033D01*
X121922579Y-87882976D01*
X121916668Y-87887360D01*
X121910355Y-87891144D01*
X121903701Y-87894291D01*
X121896771Y-87896771D01*
X121889632Y-87898559D01*
X121882351Y-87899639D01*
X121875000Y-87900000D01*
X120475000Y-87900000D01*
X120467649Y-87899639D01*
X120460368Y-87898559D01*
X120453229Y-87896771D01*
X120446299Y-87894291D01*
X120439645Y-87891144D01*
X120433332Y-87887360D01*
X120427421Y-87882976D01*
X120421967Y-87878033D01*
X120417024Y-87872579D01*
X120412640Y-87866668D01*
X120408856Y-87860355D01*
X120405709Y-87853701D01*
X120403229Y-87846771D01*
X120401441Y-87839632D01*
X120400361Y-87832351D01*
X120400000Y-87825000D01*
X120400000Y-87675000D01*
X120400361Y-87667649D01*
X120401441Y-87660368D01*
X120403229Y-87653229D01*
X120405709Y-87646299D01*
X120408856Y-87639645D01*
X120412640Y-87633332D01*
X120417024Y-87627421D01*
X120421967Y-87621967D01*
X120427421Y-87617024D01*
X120433332Y-87612640D01*
X120439645Y-87608856D01*
X120446299Y-87605709D01*
X120453229Y-87603229D01*
X120460368Y-87601441D01*
X120467649Y-87600361D01*
X120475000Y-87600000D01*
X121875000Y-87600000D01*
X121882351Y-87600361D01*
X121882351Y-87600361D01*
G37*
D20*
X121175000Y-87750000D03*
D19*
G36*
X121882351Y-88100361D02*
G01*
X121889632Y-88101441D01*
X121896771Y-88103229D01*
X121903701Y-88105709D01*
X121910355Y-88108856D01*
X121916668Y-88112640D01*
X121922579Y-88117024D01*
X121928033Y-88121967D01*
X121932976Y-88127421D01*
X121937360Y-88133332D01*
X121941144Y-88139645D01*
X121944291Y-88146299D01*
X121946771Y-88153229D01*
X121948559Y-88160368D01*
X121949639Y-88167649D01*
X121950000Y-88175000D01*
X121950000Y-88325000D01*
X121949639Y-88332351D01*
X121948559Y-88339632D01*
X121946771Y-88346771D01*
X121944291Y-88353701D01*
X121941144Y-88360355D01*
X121937360Y-88366668D01*
X121932976Y-88372579D01*
X121928033Y-88378033D01*
X121922579Y-88382976D01*
X121916668Y-88387360D01*
X121910355Y-88391144D01*
X121903701Y-88394291D01*
X121896771Y-88396771D01*
X121889632Y-88398559D01*
X121882351Y-88399639D01*
X121875000Y-88400000D01*
X120475000Y-88400000D01*
X120467649Y-88399639D01*
X120460368Y-88398559D01*
X120453229Y-88396771D01*
X120446299Y-88394291D01*
X120439645Y-88391144D01*
X120433332Y-88387360D01*
X120427421Y-88382976D01*
X120421967Y-88378033D01*
X120417024Y-88372579D01*
X120412640Y-88366668D01*
X120408856Y-88360355D01*
X120405709Y-88353701D01*
X120403229Y-88346771D01*
X120401441Y-88339632D01*
X120400361Y-88332351D01*
X120400000Y-88325000D01*
X120400000Y-88175000D01*
X120400361Y-88167649D01*
X120401441Y-88160368D01*
X120403229Y-88153229D01*
X120405709Y-88146299D01*
X120408856Y-88139645D01*
X120412640Y-88133332D01*
X120417024Y-88127421D01*
X120421967Y-88121967D01*
X120427421Y-88117024D01*
X120433332Y-88112640D01*
X120439645Y-88108856D01*
X120446299Y-88105709D01*
X120453229Y-88103229D01*
X120460368Y-88101441D01*
X120467649Y-88100361D01*
X120475000Y-88100000D01*
X121875000Y-88100000D01*
X121882351Y-88100361D01*
X121882351Y-88100361D01*
G37*
D20*
X121175000Y-88250000D03*
D19*
G36*
X121882351Y-88600361D02*
G01*
X121889632Y-88601441D01*
X121896771Y-88603229D01*
X121903701Y-88605709D01*
X121910355Y-88608856D01*
X121916668Y-88612640D01*
X121922579Y-88617024D01*
X121928033Y-88621967D01*
X121932976Y-88627421D01*
X121937360Y-88633332D01*
X121941144Y-88639645D01*
X121944291Y-88646299D01*
X121946771Y-88653229D01*
X121948559Y-88660368D01*
X121949639Y-88667649D01*
X121950000Y-88675000D01*
X121950000Y-88825000D01*
X121949639Y-88832351D01*
X121948559Y-88839632D01*
X121946771Y-88846771D01*
X121944291Y-88853701D01*
X121941144Y-88860355D01*
X121937360Y-88866668D01*
X121932976Y-88872579D01*
X121928033Y-88878033D01*
X121922579Y-88882976D01*
X121916668Y-88887360D01*
X121910355Y-88891144D01*
X121903701Y-88894291D01*
X121896771Y-88896771D01*
X121889632Y-88898559D01*
X121882351Y-88899639D01*
X121875000Y-88900000D01*
X120475000Y-88900000D01*
X120467649Y-88899639D01*
X120460368Y-88898559D01*
X120453229Y-88896771D01*
X120446299Y-88894291D01*
X120439645Y-88891144D01*
X120433332Y-88887360D01*
X120427421Y-88882976D01*
X120421967Y-88878033D01*
X120417024Y-88872579D01*
X120412640Y-88866668D01*
X120408856Y-88860355D01*
X120405709Y-88853701D01*
X120403229Y-88846771D01*
X120401441Y-88839632D01*
X120400361Y-88832351D01*
X120400000Y-88825000D01*
X120400000Y-88675000D01*
X120400361Y-88667649D01*
X120401441Y-88660368D01*
X120403229Y-88653229D01*
X120405709Y-88646299D01*
X120408856Y-88639645D01*
X120412640Y-88633332D01*
X120417024Y-88627421D01*
X120421967Y-88621967D01*
X120427421Y-88617024D01*
X120433332Y-88612640D01*
X120439645Y-88608856D01*
X120446299Y-88605709D01*
X120453229Y-88603229D01*
X120460368Y-88601441D01*
X120467649Y-88600361D01*
X120475000Y-88600000D01*
X121875000Y-88600000D01*
X121882351Y-88600361D01*
X121882351Y-88600361D01*
G37*
D20*
X121175000Y-88750000D03*
D19*
G36*
X121882351Y-89100361D02*
G01*
X121889632Y-89101441D01*
X121896771Y-89103229D01*
X121903701Y-89105709D01*
X121910355Y-89108856D01*
X121916668Y-89112640D01*
X121922579Y-89117024D01*
X121928033Y-89121967D01*
X121932976Y-89127421D01*
X121937360Y-89133332D01*
X121941144Y-89139645D01*
X121944291Y-89146299D01*
X121946771Y-89153229D01*
X121948559Y-89160368D01*
X121949639Y-89167649D01*
X121950000Y-89175000D01*
X121950000Y-89325000D01*
X121949639Y-89332351D01*
X121948559Y-89339632D01*
X121946771Y-89346771D01*
X121944291Y-89353701D01*
X121941144Y-89360355D01*
X121937360Y-89366668D01*
X121932976Y-89372579D01*
X121928033Y-89378033D01*
X121922579Y-89382976D01*
X121916668Y-89387360D01*
X121910355Y-89391144D01*
X121903701Y-89394291D01*
X121896771Y-89396771D01*
X121889632Y-89398559D01*
X121882351Y-89399639D01*
X121875000Y-89400000D01*
X120475000Y-89400000D01*
X120467649Y-89399639D01*
X120460368Y-89398559D01*
X120453229Y-89396771D01*
X120446299Y-89394291D01*
X120439645Y-89391144D01*
X120433332Y-89387360D01*
X120427421Y-89382976D01*
X120421967Y-89378033D01*
X120417024Y-89372579D01*
X120412640Y-89366668D01*
X120408856Y-89360355D01*
X120405709Y-89353701D01*
X120403229Y-89346771D01*
X120401441Y-89339632D01*
X120400361Y-89332351D01*
X120400000Y-89325000D01*
X120400000Y-89175000D01*
X120400361Y-89167649D01*
X120401441Y-89160368D01*
X120403229Y-89153229D01*
X120405709Y-89146299D01*
X120408856Y-89139645D01*
X120412640Y-89133332D01*
X120417024Y-89127421D01*
X120421967Y-89121967D01*
X120427421Y-89117024D01*
X120433332Y-89112640D01*
X120439645Y-89108856D01*
X120446299Y-89105709D01*
X120453229Y-89103229D01*
X120460368Y-89101441D01*
X120467649Y-89100361D01*
X120475000Y-89100000D01*
X121875000Y-89100000D01*
X121882351Y-89100361D01*
X121882351Y-89100361D01*
G37*
D20*
X121175000Y-89250000D03*
D19*
G36*
X121882351Y-89600361D02*
G01*
X121889632Y-89601441D01*
X121896771Y-89603229D01*
X121903701Y-89605709D01*
X121910355Y-89608856D01*
X121916668Y-89612640D01*
X121922579Y-89617024D01*
X121928033Y-89621967D01*
X121932976Y-89627421D01*
X121937360Y-89633332D01*
X121941144Y-89639645D01*
X121944291Y-89646299D01*
X121946771Y-89653229D01*
X121948559Y-89660368D01*
X121949639Y-89667649D01*
X121950000Y-89675000D01*
X121950000Y-89825000D01*
X121949639Y-89832351D01*
X121948559Y-89839632D01*
X121946771Y-89846771D01*
X121944291Y-89853701D01*
X121941144Y-89860355D01*
X121937360Y-89866668D01*
X121932976Y-89872579D01*
X121928033Y-89878033D01*
X121922579Y-89882976D01*
X121916668Y-89887360D01*
X121910355Y-89891144D01*
X121903701Y-89894291D01*
X121896771Y-89896771D01*
X121889632Y-89898559D01*
X121882351Y-89899639D01*
X121875000Y-89900000D01*
X120475000Y-89900000D01*
X120467649Y-89899639D01*
X120460368Y-89898559D01*
X120453229Y-89896771D01*
X120446299Y-89894291D01*
X120439645Y-89891144D01*
X120433332Y-89887360D01*
X120427421Y-89882976D01*
X120421967Y-89878033D01*
X120417024Y-89872579D01*
X120412640Y-89866668D01*
X120408856Y-89860355D01*
X120405709Y-89853701D01*
X120403229Y-89846771D01*
X120401441Y-89839632D01*
X120400361Y-89832351D01*
X120400000Y-89825000D01*
X120400000Y-89675000D01*
X120400361Y-89667649D01*
X120401441Y-89660368D01*
X120403229Y-89653229D01*
X120405709Y-89646299D01*
X120408856Y-89639645D01*
X120412640Y-89633332D01*
X120417024Y-89627421D01*
X120421967Y-89621967D01*
X120427421Y-89617024D01*
X120433332Y-89612640D01*
X120439645Y-89608856D01*
X120446299Y-89605709D01*
X120453229Y-89603229D01*
X120460368Y-89601441D01*
X120467649Y-89600361D01*
X120475000Y-89600000D01*
X121875000Y-89600000D01*
X121882351Y-89600361D01*
X121882351Y-89600361D01*
G37*
D20*
X121175000Y-89750000D03*
D19*
G36*
X121882351Y-90100361D02*
G01*
X121889632Y-90101441D01*
X121896771Y-90103229D01*
X121903701Y-90105709D01*
X121910355Y-90108856D01*
X121916668Y-90112640D01*
X121922579Y-90117024D01*
X121928033Y-90121967D01*
X121932976Y-90127421D01*
X121937360Y-90133332D01*
X121941144Y-90139645D01*
X121944291Y-90146299D01*
X121946771Y-90153229D01*
X121948559Y-90160368D01*
X121949639Y-90167649D01*
X121950000Y-90175000D01*
X121950000Y-90325000D01*
X121949639Y-90332351D01*
X121948559Y-90339632D01*
X121946771Y-90346771D01*
X121944291Y-90353701D01*
X121941144Y-90360355D01*
X121937360Y-90366668D01*
X121932976Y-90372579D01*
X121928033Y-90378033D01*
X121922579Y-90382976D01*
X121916668Y-90387360D01*
X121910355Y-90391144D01*
X121903701Y-90394291D01*
X121896771Y-90396771D01*
X121889632Y-90398559D01*
X121882351Y-90399639D01*
X121875000Y-90400000D01*
X120475000Y-90400000D01*
X120467649Y-90399639D01*
X120460368Y-90398559D01*
X120453229Y-90396771D01*
X120446299Y-90394291D01*
X120439645Y-90391144D01*
X120433332Y-90387360D01*
X120427421Y-90382976D01*
X120421967Y-90378033D01*
X120417024Y-90372579D01*
X120412640Y-90366668D01*
X120408856Y-90360355D01*
X120405709Y-90353701D01*
X120403229Y-90346771D01*
X120401441Y-90339632D01*
X120400361Y-90332351D01*
X120400000Y-90325000D01*
X120400000Y-90175000D01*
X120400361Y-90167649D01*
X120401441Y-90160368D01*
X120403229Y-90153229D01*
X120405709Y-90146299D01*
X120408856Y-90139645D01*
X120412640Y-90133332D01*
X120417024Y-90127421D01*
X120421967Y-90121967D01*
X120427421Y-90117024D01*
X120433332Y-90112640D01*
X120439645Y-90108856D01*
X120446299Y-90105709D01*
X120453229Y-90103229D01*
X120460368Y-90101441D01*
X120467649Y-90100361D01*
X120475000Y-90100000D01*
X121875000Y-90100000D01*
X121882351Y-90100361D01*
X121882351Y-90100361D01*
G37*
D20*
X121175000Y-90250000D03*
D19*
G36*
X121882351Y-90600361D02*
G01*
X121889632Y-90601441D01*
X121896771Y-90603229D01*
X121903701Y-90605709D01*
X121910355Y-90608856D01*
X121916668Y-90612640D01*
X121922579Y-90617024D01*
X121928033Y-90621967D01*
X121932976Y-90627421D01*
X121937360Y-90633332D01*
X121941144Y-90639645D01*
X121944291Y-90646299D01*
X121946771Y-90653229D01*
X121948559Y-90660368D01*
X121949639Y-90667649D01*
X121950000Y-90675000D01*
X121950000Y-90825000D01*
X121949639Y-90832351D01*
X121948559Y-90839632D01*
X121946771Y-90846771D01*
X121944291Y-90853701D01*
X121941144Y-90860355D01*
X121937360Y-90866668D01*
X121932976Y-90872579D01*
X121928033Y-90878033D01*
X121922579Y-90882976D01*
X121916668Y-90887360D01*
X121910355Y-90891144D01*
X121903701Y-90894291D01*
X121896771Y-90896771D01*
X121889632Y-90898559D01*
X121882351Y-90899639D01*
X121875000Y-90900000D01*
X120475000Y-90900000D01*
X120467649Y-90899639D01*
X120460368Y-90898559D01*
X120453229Y-90896771D01*
X120446299Y-90894291D01*
X120439645Y-90891144D01*
X120433332Y-90887360D01*
X120427421Y-90882976D01*
X120421967Y-90878033D01*
X120417024Y-90872579D01*
X120412640Y-90866668D01*
X120408856Y-90860355D01*
X120405709Y-90853701D01*
X120403229Y-90846771D01*
X120401441Y-90839632D01*
X120400361Y-90832351D01*
X120400000Y-90825000D01*
X120400000Y-90675000D01*
X120400361Y-90667649D01*
X120401441Y-90660368D01*
X120403229Y-90653229D01*
X120405709Y-90646299D01*
X120408856Y-90639645D01*
X120412640Y-90633332D01*
X120417024Y-90627421D01*
X120421967Y-90621967D01*
X120427421Y-90617024D01*
X120433332Y-90612640D01*
X120439645Y-90608856D01*
X120446299Y-90605709D01*
X120453229Y-90603229D01*
X120460368Y-90601441D01*
X120467649Y-90600361D01*
X120475000Y-90600000D01*
X121875000Y-90600000D01*
X121882351Y-90600361D01*
X121882351Y-90600361D01*
G37*
D20*
X121175000Y-90750000D03*
D19*
G36*
X121882351Y-91100361D02*
G01*
X121889632Y-91101441D01*
X121896771Y-91103229D01*
X121903701Y-91105709D01*
X121910355Y-91108856D01*
X121916668Y-91112640D01*
X121922579Y-91117024D01*
X121928033Y-91121967D01*
X121932976Y-91127421D01*
X121937360Y-91133332D01*
X121941144Y-91139645D01*
X121944291Y-91146299D01*
X121946771Y-91153229D01*
X121948559Y-91160368D01*
X121949639Y-91167649D01*
X121950000Y-91175000D01*
X121950000Y-91325000D01*
X121949639Y-91332351D01*
X121948559Y-91339632D01*
X121946771Y-91346771D01*
X121944291Y-91353701D01*
X121941144Y-91360355D01*
X121937360Y-91366668D01*
X121932976Y-91372579D01*
X121928033Y-91378033D01*
X121922579Y-91382976D01*
X121916668Y-91387360D01*
X121910355Y-91391144D01*
X121903701Y-91394291D01*
X121896771Y-91396771D01*
X121889632Y-91398559D01*
X121882351Y-91399639D01*
X121875000Y-91400000D01*
X120475000Y-91400000D01*
X120467649Y-91399639D01*
X120460368Y-91398559D01*
X120453229Y-91396771D01*
X120446299Y-91394291D01*
X120439645Y-91391144D01*
X120433332Y-91387360D01*
X120427421Y-91382976D01*
X120421967Y-91378033D01*
X120417024Y-91372579D01*
X120412640Y-91366668D01*
X120408856Y-91360355D01*
X120405709Y-91353701D01*
X120403229Y-91346771D01*
X120401441Y-91339632D01*
X120400361Y-91332351D01*
X120400000Y-91325000D01*
X120400000Y-91175000D01*
X120400361Y-91167649D01*
X120401441Y-91160368D01*
X120403229Y-91153229D01*
X120405709Y-91146299D01*
X120408856Y-91139645D01*
X120412640Y-91133332D01*
X120417024Y-91127421D01*
X120421967Y-91121967D01*
X120427421Y-91117024D01*
X120433332Y-91112640D01*
X120439645Y-91108856D01*
X120446299Y-91105709D01*
X120453229Y-91103229D01*
X120460368Y-91101441D01*
X120467649Y-91100361D01*
X120475000Y-91100000D01*
X121875000Y-91100000D01*
X121882351Y-91100361D01*
X121882351Y-91100361D01*
G37*
D20*
X121175000Y-91250000D03*
D19*
G36*
X121882351Y-91600361D02*
G01*
X121889632Y-91601441D01*
X121896771Y-91603229D01*
X121903701Y-91605709D01*
X121910355Y-91608856D01*
X121916668Y-91612640D01*
X121922579Y-91617024D01*
X121928033Y-91621967D01*
X121932976Y-91627421D01*
X121937360Y-91633332D01*
X121941144Y-91639645D01*
X121944291Y-91646299D01*
X121946771Y-91653229D01*
X121948559Y-91660368D01*
X121949639Y-91667649D01*
X121950000Y-91675000D01*
X121950000Y-91825000D01*
X121949639Y-91832351D01*
X121948559Y-91839632D01*
X121946771Y-91846771D01*
X121944291Y-91853701D01*
X121941144Y-91860355D01*
X121937360Y-91866668D01*
X121932976Y-91872579D01*
X121928033Y-91878033D01*
X121922579Y-91882976D01*
X121916668Y-91887360D01*
X121910355Y-91891144D01*
X121903701Y-91894291D01*
X121896771Y-91896771D01*
X121889632Y-91898559D01*
X121882351Y-91899639D01*
X121875000Y-91900000D01*
X120475000Y-91900000D01*
X120467649Y-91899639D01*
X120460368Y-91898559D01*
X120453229Y-91896771D01*
X120446299Y-91894291D01*
X120439645Y-91891144D01*
X120433332Y-91887360D01*
X120427421Y-91882976D01*
X120421967Y-91878033D01*
X120417024Y-91872579D01*
X120412640Y-91866668D01*
X120408856Y-91860355D01*
X120405709Y-91853701D01*
X120403229Y-91846771D01*
X120401441Y-91839632D01*
X120400361Y-91832351D01*
X120400000Y-91825000D01*
X120400000Y-91675000D01*
X120400361Y-91667649D01*
X120401441Y-91660368D01*
X120403229Y-91653229D01*
X120405709Y-91646299D01*
X120408856Y-91639645D01*
X120412640Y-91633332D01*
X120417024Y-91627421D01*
X120421967Y-91621967D01*
X120427421Y-91617024D01*
X120433332Y-91612640D01*
X120439645Y-91608856D01*
X120446299Y-91605709D01*
X120453229Y-91603229D01*
X120460368Y-91601441D01*
X120467649Y-91600361D01*
X120475000Y-91600000D01*
X121875000Y-91600000D01*
X121882351Y-91600361D01*
X121882351Y-91600361D01*
G37*
D20*
X121175000Y-91750000D03*
D19*
G36*
X121882351Y-92100361D02*
G01*
X121889632Y-92101441D01*
X121896771Y-92103229D01*
X121903701Y-92105709D01*
X121910355Y-92108856D01*
X121916668Y-92112640D01*
X121922579Y-92117024D01*
X121928033Y-92121967D01*
X121932976Y-92127421D01*
X121937360Y-92133332D01*
X121941144Y-92139645D01*
X121944291Y-92146299D01*
X121946771Y-92153229D01*
X121948559Y-92160368D01*
X121949639Y-92167649D01*
X121950000Y-92175000D01*
X121950000Y-92325000D01*
X121949639Y-92332351D01*
X121948559Y-92339632D01*
X121946771Y-92346771D01*
X121944291Y-92353701D01*
X121941144Y-92360355D01*
X121937360Y-92366668D01*
X121932976Y-92372579D01*
X121928033Y-92378033D01*
X121922579Y-92382976D01*
X121916668Y-92387360D01*
X121910355Y-92391144D01*
X121903701Y-92394291D01*
X121896771Y-92396771D01*
X121889632Y-92398559D01*
X121882351Y-92399639D01*
X121875000Y-92400000D01*
X120475000Y-92400000D01*
X120467649Y-92399639D01*
X120460368Y-92398559D01*
X120453229Y-92396771D01*
X120446299Y-92394291D01*
X120439645Y-92391144D01*
X120433332Y-92387360D01*
X120427421Y-92382976D01*
X120421967Y-92378033D01*
X120417024Y-92372579D01*
X120412640Y-92366668D01*
X120408856Y-92360355D01*
X120405709Y-92353701D01*
X120403229Y-92346771D01*
X120401441Y-92339632D01*
X120400361Y-92332351D01*
X120400000Y-92325000D01*
X120400000Y-92175000D01*
X120400361Y-92167649D01*
X120401441Y-92160368D01*
X120403229Y-92153229D01*
X120405709Y-92146299D01*
X120408856Y-92139645D01*
X120412640Y-92133332D01*
X120417024Y-92127421D01*
X120421967Y-92121967D01*
X120427421Y-92117024D01*
X120433332Y-92112640D01*
X120439645Y-92108856D01*
X120446299Y-92105709D01*
X120453229Y-92103229D01*
X120460368Y-92101441D01*
X120467649Y-92100361D01*
X120475000Y-92100000D01*
X121875000Y-92100000D01*
X121882351Y-92100361D01*
X121882351Y-92100361D01*
G37*
D20*
X121175000Y-92250000D03*
D19*
G36*
X121882351Y-92600361D02*
G01*
X121889632Y-92601441D01*
X121896771Y-92603229D01*
X121903701Y-92605709D01*
X121910355Y-92608856D01*
X121916668Y-92612640D01*
X121922579Y-92617024D01*
X121928033Y-92621967D01*
X121932976Y-92627421D01*
X121937360Y-92633332D01*
X121941144Y-92639645D01*
X121944291Y-92646299D01*
X121946771Y-92653229D01*
X121948559Y-92660368D01*
X121949639Y-92667649D01*
X121950000Y-92675000D01*
X121950000Y-92825000D01*
X121949639Y-92832351D01*
X121948559Y-92839632D01*
X121946771Y-92846771D01*
X121944291Y-92853701D01*
X121941144Y-92860355D01*
X121937360Y-92866668D01*
X121932976Y-92872579D01*
X121928033Y-92878033D01*
X121922579Y-92882976D01*
X121916668Y-92887360D01*
X121910355Y-92891144D01*
X121903701Y-92894291D01*
X121896771Y-92896771D01*
X121889632Y-92898559D01*
X121882351Y-92899639D01*
X121875000Y-92900000D01*
X120475000Y-92900000D01*
X120467649Y-92899639D01*
X120460368Y-92898559D01*
X120453229Y-92896771D01*
X120446299Y-92894291D01*
X120439645Y-92891144D01*
X120433332Y-92887360D01*
X120427421Y-92882976D01*
X120421967Y-92878033D01*
X120417024Y-92872579D01*
X120412640Y-92866668D01*
X120408856Y-92860355D01*
X120405709Y-92853701D01*
X120403229Y-92846771D01*
X120401441Y-92839632D01*
X120400361Y-92832351D01*
X120400000Y-92825000D01*
X120400000Y-92675000D01*
X120400361Y-92667649D01*
X120401441Y-92660368D01*
X120403229Y-92653229D01*
X120405709Y-92646299D01*
X120408856Y-92639645D01*
X120412640Y-92633332D01*
X120417024Y-92627421D01*
X120421967Y-92621967D01*
X120427421Y-92617024D01*
X120433332Y-92612640D01*
X120439645Y-92608856D01*
X120446299Y-92605709D01*
X120453229Y-92603229D01*
X120460368Y-92601441D01*
X120467649Y-92600361D01*
X120475000Y-92600000D01*
X121875000Y-92600000D01*
X121882351Y-92600361D01*
X121882351Y-92600361D01*
G37*
D20*
X121175000Y-92750000D03*
D19*
G36*
X121882351Y-93100361D02*
G01*
X121889632Y-93101441D01*
X121896771Y-93103229D01*
X121903701Y-93105709D01*
X121910355Y-93108856D01*
X121916668Y-93112640D01*
X121922579Y-93117024D01*
X121928033Y-93121967D01*
X121932976Y-93127421D01*
X121937360Y-93133332D01*
X121941144Y-93139645D01*
X121944291Y-93146299D01*
X121946771Y-93153229D01*
X121948559Y-93160368D01*
X121949639Y-93167649D01*
X121950000Y-93175000D01*
X121950000Y-93325000D01*
X121949639Y-93332351D01*
X121948559Y-93339632D01*
X121946771Y-93346771D01*
X121944291Y-93353701D01*
X121941144Y-93360355D01*
X121937360Y-93366668D01*
X121932976Y-93372579D01*
X121928033Y-93378033D01*
X121922579Y-93382976D01*
X121916668Y-93387360D01*
X121910355Y-93391144D01*
X121903701Y-93394291D01*
X121896771Y-93396771D01*
X121889632Y-93398559D01*
X121882351Y-93399639D01*
X121875000Y-93400000D01*
X120475000Y-93400000D01*
X120467649Y-93399639D01*
X120460368Y-93398559D01*
X120453229Y-93396771D01*
X120446299Y-93394291D01*
X120439645Y-93391144D01*
X120433332Y-93387360D01*
X120427421Y-93382976D01*
X120421967Y-93378033D01*
X120417024Y-93372579D01*
X120412640Y-93366668D01*
X120408856Y-93360355D01*
X120405709Y-93353701D01*
X120403229Y-93346771D01*
X120401441Y-93339632D01*
X120400361Y-93332351D01*
X120400000Y-93325000D01*
X120400000Y-93175000D01*
X120400361Y-93167649D01*
X120401441Y-93160368D01*
X120403229Y-93153229D01*
X120405709Y-93146299D01*
X120408856Y-93139645D01*
X120412640Y-93133332D01*
X120417024Y-93127421D01*
X120421967Y-93121967D01*
X120427421Y-93117024D01*
X120433332Y-93112640D01*
X120439645Y-93108856D01*
X120446299Y-93105709D01*
X120453229Y-93103229D01*
X120460368Y-93101441D01*
X120467649Y-93100361D01*
X120475000Y-93100000D01*
X121875000Y-93100000D01*
X121882351Y-93100361D01*
X121882351Y-93100361D01*
G37*
D20*
X121175000Y-93250000D03*
D19*
G36*
X121882351Y-93600361D02*
G01*
X121889632Y-93601441D01*
X121896771Y-93603229D01*
X121903701Y-93605709D01*
X121910355Y-93608856D01*
X121916668Y-93612640D01*
X121922579Y-93617024D01*
X121928033Y-93621967D01*
X121932976Y-93627421D01*
X121937360Y-93633332D01*
X121941144Y-93639645D01*
X121944291Y-93646299D01*
X121946771Y-93653229D01*
X121948559Y-93660368D01*
X121949639Y-93667649D01*
X121950000Y-93675000D01*
X121950000Y-93825000D01*
X121949639Y-93832351D01*
X121948559Y-93839632D01*
X121946771Y-93846771D01*
X121944291Y-93853701D01*
X121941144Y-93860355D01*
X121937360Y-93866668D01*
X121932976Y-93872579D01*
X121928033Y-93878033D01*
X121922579Y-93882976D01*
X121916668Y-93887360D01*
X121910355Y-93891144D01*
X121903701Y-93894291D01*
X121896771Y-93896771D01*
X121889632Y-93898559D01*
X121882351Y-93899639D01*
X121875000Y-93900000D01*
X120475000Y-93900000D01*
X120467649Y-93899639D01*
X120460368Y-93898559D01*
X120453229Y-93896771D01*
X120446299Y-93894291D01*
X120439645Y-93891144D01*
X120433332Y-93887360D01*
X120427421Y-93882976D01*
X120421967Y-93878033D01*
X120417024Y-93872579D01*
X120412640Y-93866668D01*
X120408856Y-93860355D01*
X120405709Y-93853701D01*
X120403229Y-93846771D01*
X120401441Y-93839632D01*
X120400361Y-93832351D01*
X120400000Y-93825000D01*
X120400000Y-93675000D01*
X120400361Y-93667649D01*
X120401441Y-93660368D01*
X120403229Y-93653229D01*
X120405709Y-93646299D01*
X120408856Y-93639645D01*
X120412640Y-93633332D01*
X120417024Y-93627421D01*
X120421967Y-93621967D01*
X120427421Y-93617024D01*
X120433332Y-93612640D01*
X120439645Y-93608856D01*
X120446299Y-93605709D01*
X120453229Y-93603229D01*
X120460368Y-93601441D01*
X120467649Y-93600361D01*
X120475000Y-93600000D01*
X121875000Y-93600000D01*
X121882351Y-93600361D01*
X121882351Y-93600361D01*
G37*
D20*
X121175000Y-93750000D03*
D19*
G36*
X121882351Y-94100361D02*
G01*
X121889632Y-94101441D01*
X121896771Y-94103229D01*
X121903701Y-94105709D01*
X121910355Y-94108856D01*
X121916668Y-94112640D01*
X121922579Y-94117024D01*
X121928033Y-94121967D01*
X121932976Y-94127421D01*
X121937360Y-94133332D01*
X121941144Y-94139645D01*
X121944291Y-94146299D01*
X121946771Y-94153229D01*
X121948559Y-94160368D01*
X121949639Y-94167649D01*
X121950000Y-94175000D01*
X121950000Y-94325000D01*
X121949639Y-94332351D01*
X121948559Y-94339632D01*
X121946771Y-94346771D01*
X121944291Y-94353701D01*
X121941144Y-94360355D01*
X121937360Y-94366668D01*
X121932976Y-94372579D01*
X121928033Y-94378033D01*
X121922579Y-94382976D01*
X121916668Y-94387360D01*
X121910355Y-94391144D01*
X121903701Y-94394291D01*
X121896771Y-94396771D01*
X121889632Y-94398559D01*
X121882351Y-94399639D01*
X121875000Y-94400000D01*
X120475000Y-94400000D01*
X120467649Y-94399639D01*
X120460368Y-94398559D01*
X120453229Y-94396771D01*
X120446299Y-94394291D01*
X120439645Y-94391144D01*
X120433332Y-94387360D01*
X120427421Y-94382976D01*
X120421967Y-94378033D01*
X120417024Y-94372579D01*
X120412640Y-94366668D01*
X120408856Y-94360355D01*
X120405709Y-94353701D01*
X120403229Y-94346771D01*
X120401441Y-94339632D01*
X120400361Y-94332351D01*
X120400000Y-94325000D01*
X120400000Y-94175000D01*
X120400361Y-94167649D01*
X120401441Y-94160368D01*
X120403229Y-94153229D01*
X120405709Y-94146299D01*
X120408856Y-94139645D01*
X120412640Y-94133332D01*
X120417024Y-94127421D01*
X120421967Y-94121967D01*
X120427421Y-94117024D01*
X120433332Y-94112640D01*
X120439645Y-94108856D01*
X120446299Y-94105709D01*
X120453229Y-94103229D01*
X120460368Y-94101441D01*
X120467649Y-94100361D01*
X120475000Y-94100000D01*
X121875000Y-94100000D01*
X121882351Y-94100361D01*
X121882351Y-94100361D01*
G37*
D20*
X121175000Y-94250000D03*
D19*
G36*
X119332351Y-95400361D02*
G01*
X119339632Y-95401441D01*
X119346771Y-95403229D01*
X119353701Y-95405709D01*
X119360355Y-95408856D01*
X119366668Y-95412640D01*
X119372579Y-95417024D01*
X119378033Y-95421967D01*
X119382976Y-95427421D01*
X119387360Y-95433332D01*
X119391144Y-95439645D01*
X119394291Y-95446299D01*
X119396771Y-95453229D01*
X119398559Y-95460368D01*
X119399639Y-95467649D01*
X119400000Y-95475000D01*
X119400000Y-96875000D01*
X119399639Y-96882351D01*
X119398559Y-96889632D01*
X119396771Y-96896771D01*
X119394291Y-96903701D01*
X119391144Y-96910355D01*
X119387360Y-96916668D01*
X119382976Y-96922579D01*
X119378033Y-96928033D01*
X119372579Y-96932976D01*
X119366668Y-96937360D01*
X119360355Y-96941144D01*
X119353701Y-96944291D01*
X119346771Y-96946771D01*
X119339632Y-96948559D01*
X119332351Y-96949639D01*
X119325000Y-96950000D01*
X119175000Y-96950000D01*
X119167649Y-96949639D01*
X119160368Y-96948559D01*
X119153229Y-96946771D01*
X119146299Y-96944291D01*
X119139645Y-96941144D01*
X119133332Y-96937360D01*
X119127421Y-96932976D01*
X119121967Y-96928033D01*
X119117024Y-96922579D01*
X119112640Y-96916668D01*
X119108856Y-96910355D01*
X119105709Y-96903701D01*
X119103229Y-96896771D01*
X119101441Y-96889632D01*
X119100361Y-96882351D01*
X119100000Y-96875000D01*
X119100000Y-95475000D01*
X119100361Y-95467649D01*
X119101441Y-95460368D01*
X119103229Y-95453229D01*
X119105709Y-95446299D01*
X119108856Y-95439645D01*
X119112640Y-95433332D01*
X119117024Y-95427421D01*
X119121967Y-95421967D01*
X119127421Y-95417024D01*
X119133332Y-95412640D01*
X119139645Y-95408856D01*
X119146299Y-95405709D01*
X119153229Y-95403229D01*
X119160368Y-95401441D01*
X119167649Y-95400361D01*
X119175000Y-95400000D01*
X119325000Y-95400000D01*
X119332351Y-95400361D01*
X119332351Y-95400361D01*
G37*
D20*
X119250000Y-96175000D03*
D19*
G36*
X118832351Y-95400361D02*
G01*
X118839632Y-95401441D01*
X118846771Y-95403229D01*
X118853701Y-95405709D01*
X118860355Y-95408856D01*
X118866668Y-95412640D01*
X118872579Y-95417024D01*
X118878033Y-95421967D01*
X118882976Y-95427421D01*
X118887360Y-95433332D01*
X118891144Y-95439645D01*
X118894291Y-95446299D01*
X118896771Y-95453229D01*
X118898559Y-95460368D01*
X118899639Y-95467649D01*
X118900000Y-95475000D01*
X118900000Y-96875000D01*
X118899639Y-96882351D01*
X118898559Y-96889632D01*
X118896771Y-96896771D01*
X118894291Y-96903701D01*
X118891144Y-96910355D01*
X118887360Y-96916668D01*
X118882976Y-96922579D01*
X118878033Y-96928033D01*
X118872579Y-96932976D01*
X118866668Y-96937360D01*
X118860355Y-96941144D01*
X118853701Y-96944291D01*
X118846771Y-96946771D01*
X118839632Y-96948559D01*
X118832351Y-96949639D01*
X118825000Y-96950000D01*
X118675000Y-96950000D01*
X118667649Y-96949639D01*
X118660368Y-96948559D01*
X118653229Y-96946771D01*
X118646299Y-96944291D01*
X118639645Y-96941144D01*
X118633332Y-96937360D01*
X118627421Y-96932976D01*
X118621967Y-96928033D01*
X118617024Y-96922579D01*
X118612640Y-96916668D01*
X118608856Y-96910355D01*
X118605709Y-96903701D01*
X118603229Y-96896771D01*
X118601441Y-96889632D01*
X118600361Y-96882351D01*
X118600000Y-96875000D01*
X118600000Y-95475000D01*
X118600361Y-95467649D01*
X118601441Y-95460368D01*
X118603229Y-95453229D01*
X118605709Y-95446299D01*
X118608856Y-95439645D01*
X118612640Y-95433332D01*
X118617024Y-95427421D01*
X118621967Y-95421967D01*
X118627421Y-95417024D01*
X118633332Y-95412640D01*
X118639645Y-95408856D01*
X118646299Y-95405709D01*
X118653229Y-95403229D01*
X118660368Y-95401441D01*
X118667649Y-95400361D01*
X118675000Y-95400000D01*
X118825000Y-95400000D01*
X118832351Y-95400361D01*
X118832351Y-95400361D01*
G37*
D20*
X118750000Y-96175000D03*
D19*
G36*
X118332351Y-95400361D02*
G01*
X118339632Y-95401441D01*
X118346771Y-95403229D01*
X118353701Y-95405709D01*
X118360355Y-95408856D01*
X118366668Y-95412640D01*
X118372579Y-95417024D01*
X118378033Y-95421967D01*
X118382976Y-95427421D01*
X118387360Y-95433332D01*
X118391144Y-95439645D01*
X118394291Y-95446299D01*
X118396771Y-95453229D01*
X118398559Y-95460368D01*
X118399639Y-95467649D01*
X118400000Y-95475000D01*
X118400000Y-96875000D01*
X118399639Y-96882351D01*
X118398559Y-96889632D01*
X118396771Y-96896771D01*
X118394291Y-96903701D01*
X118391144Y-96910355D01*
X118387360Y-96916668D01*
X118382976Y-96922579D01*
X118378033Y-96928033D01*
X118372579Y-96932976D01*
X118366668Y-96937360D01*
X118360355Y-96941144D01*
X118353701Y-96944291D01*
X118346771Y-96946771D01*
X118339632Y-96948559D01*
X118332351Y-96949639D01*
X118325000Y-96950000D01*
X118175000Y-96950000D01*
X118167649Y-96949639D01*
X118160368Y-96948559D01*
X118153229Y-96946771D01*
X118146299Y-96944291D01*
X118139645Y-96941144D01*
X118133332Y-96937360D01*
X118127421Y-96932976D01*
X118121967Y-96928033D01*
X118117024Y-96922579D01*
X118112640Y-96916668D01*
X118108856Y-96910355D01*
X118105709Y-96903701D01*
X118103229Y-96896771D01*
X118101441Y-96889632D01*
X118100361Y-96882351D01*
X118100000Y-96875000D01*
X118100000Y-95475000D01*
X118100361Y-95467649D01*
X118101441Y-95460368D01*
X118103229Y-95453229D01*
X118105709Y-95446299D01*
X118108856Y-95439645D01*
X118112640Y-95433332D01*
X118117024Y-95427421D01*
X118121967Y-95421967D01*
X118127421Y-95417024D01*
X118133332Y-95412640D01*
X118139645Y-95408856D01*
X118146299Y-95405709D01*
X118153229Y-95403229D01*
X118160368Y-95401441D01*
X118167649Y-95400361D01*
X118175000Y-95400000D01*
X118325000Y-95400000D01*
X118332351Y-95400361D01*
X118332351Y-95400361D01*
G37*
D20*
X118250000Y-96175000D03*
D19*
G36*
X117832351Y-95400361D02*
G01*
X117839632Y-95401441D01*
X117846771Y-95403229D01*
X117853701Y-95405709D01*
X117860355Y-95408856D01*
X117866668Y-95412640D01*
X117872579Y-95417024D01*
X117878033Y-95421967D01*
X117882976Y-95427421D01*
X117887360Y-95433332D01*
X117891144Y-95439645D01*
X117894291Y-95446299D01*
X117896771Y-95453229D01*
X117898559Y-95460368D01*
X117899639Y-95467649D01*
X117900000Y-95475000D01*
X117900000Y-96875000D01*
X117899639Y-96882351D01*
X117898559Y-96889632D01*
X117896771Y-96896771D01*
X117894291Y-96903701D01*
X117891144Y-96910355D01*
X117887360Y-96916668D01*
X117882976Y-96922579D01*
X117878033Y-96928033D01*
X117872579Y-96932976D01*
X117866668Y-96937360D01*
X117860355Y-96941144D01*
X117853701Y-96944291D01*
X117846771Y-96946771D01*
X117839632Y-96948559D01*
X117832351Y-96949639D01*
X117825000Y-96950000D01*
X117675000Y-96950000D01*
X117667649Y-96949639D01*
X117660368Y-96948559D01*
X117653229Y-96946771D01*
X117646299Y-96944291D01*
X117639645Y-96941144D01*
X117633332Y-96937360D01*
X117627421Y-96932976D01*
X117621967Y-96928033D01*
X117617024Y-96922579D01*
X117612640Y-96916668D01*
X117608856Y-96910355D01*
X117605709Y-96903701D01*
X117603229Y-96896771D01*
X117601441Y-96889632D01*
X117600361Y-96882351D01*
X117600000Y-96875000D01*
X117600000Y-95475000D01*
X117600361Y-95467649D01*
X117601441Y-95460368D01*
X117603229Y-95453229D01*
X117605709Y-95446299D01*
X117608856Y-95439645D01*
X117612640Y-95433332D01*
X117617024Y-95427421D01*
X117621967Y-95421967D01*
X117627421Y-95417024D01*
X117633332Y-95412640D01*
X117639645Y-95408856D01*
X117646299Y-95405709D01*
X117653229Y-95403229D01*
X117660368Y-95401441D01*
X117667649Y-95400361D01*
X117675000Y-95400000D01*
X117825000Y-95400000D01*
X117832351Y-95400361D01*
X117832351Y-95400361D01*
G37*
D20*
X117750000Y-96175000D03*
D19*
G36*
X117332351Y-95400361D02*
G01*
X117339632Y-95401441D01*
X117346771Y-95403229D01*
X117353701Y-95405709D01*
X117360355Y-95408856D01*
X117366668Y-95412640D01*
X117372579Y-95417024D01*
X117378033Y-95421967D01*
X117382976Y-95427421D01*
X117387360Y-95433332D01*
X117391144Y-95439645D01*
X117394291Y-95446299D01*
X117396771Y-95453229D01*
X117398559Y-95460368D01*
X117399639Y-95467649D01*
X117400000Y-95475000D01*
X117400000Y-96875000D01*
X117399639Y-96882351D01*
X117398559Y-96889632D01*
X117396771Y-96896771D01*
X117394291Y-96903701D01*
X117391144Y-96910355D01*
X117387360Y-96916668D01*
X117382976Y-96922579D01*
X117378033Y-96928033D01*
X117372579Y-96932976D01*
X117366668Y-96937360D01*
X117360355Y-96941144D01*
X117353701Y-96944291D01*
X117346771Y-96946771D01*
X117339632Y-96948559D01*
X117332351Y-96949639D01*
X117325000Y-96950000D01*
X117175000Y-96950000D01*
X117167649Y-96949639D01*
X117160368Y-96948559D01*
X117153229Y-96946771D01*
X117146299Y-96944291D01*
X117139645Y-96941144D01*
X117133332Y-96937360D01*
X117127421Y-96932976D01*
X117121967Y-96928033D01*
X117117024Y-96922579D01*
X117112640Y-96916668D01*
X117108856Y-96910355D01*
X117105709Y-96903701D01*
X117103229Y-96896771D01*
X117101441Y-96889632D01*
X117100361Y-96882351D01*
X117100000Y-96875000D01*
X117100000Y-95475000D01*
X117100361Y-95467649D01*
X117101441Y-95460368D01*
X117103229Y-95453229D01*
X117105709Y-95446299D01*
X117108856Y-95439645D01*
X117112640Y-95433332D01*
X117117024Y-95427421D01*
X117121967Y-95421967D01*
X117127421Y-95417024D01*
X117133332Y-95412640D01*
X117139645Y-95408856D01*
X117146299Y-95405709D01*
X117153229Y-95403229D01*
X117160368Y-95401441D01*
X117167649Y-95400361D01*
X117175000Y-95400000D01*
X117325000Y-95400000D01*
X117332351Y-95400361D01*
X117332351Y-95400361D01*
G37*
D20*
X117250000Y-96175000D03*
D19*
G36*
X116832351Y-95400361D02*
G01*
X116839632Y-95401441D01*
X116846771Y-95403229D01*
X116853701Y-95405709D01*
X116860355Y-95408856D01*
X116866668Y-95412640D01*
X116872579Y-95417024D01*
X116878033Y-95421967D01*
X116882976Y-95427421D01*
X116887360Y-95433332D01*
X116891144Y-95439645D01*
X116894291Y-95446299D01*
X116896771Y-95453229D01*
X116898559Y-95460368D01*
X116899639Y-95467649D01*
X116900000Y-95475000D01*
X116900000Y-96875000D01*
X116899639Y-96882351D01*
X116898559Y-96889632D01*
X116896771Y-96896771D01*
X116894291Y-96903701D01*
X116891144Y-96910355D01*
X116887360Y-96916668D01*
X116882976Y-96922579D01*
X116878033Y-96928033D01*
X116872579Y-96932976D01*
X116866668Y-96937360D01*
X116860355Y-96941144D01*
X116853701Y-96944291D01*
X116846771Y-96946771D01*
X116839632Y-96948559D01*
X116832351Y-96949639D01*
X116825000Y-96950000D01*
X116675000Y-96950000D01*
X116667649Y-96949639D01*
X116660368Y-96948559D01*
X116653229Y-96946771D01*
X116646299Y-96944291D01*
X116639645Y-96941144D01*
X116633332Y-96937360D01*
X116627421Y-96932976D01*
X116621967Y-96928033D01*
X116617024Y-96922579D01*
X116612640Y-96916668D01*
X116608856Y-96910355D01*
X116605709Y-96903701D01*
X116603229Y-96896771D01*
X116601441Y-96889632D01*
X116600361Y-96882351D01*
X116600000Y-96875000D01*
X116600000Y-95475000D01*
X116600361Y-95467649D01*
X116601441Y-95460368D01*
X116603229Y-95453229D01*
X116605709Y-95446299D01*
X116608856Y-95439645D01*
X116612640Y-95433332D01*
X116617024Y-95427421D01*
X116621967Y-95421967D01*
X116627421Y-95417024D01*
X116633332Y-95412640D01*
X116639645Y-95408856D01*
X116646299Y-95405709D01*
X116653229Y-95403229D01*
X116660368Y-95401441D01*
X116667649Y-95400361D01*
X116675000Y-95400000D01*
X116825000Y-95400000D01*
X116832351Y-95400361D01*
X116832351Y-95400361D01*
G37*
D20*
X116750000Y-96175000D03*
D19*
G36*
X116332351Y-95400361D02*
G01*
X116339632Y-95401441D01*
X116346771Y-95403229D01*
X116353701Y-95405709D01*
X116360355Y-95408856D01*
X116366668Y-95412640D01*
X116372579Y-95417024D01*
X116378033Y-95421967D01*
X116382976Y-95427421D01*
X116387360Y-95433332D01*
X116391144Y-95439645D01*
X116394291Y-95446299D01*
X116396771Y-95453229D01*
X116398559Y-95460368D01*
X116399639Y-95467649D01*
X116400000Y-95475000D01*
X116400000Y-96875000D01*
X116399639Y-96882351D01*
X116398559Y-96889632D01*
X116396771Y-96896771D01*
X116394291Y-96903701D01*
X116391144Y-96910355D01*
X116387360Y-96916668D01*
X116382976Y-96922579D01*
X116378033Y-96928033D01*
X116372579Y-96932976D01*
X116366668Y-96937360D01*
X116360355Y-96941144D01*
X116353701Y-96944291D01*
X116346771Y-96946771D01*
X116339632Y-96948559D01*
X116332351Y-96949639D01*
X116325000Y-96950000D01*
X116175000Y-96950000D01*
X116167649Y-96949639D01*
X116160368Y-96948559D01*
X116153229Y-96946771D01*
X116146299Y-96944291D01*
X116139645Y-96941144D01*
X116133332Y-96937360D01*
X116127421Y-96932976D01*
X116121967Y-96928033D01*
X116117024Y-96922579D01*
X116112640Y-96916668D01*
X116108856Y-96910355D01*
X116105709Y-96903701D01*
X116103229Y-96896771D01*
X116101441Y-96889632D01*
X116100361Y-96882351D01*
X116100000Y-96875000D01*
X116100000Y-95475000D01*
X116100361Y-95467649D01*
X116101441Y-95460368D01*
X116103229Y-95453229D01*
X116105709Y-95446299D01*
X116108856Y-95439645D01*
X116112640Y-95433332D01*
X116117024Y-95427421D01*
X116121967Y-95421967D01*
X116127421Y-95417024D01*
X116133332Y-95412640D01*
X116139645Y-95408856D01*
X116146299Y-95405709D01*
X116153229Y-95403229D01*
X116160368Y-95401441D01*
X116167649Y-95400361D01*
X116175000Y-95400000D01*
X116325000Y-95400000D01*
X116332351Y-95400361D01*
X116332351Y-95400361D01*
G37*
D20*
X116250000Y-96175000D03*
D19*
G36*
X115832351Y-95400361D02*
G01*
X115839632Y-95401441D01*
X115846771Y-95403229D01*
X115853701Y-95405709D01*
X115860355Y-95408856D01*
X115866668Y-95412640D01*
X115872579Y-95417024D01*
X115878033Y-95421967D01*
X115882976Y-95427421D01*
X115887360Y-95433332D01*
X115891144Y-95439645D01*
X115894291Y-95446299D01*
X115896771Y-95453229D01*
X115898559Y-95460368D01*
X115899639Y-95467649D01*
X115900000Y-95475000D01*
X115900000Y-96875000D01*
X115899639Y-96882351D01*
X115898559Y-96889632D01*
X115896771Y-96896771D01*
X115894291Y-96903701D01*
X115891144Y-96910355D01*
X115887360Y-96916668D01*
X115882976Y-96922579D01*
X115878033Y-96928033D01*
X115872579Y-96932976D01*
X115866668Y-96937360D01*
X115860355Y-96941144D01*
X115853701Y-96944291D01*
X115846771Y-96946771D01*
X115839632Y-96948559D01*
X115832351Y-96949639D01*
X115825000Y-96950000D01*
X115675000Y-96950000D01*
X115667649Y-96949639D01*
X115660368Y-96948559D01*
X115653229Y-96946771D01*
X115646299Y-96944291D01*
X115639645Y-96941144D01*
X115633332Y-96937360D01*
X115627421Y-96932976D01*
X115621967Y-96928033D01*
X115617024Y-96922579D01*
X115612640Y-96916668D01*
X115608856Y-96910355D01*
X115605709Y-96903701D01*
X115603229Y-96896771D01*
X115601441Y-96889632D01*
X115600361Y-96882351D01*
X115600000Y-96875000D01*
X115600000Y-95475000D01*
X115600361Y-95467649D01*
X115601441Y-95460368D01*
X115603229Y-95453229D01*
X115605709Y-95446299D01*
X115608856Y-95439645D01*
X115612640Y-95433332D01*
X115617024Y-95427421D01*
X115621967Y-95421967D01*
X115627421Y-95417024D01*
X115633332Y-95412640D01*
X115639645Y-95408856D01*
X115646299Y-95405709D01*
X115653229Y-95403229D01*
X115660368Y-95401441D01*
X115667649Y-95400361D01*
X115675000Y-95400000D01*
X115825000Y-95400000D01*
X115832351Y-95400361D01*
X115832351Y-95400361D01*
G37*
D20*
X115750000Y-96175000D03*
D19*
G36*
X115332351Y-95400361D02*
G01*
X115339632Y-95401441D01*
X115346771Y-95403229D01*
X115353701Y-95405709D01*
X115360355Y-95408856D01*
X115366668Y-95412640D01*
X115372579Y-95417024D01*
X115378033Y-95421967D01*
X115382976Y-95427421D01*
X115387360Y-95433332D01*
X115391144Y-95439645D01*
X115394291Y-95446299D01*
X115396771Y-95453229D01*
X115398559Y-95460368D01*
X115399639Y-95467649D01*
X115400000Y-95475000D01*
X115400000Y-96875000D01*
X115399639Y-96882351D01*
X115398559Y-96889632D01*
X115396771Y-96896771D01*
X115394291Y-96903701D01*
X115391144Y-96910355D01*
X115387360Y-96916668D01*
X115382976Y-96922579D01*
X115378033Y-96928033D01*
X115372579Y-96932976D01*
X115366668Y-96937360D01*
X115360355Y-96941144D01*
X115353701Y-96944291D01*
X115346771Y-96946771D01*
X115339632Y-96948559D01*
X115332351Y-96949639D01*
X115325000Y-96950000D01*
X115175000Y-96950000D01*
X115167649Y-96949639D01*
X115160368Y-96948559D01*
X115153229Y-96946771D01*
X115146299Y-96944291D01*
X115139645Y-96941144D01*
X115133332Y-96937360D01*
X115127421Y-96932976D01*
X115121967Y-96928033D01*
X115117024Y-96922579D01*
X115112640Y-96916668D01*
X115108856Y-96910355D01*
X115105709Y-96903701D01*
X115103229Y-96896771D01*
X115101441Y-96889632D01*
X115100361Y-96882351D01*
X115100000Y-96875000D01*
X115100000Y-95475000D01*
X115100361Y-95467649D01*
X115101441Y-95460368D01*
X115103229Y-95453229D01*
X115105709Y-95446299D01*
X115108856Y-95439645D01*
X115112640Y-95433332D01*
X115117024Y-95427421D01*
X115121967Y-95421967D01*
X115127421Y-95417024D01*
X115133332Y-95412640D01*
X115139645Y-95408856D01*
X115146299Y-95405709D01*
X115153229Y-95403229D01*
X115160368Y-95401441D01*
X115167649Y-95400361D01*
X115175000Y-95400000D01*
X115325000Y-95400000D01*
X115332351Y-95400361D01*
X115332351Y-95400361D01*
G37*
D20*
X115250000Y-96175000D03*
D19*
G36*
X114832351Y-95400361D02*
G01*
X114839632Y-95401441D01*
X114846771Y-95403229D01*
X114853701Y-95405709D01*
X114860355Y-95408856D01*
X114866668Y-95412640D01*
X114872579Y-95417024D01*
X114878033Y-95421967D01*
X114882976Y-95427421D01*
X114887360Y-95433332D01*
X114891144Y-95439645D01*
X114894291Y-95446299D01*
X114896771Y-95453229D01*
X114898559Y-95460368D01*
X114899639Y-95467649D01*
X114900000Y-95475000D01*
X114900000Y-96875000D01*
X114899639Y-96882351D01*
X114898559Y-96889632D01*
X114896771Y-96896771D01*
X114894291Y-96903701D01*
X114891144Y-96910355D01*
X114887360Y-96916668D01*
X114882976Y-96922579D01*
X114878033Y-96928033D01*
X114872579Y-96932976D01*
X114866668Y-96937360D01*
X114860355Y-96941144D01*
X114853701Y-96944291D01*
X114846771Y-96946771D01*
X114839632Y-96948559D01*
X114832351Y-96949639D01*
X114825000Y-96950000D01*
X114675000Y-96950000D01*
X114667649Y-96949639D01*
X114660368Y-96948559D01*
X114653229Y-96946771D01*
X114646299Y-96944291D01*
X114639645Y-96941144D01*
X114633332Y-96937360D01*
X114627421Y-96932976D01*
X114621967Y-96928033D01*
X114617024Y-96922579D01*
X114612640Y-96916668D01*
X114608856Y-96910355D01*
X114605709Y-96903701D01*
X114603229Y-96896771D01*
X114601441Y-96889632D01*
X114600361Y-96882351D01*
X114600000Y-96875000D01*
X114600000Y-95475000D01*
X114600361Y-95467649D01*
X114601441Y-95460368D01*
X114603229Y-95453229D01*
X114605709Y-95446299D01*
X114608856Y-95439645D01*
X114612640Y-95433332D01*
X114617024Y-95427421D01*
X114621967Y-95421967D01*
X114627421Y-95417024D01*
X114633332Y-95412640D01*
X114639645Y-95408856D01*
X114646299Y-95405709D01*
X114653229Y-95403229D01*
X114660368Y-95401441D01*
X114667649Y-95400361D01*
X114675000Y-95400000D01*
X114825000Y-95400000D01*
X114832351Y-95400361D01*
X114832351Y-95400361D01*
G37*
D20*
X114750000Y-96175000D03*
D19*
G36*
X114332351Y-95400361D02*
G01*
X114339632Y-95401441D01*
X114346771Y-95403229D01*
X114353701Y-95405709D01*
X114360355Y-95408856D01*
X114366668Y-95412640D01*
X114372579Y-95417024D01*
X114378033Y-95421967D01*
X114382976Y-95427421D01*
X114387360Y-95433332D01*
X114391144Y-95439645D01*
X114394291Y-95446299D01*
X114396771Y-95453229D01*
X114398559Y-95460368D01*
X114399639Y-95467649D01*
X114400000Y-95475000D01*
X114400000Y-96875000D01*
X114399639Y-96882351D01*
X114398559Y-96889632D01*
X114396771Y-96896771D01*
X114394291Y-96903701D01*
X114391144Y-96910355D01*
X114387360Y-96916668D01*
X114382976Y-96922579D01*
X114378033Y-96928033D01*
X114372579Y-96932976D01*
X114366668Y-96937360D01*
X114360355Y-96941144D01*
X114353701Y-96944291D01*
X114346771Y-96946771D01*
X114339632Y-96948559D01*
X114332351Y-96949639D01*
X114325000Y-96950000D01*
X114175000Y-96950000D01*
X114167649Y-96949639D01*
X114160368Y-96948559D01*
X114153229Y-96946771D01*
X114146299Y-96944291D01*
X114139645Y-96941144D01*
X114133332Y-96937360D01*
X114127421Y-96932976D01*
X114121967Y-96928033D01*
X114117024Y-96922579D01*
X114112640Y-96916668D01*
X114108856Y-96910355D01*
X114105709Y-96903701D01*
X114103229Y-96896771D01*
X114101441Y-96889632D01*
X114100361Y-96882351D01*
X114100000Y-96875000D01*
X114100000Y-95475000D01*
X114100361Y-95467649D01*
X114101441Y-95460368D01*
X114103229Y-95453229D01*
X114105709Y-95446299D01*
X114108856Y-95439645D01*
X114112640Y-95433332D01*
X114117024Y-95427421D01*
X114121967Y-95421967D01*
X114127421Y-95417024D01*
X114133332Y-95412640D01*
X114139645Y-95408856D01*
X114146299Y-95405709D01*
X114153229Y-95403229D01*
X114160368Y-95401441D01*
X114167649Y-95400361D01*
X114175000Y-95400000D01*
X114325000Y-95400000D01*
X114332351Y-95400361D01*
X114332351Y-95400361D01*
G37*
D20*
X114250000Y-96175000D03*
D19*
G36*
X113832351Y-95400361D02*
G01*
X113839632Y-95401441D01*
X113846771Y-95403229D01*
X113853701Y-95405709D01*
X113860355Y-95408856D01*
X113866668Y-95412640D01*
X113872579Y-95417024D01*
X113878033Y-95421967D01*
X113882976Y-95427421D01*
X113887360Y-95433332D01*
X113891144Y-95439645D01*
X113894291Y-95446299D01*
X113896771Y-95453229D01*
X113898559Y-95460368D01*
X113899639Y-95467649D01*
X113900000Y-95475000D01*
X113900000Y-96875000D01*
X113899639Y-96882351D01*
X113898559Y-96889632D01*
X113896771Y-96896771D01*
X113894291Y-96903701D01*
X113891144Y-96910355D01*
X113887360Y-96916668D01*
X113882976Y-96922579D01*
X113878033Y-96928033D01*
X113872579Y-96932976D01*
X113866668Y-96937360D01*
X113860355Y-96941144D01*
X113853701Y-96944291D01*
X113846771Y-96946771D01*
X113839632Y-96948559D01*
X113832351Y-96949639D01*
X113825000Y-96950000D01*
X113675000Y-96950000D01*
X113667649Y-96949639D01*
X113660368Y-96948559D01*
X113653229Y-96946771D01*
X113646299Y-96944291D01*
X113639645Y-96941144D01*
X113633332Y-96937360D01*
X113627421Y-96932976D01*
X113621967Y-96928033D01*
X113617024Y-96922579D01*
X113612640Y-96916668D01*
X113608856Y-96910355D01*
X113605709Y-96903701D01*
X113603229Y-96896771D01*
X113601441Y-96889632D01*
X113600361Y-96882351D01*
X113600000Y-96875000D01*
X113600000Y-95475000D01*
X113600361Y-95467649D01*
X113601441Y-95460368D01*
X113603229Y-95453229D01*
X113605709Y-95446299D01*
X113608856Y-95439645D01*
X113612640Y-95433332D01*
X113617024Y-95427421D01*
X113621967Y-95421967D01*
X113627421Y-95417024D01*
X113633332Y-95412640D01*
X113639645Y-95408856D01*
X113646299Y-95405709D01*
X113653229Y-95403229D01*
X113660368Y-95401441D01*
X113667649Y-95400361D01*
X113675000Y-95400000D01*
X113825000Y-95400000D01*
X113832351Y-95400361D01*
X113832351Y-95400361D01*
G37*
D20*
X113750000Y-96175000D03*
D19*
G36*
X113332351Y-95400361D02*
G01*
X113339632Y-95401441D01*
X113346771Y-95403229D01*
X113353701Y-95405709D01*
X113360355Y-95408856D01*
X113366668Y-95412640D01*
X113372579Y-95417024D01*
X113378033Y-95421967D01*
X113382976Y-95427421D01*
X113387360Y-95433332D01*
X113391144Y-95439645D01*
X113394291Y-95446299D01*
X113396771Y-95453229D01*
X113398559Y-95460368D01*
X113399639Y-95467649D01*
X113400000Y-95475000D01*
X113400000Y-96875000D01*
X113399639Y-96882351D01*
X113398559Y-96889632D01*
X113396771Y-96896771D01*
X113394291Y-96903701D01*
X113391144Y-96910355D01*
X113387360Y-96916668D01*
X113382976Y-96922579D01*
X113378033Y-96928033D01*
X113372579Y-96932976D01*
X113366668Y-96937360D01*
X113360355Y-96941144D01*
X113353701Y-96944291D01*
X113346771Y-96946771D01*
X113339632Y-96948559D01*
X113332351Y-96949639D01*
X113325000Y-96950000D01*
X113175000Y-96950000D01*
X113167649Y-96949639D01*
X113160368Y-96948559D01*
X113153229Y-96946771D01*
X113146299Y-96944291D01*
X113139645Y-96941144D01*
X113133332Y-96937360D01*
X113127421Y-96932976D01*
X113121967Y-96928033D01*
X113117024Y-96922579D01*
X113112640Y-96916668D01*
X113108856Y-96910355D01*
X113105709Y-96903701D01*
X113103229Y-96896771D01*
X113101441Y-96889632D01*
X113100361Y-96882351D01*
X113100000Y-96875000D01*
X113100000Y-95475000D01*
X113100361Y-95467649D01*
X113101441Y-95460368D01*
X113103229Y-95453229D01*
X113105709Y-95446299D01*
X113108856Y-95439645D01*
X113112640Y-95433332D01*
X113117024Y-95427421D01*
X113121967Y-95421967D01*
X113127421Y-95417024D01*
X113133332Y-95412640D01*
X113139645Y-95408856D01*
X113146299Y-95405709D01*
X113153229Y-95403229D01*
X113160368Y-95401441D01*
X113167649Y-95400361D01*
X113175000Y-95400000D01*
X113325000Y-95400000D01*
X113332351Y-95400361D01*
X113332351Y-95400361D01*
G37*
D20*
X113250000Y-96175000D03*
D19*
G36*
X112832351Y-95400361D02*
G01*
X112839632Y-95401441D01*
X112846771Y-95403229D01*
X112853701Y-95405709D01*
X112860355Y-95408856D01*
X112866668Y-95412640D01*
X112872579Y-95417024D01*
X112878033Y-95421967D01*
X112882976Y-95427421D01*
X112887360Y-95433332D01*
X112891144Y-95439645D01*
X112894291Y-95446299D01*
X112896771Y-95453229D01*
X112898559Y-95460368D01*
X112899639Y-95467649D01*
X112900000Y-95475000D01*
X112900000Y-96875000D01*
X112899639Y-96882351D01*
X112898559Y-96889632D01*
X112896771Y-96896771D01*
X112894291Y-96903701D01*
X112891144Y-96910355D01*
X112887360Y-96916668D01*
X112882976Y-96922579D01*
X112878033Y-96928033D01*
X112872579Y-96932976D01*
X112866668Y-96937360D01*
X112860355Y-96941144D01*
X112853701Y-96944291D01*
X112846771Y-96946771D01*
X112839632Y-96948559D01*
X112832351Y-96949639D01*
X112825000Y-96950000D01*
X112675000Y-96950000D01*
X112667649Y-96949639D01*
X112660368Y-96948559D01*
X112653229Y-96946771D01*
X112646299Y-96944291D01*
X112639645Y-96941144D01*
X112633332Y-96937360D01*
X112627421Y-96932976D01*
X112621967Y-96928033D01*
X112617024Y-96922579D01*
X112612640Y-96916668D01*
X112608856Y-96910355D01*
X112605709Y-96903701D01*
X112603229Y-96896771D01*
X112601441Y-96889632D01*
X112600361Y-96882351D01*
X112600000Y-96875000D01*
X112600000Y-95475000D01*
X112600361Y-95467649D01*
X112601441Y-95460368D01*
X112603229Y-95453229D01*
X112605709Y-95446299D01*
X112608856Y-95439645D01*
X112612640Y-95433332D01*
X112617024Y-95427421D01*
X112621967Y-95421967D01*
X112627421Y-95417024D01*
X112633332Y-95412640D01*
X112639645Y-95408856D01*
X112646299Y-95405709D01*
X112653229Y-95403229D01*
X112660368Y-95401441D01*
X112667649Y-95400361D01*
X112675000Y-95400000D01*
X112825000Y-95400000D01*
X112832351Y-95400361D01*
X112832351Y-95400361D01*
G37*
D20*
X112750000Y-96175000D03*
D19*
G36*
X112332351Y-95400361D02*
G01*
X112339632Y-95401441D01*
X112346771Y-95403229D01*
X112353701Y-95405709D01*
X112360355Y-95408856D01*
X112366668Y-95412640D01*
X112372579Y-95417024D01*
X112378033Y-95421967D01*
X112382976Y-95427421D01*
X112387360Y-95433332D01*
X112391144Y-95439645D01*
X112394291Y-95446299D01*
X112396771Y-95453229D01*
X112398559Y-95460368D01*
X112399639Y-95467649D01*
X112400000Y-95475000D01*
X112400000Y-96875000D01*
X112399639Y-96882351D01*
X112398559Y-96889632D01*
X112396771Y-96896771D01*
X112394291Y-96903701D01*
X112391144Y-96910355D01*
X112387360Y-96916668D01*
X112382976Y-96922579D01*
X112378033Y-96928033D01*
X112372579Y-96932976D01*
X112366668Y-96937360D01*
X112360355Y-96941144D01*
X112353701Y-96944291D01*
X112346771Y-96946771D01*
X112339632Y-96948559D01*
X112332351Y-96949639D01*
X112325000Y-96950000D01*
X112175000Y-96950000D01*
X112167649Y-96949639D01*
X112160368Y-96948559D01*
X112153229Y-96946771D01*
X112146299Y-96944291D01*
X112139645Y-96941144D01*
X112133332Y-96937360D01*
X112127421Y-96932976D01*
X112121967Y-96928033D01*
X112117024Y-96922579D01*
X112112640Y-96916668D01*
X112108856Y-96910355D01*
X112105709Y-96903701D01*
X112103229Y-96896771D01*
X112101441Y-96889632D01*
X112100361Y-96882351D01*
X112100000Y-96875000D01*
X112100000Y-95475000D01*
X112100361Y-95467649D01*
X112101441Y-95460368D01*
X112103229Y-95453229D01*
X112105709Y-95446299D01*
X112108856Y-95439645D01*
X112112640Y-95433332D01*
X112117024Y-95427421D01*
X112121967Y-95421967D01*
X112127421Y-95417024D01*
X112133332Y-95412640D01*
X112139645Y-95408856D01*
X112146299Y-95405709D01*
X112153229Y-95403229D01*
X112160368Y-95401441D01*
X112167649Y-95400361D01*
X112175000Y-95400000D01*
X112325000Y-95400000D01*
X112332351Y-95400361D01*
X112332351Y-95400361D01*
G37*
D20*
X112250000Y-96175000D03*
D19*
G36*
X111832351Y-95400361D02*
G01*
X111839632Y-95401441D01*
X111846771Y-95403229D01*
X111853701Y-95405709D01*
X111860355Y-95408856D01*
X111866668Y-95412640D01*
X111872579Y-95417024D01*
X111878033Y-95421967D01*
X111882976Y-95427421D01*
X111887360Y-95433332D01*
X111891144Y-95439645D01*
X111894291Y-95446299D01*
X111896771Y-95453229D01*
X111898559Y-95460368D01*
X111899639Y-95467649D01*
X111900000Y-95475000D01*
X111900000Y-96875000D01*
X111899639Y-96882351D01*
X111898559Y-96889632D01*
X111896771Y-96896771D01*
X111894291Y-96903701D01*
X111891144Y-96910355D01*
X111887360Y-96916668D01*
X111882976Y-96922579D01*
X111878033Y-96928033D01*
X111872579Y-96932976D01*
X111866668Y-96937360D01*
X111860355Y-96941144D01*
X111853701Y-96944291D01*
X111846771Y-96946771D01*
X111839632Y-96948559D01*
X111832351Y-96949639D01*
X111825000Y-96950000D01*
X111675000Y-96950000D01*
X111667649Y-96949639D01*
X111660368Y-96948559D01*
X111653229Y-96946771D01*
X111646299Y-96944291D01*
X111639645Y-96941144D01*
X111633332Y-96937360D01*
X111627421Y-96932976D01*
X111621967Y-96928033D01*
X111617024Y-96922579D01*
X111612640Y-96916668D01*
X111608856Y-96910355D01*
X111605709Y-96903701D01*
X111603229Y-96896771D01*
X111601441Y-96889632D01*
X111600361Y-96882351D01*
X111600000Y-96875000D01*
X111600000Y-95475000D01*
X111600361Y-95467649D01*
X111601441Y-95460368D01*
X111603229Y-95453229D01*
X111605709Y-95446299D01*
X111608856Y-95439645D01*
X111612640Y-95433332D01*
X111617024Y-95427421D01*
X111621967Y-95421967D01*
X111627421Y-95417024D01*
X111633332Y-95412640D01*
X111639645Y-95408856D01*
X111646299Y-95405709D01*
X111653229Y-95403229D01*
X111660368Y-95401441D01*
X111667649Y-95400361D01*
X111675000Y-95400000D01*
X111825000Y-95400000D01*
X111832351Y-95400361D01*
X111832351Y-95400361D01*
G37*
D20*
X111750000Y-96175000D03*
D19*
G36*
X110532351Y-94100361D02*
G01*
X110539632Y-94101441D01*
X110546771Y-94103229D01*
X110553701Y-94105709D01*
X110560355Y-94108856D01*
X110566668Y-94112640D01*
X110572579Y-94117024D01*
X110578033Y-94121967D01*
X110582976Y-94127421D01*
X110587360Y-94133332D01*
X110591144Y-94139645D01*
X110594291Y-94146299D01*
X110596771Y-94153229D01*
X110598559Y-94160368D01*
X110599639Y-94167649D01*
X110600000Y-94175000D01*
X110600000Y-94325000D01*
X110599639Y-94332351D01*
X110598559Y-94339632D01*
X110596771Y-94346771D01*
X110594291Y-94353701D01*
X110591144Y-94360355D01*
X110587360Y-94366668D01*
X110582976Y-94372579D01*
X110578033Y-94378033D01*
X110572579Y-94382976D01*
X110566668Y-94387360D01*
X110560355Y-94391144D01*
X110553701Y-94394291D01*
X110546771Y-94396771D01*
X110539632Y-94398559D01*
X110532351Y-94399639D01*
X110525000Y-94400000D01*
X109125000Y-94400000D01*
X109117649Y-94399639D01*
X109110368Y-94398559D01*
X109103229Y-94396771D01*
X109096299Y-94394291D01*
X109089645Y-94391144D01*
X109083332Y-94387360D01*
X109077421Y-94382976D01*
X109071967Y-94378033D01*
X109067024Y-94372579D01*
X109062640Y-94366668D01*
X109058856Y-94360355D01*
X109055709Y-94353701D01*
X109053229Y-94346771D01*
X109051441Y-94339632D01*
X109050361Y-94332351D01*
X109050000Y-94325000D01*
X109050000Y-94175000D01*
X109050361Y-94167649D01*
X109051441Y-94160368D01*
X109053229Y-94153229D01*
X109055709Y-94146299D01*
X109058856Y-94139645D01*
X109062640Y-94133332D01*
X109067024Y-94127421D01*
X109071967Y-94121967D01*
X109077421Y-94117024D01*
X109083332Y-94112640D01*
X109089645Y-94108856D01*
X109096299Y-94105709D01*
X109103229Y-94103229D01*
X109110368Y-94101441D01*
X109117649Y-94100361D01*
X109125000Y-94100000D01*
X110525000Y-94100000D01*
X110532351Y-94100361D01*
X110532351Y-94100361D01*
G37*
D20*
X109825000Y-94250000D03*
D19*
G36*
X110532351Y-93600361D02*
G01*
X110539632Y-93601441D01*
X110546771Y-93603229D01*
X110553701Y-93605709D01*
X110560355Y-93608856D01*
X110566668Y-93612640D01*
X110572579Y-93617024D01*
X110578033Y-93621967D01*
X110582976Y-93627421D01*
X110587360Y-93633332D01*
X110591144Y-93639645D01*
X110594291Y-93646299D01*
X110596771Y-93653229D01*
X110598559Y-93660368D01*
X110599639Y-93667649D01*
X110600000Y-93675000D01*
X110600000Y-93825000D01*
X110599639Y-93832351D01*
X110598559Y-93839632D01*
X110596771Y-93846771D01*
X110594291Y-93853701D01*
X110591144Y-93860355D01*
X110587360Y-93866668D01*
X110582976Y-93872579D01*
X110578033Y-93878033D01*
X110572579Y-93882976D01*
X110566668Y-93887360D01*
X110560355Y-93891144D01*
X110553701Y-93894291D01*
X110546771Y-93896771D01*
X110539632Y-93898559D01*
X110532351Y-93899639D01*
X110525000Y-93900000D01*
X109125000Y-93900000D01*
X109117649Y-93899639D01*
X109110368Y-93898559D01*
X109103229Y-93896771D01*
X109096299Y-93894291D01*
X109089645Y-93891144D01*
X109083332Y-93887360D01*
X109077421Y-93882976D01*
X109071967Y-93878033D01*
X109067024Y-93872579D01*
X109062640Y-93866668D01*
X109058856Y-93860355D01*
X109055709Y-93853701D01*
X109053229Y-93846771D01*
X109051441Y-93839632D01*
X109050361Y-93832351D01*
X109050000Y-93825000D01*
X109050000Y-93675000D01*
X109050361Y-93667649D01*
X109051441Y-93660368D01*
X109053229Y-93653229D01*
X109055709Y-93646299D01*
X109058856Y-93639645D01*
X109062640Y-93633332D01*
X109067024Y-93627421D01*
X109071967Y-93621967D01*
X109077421Y-93617024D01*
X109083332Y-93612640D01*
X109089645Y-93608856D01*
X109096299Y-93605709D01*
X109103229Y-93603229D01*
X109110368Y-93601441D01*
X109117649Y-93600361D01*
X109125000Y-93600000D01*
X110525000Y-93600000D01*
X110532351Y-93600361D01*
X110532351Y-93600361D01*
G37*
D20*
X109825000Y-93750000D03*
D19*
G36*
X110532351Y-93100361D02*
G01*
X110539632Y-93101441D01*
X110546771Y-93103229D01*
X110553701Y-93105709D01*
X110560355Y-93108856D01*
X110566668Y-93112640D01*
X110572579Y-93117024D01*
X110578033Y-93121967D01*
X110582976Y-93127421D01*
X110587360Y-93133332D01*
X110591144Y-93139645D01*
X110594291Y-93146299D01*
X110596771Y-93153229D01*
X110598559Y-93160368D01*
X110599639Y-93167649D01*
X110600000Y-93175000D01*
X110600000Y-93325000D01*
X110599639Y-93332351D01*
X110598559Y-93339632D01*
X110596771Y-93346771D01*
X110594291Y-93353701D01*
X110591144Y-93360355D01*
X110587360Y-93366668D01*
X110582976Y-93372579D01*
X110578033Y-93378033D01*
X110572579Y-93382976D01*
X110566668Y-93387360D01*
X110560355Y-93391144D01*
X110553701Y-93394291D01*
X110546771Y-93396771D01*
X110539632Y-93398559D01*
X110532351Y-93399639D01*
X110525000Y-93400000D01*
X109125000Y-93400000D01*
X109117649Y-93399639D01*
X109110368Y-93398559D01*
X109103229Y-93396771D01*
X109096299Y-93394291D01*
X109089645Y-93391144D01*
X109083332Y-93387360D01*
X109077421Y-93382976D01*
X109071967Y-93378033D01*
X109067024Y-93372579D01*
X109062640Y-93366668D01*
X109058856Y-93360355D01*
X109055709Y-93353701D01*
X109053229Y-93346771D01*
X109051441Y-93339632D01*
X109050361Y-93332351D01*
X109050000Y-93325000D01*
X109050000Y-93175000D01*
X109050361Y-93167649D01*
X109051441Y-93160368D01*
X109053229Y-93153229D01*
X109055709Y-93146299D01*
X109058856Y-93139645D01*
X109062640Y-93133332D01*
X109067024Y-93127421D01*
X109071967Y-93121967D01*
X109077421Y-93117024D01*
X109083332Y-93112640D01*
X109089645Y-93108856D01*
X109096299Y-93105709D01*
X109103229Y-93103229D01*
X109110368Y-93101441D01*
X109117649Y-93100361D01*
X109125000Y-93100000D01*
X110525000Y-93100000D01*
X110532351Y-93100361D01*
X110532351Y-93100361D01*
G37*
D20*
X109825000Y-93250000D03*
D19*
G36*
X110532351Y-92600361D02*
G01*
X110539632Y-92601441D01*
X110546771Y-92603229D01*
X110553701Y-92605709D01*
X110560355Y-92608856D01*
X110566668Y-92612640D01*
X110572579Y-92617024D01*
X110578033Y-92621967D01*
X110582976Y-92627421D01*
X110587360Y-92633332D01*
X110591144Y-92639645D01*
X110594291Y-92646299D01*
X110596771Y-92653229D01*
X110598559Y-92660368D01*
X110599639Y-92667649D01*
X110600000Y-92675000D01*
X110600000Y-92825000D01*
X110599639Y-92832351D01*
X110598559Y-92839632D01*
X110596771Y-92846771D01*
X110594291Y-92853701D01*
X110591144Y-92860355D01*
X110587360Y-92866668D01*
X110582976Y-92872579D01*
X110578033Y-92878033D01*
X110572579Y-92882976D01*
X110566668Y-92887360D01*
X110560355Y-92891144D01*
X110553701Y-92894291D01*
X110546771Y-92896771D01*
X110539632Y-92898559D01*
X110532351Y-92899639D01*
X110525000Y-92900000D01*
X109125000Y-92900000D01*
X109117649Y-92899639D01*
X109110368Y-92898559D01*
X109103229Y-92896771D01*
X109096299Y-92894291D01*
X109089645Y-92891144D01*
X109083332Y-92887360D01*
X109077421Y-92882976D01*
X109071967Y-92878033D01*
X109067024Y-92872579D01*
X109062640Y-92866668D01*
X109058856Y-92860355D01*
X109055709Y-92853701D01*
X109053229Y-92846771D01*
X109051441Y-92839632D01*
X109050361Y-92832351D01*
X109050000Y-92825000D01*
X109050000Y-92675000D01*
X109050361Y-92667649D01*
X109051441Y-92660368D01*
X109053229Y-92653229D01*
X109055709Y-92646299D01*
X109058856Y-92639645D01*
X109062640Y-92633332D01*
X109067024Y-92627421D01*
X109071967Y-92621967D01*
X109077421Y-92617024D01*
X109083332Y-92612640D01*
X109089645Y-92608856D01*
X109096299Y-92605709D01*
X109103229Y-92603229D01*
X109110368Y-92601441D01*
X109117649Y-92600361D01*
X109125000Y-92600000D01*
X110525000Y-92600000D01*
X110532351Y-92600361D01*
X110532351Y-92600361D01*
G37*
D20*
X109825000Y-92750000D03*
D19*
G36*
X110532351Y-92100361D02*
G01*
X110539632Y-92101441D01*
X110546771Y-92103229D01*
X110553701Y-92105709D01*
X110560355Y-92108856D01*
X110566668Y-92112640D01*
X110572579Y-92117024D01*
X110578033Y-92121967D01*
X110582976Y-92127421D01*
X110587360Y-92133332D01*
X110591144Y-92139645D01*
X110594291Y-92146299D01*
X110596771Y-92153229D01*
X110598559Y-92160368D01*
X110599639Y-92167649D01*
X110600000Y-92175000D01*
X110600000Y-92325000D01*
X110599639Y-92332351D01*
X110598559Y-92339632D01*
X110596771Y-92346771D01*
X110594291Y-92353701D01*
X110591144Y-92360355D01*
X110587360Y-92366668D01*
X110582976Y-92372579D01*
X110578033Y-92378033D01*
X110572579Y-92382976D01*
X110566668Y-92387360D01*
X110560355Y-92391144D01*
X110553701Y-92394291D01*
X110546771Y-92396771D01*
X110539632Y-92398559D01*
X110532351Y-92399639D01*
X110525000Y-92400000D01*
X109125000Y-92400000D01*
X109117649Y-92399639D01*
X109110368Y-92398559D01*
X109103229Y-92396771D01*
X109096299Y-92394291D01*
X109089645Y-92391144D01*
X109083332Y-92387360D01*
X109077421Y-92382976D01*
X109071967Y-92378033D01*
X109067024Y-92372579D01*
X109062640Y-92366668D01*
X109058856Y-92360355D01*
X109055709Y-92353701D01*
X109053229Y-92346771D01*
X109051441Y-92339632D01*
X109050361Y-92332351D01*
X109050000Y-92325000D01*
X109050000Y-92175000D01*
X109050361Y-92167649D01*
X109051441Y-92160368D01*
X109053229Y-92153229D01*
X109055709Y-92146299D01*
X109058856Y-92139645D01*
X109062640Y-92133332D01*
X109067024Y-92127421D01*
X109071967Y-92121967D01*
X109077421Y-92117024D01*
X109083332Y-92112640D01*
X109089645Y-92108856D01*
X109096299Y-92105709D01*
X109103229Y-92103229D01*
X109110368Y-92101441D01*
X109117649Y-92100361D01*
X109125000Y-92100000D01*
X110525000Y-92100000D01*
X110532351Y-92100361D01*
X110532351Y-92100361D01*
G37*
D20*
X109825000Y-92250000D03*
D19*
G36*
X110532351Y-91600361D02*
G01*
X110539632Y-91601441D01*
X110546771Y-91603229D01*
X110553701Y-91605709D01*
X110560355Y-91608856D01*
X110566668Y-91612640D01*
X110572579Y-91617024D01*
X110578033Y-91621967D01*
X110582976Y-91627421D01*
X110587360Y-91633332D01*
X110591144Y-91639645D01*
X110594291Y-91646299D01*
X110596771Y-91653229D01*
X110598559Y-91660368D01*
X110599639Y-91667649D01*
X110600000Y-91675000D01*
X110600000Y-91825000D01*
X110599639Y-91832351D01*
X110598559Y-91839632D01*
X110596771Y-91846771D01*
X110594291Y-91853701D01*
X110591144Y-91860355D01*
X110587360Y-91866668D01*
X110582976Y-91872579D01*
X110578033Y-91878033D01*
X110572579Y-91882976D01*
X110566668Y-91887360D01*
X110560355Y-91891144D01*
X110553701Y-91894291D01*
X110546771Y-91896771D01*
X110539632Y-91898559D01*
X110532351Y-91899639D01*
X110525000Y-91900000D01*
X109125000Y-91900000D01*
X109117649Y-91899639D01*
X109110368Y-91898559D01*
X109103229Y-91896771D01*
X109096299Y-91894291D01*
X109089645Y-91891144D01*
X109083332Y-91887360D01*
X109077421Y-91882976D01*
X109071967Y-91878033D01*
X109067024Y-91872579D01*
X109062640Y-91866668D01*
X109058856Y-91860355D01*
X109055709Y-91853701D01*
X109053229Y-91846771D01*
X109051441Y-91839632D01*
X109050361Y-91832351D01*
X109050000Y-91825000D01*
X109050000Y-91675000D01*
X109050361Y-91667649D01*
X109051441Y-91660368D01*
X109053229Y-91653229D01*
X109055709Y-91646299D01*
X109058856Y-91639645D01*
X109062640Y-91633332D01*
X109067024Y-91627421D01*
X109071967Y-91621967D01*
X109077421Y-91617024D01*
X109083332Y-91612640D01*
X109089645Y-91608856D01*
X109096299Y-91605709D01*
X109103229Y-91603229D01*
X109110368Y-91601441D01*
X109117649Y-91600361D01*
X109125000Y-91600000D01*
X110525000Y-91600000D01*
X110532351Y-91600361D01*
X110532351Y-91600361D01*
G37*
D20*
X109825000Y-91750000D03*
D19*
G36*
X110532351Y-91100361D02*
G01*
X110539632Y-91101441D01*
X110546771Y-91103229D01*
X110553701Y-91105709D01*
X110560355Y-91108856D01*
X110566668Y-91112640D01*
X110572579Y-91117024D01*
X110578033Y-91121967D01*
X110582976Y-91127421D01*
X110587360Y-91133332D01*
X110591144Y-91139645D01*
X110594291Y-91146299D01*
X110596771Y-91153229D01*
X110598559Y-91160368D01*
X110599639Y-91167649D01*
X110600000Y-91175000D01*
X110600000Y-91325000D01*
X110599639Y-91332351D01*
X110598559Y-91339632D01*
X110596771Y-91346771D01*
X110594291Y-91353701D01*
X110591144Y-91360355D01*
X110587360Y-91366668D01*
X110582976Y-91372579D01*
X110578033Y-91378033D01*
X110572579Y-91382976D01*
X110566668Y-91387360D01*
X110560355Y-91391144D01*
X110553701Y-91394291D01*
X110546771Y-91396771D01*
X110539632Y-91398559D01*
X110532351Y-91399639D01*
X110525000Y-91400000D01*
X109125000Y-91400000D01*
X109117649Y-91399639D01*
X109110368Y-91398559D01*
X109103229Y-91396771D01*
X109096299Y-91394291D01*
X109089645Y-91391144D01*
X109083332Y-91387360D01*
X109077421Y-91382976D01*
X109071967Y-91378033D01*
X109067024Y-91372579D01*
X109062640Y-91366668D01*
X109058856Y-91360355D01*
X109055709Y-91353701D01*
X109053229Y-91346771D01*
X109051441Y-91339632D01*
X109050361Y-91332351D01*
X109050000Y-91325000D01*
X109050000Y-91175000D01*
X109050361Y-91167649D01*
X109051441Y-91160368D01*
X109053229Y-91153229D01*
X109055709Y-91146299D01*
X109058856Y-91139645D01*
X109062640Y-91133332D01*
X109067024Y-91127421D01*
X109071967Y-91121967D01*
X109077421Y-91117024D01*
X109083332Y-91112640D01*
X109089645Y-91108856D01*
X109096299Y-91105709D01*
X109103229Y-91103229D01*
X109110368Y-91101441D01*
X109117649Y-91100361D01*
X109125000Y-91100000D01*
X110525000Y-91100000D01*
X110532351Y-91100361D01*
X110532351Y-91100361D01*
G37*
D20*
X109825000Y-91250000D03*
D19*
G36*
X110532351Y-90600361D02*
G01*
X110539632Y-90601441D01*
X110546771Y-90603229D01*
X110553701Y-90605709D01*
X110560355Y-90608856D01*
X110566668Y-90612640D01*
X110572579Y-90617024D01*
X110578033Y-90621967D01*
X110582976Y-90627421D01*
X110587360Y-90633332D01*
X110591144Y-90639645D01*
X110594291Y-90646299D01*
X110596771Y-90653229D01*
X110598559Y-90660368D01*
X110599639Y-90667649D01*
X110600000Y-90675000D01*
X110600000Y-90825000D01*
X110599639Y-90832351D01*
X110598559Y-90839632D01*
X110596771Y-90846771D01*
X110594291Y-90853701D01*
X110591144Y-90860355D01*
X110587360Y-90866668D01*
X110582976Y-90872579D01*
X110578033Y-90878033D01*
X110572579Y-90882976D01*
X110566668Y-90887360D01*
X110560355Y-90891144D01*
X110553701Y-90894291D01*
X110546771Y-90896771D01*
X110539632Y-90898559D01*
X110532351Y-90899639D01*
X110525000Y-90900000D01*
X109125000Y-90900000D01*
X109117649Y-90899639D01*
X109110368Y-90898559D01*
X109103229Y-90896771D01*
X109096299Y-90894291D01*
X109089645Y-90891144D01*
X109083332Y-90887360D01*
X109077421Y-90882976D01*
X109071967Y-90878033D01*
X109067024Y-90872579D01*
X109062640Y-90866668D01*
X109058856Y-90860355D01*
X109055709Y-90853701D01*
X109053229Y-90846771D01*
X109051441Y-90839632D01*
X109050361Y-90832351D01*
X109050000Y-90825000D01*
X109050000Y-90675000D01*
X109050361Y-90667649D01*
X109051441Y-90660368D01*
X109053229Y-90653229D01*
X109055709Y-90646299D01*
X109058856Y-90639645D01*
X109062640Y-90633332D01*
X109067024Y-90627421D01*
X109071967Y-90621967D01*
X109077421Y-90617024D01*
X109083332Y-90612640D01*
X109089645Y-90608856D01*
X109096299Y-90605709D01*
X109103229Y-90603229D01*
X109110368Y-90601441D01*
X109117649Y-90600361D01*
X109125000Y-90600000D01*
X110525000Y-90600000D01*
X110532351Y-90600361D01*
X110532351Y-90600361D01*
G37*
D20*
X109825000Y-90750000D03*
D19*
G36*
X110532351Y-90100361D02*
G01*
X110539632Y-90101441D01*
X110546771Y-90103229D01*
X110553701Y-90105709D01*
X110560355Y-90108856D01*
X110566668Y-90112640D01*
X110572579Y-90117024D01*
X110578033Y-90121967D01*
X110582976Y-90127421D01*
X110587360Y-90133332D01*
X110591144Y-90139645D01*
X110594291Y-90146299D01*
X110596771Y-90153229D01*
X110598559Y-90160368D01*
X110599639Y-90167649D01*
X110600000Y-90175000D01*
X110600000Y-90325000D01*
X110599639Y-90332351D01*
X110598559Y-90339632D01*
X110596771Y-90346771D01*
X110594291Y-90353701D01*
X110591144Y-90360355D01*
X110587360Y-90366668D01*
X110582976Y-90372579D01*
X110578033Y-90378033D01*
X110572579Y-90382976D01*
X110566668Y-90387360D01*
X110560355Y-90391144D01*
X110553701Y-90394291D01*
X110546771Y-90396771D01*
X110539632Y-90398559D01*
X110532351Y-90399639D01*
X110525000Y-90400000D01*
X109125000Y-90400000D01*
X109117649Y-90399639D01*
X109110368Y-90398559D01*
X109103229Y-90396771D01*
X109096299Y-90394291D01*
X109089645Y-90391144D01*
X109083332Y-90387360D01*
X109077421Y-90382976D01*
X109071967Y-90378033D01*
X109067024Y-90372579D01*
X109062640Y-90366668D01*
X109058856Y-90360355D01*
X109055709Y-90353701D01*
X109053229Y-90346771D01*
X109051441Y-90339632D01*
X109050361Y-90332351D01*
X109050000Y-90325000D01*
X109050000Y-90175000D01*
X109050361Y-90167649D01*
X109051441Y-90160368D01*
X109053229Y-90153229D01*
X109055709Y-90146299D01*
X109058856Y-90139645D01*
X109062640Y-90133332D01*
X109067024Y-90127421D01*
X109071967Y-90121967D01*
X109077421Y-90117024D01*
X109083332Y-90112640D01*
X109089645Y-90108856D01*
X109096299Y-90105709D01*
X109103229Y-90103229D01*
X109110368Y-90101441D01*
X109117649Y-90100361D01*
X109125000Y-90100000D01*
X110525000Y-90100000D01*
X110532351Y-90100361D01*
X110532351Y-90100361D01*
G37*
D20*
X109825000Y-90250000D03*
D19*
G36*
X110532351Y-89600361D02*
G01*
X110539632Y-89601441D01*
X110546771Y-89603229D01*
X110553701Y-89605709D01*
X110560355Y-89608856D01*
X110566668Y-89612640D01*
X110572579Y-89617024D01*
X110578033Y-89621967D01*
X110582976Y-89627421D01*
X110587360Y-89633332D01*
X110591144Y-89639645D01*
X110594291Y-89646299D01*
X110596771Y-89653229D01*
X110598559Y-89660368D01*
X110599639Y-89667649D01*
X110600000Y-89675000D01*
X110600000Y-89825000D01*
X110599639Y-89832351D01*
X110598559Y-89839632D01*
X110596771Y-89846771D01*
X110594291Y-89853701D01*
X110591144Y-89860355D01*
X110587360Y-89866668D01*
X110582976Y-89872579D01*
X110578033Y-89878033D01*
X110572579Y-89882976D01*
X110566668Y-89887360D01*
X110560355Y-89891144D01*
X110553701Y-89894291D01*
X110546771Y-89896771D01*
X110539632Y-89898559D01*
X110532351Y-89899639D01*
X110525000Y-89900000D01*
X109125000Y-89900000D01*
X109117649Y-89899639D01*
X109110368Y-89898559D01*
X109103229Y-89896771D01*
X109096299Y-89894291D01*
X109089645Y-89891144D01*
X109083332Y-89887360D01*
X109077421Y-89882976D01*
X109071967Y-89878033D01*
X109067024Y-89872579D01*
X109062640Y-89866668D01*
X109058856Y-89860355D01*
X109055709Y-89853701D01*
X109053229Y-89846771D01*
X109051441Y-89839632D01*
X109050361Y-89832351D01*
X109050000Y-89825000D01*
X109050000Y-89675000D01*
X109050361Y-89667649D01*
X109051441Y-89660368D01*
X109053229Y-89653229D01*
X109055709Y-89646299D01*
X109058856Y-89639645D01*
X109062640Y-89633332D01*
X109067024Y-89627421D01*
X109071967Y-89621967D01*
X109077421Y-89617024D01*
X109083332Y-89612640D01*
X109089645Y-89608856D01*
X109096299Y-89605709D01*
X109103229Y-89603229D01*
X109110368Y-89601441D01*
X109117649Y-89600361D01*
X109125000Y-89600000D01*
X110525000Y-89600000D01*
X110532351Y-89600361D01*
X110532351Y-89600361D01*
G37*
D20*
X109825000Y-89750000D03*
D19*
G36*
X110532351Y-89100361D02*
G01*
X110539632Y-89101441D01*
X110546771Y-89103229D01*
X110553701Y-89105709D01*
X110560355Y-89108856D01*
X110566668Y-89112640D01*
X110572579Y-89117024D01*
X110578033Y-89121967D01*
X110582976Y-89127421D01*
X110587360Y-89133332D01*
X110591144Y-89139645D01*
X110594291Y-89146299D01*
X110596771Y-89153229D01*
X110598559Y-89160368D01*
X110599639Y-89167649D01*
X110600000Y-89175000D01*
X110600000Y-89325000D01*
X110599639Y-89332351D01*
X110598559Y-89339632D01*
X110596771Y-89346771D01*
X110594291Y-89353701D01*
X110591144Y-89360355D01*
X110587360Y-89366668D01*
X110582976Y-89372579D01*
X110578033Y-89378033D01*
X110572579Y-89382976D01*
X110566668Y-89387360D01*
X110560355Y-89391144D01*
X110553701Y-89394291D01*
X110546771Y-89396771D01*
X110539632Y-89398559D01*
X110532351Y-89399639D01*
X110525000Y-89400000D01*
X109125000Y-89400000D01*
X109117649Y-89399639D01*
X109110368Y-89398559D01*
X109103229Y-89396771D01*
X109096299Y-89394291D01*
X109089645Y-89391144D01*
X109083332Y-89387360D01*
X109077421Y-89382976D01*
X109071967Y-89378033D01*
X109067024Y-89372579D01*
X109062640Y-89366668D01*
X109058856Y-89360355D01*
X109055709Y-89353701D01*
X109053229Y-89346771D01*
X109051441Y-89339632D01*
X109050361Y-89332351D01*
X109050000Y-89325000D01*
X109050000Y-89175000D01*
X109050361Y-89167649D01*
X109051441Y-89160368D01*
X109053229Y-89153229D01*
X109055709Y-89146299D01*
X109058856Y-89139645D01*
X109062640Y-89133332D01*
X109067024Y-89127421D01*
X109071967Y-89121967D01*
X109077421Y-89117024D01*
X109083332Y-89112640D01*
X109089645Y-89108856D01*
X109096299Y-89105709D01*
X109103229Y-89103229D01*
X109110368Y-89101441D01*
X109117649Y-89100361D01*
X109125000Y-89100000D01*
X110525000Y-89100000D01*
X110532351Y-89100361D01*
X110532351Y-89100361D01*
G37*
D20*
X109825000Y-89250000D03*
D19*
G36*
X110532351Y-88600361D02*
G01*
X110539632Y-88601441D01*
X110546771Y-88603229D01*
X110553701Y-88605709D01*
X110560355Y-88608856D01*
X110566668Y-88612640D01*
X110572579Y-88617024D01*
X110578033Y-88621967D01*
X110582976Y-88627421D01*
X110587360Y-88633332D01*
X110591144Y-88639645D01*
X110594291Y-88646299D01*
X110596771Y-88653229D01*
X110598559Y-88660368D01*
X110599639Y-88667649D01*
X110600000Y-88675000D01*
X110600000Y-88825000D01*
X110599639Y-88832351D01*
X110598559Y-88839632D01*
X110596771Y-88846771D01*
X110594291Y-88853701D01*
X110591144Y-88860355D01*
X110587360Y-88866668D01*
X110582976Y-88872579D01*
X110578033Y-88878033D01*
X110572579Y-88882976D01*
X110566668Y-88887360D01*
X110560355Y-88891144D01*
X110553701Y-88894291D01*
X110546771Y-88896771D01*
X110539632Y-88898559D01*
X110532351Y-88899639D01*
X110525000Y-88900000D01*
X109125000Y-88900000D01*
X109117649Y-88899639D01*
X109110368Y-88898559D01*
X109103229Y-88896771D01*
X109096299Y-88894291D01*
X109089645Y-88891144D01*
X109083332Y-88887360D01*
X109077421Y-88882976D01*
X109071967Y-88878033D01*
X109067024Y-88872579D01*
X109062640Y-88866668D01*
X109058856Y-88860355D01*
X109055709Y-88853701D01*
X109053229Y-88846771D01*
X109051441Y-88839632D01*
X109050361Y-88832351D01*
X109050000Y-88825000D01*
X109050000Y-88675000D01*
X109050361Y-88667649D01*
X109051441Y-88660368D01*
X109053229Y-88653229D01*
X109055709Y-88646299D01*
X109058856Y-88639645D01*
X109062640Y-88633332D01*
X109067024Y-88627421D01*
X109071967Y-88621967D01*
X109077421Y-88617024D01*
X109083332Y-88612640D01*
X109089645Y-88608856D01*
X109096299Y-88605709D01*
X109103229Y-88603229D01*
X109110368Y-88601441D01*
X109117649Y-88600361D01*
X109125000Y-88600000D01*
X110525000Y-88600000D01*
X110532351Y-88600361D01*
X110532351Y-88600361D01*
G37*
D20*
X109825000Y-88750000D03*
D19*
G36*
X110532351Y-88100361D02*
G01*
X110539632Y-88101441D01*
X110546771Y-88103229D01*
X110553701Y-88105709D01*
X110560355Y-88108856D01*
X110566668Y-88112640D01*
X110572579Y-88117024D01*
X110578033Y-88121967D01*
X110582976Y-88127421D01*
X110587360Y-88133332D01*
X110591144Y-88139645D01*
X110594291Y-88146299D01*
X110596771Y-88153229D01*
X110598559Y-88160368D01*
X110599639Y-88167649D01*
X110600000Y-88175000D01*
X110600000Y-88325000D01*
X110599639Y-88332351D01*
X110598559Y-88339632D01*
X110596771Y-88346771D01*
X110594291Y-88353701D01*
X110591144Y-88360355D01*
X110587360Y-88366668D01*
X110582976Y-88372579D01*
X110578033Y-88378033D01*
X110572579Y-88382976D01*
X110566668Y-88387360D01*
X110560355Y-88391144D01*
X110553701Y-88394291D01*
X110546771Y-88396771D01*
X110539632Y-88398559D01*
X110532351Y-88399639D01*
X110525000Y-88400000D01*
X109125000Y-88400000D01*
X109117649Y-88399639D01*
X109110368Y-88398559D01*
X109103229Y-88396771D01*
X109096299Y-88394291D01*
X109089645Y-88391144D01*
X109083332Y-88387360D01*
X109077421Y-88382976D01*
X109071967Y-88378033D01*
X109067024Y-88372579D01*
X109062640Y-88366668D01*
X109058856Y-88360355D01*
X109055709Y-88353701D01*
X109053229Y-88346771D01*
X109051441Y-88339632D01*
X109050361Y-88332351D01*
X109050000Y-88325000D01*
X109050000Y-88175000D01*
X109050361Y-88167649D01*
X109051441Y-88160368D01*
X109053229Y-88153229D01*
X109055709Y-88146299D01*
X109058856Y-88139645D01*
X109062640Y-88133332D01*
X109067024Y-88127421D01*
X109071967Y-88121967D01*
X109077421Y-88117024D01*
X109083332Y-88112640D01*
X109089645Y-88108856D01*
X109096299Y-88105709D01*
X109103229Y-88103229D01*
X109110368Y-88101441D01*
X109117649Y-88100361D01*
X109125000Y-88100000D01*
X110525000Y-88100000D01*
X110532351Y-88100361D01*
X110532351Y-88100361D01*
G37*
D20*
X109825000Y-88250000D03*
D19*
G36*
X110532351Y-87600361D02*
G01*
X110539632Y-87601441D01*
X110546771Y-87603229D01*
X110553701Y-87605709D01*
X110560355Y-87608856D01*
X110566668Y-87612640D01*
X110572579Y-87617024D01*
X110578033Y-87621967D01*
X110582976Y-87627421D01*
X110587360Y-87633332D01*
X110591144Y-87639645D01*
X110594291Y-87646299D01*
X110596771Y-87653229D01*
X110598559Y-87660368D01*
X110599639Y-87667649D01*
X110600000Y-87675000D01*
X110600000Y-87825000D01*
X110599639Y-87832351D01*
X110598559Y-87839632D01*
X110596771Y-87846771D01*
X110594291Y-87853701D01*
X110591144Y-87860355D01*
X110587360Y-87866668D01*
X110582976Y-87872579D01*
X110578033Y-87878033D01*
X110572579Y-87882976D01*
X110566668Y-87887360D01*
X110560355Y-87891144D01*
X110553701Y-87894291D01*
X110546771Y-87896771D01*
X110539632Y-87898559D01*
X110532351Y-87899639D01*
X110525000Y-87900000D01*
X109125000Y-87900000D01*
X109117649Y-87899639D01*
X109110368Y-87898559D01*
X109103229Y-87896771D01*
X109096299Y-87894291D01*
X109089645Y-87891144D01*
X109083332Y-87887360D01*
X109077421Y-87882976D01*
X109071967Y-87878033D01*
X109067024Y-87872579D01*
X109062640Y-87866668D01*
X109058856Y-87860355D01*
X109055709Y-87853701D01*
X109053229Y-87846771D01*
X109051441Y-87839632D01*
X109050361Y-87832351D01*
X109050000Y-87825000D01*
X109050000Y-87675000D01*
X109050361Y-87667649D01*
X109051441Y-87660368D01*
X109053229Y-87653229D01*
X109055709Y-87646299D01*
X109058856Y-87639645D01*
X109062640Y-87633332D01*
X109067024Y-87627421D01*
X109071967Y-87621967D01*
X109077421Y-87617024D01*
X109083332Y-87612640D01*
X109089645Y-87608856D01*
X109096299Y-87605709D01*
X109103229Y-87603229D01*
X109110368Y-87601441D01*
X109117649Y-87600361D01*
X109125000Y-87600000D01*
X110525000Y-87600000D01*
X110532351Y-87600361D01*
X110532351Y-87600361D01*
G37*
D20*
X109825000Y-87750000D03*
D19*
G36*
X110532351Y-87100361D02*
G01*
X110539632Y-87101441D01*
X110546771Y-87103229D01*
X110553701Y-87105709D01*
X110560355Y-87108856D01*
X110566668Y-87112640D01*
X110572579Y-87117024D01*
X110578033Y-87121967D01*
X110582976Y-87127421D01*
X110587360Y-87133332D01*
X110591144Y-87139645D01*
X110594291Y-87146299D01*
X110596771Y-87153229D01*
X110598559Y-87160368D01*
X110599639Y-87167649D01*
X110600000Y-87175000D01*
X110600000Y-87325000D01*
X110599639Y-87332351D01*
X110598559Y-87339632D01*
X110596771Y-87346771D01*
X110594291Y-87353701D01*
X110591144Y-87360355D01*
X110587360Y-87366668D01*
X110582976Y-87372579D01*
X110578033Y-87378033D01*
X110572579Y-87382976D01*
X110566668Y-87387360D01*
X110560355Y-87391144D01*
X110553701Y-87394291D01*
X110546771Y-87396771D01*
X110539632Y-87398559D01*
X110532351Y-87399639D01*
X110525000Y-87400000D01*
X109125000Y-87400000D01*
X109117649Y-87399639D01*
X109110368Y-87398559D01*
X109103229Y-87396771D01*
X109096299Y-87394291D01*
X109089645Y-87391144D01*
X109083332Y-87387360D01*
X109077421Y-87382976D01*
X109071967Y-87378033D01*
X109067024Y-87372579D01*
X109062640Y-87366668D01*
X109058856Y-87360355D01*
X109055709Y-87353701D01*
X109053229Y-87346771D01*
X109051441Y-87339632D01*
X109050361Y-87332351D01*
X109050000Y-87325000D01*
X109050000Y-87175000D01*
X109050361Y-87167649D01*
X109051441Y-87160368D01*
X109053229Y-87153229D01*
X109055709Y-87146299D01*
X109058856Y-87139645D01*
X109062640Y-87133332D01*
X109067024Y-87127421D01*
X109071967Y-87121967D01*
X109077421Y-87117024D01*
X109083332Y-87112640D01*
X109089645Y-87108856D01*
X109096299Y-87105709D01*
X109103229Y-87103229D01*
X109110368Y-87101441D01*
X109117649Y-87100361D01*
X109125000Y-87100000D01*
X110525000Y-87100000D01*
X110532351Y-87100361D01*
X110532351Y-87100361D01*
G37*
D20*
X109825000Y-87250000D03*
D19*
G36*
X110532351Y-86600361D02*
G01*
X110539632Y-86601441D01*
X110546771Y-86603229D01*
X110553701Y-86605709D01*
X110560355Y-86608856D01*
X110566668Y-86612640D01*
X110572579Y-86617024D01*
X110578033Y-86621967D01*
X110582976Y-86627421D01*
X110587360Y-86633332D01*
X110591144Y-86639645D01*
X110594291Y-86646299D01*
X110596771Y-86653229D01*
X110598559Y-86660368D01*
X110599639Y-86667649D01*
X110600000Y-86675000D01*
X110600000Y-86825000D01*
X110599639Y-86832351D01*
X110598559Y-86839632D01*
X110596771Y-86846771D01*
X110594291Y-86853701D01*
X110591144Y-86860355D01*
X110587360Y-86866668D01*
X110582976Y-86872579D01*
X110578033Y-86878033D01*
X110572579Y-86882976D01*
X110566668Y-86887360D01*
X110560355Y-86891144D01*
X110553701Y-86894291D01*
X110546771Y-86896771D01*
X110539632Y-86898559D01*
X110532351Y-86899639D01*
X110525000Y-86900000D01*
X109125000Y-86900000D01*
X109117649Y-86899639D01*
X109110368Y-86898559D01*
X109103229Y-86896771D01*
X109096299Y-86894291D01*
X109089645Y-86891144D01*
X109083332Y-86887360D01*
X109077421Y-86882976D01*
X109071967Y-86878033D01*
X109067024Y-86872579D01*
X109062640Y-86866668D01*
X109058856Y-86860355D01*
X109055709Y-86853701D01*
X109053229Y-86846771D01*
X109051441Y-86839632D01*
X109050361Y-86832351D01*
X109050000Y-86825000D01*
X109050000Y-86675000D01*
X109050361Y-86667649D01*
X109051441Y-86660368D01*
X109053229Y-86653229D01*
X109055709Y-86646299D01*
X109058856Y-86639645D01*
X109062640Y-86633332D01*
X109067024Y-86627421D01*
X109071967Y-86621967D01*
X109077421Y-86617024D01*
X109083332Y-86612640D01*
X109089645Y-86608856D01*
X109096299Y-86605709D01*
X109103229Y-86603229D01*
X109110368Y-86601441D01*
X109117649Y-86600361D01*
X109125000Y-86600000D01*
X110525000Y-86600000D01*
X110532351Y-86600361D01*
X110532351Y-86600361D01*
G37*
D20*
X109825000Y-86750000D03*
D21*
X132060000Y-103805000D03*
X124440000Y-112695000D03*
X129520000Y-103805000D03*
X126980000Y-112695000D03*
X126980000Y-103805000D03*
X129520000Y-112695000D03*
X124440000Y-103805000D03*
X132060000Y-112695000D03*
D22*
X115048000Y-46980000D03*
X115048000Y-52060000D03*
X115048000Y-50790000D03*
X115048000Y-49520000D03*
X115048000Y-48250000D03*
X115048000Y-45710000D03*
X115048000Y-44440000D03*
X108698000Y-44440000D03*
X108698000Y-45710000D03*
X108698000Y-46980000D03*
X108698000Y-48250000D03*
X108698000Y-49520000D03*
X108698000Y-50790000D03*
X108698000Y-52060000D03*
D23*
X120300000Y-117150000D03*
X115700000Y-117150000D03*
X118000000Y-117150000D03*
D24*
X118000000Y-110850000D03*
X109500000Y-134650000D03*
D23*
X109500000Y-128350000D03*
X111800000Y-128350000D03*
X107200000Y-128350000D03*
D25*
X109050000Y-57475000D03*
X109050000Y-58125000D03*
X109050000Y-58775000D03*
X109050000Y-59425000D03*
X109050000Y-60075000D03*
X109050000Y-60725000D03*
X109050000Y-61375000D03*
X109050000Y-62025000D03*
X114950000Y-62025000D03*
X114950000Y-61375000D03*
X114950000Y-60725000D03*
X114950000Y-60075000D03*
X114950000Y-59425000D03*
X114950000Y-58775000D03*
X114950000Y-58125000D03*
X114950000Y-57475000D03*
D26*
X115250000Y-79500000D03*
X106750000Y-79500000D03*
D16*
X126600000Y-116250000D03*
X129900000Y-116250000D03*
M02*
