M48
; DRILL file {KiCad (5.1.4)-1} date 26/11/2019 14:30:50
; FORMAT={-:-/ absolute / inch / decimal}
; #@! TF.CreationDate,2019-11-26T14:30:50+00:00
; #@! TF.GenerationSoftware,Kicad,Pcbnew,(5.1.4)-1
; #@! TF.FileFunction,Plated,1,2,PTH
FMAT,2
INCH
T1C0.0157
T2C0.0394
%
G90
G05
T1
X3.811Y-3.436
X3.9075Y-3.2854
X3.9331Y-3.1063
X3.9409Y-3.5472
X3.9764Y-1.7795
X4.1417Y-2.8583
X4.1417Y-3.5787
X4.1732Y-3.8819
X4.2008Y-2.8425
X4.2008Y-3.6575
X4.2126Y-2.3622
X4.2224Y-3.9862
X4.2224Y-4.5768
X4.248Y-2.8465
X4.248Y-3.5512
X4.2795Y-4.2126
X4.2854Y-2.7854
X4.2874Y-2.7362
X4.2953Y-3.3661
X4.3346Y-1.9409
X4.3622Y-4.4094
X4.3701Y-4.0433
X4.3976Y-3.6535
X4.4016Y-1.689
X4.4016Y-2.4016
X4.4134Y-3.937
X4.4213Y-3.4449
X4.4783Y-2.0472
X4.4882Y-4.7598
X4.5Y-2.6102
X4.5157Y-3.7047
X4.5157Y-4.2638
X4.5315Y-2.8386
X4.5965Y-3.4882
X4.6063Y-2.2933
X4.6063Y-2.874
X4.6299Y-3.6535
X4.6339Y-3.4173
X4.6339Y-3.5551
X4.6654Y-2.5315
X4.7087Y-2.7087
X4.7126Y-2.7638
X4.7126Y-3.6299
X4.7126Y-3.685
X4.7409Y-2.6585
X4.7441Y-2.4449
X4.7441Y-2.5157
X4.7874Y-3.374
X4.8031Y-4.2618
X4.8189Y-3.1772
X4.8346Y-1.8543
X4.8386Y-2.4331
X4.8386Y-3.0512
X4.8386Y-3.5709
X4.8504Y-2.126
X4.8937Y-2.8701
X4.8976Y-2.5512
X4.9213Y-3.2283
X4.9488Y-2.3307
X4.9488Y-2.5236
X4.9488Y-2.9173
X4.9843Y-4.6654
X5.0079Y-3.8661
X5.0236Y-4.248
X5.058Y-2.5147
X5.0591Y-2.9921
X5.122Y-5.0512
X5.1575Y-2.8898
X5.1929Y-3.9016
X5.1969Y-2.7362
X5.2047Y-4.9724
X5.2087Y-3.2717
X5.2126Y-2.9961
X5.2244Y-3.689
X5.2264Y-3.8287
T2
X3.8583Y-3.6862
X3.8583Y-3.7862
X3.8583Y-3.8862
X3.8583Y-3.9862
X5.2756Y-1.9685
X5.2756Y-2.0685
X5.2756Y-2.1685
X5.2756Y-2.2685
X5.2756Y-2.3685
X5.2756Y-2.4685
X5.2756Y-2.5685
X5.2756Y-2.6685
X3.8583Y-1.8661
X3.8583Y-1.9661
X3.8583Y-2.0661
X3.8583Y-2.1661
X3.8583Y-2.2661
X3.8583Y-2.3661
X3.8583Y-2.4661
X3.8583Y-2.5661
X3.8583Y-2.6661
X5.2756Y-4.7244
X5.2756Y-4.8244
X5.2756Y-4.9244
X5.2756Y-5.0244
X5.2756Y-5.1244
X5.2756Y-5.2244
X5.2756Y-5.3244
X5.2756Y-5.4244
X3.8583Y-4.7244
X3.8583Y-4.8244
X3.8583Y-4.9244
X3.8583Y-5.0244
X3.8583Y-5.1244
X3.8583Y-5.2244
X3.8583Y-5.3244
X3.8583Y-5.4244
X4.6638Y-5.2264
X4.6638Y-5.3264
X4.6638Y-5.4264
X4.6638Y-5.5264
X4.6638Y-5.6264
X4.7638Y-5.2264
X4.7638Y-5.3264
X4.7638Y-5.4264
X4.7638Y-5.5264
X4.7638Y-5.6264
T0
M30
