M48
; DRILL file {KiCad (5.1.4)-1} date 26/11/2019 14:43:06
; FORMAT={-:-/ absolute / inch / decimal}
; #@! TF.CreationDate,2019-11-26T14:43:06+00:00
; #@! TF.GenerationSoftware,Kicad,Pcbnew,(5.1.4)-1
; #@! TF.FileFunction,NonPlated,1,2,NPTH
FMAT,2
INCH
T1C0.1181
T2C0.1260
T3C0.1378
T4C0.3228
T5C0.5906
%
G90
G05
T1
X3.9764Y-3.9265
X5.1575Y-2.8038
X5.1575Y-4.4385
X3.9764Y-3.3158
X3.9764Y-2.8048
X5.1575Y-3.3158
X3.9765Y-2.2928
X5.1575Y-3.9265
X3.9764Y-1.7808
X5.1575Y-2.2928
X5.1575Y-1.7808
X3.9764Y-4.4385
T3
X4.5669Y-4.9902
T4
X4.8622Y-2.815
X4.8622Y-2.3031
X4.8622Y-3.3268
X4.8622Y-3.937
X4.2717Y-3.3268
X4.2717Y-3.937
X4.8622Y-4.4488
X4.2717Y-4.4488
X4.2717Y-2.815
X4.2717Y-1.7913
X4.8622Y-1.7913
X4.2717Y-2.3031
T5
X4.9232Y-5.5709
T2
G00X5.0276Y-1.3307
M15
G01X5.0984Y-1.3307
M16
G05
G00X4.0354Y-1.3307
M15
G01X4.1063Y-1.3307
M16
G05
G00X4.0354Y-6.1535
M15
G01X4.1063Y-6.1535
M16
G05
G00X5.0276Y-6.1535
M15
G01X5.0984Y-6.1535
M16
G05
T0
M30
