G04 #@! TF.GenerationSoftware,KiCad,Pcbnew,(5.1.4)-1*
G04 #@! TF.CreationDate,2019-11-26T14:43:03+00:00*
G04 #@! TF.ProjectId,MidiMonger_panel,4d696469-4d6f-46e6-9765-725f70616e65,rev?*
G04 #@! TF.SameCoordinates,Original*
G04 #@! TF.FileFunction,Copper,L1,Top*
G04 #@! TF.FilePolarity,Positive*
%FSLAX46Y46*%
G04 Gerber Fmt 4.6, Leading zero omitted, Abs format (unit mm)*
G04 Created by KiCad (PCBNEW (5.1.4)-1) date 2019-11-26 14:43:03*
%MOMM*%
%LPD*%
G04 APERTURE LIST*
%ADD10C,5.000000*%
%ADD11C,0.100000*%
%ADD12C,0.254000*%
G04 APERTURE END LIST*
D10*
X131100000Y-117450000D02*
G75*
G03X131100000Y-117450000I-499859J0D01*
G01*
X101949859Y-117450141D02*
G75*
G03X101949859Y-117450141I-499859J0D01*
G01*
X101949718Y-38949859D02*
G75*
G03X101949718Y-38949859I-499859J0D01*
G01*
X131049859Y-38949859D02*
G75*
G03X131049859Y-38949859I-499859J0D01*
G01*
D11*
G36*
X130650000Y-153200000D02*
G01*
X101650000Y-153200000D01*
X101650000Y-144200000D01*
X130650000Y-144200000D01*
X130650000Y-153200000D01*
G37*
X130650000Y-153200000D02*
X101650000Y-153200000D01*
X101650000Y-144200000D01*
X130650000Y-144200000D01*
X130650000Y-153200000D01*
G36*
X133450000Y-150250000D02*
G01*
X98550000Y-150250000D01*
X98550000Y-132050000D01*
X133450000Y-132050000D01*
X133450000Y-150250000D01*
G37*
X133450000Y-150250000D02*
X98550000Y-150250000D01*
X98550000Y-132050000D01*
X133450000Y-132050000D01*
X133450000Y-150250000D01*
D10*
X101999718Y-150249859D02*
G75*
G03X101999718Y-150249859I-499859J0D01*
G01*
X130999859Y-150249859D02*
G75*
G03X130999859Y-150249859I-499859J0D01*
G01*
D11*
G36*
X133450000Y-130700000D02*
G01*
X98500000Y-130700000D01*
X98550000Y-124650000D01*
X133450000Y-124650000D01*
X133450000Y-130700000D01*
G37*
X133450000Y-130700000D02*
X98500000Y-130700000D01*
X98550000Y-124650000D01*
X133450000Y-124650000D01*
X133450000Y-130700000D01*
G36*
X130500000Y-130700000D02*
G01*
X101500000Y-130700000D01*
X101500000Y-121700000D01*
X130500000Y-121700000D01*
X130500000Y-130700000D01*
G37*
X130500000Y-130700000D02*
X101500000Y-130700000D01*
X101500000Y-121700000D01*
X130500000Y-121700000D01*
X130500000Y-130700000D01*
D10*
X130999859Y-124649859D02*
G75*
G03X130999859Y-124649859I-499859J0D01*
G01*
X101999718Y-124649859D02*
G75*
G03X101999718Y-124649859I-499859J0D01*
G01*
D11*
G36*
X133550000Y-117650000D02*
G01*
X98500000Y-117700000D01*
X98500000Y-92750000D01*
X133550000Y-92750000D01*
X133550000Y-117650000D01*
G37*
X133550000Y-117650000D02*
X98500000Y-117700000D01*
X98500000Y-92750000D01*
X133550000Y-92750000D01*
X133550000Y-117650000D01*
G36*
X130800000Y-106350000D02*
G01*
X130800000Y-120400000D01*
X101450000Y-120400000D01*
X101450000Y-106300000D01*
X130800000Y-106350000D01*
G37*
X130800000Y-106350000D02*
X130800000Y-120400000D01*
X101450000Y-120400000D01*
X101450000Y-106300000D01*
X130800000Y-106350000D01*
G36*
X133500000Y-91700000D02*
G01*
X116500000Y-91700000D01*
X116500000Y-39100000D01*
X133500000Y-39050000D01*
X133500000Y-91700000D01*
G37*
X133500000Y-91700000D02*
X116500000Y-91700000D01*
X116500000Y-39100000D01*
X133500000Y-39050000D01*
X133500000Y-91700000D01*
G36*
X130450000Y-46000000D02*
G01*
X116500000Y-46000000D01*
X116500000Y-36000000D01*
X130450000Y-36000000D01*
X130450000Y-46000000D01*
G37*
X130450000Y-46000000D02*
X116500000Y-46000000D01*
X116500000Y-36000000D01*
X130450000Y-36000000D01*
X130450000Y-46000000D01*
G36*
X115500000Y-91700000D02*
G01*
X98500000Y-91700000D01*
X98500000Y-39050000D01*
X115500000Y-39050000D01*
X115500000Y-91700000D01*
G37*
X115500000Y-91700000D02*
X98500000Y-91700000D01*
X98500000Y-39050000D01*
X115500000Y-39050000D01*
X115500000Y-91700000D01*
G36*
X115500000Y-46000000D02*
G01*
X101350000Y-46000000D01*
X101350000Y-36000000D01*
X115500000Y-36000000D01*
X115500000Y-46000000D01*
G37*
X115500000Y-46000000D02*
X101350000Y-46000000D01*
X101350000Y-36000000D01*
X115500000Y-36000000D01*
X115500000Y-46000000D01*
D12*
G36*
X100911970Y-154711970D02*
G01*
X100632674Y-155052293D01*
X100425138Y-155440564D01*
X100297339Y-155861863D01*
X100254186Y-156300000D01*
X100297339Y-156738137D01*
X100425138Y-157159436D01*
X100632674Y-157547707D01*
X100899635Y-157873000D01*
X98627000Y-157873000D01*
X98627000Y-154627000D01*
X101015506Y-154627000D01*
X100911970Y-154711970D01*
X100911970Y-154711970D01*
G37*
X100911970Y-154711970D02*
X100632674Y-155052293D01*
X100425138Y-155440564D01*
X100297339Y-155861863D01*
X100254186Y-156300000D01*
X100297339Y-156738137D01*
X100425138Y-157159436D01*
X100632674Y-157547707D01*
X100899635Y-157873000D01*
X98627000Y-157873000D01*
X98627000Y-154627000D01*
X101015506Y-154627000D01*
X100911970Y-154711970D01*
G36*
X126111970Y-154711970D02*
G01*
X125832674Y-155052293D01*
X125625138Y-155440564D01*
X125497339Y-155861863D01*
X125454186Y-156300000D01*
X125497339Y-156738137D01*
X125625138Y-157159436D01*
X125832674Y-157547707D01*
X126099635Y-157873000D01*
X105900365Y-157873000D01*
X106167326Y-157547707D01*
X106374862Y-157159436D01*
X106502661Y-156738137D01*
X106545814Y-156300000D01*
X106502661Y-155861863D01*
X106374862Y-155440564D01*
X106167326Y-155052293D01*
X105888030Y-154711970D01*
X105784494Y-154627000D01*
X126215506Y-154627000D01*
X126111970Y-154711970D01*
X126111970Y-154711970D01*
G37*
X126111970Y-154711970D02*
X125832674Y-155052293D01*
X125625138Y-155440564D01*
X125497339Y-155861863D01*
X125454186Y-156300000D01*
X125497339Y-156738137D01*
X125625138Y-157159436D01*
X125832674Y-157547707D01*
X126099635Y-157873000D01*
X105900365Y-157873000D01*
X106167326Y-157547707D01*
X106374862Y-157159436D01*
X106502661Y-156738137D01*
X106545814Y-156300000D01*
X106502661Y-155861863D01*
X106374862Y-155440564D01*
X106167326Y-155052293D01*
X105888030Y-154711970D01*
X105784494Y-154627000D01*
X126215506Y-154627000D01*
X126111970Y-154711970D01*
G36*
X133373000Y-157873000D02*
G01*
X131100365Y-157873000D01*
X131367326Y-157547707D01*
X131574862Y-157159436D01*
X131702661Y-156738137D01*
X131745814Y-156300000D01*
X131702661Y-155861863D01*
X131574862Y-155440564D01*
X131367326Y-155052293D01*
X131088030Y-154711970D01*
X130984494Y-154627000D01*
X133373000Y-154627000D01*
X133373000Y-157873000D01*
X133373000Y-157873000D01*
G37*
X133373000Y-157873000D02*
X131100365Y-157873000D01*
X131367326Y-157547707D01*
X131574862Y-157159436D01*
X131702661Y-156738137D01*
X131745814Y-156300000D01*
X131702661Y-155861863D01*
X131574862Y-155440564D01*
X131367326Y-155052293D01*
X131088030Y-154711970D01*
X130984494Y-154627000D01*
X133373000Y-154627000D01*
X133373000Y-157873000D01*
M02*
