G04 #@! TF.GenerationSoftware,KiCad,Pcbnew,(5.1.4)-1*
G04 #@! TF.CreationDate,2019-11-26T14:30:42+00:00*
G04 #@! TF.ProjectId,MidiMonger,4d696469-4d6f-46e6-9765-722e6b696361,rev?*
G04 #@! TF.SameCoordinates,Original*
G04 #@! TF.FileFunction,Legend,Bot*
G04 #@! TF.FilePolarity,Positive*
%FSLAX46Y46*%
G04 Gerber Fmt 4.6, Leading zero omitted, Abs format (unit mm)*
G04 Created by KiCad (PCBNEW (5.1.4)-1) date 2019-11-26 14:30:42*
%MOMM*%
%LPD*%
G04 APERTURE LIST*
%ADD10C,0.150000*%
%ADD11C,0.120000*%
%ADD12C,0.500000*%
%ADD13C,2.000000*%
%ADD14C,0.100000*%
G04 APERTURE END LIST*
D10*
X100257142Y-57252500D02*
X100304761Y-57204880D01*
X100352380Y-57062023D01*
X100352380Y-56966785D01*
X100304761Y-56823928D01*
X100209523Y-56728690D01*
X100114285Y-56681071D01*
X99923809Y-56633452D01*
X99780952Y-56633452D01*
X99590476Y-56681071D01*
X99495238Y-56728690D01*
X99400000Y-56823928D01*
X99352380Y-56966785D01*
X99352380Y-57062023D01*
X99400000Y-57204880D01*
X99447619Y-57252500D01*
X99352380Y-57538214D02*
X100352380Y-57871547D01*
X99352380Y-58204880D01*
X99685714Y-58966785D02*
X100352380Y-58966785D01*
X99304761Y-58728690D02*
X100019047Y-58490595D01*
X100019047Y-59109642D01*
X100257142Y-53902500D02*
X100304761Y-53854880D01*
X100352380Y-53712023D01*
X100352380Y-53616785D01*
X100304761Y-53473928D01*
X100209523Y-53378690D01*
X100114285Y-53331071D01*
X99923809Y-53283452D01*
X99780952Y-53283452D01*
X99590476Y-53331071D01*
X99495238Y-53378690D01*
X99400000Y-53473928D01*
X99352380Y-53616785D01*
X99352380Y-53712023D01*
X99400000Y-53854880D01*
X99447619Y-53902500D01*
X99352380Y-54188214D02*
X100352380Y-54521547D01*
X99352380Y-54854880D01*
X99352380Y-55092976D02*
X99352380Y-55712023D01*
X99733333Y-55378690D01*
X99733333Y-55521547D01*
X99780952Y-55616785D01*
X99828571Y-55664404D01*
X99923809Y-55712023D01*
X100161904Y-55712023D01*
X100257142Y-55664404D01*
X100304761Y-55616785D01*
X100352380Y-55521547D01*
X100352380Y-55235833D01*
X100304761Y-55140595D01*
X100257142Y-55092976D01*
X100257142Y-49502500D02*
X100304761Y-49454880D01*
X100352380Y-49312023D01*
X100352380Y-49216785D01*
X100304761Y-49073928D01*
X100209523Y-48978690D01*
X100114285Y-48931071D01*
X99923809Y-48883452D01*
X99780952Y-48883452D01*
X99590476Y-48931071D01*
X99495238Y-48978690D01*
X99400000Y-49073928D01*
X99352380Y-49216785D01*
X99352380Y-49312023D01*
X99400000Y-49454880D01*
X99447619Y-49502500D01*
X99352380Y-49788214D02*
X100352380Y-50121547D01*
X99352380Y-50454880D01*
X99447619Y-50740595D02*
X99400000Y-50788214D01*
X99352380Y-50883452D01*
X99352380Y-51121547D01*
X99400000Y-51216785D01*
X99447619Y-51264404D01*
X99542857Y-51312023D01*
X99638095Y-51312023D01*
X99780952Y-51264404D01*
X100352380Y-50692976D01*
X100352380Y-51312023D01*
X100257142Y-46302500D02*
X100304761Y-46254880D01*
X100352380Y-46112023D01*
X100352380Y-46016785D01*
X100304761Y-45873928D01*
X100209523Y-45778690D01*
X100114285Y-45731071D01*
X99923809Y-45683452D01*
X99780952Y-45683452D01*
X99590476Y-45731071D01*
X99495238Y-45778690D01*
X99400000Y-45873928D01*
X99352380Y-46016785D01*
X99352380Y-46112023D01*
X99400000Y-46254880D01*
X99447619Y-46302500D01*
X99352380Y-46588214D02*
X100352380Y-46921547D01*
X99352380Y-47254880D01*
X100352380Y-48112023D02*
X100352380Y-47540595D01*
X100352380Y-47826309D02*
X99352380Y-47826309D01*
X99495238Y-47731071D01*
X99590476Y-47635833D01*
X99638095Y-47540595D01*
X99150000Y-67750000D02*
X99150000Y-60150000D01*
X100700000Y-67750000D02*
X99150000Y-67750000D01*
X108614166Y-68107142D02*
X108661785Y-68154761D01*
X108804642Y-68202380D01*
X108899880Y-68202380D01*
X109042738Y-68154761D01*
X109137976Y-68059523D01*
X109185595Y-67964285D01*
X109233214Y-67773809D01*
X109233214Y-67630952D01*
X109185595Y-67440476D01*
X109137976Y-67345238D01*
X109042738Y-67250000D01*
X108899880Y-67202380D01*
X108804642Y-67202380D01*
X108661785Y-67250000D01*
X108614166Y-67297619D01*
X108328452Y-67202380D02*
X107995119Y-68202380D01*
X107661785Y-67202380D01*
X106090357Y-68202380D02*
X106566547Y-68202380D01*
X106566547Y-67202380D01*
X105757023Y-67678571D02*
X105423690Y-67678571D01*
X105280833Y-68202380D02*
X105757023Y-68202380D01*
X105757023Y-67202380D01*
X105280833Y-67202380D01*
X104852261Y-68202380D02*
X104852261Y-67202380D01*
X104614166Y-67202380D01*
X104471309Y-67250000D01*
X104376071Y-67345238D01*
X104328452Y-67440476D01*
X104280833Y-67630952D01*
X104280833Y-67773809D01*
X104328452Y-67964285D01*
X104376071Y-68059523D01*
X104471309Y-68154761D01*
X104614166Y-68202380D01*
X104852261Y-68202380D01*
X103328452Y-68202380D02*
X103899880Y-68202380D01*
X103614166Y-68202380D02*
X103614166Y-67202380D01*
X103709404Y-67345238D01*
X103804642Y-67440476D01*
X103899880Y-67488095D01*
X102899880Y-67821428D02*
X102137976Y-67821428D01*
X101233214Y-67535714D02*
X101233214Y-68202380D01*
X101471309Y-67154761D02*
X101709404Y-67869047D01*
X101090357Y-67869047D01*
X122100000Y-122100000D02*
X117900000Y-117200000D01*
X124100000Y-122100000D02*
X122100000Y-122100000D01*
X119600000Y-82900000D02*
X119600000Y-79500000D01*
X118800000Y-82900000D02*
X119600000Y-82900000D01*
X118404761Y-82452380D02*
X117785714Y-82452380D01*
X118119047Y-82833333D01*
X117976190Y-82833333D01*
X117880952Y-82880952D01*
X117833333Y-82928571D01*
X117785714Y-83023809D01*
X117785714Y-83261904D01*
X117833333Y-83357142D01*
X117880952Y-83404761D01*
X117976190Y-83452380D01*
X118261904Y-83452380D01*
X118357142Y-83404761D01*
X118404761Y-83357142D01*
X117357142Y-83357142D02*
X117309523Y-83404761D01*
X117357142Y-83452380D01*
X117404761Y-83404761D01*
X117357142Y-83357142D01*
X117357142Y-83452380D01*
X116976190Y-82452380D02*
X116357142Y-82452380D01*
X116690476Y-82833333D01*
X116547619Y-82833333D01*
X116452380Y-82880952D01*
X116404761Y-82928571D01*
X116357142Y-83023809D01*
X116357142Y-83261904D01*
X116404761Y-83357142D01*
X116452380Y-83404761D01*
X116547619Y-83452380D01*
X116833333Y-83452380D01*
X116928571Y-83404761D01*
X116976190Y-83357142D01*
X116071428Y-82452380D02*
X115738095Y-83452380D01*
X115404761Y-82452380D01*
X115119047Y-83166666D02*
X114642857Y-83166666D01*
X115214285Y-83452380D02*
X114880952Y-82452380D01*
X114547619Y-83452380D01*
X125290476Y-121552380D02*
X125766666Y-121552380D01*
X125814285Y-122028571D01*
X125766666Y-121980952D01*
X125671428Y-121933333D01*
X125433333Y-121933333D01*
X125338095Y-121980952D01*
X125290476Y-122028571D01*
X125242857Y-122123809D01*
X125242857Y-122361904D01*
X125290476Y-122457142D01*
X125338095Y-122504761D01*
X125433333Y-122552380D01*
X125671428Y-122552380D01*
X125766666Y-122504761D01*
X125814285Y-122457142D01*
X124957142Y-121552380D02*
X124623809Y-122552380D01*
X124290476Y-121552380D01*
D11*
X120612476Y-84961904D02*
X121069619Y-84961904D01*
X120841047Y-84961904D02*
X120841047Y-84161904D01*
X120917238Y-84276190D01*
X120993428Y-84352380D01*
X121069619Y-84390476D01*
X119926761Y-84161904D02*
X120079142Y-84161904D01*
X120155333Y-84200000D01*
X120193428Y-84238095D01*
X120269619Y-84352380D01*
X120307714Y-84504761D01*
X120307714Y-84809523D01*
X120269619Y-84885714D01*
X120231523Y-84923809D01*
X120155333Y-84961904D01*
X120002952Y-84961904D01*
X119926761Y-84923809D01*
X119888666Y-84885714D01*
X119850571Y-84809523D01*
X119850571Y-84619047D01*
X119888666Y-84542857D01*
X119926761Y-84504761D01*
X120002952Y-84466666D01*
X120155333Y-84466666D01*
X120231523Y-84504761D01*
X120269619Y-84542857D01*
X120307714Y-84619047D01*
X107988666Y-94128571D02*
X107988666Y-94661904D01*
X108179142Y-93823809D02*
X108369619Y-94395238D01*
X107874380Y-94395238D01*
X107531523Y-94661904D02*
X107379142Y-94661904D01*
X107302952Y-94623809D01*
X107264857Y-94585714D01*
X107188666Y-94471428D01*
X107150571Y-94319047D01*
X107150571Y-94014285D01*
X107188666Y-93938095D01*
X107226761Y-93900000D01*
X107302952Y-93861904D01*
X107455333Y-93861904D01*
X107531523Y-93900000D01*
X107569619Y-93938095D01*
X107607714Y-94014285D01*
X107607714Y-94204761D01*
X107569619Y-94280952D01*
X107531523Y-94319047D01*
X107455333Y-94357142D01*
X107302952Y-94357142D01*
X107226761Y-94319047D01*
X107188666Y-94280952D01*
X107150571Y-94204761D01*
X120007714Y-97561904D02*
X119512476Y-97561904D01*
X119779142Y-97866666D01*
X119664857Y-97866666D01*
X119588666Y-97904761D01*
X119550571Y-97942857D01*
X119512476Y-98019047D01*
X119512476Y-98209523D01*
X119550571Y-98285714D01*
X119588666Y-98323809D01*
X119664857Y-98361904D01*
X119893428Y-98361904D01*
X119969619Y-98323809D01*
X120007714Y-98285714D01*
X119245809Y-97561904D02*
X118750571Y-97561904D01*
X119017238Y-97866666D01*
X118902952Y-97866666D01*
X118826761Y-97904761D01*
X118788666Y-97942857D01*
X118750571Y-98019047D01*
X118750571Y-98209523D01*
X118788666Y-98285714D01*
X118826761Y-98323809D01*
X118902952Y-98361904D01*
X119131523Y-98361904D01*
X119207714Y-98323809D01*
X119245809Y-98285714D01*
D10*
X134540595Y-41825000D02*
X134635833Y-41777380D01*
X134778690Y-41777380D01*
X134921547Y-41825000D01*
X135016785Y-41920238D01*
X135064404Y-42015476D01*
X135112023Y-42205952D01*
X135112023Y-42348809D01*
X135064404Y-42539285D01*
X135016785Y-42634523D01*
X134921547Y-42729761D01*
X134778690Y-42777380D01*
X134683452Y-42777380D01*
X134540595Y-42729761D01*
X134492976Y-42682142D01*
X134492976Y-42348809D01*
X134683452Y-42348809D01*
X133540595Y-42777380D02*
X134112023Y-42777380D01*
X133826309Y-42777380D02*
X133826309Y-41777380D01*
X133921547Y-41920238D01*
X134016785Y-42015476D01*
X134112023Y-42063095D01*
X132635833Y-42777380D02*
X133112023Y-42777380D01*
X133112023Y-41777380D01*
X134540595Y-43475000D02*
X134635833Y-43427380D01*
X134778690Y-43427380D01*
X134921547Y-43475000D01*
X135016785Y-43570238D01*
X135064404Y-43665476D01*
X135112023Y-43855952D01*
X135112023Y-43998809D01*
X135064404Y-44189285D01*
X135016785Y-44284523D01*
X134921547Y-44379761D01*
X134778690Y-44427380D01*
X134683452Y-44427380D01*
X134540595Y-44379761D01*
X134492976Y-44332142D01*
X134492976Y-43998809D01*
X134683452Y-43998809D01*
X133540595Y-44427380D02*
X134112023Y-44427380D01*
X133826309Y-44427380D02*
X133826309Y-43427380D01*
X133921547Y-43570238D01*
X134016785Y-43665476D01*
X134112023Y-43713095D01*
X134540595Y-45125000D02*
X134635833Y-45077380D01*
X134778690Y-45077380D01*
X134921547Y-45125000D01*
X135016785Y-45220238D01*
X135064404Y-45315476D01*
X135112023Y-45505952D01*
X135112023Y-45648809D01*
X135064404Y-45839285D01*
X135016785Y-45934523D01*
X134921547Y-46029761D01*
X134778690Y-46077380D01*
X134683452Y-46077380D01*
X134540595Y-46029761D01*
X134492976Y-45982142D01*
X134492976Y-45648809D01*
X134683452Y-45648809D01*
X134112023Y-45172619D02*
X134064404Y-45125000D01*
X133969166Y-45077380D01*
X133731071Y-45077380D01*
X133635833Y-45125000D01*
X133588214Y-45172619D01*
X133540595Y-45267857D01*
X133540595Y-45363095D01*
X133588214Y-45505952D01*
X134159642Y-46077380D01*
X133540595Y-46077380D01*
X132635833Y-46077380D02*
X133112023Y-46077380D01*
X133112023Y-45077380D01*
X134540595Y-46775000D02*
X134635833Y-46727380D01*
X134778690Y-46727380D01*
X134921547Y-46775000D01*
X135016785Y-46870238D01*
X135064404Y-46965476D01*
X135112023Y-47155952D01*
X135112023Y-47298809D01*
X135064404Y-47489285D01*
X135016785Y-47584523D01*
X134921547Y-47679761D01*
X134778690Y-47727380D01*
X134683452Y-47727380D01*
X134540595Y-47679761D01*
X134492976Y-47632142D01*
X134492976Y-47298809D01*
X134683452Y-47298809D01*
X134112023Y-46822619D02*
X134064404Y-46775000D01*
X133969166Y-46727380D01*
X133731071Y-46727380D01*
X133635833Y-46775000D01*
X133588214Y-46822619D01*
X133540595Y-46917857D01*
X133540595Y-47013095D01*
X133588214Y-47155952D01*
X134159642Y-47727380D01*
X133540595Y-47727380D01*
X132338095Y-135877380D02*
X132338095Y-134877380D01*
X132004762Y-135591666D01*
X131671428Y-134877380D01*
X131671428Y-135877380D01*
X131195238Y-135877380D02*
X131195238Y-134877380D01*
X130957142Y-134877380D01*
X130814285Y-134925000D01*
X130719047Y-135020238D01*
X130671428Y-135115476D01*
X130623809Y-135305952D01*
X130623809Y-135448809D01*
X130671428Y-135639285D01*
X130719047Y-135734523D01*
X130814285Y-135829761D01*
X130957142Y-135877380D01*
X131195238Y-135877380D01*
X131814285Y-132350000D02*
X131909523Y-132302380D01*
X132052381Y-132302380D01*
X132195238Y-132350000D01*
X132290476Y-132445238D01*
X132338095Y-132540476D01*
X132385714Y-132730952D01*
X132385714Y-132873809D01*
X132338095Y-133064285D01*
X132290476Y-133159523D01*
X132195238Y-133254761D01*
X132052381Y-133302380D01*
X131957142Y-133302380D01*
X131814285Y-133254761D01*
X131766666Y-133207142D01*
X131766666Y-132873809D01*
X131957142Y-132873809D01*
X131338095Y-133302380D02*
X131338095Y-132302380D01*
X130766666Y-133302380D01*
X130766666Y-132302380D01*
X130290476Y-133302380D02*
X130290476Y-132302380D01*
X130052381Y-132302380D01*
X129909523Y-132350000D01*
X129814285Y-132445238D01*
X129766666Y-132540476D01*
X129719047Y-132730952D01*
X129719047Y-132873809D01*
X129766666Y-133064285D01*
X129814285Y-133159523D01*
X129909523Y-133254761D01*
X130052381Y-133302380D01*
X130290476Y-133302380D01*
X131814285Y-127200000D02*
X131909523Y-127152380D01*
X132052380Y-127152380D01*
X132195238Y-127200000D01*
X132290476Y-127295238D01*
X132338095Y-127390476D01*
X132385714Y-127580952D01*
X132385714Y-127723809D01*
X132338095Y-127914285D01*
X132290476Y-128009523D01*
X132195238Y-128104761D01*
X132052380Y-128152380D01*
X131957142Y-128152380D01*
X131814285Y-128104761D01*
X131766666Y-128057142D01*
X131766666Y-127723809D01*
X131957142Y-127723809D01*
X130909523Y-127152380D02*
X131100000Y-127152380D01*
X131195238Y-127200000D01*
X131242857Y-127247619D01*
X131338095Y-127390476D01*
X131385714Y-127580952D01*
X131385714Y-127961904D01*
X131338095Y-128057142D01*
X131290476Y-128104761D01*
X131195238Y-128152380D01*
X131004761Y-128152380D01*
X130909523Y-128104761D01*
X130861904Y-128057142D01*
X130814285Y-127961904D01*
X130814285Y-127723809D01*
X130861904Y-127628571D01*
X130909523Y-127580952D01*
X131004761Y-127533333D01*
X131195238Y-127533333D01*
X131290476Y-127580952D01*
X131338095Y-127628571D01*
X131385714Y-127723809D01*
X134740595Y-69925000D02*
X134835833Y-69877380D01*
X134978690Y-69877380D01*
X135121547Y-69925000D01*
X135216785Y-70020238D01*
X135264404Y-70115476D01*
X135312023Y-70305952D01*
X135312023Y-70448809D01*
X135264404Y-70639285D01*
X135216785Y-70734523D01*
X135121547Y-70829761D01*
X134978690Y-70877380D01*
X134883452Y-70877380D01*
X134740595Y-70829761D01*
X134692976Y-70782142D01*
X134692976Y-70448809D01*
X134883452Y-70448809D01*
X134359642Y-69877380D02*
X133740595Y-69877380D01*
X134073928Y-70258333D01*
X133931071Y-70258333D01*
X133835833Y-70305952D01*
X133788214Y-70353571D01*
X133740595Y-70448809D01*
X133740595Y-70686904D01*
X133788214Y-70782142D01*
X133835833Y-70829761D01*
X133931071Y-70877380D01*
X134216785Y-70877380D01*
X134312023Y-70829761D01*
X134359642Y-70782142D01*
X134740595Y-71575000D02*
X134835833Y-71527380D01*
X134978690Y-71527380D01*
X135121547Y-71575000D01*
X135216785Y-71670238D01*
X135264404Y-71765476D01*
X135312023Y-71955952D01*
X135312023Y-72098809D01*
X135264404Y-72289285D01*
X135216785Y-72384523D01*
X135121547Y-72479761D01*
X134978690Y-72527380D01*
X134883452Y-72527380D01*
X134740595Y-72479761D01*
X134692976Y-72432142D01*
X134692976Y-72098809D01*
X134883452Y-72098809D01*
X134359642Y-71527380D02*
X133740595Y-71527380D01*
X134073928Y-71908333D01*
X133931071Y-71908333D01*
X133835833Y-71955952D01*
X133788214Y-72003571D01*
X133740595Y-72098809D01*
X133740595Y-72336904D01*
X133788214Y-72432142D01*
X133835833Y-72479761D01*
X133931071Y-72527380D01*
X134216785Y-72527380D01*
X134312023Y-72479761D01*
X134359642Y-72432142D01*
X132835833Y-72527380D02*
X133312023Y-72527380D01*
X133312023Y-71527380D01*
X134740595Y-73225000D02*
X134835833Y-73177380D01*
X134978690Y-73177380D01*
X135121547Y-73225000D01*
X135216785Y-73320238D01*
X135264404Y-73415476D01*
X135312023Y-73605952D01*
X135312023Y-73748809D01*
X135264404Y-73939285D01*
X135216785Y-74034523D01*
X135121547Y-74129761D01*
X134978690Y-74177380D01*
X134883452Y-74177380D01*
X134740595Y-74129761D01*
X134692976Y-74082142D01*
X134692976Y-73748809D01*
X134883452Y-73748809D01*
X133835833Y-73510714D02*
X133835833Y-74177380D01*
X134073928Y-73129761D02*
X134312023Y-73844047D01*
X133692976Y-73844047D01*
X134740595Y-74875000D02*
X134835833Y-74827380D01*
X134978690Y-74827380D01*
X135121547Y-74875000D01*
X135216785Y-74970238D01*
X135264404Y-75065476D01*
X135312023Y-75255952D01*
X135312023Y-75398809D01*
X135264404Y-75589285D01*
X135216785Y-75684523D01*
X135121547Y-75779761D01*
X134978690Y-75827380D01*
X134883452Y-75827380D01*
X134740595Y-75779761D01*
X134692976Y-75732142D01*
X134692976Y-75398809D01*
X134883452Y-75398809D01*
X133835833Y-75160714D02*
X133835833Y-75827380D01*
X134073928Y-74779761D02*
X134312023Y-75494047D01*
X133692976Y-75494047D01*
X132835833Y-75827380D02*
X133312023Y-75827380D01*
X133312023Y-74827380D01*
X132338095Y-138452380D02*
X132338095Y-137452380D01*
X132004762Y-138166666D01*
X131671429Y-137452380D01*
X131671429Y-138452380D01*
X131338095Y-137452380D02*
X131004762Y-138452380D01*
X130671429Y-137452380D01*
X131814285Y-129775000D02*
X131909523Y-129727380D01*
X132052380Y-129727380D01*
X132195238Y-129775000D01*
X132290476Y-129870238D01*
X132338095Y-129965476D01*
X132385714Y-130155952D01*
X132385714Y-130298809D01*
X132338095Y-130489285D01*
X132290476Y-130584523D01*
X132195238Y-130679761D01*
X132052380Y-130727380D01*
X131957142Y-130727380D01*
X131814285Y-130679761D01*
X131766666Y-130632142D01*
X131766666Y-130298809D01*
X131957142Y-130298809D01*
X131195238Y-130155952D02*
X131290476Y-130108333D01*
X131338095Y-130060714D01*
X131385714Y-129965476D01*
X131385714Y-129917857D01*
X131338095Y-129822619D01*
X131290476Y-129775000D01*
X131195238Y-129727380D01*
X131004761Y-129727380D01*
X130909523Y-129775000D01*
X130861904Y-129822619D01*
X130814285Y-129917857D01*
X130814285Y-129965476D01*
X130861904Y-130060714D01*
X130909523Y-130108333D01*
X131004761Y-130155952D01*
X131195238Y-130155952D01*
X131290476Y-130203571D01*
X131338095Y-130251190D01*
X131385714Y-130346428D01*
X131385714Y-130536904D01*
X131338095Y-130632142D01*
X131290476Y-130679761D01*
X131195238Y-130727380D01*
X131004761Y-130727380D01*
X130909523Y-130679761D01*
X130861904Y-130632142D01*
X130814285Y-130536904D01*
X130814285Y-130346428D01*
X130861904Y-130251190D01*
X130909523Y-130203571D01*
X131004761Y-130155952D01*
X102319047Y-137252380D02*
X102319047Y-138061904D01*
X102271428Y-138157142D01*
X102223809Y-138204761D01*
X102128571Y-138252380D01*
X101938095Y-138252380D01*
X101842857Y-138204761D01*
X101795238Y-138157142D01*
X101747619Y-138061904D01*
X101747619Y-137252380D01*
X101414285Y-137252380D02*
X101080952Y-138252380D01*
X100747619Y-137252380D01*
X100080952Y-137728571D02*
X99938095Y-137776190D01*
X99890476Y-137823809D01*
X99842857Y-137919047D01*
X99842857Y-138061904D01*
X99890476Y-138157142D01*
X99938095Y-138204761D01*
X100033333Y-138252380D01*
X100414285Y-138252380D01*
X100414285Y-137252380D01*
X100080952Y-137252380D01*
X99985714Y-137300000D01*
X99938095Y-137347619D01*
X99890476Y-137442857D01*
X99890476Y-137538095D01*
X99938095Y-137633333D01*
X99985714Y-137680952D01*
X100080952Y-137728571D01*
X100414285Y-137728571D01*
X102319047Y-134723806D02*
X102319047Y-135533330D01*
X102271428Y-135628568D01*
X102223809Y-135676187D01*
X102128571Y-135723806D01*
X101938095Y-135723806D01*
X101842857Y-135676187D01*
X101795238Y-135628568D01*
X101747619Y-135533330D01*
X101747619Y-134723806D01*
X101271428Y-135723806D02*
X101271428Y-134723806D01*
X101033333Y-134723806D01*
X100890476Y-134771426D01*
X100795238Y-134866664D01*
X100747619Y-134961902D01*
X100700000Y-135152378D01*
X100700000Y-135295235D01*
X100747619Y-135485711D01*
X100795238Y-135580949D01*
X100890476Y-135676187D01*
X101033333Y-135723806D01*
X101271428Y-135723806D01*
X100271428Y-135723806D02*
X100271428Y-134723806D01*
X99938095Y-135438092D01*
X99604762Y-134723806D01*
X99604762Y-135723806D01*
X102319047Y-132195235D02*
X102319047Y-133004759D01*
X102271428Y-133099997D01*
X102223809Y-133147616D01*
X102128571Y-133195235D01*
X101938094Y-133195235D01*
X101842856Y-133147616D01*
X101795237Y-133099997D01*
X101747618Y-133004759D01*
X101747618Y-132195235D01*
X101271428Y-133195235D02*
X101271428Y-132195235D01*
X101033333Y-132195235D01*
X100890475Y-132242855D01*
X100795237Y-132338093D01*
X100747618Y-132433331D01*
X100699999Y-132623807D01*
X100699999Y-132766664D01*
X100747618Y-132957140D01*
X100795237Y-133052378D01*
X100890475Y-133147616D01*
X101033333Y-133195235D01*
X101271428Y-133195235D01*
X100271428Y-133195235D02*
X100271428Y-132195235D01*
X99890475Y-132195235D01*
X99795237Y-132242855D01*
X99747618Y-132290474D01*
X99699999Y-132385712D01*
X99699999Y-132528569D01*
X99747618Y-132623807D01*
X99795237Y-132671426D01*
X99890475Y-132719045D01*
X100271428Y-132719045D01*
X101795237Y-129714284D02*
X101890475Y-129666664D01*
X102033332Y-129666664D01*
X102176190Y-129714284D01*
X102271428Y-129809522D01*
X102319047Y-129904760D01*
X102366666Y-130095236D01*
X102366666Y-130238093D01*
X102319047Y-130428569D01*
X102271428Y-130523807D01*
X102176190Y-130619045D01*
X102033332Y-130666664D01*
X101938094Y-130666664D01*
X101795237Y-130619045D01*
X101747618Y-130571426D01*
X101747618Y-130238093D01*
X101938094Y-130238093D01*
X101414285Y-129666664D02*
X100747618Y-129666664D01*
X101176190Y-130666664D01*
X101795237Y-127185713D02*
X101890475Y-127138093D01*
X102033332Y-127138093D01*
X102176190Y-127185713D01*
X102271428Y-127280951D01*
X102319047Y-127376189D01*
X102366666Y-127566665D01*
X102366666Y-127709522D01*
X102319047Y-127899998D01*
X102271428Y-127995236D01*
X102176190Y-128090474D01*
X102033332Y-128138093D01*
X101938094Y-128138093D01*
X101795237Y-128090474D01*
X101747618Y-128042855D01*
X101747618Y-127709522D01*
X101938094Y-127709522D01*
X100842856Y-127138093D02*
X101319047Y-127138093D01*
X101366666Y-127614284D01*
X101319047Y-127566665D01*
X101223809Y-127519046D01*
X100985713Y-127519046D01*
X100890475Y-127566665D01*
X100842856Y-127614284D01*
X100795237Y-127709522D01*
X100795237Y-127947617D01*
X100842856Y-128042855D01*
X100890475Y-128090474D01*
X100985713Y-128138093D01*
X101223809Y-128138093D01*
X101319047Y-128090474D01*
X101366666Y-128042855D01*
X101795237Y-124657142D02*
X101890475Y-124609522D01*
X102033333Y-124609522D01*
X102176190Y-124657142D01*
X102271428Y-124752380D01*
X102319047Y-124847618D01*
X102366666Y-125038094D01*
X102366666Y-125180951D01*
X102319047Y-125371427D01*
X102271428Y-125466665D01*
X102176190Y-125561903D01*
X102033333Y-125609522D01*
X101938094Y-125609522D01*
X101795237Y-125561903D01*
X101747618Y-125514284D01*
X101747618Y-125180951D01*
X101938094Y-125180951D01*
X101319047Y-125609522D02*
X101319047Y-124609522D01*
X100747618Y-125609522D01*
X100747618Y-124609522D01*
X100271428Y-125609522D02*
X100271428Y-124609522D01*
X100033333Y-124609522D01*
X99890475Y-124657142D01*
X99795237Y-124752380D01*
X99747618Y-124847618D01*
X99699999Y-125038094D01*
X99699999Y-125180951D01*
X99747618Y-125371427D01*
X99795237Y-125466665D01*
X99890475Y-125561903D01*
X100033333Y-125609522D01*
X100271428Y-125609522D01*
X101795237Y-122128571D02*
X101890475Y-122080951D01*
X102033332Y-122080951D01*
X102176190Y-122128571D01*
X102271428Y-122223809D01*
X102319047Y-122319047D01*
X102366666Y-122509523D01*
X102366666Y-122652380D01*
X102319047Y-122842856D01*
X102271428Y-122938094D01*
X102176190Y-123033332D01*
X102033332Y-123080951D01*
X101938094Y-123080951D01*
X101795237Y-123033332D01*
X101747618Y-122985713D01*
X101747618Y-122652380D01*
X101938094Y-122652380D01*
X100842856Y-122080951D02*
X101319047Y-122080951D01*
X101366666Y-122557142D01*
X101319047Y-122509523D01*
X101223809Y-122461904D01*
X100985713Y-122461904D01*
X100890475Y-122509523D01*
X100842856Y-122557142D01*
X100795237Y-122652380D01*
X100795237Y-122890475D01*
X100842856Y-122985713D01*
X100890475Y-123033332D01*
X100985713Y-123080951D01*
X101223809Y-123080951D01*
X101319047Y-123033332D01*
X101366666Y-122985713D01*
X99890475Y-123080951D02*
X100366666Y-123080951D01*
X100366666Y-122080951D01*
X101747619Y-120552380D02*
X102080952Y-120076190D01*
X102319047Y-120552380D02*
X102319047Y-119552380D01*
X101938095Y-119552380D01*
X101842857Y-119600000D01*
X101795238Y-119647619D01*
X101747619Y-119742857D01*
X101747619Y-119885714D01*
X101795238Y-119980952D01*
X101842857Y-120028571D01*
X101938095Y-120076190D01*
X102319047Y-120076190D01*
X101366666Y-120504761D02*
X101223809Y-120552380D01*
X100985714Y-120552380D01*
X100890476Y-120504761D01*
X100842857Y-120457142D01*
X100795238Y-120361904D01*
X100795238Y-120266666D01*
X100842857Y-120171428D01*
X100890476Y-120123809D01*
X100985714Y-120076190D01*
X101176190Y-120028571D01*
X101271428Y-119980952D01*
X101319047Y-119933333D01*
X101366666Y-119838095D01*
X101366666Y-119742857D01*
X101319047Y-119647619D01*
X101271428Y-119600000D01*
X101176190Y-119552380D01*
X100938095Y-119552380D01*
X100795238Y-119600000D01*
X100509523Y-119552380D02*
X99938095Y-119552380D01*
X100223809Y-120552380D02*
X100223809Y-119552380D01*
D12*
X110400000Y-52100000D02*
G75*
G03X110400000Y-52100000I-200000J0D01*
G01*
X122500000Y-65700000D02*
G75*
G03X122500000Y-65700000I-200000J0D01*
G01*
X113500000Y-57600000D02*
G75*
G03X113500000Y-57600000I-200000J0D01*
G01*
D13*
X110000000Y-84000000D02*
G75*
G03X110000000Y-84000000I0J0D01*
G01*
D10*
X124750000Y-65050000D02*
X118775000Y-65050000D01*
X123225000Y-71950000D02*
X118775000Y-71950000D01*
D11*
X129400000Y-55880000D02*
X130600000Y-55880000D01*
X130600000Y-54120000D02*
X129400000Y-54120000D01*
X124700000Y-86650000D02*
X125700000Y-86650000D01*
X125700000Y-88350000D02*
X124700000Y-88350000D01*
X107000000Y-74650000D02*
X108000000Y-74650000D01*
X108000000Y-76350000D02*
X107000000Y-76350000D01*
X114500000Y-76350000D02*
X113500000Y-76350000D01*
X113500000Y-74650000D02*
X114500000Y-74650000D01*
X126000000Y-96850000D02*
X125000000Y-96850000D01*
X125000000Y-95150000D02*
X126000000Y-95150000D01*
X125000000Y-92650000D02*
X126000000Y-92650000D01*
X126000000Y-94350000D02*
X125000000Y-94350000D01*
X109500000Y-97650000D02*
X110500000Y-97650000D01*
X110500000Y-99350000D02*
X109500000Y-99350000D01*
X106400000Y-86000000D02*
X106400000Y-85000000D01*
X108100000Y-85000000D02*
X108100000Y-86000000D01*
X102150000Y-83800000D02*
X102150000Y-84800000D01*
X100450000Y-84800000D02*
X100450000Y-83800000D01*
X112710000Y-115020000D02*
X112710000Y-117560000D01*
X109270000Y-117580000D02*
X109270000Y-115040000D01*
X112710000Y-115020000D02*
X112120000Y-115020000D01*
X112710000Y-117560000D02*
X112120000Y-118160000D01*
X109270000Y-115020000D02*
X109880000Y-115020000D01*
X109270000Y-117580000D02*
X109880000Y-118190000D01*
X121910000Y-124640000D02*
X117330000Y-124640000D01*
X122670000Y-123880000D02*
X121910000Y-124640000D01*
X121910000Y-119310000D02*
X122670000Y-120070000D01*
X117330000Y-119310000D02*
X121910000Y-119310000D01*
X122670000Y-120070000D02*
X122670000Y-120860000D01*
X122670000Y-123880000D02*
X122670000Y-123090000D01*
X117330000Y-124640000D02*
X117330000Y-123090000D01*
X117330000Y-119310000D02*
X117330000Y-120860000D01*
X111410000Y-141670000D02*
X106830000Y-141670000D01*
X112170000Y-140910000D02*
X111410000Y-141670000D01*
X111410000Y-136330000D02*
X112170000Y-137090000D01*
X106830000Y-136330000D02*
X111410000Y-136330000D01*
X112170000Y-137090000D02*
X112170000Y-137880000D01*
X112170000Y-140910000D02*
X112170000Y-140120000D01*
X106830000Y-136330000D02*
X106830000Y-137880000D01*
X106830000Y-141670000D02*
X106830000Y-140120000D01*
X104660000Y-147890000D02*
X100080000Y-147890000D01*
X105420000Y-147130000D02*
X104660000Y-147890000D01*
X104660000Y-142560000D02*
X105420000Y-143320000D01*
X100080000Y-142560000D02*
X104660000Y-142560000D01*
X105420000Y-143320000D02*
X105420000Y-144110000D01*
X105420000Y-147130000D02*
X105420000Y-146340000D01*
X100080000Y-147890000D02*
X100080000Y-146340000D01*
X100080000Y-142560000D02*
X100080000Y-144110000D01*
X128830000Y-142310000D02*
X128830000Y-143860000D01*
X128830000Y-147640000D02*
X128830000Y-146090000D01*
X134170000Y-146880000D02*
X134170000Y-146090000D01*
X134170000Y-143070000D02*
X134170000Y-143860000D01*
X128830000Y-142310000D02*
X133410000Y-142310000D01*
X133410000Y-142310000D02*
X134170000Y-143070000D01*
X134170000Y-146880000D02*
X133410000Y-147640000D01*
X133410000Y-147640000D02*
X128830000Y-147640000D01*
X112170000Y-120330000D02*
X112170000Y-121880000D01*
X112170000Y-125670000D02*
X112170000Y-124120000D01*
X106830000Y-121090000D02*
X106830000Y-121880000D01*
X106830000Y-124910000D02*
X106830000Y-124120000D01*
X112170000Y-125670000D02*
X107590000Y-125670000D01*
X107590000Y-125670000D02*
X106830000Y-124910000D01*
X106830000Y-121090000D02*
X107590000Y-120330000D01*
X107590000Y-120330000D02*
X112170000Y-120330000D01*
X121500000Y-80350000D02*
X120500000Y-80350000D01*
X120500000Y-78650000D02*
X121500000Y-78650000D01*
X119650000Y-56800000D02*
X120650000Y-56800000D01*
X120650000Y-58500000D02*
X119650000Y-58500000D01*
X108500000Y-146500000D02*
X112400000Y-146500000D01*
X108500000Y-144500000D02*
X112400000Y-144500000D01*
X108500000Y-146500000D02*
X108500000Y-144500000D01*
X126500000Y-136550000D02*
X128500000Y-136550000D01*
X128500000Y-136550000D02*
X128500000Y-140450000D01*
X126500000Y-136550000D02*
X126500000Y-140450000D01*
D10*
X99270000Y-102520000D02*
X96730000Y-102520000D01*
X96730000Y-102520000D02*
X96730000Y-92360000D01*
X96730000Y-92360000D02*
X99270000Y-92360000D01*
X99270000Y-92360000D02*
X99270000Y-102520000D01*
X124200000Y-127680000D02*
X115260000Y-127680000D01*
X115260000Y-127680000D02*
X115260000Y-147980000D01*
X115260000Y-147980000D02*
X124200000Y-147980000D01*
X124200000Y-147980000D02*
X124200000Y-127680000D01*
X124200000Y-135605000D02*
X122900000Y-135605000D01*
X122900000Y-135605000D02*
X122900000Y-128880000D01*
X122900000Y-128880000D02*
X116560000Y-128880000D01*
X116560000Y-128880000D02*
X116560000Y-146780000D01*
X116560000Y-146780000D02*
X122900000Y-146780000D01*
X122900000Y-146780000D02*
X122900000Y-140055000D01*
X122900000Y-140055000D02*
X124200000Y-140055000D01*
X115260000Y-137580000D02*
X115060000Y-137580000D01*
X115060000Y-137580000D02*
X115060000Y-138080000D01*
X115060000Y-138080000D02*
X115260000Y-138080000D01*
X115160000Y-137580000D02*
X115160000Y-138080000D01*
X115260000Y-145060000D02*
X115060000Y-145060000D01*
X115060000Y-145060000D02*
X115060000Y-145560000D01*
X115060000Y-145560000D02*
X115260000Y-145560000D01*
X115160000Y-145060000D02*
X115160000Y-145560000D01*
X115260000Y-130100000D02*
X115060000Y-130100000D01*
X115060000Y-130100000D02*
X115060000Y-130600000D01*
X115060000Y-130600000D02*
X115260000Y-130600000D01*
X115160000Y-130100000D02*
X115160000Y-130600000D01*
D14*
G36*
X114800000Y-131750000D02*
G01*
X114800000Y-133750000D01*
X124700000Y-133750000D01*
X124700000Y-131750000D01*
X114800000Y-131750000D01*
G37*
X114800000Y-131750000D02*
X114800000Y-133750000D01*
X124700000Y-133750000D01*
X124700000Y-131750000D01*
X114800000Y-131750000D01*
D11*
X120400000Y-82880000D02*
X121600000Y-82880000D01*
X121600000Y-81120000D02*
X120400000Y-81120000D01*
X129120000Y-120650000D02*
X129120000Y-121850000D01*
X130880000Y-121850000D02*
X130880000Y-120650000D01*
X118400000Y-47880000D02*
X119600000Y-47880000D01*
X119600000Y-46120000D02*
X118400000Y-46120000D01*
X125300000Y-100880000D02*
X126500000Y-100880000D01*
X126500000Y-99120000D02*
X125300000Y-99120000D01*
X104400000Y-47880000D02*
X105600000Y-47880000D01*
X105600000Y-46120000D02*
X104400000Y-46120000D01*
X104400000Y-51130000D02*
X105600000Y-51130000D01*
X105600000Y-49370000D02*
X104400000Y-49370000D01*
X118400000Y-51380000D02*
X119600000Y-51380000D01*
X119600000Y-49620000D02*
X118400000Y-49620000D01*
X118400000Y-44630000D02*
X119600000Y-44630000D01*
X119600000Y-42870000D02*
X118400000Y-42870000D01*
X105600000Y-42870000D02*
X104400000Y-42870000D01*
X104400000Y-44630000D02*
X105600000Y-44630000D01*
X105600000Y-52870000D02*
X104400000Y-52870000D01*
X104400000Y-54630000D02*
X105600000Y-54630000D01*
X118400000Y-54630000D02*
X119600000Y-54630000D01*
X119600000Y-52870000D02*
X118400000Y-52870000D01*
X129400000Y-50880000D02*
X130600000Y-50880000D01*
X130600000Y-49120000D02*
X129400000Y-49120000D01*
X130600000Y-61870000D02*
X129400000Y-61870000D01*
X129400000Y-63630000D02*
X130600000Y-63630000D01*
X130950000Y-91680000D02*
X132150000Y-91680000D01*
X132150000Y-89920000D02*
X130950000Y-89920000D01*
X100920000Y-57800000D02*
X100920000Y-59000000D01*
X102680000Y-59000000D02*
X102680000Y-57800000D01*
X100870000Y-63400000D02*
X100870000Y-64600000D01*
X102630000Y-64600000D02*
X102630000Y-63400000D01*
X99120000Y-72400000D02*
X99120000Y-73600000D01*
X100880000Y-73600000D02*
X100880000Y-72400000D01*
X98380000Y-73600000D02*
X98380000Y-72400000D01*
X96620000Y-72400000D02*
X96620000Y-73600000D01*
X101150000Y-106180000D02*
X102350000Y-106180000D01*
X102350000Y-104420000D02*
X101150000Y-104420000D01*
X129370000Y-94400000D02*
X129370000Y-95600000D01*
X131130000Y-95600000D02*
X131130000Y-94400000D01*
X127950000Y-82680000D02*
X129150000Y-82680000D01*
X129150000Y-80920000D02*
X127950000Y-80920000D01*
X117630000Y-104500000D02*
X117630000Y-103300000D01*
X115870000Y-103300000D02*
X115870000Y-104500000D01*
X120610000Y-94660000D02*
X120610000Y-95610000D01*
X120610000Y-95610000D02*
X119660000Y-95610000D01*
X120610000Y-86340000D02*
X120610000Y-85390000D01*
X120610000Y-85390000D02*
X119660000Y-85390000D01*
X110390000Y-94660000D02*
X110390000Y-95610000D01*
X110390000Y-95610000D02*
X111340000Y-95610000D01*
X110390000Y-86340000D02*
X110390000Y-85390000D01*
X110390000Y-85390000D02*
X111340000Y-85390000D01*
X111340000Y-85390000D02*
X111340000Y-84050000D01*
X133450000Y-102015000D02*
X133450000Y-114485000D01*
X123050000Y-102015000D02*
X133450000Y-102015000D01*
X123050000Y-114485000D02*
X123050000Y-102015000D01*
X133450000Y-114485000D02*
X123050000Y-114485000D01*
X133390000Y-105715000D02*
X133390000Y-107250000D01*
X123110000Y-105715000D02*
X133390000Y-105715000D01*
X123110000Y-110785000D02*
X123110000Y-105715000D01*
X133390000Y-110785000D02*
X123110000Y-110785000D01*
X133390000Y-109250000D02*
X133390000Y-110785000D01*
X133390000Y-107250000D02*
G75*
G03X133390000Y-109250000I0J-1000000D01*
G01*
D10*
X111238000Y-52695000D02*
X111238000Y-53330000D01*
X112508000Y-52695000D02*
X111238000Y-52695000D01*
X112508000Y-53330000D02*
X112508000Y-52695000D01*
X114286000Y-53330000D02*
X114286000Y-43170000D01*
X109460000Y-53330000D02*
X114286000Y-53330000D01*
X109460000Y-43170000D02*
X109460000Y-53330000D01*
X114286000Y-43170000D02*
X109460000Y-43170000D01*
D11*
X121410000Y-118100000D02*
X121410000Y-112090000D01*
X114590000Y-115850000D02*
X114590000Y-112090000D01*
X121410000Y-112090000D02*
X120150000Y-112090000D01*
X114590000Y-112090000D02*
X115850000Y-112090000D01*
X112910000Y-133410000D02*
X111650000Y-133410000D01*
X106090000Y-133410000D02*
X107350000Y-133410000D01*
X112910000Y-129650000D02*
X112910000Y-133410000D01*
X106090000Y-127400000D02*
X106090000Y-133410000D01*
D10*
X115775000Y-56950000D02*
X109800000Y-56950000D01*
X114200000Y-62475000D02*
X109800000Y-62475000D01*
D11*
X105100000Y-76950000D02*
X117700000Y-76950000D01*
X117700000Y-76950000D02*
X117700000Y-82050000D01*
X117700000Y-82050000D02*
X105100000Y-82050000D01*
X130500000Y-115250000D02*
X126600000Y-115250000D01*
X130500000Y-117250000D02*
X126600000Y-117250000D01*
X130500000Y-115250000D02*
X130500000Y-117250000D01*
D10*
X125995238Y-64504761D02*
X125852380Y-64552380D01*
X125614285Y-64552380D01*
X125519047Y-64504761D01*
X125471428Y-64457142D01*
X125423809Y-64361904D01*
X125423809Y-64266666D01*
X125471428Y-64171428D01*
X125519047Y-64123809D01*
X125614285Y-64076190D01*
X125804761Y-64028571D01*
X125900000Y-63980952D01*
X125947619Y-63933333D01*
X125995238Y-63838095D01*
X125995238Y-63742857D01*
X125947619Y-63647619D01*
X125900000Y-63600000D01*
X125804761Y-63552380D01*
X125566666Y-63552380D01*
X125423809Y-63600000D01*
X124995238Y-64552380D02*
X124995238Y-63552380D01*
X124423809Y-64552380D01*
X124423809Y-63552380D01*
X124042857Y-63552380D02*
X123376190Y-63552380D01*
X123804761Y-64552380D01*
X122566666Y-63885714D02*
X122566666Y-64552380D01*
X122804761Y-63504761D02*
X123042857Y-64219047D01*
X122423809Y-64219047D01*
X122042857Y-64552380D02*
X122042857Y-63552380D01*
X122042857Y-64028571D02*
X121471428Y-64028571D01*
X121471428Y-64552380D02*
X121471428Y-63552380D01*
X120423809Y-64457142D02*
X120471428Y-64504761D01*
X120614285Y-64552380D01*
X120709523Y-64552380D01*
X120852380Y-64504761D01*
X120947619Y-64409523D01*
X120995238Y-64314285D01*
X121042857Y-64123809D01*
X121042857Y-63980952D01*
X120995238Y-63790476D01*
X120947619Y-63695238D01*
X120852380Y-63600000D01*
X120709523Y-63552380D01*
X120614285Y-63552380D01*
X120471428Y-63600000D01*
X120423809Y-63647619D01*
X120138095Y-63552380D02*
X119566666Y-63552380D01*
X119852380Y-64552380D02*
X119852380Y-63552380D01*
X119280952Y-63647619D02*
X119233333Y-63600000D01*
X119138095Y-63552380D01*
X118900000Y-63552380D01*
X118804761Y-63600000D01*
X118757142Y-63647619D01*
X118709523Y-63742857D01*
X118709523Y-63838095D01*
X118757142Y-63980952D01*
X119328571Y-64552380D01*
X118709523Y-64552380D01*
X117852380Y-63885714D02*
X117852380Y-64552380D01*
X118090476Y-63504761D02*
X118328571Y-64219047D01*
X117709523Y-64219047D01*
X116900000Y-63885714D02*
X116900000Y-64552380D01*
X117138095Y-63504761D02*
X117376190Y-64219047D01*
X116757142Y-64219047D01*
X130642857Y-53752380D02*
X130976190Y-53276190D01*
X131214285Y-53752380D02*
X131214285Y-52752380D01*
X130833333Y-52752380D01*
X130738095Y-52800000D01*
X130690476Y-52847619D01*
X130642857Y-52942857D01*
X130642857Y-53085714D01*
X130690476Y-53180952D01*
X130738095Y-53228571D01*
X130833333Y-53276190D01*
X131214285Y-53276190D01*
X129690476Y-53752380D02*
X130261904Y-53752380D01*
X129976190Y-53752380D02*
X129976190Y-52752380D01*
X130071428Y-52895238D01*
X130166666Y-52990476D01*
X130261904Y-53038095D01*
X129309523Y-52847619D02*
X129261904Y-52800000D01*
X129166666Y-52752380D01*
X128928571Y-52752380D01*
X128833333Y-52800000D01*
X128785714Y-52847619D01*
X128738095Y-52942857D01*
X128738095Y-53038095D01*
X128785714Y-53180952D01*
X129357142Y-53752380D01*
X128738095Y-53752380D01*
X130666666Y-57202380D02*
X131238095Y-57202380D01*
X130952380Y-57202380D02*
X130952380Y-56202380D01*
X131047619Y-56345238D01*
X131142857Y-56440476D01*
X131238095Y-56488095D01*
X130047619Y-56202380D02*
X129952380Y-56202380D01*
X129857142Y-56250000D01*
X129809523Y-56297619D01*
X129761904Y-56392857D01*
X129714285Y-56583333D01*
X129714285Y-56821428D01*
X129761904Y-57011904D01*
X129809523Y-57107142D01*
X129857142Y-57154761D01*
X129952380Y-57202380D01*
X130047619Y-57202380D01*
X130142857Y-57154761D01*
X130190476Y-57107142D01*
X130238095Y-57011904D01*
X130285714Y-56821428D01*
X130285714Y-56583333D01*
X130238095Y-56392857D01*
X130190476Y-56297619D01*
X130142857Y-56250000D01*
X130047619Y-56202380D01*
X129095238Y-56202380D02*
X129000000Y-56202380D01*
X128904761Y-56250000D01*
X128857142Y-56297619D01*
X128809523Y-56392857D01*
X128761904Y-56583333D01*
X128761904Y-56821428D01*
X128809523Y-57011904D01*
X128857142Y-57107142D01*
X128904761Y-57154761D01*
X129000000Y-57202380D01*
X129095238Y-57202380D01*
X129190476Y-57154761D01*
X129238095Y-57107142D01*
X129285714Y-57011904D01*
X129333333Y-56821428D01*
X129333333Y-56583333D01*
X129285714Y-56392857D01*
X129238095Y-56297619D01*
X129190476Y-56250000D01*
X129095238Y-56202380D01*
X125366666Y-89607142D02*
X125414285Y-89654761D01*
X125557142Y-89702380D01*
X125652380Y-89702380D01*
X125795238Y-89654761D01*
X125890476Y-89559523D01*
X125938095Y-89464285D01*
X125985714Y-89273809D01*
X125985714Y-89130952D01*
X125938095Y-88940476D01*
X125890476Y-88845238D01*
X125795238Y-88750000D01*
X125652380Y-88702380D01*
X125557142Y-88702380D01*
X125414285Y-88750000D01*
X125366666Y-88797619D01*
X124414285Y-89702380D02*
X124985714Y-89702380D01*
X124700000Y-89702380D02*
X124700000Y-88702380D01*
X124795238Y-88845238D01*
X124890476Y-88940476D01*
X124985714Y-88988095D01*
X126747619Y-86202380D02*
X127319047Y-86202380D01*
X127033333Y-86202380D02*
X127033333Y-85202380D01*
X127128571Y-85345238D01*
X127223809Y-85440476D01*
X127319047Y-85488095D01*
X126128571Y-85202380D02*
X126033333Y-85202380D01*
X125938095Y-85250000D01*
X125890476Y-85297619D01*
X125842857Y-85392857D01*
X125795238Y-85583333D01*
X125795238Y-85821428D01*
X125842857Y-86011904D01*
X125890476Y-86107142D01*
X125938095Y-86154761D01*
X126033333Y-86202380D01*
X126128571Y-86202380D01*
X126223809Y-86154761D01*
X126271428Y-86107142D01*
X126319047Y-86011904D01*
X126366666Y-85821428D01*
X126366666Y-85583333D01*
X126319047Y-85392857D01*
X126271428Y-85297619D01*
X126223809Y-85250000D01*
X126128571Y-85202380D01*
X125176190Y-85202380D02*
X125080952Y-85202380D01*
X124985714Y-85250000D01*
X124938095Y-85297619D01*
X124890476Y-85392857D01*
X124842857Y-85583333D01*
X124842857Y-85821428D01*
X124890476Y-86011904D01*
X124938095Y-86107142D01*
X124985714Y-86154761D01*
X125080952Y-86202380D01*
X125176190Y-86202380D01*
X125271428Y-86154761D01*
X125319047Y-86107142D01*
X125366666Y-86011904D01*
X125414285Y-85821428D01*
X125414285Y-85583333D01*
X125366666Y-85392857D01*
X125319047Y-85297619D01*
X125271428Y-85250000D01*
X125176190Y-85202380D01*
X124414285Y-85535714D02*
X124414285Y-86202380D01*
X124414285Y-85630952D02*
X124366666Y-85583333D01*
X124271428Y-85535714D01*
X124128571Y-85535714D01*
X124033333Y-85583333D01*
X123985714Y-85678571D01*
X123985714Y-86202380D01*
X123176190Y-85678571D02*
X123509523Y-85678571D01*
X123509523Y-86202380D02*
X123509523Y-85202380D01*
X123033333Y-85202380D01*
X104166666Y-75857142D02*
X104214285Y-75904761D01*
X104357142Y-75952380D01*
X104452380Y-75952380D01*
X104595238Y-75904761D01*
X104690476Y-75809523D01*
X104738095Y-75714285D01*
X104785714Y-75523809D01*
X104785714Y-75380952D01*
X104738095Y-75190476D01*
X104690476Y-75095238D01*
X104595238Y-75000000D01*
X104452380Y-74952380D01*
X104357142Y-74952380D01*
X104214285Y-75000000D01*
X104166666Y-75047619D01*
X103785714Y-75047619D02*
X103738095Y-75000000D01*
X103642857Y-74952380D01*
X103404761Y-74952380D01*
X103309523Y-75000000D01*
X103261904Y-75047619D01*
X103214285Y-75142857D01*
X103214285Y-75238095D01*
X103261904Y-75380952D01*
X103833333Y-75952380D01*
X103214285Y-75952380D01*
X108571428Y-74202380D02*
X109142857Y-74202380D01*
X108857142Y-74202380D02*
X108857142Y-73202380D01*
X108952380Y-73345238D01*
X109047619Y-73440476D01*
X109142857Y-73488095D01*
X108000000Y-73630952D02*
X108095238Y-73583333D01*
X108142857Y-73535714D01*
X108190476Y-73440476D01*
X108190476Y-73392857D01*
X108142857Y-73297619D01*
X108095238Y-73250000D01*
X108000000Y-73202380D01*
X107809523Y-73202380D01*
X107714285Y-73250000D01*
X107666666Y-73297619D01*
X107619047Y-73392857D01*
X107619047Y-73440476D01*
X107666666Y-73535714D01*
X107714285Y-73583333D01*
X107809523Y-73630952D01*
X108000000Y-73630952D01*
X108095238Y-73678571D01*
X108142857Y-73726190D01*
X108190476Y-73821428D01*
X108190476Y-74011904D01*
X108142857Y-74107142D01*
X108095238Y-74154761D01*
X108000000Y-74202380D01*
X107809523Y-74202380D01*
X107714285Y-74154761D01*
X107666666Y-74107142D01*
X107619047Y-74011904D01*
X107619047Y-73821428D01*
X107666666Y-73726190D01*
X107714285Y-73678571D01*
X107809523Y-73630952D01*
X107190476Y-73535714D02*
X107190476Y-74535714D01*
X107190476Y-73583333D02*
X107095238Y-73535714D01*
X106904761Y-73535714D01*
X106809523Y-73583333D01*
X106761904Y-73630952D01*
X106714285Y-73726190D01*
X106714285Y-74011904D01*
X106761904Y-74107142D01*
X106809523Y-74154761D01*
X106904761Y-74202380D01*
X107095238Y-74202380D01*
X107190476Y-74154761D01*
X105952380Y-73678571D02*
X106285714Y-73678571D01*
X106285714Y-74202380D02*
X106285714Y-73202380D01*
X105809523Y-73202380D01*
X117566666Y-75757142D02*
X117614285Y-75804761D01*
X117757142Y-75852380D01*
X117852380Y-75852380D01*
X117995238Y-75804761D01*
X118090476Y-75709523D01*
X118138095Y-75614285D01*
X118185714Y-75423809D01*
X118185714Y-75280952D01*
X118138095Y-75090476D01*
X118090476Y-74995238D01*
X117995238Y-74900000D01*
X117852380Y-74852380D01*
X117757142Y-74852380D01*
X117614285Y-74900000D01*
X117566666Y-74947619D01*
X117233333Y-74852380D02*
X116614285Y-74852380D01*
X116947619Y-75233333D01*
X116804761Y-75233333D01*
X116709523Y-75280952D01*
X116661904Y-75328571D01*
X116614285Y-75423809D01*
X116614285Y-75661904D01*
X116661904Y-75757142D01*
X116709523Y-75804761D01*
X116804761Y-75852380D01*
X117090476Y-75852380D01*
X117185714Y-75804761D01*
X117233333Y-75757142D01*
X114871428Y-74252380D02*
X115442857Y-74252380D01*
X115157142Y-74252380D02*
X115157142Y-73252380D01*
X115252380Y-73395238D01*
X115347619Y-73490476D01*
X115442857Y-73538095D01*
X114300000Y-73680952D02*
X114395238Y-73633333D01*
X114442857Y-73585714D01*
X114490476Y-73490476D01*
X114490476Y-73442857D01*
X114442857Y-73347619D01*
X114395238Y-73300000D01*
X114300000Y-73252380D01*
X114109523Y-73252380D01*
X114014285Y-73300000D01*
X113966666Y-73347619D01*
X113919047Y-73442857D01*
X113919047Y-73490476D01*
X113966666Y-73585714D01*
X114014285Y-73633333D01*
X114109523Y-73680952D01*
X114300000Y-73680952D01*
X114395238Y-73728571D01*
X114442857Y-73776190D01*
X114490476Y-73871428D01*
X114490476Y-74061904D01*
X114442857Y-74157142D01*
X114395238Y-74204761D01*
X114300000Y-74252380D01*
X114109523Y-74252380D01*
X114014285Y-74204761D01*
X113966666Y-74157142D01*
X113919047Y-74061904D01*
X113919047Y-73871428D01*
X113966666Y-73776190D01*
X114014285Y-73728571D01*
X114109523Y-73680952D01*
X113490476Y-73585714D02*
X113490476Y-74585714D01*
X113490476Y-73633333D02*
X113395238Y-73585714D01*
X113204761Y-73585714D01*
X113109523Y-73633333D01*
X113061904Y-73680952D01*
X113014285Y-73776190D01*
X113014285Y-74061904D01*
X113061904Y-74157142D01*
X113109523Y-74204761D01*
X113204761Y-74252380D01*
X113395238Y-74252380D01*
X113490476Y-74204761D01*
X112252380Y-73728571D02*
X112585714Y-73728571D01*
X112585714Y-74252380D02*
X112585714Y-73252380D01*
X112109523Y-73252380D01*
X128857142Y-95833333D02*
X128904761Y-95785714D01*
X128952380Y-95642857D01*
X128952380Y-95547619D01*
X128904761Y-95404761D01*
X128809523Y-95309523D01*
X128714285Y-95261904D01*
X128523809Y-95214285D01*
X128380952Y-95214285D01*
X128190476Y-95261904D01*
X128095238Y-95309523D01*
X128000000Y-95404761D01*
X127952380Y-95547619D01*
X127952380Y-95642857D01*
X128000000Y-95785714D01*
X128047619Y-95833333D01*
X128285714Y-96690476D02*
X128952380Y-96690476D01*
X127904761Y-96452380D02*
X128619047Y-96214285D01*
X128619047Y-96833333D01*
X126947619Y-98152380D02*
X127519047Y-98152380D01*
X127233333Y-98152380D02*
X127233333Y-97152380D01*
X127328571Y-97295238D01*
X127423809Y-97390476D01*
X127519047Y-97438095D01*
X126328571Y-97152380D02*
X126233333Y-97152380D01*
X126138095Y-97200000D01*
X126090476Y-97247619D01*
X126042857Y-97342857D01*
X125995238Y-97533333D01*
X125995238Y-97771428D01*
X126042857Y-97961904D01*
X126090476Y-98057142D01*
X126138095Y-98104761D01*
X126233333Y-98152380D01*
X126328571Y-98152380D01*
X126423809Y-98104761D01*
X126471428Y-98057142D01*
X126519047Y-97961904D01*
X126566666Y-97771428D01*
X126566666Y-97533333D01*
X126519047Y-97342857D01*
X126471428Y-97247619D01*
X126423809Y-97200000D01*
X126328571Y-97152380D01*
X125376190Y-97152380D02*
X125280952Y-97152380D01*
X125185714Y-97200000D01*
X125138095Y-97247619D01*
X125090476Y-97342857D01*
X125042857Y-97533333D01*
X125042857Y-97771428D01*
X125090476Y-97961904D01*
X125138095Y-98057142D01*
X125185714Y-98104761D01*
X125280952Y-98152380D01*
X125376190Y-98152380D01*
X125471428Y-98104761D01*
X125519047Y-98057142D01*
X125566666Y-97961904D01*
X125614285Y-97771428D01*
X125614285Y-97533333D01*
X125566666Y-97342857D01*
X125519047Y-97247619D01*
X125471428Y-97200000D01*
X125376190Y-97152380D01*
X124614285Y-97485714D02*
X124614285Y-98152380D01*
X124614285Y-97580952D02*
X124566666Y-97533333D01*
X124471428Y-97485714D01*
X124328571Y-97485714D01*
X124233333Y-97533333D01*
X124185714Y-97628571D01*
X124185714Y-98152380D01*
X123376190Y-97628571D02*
X123709523Y-97628571D01*
X123709523Y-98152380D02*
X123709523Y-97152380D01*
X123233333Y-97152380D01*
X128857142Y-93333333D02*
X128904761Y-93285714D01*
X128952380Y-93142857D01*
X128952380Y-93047619D01*
X128904761Y-92904761D01*
X128809523Y-92809523D01*
X128714285Y-92761904D01*
X128523809Y-92714285D01*
X128380952Y-92714285D01*
X128190476Y-92761904D01*
X128095238Y-92809523D01*
X128000000Y-92904761D01*
X127952380Y-93047619D01*
X127952380Y-93142857D01*
X128000000Y-93285714D01*
X128047619Y-93333333D01*
X127952380Y-94238095D02*
X127952380Y-93761904D01*
X128428571Y-93714285D01*
X128380952Y-93761904D01*
X128333333Y-93857142D01*
X128333333Y-94095238D01*
X128380952Y-94190476D01*
X128428571Y-94238095D01*
X128523809Y-94285714D01*
X128761904Y-94285714D01*
X128857142Y-94238095D01*
X128904761Y-94190476D01*
X128952380Y-94095238D01*
X128952380Y-93857142D01*
X128904761Y-93761904D01*
X128857142Y-93714285D01*
X127380952Y-91297619D02*
X127333333Y-91250000D01*
X127238095Y-91202380D01*
X127000000Y-91202380D01*
X126904761Y-91250000D01*
X126857142Y-91297619D01*
X126809523Y-91392857D01*
X126809523Y-91488095D01*
X126857142Y-91630952D01*
X127428571Y-92202380D01*
X126809523Y-92202380D01*
X126380952Y-92107142D02*
X126333333Y-92154761D01*
X126380952Y-92202380D01*
X126428571Y-92154761D01*
X126380952Y-92107142D01*
X126380952Y-92202380D01*
X125952380Y-91297619D02*
X125904761Y-91250000D01*
X125809523Y-91202380D01*
X125571428Y-91202380D01*
X125476190Y-91250000D01*
X125428571Y-91297619D01*
X125380952Y-91392857D01*
X125380952Y-91488095D01*
X125428571Y-91630952D01*
X126000000Y-92202380D01*
X125380952Y-92202380D01*
X124523809Y-91535714D02*
X124523809Y-92202380D01*
X124952380Y-91535714D02*
X124952380Y-92059523D01*
X124904761Y-92154761D01*
X124809523Y-92202380D01*
X124666666Y-92202380D01*
X124571428Y-92154761D01*
X124523809Y-92107142D01*
X123714285Y-91678571D02*
X124047619Y-91678571D01*
X124047619Y-92202380D02*
X124047619Y-91202380D01*
X123571428Y-91202380D01*
X106666666Y-98857142D02*
X106714285Y-98904761D01*
X106857142Y-98952380D01*
X106952380Y-98952380D01*
X107095238Y-98904761D01*
X107190476Y-98809523D01*
X107238095Y-98714285D01*
X107285714Y-98523809D01*
X107285714Y-98380952D01*
X107238095Y-98190476D01*
X107190476Y-98095238D01*
X107095238Y-98000000D01*
X106952380Y-97952380D01*
X106857142Y-97952380D01*
X106714285Y-98000000D01*
X106666666Y-98047619D01*
X105809523Y-97952380D02*
X106000000Y-97952380D01*
X106095238Y-98000000D01*
X106142857Y-98047619D01*
X106238095Y-98190476D01*
X106285714Y-98380952D01*
X106285714Y-98761904D01*
X106238095Y-98857142D01*
X106190476Y-98904761D01*
X106095238Y-98952380D01*
X105904761Y-98952380D01*
X105809523Y-98904761D01*
X105761904Y-98857142D01*
X105714285Y-98761904D01*
X105714285Y-98523809D01*
X105761904Y-98428571D01*
X105809523Y-98380952D01*
X105904761Y-98333333D01*
X106095238Y-98333333D01*
X106190476Y-98380952D01*
X106238095Y-98428571D01*
X106285714Y-98523809D01*
X111547619Y-100702380D02*
X112119047Y-100702380D01*
X111833333Y-100702380D02*
X111833333Y-99702380D01*
X111928571Y-99845238D01*
X112023809Y-99940476D01*
X112119047Y-99988095D01*
X110928571Y-99702380D02*
X110833333Y-99702380D01*
X110738095Y-99750000D01*
X110690476Y-99797619D01*
X110642857Y-99892857D01*
X110595238Y-100083333D01*
X110595238Y-100321428D01*
X110642857Y-100511904D01*
X110690476Y-100607142D01*
X110738095Y-100654761D01*
X110833333Y-100702380D01*
X110928571Y-100702380D01*
X111023809Y-100654761D01*
X111071428Y-100607142D01*
X111119047Y-100511904D01*
X111166666Y-100321428D01*
X111166666Y-100083333D01*
X111119047Y-99892857D01*
X111071428Y-99797619D01*
X111023809Y-99750000D01*
X110928571Y-99702380D01*
X109976190Y-99702380D02*
X109880952Y-99702380D01*
X109785714Y-99750000D01*
X109738095Y-99797619D01*
X109690476Y-99892857D01*
X109642857Y-100083333D01*
X109642857Y-100321428D01*
X109690476Y-100511904D01*
X109738095Y-100607142D01*
X109785714Y-100654761D01*
X109880952Y-100702380D01*
X109976190Y-100702380D01*
X110071428Y-100654761D01*
X110119047Y-100607142D01*
X110166666Y-100511904D01*
X110214285Y-100321428D01*
X110214285Y-100083333D01*
X110166666Y-99892857D01*
X110119047Y-99797619D01*
X110071428Y-99750000D01*
X109976190Y-99702380D01*
X109214285Y-100035714D02*
X109214285Y-100702380D01*
X109214285Y-100130952D02*
X109166666Y-100083333D01*
X109071428Y-100035714D01*
X108928571Y-100035714D01*
X108833333Y-100083333D01*
X108785714Y-100178571D01*
X108785714Y-100702380D01*
X107976190Y-100178571D02*
X108309523Y-100178571D01*
X108309523Y-100702380D02*
X108309523Y-99702380D01*
X107833333Y-99702380D01*
X107557142Y-88933333D02*
X107604761Y-88885714D01*
X107652380Y-88742857D01*
X107652380Y-88647619D01*
X107604761Y-88504761D01*
X107509523Y-88409523D01*
X107414285Y-88361904D01*
X107223809Y-88314285D01*
X107080952Y-88314285D01*
X106890476Y-88361904D01*
X106795238Y-88409523D01*
X106700000Y-88504761D01*
X106652380Y-88647619D01*
X106652380Y-88742857D01*
X106700000Y-88885714D01*
X106747619Y-88933333D01*
X106652380Y-89266666D02*
X106652380Y-89933333D01*
X107652380Y-89504761D01*
X105952380Y-83952380D02*
X105952380Y-83380952D01*
X105952380Y-83666666D02*
X104952380Y-83666666D01*
X105095238Y-83571428D01*
X105190476Y-83476190D01*
X105238095Y-83380952D01*
X104952380Y-84571428D02*
X104952380Y-84666666D01*
X105000000Y-84761904D01*
X105047619Y-84809523D01*
X105142857Y-84857142D01*
X105333333Y-84904761D01*
X105571428Y-84904761D01*
X105761904Y-84857142D01*
X105857142Y-84809523D01*
X105904761Y-84761904D01*
X105952380Y-84666666D01*
X105952380Y-84571428D01*
X105904761Y-84476190D01*
X105857142Y-84428571D01*
X105761904Y-84380952D01*
X105571428Y-84333333D01*
X105333333Y-84333333D01*
X105142857Y-84380952D01*
X105047619Y-84428571D01*
X105000000Y-84476190D01*
X104952380Y-84571428D01*
X104952380Y-85523809D02*
X104952380Y-85619047D01*
X105000000Y-85714285D01*
X105047619Y-85761904D01*
X105142857Y-85809523D01*
X105333333Y-85857142D01*
X105571428Y-85857142D01*
X105761904Y-85809523D01*
X105857142Y-85761904D01*
X105904761Y-85714285D01*
X105952380Y-85619047D01*
X105952380Y-85523809D01*
X105904761Y-85428571D01*
X105857142Y-85380952D01*
X105761904Y-85333333D01*
X105571428Y-85285714D01*
X105333333Y-85285714D01*
X105142857Y-85333333D01*
X105047619Y-85380952D01*
X105000000Y-85428571D01*
X104952380Y-85523809D01*
X105285714Y-86285714D02*
X105952380Y-86285714D01*
X105380952Y-86285714D02*
X105333333Y-86333333D01*
X105285714Y-86428571D01*
X105285714Y-86571428D01*
X105333333Y-86666666D01*
X105428571Y-86714285D01*
X105952380Y-86714285D01*
X105428571Y-87523809D02*
X105428571Y-87190476D01*
X105952380Y-87190476D02*
X104952380Y-87190476D01*
X104952380Y-87666666D01*
X103407142Y-84133333D02*
X103454761Y-84085714D01*
X103502380Y-83942857D01*
X103502380Y-83847619D01*
X103454761Y-83704761D01*
X103359523Y-83609523D01*
X103264285Y-83561904D01*
X103073809Y-83514285D01*
X102930952Y-83514285D01*
X102740476Y-83561904D01*
X102645238Y-83609523D01*
X102550000Y-83704761D01*
X102502380Y-83847619D01*
X102502380Y-83942857D01*
X102550000Y-84085714D01*
X102597619Y-84133333D01*
X102930952Y-84704761D02*
X102883333Y-84609523D01*
X102835714Y-84561904D01*
X102740476Y-84514285D01*
X102692857Y-84514285D01*
X102597619Y-84561904D01*
X102550000Y-84609523D01*
X102502380Y-84704761D01*
X102502380Y-84895238D01*
X102550000Y-84990476D01*
X102597619Y-85038095D01*
X102692857Y-85085714D01*
X102740476Y-85085714D01*
X102835714Y-85038095D01*
X102883333Y-84990476D01*
X102930952Y-84895238D01*
X102930952Y-84704761D01*
X102978571Y-84609523D01*
X103026190Y-84561904D01*
X103121428Y-84514285D01*
X103311904Y-84514285D01*
X103407142Y-84561904D01*
X103454761Y-84609523D01*
X103502380Y-84704761D01*
X103502380Y-84895238D01*
X103454761Y-84990476D01*
X103407142Y-85038095D01*
X103311904Y-85085714D01*
X103121428Y-85085714D01*
X103026190Y-85038095D01*
X102978571Y-84990476D01*
X102930952Y-84895238D01*
X100002380Y-82752380D02*
X100002380Y-82180952D01*
X100002380Y-82466666D02*
X99002380Y-82466666D01*
X99145238Y-82371428D01*
X99240476Y-82276190D01*
X99288095Y-82180952D01*
X99002380Y-83371428D02*
X99002380Y-83466666D01*
X99050000Y-83561904D01*
X99097619Y-83609523D01*
X99192857Y-83657142D01*
X99383333Y-83704761D01*
X99621428Y-83704761D01*
X99811904Y-83657142D01*
X99907142Y-83609523D01*
X99954761Y-83561904D01*
X100002380Y-83466666D01*
X100002380Y-83371428D01*
X99954761Y-83276190D01*
X99907142Y-83228571D01*
X99811904Y-83180952D01*
X99621428Y-83133333D01*
X99383333Y-83133333D01*
X99192857Y-83180952D01*
X99097619Y-83228571D01*
X99050000Y-83276190D01*
X99002380Y-83371428D01*
X99002380Y-84323809D02*
X99002380Y-84419047D01*
X99050000Y-84514285D01*
X99097619Y-84561904D01*
X99192857Y-84609523D01*
X99383333Y-84657142D01*
X99621428Y-84657142D01*
X99811904Y-84609523D01*
X99907142Y-84561904D01*
X99954761Y-84514285D01*
X100002380Y-84419047D01*
X100002380Y-84323809D01*
X99954761Y-84228571D01*
X99907142Y-84180952D01*
X99811904Y-84133333D01*
X99621428Y-84085714D01*
X99383333Y-84085714D01*
X99192857Y-84133333D01*
X99097619Y-84180952D01*
X99050000Y-84228571D01*
X99002380Y-84323809D01*
X99335714Y-85085714D02*
X100002380Y-85085714D01*
X99430952Y-85085714D02*
X99383333Y-85133333D01*
X99335714Y-85228571D01*
X99335714Y-85371428D01*
X99383333Y-85466666D01*
X99478571Y-85514285D01*
X100002380Y-85514285D01*
X99478571Y-86323809D02*
X99478571Y-85990476D01*
X100002380Y-85990476D02*
X99002380Y-85990476D01*
X99002380Y-86466666D01*
X111166666Y-113457142D02*
X111214285Y-113504761D01*
X111357142Y-113552380D01*
X111452380Y-113552380D01*
X111595238Y-113504761D01*
X111690476Y-113409523D01*
X111738095Y-113314285D01*
X111785714Y-113123809D01*
X111785714Y-112980952D01*
X111738095Y-112790476D01*
X111690476Y-112695238D01*
X111595238Y-112600000D01*
X111452380Y-112552380D01*
X111357142Y-112552380D01*
X111214285Y-112600000D01*
X111166666Y-112647619D01*
X110690476Y-113552380D02*
X110500000Y-113552380D01*
X110404761Y-113504761D01*
X110357142Y-113457142D01*
X110261904Y-113314285D01*
X110214285Y-113123809D01*
X110214285Y-112742857D01*
X110261904Y-112647619D01*
X110309523Y-112600000D01*
X110404761Y-112552380D01*
X110595238Y-112552380D01*
X110690476Y-112600000D01*
X110738095Y-112647619D01*
X110785714Y-112742857D01*
X110785714Y-112980952D01*
X110738095Y-113076190D01*
X110690476Y-113123809D01*
X110595238Y-113171428D01*
X110404761Y-113171428D01*
X110309523Y-113123809D01*
X110261904Y-113076190D01*
X110214285Y-112980952D01*
X108752380Y-115928571D02*
X108752380Y-115357142D01*
X108752380Y-115642857D02*
X107752380Y-115642857D01*
X107895238Y-115547619D01*
X107990476Y-115452380D01*
X108038095Y-115357142D01*
X107752380Y-116547619D02*
X107752380Y-116642857D01*
X107800000Y-116738095D01*
X107847619Y-116785714D01*
X107942857Y-116833333D01*
X108133333Y-116880952D01*
X108371428Y-116880952D01*
X108561904Y-116833333D01*
X108657142Y-116785714D01*
X108704761Y-116738095D01*
X108752380Y-116642857D01*
X108752380Y-116547619D01*
X108704761Y-116452380D01*
X108657142Y-116404761D01*
X108561904Y-116357142D01*
X108371428Y-116309523D01*
X108133333Y-116309523D01*
X107942857Y-116357142D01*
X107847619Y-116404761D01*
X107800000Y-116452380D01*
X107752380Y-116547619D01*
X108085714Y-117738095D02*
X108752380Y-117738095D01*
X108085714Y-117309523D02*
X108609523Y-117309523D01*
X108704761Y-117357142D01*
X108752380Y-117452380D01*
X108752380Y-117595238D01*
X108704761Y-117690476D01*
X108657142Y-117738095D01*
X108228571Y-118547619D02*
X108228571Y-118214285D01*
X108752380Y-118214285D02*
X107752380Y-118214285D01*
X107752380Y-118690476D01*
X109671428Y-118589047D02*
X109671428Y-119350952D01*
X110052380Y-118970000D02*
X109290476Y-118970000D01*
X120642857Y-126277142D02*
X120690476Y-126324761D01*
X120833333Y-126372380D01*
X120928571Y-126372380D01*
X121071428Y-126324761D01*
X121166666Y-126229523D01*
X121214285Y-126134285D01*
X121261904Y-125943809D01*
X121261904Y-125800952D01*
X121214285Y-125610476D01*
X121166666Y-125515238D01*
X121071428Y-125420000D01*
X120928571Y-125372380D01*
X120833333Y-125372380D01*
X120690476Y-125420000D01*
X120642857Y-125467619D01*
X119690476Y-126372380D02*
X120261904Y-126372380D01*
X119976190Y-126372380D02*
X119976190Y-125372380D01*
X120071428Y-125515238D01*
X120166666Y-125610476D01*
X120261904Y-125658095D01*
X119071428Y-125372380D02*
X118976190Y-125372380D01*
X118880952Y-125420000D01*
X118833333Y-125467619D01*
X118785714Y-125562857D01*
X118738095Y-125753333D01*
X118738095Y-125991428D01*
X118785714Y-126181904D01*
X118833333Y-126277142D01*
X118880952Y-126324761D01*
X118976190Y-126372380D01*
X119071428Y-126372380D01*
X119166666Y-126324761D01*
X119214285Y-126277142D01*
X119261904Y-126181904D01*
X119309523Y-125991428D01*
X119309523Y-125753333D01*
X119261904Y-125562857D01*
X119214285Y-125467619D01*
X119166666Y-125420000D01*
X119071428Y-125372380D01*
X123760952Y-124411428D02*
X122999047Y-124411428D01*
X123380000Y-124792380D02*
X123380000Y-124030476D01*
X105157142Y-138157142D02*
X105204761Y-138109523D01*
X105252380Y-137966666D01*
X105252380Y-137871428D01*
X105204761Y-137728571D01*
X105109523Y-137633333D01*
X105014285Y-137585714D01*
X104823809Y-137538095D01*
X104680952Y-137538095D01*
X104490476Y-137585714D01*
X104395238Y-137633333D01*
X104300000Y-137728571D01*
X104252380Y-137871428D01*
X104252380Y-137966666D01*
X104300000Y-138109523D01*
X104347619Y-138157142D01*
X105252380Y-139109523D02*
X105252380Y-138538095D01*
X105252380Y-138823809D02*
X104252380Y-138823809D01*
X104395238Y-138728571D01*
X104490476Y-138633333D01*
X104538095Y-138538095D01*
X105252380Y-140061904D02*
X105252380Y-139490476D01*
X105252380Y-139776190D02*
X104252380Y-139776190D01*
X104395238Y-139680952D01*
X104490476Y-139585714D01*
X104538095Y-139490476D01*
X110766666Y-142385714D02*
X110766666Y-143052380D01*
X111004761Y-142004761D02*
X111242857Y-142719047D01*
X110623809Y-142719047D01*
X110338095Y-142052380D02*
X109671428Y-142052380D01*
X110100000Y-143052380D01*
X108861904Y-142385714D02*
X108861904Y-143052380D01*
X109290476Y-142385714D02*
X109290476Y-142909523D01*
X109242857Y-143004761D01*
X109147619Y-143052380D01*
X109004761Y-143052380D01*
X108909523Y-143004761D01*
X108861904Y-142957142D01*
X108052380Y-142528571D02*
X108385714Y-142528571D01*
X108385714Y-143052380D02*
X108385714Y-142052380D01*
X107909523Y-142052380D01*
X113260952Y-141421428D02*
X112499047Y-141421428D01*
X112880000Y-141802380D02*
X112880000Y-141040476D01*
X106142857Y-149257142D02*
X106190476Y-149304761D01*
X106333333Y-149352380D01*
X106428571Y-149352380D01*
X106571428Y-149304761D01*
X106666666Y-149209523D01*
X106714285Y-149114285D01*
X106761904Y-148923809D01*
X106761904Y-148780952D01*
X106714285Y-148590476D01*
X106666666Y-148495238D01*
X106571428Y-148400000D01*
X106428571Y-148352380D01*
X106333333Y-148352380D01*
X106190476Y-148400000D01*
X106142857Y-148447619D01*
X105190476Y-149352380D02*
X105761904Y-149352380D01*
X105476190Y-149352380D02*
X105476190Y-148352380D01*
X105571428Y-148495238D01*
X105666666Y-148590476D01*
X105761904Y-148638095D01*
X104809523Y-148447619D02*
X104761904Y-148400000D01*
X104666666Y-148352380D01*
X104428571Y-148352380D01*
X104333333Y-148400000D01*
X104285714Y-148447619D01*
X104238095Y-148542857D01*
X104238095Y-148638095D01*
X104285714Y-148780952D01*
X104857142Y-149352380D01*
X104238095Y-149352380D01*
X102242857Y-148447619D02*
X102195238Y-148400000D01*
X102100000Y-148352380D01*
X101861904Y-148352380D01*
X101766666Y-148400000D01*
X101719047Y-148447619D01*
X101671428Y-148542857D01*
X101671428Y-148638095D01*
X101719047Y-148780952D01*
X102290476Y-149352380D01*
X101671428Y-149352380D01*
X101290476Y-148447619D02*
X101242857Y-148400000D01*
X101147619Y-148352380D01*
X100909523Y-148352380D01*
X100814285Y-148400000D01*
X100766666Y-148447619D01*
X100719047Y-148542857D01*
X100719047Y-148638095D01*
X100766666Y-148780952D01*
X101338095Y-149352380D01*
X100719047Y-149352380D01*
X99861904Y-148685714D02*
X99861904Y-149352380D01*
X100290476Y-148685714D02*
X100290476Y-149209523D01*
X100242857Y-149304761D01*
X100147619Y-149352380D01*
X100004761Y-149352380D01*
X99909523Y-149304761D01*
X99861904Y-149257142D01*
X99052380Y-148828571D02*
X99385714Y-148828571D01*
X99385714Y-149352380D02*
X99385714Y-148352380D01*
X98909523Y-148352380D01*
X106510952Y-147661428D02*
X105749047Y-147661428D01*
X106130000Y-148042380D02*
X106130000Y-147280476D01*
X134742857Y-149057142D02*
X134790476Y-149104761D01*
X134933333Y-149152380D01*
X135028571Y-149152380D01*
X135171428Y-149104761D01*
X135266666Y-149009523D01*
X135314285Y-148914285D01*
X135361904Y-148723809D01*
X135361904Y-148580952D01*
X135314285Y-148390476D01*
X135266666Y-148295238D01*
X135171428Y-148200000D01*
X135028571Y-148152380D01*
X134933333Y-148152380D01*
X134790476Y-148200000D01*
X134742857Y-148247619D01*
X133790476Y-149152380D02*
X134361904Y-149152380D01*
X134076190Y-149152380D02*
X134076190Y-148152380D01*
X134171428Y-148295238D01*
X134266666Y-148390476D01*
X134361904Y-148438095D01*
X133457142Y-148152380D02*
X132838095Y-148152380D01*
X133171428Y-148533333D01*
X133028571Y-148533333D01*
X132933333Y-148580952D01*
X132885714Y-148628571D01*
X132838095Y-148723809D01*
X132838095Y-148961904D01*
X132885714Y-149057142D01*
X132933333Y-149104761D01*
X133028571Y-149152380D01*
X133314285Y-149152380D01*
X133409523Y-149104761D01*
X133457142Y-149057142D01*
X130842857Y-148347619D02*
X130795238Y-148300000D01*
X130700000Y-148252380D01*
X130461904Y-148252380D01*
X130366666Y-148300000D01*
X130319047Y-148347619D01*
X130271428Y-148442857D01*
X130271428Y-148538095D01*
X130319047Y-148680952D01*
X130890476Y-149252380D01*
X130271428Y-149252380D01*
X129890476Y-148347619D02*
X129842857Y-148300000D01*
X129747619Y-148252380D01*
X129509523Y-148252380D01*
X129414285Y-148300000D01*
X129366666Y-148347619D01*
X129319047Y-148442857D01*
X129319047Y-148538095D01*
X129366666Y-148680952D01*
X129938095Y-149252380D01*
X129319047Y-149252380D01*
X128461904Y-148585714D02*
X128461904Y-149252380D01*
X128890476Y-148585714D02*
X128890476Y-149109523D01*
X128842857Y-149204761D01*
X128747619Y-149252380D01*
X128604761Y-149252380D01*
X128509523Y-149204761D01*
X128461904Y-149157142D01*
X127652380Y-148728571D02*
X127985714Y-148728571D01*
X127985714Y-149252380D02*
X127985714Y-148252380D01*
X127509523Y-148252380D01*
X135260952Y-147411428D02*
X134499047Y-147411428D01*
X134880000Y-147792380D02*
X134880000Y-147030476D01*
X114757142Y-122657142D02*
X114804761Y-122609523D01*
X114852380Y-122466666D01*
X114852380Y-122371428D01*
X114804761Y-122228571D01*
X114709523Y-122133333D01*
X114614285Y-122085714D01*
X114423809Y-122038095D01*
X114280952Y-122038095D01*
X114090476Y-122085714D01*
X113995238Y-122133333D01*
X113900000Y-122228571D01*
X113852380Y-122371428D01*
X113852380Y-122466666D01*
X113900000Y-122609523D01*
X113947619Y-122657142D01*
X114852380Y-123609523D02*
X114852380Y-123038095D01*
X114852380Y-123323809D02*
X113852380Y-123323809D01*
X113995238Y-123228571D01*
X114090476Y-123133333D01*
X114138095Y-123038095D01*
X114185714Y-124466666D02*
X114852380Y-124466666D01*
X113804761Y-124228571D02*
X114519047Y-123990476D01*
X114519047Y-124609523D01*
X104585714Y-122133333D02*
X105252380Y-122133333D01*
X104204761Y-121895238D02*
X104919047Y-121657142D01*
X104919047Y-122276190D01*
X104252380Y-122561904D02*
X104252380Y-123228571D01*
X105252380Y-122800000D01*
X104585714Y-124038095D02*
X105252380Y-124038095D01*
X104585714Y-123609523D02*
X105109523Y-123609523D01*
X105204761Y-123657142D01*
X105252380Y-123752380D01*
X105252380Y-123895238D01*
X105204761Y-123990476D01*
X105157142Y-124038095D01*
X104728571Y-124847619D02*
X104728571Y-124514285D01*
X105252380Y-124514285D02*
X104252380Y-124514285D01*
X104252380Y-124990476D01*
X106500952Y-120721428D02*
X105739047Y-120721428D01*
X106120000Y-121102380D02*
X106120000Y-120340476D01*
X125542857Y-79757142D02*
X125590476Y-79804761D01*
X125733333Y-79852380D01*
X125828571Y-79852380D01*
X125971428Y-79804761D01*
X126066666Y-79709523D01*
X126114285Y-79614285D01*
X126161904Y-79423809D01*
X126161904Y-79280952D01*
X126114285Y-79090476D01*
X126066666Y-78995238D01*
X125971428Y-78900000D01*
X125828571Y-78852380D01*
X125733333Y-78852380D01*
X125590476Y-78900000D01*
X125542857Y-78947619D01*
X124590476Y-79852380D02*
X125161904Y-79852380D01*
X124876190Y-79852380D02*
X124876190Y-78852380D01*
X124971428Y-78995238D01*
X125066666Y-79090476D01*
X125161904Y-79138095D01*
X123733333Y-78852380D02*
X123923809Y-78852380D01*
X124019047Y-78900000D01*
X124066666Y-78947619D01*
X124161904Y-79090476D01*
X124209523Y-79280952D01*
X124209523Y-79661904D01*
X124161904Y-79757142D01*
X124114285Y-79804761D01*
X124019047Y-79852380D01*
X123828571Y-79852380D01*
X123733333Y-79804761D01*
X123685714Y-79757142D01*
X123638095Y-79661904D01*
X123638095Y-79423809D01*
X123685714Y-79328571D01*
X123733333Y-79280952D01*
X123828571Y-79233333D01*
X124019047Y-79233333D01*
X124114285Y-79280952D01*
X124161904Y-79328571D01*
X124209523Y-79423809D01*
X122547619Y-78202380D02*
X123119047Y-78202380D01*
X122833333Y-78202380D02*
X122833333Y-77202380D01*
X122928571Y-77345238D01*
X123023809Y-77440476D01*
X123119047Y-77488095D01*
X121928571Y-77202380D02*
X121833333Y-77202380D01*
X121738095Y-77250000D01*
X121690476Y-77297619D01*
X121642857Y-77392857D01*
X121595238Y-77583333D01*
X121595238Y-77821428D01*
X121642857Y-78011904D01*
X121690476Y-78107142D01*
X121738095Y-78154761D01*
X121833333Y-78202380D01*
X121928571Y-78202380D01*
X122023809Y-78154761D01*
X122071428Y-78107142D01*
X122119047Y-78011904D01*
X122166666Y-77821428D01*
X122166666Y-77583333D01*
X122119047Y-77392857D01*
X122071428Y-77297619D01*
X122023809Y-77250000D01*
X121928571Y-77202380D01*
X120976190Y-77202380D02*
X120880952Y-77202380D01*
X120785714Y-77250000D01*
X120738095Y-77297619D01*
X120690476Y-77392857D01*
X120642857Y-77583333D01*
X120642857Y-77821428D01*
X120690476Y-78011904D01*
X120738095Y-78107142D01*
X120785714Y-78154761D01*
X120880952Y-78202380D01*
X120976190Y-78202380D01*
X121071428Y-78154761D01*
X121119047Y-78107142D01*
X121166666Y-78011904D01*
X121214285Y-77821428D01*
X121214285Y-77583333D01*
X121166666Y-77392857D01*
X121119047Y-77297619D01*
X121071428Y-77250000D01*
X120976190Y-77202380D01*
X120214285Y-77535714D02*
X120214285Y-78202380D01*
X120214285Y-77630952D02*
X120166666Y-77583333D01*
X120071428Y-77535714D01*
X119928571Y-77535714D01*
X119833333Y-77583333D01*
X119785714Y-77678571D01*
X119785714Y-78202380D01*
X118976190Y-77678571D02*
X119309523Y-77678571D01*
X119309523Y-78202380D02*
X119309523Y-77202380D01*
X118833333Y-77202380D01*
X120792857Y-59757142D02*
X120840476Y-59804761D01*
X120983333Y-59852380D01*
X121078571Y-59852380D01*
X121221428Y-59804761D01*
X121316666Y-59709523D01*
X121364285Y-59614285D01*
X121411904Y-59423809D01*
X121411904Y-59280952D01*
X121364285Y-59090476D01*
X121316666Y-58995238D01*
X121221428Y-58900000D01*
X121078571Y-58852380D01*
X120983333Y-58852380D01*
X120840476Y-58900000D01*
X120792857Y-58947619D01*
X119840476Y-59852380D02*
X120411904Y-59852380D01*
X120126190Y-59852380D02*
X120126190Y-58852380D01*
X120221428Y-58995238D01*
X120316666Y-59090476D01*
X120411904Y-59138095D01*
X119507142Y-58852380D02*
X118840476Y-58852380D01*
X119269047Y-59852380D01*
X121697619Y-56352380D02*
X122269047Y-56352380D01*
X121983333Y-56352380D02*
X121983333Y-55352380D01*
X122078571Y-55495238D01*
X122173809Y-55590476D01*
X122269047Y-55638095D01*
X121078571Y-55352380D02*
X120983333Y-55352380D01*
X120888095Y-55400000D01*
X120840476Y-55447619D01*
X120792857Y-55542857D01*
X120745238Y-55733333D01*
X120745238Y-55971428D01*
X120792857Y-56161904D01*
X120840476Y-56257142D01*
X120888095Y-56304761D01*
X120983333Y-56352380D01*
X121078571Y-56352380D01*
X121173809Y-56304761D01*
X121221428Y-56257142D01*
X121269047Y-56161904D01*
X121316666Y-55971428D01*
X121316666Y-55733333D01*
X121269047Y-55542857D01*
X121221428Y-55447619D01*
X121173809Y-55400000D01*
X121078571Y-55352380D01*
X120126190Y-55352380D02*
X120030952Y-55352380D01*
X119935714Y-55400000D01*
X119888095Y-55447619D01*
X119840476Y-55542857D01*
X119792857Y-55733333D01*
X119792857Y-55971428D01*
X119840476Y-56161904D01*
X119888095Y-56257142D01*
X119935714Y-56304761D01*
X120030952Y-56352380D01*
X120126190Y-56352380D01*
X120221428Y-56304761D01*
X120269047Y-56257142D01*
X120316666Y-56161904D01*
X120364285Y-55971428D01*
X120364285Y-55733333D01*
X120316666Y-55542857D01*
X120269047Y-55447619D01*
X120221428Y-55400000D01*
X120126190Y-55352380D01*
X119364285Y-55685714D02*
X119364285Y-56352380D01*
X119364285Y-55780952D02*
X119316666Y-55733333D01*
X119221428Y-55685714D01*
X119078571Y-55685714D01*
X118983333Y-55733333D01*
X118935714Y-55828571D01*
X118935714Y-56352380D01*
X118126190Y-55828571D02*
X118459523Y-55828571D01*
X118459523Y-56352380D02*
X118459523Y-55352380D01*
X117983333Y-55352380D01*
X114452380Y-144861904D02*
X113452380Y-144861904D01*
X113452380Y-145100000D01*
X113500000Y-145242857D01*
X113595238Y-145338095D01*
X113690476Y-145385714D01*
X113880952Y-145433333D01*
X114023809Y-145433333D01*
X114214285Y-145385714D01*
X114309523Y-145338095D01*
X114404761Y-145242857D01*
X114452380Y-145100000D01*
X114452380Y-144861904D01*
X114452380Y-146385714D02*
X114452380Y-145814285D01*
X114452380Y-146100000D02*
X113452380Y-146100000D01*
X113595238Y-146004761D01*
X113690476Y-145909523D01*
X113738095Y-145814285D01*
X112842857Y-148152380D02*
X113414285Y-148152380D01*
X113128571Y-148152380D02*
X113128571Y-147152380D01*
X113223809Y-147295238D01*
X113319047Y-147390476D01*
X113414285Y-147438095D01*
X112414285Y-148152380D02*
X112414285Y-147152380D01*
X111842857Y-148152380D01*
X111842857Y-147152380D01*
X110890476Y-147152380D02*
X111366666Y-147152380D01*
X111414285Y-147628571D01*
X111366666Y-147580952D01*
X111271428Y-147533333D01*
X111033333Y-147533333D01*
X110938095Y-147580952D01*
X110890476Y-147628571D01*
X110842857Y-147723809D01*
X110842857Y-147961904D01*
X110890476Y-148057142D01*
X110938095Y-148104761D01*
X111033333Y-148152380D01*
X111271428Y-148152380D01*
X111366666Y-148104761D01*
X111414285Y-148057142D01*
X110271428Y-147580952D02*
X110366666Y-147533333D01*
X110414285Y-147485714D01*
X110461904Y-147390476D01*
X110461904Y-147342857D01*
X110414285Y-147247619D01*
X110366666Y-147200000D01*
X110271428Y-147152380D01*
X110080952Y-147152380D01*
X109985714Y-147200000D01*
X109938095Y-147247619D01*
X109890476Y-147342857D01*
X109890476Y-147390476D01*
X109938095Y-147485714D01*
X109985714Y-147533333D01*
X110080952Y-147580952D01*
X110271428Y-147580952D01*
X110366666Y-147628571D01*
X110414285Y-147676190D01*
X110461904Y-147771428D01*
X110461904Y-147961904D01*
X110414285Y-148057142D01*
X110366666Y-148104761D01*
X110271428Y-148152380D01*
X110080952Y-148152380D01*
X109985714Y-148104761D01*
X109938095Y-148057142D01*
X109890476Y-147961904D01*
X109890476Y-147771428D01*
X109938095Y-147676190D01*
X109985714Y-147628571D01*
X110080952Y-147580952D01*
X108938095Y-148152380D02*
X109509523Y-148152380D01*
X109223809Y-148152380D02*
X109223809Y-147152380D01*
X109319047Y-147295238D01*
X109414285Y-147390476D01*
X109509523Y-147438095D01*
X108461904Y-148152380D02*
X108271428Y-148152380D01*
X108176190Y-148104761D01*
X108128571Y-148057142D01*
X108033333Y-147914285D01*
X107985714Y-147723809D01*
X107985714Y-147342857D01*
X108033333Y-147247619D01*
X108080952Y-147200000D01*
X108176190Y-147152380D01*
X108366666Y-147152380D01*
X108461904Y-147200000D01*
X108509523Y-147247619D01*
X108557142Y-147342857D01*
X108557142Y-147580952D01*
X108509523Y-147676190D01*
X108461904Y-147723809D01*
X108366666Y-147771428D01*
X108176190Y-147771428D01*
X108080952Y-147723809D01*
X108033333Y-147676190D01*
X107985714Y-147580952D01*
X126052380Y-137961904D02*
X125052380Y-137961904D01*
X125052380Y-138200000D01*
X125100000Y-138342857D01*
X125195238Y-138438095D01*
X125290476Y-138485714D01*
X125480952Y-138533333D01*
X125623809Y-138533333D01*
X125814285Y-138485714D01*
X125909523Y-138438095D01*
X126004761Y-138342857D01*
X126052380Y-138200000D01*
X126052380Y-137961904D01*
X125147619Y-138914285D02*
X125100000Y-138961904D01*
X125052380Y-139057142D01*
X125052380Y-139295238D01*
X125100000Y-139390476D01*
X125147619Y-139438095D01*
X125242857Y-139485714D01*
X125338095Y-139485714D01*
X125480952Y-139438095D01*
X126052380Y-138866666D01*
X126052380Y-139485714D01*
X130052380Y-136657142D02*
X130052380Y-136085714D01*
X130052380Y-136371428D02*
X129052380Y-136371428D01*
X129195238Y-136276190D01*
X129290476Y-136180952D01*
X129338095Y-136085714D01*
X130052380Y-137085714D02*
X129052380Y-137085714D01*
X130052380Y-137657142D01*
X129052380Y-137657142D01*
X129052380Y-138609523D02*
X129052380Y-138133333D01*
X129528571Y-138085714D01*
X129480952Y-138133333D01*
X129433333Y-138228571D01*
X129433333Y-138466666D01*
X129480952Y-138561904D01*
X129528571Y-138609523D01*
X129623809Y-138657142D01*
X129861904Y-138657142D01*
X129957142Y-138609523D01*
X130004761Y-138561904D01*
X130052380Y-138466666D01*
X130052380Y-138228571D01*
X130004761Y-138133333D01*
X129957142Y-138085714D01*
X129480952Y-139228571D02*
X129433333Y-139133333D01*
X129385714Y-139085714D01*
X129290476Y-139038095D01*
X129242857Y-139038095D01*
X129147619Y-139085714D01*
X129100000Y-139133333D01*
X129052380Y-139228571D01*
X129052380Y-139419047D01*
X129100000Y-139514285D01*
X129147619Y-139561904D01*
X129242857Y-139609523D01*
X129290476Y-139609523D01*
X129385714Y-139561904D01*
X129433333Y-139514285D01*
X129480952Y-139419047D01*
X129480952Y-139228571D01*
X129528571Y-139133333D01*
X129576190Y-139085714D01*
X129671428Y-139038095D01*
X129861904Y-139038095D01*
X129957142Y-139085714D01*
X130004761Y-139133333D01*
X130052380Y-139228571D01*
X130052380Y-139419047D01*
X130004761Y-139514285D01*
X129957142Y-139561904D01*
X129861904Y-139609523D01*
X129671428Y-139609523D01*
X129576190Y-139561904D01*
X129528571Y-139514285D01*
X129480952Y-139419047D01*
X130052380Y-140561904D02*
X130052380Y-139990476D01*
X130052380Y-140276190D02*
X129052380Y-140276190D01*
X129195238Y-140180952D01*
X129290476Y-140085714D01*
X129338095Y-139990476D01*
X130052380Y-141038095D02*
X130052380Y-141228571D01*
X130004761Y-141323809D01*
X129957142Y-141371428D01*
X129814285Y-141466666D01*
X129623809Y-141514285D01*
X129242857Y-141514285D01*
X129147619Y-141466666D01*
X129100000Y-141419047D01*
X129052380Y-141323809D01*
X129052380Y-141133333D01*
X129100000Y-141038095D01*
X129147619Y-140990476D01*
X129242857Y-140942857D01*
X129480952Y-140942857D01*
X129576190Y-140990476D01*
X129623809Y-141038095D01*
X129671428Y-141133333D01*
X129671428Y-141323809D01*
X129623809Y-141419047D01*
X129576190Y-141466666D01*
X129480952Y-141514285D01*
X102476190Y-100702380D02*
X101857142Y-100702380D01*
X102190476Y-101083333D01*
X102047619Y-101083333D01*
X101952380Y-101130952D01*
X101904761Y-101178571D01*
X101857142Y-101273809D01*
X101857142Y-101511904D01*
X101904761Y-101607142D01*
X101952380Y-101654761D01*
X102047619Y-101702380D01*
X102333333Y-101702380D01*
X102428571Y-101654761D01*
X102476190Y-101607142D01*
X101428571Y-101607142D02*
X101380952Y-101654761D01*
X101428571Y-101702380D01*
X101476190Y-101654761D01*
X101428571Y-101607142D01*
X101428571Y-101702380D01*
X101047619Y-100702380D02*
X100428571Y-100702380D01*
X100761904Y-101083333D01*
X100619047Y-101083333D01*
X100523809Y-101130952D01*
X100476190Y-101178571D01*
X100428571Y-101273809D01*
X100428571Y-101511904D01*
X100476190Y-101607142D01*
X100523809Y-101654761D01*
X100619047Y-101702380D01*
X100904761Y-101702380D01*
X101000000Y-101654761D01*
X101047619Y-101607142D01*
X100142857Y-100702380D02*
X99809523Y-101702380D01*
X99476190Y-100702380D01*
X101761904Y-98210000D02*
X101857142Y-98162380D01*
X102000000Y-98162380D01*
X102142857Y-98210000D01*
X102238095Y-98305238D01*
X102285714Y-98400476D01*
X102333333Y-98590952D01*
X102333333Y-98733809D01*
X102285714Y-98924285D01*
X102238095Y-99019523D01*
X102142857Y-99114761D01*
X102000000Y-99162380D01*
X101904761Y-99162380D01*
X101761904Y-99114761D01*
X101714285Y-99067142D01*
X101714285Y-98733809D01*
X101904761Y-98733809D01*
X101285714Y-99162380D02*
X101285714Y-98162380D01*
X100714285Y-99162380D01*
X100714285Y-98162380D01*
X100238095Y-99162380D02*
X100238095Y-98162380D01*
X100000000Y-98162380D01*
X99857142Y-98210000D01*
X99761904Y-98305238D01*
X99714285Y-98400476D01*
X99666666Y-98590952D01*
X99666666Y-98733809D01*
X99714285Y-98924285D01*
X99761904Y-99019523D01*
X99857142Y-99114761D01*
X100000000Y-99162380D01*
X100238095Y-99162380D01*
X101023809Y-96452380D02*
X101023809Y-95452380D01*
X100357142Y-95452380D02*
X100166666Y-95452380D01*
X100071428Y-95500000D01*
X99976190Y-95595238D01*
X99928571Y-95785714D01*
X99928571Y-96119047D01*
X99976190Y-96309523D01*
X100071428Y-96404761D01*
X100166666Y-96452380D01*
X100357142Y-96452380D01*
X100452380Y-96404761D01*
X100547619Y-96309523D01*
X100595238Y-96119047D01*
X100595238Y-95785714D01*
X100547619Y-95595238D01*
X100452380Y-95500000D01*
X100357142Y-95452380D01*
X101595238Y-93987142D02*
X101642857Y-94034761D01*
X101785714Y-94082380D01*
X101880952Y-94082380D01*
X102023809Y-94034761D01*
X102119047Y-93939523D01*
X102166666Y-93844285D01*
X102214285Y-93653809D01*
X102214285Y-93510952D01*
X102166666Y-93320476D01*
X102119047Y-93225238D01*
X102023809Y-93130000D01*
X101880952Y-93082380D01*
X101785714Y-93082380D01*
X101642857Y-93130000D01*
X101595238Y-93177619D01*
X100690476Y-94082380D02*
X101166666Y-94082380D01*
X101166666Y-93082380D01*
X100357142Y-94082380D02*
X100357142Y-93082380D01*
X99785714Y-94082380D02*
X100214285Y-93510952D01*
X99785714Y-93082380D02*
X100357142Y-93653809D01*
X127171428Y-130538095D02*
X127171428Y-131300000D01*
X127552380Y-132300000D02*
X127552380Y-131728571D01*
X127552380Y-132014285D02*
X126552380Y-132014285D01*
X126695238Y-131919047D01*
X126790476Y-131823809D01*
X126838095Y-131728571D01*
X126647619Y-132680952D02*
X126600000Y-132728571D01*
X126552380Y-132823809D01*
X126552380Y-133061904D01*
X126600000Y-133157142D01*
X126647619Y-133204761D01*
X126742857Y-133252380D01*
X126838095Y-133252380D01*
X126980952Y-133204761D01*
X127552380Y-132633333D01*
X127552380Y-133252380D01*
X126552380Y-133538095D02*
X127552380Y-133871428D01*
X126552380Y-134204761D01*
X122566666Y-84252380D02*
X123042857Y-84252380D01*
X123042857Y-83252380D01*
X121709523Y-84252380D02*
X122280952Y-84252380D01*
X121995238Y-84252380D02*
X121995238Y-83252380D01*
X122090476Y-83395238D01*
X122185714Y-83490476D01*
X122280952Y-83538095D01*
X130452380Y-124933333D02*
X129976190Y-124600000D01*
X130452380Y-124361904D02*
X129452380Y-124361904D01*
X129452380Y-124742857D01*
X129500000Y-124838095D01*
X129547619Y-124885714D01*
X129642857Y-124933333D01*
X129785714Y-124933333D01*
X129880952Y-124885714D01*
X129928571Y-124838095D01*
X129976190Y-124742857D01*
X129976190Y-124361904D01*
X130452380Y-125885714D02*
X130452380Y-125314285D01*
X130452380Y-125600000D02*
X129452380Y-125600000D01*
X129595238Y-125504761D01*
X129690476Y-125409523D01*
X129738095Y-125314285D01*
X127647619Y-120011904D02*
X127600000Y-120059523D01*
X127552380Y-120154761D01*
X127552380Y-120392857D01*
X127600000Y-120488095D01*
X127647619Y-120535714D01*
X127742857Y-120583333D01*
X127838095Y-120583333D01*
X127980952Y-120535714D01*
X128552380Y-119964285D01*
X128552380Y-120583333D01*
X127647619Y-120964285D02*
X127600000Y-121011904D01*
X127552380Y-121107142D01*
X127552380Y-121345238D01*
X127600000Y-121440476D01*
X127647619Y-121488095D01*
X127742857Y-121535714D01*
X127838095Y-121535714D01*
X127980952Y-121488095D01*
X128552380Y-120916666D01*
X128552380Y-121535714D01*
X127552380Y-122154761D02*
X127552380Y-122250000D01*
X127600000Y-122345238D01*
X127647619Y-122392857D01*
X127742857Y-122440476D01*
X127933333Y-122488095D01*
X128171428Y-122488095D01*
X128361904Y-122440476D01*
X128457142Y-122392857D01*
X128504761Y-122345238D01*
X128552380Y-122250000D01*
X128552380Y-122154761D01*
X128504761Y-122059523D01*
X128457142Y-122011904D01*
X128361904Y-121964285D01*
X128171428Y-121916666D01*
X127933333Y-121916666D01*
X127742857Y-121964285D01*
X127647619Y-122011904D01*
X127600000Y-122059523D01*
X127552380Y-122154761D01*
X122666666Y-47452380D02*
X123000000Y-46976190D01*
X123238095Y-47452380D02*
X123238095Y-46452380D01*
X122857142Y-46452380D01*
X122761904Y-46500000D01*
X122714285Y-46547619D01*
X122666666Y-46642857D01*
X122666666Y-46785714D01*
X122714285Y-46880952D01*
X122761904Y-46928571D01*
X122857142Y-46976190D01*
X123238095Y-46976190D01*
X122285714Y-46547619D02*
X122238095Y-46500000D01*
X122142857Y-46452380D01*
X121904761Y-46452380D01*
X121809523Y-46500000D01*
X121761904Y-46547619D01*
X121714285Y-46642857D01*
X121714285Y-46738095D01*
X121761904Y-46880952D01*
X122333333Y-47452380D01*
X121714285Y-47452380D01*
X119595238Y-45952380D02*
X120166666Y-45952380D01*
X119880952Y-45952380D02*
X119880952Y-44952380D01*
X119976190Y-45095238D01*
X120071428Y-45190476D01*
X120166666Y-45238095D01*
X118976190Y-44952380D02*
X118880952Y-44952380D01*
X118785714Y-45000000D01*
X118738095Y-45047619D01*
X118690476Y-45142857D01*
X118642857Y-45333333D01*
X118642857Y-45571428D01*
X118690476Y-45761904D01*
X118738095Y-45857142D01*
X118785714Y-45904761D01*
X118880952Y-45952380D01*
X118976190Y-45952380D01*
X119071428Y-45904761D01*
X119119047Y-45857142D01*
X119166666Y-45761904D01*
X119214285Y-45571428D01*
X119214285Y-45333333D01*
X119166666Y-45142857D01*
X119119047Y-45047619D01*
X119071428Y-45000000D01*
X118976190Y-44952380D01*
X118214285Y-45952380D02*
X118214285Y-44952380D01*
X118119047Y-45571428D02*
X117833333Y-45952380D01*
X117833333Y-45285714D02*
X118214285Y-45666666D01*
X129466666Y-100552380D02*
X129800000Y-100076190D01*
X130038095Y-100552380D02*
X130038095Y-99552380D01*
X129657142Y-99552380D01*
X129561904Y-99600000D01*
X129514285Y-99647619D01*
X129466666Y-99742857D01*
X129466666Y-99885714D01*
X129514285Y-99980952D01*
X129561904Y-100028571D01*
X129657142Y-100076190D01*
X130038095Y-100076190D01*
X129133333Y-99552380D02*
X128514285Y-99552380D01*
X128847619Y-99933333D01*
X128704761Y-99933333D01*
X128609523Y-99980952D01*
X128561904Y-100028571D01*
X128514285Y-100123809D01*
X128514285Y-100361904D01*
X128561904Y-100457142D01*
X128609523Y-100504761D01*
X128704761Y-100552380D01*
X128990476Y-100552380D01*
X129085714Y-100504761D01*
X129133333Y-100457142D01*
X122695238Y-100452380D02*
X123266666Y-100452380D01*
X122980952Y-100452380D02*
X122980952Y-99452380D01*
X123076190Y-99595238D01*
X123171428Y-99690476D01*
X123266666Y-99738095D01*
X122076190Y-99452380D02*
X121980952Y-99452380D01*
X121885714Y-99500000D01*
X121838095Y-99547619D01*
X121790476Y-99642857D01*
X121742857Y-99833333D01*
X121742857Y-100071428D01*
X121790476Y-100261904D01*
X121838095Y-100357142D01*
X121885714Y-100404761D01*
X121980952Y-100452380D01*
X122076190Y-100452380D01*
X122171428Y-100404761D01*
X122219047Y-100357142D01*
X122266666Y-100261904D01*
X122314285Y-100071428D01*
X122314285Y-99833333D01*
X122266666Y-99642857D01*
X122219047Y-99547619D01*
X122171428Y-99500000D01*
X122076190Y-99452380D01*
X121314285Y-100452380D02*
X121314285Y-99452380D01*
X121219047Y-100071428D02*
X120933333Y-100452380D01*
X120933333Y-99785714D02*
X121314285Y-100166666D01*
X106766666Y-46052380D02*
X107100000Y-45576190D01*
X107338095Y-46052380D02*
X107338095Y-45052380D01*
X106957142Y-45052380D01*
X106861904Y-45100000D01*
X106814285Y-45147619D01*
X106766666Y-45242857D01*
X106766666Y-45385714D01*
X106814285Y-45480952D01*
X106861904Y-45528571D01*
X106957142Y-45576190D01*
X107338095Y-45576190D01*
X105909523Y-45385714D02*
X105909523Y-46052380D01*
X106147619Y-45004761D02*
X106385714Y-45719047D01*
X105766666Y-45719047D01*
X103545238Y-46052380D02*
X104116666Y-46052380D01*
X103830952Y-46052380D02*
X103830952Y-45052380D01*
X103926190Y-45195238D01*
X104021428Y-45290476D01*
X104116666Y-45338095D01*
X102926190Y-45052380D02*
X102830952Y-45052380D01*
X102735714Y-45100000D01*
X102688095Y-45147619D01*
X102640476Y-45242857D01*
X102592857Y-45433333D01*
X102592857Y-45671428D01*
X102640476Y-45861904D01*
X102688095Y-45957142D01*
X102735714Y-46004761D01*
X102830952Y-46052380D01*
X102926190Y-46052380D01*
X103021428Y-46004761D01*
X103069047Y-45957142D01*
X103116666Y-45861904D01*
X103164285Y-45671428D01*
X103164285Y-45433333D01*
X103116666Y-45242857D01*
X103069047Y-45147619D01*
X103021428Y-45100000D01*
X102926190Y-45052380D01*
X102164285Y-46052380D02*
X102164285Y-45052380D01*
X102069047Y-45671428D02*
X101783333Y-46052380D01*
X101783333Y-45385714D02*
X102164285Y-45766666D01*
X106866666Y-49352380D02*
X107200000Y-48876190D01*
X107438095Y-49352380D02*
X107438095Y-48352380D01*
X107057142Y-48352380D01*
X106961904Y-48400000D01*
X106914285Y-48447619D01*
X106866666Y-48542857D01*
X106866666Y-48685714D01*
X106914285Y-48780952D01*
X106961904Y-48828571D01*
X107057142Y-48876190D01*
X107438095Y-48876190D01*
X105961904Y-48352380D02*
X106438095Y-48352380D01*
X106485714Y-48828571D01*
X106438095Y-48780952D01*
X106342857Y-48733333D01*
X106104761Y-48733333D01*
X106009523Y-48780952D01*
X105961904Y-48828571D01*
X105914285Y-48923809D01*
X105914285Y-49161904D01*
X105961904Y-49257142D01*
X106009523Y-49304761D01*
X106104761Y-49352380D01*
X106342857Y-49352380D01*
X106438095Y-49304761D01*
X106485714Y-49257142D01*
X103495238Y-49352380D02*
X104066666Y-49352380D01*
X103780952Y-49352380D02*
X103780952Y-48352380D01*
X103876190Y-48495238D01*
X103971428Y-48590476D01*
X104066666Y-48638095D01*
X102876190Y-48352380D02*
X102780952Y-48352380D01*
X102685714Y-48400000D01*
X102638095Y-48447619D01*
X102590476Y-48542857D01*
X102542857Y-48733333D01*
X102542857Y-48971428D01*
X102590476Y-49161904D01*
X102638095Y-49257142D01*
X102685714Y-49304761D01*
X102780952Y-49352380D01*
X102876190Y-49352380D01*
X102971428Y-49304761D01*
X103019047Y-49257142D01*
X103066666Y-49161904D01*
X103114285Y-48971428D01*
X103114285Y-48733333D01*
X103066666Y-48542857D01*
X103019047Y-48447619D01*
X102971428Y-48400000D01*
X102876190Y-48352380D01*
X102114285Y-49352380D02*
X102114285Y-48352380D01*
X102019047Y-48971428D02*
X101733333Y-49352380D01*
X101733333Y-48685714D02*
X102114285Y-49066666D01*
X122666666Y-50952380D02*
X123000000Y-50476190D01*
X123238095Y-50952380D02*
X123238095Y-49952380D01*
X122857142Y-49952380D01*
X122761904Y-50000000D01*
X122714285Y-50047619D01*
X122666666Y-50142857D01*
X122666666Y-50285714D01*
X122714285Y-50380952D01*
X122761904Y-50428571D01*
X122857142Y-50476190D01*
X123238095Y-50476190D01*
X121809523Y-49952380D02*
X122000000Y-49952380D01*
X122095238Y-50000000D01*
X122142857Y-50047619D01*
X122238095Y-50190476D01*
X122285714Y-50380952D01*
X122285714Y-50761904D01*
X122238095Y-50857142D01*
X122190476Y-50904761D01*
X122095238Y-50952380D01*
X121904761Y-50952380D01*
X121809523Y-50904761D01*
X121761904Y-50857142D01*
X121714285Y-50761904D01*
X121714285Y-50523809D01*
X121761904Y-50428571D01*
X121809523Y-50380952D01*
X121904761Y-50333333D01*
X122095238Y-50333333D01*
X122190476Y-50380952D01*
X122238095Y-50428571D01*
X122285714Y-50523809D01*
X119595238Y-49352380D02*
X120166666Y-49352380D01*
X119880952Y-49352380D02*
X119880952Y-48352380D01*
X119976190Y-48495238D01*
X120071428Y-48590476D01*
X120166666Y-48638095D01*
X118976190Y-48352380D02*
X118880952Y-48352380D01*
X118785714Y-48400000D01*
X118738095Y-48447619D01*
X118690476Y-48542857D01*
X118642857Y-48733333D01*
X118642857Y-48971428D01*
X118690476Y-49161904D01*
X118738095Y-49257142D01*
X118785714Y-49304761D01*
X118880952Y-49352380D01*
X118976190Y-49352380D01*
X119071428Y-49304761D01*
X119119047Y-49257142D01*
X119166666Y-49161904D01*
X119214285Y-48971428D01*
X119214285Y-48733333D01*
X119166666Y-48542857D01*
X119119047Y-48447619D01*
X119071428Y-48400000D01*
X118976190Y-48352380D01*
X118214285Y-49352380D02*
X118214285Y-48352380D01*
X118119047Y-48971428D02*
X117833333Y-49352380D01*
X117833333Y-48685714D02*
X118214285Y-49066666D01*
X122666666Y-44252380D02*
X123000000Y-43776190D01*
X123238095Y-44252380D02*
X123238095Y-43252380D01*
X122857142Y-43252380D01*
X122761904Y-43300000D01*
X122714285Y-43347619D01*
X122666666Y-43442857D01*
X122666666Y-43585714D01*
X122714285Y-43680952D01*
X122761904Y-43728571D01*
X122857142Y-43776190D01*
X123238095Y-43776190D01*
X122333333Y-43252380D02*
X121666666Y-43252380D01*
X122095238Y-44252380D01*
X119690476Y-41547619D02*
X119642857Y-41500000D01*
X119547619Y-41452380D01*
X119309523Y-41452380D01*
X119214285Y-41500000D01*
X119166666Y-41547619D01*
X119119047Y-41642857D01*
X119119047Y-41738095D01*
X119166666Y-41880952D01*
X119738095Y-42452380D01*
X119119047Y-42452380D01*
X118690476Y-42452380D02*
X118690476Y-41452380D01*
X118595238Y-42071428D02*
X118309523Y-42452380D01*
X118309523Y-41785714D02*
X118690476Y-42166666D01*
X106866666Y-42852380D02*
X107200000Y-42376190D01*
X107438095Y-42852380D02*
X107438095Y-41852380D01*
X107057142Y-41852380D01*
X106961904Y-41900000D01*
X106914285Y-41947619D01*
X106866666Y-42042857D01*
X106866666Y-42185714D01*
X106914285Y-42280952D01*
X106961904Y-42328571D01*
X107057142Y-42376190D01*
X107438095Y-42376190D01*
X106295238Y-42280952D02*
X106390476Y-42233333D01*
X106438095Y-42185714D01*
X106485714Y-42090476D01*
X106485714Y-42042857D01*
X106438095Y-41947619D01*
X106390476Y-41900000D01*
X106295238Y-41852380D01*
X106104761Y-41852380D01*
X106009523Y-41900000D01*
X105961904Y-41947619D01*
X105914285Y-42042857D01*
X105914285Y-42090476D01*
X105961904Y-42185714D01*
X106009523Y-42233333D01*
X106104761Y-42280952D01*
X106295238Y-42280952D01*
X106390476Y-42328571D01*
X106438095Y-42376190D01*
X106485714Y-42471428D01*
X106485714Y-42661904D01*
X106438095Y-42757142D01*
X106390476Y-42804761D01*
X106295238Y-42852380D01*
X106104761Y-42852380D01*
X106009523Y-42804761D01*
X105961904Y-42757142D01*
X105914285Y-42661904D01*
X105914285Y-42471428D01*
X105961904Y-42376190D01*
X106009523Y-42328571D01*
X106104761Y-42280952D01*
X103940476Y-41947619D02*
X103892857Y-41900000D01*
X103797619Y-41852380D01*
X103559523Y-41852380D01*
X103464285Y-41900000D01*
X103416666Y-41947619D01*
X103369047Y-42042857D01*
X103369047Y-42138095D01*
X103416666Y-42280952D01*
X103988095Y-42852380D01*
X103369047Y-42852380D01*
X102940476Y-42852380D02*
X102940476Y-41852380D01*
X102845238Y-42471428D02*
X102559523Y-42852380D01*
X102559523Y-42185714D02*
X102940476Y-42566666D01*
X106616666Y-52902380D02*
X106950000Y-52426190D01*
X107188095Y-52902380D02*
X107188095Y-51902380D01*
X106807142Y-51902380D01*
X106711904Y-51950000D01*
X106664285Y-51997619D01*
X106616666Y-52092857D01*
X106616666Y-52235714D01*
X106664285Y-52330952D01*
X106711904Y-52378571D01*
X106807142Y-52426190D01*
X107188095Y-52426190D01*
X106140476Y-52902380D02*
X105950000Y-52902380D01*
X105854761Y-52854761D01*
X105807142Y-52807142D01*
X105711904Y-52664285D01*
X105664285Y-52473809D01*
X105664285Y-52092857D01*
X105711904Y-51997619D01*
X105759523Y-51950000D01*
X105854761Y-51902380D01*
X106045238Y-51902380D01*
X106140476Y-51950000D01*
X106188095Y-51997619D01*
X106235714Y-52092857D01*
X106235714Y-52330952D01*
X106188095Y-52426190D01*
X106140476Y-52473809D01*
X106045238Y-52521428D01*
X105854761Y-52521428D01*
X105759523Y-52473809D01*
X105711904Y-52426190D01*
X105664285Y-52330952D01*
X103990476Y-51997619D02*
X103942857Y-51950000D01*
X103847619Y-51902380D01*
X103609523Y-51902380D01*
X103514285Y-51950000D01*
X103466666Y-51997619D01*
X103419047Y-52092857D01*
X103419047Y-52188095D01*
X103466666Y-52330952D01*
X104038095Y-52902380D01*
X103419047Y-52902380D01*
X102990476Y-52902380D02*
X102990476Y-51902380D01*
X102895238Y-52521428D02*
X102609523Y-52902380D01*
X102609523Y-52235714D02*
X102990476Y-52616666D01*
X123642857Y-53952380D02*
X123976190Y-53476190D01*
X124214285Y-53952380D02*
X124214285Y-52952380D01*
X123833333Y-52952380D01*
X123738095Y-53000000D01*
X123690476Y-53047619D01*
X123642857Y-53142857D01*
X123642857Y-53285714D01*
X123690476Y-53380952D01*
X123738095Y-53428571D01*
X123833333Y-53476190D01*
X124214285Y-53476190D01*
X122690476Y-53952380D02*
X123261904Y-53952380D01*
X122976190Y-53952380D02*
X122976190Y-52952380D01*
X123071428Y-53095238D01*
X123166666Y-53190476D01*
X123261904Y-53238095D01*
X122071428Y-52952380D02*
X121976190Y-52952380D01*
X121880952Y-53000000D01*
X121833333Y-53047619D01*
X121785714Y-53142857D01*
X121738095Y-53333333D01*
X121738095Y-53571428D01*
X121785714Y-53761904D01*
X121833333Y-53857142D01*
X121880952Y-53904761D01*
X121976190Y-53952380D01*
X122071428Y-53952380D01*
X122166666Y-53904761D01*
X122214285Y-53857142D01*
X122261904Y-53761904D01*
X122309523Y-53571428D01*
X122309523Y-53333333D01*
X122261904Y-53142857D01*
X122214285Y-53047619D01*
X122166666Y-53000000D01*
X122071428Y-52952380D01*
X119690476Y-51747619D02*
X119642857Y-51700000D01*
X119547619Y-51652380D01*
X119309523Y-51652380D01*
X119214285Y-51700000D01*
X119166666Y-51747619D01*
X119119047Y-51842857D01*
X119119047Y-51938095D01*
X119166666Y-52080952D01*
X119738095Y-52652380D01*
X119119047Y-52652380D01*
X118690476Y-52652380D02*
X118690476Y-51652380D01*
X118595238Y-52271428D02*
X118309523Y-52652380D01*
X118309523Y-51985714D02*
X118690476Y-52366666D01*
X130642857Y-48752380D02*
X130976190Y-48276190D01*
X131214285Y-48752380D02*
X131214285Y-47752380D01*
X130833333Y-47752380D01*
X130738095Y-47800000D01*
X130690476Y-47847619D01*
X130642857Y-47942857D01*
X130642857Y-48085714D01*
X130690476Y-48180952D01*
X130738095Y-48228571D01*
X130833333Y-48276190D01*
X131214285Y-48276190D01*
X129690476Y-48752380D02*
X130261904Y-48752380D01*
X129976190Y-48752380D02*
X129976190Y-47752380D01*
X130071428Y-47895238D01*
X130166666Y-47990476D01*
X130261904Y-48038095D01*
X128738095Y-48752380D02*
X129309523Y-48752380D01*
X129023809Y-48752380D02*
X129023809Y-47752380D01*
X129119047Y-47895238D01*
X129214285Y-47990476D01*
X129309523Y-48038095D01*
X130666666Y-52202380D02*
X131238095Y-52202380D01*
X130952380Y-52202380D02*
X130952380Y-51202380D01*
X131047619Y-51345238D01*
X131142857Y-51440476D01*
X131238095Y-51488095D01*
X130047619Y-51202380D02*
X129952380Y-51202380D01*
X129857142Y-51250000D01*
X129809523Y-51297619D01*
X129761904Y-51392857D01*
X129714285Y-51583333D01*
X129714285Y-51821428D01*
X129761904Y-52011904D01*
X129809523Y-52107142D01*
X129857142Y-52154761D01*
X129952380Y-52202380D01*
X130047619Y-52202380D01*
X130142857Y-52154761D01*
X130190476Y-52107142D01*
X130238095Y-52011904D01*
X130285714Y-51821428D01*
X130285714Y-51583333D01*
X130238095Y-51392857D01*
X130190476Y-51297619D01*
X130142857Y-51250000D01*
X130047619Y-51202380D01*
X129095238Y-51202380D02*
X129000000Y-51202380D01*
X128904761Y-51250000D01*
X128857142Y-51297619D01*
X128809523Y-51392857D01*
X128761904Y-51583333D01*
X128761904Y-51821428D01*
X128809523Y-52011904D01*
X128857142Y-52107142D01*
X128904761Y-52154761D01*
X129000000Y-52202380D01*
X129095238Y-52202380D01*
X129190476Y-52154761D01*
X129238095Y-52107142D01*
X129285714Y-52011904D01*
X129333333Y-51821428D01*
X129333333Y-51583333D01*
X129285714Y-51392857D01*
X129238095Y-51297619D01*
X129190476Y-51250000D01*
X129095238Y-51202380D01*
X130642857Y-61502380D02*
X130976190Y-61026190D01*
X131214285Y-61502380D02*
X131214285Y-60502380D01*
X130833333Y-60502380D01*
X130738095Y-60550000D01*
X130690476Y-60597619D01*
X130642857Y-60692857D01*
X130642857Y-60835714D01*
X130690476Y-60930952D01*
X130738095Y-60978571D01*
X130833333Y-61026190D01*
X131214285Y-61026190D01*
X129690476Y-61502380D02*
X130261904Y-61502380D01*
X129976190Y-61502380D02*
X129976190Y-60502380D01*
X130071428Y-60645238D01*
X130166666Y-60740476D01*
X130261904Y-60788095D01*
X129357142Y-60502380D02*
X128738095Y-60502380D01*
X129071428Y-60883333D01*
X128928571Y-60883333D01*
X128833333Y-60930952D01*
X128785714Y-60978571D01*
X128738095Y-61073809D01*
X128738095Y-61311904D01*
X128785714Y-61407142D01*
X128833333Y-61454761D01*
X128928571Y-61502380D01*
X129214285Y-61502380D01*
X129309523Y-61454761D01*
X129357142Y-61407142D01*
X130666666Y-64952380D02*
X131238095Y-64952380D01*
X130952380Y-64952380D02*
X130952380Y-63952380D01*
X131047619Y-64095238D01*
X131142857Y-64190476D01*
X131238095Y-64238095D01*
X130047619Y-63952380D02*
X129952380Y-63952380D01*
X129857142Y-64000000D01*
X129809523Y-64047619D01*
X129761904Y-64142857D01*
X129714285Y-64333333D01*
X129714285Y-64571428D01*
X129761904Y-64761904D01*
X129809523Y-64857142D01*
X129857142Y-64904761D01*
X129952380Y-64952380D01*
X130047619Y-64952380D01*
X130142857Y-64904761D01*
X130190476Y-64857142D01*
X130238095Y-64761904D01*
X130285714Y-64571428D01*
X130285714Y-64333333D01*
X130238095Y-64142857D01*
X130190476Y-64047619D01*
X130142857Y-64000000D01*
X130047619Y-63952380D01*
X129095238Y-63952380D02*
X129000000Y-63952380D01*
X128904761Y-64000000D01*
X128857142Y-64047619D01*
X128809523Y-64142857D01*
X128761904Y-64333333D01*
X128761904Y-64571428D01*
X128809523Y-64761904D01*
X128857142Y-64857142D01*
X128904761Y-64904761D01*
X129000000Y-64952380D01*
X129095238Y-64952380D01*
X129190476Y-64904761D01*
X129238095Y-64857142D01*
X129285714Y-64761904D01*
X129333333Y-64571428D01*
X129333333Y-64333333D01*
X129285714Y-64142857D01*
X129238095Y-64047619D01*
X129190476Y-64000000D01*
X129095238Y-63952380D01*
X135352380Y-90357142D02*
X134876190Y-90023809D01*
X135352380Y-89785714D02*
X134352380Y-89785714D01*
X134352380Y-90166666D01*
X134400000Y-90261904D01*
X134447619Y-90309523D01*
X134542857Y-90357142D01*
X134685714Y-90357142D01*
X134780952Y-90309523D01*
X134828571Y-90261904D01*
X134876190Y-90166666D01*
X134876190Y-89785714D01*
X135352380Y-91309523D02*
X135352380Y-90738095D01*
X135352380Y-91023809D02*
X134352380Y-91023809D01*
X134495238Y-90928571D01*
X134590476Y-90833333D01*
X134638095Y-90738095D01*
X134685714Y-92166666D02*
X135352380Y-92166666D01*
X134304761Y-91928571D02*
X135019047Y-91690476D01*
X135019047Y-92309523D01*
X132366666Y-89452380D02*
X132938095Y-89452380D01*
X132652380Y-89452380D02*
X132652380Y-88452380D01*
X132747619Y-88595238D01*
X132842857Y-88690476D01*
X132938095Y-88738095D01*
X131747619Y-88452380D02*
X131652380Y-88452380D01*
X131557142Y-88500000D01*
X131509523Y-88547619D01*
X131461904Y-88642857D01*
X131414285Y-88833333D01*
X131414285Y-89071428D01*
X131461904Y-89261904D01*
X131509523Y-89357142D01*
X131557142Y-89404761D01*
X131652380Y-89452380D01*
X131747619Y-89452380D01*
X131842857Y-89404761D01*
X131890476Y-89357142D01*
X131938095Y-89261904D01*
X131985714Y-89071428D01*
X131985714Y-88833333D01*
X131938095Y-88642857D01*
X131890476Y-88547619D01*
X131842857Y-88500000D01*
X131747619Y-88452380D01*
X130795238Y-88452380D02*
X130700000Y-88452380D01*
X130604761Y-88500000D01*
X130557142Y-88547619D01*
X130509523Y-88642857D01*
X130461904Y-88833333D01*
X130461904Y-89071428D01*
X130509523Y-89261904D01*
X130557142Y-89357142D01*
X130604761Y-89404761D01*
X130700000Y-89452380D01*
X130795238Y-89452380D01*
X130890476Y-89404761D01*
X130938095Y-89357142D01*
X130985714Y-89261904D01*
X131033333Y-89071428D01*
X131033333Y-88833333D01*
X130985714Y-88642857D01*
X130938095Y-88547619D01*
X130890476Y-88500000D01*
X130795238Y-88452380D01*
X103852380Y-56257142D02*
X103376190Y-55923809D01*
X103852380Y-55685714D02*
X102852380Y-55685714D01*
X102852380Y-56066666D01*
X102900000Y-56161904D01*
X102947619Y-56209523D01*
X103042857Y-56257142D01*
X103185714Y-56257142D01*
X103280952Y-56209523D01*
X103328571Y-56161904D01*
X103376190Y-56066666D01*
X103376190Y-55685714D01*
X103852380Y-57209523D02*
X103852380Y-56638095D01*
X103852380Y-56923809D02*
X102852380Y-56923809D01*
X102995238Y-56828571D01*
X103090476Y-56733333D01*
X103138095Y-56638095D01*
X102852380Y-58114285D02*
X102852380Y-57638095D01*
X103328571Y-57590476D01*
X103280952Y-57638095D01*
X103233333Y-57733333D01*
X103233333Y-57971428D01*
X103280952Y-58066666D01*
X103328571Y-58114285D01*
X103423809Y-58161904D01*
X103661904Y-58161904D01*
X103757142Y-58114285D01*
X103804761Y-58066666D01*
X103852380Y-57971428D01*
X103852380Y-57733333D01*
X103804761Y-57638095D01*
X103757142Y-57590476D01*
X103802380Y-59733333D02*
X103802380Y-59161904D01*
X103802380Y-59447619D02*
X102802380Y-59447619D01*
X102945238Y-59352380D01*
X103040476Y-59257142D01*
X103088095Y-59161904D01*
X102802380Y-60352380D02*
X102802380Y-60447619D01*
X102850000Y-60542857D01*
X102897619Y-60590476D01*
X102992857Y-60638095D01*
X103183333Y-60685714D01*
X103421428Y-60685714D01*
X103611904Y-60638095D01*
X103707142Y-60590476D01*
X103754761Y-60542857D01*
X103802380Y-60447619D01*
X103802380Y-60352380D01*
X103754761Y-60257142D01*
X103707142Y-60209523D01*
X103611904Y-60161904D01*
X103421428Y-60114285D01*
X103183333Y-60114285D01*
X102992857Y-60161904D01*
X102897619Y-60209523D01*
X102850000Y-60257142D01*
X102802380Y-60352380D01*
X102802380Y-61304761D02*
X102802380Y-61400000D01*
X102850000Y-61495238D01*
X102897619Y-61542857D01*
X102992857Y-61590476D01*
X103183333Y-61638095D01*
X103421428Y-61638095D01*
X103611904Y-61590476D01*
X103707142Y-61542857D01*
X103754761Y-61495238D01*
X103802380Y-61400000D01*
X103802380Y-61304761D01*
X103754761Y-61209523D01*
X103707142Y-61161904D01*
X103611904Y-61114285D01*
X103421428Y-61066666D01*
X103183333Y-61066666D01*
X102992857Y-61114285D01*
X102897619Y-61161904D01*
X102850000Y-61209523D01*
X102802380Y-61304761D01*
X103952380Y-63357142D02*
X103476190Y-63023809D01*
X103952380Y-62785714D02*
X102952380Y-62785714D01*
X102952380Y-63166666D01*
X103000000Y-63261904D01*
X103047619Y-63309523D01*
X103142857Y-63357142D01*
X103285714Y-63357142D01*
X103380952Y-63309523D01*
X103428571Y-63261904D01*
X103476190Y-63166666D01*
X103476190Y-62785714D01*
X103952380Y-64309523D02*
X103952380Y-63738095D01*
X103952380Y-64023809D02*
X102952380Y-64023809D01*
X103095238Y-63928571D01*
X103190476Y-63833333D01*
X103238095Y-63738095D01*
X102952380Y-65166666D02*
X102952380Y-64976190D01*
X103000000Y-64880952D01*
X103047619Y-64833333D01*
X103190476Y-64738095D01*
X103380952Y-64690476D01*
X103761904Y-64690476D01*
X103857142Y-64738095D01*
X103904761Y-64785714D01*
X103952380Y-64880952D01*
X103952380Y-65071428D01*
X103904761Y-65166666D01*
X103857142Y-65214285D01*
X103761904Y-65261904D01*
X103523809Y-65261904D01*
X103428571Y-65214285D01*
X103380952Y-65166666D01*
X103333333Y-65071428D01*
X103333333Y-64880952D01*
X103380952Y-64785714D01*
X103428571Y-64738095D01*
X103523809Y-64690476D01*
X100552380Y-63233333D02*
X100552380Y-62661904D01*
X100552380Y-62947619D02*
X99552380Y-62947619D01*
X99695238Y-62852380D01*
X99790476Y-62757142D01*
X99838095Y-62661904D01*
X99552380Y-63852380D02*
X99552380Y-63947619D01*
X99600000Y-64042857D01*
X99647619Y-64090476D01*
X99742857Y-64138095D01*
X99933333Y-64185714D01*
X100171428Y-64185714D01*
X100361904Y-64138095D01*
X100457142Y-64090476D01*
X100504761Y-64042857D01*
X100552380Y-63947619D01*
X100552380Y-63852380D01*
X100504761Y-63757142D01*
X100457142Y-63709523D01*
X100361904Y-63661904D01*
X100171428Y-63614285D01*
X99933333Y-63614285D01*
X99742857Y-63661904D01*
X99647619Y-63709523D01*
X99600000Y-63757142D01*
X99552380Y-63852380D01*
X99552380Y-64804761D02*
X99552380Y-64900000D01*
X99600000Y-64995238D01*
X99647619Y-65042857D01*
X99742857Y-65090476D01*
X99933333Y-65138095D01*
X100171428Y-65138095D01*
X100361904Y-65090476D01*
X100457142Y-65042857D01*
X100504761Y-64995238D01*
X100552380Y-64900000D01*
X100552380Y-64804761D01*
X100504761Y-64709523D01*
X100457142Y-64661904D01*
X100361904Y-64614285D01*
X100171428Y-64566666D01*
X99933333Y-64566666D01*
X99742857Y-64614285D01*
X99647619Y-64661904D01*
X99600000Y-64709523D01*
X99552380Y-64804761D01*
X100452380Y-76357142D02*
X99976190Y-76023809D01*
X100452380Y-75785714D02*
X99452380Y-75785714D01*
X99452380Y-76166666D01*
X99500000Y-76261904D01*
X99547619Y-76309523D01*
X99642857Y-76357142D01*
X99785714Y-76357142D01*
X99880952Y-76309523D01*
X99928571Y-76261904D01*
X99976190Y-76166666D01*
X99976190Y-75785714D01*
X100452380Y-77309523D02*
X100452380Y-76738095D01*
X100452380Y-77023809D02*
X99452380Y-77023809D01*
X99595238Y-76928571D01*
X99690476Y-76833333D01*
X99738095Y-76738095D01*
X99452380Y-77642857D02*
X99452380Y-78309523D01*
X100452380Y-77880952D01*
X102202380Y-72333333D02*
X102202380Y-71761904D01*
X102202380Y-72047619D02*
X101202380Y-72047619D01*
X101345238Y-71952380D01*
X101440476Y-71857142D01*
X101488095Y-71761904D01*
X101202380Y-72952380D02*
X101202380Y-73047619D01*
X101250000Y-73142857D01*
X101297619Y-73190476D01*
X101392857Y-73238095D01*
X101583333Y-73285714D01*
X101821428Y-73285714D01*
X102011904Y-73238095D01*
X102107142Y-73190476D01*
X102154761Y-73142857D01*
X102202380Y-73047619D01*
X102202380Y-72952380D01*
X102154761Y-72857142D01*
X102107142Y-72809523D01*
X102011904Y-72761904D01*
X101821428Y-72714285D01*
X101583333Y-72714285D01*
X101392857Y-72761904D01*
X101297619Y-72809523D01*
X101250000Y-72857142D01*
X101202380Y-72952380D01*
X101202380Y-73904761D02*
X101202380Y-74000000D01*
X101250000Y-74095238D01*
X101297619Y-74142857D01*
X101392857Y-74190476D01*
X101583333Y-74238095D01*
X101821428Y-74238095D01*
X102011904Y-74190476D01*
X102107142Y-74142857D01*
X102154761Y-74095238D01*
X102202380Y-74000000D01*
X102202380Y-73904761D01*
X102154761Y-73809523D01*
X102107142Y-73761904D01*
X102011904Y-73714285D01*
X101821428Y-73666666D01*
X101583333Y-73666666D01*
X101392857Y-73714285D01*
X101297619Y-73761904D01*
X101250000Y-73809523D01*
X101202380Y-73904761D01*
X97952380Y-76357142D02*
X97476190Y-76023809D01*
X97952380Y-75785714D02*
X96952380Y-75785714D01*
X96952380Y-76166666D01*
X97000000Y-76261904D01*
X97047619Y-76309523D01*
X97142857Y-76357142D01*
X97285714Y-76357142D01*
X97380952Y-76309523D01*
X97428571Y-76261904D01*
X97476190Y-76166666D01*
X97476190Y-75785714D01*
X97952380Y-77309523D02*
X97952380Y-76738095D01*
X97952380Y-77023809D02*
X96952380Y-77023809D01*
X97095238Y-76928571D01*
X97190476Y-76833333D01*
X97238095Y-76738095D01*
X97380952Y-77880952D02*
X97333333Y-77785714D01*
X97285714Y-77738095D01*
X97190476Y-77690476D01*
X97142857Y-77690476D01*
X97047619Y-77738095D01*
X97000000Y-77785714D01*
X96952380Y-77880952D01*
X96952380Y-78071428D01*
X97000000Y-78166666D01*
X97047619Y-78214285D01*
X97142857Y-78261904D01*
X97190476Y-78261904D01*
X97285714Y-78214285D01*
X97333333Y-78166666D01*
X97380952Y-78071428D01*
X97380952Y-77880952D01*
X97428571Y-77785714D01*
X97476190Y-77738095D01*
X97571428Y-77690476D01*
X97761904Y-77690476D01*
X97857142Y-77738095D01*
X97904761Y-77785714D01*
X97952380Y-77880952D01*
X97952380Y-78071428D01*
X97904761Y-78166666D01*
X97857142Y-78214285D01*
X97761904Y-78261904D01*
X97571428Y-78261904D01*
X97476190Y-78214285D01*
X97428571Y-78166666D01*
X97380952Y-78071428D01*
X98466666Y-70352380D02*
X99038095Y-70352380D01*
X98752380Y-70352380D02*
X98752380Y-69352380D01*
X98847619Y-69495238D01*
X98942857Y-69590476D01*
X99038095Y-69638095D01*
X97847619Y-69352380D02*
X97752380Y-69352380D01*
X97657142Y-69400000D01*
X97609523Y-69447619D01*
X97561904Y-69542857D01*
X97514285Y-69733333D01*
X97514285Y-69971428D01*
X97561904Y-70161904D01*
X97609523Y-70257142D01*
X97657142Y-70304761D01*
X97752380Y-70352380D01*
X97847619Y-70352380D01*
X97942857Y-70304761D01*
X97990476Y-70257142D01*
X98038095Y-70161904D01*
X98085714Y-69971428D01*
X98085714Y-69733333D01*
X98038095Y-69542857D01*
X97990476Y-69447619D01*
X97942857Y-69400000D01*
X97847619Y-69352380D01*
X96895238Y-69352380D02*
X96800000Y-69352380D01*
X96704761Y-69400000D01*
X96657142Y-69447619D01*
X96609523Y-69542857D01*
X96561904Y-69733333D01*
X96561904Y-69971428D01*
X96609523Y-70161904D01*
X96657142Y-70257142D01*
X96704761Y-70304761D01*
X96800000Y-70352380D01*
X96895238Y-70352380D01*
X96990476Y-70304761D01*
X97038095Y-70257142D01*
X97085714Y-70161904D01*
X97133333Y-69971428D01*
X97133333Y-69733333D01*
X97085714Y-69542857D01*
X97038095Y-69447619D01*
X96990476Y-69400000D01*
X96895238Y-69352380D01*
X102392857Y-107452380D02*
X102726190Y-106976190D01*
X102964285Y-107452380D02*
X102964285Y-106452380D01*
X102583333Y-106452380D01*
X102488095Y-106500000D01*
X102440476Y-106547619D01*
X102392857Y-106642857D01*
X102392857Y-106785714D01*
X102440476Y-106880952D01*
X102488095Y-106928571D01*
X102583333Y-106976190D01*
X102964285Y-106976190D01*
X101440476Y-107452380D02*
X102011904Y-107452380D01*
X101726190Y-107452380D02*
X101726190Y-106452380D01*
X101821428Y-106595238D01*
X101916666Y-106690476D01*
X102011904Y-106738095D01*
X100964285Y-107452380D02*
X100773809Y-107452380D01*
X100678571Y-107404761D01*
X100630952Y-107357142D01*
X100535714Y-107214285D01*
X100488095Y-107023809D01*
X100488095Y-106642857D01*
X100535714Y-106547619D01*
X100583333Y-106500000D01*
X100678571Y-106452380D01*
X100869047Y-106452380D01*
X100964285Y-106500000D01*
X101011904Y-106547619D01*
X101059523Y-106642857D01*
X101059523Y-106880952D01*
X101011904Y-106976190D01*
X100964285Y-107023809D01*
X100869047Y-107071428D01*
X100678571Y-107071428D01*
X100583333Y-107023809D01*
X100535714Y-106976190D01*
X100488095Y-106880952D01*
X102416666Y-104002380D02*
X102988095Y-104002380D01*
X102702380Y-104002380D02*
X102702380Y-103002380D01*
X102797619Y-103145238D01*
X102892857Y-103240476D01*
X102988095Y-103288095D01*
X101797619Y-103002380D02*
X101702380Y-103002380D01*
X101607142Y-103050000D01*
X101559523Y-103097619D01*
X101511904Y-103192857D01*
X101464285Y-103383333D01*
X101464285Y-103621428D01*
X101511904Y-103811904D01*
X101559523Y-103907142D01*
X101607142Y-103954761D01*
X101702380Y-104002380D01*
X101797619Y-104002380D01*
X101892857Y-103954761D01*
X101940476Y-103907142D01*
X101988095Y-103811904D01*
X102035714Y-103621428D01*
X102035714Y-103383333D01*
X101988095Y-103192857D01*
X101940476Y-103097619D01*
X101892857Y-103050000D01*
X101797619Y-103002380D01*
X100845238Y-103002380D02*
X100750000Y-103002380D01*
X100654761Y-103050000D01*
X100607142Y-103097619D01*
X100559523Y-103192857D01*
X100511904Y-103383333D01*
X100511904Y-103621428D01*
X100559523Y-103811904D01*
X100607142Y-103907142D01*
X100654761Y-103954761D01*
X100750000Y-104002380D01*
X100845238Y-104002380D01*
X100940476Y-103954761D01*
X100988095Y-103907142D01*
X101035714Y-103811904D01*
X101083333Y-103621428D01*
X101083333Y-103383333D01*
X101035714Y-103192857D01*
X100988095Y-103097619D01*
X100940476Y-103050000D01*
X100845238Y-103002380D01*
X132402380Y-94357142D02*
X131926190Y-94023809D01*
X132402380Y-93785714D02*
X131402380Y-93785714D01*
X131402380Y-94166666D01*
X131450000Y-94261904D01*
X131497619Y-94309523D01*
X131592857Y-94357142D01*
X131735714Y-94357142D01*
X131830952Y-94309523D01*
X131878571Y-94261904D01*
X131926190Y-94166666D01*
X131926190Y-93785714D01*
X131497619Y-94738095D02*
X131450000Y-94785714D01*
X131402380Y-94880952D01*
X131402380Y-95119047D01*
X131450000Y-95214285D01*
X131497619Y-95261904D01*
X131592857Y-95309523D01*
X131688095Y-95309523D01*
X131830952Y-95261904D01*
X132402380Y-94690476D01*
X132402380Y-95309523D01*
X131402380Y-95928571D02*
X131402380Y-96023809D01*
X131450000Y-96119047D01*
X131497619Y-96166666D01*
X131592857Y-96214285D01*
X131783333Y-96261904D01*
X132021428Y-96261904D01*
X132211904Y-96214285D01*
X132307142Y-96166666D01*
X132354761Y-96119047D01*
X132402380Y-96023809D01*
X132402380Y-95928571D01*
X132354761Y-95833333D01*
X132307142Y-95785714D01*
X132211904Y-95738095D01*
X132021428Y-95690476D01*
X131783333Y-95690476D01*
X131592857Y-95738095D01*
X131497619Y-95785714D01*
X131450000Y-95833333D01*
X131402380Y-95928571D01*
X133952380Y-94533333D02*
X133952380Y-93961904D01*
X133952380Y-94247619D02*
X132952380Y-94247619D01*
X133095238Y-94152380D01*
X133190476Y-94057142D01*
X133238095Y-93961904D01*
X132952380Y-95152380D02*
X132952380Y-95247619D01*
X133000000Y-95342857D01*
X133047619Y-95390476D01*
X133142857Y-95438095D01*
X133333333Y-95485714D01*
X133571428Y-95485714D01*
X133761904Y-95438095D01*
X133857142Y-95390476D01*
X133904761Y-95342857D01*
X133952380Y-95247619D01*
X133952380Y-95152380D01*
X133904761Y-95057142D01*
X133857142Y-95009523D01*
X133761904Y-94961904D01*
X133571428Y-94914285D01*
X133333333Y-94914285D01*
X133142857Y-94961904D01*
X133047619Y-95009523D01*
X133000000Y-95057142D01*
X132952380Y-95152380D01*
X132952380Y-96104761D02*
X132952380Y-96200000D01*
X133000000Y-96295238D01*
X133047619Y-96342857D01*
X133142857Y-96390476D01*
X133333333Y-96438095D01*
X133571428Y-96438095D01*
X133761904Y-96390476D01*
X133857142Y-96342857D01*
X133904761Y-96295238D01*
X133952380Y-96200000D01*
X133952380Y-96104761D01*
X133904761Y-96009523D01*
X133857142Y-95961904D01*
X133761904Y-95914285D01*
X133571428Y-95866666D01*
X133333333Y-95866666D01*
X133142857Y-95914285D01*
X133047619Y-95961904D01*
X133000000Y-96009523D01*
X132952380Y-96104761D01*
X129192857Y-80552380D02*
X129526190Y-80076190D01*
X129764285Y-80552380D02*
X129764285Y-79552380D01*
X129383333Y-79552380D01*
X129288095Y-79600000D01*
X129240476Y-79647619D01*
X129192857Y-79742857D01*
X129192857Y-79885714D01*
X129240476Y-79980952D01*
X129288095Y-80028571D01*
X129383333Y-80076190D01*
X129764285Y-80076190D01*
X128811904Y-79647619D02*
X128764285Y-79600000D01*
X128669047Y-79552380D01*
X128430952Y-79552380D01*
X128335714Y-79600000D01*
X128288095Y-79647619D01*
X128240476Y-79742857D01*
X128240476Y-79838095D01*
X128288095Y-79980952D01*
X128859523Y-80552380D01*
X128240476Y-80552380D01*
X127288095Y-80552380D02*
X127859523Y-80552380D01*
X127573809Y-80552380D02*
X127573809Y-79552380D01*
X127669047Y-79695238D01*
X127764285Y-79790476D01*
X127859523Y-79838095D01*
X129216666Y-84002380D02*
X129788095Y-84002380D01*
X129502380Y-84002380D02*
X129502380Y-83002380D01*
X129597619Y-83145238D01*
X129692857Y-83240476D01*
X129788095Y-83288095D01*
X128597619Y-83002380D02*
X128502380Y-83002380D01*
X128407142Y-83050000D01*
X128359523Y-83097619D01*
X128311904Y-83192857D01*
X128264285Y-83383333D01*
X128264285Y-83621428D01*
X128311904Y-83811904D01*
X128359523Y-83907142D01*
X128407142Y-83954761D01*
X128502380Y-84002380D01*
X128597619Y-84002380D01*
X128692857Y-83954761D01*
X128740476Y-83907142D01*
X128788095Y-83811904D01*
X128835714Y-83621428D01*
X128835714Y-83383333D01*
X128788095Y-83192857D01*
X128740476Y-83097619D01*
X128692857Y-83050000D01*
X128597619Y-83002380D01*
X127645238Y-83002380D02*
X127550000Y-83002380D01*
X127454761Y-83050000D01*
X127407142Y-83097619D01*
X127359523Y-83192857D01*
X127311904Y-83383333D01*
X127311904Y-83621428D01*
X127359523Y-83811904D01*
X127407142Y-83907142D01*
X127454761Y-83954761D01*
X127550000Y-84002380D01*
X127645238Y-84002380D01*
X127740476Y-83954761D01*
X127788095Y-83907142D01*
X127835714Y-83811904D01*
X127883333Y-83621428D01*
X127883333Y-83383333D01*
X127835714Y-83192857D01*
X127788095Y-83097619D01*
X127740476Y-83050000D01*
X127645238Y-83002380D01*
X118902380Y-103257142D02*
X118426190Y-102923809D01*
X118902380Y-102685714D02*
X117902380Y-102685714D01*
X117902380Y-103066666D01*
X117950000Y-103161904D01*
X117997619Y-103209523D01*
X118092857Y-103257142D01*
X118235714Y-103257142D01*
X118330952Y-103209523D01*
X118378571Y-103161904D01*
X118426190Y-103066666D01*
X118426190Y-102685714D01*
X117997619Y-103638095D02*
X117950000Y-103685714D01*
X117902380Y-103780952D01*
X117902380Y-104019047D01*
X117950000Y-104114285D01*
X117997619Y-104161904D01*
X118092857Y-104209523D01*
X118188095Y-104209523D01*
X118330952Y-104161904D01*
X118902380Y-103590476D01*
X118902380Y-104209523D01*
X117997619Y-104590476D02*
X117950000Y-104638095D01*
X117902380Y-104733333D01*
X117902380Y-104971428D01*
X117950000Y-105066666D01*
X117997619Y-105114285D01*
X118092857Y-105161904D01*
X118188095Y-105161904D01*
X118330952Y-105114285D01*
X118902380Y-104542857D01*
X118902380Y-105161904D01*
X115452380Y-103233333D02*
X115452380Y-102661904D01*
X115452380Y-102947619D02*
X114452380Y-102947619D01*
X114595238Y-102852380D01*
X114690476Y-102757142D01*
X114738095Y-102661904D01*
X114452380Y-103852380D02*
X114452380Y-103947619D01*
X114500000Y-104042857D01*
X114547619Y-104090476D01*
X114642857Y-104138095D01*
X114833333Y-104185714D01*
X115071428Y-104185714D01*
X115261904Y-104138095D01*
X115357142Y-104090476D01*
X115404761Y-104042857D01*
X115452380Y-103947619D01*
X115452380Y-103852380D01*
X115404761Y-103757142D01*
X115357142Y-103709523D01*
X115261904Y-103661904D01*
X115071428Y-103614285D01*
X114833333Y-103614285D01*
X114642857Y-103661904D01*
X114547619Y-103709523D01*
X114500000Y-103757142D01*
X114452380Y-103852380D01*
X114452380Y-104804761D02*
X114452380Y-104900000D01*
X114500000Y-104995238D01*
X114547619Y-105042857D01*
X114642857Y-105090476D01*
X114833333Y-105138095D01*
X115071428Y-105138095D01*
X115261904Y-105090476D01*
X115357142Y-105042857D01*
X115404761Y-104995238D01*
X115452380Y-104900000D01*
X115452380Y-104804761D01*
X115404761Y-104709523D01*
X115357142Y-104661904D01*
X115261904Y-104614285D01*
X115071428Y-104566666D01*
X114833333Y-104566666D01*
X114642857Y-104614285D01*
X114547619Y-104661904D01*
X114500000Y-104709523D01*
X114452380Y-104804761D01*
X134052380Y-106738095D02*
X134052380Y-106547619D01*
X134100000Y-106452380D01*
X134147619Y-106404761D01*
X134290476Y-106309523D01*
X134480952Y-106261904D01*
X134861904Y-106261904D01*
X134957142Y-106309523D01*
X135004761Y-106357142D01*
X135052380Y-106452380D01*
X135052380Y-106642857D01*
X135004761Y-106738095D01*
X134957142Y-106785714D01*
X134861904Y-106833333D01*
X134623809Y-106833333D01*
X134528571Y-106785714D01*
X134480952Y-106738095D01*
X134433333Y-106642857D01*
X134433333Y-106452380D01*
X134480952Y-106357142D01*
X134528571Y-106309523D01*
X134623809Y-106261904D01*
X135052380Y-107261904D02*
X134052380Y-107261904D01*
X135052380Y-107833333D01*
X134052380Y-107833333D01*
X135052380Y-108833333D02*
X135052380Y-108261904D01*
X135052380Y-108547619D02*
X134052380Y-108547619D01*
X134195238Y-108452380D01*
X134290476Y-108357142D01*
X134338095Y-108261904D01*
X134052380Y-109166666D02*
X134052380Y-109785714D01*
X134433333Y-109452380D01*
X134433333Y-109595238D01*
X134480952Y-109690476D01*
X134528571Y-109738095D01*
X134623809Y-109785714D01*
X134861904Y-109785714D01*
X134957142Y-109738095D01*
X135004761Y-109690476D01*
X135052380Y-109595238D01*
X135052380Y-109309523D01*
X135004761Y-109214285D01*
X134957142Y-109166666D01*
X134052380Y-110119047D02*
X134052380Y-110785714D01*
X135052380Y-110357142D01*
X121676190Y-109052380D02*
X122152380Y-109052380D01*
X122152380Y-108052380D01*
X121342857Y-109052380D02*
X121342857Y-108052380D01*
X121009523Y-108766666D01*
X120676190Y-108052380D01*
X120676190Y-109052380D01*
X119676190Y-109052380D02*
X120247619Y-109052380D01*
X119961904Y-109052380D02*
X119961904Y-108052380D01*
X120057142Y-108195238D01*
X120152380Y-108290476D01*
X120247619Y-108338095D01*
X118723809Y-109052380D02*
X119295238Y-109052380D01*
X119009523Y-109052380D02*
X119009523Y-108052380D01*
X119104761Y-108195238D01*
X119200000Y-108290476D01*
X119295238Y-108338095D01*
X117771428Y-109052380D02*
X118342857Y-109052380D01*
X118057142Y-109052380D02*
X118057142Y-108052380D01*
X118152380Y-108195238D01*
X118247619Y-108290476D01*
X118342857Y-108338095D01*
X117438095Y-108052380D02*
X116771428Y-108052380D01*
X117200000Y-109052380D01*
X116390476Y-108671428D02*
X115628571Y-108671428D01*
X114676190Y-108052380D02*
X115152380Y-108052380D01*
X115200000Y-108528571D01*
X115152380Y-108480952D01*
X115057142Y-108433333D01*
X114819047Y-108433333D01*
X114723809Y-108480952D01*
X114676190Y-108528571D01*
X114628571Y-108623809D01*
X114628571Y-108861904D01*
X114676190Y-108957142D01*
X114723809Y-109004761D01*
X114819047Y-109052380D01*
X115057142Y-109052380D01*
X115152380Y-109004761D01*
X115200000Y-108957142D01*
X114200000Y-108957142D02*
X114152380Y-109004761D01*
X114200000Y-109052380D01*
X114247619Y-109004761D01*
X114200000Y-108957142D01*
X114200000Y-109052380D01*
X113533333Y-108052380D02*
X113438095Y-108052380D01*
X113342857Y-108100000D01*
X113295238Y-108147619D01*
X113247619Y-108242857D01*
X113200000Y-108433333D01*
X113200000Y-108671428D01*
X113247619Y-108861904D01*
X113295238Y-108957142D01*
X113342857Y-109004761D01*
X113438095Y-109052380D01*
X113533333Y-109052380D01*
X113628571Y-109004761D01*
X113676190Y-108957142D01*
X113723809Y-108861904D01*
X113771428Y-108671428D01*
X113771428Y-108433333D01*
X113723809Y-108242857D01*
X113676190Y-108147619D01*
X113628571Y-108100000D01*
X113533333Y-108052380D01*
X105252380Y-127223809D02*
X105252380Y-126747619D01*
X104252380Y-126747619D01*
X105252380Y-127557142D02*
X104252380Y-127557142D01*
X104966666Y-127890476D01*
X104252380Y-128223809D01*
X105252380Y-128223809D01*
X105252380Y-129223809D02*
X105252380Y-128652380D01*
X105252380Y-128938095D02*
X104252380Y-128938095D01*
X104395238Y-128842857D01*
X104490476Y-128747619D01*
X104538095Y-128652380D01*
X105252380Y-130176190D02*
X105252380Y-129604761D01*
X105252380Y-129890476D02*
X104252380Y-129890476D01*
X104395238Y-129795238D01*
X104490476Y-129700000D01*
X104538095Y-129604761D01*
X105252380Y-131128571D02*
X105252380Y-130557142D01*
X105252380Y-130842857D02*
X104252380Y-130842857D01*
X104395238Y-130747619D01*
X104490476Y-130652380D01*
X104538095Y-130557142D01*
X104252380Y-131461904D02*
X104252380Y-132128571D01*
X105252380Y-131700000D01*
X104871428Y-132509523D02*
X104871428Y-133271428D01*
X104252380Y-133652380D02*
X104252380Y-134271428D01*
X104633333Y-133938095D01*
X104633333Y-134080952D01*
X104680952Y-134176190D01*
X104728571Y-134223809D01*
X104823809Y-134271428D01*
X105061904Y-134271428D01*
X105157142Y-134223809D01*
X105204761Y-134176190D01*
X105252380Y-134080952D01*
X105252380Y-133795238D01*
X105204761Y-133700000D01*
X105157142Y-133652380D01*
X105157142Y-134700000D02*
X105204761Y-134747619D01*
X105252380Y-134700000D01*
X105204761Y-134652380D01*
X105157142Y-134700000D01*
X105252380Y-134700000D01*
X104252380Y-135080952D02*
X104252380Y-135700000D01*
X104633333Y-135366666D01*
X104633333Y-135509523D01*
X104680952Y-135604761D01*
X104728571Y-135652380D01*
X104823809Y-135700000D01*
X105061904Y-135700000D01*
X105157142Y-135652380D01*
X105204761Y-135604761D01*
X105252380Y-135509523D01*
X105252380Y-135223809D01*
X105204761Y-135128571D01*
X105157142Y-135080952D01*
X115142857Y-63752380D02*
X115142857Y-62752380D01*
X114809523Y-63466666D01*
X114476190Y-62752380D01*
X114476190Y-63752380D01*
X114047619Y-63466666D02*
X113571428Y-63466666D01*
X114142857Y-63752380D02*
X113809523Y-62752380D01*
X113476190Y-63752380D01*
X113238095Y-62752380D02*
X112571428Y-63752380D01*
X112571428Y-62752380D02*
X113238095Y-63752380D01*
X111714285Y-62752380D02*
X112190476Y-62752380D01*
X112238095Y-63228571D01*
X112190476Y-63180952D01*
X112095238Y-63133333D01*
X111857142Y-63133333D01*
X111761904Y-63180952D01*
X111714285Y-63228571D01*
X111666666Y-63323809D01*
X111666666Y-63561904D01*
X111714285Y-63657142D01*
X111761904Y-63704761D01*
X111857142Y-63752380D01*
X112095238Y-63752380D01*
X112190476Y-63704761D01*
X112238095Y-63657142D01*
X110714285Y-63752380D02*
X111285714Y-63752380D01*
X111000000Y-63752380D02*
X111000000Y-62752380D01*
X111095238Y-62895238D01*
X111190476Y-62990476D01*
X111285714Y-63038095D01*
X110380952Y-62752380D02*
X109761904Y-62752380D01*
X110095238Y-63133333D01*
X109952380Y-63133333D01*
X109857142Y-63180952D01*
X109809523Y-63228571D01*
X109761904Y-63323809D01*
X109761904Y-63561904D01*
X109809523Y-63657142D01*
X109857142Y-63704761D01*
X109952380Y-63752380D01*
X110238095Y-63752380D01*
X110333333Y-63704761D01*
X110380952Y-63657142D01*
X108904761Y-63085714D02*
X108904761Y-63752380D01*
X109142857Y-62704761D02*
X109380952Y-63419047D01*
X108761904Y-63419047D01*
X112785714Y-78357142D02*
X112833333Y-78404761D01*
X112976190Y-78452380D01*
X113071428Y-78452380D01*
X113214285Y-78404761D01*
X113309523Y-78309523D01*
X113357142Y-78214285D01*
X113404761Y-78023809D01*
X113404761Y-77880952D01*
X113357142Y-77690476D01*
X113309523Y-77595238D01*
X113214285Y-77500000D01*
X113071428Y-77452380D01*
X112976190Y-77452380D01*
X112833333Y-77500000D01*
X112785714Y-77547619D01*
X112357142Y-78452380D02*
X112357142Y-77785714D01*
X112357142Y-77976190D02*
X112309523Y-77880952D01*
X112261904Y-77833333D01*
X112166666Y-77785714D01*
X112071428Y-77785714D01*
X111833333Y-77785714D02*
X111595238Y-78452380D01*
X111357142Y-77785714D02*
X111595238Y-78452380D01*
X111690476Y-78690476D01*
X111738095Y-78738095D01*
X111833333Y-78785714D01*
X111023809Y-78404761D02*
X110928571Y-78452380D01*
X110738095Y-78452380D01*
X110642857Y-78404761D01*
X110595238Y-78309523D01*
X110595238Y-78261904D01*
X110642857Y-78166666D01*
X110738095Y-78119047D01*
X110880952Y-78119047D01*
X110976190Y-78071428D01*
X111023809Y-77976190D01*
X111023809Y-77928571D01*
X110976190Y-77833333D01*
X110880952Y-77785714D01*
X110738095Y-77785714D01*
X110642857Y-77833333D01*
X110309523Y-77785714D02*
X109928571Y-77785714D01*
X110166666Y-77452380D02*
X110166666Y-78309523D01*
X110119047Y-78404761D01*
X110023809Y-78452380D01*
X109928571Y-78452380D01*
X109166666Y-78452380D02*
X109166666Y-77928571D01*
X109214285Y-77833333D01*
X109309523Y-77785714D01*
X109500000Y-77785714D01*
X109595238Y-77833333D01*
X109166666Y-78404761D02*
X109261904Y-78452380D01*
X109500000Y-78452380D01*
X109595238Y-78404761D01*
X109642857Y-78309523D01*
X109642857Y-78214285D01*
X109595238Y-78119047D01*
X109500000Y-78071428D01*
X109261904Y-78071428D01*
X109166666Y-78023809D01*
X108547619Y-78452380D02*
X108642857Y-78404761D01*
X108690476Y-78309523D01*
X108690476Y-77452380D01*
X132738095Y-116952380D02*
X132738095Y-115952380D01*
X132500000Y-115952380D01*
X132357142Y-116000000D01*
X132261904Y-116095238D01*
X132214285Y-116190476D01*
X132166666Y-116380952D01*
X132166666Y-116523809D01*
X132214285Y-116714285D01*
X132261904Y-116809523D01*
X132357142Y-116904761D01*
X132500000Y-116952380D01*
X132738095Y-116952380D01*
X131833333Y-115952380D02*
X131214285Y-115952380D01*
X131547619Y-116333333D01*
X131404761Y-116333333D01*
X131309523Y-116380952D01*
X131261904Y-116428571D01*
X131214285Y-116523809D01*
X131214285Y-116761904D01*
X131261904Y-116857142D01*
X131309523Y-116904761D01*
X131404761Y-116952380D01*
X131690476Y-116952380D01*
X131785714Y-116904761D01*
X131833333Y-116857142D01*
X131114285Y-118652380D02*
X131685714Y-118652380D01*
X131400000Y-118652380D02*
X131400000Y-117652380D01*
X131495238Y-117795238D01*
X131590476Y-117890476D01*
X131685714Y-117938095D01*
X130685714Y-118652380D02*
X130685714Y-117652380D01*
X130114285Y-118652380D01*
X130114285Y-117652380D01*
X129209523Y-117985714D02*
X129209523Y-118652380D01*
X129447619Y-117604761D02*
X129685714Y-118319047D01*
X129066666Y-118319047D01*
X128161904Y-118652380D02*
X128733333Y-118652380D01*
X128447619Y-118652380D02*
X128447619Y-117652380D01*
X128542857Y-117795238D01*
X128638095Y-117890476D01*
X128733333Y-117938095D01*
X127304761Y-117985714D02*
X127304761Y-118652380D01*
X127542857Y-117604761D02*
X127780952Y-118319047D01*
X127161904Y-118319047D01*
X126638095Y-118080952D02*
X126733333Y-118033333D01*
X126780952Y-117985714D01*
X126828571Y-117890476D01*
X126828571Y-117842857D01*
X126780952Y-117747619D01*
X126733333Y-117700000D01*
X126638095Y-117652380D01*
X126447619Y-117652380D01*
X126352380Y-117700000D01*
X126304761Y-117747619D01*
X126257142Y-117842857D01*
X126257142Y-117890476D01*
X126304761Y-117985714D01*
X126352380Y-118033333D01*
X126447619Y-118080952D01*
X126638095Y-118080952D01*
X126733333Y-118128571D01*
X126780952Y-118176190D01*
X126828571Y-118271428D01*
X126828571Y-118461904D01*
X126780952Y-118557142D01*
X126733333Y-118604761D01*
X126638095Y-118652380D01*
X126447619Y-118652380D01*
X126352380Y-118604761D01*
X126304761Y-118557142D01*
X126257142Y-118461904D01*
X126257142Y-118271428D01*
X126304761Y-118176190D01*
X126352380Y-118128571D01*
X126447619Y-118080952D01*
X125923809Y-117652380D02*
X125685714Y-118652380D01*
X125495238Y-117938095D01*
X125304761Y-118652380D01*
X125066666Y-117652380D01*
M02*
