G04 #@! TF.GenerationSoftware,KiCad,Pcbnew,(6.0.11)*
G04 #@! TF.CreationDate,2023-03-02T17:23:34+00:00*
G04 #@! TF.ProjectId,QMidiMonger_controls,514d6964-694d-46f6-9e67-65725f636f6e,rev?*
G04 #@! TF.SameCoordinates,Original*
G04 #@! TF.FileFunction,Legend,Top*
G04 #@! TF.FilePolarity,Positive*
%FSLAX46Y46*%
G04 Gerber Fmt 4.6, Leading zero omitted, Abs format (unit mm)*
G04 Created by KiCad (PCBNEW (6.0.11)) date 2023-03-02 17:23:34*
%MOMM*%
%LPD*%
G01*
G04 APERTURE LIST*
%ADD10C,0.300000*%
%ADD11C,0.120000*%
%ADD12C,0.127000*%
%ADD13C,0.152400*%
%ADD14C,0.200000*%
%ADD15C,3.650000*%
G04 APERTURE END LIST*
D10*
X103878571Y-137692857D02*
X105092857Y-137692857D01*
X105235714Y-137621428D01*
X105307142Y-137550000D01*
X105378571Y-137407142D01*
X105378571Y-137121428D01*
X105307142Y-136978571D01*
X105235714Y-136907142D01*
X105092857Y-136835714D01*
X103878571Y-136835714D01*
X105307142Y-136192857D02*
X105378571Y-135978571D01*
X105378571Y-135621428D01*
X105307142Y-135478571D01*
X105235714Y-135407142D01*
X105092857Y-135335714D01*
X104950000Y-135335714D01*
X104807142Y-135407142D01*
X104735714Y-135478571D01*
X104664285Y-135621428D01*
X104592857Y-135907142D01*
X104521428Y-136050000D01*
X104450000Y-136121428D01*
X104307142Y-136192857D01*
X104164285Y-136192857D01*
X104021428Y-136121428D01*
X103950000Y-136050000D01*
X103878571Y-135907142D01*
X103878571Y-135550000D01*
X103950000Y-135335714D01*
X104592857Y-134192857D02*
X104664285Y-133978571D01*
X104735714Y-133907142D01*
X104878571Y-133835714D01*
X105092857Y-133835714D01*
X105235714Y-133907142D01*
X105307142Y-133978571D01*
X105378571Y-134121428D01*
X105378571Y-134692857D01*
X103878571Y-134692857D01*
X103878571Y-134192857D01*
X103950000Y-134050000D01*
X104021428Y-133978571D01*
X104164285Y-133907142D01*
X104307142Y-133907142D01*
X104450000Y-133978571D01*
X104521428Y-134050000D01*
X104592857Y-134192857D01*
X104592857Y-134692857D01*
X128525000Y-115750000D02*
X128525000Y-115035714D01*
X128953571Y-115892857D02*
X127453571Y-115392857D01*
X128953571Y-114892857D01*
X127953571Y-113750000D02*
X128953571Y-113750000D01*
X127953571Y-114392857D02*
X128739285Y-114392857D01*
X128882142Y-114321428D01*
X128953571Y-114178571D01*
X128953571Y-113964285D01*
X128882142Y-113821428D01*
X128810714Y-113750000D01*
X128953571Y-112392857D02*
X127453571Y-112392857D01*
X128882142Y-112392857D02*
X128953571Y-112535714D01*
X128953571Y-112821428D01*
X128882142Y-112964285D01*
X128810714Y-113035714D01*
X128667857Y-113107142D01*
X128239285Y-113107142D01*
X128096428Y-113035714D01*
X128025000Y-112964285D01*
X127953571Y-112821428D01*
X127953571Y-112535714D01*
X128025000Y-112392857D01*
X128953571Y-111678571D02*
X127953571Y-111678571D01*
X127453571Y-111678571D02*
X127525000Y-111750000D01*
X127596428Y-111678571D01*
X127525000Y-111607142D01*
X127453571Y-111678571D01*
X127596428Y-111678571D01*
X128953571Y-110750000D02*
X128882142Y-110892857D01*
X128810714Y-110964285D01*
X128667857Y-111035714D01*
X128239285Y-111035714D01*
X128096428Y-110964285D01*
X128025000Y-110892857D01*
X127953571Y-110750000D01*
X127953571Y-110535714D01*
X128025000Y-110392857D01*
X128096428Y-110321428D01*
X128239285Y-110250000D01*
X128667857Y-110250000D01*
X128810714Y-110321428D01*
X128882142Y-110392857D01*
X128953571Y-110535714D01*
X128953571Y-110750000D01*
X123700000Y-57950000D02*
X123557142Y-57878571D01*
X123342857Y-57878571D01*
X123128571Y-57950000D01*
X122985714Y-58092857D01*
X122914285Y-58235714D01*
X122842857Y-58521428D01*
X122842857Y-58735714D01*
X122914285Y-59021428D01*
X122985714Y-59164285D01*
X123128571Y-59307142D01*
X123342857Y-59378571D01*
X123485714Y-59378571D01*
X123700000Y-59307142D01*
X123771428Y-59235714D01*
X123771428Y-58735714D01*
X123485714Y-58735714D01*
X124342857Y-58950000D02*
X125057142Y-58950000D01*
X124200000Y-59378571D02*
X124700000Y-57878571D01*
X125200000Y-59378571D01*
X125485714Y-57878571D02*
X126342857Y-57878571D01*
X125914285Y-59378571D02*
X125914285Y-57878571D01*
X126842857Y-58592857D02*
X127342857Y-58592857D01*
X127557142Y-59378571D02*
X126842857Y-59378571D01*
X126842857Y-57878571D01*
X127557142Y-57878571D01*
X126160714Y-117478571D02*
X126160714Y-118478571D01*
X125803571Y-116907142D02*
X125446428Y-117978571D01*
X126375000Y-117978571D01*
X135103571Y-126178571D02*
X134246428Y-126178571D01*
X134675000Y-126178571D02*
X134675000Y-124678571D01*
X134532142Y-124892857D01*
X134389285Y-125035714D01*
X134246428Y-125107142D01*
X134860714Y-117478571D02*
X134860714Y-118478571D01*
X134503571Y-116907142D02*
X134146428Y-117978571D01*
X135075000Y-117978571D01*
X130125000Y-115057142D02*
X130053571Y-115200000D01*
X130053571Y-115414285D01*
X130125000Y-115628571D01*
X130267857Y-115771428D01*
X130410714Y-115842857D01*
X130696428Y-115914285D01*
X130910714Y-115914285D01*
X131196428Y-115842857D01*
X131339285Y-115771428D01*
X131482142Y-115628571D01*
X131553571Y-115414285D01*
X131553571Y-115271428D01*
X131482142Y-115057142D01*
X131410714Y-114985714D01*
X130910714Y-114985714D01*
X130910714Y-115271428D01*
X131553571Y-113700000D02*
X130767857Y-113700000D01*
X130625000Y-113771428D01*
X130553571Y-113914285D01*
X130553571Y-114200000D01*
X130625000Y-114342857D01*
X131482142Y-113700000D02*
X131553571Y-113842857D01*
X131553571Y-114200000D01*
X131482142Y-114342857D01*
X131339285Y-114414285D01*
X131196428Y-114414285D01*
X131053571Y-114342857D01*
X130982142Y-114200000D01*
X130982142Y-113842857D01*
X130910714Y-113700000D01*
X130553571Y-113200000D02*
X130553571Y-112628571D01*
X130053571Y-112985714D02*
X131339285Y-112985714D01*
X131482142Y-112914285D01*
X131553571Y-112771428D01*
X131553571Y-112628571D01*
X131482142Y-111557142D02*
X131553571Y-111700000D01*
X131553571Y-111985714D01*
X131482142Y-112128571D01*
X131339285Y-112200000D01*
X130767857Y-112200000D01*
X130625000Y-112128571D01*
X130553571Y-111985714D01*
X130553571Y-111700000D01*
X130625000Y-111557142D01*
X130767857Y-111485714D01*
X130910714Y-111485714D01*
X131053571Y-112200000D01*
X124121428Y-120235714D02*
X125621428Y-120235714D01*
X124550000Y-120735714D01*
X125621428Y-121235714D01*
X124121428Y-121235714D01*
X124121428Y-121950000D02*
X125621428Y-121950000D01*
X124121428Y-122664285D02*
X125621428Y-122664285D01*
X125621428Y-123021428D01*
X125550000Y-123235714D01*
X125407142Y-123378571D01*
X125264285Y-123450000D01*
X124978571Y-123521428D01*
X124764285Y-123521428D01*
X124478571Y-123450000D01*
X124335714Y-123378571D01*
X124192857Y-123235714D01*
X124121428Y-123021428D01*
X124121428Y-122664285D01*
X124121428Y-124164285D02*
X125621428Y-124164285D01*
X106521428Y-59235714D02*
X106450000Y-59307142D01*
X106235714Y-59378571D01*
X106092857Y-59378571D01*
X105878571Y-59307142D01*
X105735714Y-59164285D01*
X105664285Y-59021428D01*
X105592857Y-58735714D01*
X105592857Y-58521428D01*
X105664285Y-58235714D01*
X105735714Y-58092857D01*
X105878571Y-57950000D01*
X106092857Y-57878571D01*
X106235714Y-57878571D01*
X106450000Y-57950000D01*
X106521428Y-58021428D01*
X106950000Y-57878571D02*
X107450000Y-59378571D01*
X107950000Y-57878571D01*
X126403571Y-126178571D02*
X125546428Y-126178571D01*
X125975000Y-126178571D02*
X125975000Y-124678571D01*
X125832142Y-124892857D01*
X125689285Y-125035714D01*
X125546428Y-125107142D01*
D11*
X112420000Y-46040000D02*
X112264000Y-46040000D01*
X114736000Y-46040000D02*
X114580000Y-46040000D01*
X112420000Y-46559039D02*
G75*
G03*
X112420163Y-48641130I1080000J-1040961D01*
G01*
X114578608Y-49272335D02*
G75*
G03*
X114735516Y-46040000I-1078608J1672335D01*
G01*
X112264484Y-46040000D02*
G75*
G03*
X112421392Y-49272335I1235516J-1560000D01*
G01*
X114579837Y-48641130D02*
G75*
G03*
X114580000Y-46559039I-1079837J1041130D01*
G01*
X122420000Y-46040000D02*
X122264000Y-46040000D01*
X124736000Y-46040000D02*
X124580000Y-46040000D01*
X122420000Y-46559039D02*
G75*
G03*
X122420163Y-48641130I1080000J-1040961D01*
G01*
X124578608Y-49272335D02*
G75*
G03*
X124735516Y-46040000I-1078608J1672335D01*
G01*
X122264484Y-46040000D02*
G75*
G03*
X122421392Y-49272335I1235516J-1560000D01*
G01*
X124579837Y-48641130D02*
G75*
G03*
X124580000Y-46559039I-1079837J1041130D01*
G01*
X114580000Y-55560000D02*
X114736000Y-55560000D01*
X112264000Y-55560000D02*
X112420000Y-55560000D01*
X114580000Y-55040961D02*
G75*
G03*
X114579837Y-52958870I-1080000J1040961D01*
G01*
X112421392Y-52327665D02*
G75*
G03*
X112264484Y-55560000I1078608J-1672335D01*
G01*
X114735516Y-55560000D02*
G75*
G03*
X114578608Y-52327665I-1235516J1560000D01*
G01*
X112420163Y-52958870D02*
G75*
G03*
X112420000Y-55040961I1079837J-1041130D01*
G01*
X119580000Y-55560000D02*
X119736000Y-55560000D01*
X117264000Y-55560000D02*
X117420000Y-55560000D01*
X119580000Y-55040961D02*
G75*
G03*
X119579837Y-52958870I-1080000J1040961D01*
G01*
X117421392Y-52327665D02*
G75*
G03*
X117264484Y-55560000I1078608J-1672335D01*
G01*
X119735516Y-55560000D02*
G75*
G03*
X119578608Y-52327665I-1235516J1560000D01*
G01*
X117420163Y-52958870D02*
G75*
G03*
X117420000Y-55040961I1079837J-1041130D01*
G01*
X124580000Y-55560000D02*
X124736000Y-55560000D01*
X122264000Y-55560000D02*
X122420000Y-55560000D01*
X124580000Y-55040961D02*
G75*
G03*
X124579837Y-52958870I-1080000J1040961D01*
G01*
X122421392Y-52327665D02*
G75*
G03*
X122264484Y-55560000I1078608J-1672335D01*
G01*
X124735516Y-55560000D02*
G75*
G03*
X124578608Y-52327665I-1235516J1560000D01*
G01*
X122420163Y-52958870D02*
G75*
G03*
X122420000Y-55040961I1079837J-1041130D01*
G01*
X117420000Y-46040000D02*
X117264000Y-46040000D01*
X119736000Y-46040000D02*
X119580000Y-46040000D01*
X117420000Y-46559039D02*
G75*
G03*
X117420163Y-48641130I1080000J-1040961D01*
G01*
X119578608Y-49272335D02*
G75*
G03*
X119735516Y-46040000I-1078608J1672335D01*
G01*
X117264484Y-46040000D02*
G75*
G03*
X117421392Y-49272335I1235516J-1560000D01*
G01*
X119579837Y-48641130D02*
G75*
G03*
X119580000Y-46559039I-1079837J1041130D01*
G01*
X109580000Y-55560000D02*
X109736000Y-55560000D01*
X107264000Y-55560000D02*
X107420000Y-55560000D01*
X109580000Y-55040961D02*
G75*
G03*
X109579837Y-52958870I-1080000J1040961D01*
G01*
X107421392Y-52327665D02*
G75*
G03*
X107264484Y-55560000I1078608J-1672335D01*
G01*
X109735516Y-55560000D02*
G75*
G03*
X109578608Y-52327665I-1235516J1560000D01*
G01*
X107420163Y-52958870D02*
G75*
G03*
X107420000Y-55040961I1079837J-1041130D01*
G01*
X107420000Y-46040000D02*
X107264000Y-46040000D01*
X109736000Y-46040000D02*
X109580000Y-46040000D01*
X107420000Y-46559039D02*
G75*
G03*
X107420163Y-48641130I1080000J-1040961D01*
G01*
X109578608Y-49272335D02*
G75*
G03*
X109735516Y-46040000I-1078608J1672335D01*
G01*
X107264484Y-46040000D02*
G75*
G03*
X107421392Y-49272335I1235516J-1560000D01*
G01*
X109579837Y-48641130D02*
G75*
G03*
X109580000Y-46559039I-1079837J1041130D01*
G01*
X132205000Y-116550000D02*
X127005000Y-116550000D01*
X132205000Y-124230000D02*
X129605000Y-124230000D01*
X132205000Y-124230000D02*
X132205000Y-116550000D01*
X132205000Y-126830000D02*
X130875000Y-126830000D01*
X127005000Y-126830000D02*
X127005000Y-116550000D01*
X129605000Y-124230000D02*
X129605000Y-126830000D01*
X132205000Y-125500000D02*
X132205000Y-126830000D01*
X129605000Y-126830000D02*
X127005000Y-126830000D01*
X114900000Y-114920000D02*
X98550000Y-114920000D01*
X98300000Y-102450000D02*
X98800000Y-101950000D01*
X114900000Y-98280000D02*
X114900000Y-114920000D01*
X98300000Y-101450000D02*
X98300000Y-102450000D01*
X98550000Y-98280000D02*
X98550000Y-114920000D01*
X114900000Y-98280000D02*
X98550000Y-98280000D01*
X98800000Y-101950000D02*
X98300000Y-101450000D01*
X117050000Y-60180000D02*
X117050000Y-76820000D01*
X117300000Y-63850000D02*
X116800000Y-63350000D01*
X116800000Y-63350000D02*
X116800000Y-64350000D01*
X116800000Y-64350000D02*
X117300000Y-63850000D01*
X133400000Y-60180000D02*
X117050000Y-60180000D01*
X133400000Y-76820000D02*
X117050000Y-76820000D01*
X133400000Y-60180000D02*
X133400000Y-76820000D01*
X133400000Y-79280000D02*
X133400000Y-95920000D01*
X133400000Y-95920000D02*
X117050000Y-95920000D01*
X116800000Y-83450000D02*
X117300000Y-82950000D01*
X117050000Y-79280000D02*
X117050000Y-95920000D01*
X117300000Y-82950000D02*
X116800000Y-82450000D01*
X116800000Y-82450000D02*
X116800000Y-83450000D01*
X133400000Y-79280000D02*
X117050000Y-79280000D01*
X133400000Y-98280000D02*
X117050000Y-98280000D01*
X116800000Y-101450000D02*
X116800000Y-102450000D01*
X116800000Y-102450000D02*
X117300000Y-101950000D01*
X117300000Y-101950000D02*
X116800000Y-101450000D01*
X133400000Y-98280000D02*
X133400000Y-114920000D01*
X117050000Y-98280000D02*
X117050000Y-114920000D01*
X133400000Y-114920000D02*
X117050000Y-114920000D01*
X98300000Y-82450000D02*
X98300000Y-83450000D01*
X98550000Y-79280000D02*
X98550000Y-95920000D01*
X114900000Y-79280000D02*
X98550000Y-79280000D01*
X114900000Y-79280000D02*
X114900000Y-95920000D01*
X114900000Y-95920000D02*
X98550000Y-95920000D01*
X98800000Y-82950000D02*
X98300000Y-82450000D01*
X98300000Y-83450000D02*
X98800000Y-82950000D01*
X114900000Y-60180000D02*
X98550000Y-60180000D01*
X98300000Y-64350000D02*
X98800000Y-63850000D01*
X98550000Y-60180000D02*
X98550000Y-76820000D01*
X98800000Y-63850000D02*
X98300000Y-63350000D01*
X98300000Y-63350000D02*
X98300000Y-64350000D01*
X114900000Y-60180000D02*
X114900000Y-76820000D01*
X114900000Y-76820000D02*
X98550000Y-76820000D01*
D12*
X110000000Y-141450000D02*
X114600000Y-141450000D01*
X117500000Y-130150000D02*
X122000000Y-130150000D01*
X113300000Y-130150000D02*
X110000000Y-130150000D01*
X122000000Y-141450000D02*
X118700000Y-141450000D01*
X122000000Y-130150000D02*
X122000000Y-131100000D01*
X122000000Y-140600000D02*
X122000000Y-141450000D01*
X110000000Y-140500000D02*
X110000000Y-141450000D01*
X110000000Y-130150000D02*
X110000000Y-131100000D01*
D13*
X118300000Y-129200000D02*
G75*
G03*
X118300000Y-129200000I-200000J0D01*
G01*
D14*
X121900000Y-123700000D02*
X121900000Y-126600000D01*
X111400000Y-126600000D02*
X121900000Y-126600000D01*
X111400000Y-123600000D02*
X111400000Y-126600000D01*
X111400000Y-117600000D02*
X121900000Y-117600000D01*
X121900000Y-117600000D02*
X121900000Y-120500000D01*
X111400000Y-117600000D02*
X111400000Y-120600000D01*
D11*
X113373625Y-123503542D02*
G75*
G03*
X113400000Y-120650000I2524756J1403557D01*
G01*
X117700000Y-122100000D02*
G75*
G03*
X117700000Y-122100000I-1800000J0D01*
G01*
X117414214Y-93300000D02*
G75*
G03*
X117414214Y-93300000I-1414214J0D01*
G01*
D15*
X112460000Y-108300000D03*
X101030000Y-108300000D03*
X130960000Y-70200000D03*
X119530000Y-70200000D03*
X130960000Y-89300000D03*
X119530000Y-89300000D03*
X130960000Y-108300000D03*
X119530000Y-108300000D03*
X101030000Y-89300000D03*
X112460000Y-89300000D03*
X112460000Y-70200000D03*
X101030000Y-70200000D03*
M02*
