G04 #@! TF.GenerationSoftware,KiCad,Pcbnew,(6.0.11)*
G04 #@! TF.CreationDate,2023-03-02T17:23:34+00:00*
G04 #@! TF.ProjectId,QMidiMonger_controls,514d6964-694d-46f6-9e67-65725f636f6e,rev?*
G04 #@! TF.SameCoordinates,Original*
G04 #@! TF.FileFunction,Soldermask,Top*
G04 #@! TF.FilePolarity,Negative*
%FSLAX46Y46*%
G04 Gerber Fmt 4.6, Leading zero omitted, Abs format (unit mm)*
G04 Created by KiCad (PCBNEW (6.0.11)) date 2023-03-02 17:23:34*
%MOMM*%
%LPD*%
G01*
G04 APERTURE LIST*
G04 Aperture macros list*
%AMRoundRect*
0 Rectangle with rounded corners*
0 $1 Rounding radius*
0 $2 $3 $4 $5 $6 $7 $8 $9 X,Y pos of 4 corners*
0 Add a 4 corners polygon primitive as box body*
4,1,4,$2,$3,$4,$5,$6,$7,$8,$9,$2,$3,0*
0 Add four circle primitives for the rounded corners*
1,1,$1+$1,$2,$3*
1,1,$1+$1,$4,$5*
1,1,$1+$1,$6,$7*
1,1,$1+$1,$8,$9*
0 Add four rect primitives between the rounded corners*
20,1,$1+$1,$2,$3,$4,$5,0*
20,1,$1+$1,$4,$5,$6,$7,0*
20,1,$1+$1,$6,$7,$8,$9,0*
20,1,$1+$1,$8,$9,$2,$3,0*%
G04 Aperture macros list end*
%ADD10C,3.200000*%
%ADD11R,1.800000X1.800000*%
%ADD12C,1.800000*%
%ADD13R,1.700000X1.700000*%
%ADD14O,1.700000X1.700000*%
%ADD15C,3.650000*%
%ADD16R,1.500000X1.500000*%
%ADD17C,1.500000*%
%ADD18R,1.050000X2.600000*%
%ADD19R,3.980000X9.000000*%
%ADD20RoundRect,0.650000X-0.650000X0.650000X-0.650000X-0.650000X0.650000X-0.650000X0.650000X0.650000X0*%
%ADD21O,2.100000X3.100000*%
G04 APERTURE END LIST*
D10*
X130700000Y-142400000D03*
D11*
X113500000Y-46330000D03*
D12*
X113500000Y-48870000D03*
D11*
X123500000Y-46330000D03*
D12*
X123500000Y-48870000D03*
D11*
X113500000Y-55270000D03*
D12*
X113500000Y-52730000D03*
D11*
X118500000Y-55270000D03*
D12*
X118500000Y-52730000D03*
D11*
X123500000Y-55270000D03*
D12*
X123500000Y-52730000D03*
D11*
X118500000Y-46330000D03*
D12*
X118500000Y-48870000D03*
D11*
X108500000Y-55270000D03*
D12*
X108500000Y-52730000D03*
D11*
X108500000Y-46330000D03*
D12*
X108500000Y-48870000D03*
D13*
X130875000Y-125500000D03*
D14*
X128335000Y-125500000D03*
X130875000Y-122960000D03*
X128335000Y-122960000D03*
X130875000Y-120420000D03*
X128335000Y-120420000D03*
X130875000Y-117880000D03*
X128335000Y-117880000D03*
D15*
X112460000Y-108300000D03*
X101030000Y-108300000D03*
D16*
X102300000Y-101950000D03*
D17*
X103570000Y-99410000D03*
X104840000Y-101950000D03*
X106110000Y-99410000D03*
X107380000Y-101950000D03*
X108650000Y-99410000D03*
X109920000Y-101950000D03*
X111190000Y-99410000D03*
D15*
X130960000Y-70200000D03*
X119530000Y-70200000D03*
D16*
X120800000Y-63850000D03*
D17*
X122070000Y-61310000D03*
X123340000Y-63850000D03*
X124610000Y-61310000D03*
X125880000Y-63850000D03*
X127150000Y-61310000D03*
X128420000Y-63850000D03*
X129690000Y-61310000D03*
D15*
X130960000Y-89300000D03*
X119530000Y-89300000D03*
D16*
X120800000Y-82950000D03*
D17*
X122070000Y-80410000D03*
X123340000Y-82950000D03*
X124610000Y-80410000D03*
X125880000Y-82950000D03*
X127150000Y-80410000D03*
X128420000Y-82950000D03*
X129690000Y-80410000D03*
D15*
X130960000Y-108300000D03*
X119530000Y-108300000D03*
D16*
X120800000Y-101950000D03*
D17*
X122070000Y-99410000D03*
X123340000Y-101950000D03*
X124610000Y-99410000D03*
X125880000Y-101950000D03*
X127150000Y-99410000D03*
X128420000Y-101950000D03*
X129690000Y-99410000D03*
D15*
X101030000Y-89300000D03*
X112460000Y-89300000D03*
D16*
X102300000Y-82950000D03*
D17*
X103570000Y-80410000D03*
X104840000Y-82950000D03*
X106110000Y-80410000D03*
X107380000Y-82950000D03*
X108650000Y-80410000D03*
X109920000Y-82950000D03*
X111190000Y-80410000D03*
D15*
X112460000Y-70200000D03*
X101030000Y-70200000D03*
D16*
X102300000Y-63850000D03*
D17*
X103570000Y-61310000D03*
X104840000Y-63850000D03*
X106110000Y-61310000D03*
X107380000Y-63850000D03*
X108650000Y-61310000D03*
X109920000Y-63850000D03*
X111190000Y-61310000D03*
D18*
X116630000Y-129950000D03*
X114130000Y-129950000D03*
X115380000Y-141650000D03*
X117880000Y-141650000D03*
D19*
X108490000Y-135800000D03*
X123510000Y-135800000D03*
D10*
X101300000Y-142400000D03*
X103000000Y-54400000D03*
D20*
X112520000Y-122100000D03*
D21*
X109420000Y-122100000D03*
D20*
X120820000Y-122100000D03*
D10*
X129000000Y-54400000D03*
D13*
X134000000Y-50000000D03*
D14*
X134000000Y-52540000D03*
X134000000Y-55080000D03*
X134000000Y-57620000D03*
X134000000Y-60160000D03*
X134000000Y-62700000D03*
X134000000Y-65240000D03*
X134000000Y-67780000D03*
D13*
X98000000Y-120000000D03*
D14*
X98000000Y-122540000D03*
X98000000Y-125080000D03*
X98000000Y-127620000D03*
X98000000Y-130160000D03*
X98000000Y-132700000D03*
X98000000Y-135240000D03*
X98000000Y-137780000D03*
D13*
X98000000Y-47400000D03*
D14*
X98000000Y-49940000D03*
X98000000Y-52480000D03*
X98000000Y-55020000D03*
X98000000Y-57560000D03*
X98000000Y-60100000D03*
X98000000Y-62640000D03*
X98000000Y-65180000D03*
X98000000Y-67720000D03*
D13*
X134000000Y-132700000D03*
D14*
X134000000Y-135240000D03*
X134000000Y-137780000D03*
M02*
