G04 #@! TF.GenerationSoftware,KiCad,Pcbnew,(6.0.11)*
G04 #@! TF.CreationDate,2023-03-03T10:03:19+00:00*
G04 #@! TF.ProjectId,QMidiMonger_controls,514d6964-694d-46f6-9e67-65725f636f6e,rev?*
G04 #@! TF.SameCoordinates,Original*
G04 #@! TF.FileFunction,Legend,Bot*
G04 #@! TF.FilePolarity,Positive*
%FSLAX46Y46*%
G04 Gerber Fmt 4.6, Leading zero omitted, Abs format (unit mm)*
G04 Created by KiCad (PCBNEW (6.0.11)) date 2023-03-03 10:03:19*
%MOMM*%
%LPD*%
G01*
G04 APERTURE LIST*
%ADD10C,0.300000*%
%ADD11C,0.150000*%
%ADD12C,0.120000*%
%ADD13C,3.650000*%
G04 APERTURE END LIST*
D10*
X106828571Y-89935714D02*
X106900000Y-90007142D01*
X107114285Y-90078571D01*
X107257142Y-90078571D01*
X107471428Y-90007142D01*
X107614285Y-89864285D01*
X107685714Y-89721428D01*
X107757142Y-89435714D01*
X107757142Y-89221428D01*
X107685714Y-88935714D01*
X107614285Y-88792857D01*
X107471428Y-88650000D01*
X107257142Y-88578571D01*
X107114285Y-88578571D01*
X106900000Y-88650000D01*
X106828571Y-88721428D01*
X106400000Y-88578571D02*
X105900000Y-90078571D01*
X105400000Y-88578571D01*
X131425000Y-115057142D02*
X131496428Y-115200000D01*
X131496428Y-115414285D01*
X131425000Y-115628571D01*
X131282142Y-115771428D01*
X131139285Y-115842857D01*
X130853571Y-115914285D01*
X130639285Y-115914285D01*
X130353571Y-115842857D01*
X130210714Y-115771428D01*
X130067857Y-115628571D01*
X129996428Y-115414285D01*
X129996428Y-115271428D01*
X130067857Y-115057142D01*
X130139285Y-114985714D01*
X130639285Y-114985714D01*
X130639285Y-115271428D01*
X129996428Y-113700000D02*
X130782142Y-113700000D01*
X130925000Y-113771428D01*
X130996428Y-113914285D01*
X130996428Y-114200000D01*
X130925000Y-114342857D01*
X130067857Y-113700000D02*
X129996428Y-113842857D01*
X129996428Y-114200000D01*
X130067857Y-114342857D01*
X130210714Y-114414285D01*
X130353571Y-114414285D01*
X130496428Y-114342857D01*
X130567857Y-114200000D01*
X130567857Y-113842857D01*
X130639285Y-113700000D01*
X130996428Y-113200000D02*
X130996428Y-112628571D01*
X131496428Y-112985714D02*
X130210714Y-112985714D01*
X130067857Y-112914285D01*
X129996428Y-112771428D01*
X129996428Y-112628571D01*
X130067857Y-111557142D02*
X129996428Y-111700000D01*
X129996428Y-111985714D01*
X130067857Y-112128571D01*
X130210714Y-112200000D01*
X130782142Y-112200000D01*
X130925000Y-112128571D01*
X130996428Y-111985714D01*
X130996428Y-111700000D01*
X130925000Y-111557142D01*
X130782142Y-111485714D01*
X130639285Y-111485714D01*
X130496428Y-112200000D01*
X132646428Y-126278571D02*
X133503571Y-126278571D01*
X133075000Y-126278571D02*
X133075000Y-124778571D01*
X133217857Y-124992857D01*
X133360714Y-125135714D01*
X133503571Y-125207142D01*
D11*
X124666666Y-135047380D02*
X124666666Y-134047380D01*
X124333333Y-134761666D01*
X124000000Y-134047380D01*
X124000000Y-135047380D01*
X123380952Y-135047380D02*
X123476190Y-134999761D01*
X123523809Y-134952142D01*
X123571428Y-134856904D01*
X123571428Y-134571190D01*
X123523809Y-134475952D01*
X123476190Y-134428333D01*
X123380952Y-134380714D01*
X123238095Y-134380714D01*
X123142857Y-134428333D01*
X123095238Y-134475952D01*
X123047619Y-134571190D01*
X123047619Y-134856904D01*
X123095238Y-134952142D01*
X123142857Y-134999761D01*
X123238095Y-135047380D01*
X123380952Y-135047380D01*
X122190476Y-134380714D02*
X122190476Y-135047380D01*
X122619047Y-134380714D02*
X122619047Y-134904523D01*
X122571428Y-134999761D01*
X122476190Y-135047380D01*
X122333333Y-135047380D01*
X122238095Y-134999761D01*
X122190476Y-134952142D01*
X121714285Y-134380714D02*
X121714285Y-135047380D01*
X121714285Y-134475952D02*
X121666666Y-134428333D01*
X121571428Y-134380714D01*
X121428571Y-134380714D01*
X121333333Y-134428333D01*
X121285714Y-134523571D01*
X121285714Y-135047380D01*
X120952380Y-134380714D02*
X120571428Y-134380714D01*
X120809523Y-134047380D02*
X120809523Y-134904523D01*
X120761904Y-134999761D01*
X120666666Y-135047380D01*
X120571428Y-135047380D01*
X120238095Y-134380714D02*
X120238095Y-135237857D01*
X120285714Y-135333095D01*
X120380952Y-135380714D01*
X120428571Y-135380714D01*
X120238095Y-134047380D02*
X120285714Y-134095000D01*
X120238095Y-134142619D01*
X120190476Y-134095000D01*
X120238095Y-134047380D01*
X120238095Y-134142619D01*
X119619047Y-135047380D02*
X119714285Y-134999761D01*
X119761904Y-134952142D01*
X119809523Y-134856904D01*
X119809523Y-134571190D01*
X119761904Y-134475952D01*
X119714285Y-134428333D01*
X119619047Y-134380714D01*
X119476190Y-134380714D01*
X119380952Y-134428333D01*
X119333333Y-134475952D01*
X119285714Y-134571190D01*
X119285714Y-134856904D01*
X119333333Y-134952142D01*
X119380952Y-134999761D01*
X119476190Y-135047380D01*
X119619047Y-135047380D01*
X118952380Y-134380714D02*
X118714285Y-135047380D01*
X118476190Y-134380714D02*
X118714285Y-135047380D01*
X118809523Y-135285476D01*
X118857142Y-135333095D01*
X118952380Y-135380714D01*
X117333333Y-135047380D02*
X117333333Y-134047380D01*
X117000000Y-134761666D01*
X116666666Y-134047380D01*
X116666666Y-135047380D01*
X116047619Y-135047380D02*
X116142857Y-134999761D01*
X116190476Y-134952142D01*
X116238095Y-134856904D01*
X116238095Y-134571190D01*
X116190476Y-134475952D01*
X116142857Y-134428333D01*
X116047619Y-134380714D01*
X115904761Y-134380714D01*
X115809523Y-134428333D01*
X115761904Y-134475952D01*
X115714285Y-134571190D01*
X115714285Y-134856904D01*
X115761904Y-134952142D01*
X115809523Y-134999761D01*
X115904761Y-135047380D01*
X116047619Y-135047380D01*
X114857142Y-135047380D02*
X114857142Y-134047380D01*
X114857142Y-134999761D02*
X114952380Y-135047380D01*
X115142857Y-135047380D01*
X115238095Y-134999761D01*
X115285714Y-134952142D01*
X115333333Y-134856904D01*
X115333333Y-134571190D01*
X115285714Y-134475952D01*
X115238095Y-134428333D01*
X115142857Y-134380714D01*
X114952380Y-134380714D01*
X114857142Y-134428333D01*
X113952380Y-134380714D02*
X113952380Y-135047380D01*
X114380952Y-134380714D02*
X114380952Y-134904523D01*
X114333333Y-134999761D01*
X114238095Y-135047380D01*
X114095238Y-135047380D01*
X114000000Y-134999761D01*
X113952380Y-134952142D01*
X113333333Y-135047380D02*
X113428571Y-134999761D01*
X113476190Y-134904523D01*
X113476190Y-134047380D01*
X112523809Y-135047380D02*
X112523809Y-134523571D01*
X112571428Y-134428333D01*
X112666666Y-134380714D01*
X112857142Y-134380714D01*
X112952380Y-134428333D01*
X112523809Y-134999761D02*
X112619047Y-135047380D01*
X112857142Y-135047380D01*
X112952380Y-134999761D01*
X113000000Y-134904523D01*
X113000000Y-134809285D01*
X112952380Y-134714047D01*
X112857142Y-134666428D01*
X112619047Y-134666428D01*
X112523809Y-134618809D01*
X112047619Y-135047380D02*
X112047619Y-134380714D01*
X112047619Y-134571190D02*
X112000000Y-134475952D01*
X111952380Y-134428333D01*
X111857142Y-134380714D01*
X111761904Y-134380714D01*
X110714285Y-134142619D02*
X110666666Y-134095000D01*
X110571428Y-134047380D01*
X110333333Y-134047380D01*
X110238095Y-134095000D01*
X110190476Y-134142619D01*
X110142857Y-134237857D01*
X110142857Y-134333095D01*
X110190476Y-134475952D01*
X110761904Y-135047380D01*
X110142857Y-135047380D01*
X109523809Y-134047380D02*
X109428571Y-134047380D01*
X109333333Y-134095000D01*
X109285714Y-134142619D01*
X109238095Y-134237857D01*
X109190476Y-134428333D01*
X109190476Y-134666428D01*
X109238095Y-134856904D01*
X109285714Y-134952142D01*
X109333333Y-134999761D01*
X109428571Y-135047380D01*
X109523809Y-135047380D01*
X109619047Y-134999761D01*
X109666666Y-134952142D01*
X109714285Y-134856904D01*
X109761904Y-134666428D01*
X109761904Y-134428333D01*
X109714285Y-134237857D01*
X109666666Y-134142619D01*
X109619047Y-134095000D01*
X109523809Y-134047380D01*
X108809523Y-134142619D02*
X108761904Y-134095000D01*
X108666666Y-134047380D01*
X108428571Y-134047380D01*
X108333333Y-134095000D01*
X108285714Y-134142619D01*
X108238095Y-134237857D01*
X108238095Y-134333095D01*
X108285714Y-134475952D01*
X108857142Y-135047380D01*
X108238095Y-135047380D01*
X107904761Y-134047380D02*
X107285714Y-134047380D01*
X107619047Y-134428333D01*
X107476190Y-134428333D01*
X107380952Y-134475952D01*
X107333333Y-134523571D01*
X107285714Y-134618809D01*
X107285714Y-134856904D01*
X107333333Y-134952142D01*
X107380952Y-134999761D01*
X107476190Y-135047380D01*
X107761904Y-135047380D01*
X107857142Y-134999761D01*
X107904761Y-134952142D01*
X127404761Y-136752619D02*
X127500000Y-136705000D01*
X127595238Y-136609761D01*
X127738095Y-136466904D01*
X127833333Y-136419285D01*
X127928571Y-136419285D01*
X127880952Y-136657380D02*
X127976190Y-136609761D01*
X128071428Y-136514523D01*
X128119047Y-136324047D01*
X128119047Y-135990714D01*
X128071428Y-135800238D01*
X127976190Y-135705000D01*
X127880952Y-135657380D01*
X127690476Y-135657380D01*
X127595238Y-135705000D01*
X127500000Y-135800238D01*
X127452380Y-135990714D01*
X127452380Y-136324047D01*
X127500000Y-136514523D01*
X127595238Y-136609761D01*
X127690476Y-136657380D01*
X127880952Y-136657380D01*
X126595238Y-135990714D02*
X126595238Y-136657380D01*
X127023809Y-135990714D02*
X127023809Y-136514523D01*
X126976190Y-136609761D01*
X126880952Y-136657380D01*
X126738095Y-136657380D01*
X126642857Y-136609761D01*
X126595238Y-136562142D01*
X125690476Y-136657380D02*
X125690476Y-136133571D01*
X125738095Y-136038333D01*
X125833333Y-135990714D01*
X126023809Y-135990714D01*
X126119047Y-136038333D01*
X125690476Y-136609761D02*
X125785714Y-136657380D01*
X126023809Y-136657380D01*
X126119047Y-136609761D01*
X126166666Y-136514523D01*
X126166666Y-136419285D01*
X126119047Y-136324047D01*
X126023809Y-136276428D01*
X125785714Y-136276428D01*
X125690476Y-136228809D01*
X124785714Y-136657380D02*
X124785714Y-135657380D01*
X124785714Y-136609761D02*
X124880952Y-136657380D01*
X125071428Y-136657380D01*
X125166666Y-136609761D01*
X125214285Y-136562142D01*
X125261904Y-136466904D01*
X125261904Y-136181190D01*
X125214285Y-136085952D01*
X125166666Y-136038333D01*
X125071428Y-135990714D01*
X124880952Y-135990714D01*
X124785714Y-136038333D01*
X123547619Y-136657380D02*
X123547619Y-135657380D01*
X123214285Y-136371666D01*
X122880952Y-135657380D01*
X122880952Y-136657380D01*
X122404761Y-136657380D02*
X122404761Y-135657380D01*
X121928571Y-136657380D02*
X121928571Y-135657380D01*
X121690476Y-135657380D01*
X121547619Y-135705000D01*
X121452380Y-135800238D01*
X121404761Y-135895476D01*
X121357142Y-136085952D01*
X121357142Y-136228809D01*
X121404761Y-136419285D01*
X121452380Y-136514523D01*
X121547619Y-136609761D01*
X121690476Y-136657380D01*
X121928571Y-136657380D01*
X120928571Y-136657380D02*
X120928571Y-135657380D01*
X119690476Y-136657380D02*
X119690476Y-135657380D01*
X119357142Y-136371666D01*
X119023809Y-135657380D01*
X119023809Y-136657380D01*
X118404761Y-136657380D02*
X118500000Y-136609761D01*
X118547619Y-136562142D01*
X118595238Y-136466904D01*
X118595238Y-136181190D01*
X118547619Y-136085952D01*
X118500000Y-136038333D01*
X118404761Y-135990714D01*
X118261904Y-135990714D01*
X118166666Y-136038333D01*
X118119047Y-136085952D01*
X118071428Y-136181190D01*
X118071428Y-136466904D01*
X118119047Y-136562142D01*
X118166666Y-136609761D01*
X118261904Y-136657380D01*
X118404761Y-136657380D01*
X117642857Y-135990714D02*
X117642857Y-136657380D01*
X117642857Y-136085952D02*
X117595238Y-136038333D01*
X117500000Y-135990714D01*
X117357142Y-135990714D01*
X117261904Y-136038333D01*
X117214285Y-136133571D01*
X117214285Y-136657380D01*
X116309523Y-135990714D02*
X116309523Y-136800238D01*
X116357142Y-136895476D01*
X116404761Y-136943095D01*
X116500000Y-136990714D01*
X116642857Y-136990714D01*
X116738095Y-136943095D01*
X116309523Y-136609761D02*
X116404761Y-136657380D01*
X116595238Y-136657380D01*
X116690476Y-136609761D01*
X116738095Y-136562142D01*
X116785714Y-136466904D01*
X116785714Y-136181190D01*
X116738095Y-136085952D01*
X116690476Y-136038333D01*
X116595238Y-135990714D01*
X116404761Y-135990714D01*
X116309523Y-136038333D01*
X115452380Y-136609761D02*
X115547619Y-136657380D01*
X115738095Y-136657380D01*
X115833333Y-136609761D01*
X115880952Y-136514523D01*
X115880952Y-136133571D01*
X115833333Y-136038333D01*
X115738095Y-135990714D01*
X115547619Y-135990714D01*
X115452380Y-136038333D01*
X115404761Y-136133571D01*
X115404761Y-136228809D01*
X115880952Y-136324047D01*
X114976190Y-136657380D02*
X114976190Y-135990714D01*
X114976190Y-136181190D02*
X114928571Y-136085952D01*
X114880952Y-136038333D01*
X114785714Y-135990714D01*
X114690476Y-135990714D01*
X113023809Y-136562142D02*
X113071428Y-136609761D01*
X113214285Y-136657380D01*
X113309523Y-136657380D01*
X113452380Y-136609761D01*
X113547619Y-136514523D01*
X113595238Y-136419285D01*
X113642857Y-136228809D01*
X113642857Y-136085952D01*
X113595238Y-135895476D01*
X113547619Y-135800238D01*
X113452380Y-135705000D01*
X113309523Y-135657380D01*
X113214285Y-135657380D01*
X113071428Y-135705000D01*
X113023809Y-135752619D01*
X112452380Y-136657380D02*
X112547619Y-136609761D01*
X112595238Y-136562142D01*
X112642857Y-136466904D01*
X112642857Y-136181190D01*
X112595238Y-136085952D01*
X112547619Y-136038333D01*
X112452380Y-135990714D01*
X112309523Y-135990714D01*
X112214285Y-136038333D01*
X112166666Y-136085952D01*
X112119047Y-136181190D01*
X112119047Y-136466904D01*
X112166666Y-136562142D01*
X112214285Y-136609761D01*
X112309523Y-136657380D01*
X112452380Y-136657380D01*
X111690476Y-135990714D02*
X111690476Y-136657380D01*
X111690476Y-136085952D02*
X111642857Y-136038333D01*
X111547619Y-135990714D01*
X111404761Y-135990714D01*
X111309523Y-136038333D01*
X111261904Y-136133571D01*
X111261904Y-136657380D01*
X110928571Y-135990714D02*
X110547619Y-135990714D01*
X110785714Y-135657380D02*
X110785714Y-136514523D01*
X110738095Y-136609761D01*
X110642857Y-136657380D01*
X110547619Y-136657380D01*
X110214285Y-136657380D02*
X110214285Y-135990714D01*
X110214285Y-136181190D02*
X110166666Y-136085952D01*
X110119047Y-136038333D01*
X110023809Y-135990714D01*
X109928571Y-135990714D01*
X109452380Y-136657380D02*
X109547619Y-136609761D01*
X109595238Y-136562142D01*
X109642857Y-136466904D01*
X109642857Y-136181190D01*
X109595238Y-136085952D01*
X109547619Y-136038333D01*
X109452380Y-135990714D01*
X109309523Y-135990714D01*
X109214285Y-136038333D01*
X109166666Y-136085952D01*
X109119047Y-136181190D01*
X109119047Y-136466904D01*
X109166666Y-136562142D01*
X109214285Y-136609761D01*
X109309523Y-136657380D01*
X109452380Y-136657380D01*
X108547619Y-136657380D02*
X108642857Y-136609761D01*
X108690476Y-136514523D01*
X108690476Y-135657380D01*
X108214285Y-136609761D02*
X108119047Y-136657380D01*
X107928571Y-136657380D01*
X107833333Y-136609761D01*
X107785714Y-136514523D01*
X107785714Y-136466904D01*
X107833333Y-136371666D01*
X107928571Y-136324047D01*
X108071428Y-136324047D01*
X108166666Y-136276428D01*
X108214285Y-136181190D01*
X108214285Y-136133571D01*
X108166666Y-136038333D01*
X108071428Y-135990714D01*
X107928571Y-135990714D01*
X107833333Y-136038333D01*
X106690476Y-135990714D02*
X106452380Y-136657380D01*
X106214285Y-135990714D01*
X105309523Y-136657380D02*
X105880952Y-136657380D01*
X105595238Y-136657380D02*
X105595238Y-135657380D01*
X105690476Y-135800238D01*
X105785714Y-135895476D01*
X105880952Y-135943095D01*
X104880952Y-136562142D02*
X104833333Y-136609761D01*
X104880952Y-136657380D01*
X104928571Y-136609761D01*
X104880952Y-136562142D01*
X104880952Y-136657380D01*
X104214285Y-135657380D02*
X104119047Y-135657380D01*
X104023809Y-135705000D01*
X103976190Y-135752619D01*
X103928571Y-135847857D01*
X103880952Y-136038333D01*
X103880952Y-136276428D01*
X103928571Y-136466904D01*
X103976190Y-136562142D01*
X104023809Y-136609761D01*
X104119047Y-136657380D01*
X104214285Y-136657380D01*
X104309523Y-136609761D01*
X104357142Y-136562142D01*
X104404761Y-136466904D01*
X104452380Y-136276428D01*
X104452380Y-136038333D01*
X104404761Y-135847857D01*
X104357142Y-135752619D01*
X104309523Y-135705000D01*
X104214285Y-135657380D01*
D10*
X127925000Y-115650000D02*
X127925000Y-114935714D01*
X127496428Y-115792857D02*
X128996428Y-115292857D01*
X127496428Y-114792857D01*
X128496428Y-113650000D02*
X127496428Y-113650000D01*
X128496428Y-114292857D02*
X127710714Y-114292857D01*
X127567857Y-114221428D01*
X127496428Y-114078571D01*
X127496428Y-113864285D01*
X127567857Y-113721428D01*
X127639285Y-113650000D01*
X127496428Y-112292857D02*
X128996428Y-112292857D01*
X127567857Y-112292857D02*
X127496428Y-112435714D01*
X127496428Y-112721428D01*
X127567857Y-112864285D01*
X127639285Y-112935714D01*
X127782142Y-113007142D01*
X128210714Y-113007142D01*
X128353571Y-112935714D01*
X128425000Y-112864285D01*
X128496428Y-112721428D01*
X128496428Y-112435714D01*
X128425000Y-112292857D01*
X127496428Y-111578571D02*
X128496428Y-111578571D01*
X128996428Y-111578571D02*
X128925000Y-111650000D01*
X128853571Y-111578571D01*
X128925000Y-111507142D01*
X128996428Y-111578571D01*
X128853571Y-111578571D01*
X127496428Y-110650000D02*
X127567857Y-110792857D01*
X127639285Y-110864285D01*
X127782142Y-110935714D01*
X128210714Y-110935714D01*
X128353571Y-110864285D01*
X128425000Y-110792857D01*
X128496428Y-110650000D01*
X128496428Y-110435714D01*
X128425000Y-110292857D01*
X128353571Y-110221428D01*
X128210714Y-110150000D01*
X127782142Y-110150000D01*
X127639285Y-110221428D01*
X127567857Y-110292857D01*
X127496428Y-110435714D01*
X127496428Y-110650000D01*
X132789285Y-117478571D02*
X132789285Y-118478571D01*
X133146428Y-116907142D02*
X133503571Y-117978571D01*
X132575000Y-117978571D01*
X126700000Y-88650000D02*
X126842857Y-88578571D01*
X127057142Y-88578571D01*
X127271428Y-88650000D01*
X127414285Y-88792857D01*
X127485714Y-88935714D01*
X127557142Y-89221428D01*
X127557142Y-89435714D01*
X127485714Y-89721428D01*
X127414285Y-89864285D01*
X127271428Y-90007142D01*
X127057142Y-90078571D01*
X126914285Y-90078571D01*
X126700000Y-90007142D01*
X126628571Y-89935714D01*
X126628571Y-89435714D01*
X126914285Y-89435714D01*
X126057142Y-89650000D02*
X125342857Y-89650000D01*
X126200000Y-90078571D02*
X125700000Y-88578571D01*
X125200000Y-90078571D01*
X124914285Y-88578571D02*
X124057142Y-88578571D01*
X124485714Y-90078571D02*
X124485714Y-88578571D01*
X123557142Y-89292857D02*
X123057142Y-89292857D01*
X122842857Y-90078571D02*
X123557142Y-90078571D01*
X123557142Y-88578571D01*
X122842857Y-88578571D01*
D12*
X135330000Y-51270000D02*
X135330000Y-69110000D01*
X135330000Y-48670000D02*
X134000000Y-48670000D01*
X135330000Y-69110000D02*
X132670000Y-69110000D01*
X132670000Y-69110000D02*
X132670000Y-51270000D01*
X135330000Y-50000000D02*
X135330000Y-48670000D01*
X132670000Y-51270000D02*
X135330000Y-51270000D01*
X96670000Y-139110000D02*
X96670000Y-121270000D01*
X99330000Y-121270000D02*
X99330000Y-139110000D01*
X99330000Y-120000000D02*
X99330000Y-118670000D01*
X99330000Y-139110000D02*
X96670000Y-139110000D01*
X99330000Y-118670000D02*
X98000000Y-118670000D01*
X96670000Y-121270000D02*
X99330000Y-121270000D01*
X96670000Y-48670000D02*
X99330000Y-48670000D01*
X99330000Y-47400000D02*
X99330000Y-46070000D01*
X96670000Y-69050000D02*
X96670000Y-48670000D01*
X99330000Y-69050000D02*
X96670000Y-69050000D01*
X99330000Y-48670000D02*
X99330000Y-69050000D01*
X99330000Y-46070000D02*
X98000000Y-46070000D01*
X132670000Y-133970000D02*
X132670000Y-139110000D01*
X135330000Y-133970000D02*
X132670000Y-133970000D01*
X135330000Y-131370000D02*
X134000000Y-131370000D01*
X135330000Y-139110000D02*
X132670000Y-139110000D01*
X135330000Y-133970000D02*
X135330000Y-139110000D01*
X135330000Y-132700000D02*
X135330000Y-131370000D01*
D13*
X112460000Y-108300000D03*
X101030000Y-108300000D03*
X130960000Y-70200000D03*
X119530000Y-70200000D03*
X130960000Y-89300000D03*
X119530000Y-89300000D03*
X130960000Y-108300000D03*
X119530000Y-108300000D03*
X101030000Y-89300000D03*
X112460000Y-89300000D03*
X112460000Y-70200000D03*
X101030000Y-70200000D03*
M02*
