M48
; DRILL file {KiCad (5.1.4)-1} date 26/11/2019 14:36:58
; FORMAT={-:-/ absolute / inch / decimal}
; #@! TF.CreationDate,2019-11-26T14:36:58+00:00
; #@! TF.GenerationSoftware,Kicad,Pcbnew,(5.1.4)-1
; #@! TF.FileFunction,Plated,1,2,PTH
FMAT,2
INCH
T1C0.0197
T2C0.0354
T3C0.0362
T4C0.0394
T5C0.0433
T6C0.0906
%
G90
G05
T2
X3.9764Y-4.3882
X3.9764Y-4.4882
X5.1575Y-3.8764
X5.1575Y-3.9764
X3.9764Y-2.2425
X3.9764Y-2.3425
X3.9764Y-3.2661
X3.9764Y-3.3661
X3.9764Y-3.8764
X3.9764Y-3.9764
X5.1575Y-2.7543
X5.1575Y-2.8543
X3.9764Y-1.7307
X3.9764Y-1.8307
X5.1575Y-1.7307
X5.1575Y-1.8307
X5.1575Y-4.3882
X5.1575Y-4.4882
X5.1575Y-3.2661
X5.1575Y-3.3661
X3.9764Y-2.7543
X3.9764Y-2.8543
X5.1575Y-2.2425
X5.1575Y-2.3425
T3
X4.1732Y-5.5118
X4.1732Y-5.6378
X4.2717Y-5.5118
X4.2717Y-5.6378
T4
X5.2756Y-1.9685
X5.2756Y-2.0685
X5.2756Y-2.1685
X5.2756Y-2.2685
X5.2756Y-2.3685
X5.2756Y-2.4685
X5.2756Y-2.5685
X5.2756Y-2.6685
X5.2756Y-4.7244
X5.2756Y-4.8244
X5.2756Y-4.9244
X5.2756Y-5.0244
X5.2756Y-5.1244
X5.2756Y-5.2244
X5.2756Y-5.3244
X5.2756Y-5.4244
X3.8583Y-1.8661
X3.8583Y-1.9661
X3.8583Y-2.0661
X3.8583Y-2.1661
X3.8583Y-2.2661
X3.8583Y-2.3661
X3.8583Y-2.4661
X3.8583Y-2.5661
X3.8583Y-2.6661
X3.8583Y-4.7244
X3.8583Y-4.8244
X3.8583Y-4.9244
X3.8583Y-5.0244
X3.8583Y-5.1244
X3.8583Y-5.2244
X3.8583Y-5.3244
X3.8583Y-5.4244
T5
X4.439Y-4.9016
X4.439Y-5.0787
X4.6949Y-4.9016
X4.6949Y-5.0787
T6
X3.9854Y-5.6181
X4.4594Y-5.6181
T1
G00X4.7224Y-1.7874
M15
G01X4.7224Y-1.748
M16
G05
G00X4.8425Y-1.6417
M15
G01X4.8819Y-1.6417
M16
G05
G00X4.8425Y-1.9606
M15
G01X4.8819Y-1.9606
M16
G05
G00X5.002Y-1.7874
M15
G01X5.002Y-1.748
M16
G05
G00X4.7224Y-3.3228
M15
G01X4.7224Y-3.2835
M16
G05
G00X4.8425Y-3.1772
M15
G01X4.8819Y-3.1772
M16
G05
G00X4.8425Y-3.4961
M15
G01X4.8819Y-3.4961
M16
G05
G00X5.002Y-3.3228
M15
G01X5.002Y-3.2835
M16
G05
G00X4.7224Y-2.811
M15
G01X4.7224Y-2.7717
M16
G05
G00X4.8425Y-2.6654
M15
G01X4.8819Y-2.6654
M16
G05
G00X4.8425Y-2.9843
M15
G01X4.8819Y-2.9843
M16
G05
G00X5.002Y-2.811
M15
G01X5.002Y-2.7717
M16
G05
G00X4.1319Y-2.2992
M15
G01X4.1319Y-2.2598
M16
G05
G00X4.252Y-2.1535
M15
G01X4.2913Y-2.1535
M16
G05
G00X4.252Y-2.4724
M15
G01X4.2913Y-2.4724
M16
G05
G00X4.4114Y-2.2992
M15
G01X4.4114Y-2.2598
M16
G05
G00X4.1319Y-3.3228
M15
G01X4.1319Y-3.2835
M16
G05
G00X4.252Y-3.1772
M15
G01X4.2913Y-3.1772
M16
G05
G00X4.252Y-3.4961
M15
G01X4.2913Y-3.4961
M16
G05
G00X4.4114Y-3.3228
M15
G01X4.4114Y-3.2835
M16
G05
G00X4.7224Y-2.2992
M15
G01X4.7224Y-2.2598
M16
G05
G00X4.8425Y-2.1535
M15
G01X4.8819Y-2.1535
M16
G05
G00X4.8425Y-2.4724
M15
G01X4.8819Y-2.4724
M16
G05
G00X5.002Y-2.2992
M15
G01X5.002Y-2.2598
M16
G05
G00X4.1319Y-4.4449
M15
G01X4.1319Y-4.4055
M16
G05
G00X4.252Y-4.2992
M15
G01X4.2913Y-4.2992
M16
G05
G00X4.252Y-4.6181
M15
G01X4.2913Y-4.6181
M16
G05
G00X4.4114Y-4.4449
M15
G01X4.4114Y-4.4055
M16
G05
G00X4.7224Y-4.4449
M15
G01X4.7224Y-4.4055
M16
G05
G00X4.8425Y-4.2992
M15
G01X4.8819Y-4.2992
M16
G05
G00X4.8425Y-4.6181
M15
G01X4.8819Y-4.6181
M16
G05
G00X5.002Y-4.4449
M15
G01X5.002Y-4.4055
M16
G05
G00X4.1319Y-2.811
M15
G01X4.1319Y-2.7717
M16
G05
G00X4.252Y-2.6654
M15
G01X4.2913Y-2.6654
M16
G05
G00X4.252Y-2.9843
M15
G01X4.2913Y-2.9843
M16
G05
G00X4.4114Y-2.811
M15
G01X4.4114Y-2.7717
M16
G05
G00X4.1319Y-3.9331
M15
G01X4.1319Y-3.8937
M16
G05
G00X4.252Y-3.7874
M15
G01X4.2913Y-3.7874
M16
G05
G00X4.252Y-4.1063
M15
G01X4.2913Y-4.1063
M16
G05
G00X4.4114Y-3.9331
M15
G01X4.4114Y-3.8937
M16
G05
G00X4.1319Y-1.7874
M15
G01X4.1319Y-1.748
M16
G05
G00X4.252Y-1.6417
M15
G01X4.2913Y-1.6417
M16
G05
G00X4.252Y-1.9606
M15
G01X4.2913Y-1.9606
M16
G05
G00X4.4114Y-1.7874
M15
G01X4.4114Y-1.748
M16
G05
G00X4.7224Y-3.9331
M15
G01X4.7224Y-3.8937
M16
G05
G00X4.8425Y-3.7874
M15
G01X4.8819Y-3.7874
M16
G05
G00X4.8425Y-4.1063
M15
G01X4.8819Y-4.1063
M16
G05
G00X5.002Y-3.9331
M15
G01X5.002Y-3.8937
M16
G05
T4
G00X4.6752Y-5.5709
M15
G01X4.6949Y-5.5709
M16
G05
G00X4.7489Y-5.3986
M15
G01X4.7629Y-5.4125
M16
G05
G00X4.9213Y-5.3248
M15
G01X4.9213Y-5.3445
M16
G05
G00X4.9114Y-5.7283
M15
G01X4.9311Y-5.7283
M16
G05
G00X5.0797Y-5.4125
M15
G01X5.0936Y-5.3986
M16
G05
G00X5.1476Y-5.5709
M15
G01X5.1673Y-5.5709
M16
G05
T0
M30
