M48
; DRILL file {KiCad 8.0.4} date 2024-08-08T14:53:30+0100
; FORMAT={-:-/ absolute / inch / decimal}
; #@! TF.CreationDate,2024-08-08T14:53:30+01:00
; #@! TF.GenerationSoftware,Kicad,Pcbnew,8.0.4
; #@! TF.FileFunction,Plated,1,2,PTH
FMAT,2
INCH
; #@! TA.AperFunction,Plated,PTH,ViaDrill
T1C0.0157
; #@! TA.AperFunction,Plated,PTH,ViaDrill
T2C0.0197
; #@! TA.AperFunction,Plated,PTH,ComponentDrill
T3C0.0394
%
G90
G05
T1
X4.311Y-3.6732
X4.3465Y-3.5079
X4.378Y-3.4685
X4.4764Y-4.1693
X4.5709Y-3.4409
X4.5984Y-3.6732
X4.6142Y-3.4016
X4.811Y-4.1142
X4.8583Y-5.1299
X4.8622Y-3.9606
X5.2283Y-4.0539
X5.2283Y-4.1535
X5.3858Y-4.6535
T2
X3.9606Y-3.7992
X3.9685Y-2.563
X4.0157Y-4.7441
X4.0394Y-4.3307
X4.0889Y-2.0417
X4.1142Y-3.9055
X4.1299Y-2.0984
X4.189Y-3.3858
X4.2165Y-3.5433
X4.2165Y-4.6417
X4.2283Y-5.0669
X4.2559Y-2.2087
X4.2756Y-3.4646
X4.3189Y-2.5591
X4.3661Y-2.8819
X4.4055Y-4.8425
X4.4252Y-5.4921
X4.4488Y-4.5118
X4.4882Y-2.1142
X4.4882Y-2.4055
X4.5039Y-4.4094
X4.5276Y-2.2953
X4.5354Y-4.0945
X4.5433Y-4.5866
X4.5472Y-3.0276
X4.5472Y-4.5118
X4.5512Y-4.374
X4.5591Y-4.8819
X4.5669Y-3.5039
X4.5787Y-3.7598
X4.6024Y-2.3858
X4.6102Y-2.9764
X4.6417Y-2.0591
X4.6457Y-4.6378
X4.6535Y-3.9685
X4.7913Y-5.626
X4.7953Y-2.1024
X4.8346Y-2.3622
X4.8386Y-3.3937
X4.8504Y-3.6732
X4.8898Y-4.811
X4.8937Y-3.3937
X4.8976Y-3.2677
X4.8976Y-4.4488
X4.9016Y-3.0197
X4.9016Y-4.5118
X4.9094Y-3.5512
X4.9803Y-4.2244
X4.9921Y-5.3228
X4.9961Y-4.0236
X5.0157Y-2.8583
X5.0512Y-4.7717
X5.0512Y-4.9173
X5.0591Y-3.3583
X5.0591Y-4.4488
X5.063Y-2.5433
X5.0669Y-3.6693
X5.0669Y-3.7362
X5.0669Y-4.0315
X5.126Y-4.6457
X5.1299Y-5.3622
X5.1535Y-2.2244
X5.1772Y-2.4016
X5.2205Y-4.2362
X5.2323Y-2.7087
X5.2402Y-3.378
X5.2441Y-2.9252
X5.2441Y-4.9921
X5.2795Y-4.4567
X5.3268Y-2.4843
X5.3386Y-5.8583
X5.3622Y-2.0276
X5.4252Y-2.1024
X5.4685Y-2.5276
T3
X4.0157Y-2.6772
X4.0157Y-2.7772
X4.0157Y-2.8772
X4.0157Y-2.9772
X4.0157Y-3.0772
X4.0157Y-3.1772
X4.0157Y-3.2772
X4.0157Y-3.3772
X4.0157Y-3.4772
X4.0157Y-4.1339
X4.0157Y-4.2339
X4.0157Y-4.8819
X4.0157Y-4.9819
X4.0157Y-5.0819
X4.0157Y-5.1819
X4.0157Y-5.2819
X4.0157Y-5.3819
X4.0157Y-5.4819
X4.0157Y-5.5819
X4.0157Y-5.6819
X4.0157Y-5.7819
X4.3898Y-5.8189
X4.5252Y-2.6431
X4.5252Y-2.7431
X4.6252Y-2.6431
X4.6252Y-2.7431
X4.7244Y-5.8189
X4.7252Y-2.6431
X4.7252Y-2.7431
X4.8252Y-2.6431
X4.8252Y-2.7431
X4.9252Y-2.6431
X4.9252Y-2.7431
X5.0433Y-5.8189
X5.1102Y-3.5354
X5.2795Y-3.5354
X5.4331Y-2.6772
X5.4331Y-2.7772
X5.4331Y-2.8772
X5.4331Y-2.9772
X5.4331Y-3.0772
X5.4331Y-3.1772
X5.4331Y-3.2772
X5.4331Y-3.3772
X5.4331Y-3.4772
X5.4331Y-3.8539
X5.4331Y-3.9539
X5.4331Y-4.0539
X5.4331Y-4.1539
X5.4331Y-4.5
X5.4331Y-4.8819
X5.4331Y-4.9819
X5.4331Y-5.0819
X5.4331Y-5.1819
X5.4331Y-5.2819
X5.4331Y-5.3819
X5.4331Y-5.4819
X5.4331Y-5.5819
X5.4331Y-5.6819
X5.4331Y-5.7819
M30
