G04 #@! TF.GenerationSoftware,KiCad,Pcbnew,8.0.4*
G04 #@! TF.CreationDate,2024-08-08T14:53:28+01:00*
G04 #@! TF.ProjectId,MidiMonger_components,4d696469-4d6f-46e6-9765-725f636f6d70,rev?*
G04 #@! TF.SameCoordinates,Original*
G04 #@! TF.FileFunction,Soldermask,Bot*
G04 #@! TF.FilePolarity,Negative*
%FSLAX46Y46*%
G04 Gerber Fmt 4.6, Leading zero omitted, Abs format (unit mm)*
G04 Created by KiCad (PCBNEW 8.0.4) date 2024-08-08 14:53:28*
%MOMM*%
%LPD*%
G01*
G04 APERTURE LIST*
G04 Aperture macros list*
%AMRoundRect*
0 Rectangle with rounded corners*
0 $1 Rounding radius*
0 $2 $3 $4 $5 $6 $7 $8 $9 X,Y pos of 4 corners*
0 Add a 4 corners polygon primitive as box body*
4,1,4,$2,$3,$4,$5,$6,$7,$8,$9,$2,$3,0*
0 Add four circle primitives for the rounded corners*
1,1,$1+$1,$2,$3*
1,1,$1+$1,$4,$5*
1,1,$1+$1,$6,$7*
1,1,$1+$1,$8,$9*
0 Add four rect primitives between the rounded corners*
20,1,$1+$1,$2,$3,$4,$5,0*
20,1,$1+$1,$4,$5,$6,$7,0*
20,1,$1+$1,$6,$7,$8,$9,0*
20,1,$1+$1,$8,$9,$2,$3,0*%
G04 Aperture macros list end*
%ADD10R,1.700000X1.700000*%
%ADD11O,1.700000X1.700000*%
%ADD12RoundRect,0.225000X0.225000X0.375000X-0.225000X0.375000X-0.225000X-0.375000X0.225000X-0.375000X0*%
%ADD13RoundRect,0.250000X0.550000X-1.050000X0.550000X1.050000X-0.550000X1.050000X-0.550000X-1.050000X0*%
%ADD14RoundRect,0.225000X0.225000X0.250000X-0.225000X0.250000X-0.225000X-0.250000X0.225000X-0.250000X0*%
%ADD15C,1.700000*%
%ADD16RoundRect,0.250000X-0.275000X-0.350000X0.275000X-0.350000X0.275000X0.350000X-0.275000X0.350000X0*%
%ADD17RoundRect,0.200000X0.200000X0.275000X-0.200000X0.275000X-0.200000X-0.275000X0.200000X-0.275000X0*%
%ADD18RoundRect,0.200000X-0.200000X-0.275000X0.200000X-0.275000X0.200000X0.275000X-0.200000X0.275000X0*%
%ADD19RoundRect,0.375000X0.375000X-0.625000X0.375000X0.625000X-0.375000X0.625000X-0.375000X-0.625000X0*%
%ADD20RoundRect,0.500000X1.400000X-0.500000X1.400000X0.500000X-1.400000X0.500000X-1.400000X-0.500000X0*%
%ADD21RoundRect,0.100000X-0.637500X-0.100000X0.637500X-0.100000X0.637500X0.100000X-0.637500X0.100000X0*%
%ADD22RoundRect,0.150000X0.825000X0.150000X-0.825000X0.150000X-0.825000X-0.150000X0.825000X-0.150000X0*%
%ADD23R,3.100000X1.600000*%
%ADD24RoundRect,0.225000X-0.225000X-0.250000X0.225000X-0.250000X0.225000X0.250000X-0.225000X0.250000X0*%
%ADD25RoundRect,0.100000X0.637500X0.100000X-0.637500X0.100000X-0.637500X-0.100000X0.637500X-0.100000X0*%
%ADD26RoundRect,0.150000X-0.512500X-0.150000X0.512500X-0.150000X0.512500X0.150000X-0.512500X0.150000X0*%
%ADD27RoundRect,0.075000X-0.700000X-0.075000X0.700000X-0.075000X0.700000X0.075000X-0.700000X0.075000X0*%
%ADD28RoundRect,0.075000X-0.075000X-0.700000X0.075000X-0.700000X0.075000X0.700000X-0.075000X0.700000X0*%
%ADD29RoundRect,0.250000X-0.325000X-0.650000X0.325000X-0.650000X0.325000X0.650000X-0.325000X0.650000X0*%
%ADD30RoundRect,0.225000X0.250000X-0.225000X0.250000X0.225000X-0.250000X0.225000X-0.250000X-0.225000X0*%
%ADD31RoundRect,0.225000X-0.375000X0.225000X-0.375000X-0.225000X0.375000X-0.225000X0.375000X0.225000X0*%
%ADD32R,2.500000X1.900000*%
%ADD33RoundRect,0.225000X-0.250000X0.225000X-0.250000X-0.225000X0.250000X-0.225000X0.250000X0.225000X0*%
G04 APERTURE END LIST*
D10*
X138000000Y-68000000D03*
D11*
X138000000Y-70540000D03*
X138000000Y-73080000D03*
X138000000Y-75620000D03*
X138000000Y-78160000D03*
X138000000Y-80700000D03*
X138000000Y-83240000D03*
X138000000Y-85780000D03*
X138000000Y-88320000D03*
D10*
X102000000Y-124000000D03*
D11*
X102000000Y-126540000D03*
X102000000Y-129080000D03*
X102000000Y-131620000D03*
X102000000Y-134160000D03*
X102000000Y-136700000D03*
X102000000Y-139240000D03*
X102000000Y-141780000D03*
X102000000Y-144320000D03*
X102000000Y-146860000D03*
D10*
X138000000Y-124000000D03*
D11*
X138000000Y-126540000D03*
X138000000Y-129080000D03*
X138000000Y-131620000D03*
X138000000Y-134160000D03*
X138000000Y-136700000D03*
X138000000Y-139240000D03*
X138000000Y-141780000D03*
X138000000Y-144320000D03*
X138000000Y-146860000D03*
D10*
X102000000Y-68000000D03*
D11*
X102000000Y-70540000D03*
X102000000Y-73080000D03*
X102000000Y-75620000D03*
X102000000Y-78160000D03*
X102000000Y-80700000D03*
X102000000Y-83240000D03*
X102000000Y-85780000D03*
X102000000Y-88320000D03*
D12*
X121650000Y-131400000D03*
X118350000Y-131400000D03*
D13*
X103500000Y-57000000D03*
X103500000Y-53400000D03*
D14*
X114575000Y-113300000D03*
X113025000Y-113300000D03*
D10*
X138000000Y-97890000D03*
D15*
X138000000Y-100430000D03*
X138000000Y-102970000D03*
X138000000Y-105510000D03*
X114940000Y-67135000D03*
X114940000Y-69675000D03*
X117480000Y-67135000D03*
X117480000Y-69675000D03*
X120020000Y-67135000D03*
X120020000Y-69675000D03*
X122560000Y-67135000D03*
X122560000Y-69675000D03*
X125100000Y-67135000D03*
D10*
X125100000Y-69675000D03*
D16*
X110050000Y-86100000D03*
X112350000Y-86100000D03*
D17*
X114925000Y-130500000D03*
X113275000Y-130500000D03*
X126925000Y-130500000D03*
X125275000Y-130500000D03*
X126925000Y-124900000D03*
X125275000Y-124900000D03*
X126925000Y-121100000D03*
X125275000Y-121100000D03*
D18*
X113275000Y-121100000D03*
X114925000Y-121100000D03*
D17*
X114925000Y-126600000D03*
X113275000Y-126600000D03*
D18*
X125275000Y-119400000D03*
X126925000Y-119400000D03*
D17*
X114925000Y-119400000D03*
X113275000Y-119400000D03*
D18*
X105975000Y-75900000D03*
X107625000Y-75900000D03*
X104575000Y-114100000D03*
X106225000Y-114100000D03*
X104575000Y-115700000D03*
X106225000Y-115700000D03*
D17*
X134425000Y-83800000D03*
X132775000Y-83800000D03*
D19*
X126300000Y-58250000D03*
D20*
X128600000Y-51950000D03*
D19*
X128600000Y-58250000D03*
X130900000Y-58250000D03*
X108800000Y-58250000D03*
D20*
X111100000Y-51950000D03*
D19*
X111100000Y-58250000D03*
X113400000Y-58250000D03*
D21*
X117137500Y-115275000D03*
X117137500Y-114625000D03*
X117137500Y-113975000D03*
X117137500Y-113325000D03*
X117137500Y-112675000D03*
X117137500Y-112025000D03*
X117137500Y-111375000D03*
X117137500Y-110725000D03*
X122862500Y-110725000D03*
X122862500Y-111375000D03*
X122862500Y-112025000D03*
X122862500Y-112675000D03*
X122862500Y-113325000D03*
X122862500Y-113975000D03*
X122862500Y-114625000D03*
X122862500Y-115275000D03*
D22*
X122475000Y-119190000D03*
X122475000Y-120460000D03*
X122475000Y-121730000D03*
X122475000Y-123000000D03*
X122475000Y-124270000D03*
X122475000Y-125540000D03*
X122475000Y-126810000D03*
X117525000Y-126810000D03*
X117525000Y-125540000D03*
X117525000Y-124270000D03*
X117525000Y-123000000D03*
X117525000Y-121730000D03*
X117525000Y-120460000D03*
X117525000Y-119190000D03*
D23*
X115555000Y-142810000D03*
X115555000Y-140270000D03*
X115555000Y-137730000D03*
X115555000Y-135190000D03*
X124445000Y-135190000D03*
X124445000Y-137730000D03*
X124445000Y-140270000D03*
X124445000Y-142810000D03*
D18*
X125275000Y-126600000D03*
X126925000Y-126600000D03*
X113275000Y-124900000D03*
X114925000Y-124900000D03*
X104575000Y-112500000D03*
X106225000Y-112500000D03*
D17*
X134425000Y-78500000D03*
X132775000Y-78500000D03*
X134425000Y-75900000D03*
X132775000Y-75900000D03*
D18*
X105975000Y-81200000D03*
X107625000Y-81200000D03*
X105975000Y-78500000D03*
X107625000Y-78500000D03*
X105975000Y-83800000D03*
X107625000Y-83800000D03*
D17*
X134425000Y-81200000D03*
X132775000Y-81200000D03*
D18*
X104575000Y-110900000D03*
X106225000Y-110900000D03*
D24*
X127625000Y-101000000D03*
X129175000Y-101000000D03*
D25*
X122862500Y-77075000D03*
X122862500Y-77725000D03*
X122862500Y-78375000D03*
X122862500Y-79025000D03*
X122862500Y-79675000D03*
X122862500Y-80325000D03*
X122862500Y-80975000D03*
X122862500Y-81625000D03*
X122862500Y-82275000D03*
X122862500Y-82925000D03*
X117137500Y-82925000D03*
X117137500Y-82275000D03*
X117137500Y-81625000D03*
X117137500Y-80975000D03*
X117137500Y-80325000D03*
X117137500Y-79675000D03*
X117137500Y-79025000D03*
X117137500Y-78375000D03*
X117137500Y-77725000D03*
X117137500Y-77075000D03*
D26*
X130162500Y-113950000D03*
X130162500Y-113000000D03*
X130162500Y-112050000D03*
X132437500Y-112050000D03*
X132437500Y-113000000D03*
X132437500Y-113950000D03*
D15*
X129800000Y-89800000D03*
X111500000Y-147800000D03*
D27*
X114325000Y-100950000D03*
X114325000Y-100450000D03*
X114325000Y-99950000D03*
X114325000Y-99450000D03*
X114325000Y-98950000D03*
X114325000Y-98450000D03*
X114325000Y-97950000D03*
X114325000Y-97450000D03*
X114325000Y-96950000D03*
X114325000Y-96450000D03*
X114325000Y-95950000D03*
X114325000Y-95450000D03*
X114325000Y-94950000D03*
X114325000Y-94450000D03*
X114325000Y-93950000D03*
X114325000Y-93450000D03*
D28*
X116250000Y-91525000D03*
X116750000Y-91525000D03*
X117250000Y-91525000D03*
X117750000Y-91525000D03*
X118250000Y-91525000D03*
X118750000Y-91525000D03*
X119250000Y-91525000D03*
X119750000Y-91525000D03*
X120250000Y-91525000D03*
X120750000Y-91525000D03*
X121250000Y-91525000D03*
X121750000Y-91525000D03*
X122250000Y-91525000D03*
X122750000Y-91525000D03*
X123250000Y-91525000D03*
X123750000Y-91525000D03*
D27*
X125675000Y-93450000D03*
X125675000Y-93950000D03*
X125675000Y-94450000D03*
X125675000Y-94950000D03*
X125675000Y-95450000D03*
X125675000Y-95950000D03*
X125675000Y-96450000D03*
X125675000Y-96950000D03*
X125675000Y-97450000D03*
X125675000Y-97950000D03*
X125675000Y-98450000D03*
X125675000Y-98950000D03*
X125675000Y-99450000D03*
X125675000Y-99950000D03*
X125675000Y-100450000D03*
X125675000Y-100950000D03*
D28*
X123750000Y-102875000D03*
X123250000Y-102875000D03*
X122750000Y-102875000D03*
X122250000Y-102875000D03*
X121750000Y-102875000D03*
X121250000Y-102875000D03*
X120750000Y-102875000D03*
X120250000Y-102875000D03*
X119750000Y-102875000D03*
X119250000Y-102875000D03*
X118750000Y-102875000D03*
X118250000Y-102875000D03*
X117750000Y-102875000D03*
X117250000Y-102875000D03*
X116750000Y-102875000D03*
X116250000Y-102875000D03*
D29*
X112575000Y-61100000D03*
X109625000Y-61100000D03*
D30*
X117200000Y-89075000D03*
X117200000Y-87525000D03*
D13*
X136200000Y-53400000D03*
X136200000Y-57000000D03*
D15*
X134100000Y-89800000D03*
D31*
X107000000Y-64150000D03*
X107000000Y-67450000D03*
D24*
X125325000Y-123000000D03*
X126875000Y-123000000D03*
D31*
X132900000Y-67450000D03*
X132900000Y-64150000D03*
D15*
X138000000Y-114300000D03*
D30*
X124300000Y-88875000D03*
X124300000Y-87325000D03*
D32*
X109000000Y-97100000D03*
X109000000Y-101500000D03*
D14*
X114875000Y-123000000D03*
X113325000Y-123000000D03*
D10*
X102000000Y-105000000D03*
D11*
X102000000Y-107540000D03*
D33*
X105600000Y-96850000D03*
X105600000Y-98400000D03*
X113700000Y-103325000D03*
X113700000Y-104875000D03*
D15*
X120000000Y-147800000D03*
D14*
X111975000Y-94910000D03*
X110425000Y-94910000D03*
D29*
X130075000Y-61100000D03*
X127125000Y-61100000D03*
D33*
X116000000Y-105025000D03*
X116000000Y-106575000D03*
D17*
X129225000Y-97900000D03*
X127575000Y-97900000D03*
D13*
X120000000Y-53400000D03*
X120000000Y-57000000D03*
D30*
X105600000Y-101475000D03*
X105600000Y-99925000D03*
D15*
X128100000Y-147800000D03*
D14*
X111975000Y-93300000D03*
X110425000Y-93300000D03*
D30*
X122700000Y-88875000D03*
X122700000Y-87325000D03*
M02*
