G04 #@! TF.GenerationSoftware,KiCad,Pcbnew,8.0.4*
G04 #@! TF.CreationDate,2024-08-08T18:06:32+01:00*
G04 #@! TF.ProjectId,MidiMonger_components,4d696469-4d6f-46e6-9765-725f636f6d70,rev?*
G04 #@! TF.SameCoordinates,Original*
G04 #@! TF.FileFunction,Legend,Top*
G04 #@! TF.FilePolarity,Positive*
%FSLAX46Y46*%
G04 Gerber Fmt 4.6, Leading zero omitted, Abs format (unit mm)*
G04 Created by KiCad (PCBNEW 8.0.4) date 2024-08-08 18:06:32*
%MOMM*%
%LPD*%
G01*
G04 APERTURE LIST*
%ADD10C,0.150000*%
%ADD11C,0.120000*%
G04 APERTURE END LIST*
D10*
X137666666Y-65124819D02*
X137666666Y-65839104D01*
X137666666Y-65839104D02*
X137619047Y-65981961D01*
X137619047Y-65981961D02*
X137523809Y-66077200D01*
X137523809Y-66077200D02*
X137380952Y-66124819D01*
X137380952Y-66124819D02*
X137285714Y-66124819D01*
X138095238Y-65220057D02*
X138142857Y-65172438D01*
X138142857Y-65172438D02*
X138238095Y-65124819D01*
X138238095Y-65124819D02*
X138476190Y-65124819D01*
X138476190Y-65124819D02*
X138571428Y-65172438D01*
X138571428Y-65172438D02*
X138619047Y-65220057D01*
X138619047Y-65220057D02*
X138666666Y-65315295D01*
X138666666Y-65315295D02*
X138666666Y-65410533D01*
X138666666Y-65410533D02*
X138619047Y-65553390D01*
X138619047Y-65553390D02*
X138047619Y-66124819D01*
X138047619Y-66124819D02*
X138666666Y-66124819D01*
X101666666Y-121124819D02*
X101666666Y-121839104D01*
X101666666Y-121839104D02*
X101619047Y-121981961D01*
X101619047Y-121981961D02*
X101523809Y-122077200D01*
X101523809Y-122077200D02*
X101380952Y-122124819D01*
X101380952Y-122124819D02*
X101285714Y-122124819D01*
X102047619Y-121124819D02*
X102666666Y-121124819D01*
X102666666Y-121124819D02*
X102333333Y-121505771D01*
X102333333Y-121505771D02*
X102476190Y-121505771D01*
X102476190Y-121505771D02*
X102571428Y-121553390D01*
X102571428Y-121553390D02*
X102619047Y-121601009D01*
X102619047Y-121601009D02*
X102666666Y-121696247D01*
X102666666Y-121696247D02*
X102666666Y-121934342D01*
X102666666Y-121934342D02*
X102619047Y-122029580D01*
X102619047Y-122029580D02*
X102571428Y-122077200D01*
X102571428Y-122077200D02*
X102476190Y-122124819D01*
X102476190Y-122124819D02*
X102190476Y-122124819D01*
X102190476Y-122124819D02*
X102095238Y-122077200D01*
X102095238Y-122077200D02*
X102047619Y-122029580D01*
X137666666Y-121124819D02*
X137666666Y-121839104D01*
X137666666Y-121839104D02*
X137619047Y-121981961D01*
X137619047Y-121981961D02*
X137523809Y-122077200D01*
X137523809Y-122077200D02*
X137380952Y-122124819D01*
X137380952Y-122124819D02*
X137285714Y-122124819D01*
X138571428Y-121458152D02*
X138571428Y-122124819D01*
X138333333Y-121077200D02*
X138095238Y-121791485D01*
X138095238Y-121791485D02*
X138714285Y-121791485D01*
X101666666Y-65124819D02*
X101666666Y-65839104D01*
X101666666Y-65839104D02*
X101619047Y-65981961D01*
X101619047Y-65981961D02*
X101523809Y-66077200D01*
X101523809Y-66077200D02*
X101380952Y-66124819D01*
X101380952Y-66124819D02*
X101285714Y-66124819D01*
X102666666Y-66124819D02*
X102095238Y-66124819D01*
X102380952Y-66124819D02*
X102380952Y-65124819D01*
X102380952Y-65124819D02*
X102285714Y-65267676D01*
X102285714Y-65267676D02*
X102190476Y-65362914D01*
X102190476Y-65362914D02*
X102095238Y-65410533D01*
D11*
X136670000Y-66670000D02*
X138000000Y-66670000D01*
X136670000Y-68000000D02*
X136670000Y-66670000D01*
X136670000Y-69270000D02*
X136670000Y-89650000D01*
X136670000Y-69270000D02*
X139330000Y-69270000D01*
X136670000Y-89650000D02*
X139330000Y-89650000D01*
X139330000Y-69270000D02*
X139330000Y-89650000D01*
X100670000Y-122670000D02*
X102000000Y-122670000D01*
X100670000Y-124000000D02*
X100670000Y-122670000D01*
X100670000Y-125270000D02*
X100670000Y-148190000D01*
X100670000Y-125270000D02*
X103330000Y-125270000D01*
X100670000Y-148190000D02*
X103330000Y-148190000D01*
X103330000Y-125270000D02*
X103330000Y-148190000D01*
X136670000Y-122670000D02*
X138000000Y-122670000D01*
X136670000Y-124000000D02*
X136670000Y-122670000D01*
X136670000Y-125270000D02*
X136670000Y-148190000D01*
X136670000Y-125270000D02*
X139330000Y-125270000D01*
X136670000Y-148190000D02*
X139330000Y-148190000D01*
X139330000Y-125270000D02*
X139330000Y-148190000D01*
X100670000Y-66670000D02*
X102000000Y-66670000D01*
X100670000Y-68000000D02*
X100670000Y-66670000D01*
X100670000Y-69270000D02*
X100670000Y-89650000D01*
X100670000Y-69270000D02*
X103330000Y-69270000D01*
X100670000Y-89650000D02*
X103330000Y-89650000D01*
X103330000Y-69270000D02*
X103330000Y-89650000D01*
M02*
