G04 #@! TF.GenerationSoftware,KiCad,Pcbnew,(6.0.11)*
G04 #@! TF.CreationDate,2023-03-02T17:20:23+00:00*
G04 #@! TF.ProjectId,QMidiMonger_panel,514d6964-694d-46f6-9e67-65725f70616e,rev?*
G04 #@! TF.SameCoordinates,Original*
G04 #@! TF.FileFunction,Legend,Bot*
G04 #@! TF.FilePolarity,Positive*
%FSLAX46Y46*%
G04 Gerber Fmt 4.6, Leading zero omitted, Abs format (unit mm)*
G04 Created by KiCad (PCBNEW (6.0.11)) date 2023-03-02 17:20:23*
%MOMM*%
%LPD*%
G01*
G04 APERTURE LIST*
%ADD10C,0.150000*%
G04 APERTURE END LIST*
D10*
X120519047Y-155752380D02*
X120519047Y-156466666D01*
X120566666Y-156609523D01*
X120661904Y-156704761D01*
X120804761Y-156752380D01*
X120900000Y-156752380D01*
X119566666Y-156752380D02*
X120042857Y-156752380D01*
X120042857Y-155752380D01*
X118661904Y-156657142D02*
X118709523Y-156704761D01*
X118852380Y-156752380D01*
X118947619Y-156752380D01*
X119090476Y-156704761D01*
X119185714Y-156609523D01*
X119233333Y-156514285D01*
X119280952Y-156323809D01*
X119280952Y-156180952D01*
X119233333Y-155990476D01*
X119185714Y-155895238D01*
X119090476Y-155800000D01*
X118947619Y-155752380D01*
X118852380Y-155752380D01*
X118709523Y-155800000D01*
X118661904Y-155847619D01*
X117947619Y-155752380D02*
X117947619Y-156466666D01*
X117995238Y-156609523D01*
X118090476Y-156704761D01*
X118233333Y-156752380D01*
X118328571Y-156752380D01*
X116995238Y-156752380D02*
X117471428Y-156752380D01*
X117471428Y-155752380D01*
X116090476Y-156657142D02*
X116138095Y-156704761D01*
X116280952Y-156752380D01*
X116376190Y-156752380D01*
X116519047Y-156704761D01*
X116614285Y-156609523D01*
X116661904Y-156514285D01*
X116709523Y-156323809D01*
X116709523Y-156180952D01*
X116661904Y-155990476D01*
X116614285Y-155895238D01*
X116519047Y-155800000D01*
X116376190Y-155752380D01*
X116280952Y-155752380D01*
X116138095Y-155800000D01*
X116090476Y-155847619D01*
X115376190Y-155752380D02*
X115376190Y-156466666D01*
X115423809Y-156609523D01*
X115519047Y-156704761D01*
X115661904Y-156752380D01*
X115757142Y-156752380D01*
X114423809Y-156752380D02*
X114900000Y-156752380D01*
X114900000Y-155752380D01*
X113519047Y-156657142D02*
X113566666Y-156704761D01*
X113709523Y-156752380D01*
X113804761Y-156752380D01*
X113947619Y-156704761D01*
X114042857Y-156609523D01*
X114090476Y-156514285D01*
X114138095Y-156323809D01*
X114138095Y-156180952D01*
X114090476Y-155990476D01*
X114042857Y-155895238D01*
X113947619Y-155800000D01*
X113804761Y-155752380D01*
X113709523Y-155752380D01*
X113566666Y-155800000D01*
X113519047Y-155847619D01*
X112804761Y-155752380D02*
X112804761Y-156466666D01*
X112852380Y-156609523D01*
X112947619Y-156704761D01*
X113090476Y-156752380D01*
X113185714Y-156752380D01*
X111852380Y-156752380D02*
X112328571Y-156752380D01*
X112328571Y-155752380D01*
X110947619Y-156657142D02*
X110995238Y-156704761D01*
X111138095Y-156752380D01*
X111233333Y-156752380D01*
X111376190Y-156704761D01*
X111471428Y-156609523D01*
X111519047Y-156514285D01*
X111566666Y-156323809D01*
X111566666Y-156180952D01*
X111519047Y-155990476D01*
X111471428Y-155895238D01*
X111376190Y-155800000D01*
X111233333Y-155752380D01*
X111138095Y-155752380D01*
X110995238Y-155800000D01*
X110947619Y-155847619D01*
X124866666Y-41147380D02*
X124866666Y-40147380D01*
X124533333Y-40861666D01*
X124200000Y-40147380D01*
X124200000Y-41147380D01*
X123580952Y-41147380D02*
X123676190Y-41099761D01*
X123723809Y-41052142D01*
X123771428Y-40956904D01*
X123771428Y-40671190D01*
X123723809Y-40575952D01*
X123676190Y-40528333D01*
X123580952Y-40480714D01*
X123438095Y-40480714D01*
X123342857Y-40528333D01*
X123295238Y-40575952D01*
X123247619Y-40671190D01*
X123247619Y-40956904D01*
X123295238Y-41052142D01*
X123342857Y-41099761D01*
X123438095Y-41147380D01*
X123580952Y-41147380D01*
X122390476Y-40480714D02*
X122390476Y-41147380D01*
X122819047Y-40480714D02*
X122819047Y-41004523D01*
X122771428Y-41099761D01*
X122676190Y-41147380D01*
X122533333Y-41147380D01*
X122438095Y-41099761D01*
X122390476Y-41052142D01*
X121914285Y-40480714D02*
X121914285Y-41147380D01*
X121914285Y-40575952D02*
X121866666Y-40528333D01*
X121771428Y-40480714D01*
X121628571Y-40480714D01*
X121533333Y-40528333D01*
X121485714Y-40623571D01*
X121485714Y-41147380D01*
X121152380Y-40480714D02*
X120771428Y-40480714D01*
X121009523Y-40147380D02*
X121009523Y-41004523D01*
X120961904Y-41099761D01*
X120866666Y-41147380D01*
X120771428Y-41147380D01*
X120438095Y-40480714D02*
X120438095Y-41337857D01*
X120485714Y-41433095D01*
X120580952Y-41480714D01*
X120628571Y-41480714D01*
X120438095Y-40147380D02*
X120485714Y-40195000D01*
X120438095Y-40242619D01*
X120390476Y-40195000D01*
X120438095Y-40147380D01*
X120438095Y-40242619D01*
X119819047Y-41147380D02*
X119914285Y-41099761D01*
X119961904Y-41052142D01*
X120009523Y-40956904D01*
X120009523Y-40671190D01*
X119961904Y-40575952D01*
X119914285Y-40528333D01*
X119819047Y-40480714D01*
X119676190Y-40480714D01*
X119580952Y-40528333D01*
X119533333Y-40575952D01*
X119485714Y-40671190D01*
X119485714Y-40956904D01*
X119533333Y-41052142D01*
X119580952Y-41099761D01*
X119676190Y-41147380D01*
X119819047Y-41147380D01*
X119152380Y-40480714D02*
X118914285Y-41147380D01*
X118676190Y-40480714D02*
X118914285Y-41147380D01*
X119009523Y-41385476D01*
X119057142Y-41433095D01*
X119152380Y-41480714D01*
X117533333Y-41147380D02*
X117533333Y-40147380D01*
X117200000Y-40861666D01*
X116866666Y-40147380D01*
X116866666Y-41147380D01*
X116247619Y-41147380D02*
X116342857Y-41099761D01*
X116390476Y-41052142D01*
X116438095Y-40956904D01*
X116438095Y-40671190D01*
X116390476Y-40575952D01*
X116342857Y-40528333D01*
X116247619Y-40480714D01*
X116104761Y-40480714D01*
X116009523Y-40528333D01*
X115961904Y-40575952D01*
X115914285Y-40671190D01*
X115914285Y-40956904D01*
X115961904Y-41052142D01*
X116009523Y-41099761D01*
X116104761Y-41147380D01*
X116247619Y-41147380D01*
X115057142Y-41147380D02*
X115057142Y-40147380D01*
X115057142Y-41099761D02*
X115152380Y-41147380D01*
X115342857Y-41147380D01*
X115438095Y-41099761D01*
X115485714Y-41052142D01*
X115533333Y-40956904D01*
X115533333Y-40671190D01*
X115485714Y-40575952D01*
X115438095Y-40528333D01*
X115342857Y-40480714D01*
X115152380Y-40480714D01*
X115057142Y-40528333D01*
X114152380Y-40480714D02*
X114152380Y-41147380D01*
X114580952Y-40480714D02*
X114580952Y-41004523D01*
X114533333Y-41099761D01*
X114438095Y-41147380D01*
X114295238Y-41147380D01*
X114200000Y-41099761D01*
X114152380Y-41052142D01*
X113533333Y-41147380D02*
X113628571Y-41099761D01*
X113676190Y-41004523D01*
X113676190Y-40147380D01*
X112723809Y-41147380D02*
X112723809Y-40623571D01*
X112771428Y-40528333D01*
X112866666Y-40480714D01*
X113057142Y-40480714D01*
X113152380Y-40528333D01*
X112723809Y-41099761D02*
X112819047Y-41147380D01*
X113057142Y-41147380D01*
X113152380Y-41099761D01*
X113200000Y-41004523D01*
X113200000Y-40909285D01*
X113152380Y-40814047D01*
X113057142Y-40766428D01*
X112819047Y-40766428D01*
X112723809Y-40718809D01*
X112247619Y-41147380D02*
X112247619Y-40480714D01*
X112247619Y-40671190D02*
X112200000Y-40575952D01*
X112152380Y-40528333D01*
X112057142Y-40480714D01*
X111961904Y-40480714D01*
X110914285Y-40242619D02*
X110866666Y-40195000D01*
X110771428Y-40147380D01*
X110533333Y-40147380D01*
X110438095Y-40195000D01*
X110390476Y-40242619D01*
X110342857Y-40337857D01*
X110342857Y-40433095D01*
X110390476Y-40575952D01*
X110961904Y-41147380D01*
X110342857Y-41147380D01*
X109723809Y-40147380D02*
X109628571Y-40147380D01*
X109533333Y-40195000D01*
X109485714Y-40242619D01*
X109438095Y-40337857D01*
X109390476Y-40528333D01*
X109390476Y-40766428D01*
X109438095Y-40956904D01*
X109485714Y-41052142D01*
X109533333Y-41099761D01*
X109628571Y-41147380D01*
X109723809Y-41147380D01*
X109819047Y-41099761D01*
X109866666Y-41052142D01*
X109914285Y-40956904D01*
X109961904Y-40766428D01*
X109961904Y-40528333D01*
X109914285Y-40337857D01*
X109866666Y-40242619D01*
X109819047Y-40195000D01*
X109723809Y-40147380D01*
X109009523Y-40242619D02*
X108961904Y-40195000D01*
X108866666Y-40147380D01*
X108628571Y-40147380D01*
X108533333Y-40195000D01*
X108485714Y-40242619D01*
X108438095Y-40337857D01*
X108438095Y-40433095D01*
X108485714Y-40575952D01*
X109057142Y-41147380D01*
X108438095Y-41147380D01*
X108104761Y-40147380D02*
X107485714Y-40147380D01*
X107819047Y-40528333D01*
X107676190Y-40528333D01*
X107580952Y-40575952D01*
X107533333Y-40623571D01*
X107485714Y-40718809D01*
X107485714Y-40956904D01*
X107533333Y-41052142D01*
X107580952Y-41099761D01*
X107676190Y-41147380D01*
X107961904Y-41147380D01*
X108057142Y-41099761D01*
X108104761Y-41052142D01*
X126580952Y-42852619D02*
X126676190Y-42805000D01*
X126771428Y-42709761D01*
X126914285Y-42566904D01*
X127009523Y-42519285D01*
X127104761Y-42519285D01*
X127057142Y-42757380D02*
X127152380Y-42709761D01*
X127247619Y-42614523D01*
X127295238Y-42424047D01*
X127295238Y-42090714D01*
X127247619Y-41900238D01*
X127152380Y-41805000D01*
X127057142Y-41757380D01*
X126866666Y-41757380D01*
X126771428Y-41805000D01*
X126676190Y-41900238D01*
X126628571Y-42090714D01*
X126628571Y-42424047D01*
X126676190Y-42614523D01*
X126771428Y-42709761D01*
X126866666Y-42757380D01*
X127057142Y-42757380D01*
X125771428Y-42090714D02*
X125771428Y-42757380D01*
X126200000Y-42090714D02*
X126200000Y-42614523D01*
X126152380Y-42709761D01*
X126057142Y-42757380D01*
X125914285Y-42757380D01*
X125819047Y-42709761D01*
X125771428Y-42662142D01*
X124866666Y-42757380D02*
X124866666Y-42233571D01*
X124914285Y-42138333D01*
X125009523Y-42090714D01*
X125200000Y-42090714D01*
X125295238Y-42138333D01*
X124866666Y-42709761D02*
X124961904Y-42757380D01*
X125200000Y-42757380D01*
X125295238Y-42709761D01*
X125342857Y-42614523D01*
X125342857Y-42519285D01*
X125295238Y-42424047D01*
X125200000Y-42376428D01*
X124961904Y-42376428D01*
X124866666Y-42328809D01*
X123961904Y-42757380D02*
X123961904Y-41757380D01*
X123961904Y-42709761D02*
X124057142Y-42757380D01*
X124247619Y-42757380D01*
X124342857Y-42709761D01*
X124390476Y-42662142D01*
X124438095Y-42566904D01*
X124438095Y-42281190D01*
X124390476Y-42185952D01*
X124342857Y-42138333D01*
X124247619Y-42090714D01*
X124057142Y-42090714D01*
X123961904Y-42138333D01*
X122723809Y-42757380D02*
X122723809Y-41757380D01*
X122390476Y-42471666D01*
X122057142Y-41757380D01*
X122057142Y-42757380D01*
X121580952Y-42757380D02*
X121580952Y-41757380D01*
X121104761Y-42757380D02*
X121104761Y-41757380D01*
X120866666Y-41757380D01*
X120723809Y-41805000D01*
X120628571Y-41900238D01*
X120580952Y-41995476D01*
X120533333Y-42185952D01*
X120533333Y-42328809D01*
X120580952Y-42519285D01*
X120628571Y-42614523D01*
X120723809Y-42709761D01*
X120866666Y-42757380D01*
X121104761Y-42757380D01*
X120104761Y-42757380D02*
X120104761Y-41757380D01*
X118866666Y-42757380D02*
X118866666Y-41757380D01*
X118533333Y-42471666D01*
X118200000Y-41757380D01*
X118200000Y-42757380D01*
X117580952Y-42757380D02*
X117676190Y-42709761D01*
X117723809Y-42662142D01*
X117771428Y-42566904D01*
X117771428Y-42281190D01*
X117723809Y-42185952D01*
X117676190Y-42138333D01*
X117580952Y-42090714D01*
X117438095Y-42090714D01*
X117342857Y-42138333D01*
X117295238Y-42185952D01*
X117247619Y-42281190D01*
X117247619Y-42566904D01*
X117295238Y-42662142D01*
X117342857Y-42709761D01*
X117438095Y-42757380D01*
X117580952Y-42757380D01*
X116819047Y-42090714D02*
X116819047Y-42757380D01*
X116819047Y-42185952D02*
X116771428Y-42138333D01*
X116676190Y-42090714D01*
X116533333Y-42090714D01*
X116438095Y-42138333D01*
X116390476Y-42233571D01*
X116390476Y-42757380D01*
X115485714Y-42090714D02*
X115485714Y-42900238D01*
X115533333Y-42995476D01*
X115580952Y-43043095D01*
X115676190Y-43090714D01*
X115819047Y-43090714D01*
X115914285Y-43043095D01*
X115485714Y-42709761D02*
X115580952Y-42757380D01*
X115771428Y-42757380D01*
X115866666Y-42709761D01*
X115914285Y-42662142D01*
X115961904Y-42566904D01*
X115961904Y-42281190D01*
X115914285Y-42185952D01*
X115866666Y-42138333D01*
X115771428Y-42090714D01*
X115580952Y-42090714D01*
X115485714Y-42138333D01*
X114628571Y-42709761D02*
X114723809Y-42757380D01*
X114914285Y-42757380D01*
X115009523Y-42709761D01*
X115057142Y-42614523D01*
X115057142Y-42233571D01*
X115009523Y-42138333D01*
X114914285Y-42090714D01*
X114723809Y-42090714D01*
X114628571Y-42138333D01*
X114580952Y-42233571D01*
X114580952Y-42328809D01*
X115057142Y-42424047D01*
X114152380Y-42757380D02*
X114152380Y-42090714D01*
X114152380Y-42281190D02*
X114104761Y-42185952D01*
X114057142Y-42138333D01*
X113961904Y-42090714D01*
X113866666Y-42090714D01*
X112771428Y-42757380D02*
X112771428Y-41757380D01*
X112390476Y-41757380D01*
X112295238Y-41805000D01*
X112247619Y-41852619D01*
X112200000Y-41947857D01*
X112200000Y-42090714D01*
X112247619Y-42185952D01*
X112295238Y-42233571D01*
X112390476Y-42281190D01*
X112771428Y-42281190D01*
X111342857Y-42757380D02*
X111342857Y-42233571D01*
X111390476Y-42138333D01*
X111485714Y-42090714D01*
X111676190Y-42090714D01*
X111771428Y-42138333D01*
X111342857Y-42709761D02*
X111438095Y-42757380D01*
X111676190Y-42757380D01*
X111771428Y-42709761D01*
X111819047Y-42614523D01*
X111819047Y-42519285D01*
X111771428Y-42424047D01*
X111676190Y-42376428D01*
X111438095Y-42376428D01*
X111342857Y-42328809D01*
X110866666Y-42090714D02*
X110866666Y-42757380D01*
X110866666Y-42185952D02*
X110819047Y-42138333D01*
X110723809Y-42090714D01*
X110580952Y-42090714D01*
X110485714Y-42138333D01*
X110438095Y-42233571D01*
X110438095Y-42757380D01*
X109580952Y-42709761D02*
X109676190Y-42757380D01*
X109866666Y-42757380D01*
X109961904Y-42709761D01*
X110009523Y-42614523D01*
X110009523Y-42233571D01*
X109961904Y-42138333D01*
X109866666Y-42090714D01*
X109676190Y-42090714D01*
X109580952Y-42138333D01*
X109533333Y-42233571D01*
X109533333Y-42328809D01*
X110009523Y-42424047D01*
X108961904Y-42757380D02*
X109057142Y-42709761D01*
X109104761Y-42614523D01*
X109104761Y-41757380D01*
X107914285Y-42090714D02*
X107676190Y-42757380D01*
X107438095Y-42090714D01*
X106533333Y-42757380D02*
X107104761Y-42757380D01*
X106819047Y-42757380D02*
X106819047Y-41757380D01*
X106914285Y-41900238D01*
X107009523Y-41995476D01*
X107104761Y-42043095D01*
X106104761Y-42662142D02*
X106057142Y-42709761D01*
X106104761Y-42757380D01*
X106152380Y-42709761D01*
X106104761Y-42662142D01*
X106104761Y-42757380D01*
X105438095Y-41757380D02*
X105342857Y-41757380D01*
X105247619Y-41805000D01*
X105200000Y-41852619D01*
X105152380Y-41947857D01*
X105104761Y-42138333D01*
X105104761Y-42376428D01*
X105152380Y-42566904D01*
X105200000Y-42662142D01*
X105247619Y-42709761D01*
X105342857Y-42757380D01*
X105438095Y-42757380D01*
X105533333Y-42709761D01*
X105580952Y-42662142D01*
X105628571Y-42566904D01*
X105676190Y-42376428D01*
X105676190Y-42138333D01*
X105628571Y-41947857D01*
X105580952Y-41852619D01*
X105533333Y-41805000D01*
X105438095Y-41757380D01*
M02*
