G04 #@! TF.GenerationSoftware,KiCad,Pcbnew,(6.0.11)*
G04 #@! TF.CreationDate,2023-03-02T17:20:23+00:00*
G04 #@! TF.ProjectId,QMidiMonger_panel,514d6964-694d-46f6-9e67-65725f70616e,rev?*
G04 #@! TF.SameCoordinates,Original*
G04 #@! TF.FileFunction,Copper,L1,Top*
G04 #@! TF.FilePolarity,Positive*
%FSLAX46Y46*%
G04 Gerber Fmt 4.6, Leading zero omitted, Abs format (unit mm)*
G04 Created by KiCad (PCBNEW (6.0.11)) date 2023-03-02 17:20:23*
%MOMM*%
%LPD*%
G01*
G04 APERTURE LIST*
G04 APERTURE END LIST*
G04 #@! TA.AperFunction,NonConductor*
G36*
X135583621Y-29528502D02*
G01*
X135630114Y-29582158D01*
X135641500Y-29634500D01*
X135641500Y-156865500D01*
X135621498Y-156933621D01*
X135567842Y-156980114D01*
X135515500Y-156991500D01*
X96484500Y-156991500D01*
X96416379Y-156971498D01*
X96369886Y-156917842D01*
X96358500Y-156865500D01*
X96358500Y-154632703D01*
X100390743Y-154632703D01*
X100428268Y-154917734D01*
X100504129Y-155195036D01*
X100616923Y-155459476D01*
X100764561Y-155706161D01*
X100944313Y-155930528D01*
X101152851Y-156128423D01*
X101386317Y-156296186D01*
X101390112Y-156298195D01*
X101390113Y-156298196D01*
X101411869Y-156309715D01*
X101640392Y-156430712D01*
X101910373Y-156529511D01*
X102191264Y-156590755D01*
X102219841Y-156593004D01*
X102414282Y-156608307D01*
X102414291Y-156608307D01*
X102416739Y-156608500D01*
X104372271Y-156608500D01*
X104374407Y-156608354D01*
X104374418Y-156608354D01*
X104582548Y-156594165D01*
X104582554Y-156594164D01*
X104586825Y-156593873D01*
X104591020Y-156593004D01*
X104591022Y-156593004D01*
X104727584Y-156564723D01*
X104868342Y-156535574D01*
X105139343Y-156439607D01*
X105394812Y-156307750D01*
X105398313Y-156305289D01*
X105398317Y-156305287D01*
X105512417Y-156225096D01*
X105630023Y-156142441D01*
X105840622Y-155946740D01*
X106022713Y-155724268D01*
X106172927Y-155479142D01*
X106288483Y-155215898D01*
X106367244Y-154939406D01*
X106407751Y-154654784D01*
X106407845Y-154636951D01*
X106409235Y-154371583D01*
X106409235Y-154371576D01*
X106409257Y-154367297D01*
X106371732Y-154082266D01*
X106295871Y-153804964D01*
X106183077Y-153540524D01*
X106035439Y-153293839D01*
X105855687Y-153069472D01*
X105647149Y-152871577D01*
X105413683Y-152703814D01*
X105391843Y-152692250D01*
X105368654Y-152679972D01*
X105159608Y-152569288D01*
X104889627Y-152470489D01*
X104608736Y-152409245D01*
X104577685Y-152406801D01*
X104385718Y-152391693D01*
X104385709Y-152391693D01*
X104383261Y-152391500D01*
X102427729Y-152391500D01*
X102425593Y-152391646D01*
X102425582Y-152391646D01*
X102217452Y-152405835D01*
X102217446Y-152405836D01*
X102213175Y-152406127D01*
X102208980Y-152406996D01*
X102208978Y-152406996D01*
X102072416Y-152435277D01*
X101931658Y-152464426D01*
X101660657Y-152560393D01*
X101405188Y-152692250D01*
X101401687Y-152694711D01*
X101401683Y-152694713D01*
X101391594Y-152701804D01*
X101169977Y-152857559D01*
X100959378Y-153053260D01*
X100777287Y-153275732D01*
X100627073Y-153520858D01*
X100511517Y-153784102D01*
X100432756Y-154060594D01*
X100392249Y-154345216D01*
X100392227Y-154349505D01*
X100392226Y-154349512D01*
X100390765Y-154628417D01*
X100390743Y-154632703D01*
X96358500Y-154632703D01*
X96358500Y-142532703D01*
X99190743Y-142532703D01*
X99228268Y-142817734D01*
X99304129Y-143095036D01*
X99416923Y-143359476D01*
X99564561Y-143606161D01*
X99744313Y-143830528D01*
X99952851Y-144028423D01*
X100186317Y-144196186D01*
X100190112Y-144198195D01*
X100190113Y-144198196D01*
X100211869Y-144209715D01*
X100440392Y-144330712D01*
X100710373Y-144429511D01*
X100991264Y-144490755D01*
X101019841Y-144493004D01*
X101214282Y-144508307D01*
X101214291Y-144508307D01*
X101216739Y-144508500D01*
X101372271Y-144508500D01*
X101374407Y-144508354D01*
X101374418Y-144508354D01*
X101582548Y-144494165D01*
X101582554Y-144494164D01*
X101586825Y-144493873D01*
X101591020Y-144493004D01*
X101591022Y-144493004D01*
X101727583Y-144464724D01*
X101868342Y-144435574D01*
X102139343Y-144339607D01*
X102394812Y-144207750D01*
X102398313Y-144205289D01*
X102398317Y-144205287D01*
X102512417Y-144125096D01*
X102630023Y-144042441D01*
X102840622Y-143846740D01*
X103022713Y-143624268D01*
X103172927Y-143379142D01*
X103288483Y-143115898D01*
X103367244Y-142839406D01*
X103407751Y-142554784D01*
X103407845Y-142536951D01*
X103407867Y-142532703D01*
X128590743Y-142532703D01*
X128628268Y-142817734D01*
X128704129Y-143095036D01*
X128816923Y-143359476D01*
X128964561Y-143606161D01*
X129144313Y-143830528D01*
X129352851Y-144028423D01*
X129586317Y-144196186D01*
X129590112Y-144198195D01*
X129590113Y-144198196D01*
X129611869Y-144209715D01*
X129840392Y-144330712D01*
X130110373Y-144429511D01*
X130391264Y-144490755D01*
X130419841Y-144493004D01*
X130614282Y-144508307D01*
X130614291Y-144508307D01*
X130616739Y-144508500D01*
X130772271Y-144508500D01*
X130774407Y-144508354D01*
X130774418Y-144508354D01*
X130982548Y-144494165D01*
X130982554Y-144494164D01*
X130986825Y-144493873D01*
X130991020Y-144493004D01*
X130991022Y-144493004D01*
X131127583Y-144464724D01*
X131268342Y-144435574D01*
X131539343Y-144339607D01*
X131794812Y-144207750D01*
X131798313Y-144205289D01*
X131798317Y-144205287D01*
X131912417Y-144125096D01*
X132030023Y-144042441D01*
X132240622Y-143846740D01*
X132422713Y-143624268D01*
X132572927Y-143379142D01*
X132688483Y-143115898D01*
X132767244Y-142839406D01*
X132807751Y-142554784D01*
X132807845Y-142536951D01*
X132809235Y-142271583D01*
X132809235Y-142271576D01*
X132809257Y-142267297D01*
X132801490Y-142208296D01*
X132786180Y-142092008D01*
X132771732Y-141982266D01*
X132695871Y-141704964D01*
X132583077Y-141440524D01*
X132435439Y-141193839D01*
X132255687Y-140969472D01*
X132047149Y-140771577D01*
X131813683Y-140603814D01*
X131791843Y-140592250D01*
X131768654Y-140579972D01*
X131559608Y-140469288D01*
X131289627Y-140370489D01*
X131008736Y-140309245D01*
X130977685Y-140306801D01*
X130785718Y-140291693D01*
X130785709Y-140291693D01*
X130783261Y-140291500D01*
X130627729Y-140291500D01*
X130625593Y-140291646D01*
X130625582Y-140291646D01*
X130417452Y-140305835D01*
X130417446Y-140305836D01*
X130413175Y-140306127D01*
X130408980Y-140306996D01*
X130408978Y-140306996D01*
X130272416Y-140335277D01*
X130131658Y-140364426D01*
X129860657Y-140460393D01*
X129605188Y-140592250D01*
X129601687Y-140594711D01*
X129601683Y-140594713D01*
X129591594Y-140601804D01*
X129369977Y-140757559D01*
X129159378Y-140953260D01*
X128977287Y-141175732D01*
X128827073Y-141420858D01*
X128825347Y-141424791D01*
X128825346Y-141424792D01*
X128735144Y-141630279D01*
X128711517Y-141684102D01*
X128632756Y-141960594D01*
X128613484Y-142096010D01*
X128599278Y-142195830D01*
X128592249Y-142245216D01*
X128592227Y-142249505D01*
X128592226Y-142249512D01*
X128590765Y-142528417D01*
X128590743Y-142532703D01*
X103407867Y-142532703D01*
X103409235Y-142271583D01*
X103409235Y-142271576D01*
X103409257Y-142267297D01*
X103401490Y-142208296D01*
X103386180Y-142092008D01*
X103371732Y-141982266D01*
X103313586Y-141769721D01*
X109291024Y-141769721D01*
X109293491Y-141778352D01*
X109299150Y-141798153D01*
X109302728Y-141814915D01*
X109306920Y-141844187D01*
X109310634Y-141852355D01*
X109310634Y-141852356D01*
X109317548Y-141867562D01*
X109323996Y-141885086D01*
X109331051Y-141909771D01*
X109335843Y-141917365D01*
X109335844Y-141917368D01*
X109346830Y-141934780D01*
X109354969Y-141949863D01*
X109367208Y-141976782D01*
X109373069Y-141983584D01*
X109383970Y-141996235D01*
X109395073Y-142011239D01*
X109408776Y-142032958D01*
X109415501Y-142038897D01*
X109415504Y-142038901D01*
X109430938Y-142052532D01*
X109442982Y-142064724D01*
X109456427Y-142080327D01*
X109456430Y-142080329D01*
X109462287Y-142087127D01*
X109469816Y-142092007D01*
X109469817Y-142092008D01*
X109483835Y-142101094D01*
X109498709Y-142112385D01*
X109511217Y-142123431D01*
X109517951Y-142129378D01*
X109544711Y-142141942D01*
X109559691Y-142150263D01*
X109576983Y-142161471D01*
X109576988Y-142161473D01*
X109584515Y-142166352D01*
X109593108Y-142168922D01*
X109593113Y-142168924D01*
X109609120Y-142173711D01*
X109626564Y-142180372D01*
X109641676Y-142187467D01*
X109641678Y-142187468D01*
X109649800Y-142191281D01*
X109658667Y-142192662D01*
X109658668Y-142192662D01*
X109661353Y-142193080D01*
X109679017Y-142195830D01*
X109695732Y-142199613D01*
X109715466Y-142205515D01*
X109715472Y-142205516D01*
X109724066Y-142208086D01*
X109733037Y-142208141D01*
X109733038Y-142208141D01*
X109743097Y-142208202D01*
X109758506Y-142208296D01*
X109759289Y-142208329D01*
X109760386Y-142208500D01*
X109791377Y-142208500D01*
X109792147Y-142208502D01*
X109865785Y-142208952D01*
X109865786Y-142208952D01*
X109869721Y-142208976D01*
X109871065Y-142208592D01*
X109872410Y-142208500D01*
X122191377Y-142208500D01*
X122192148Y-142208502D01*
X122269721Y-142208976D01*
X122298152Y-142200850D01*
X122314915Y-142197272D01*
X122315753Y-142197152D01*
X122344187Y-142193080D01*
X122367564Y-142182451D01*
X122385087Y-142176004D01*
X122409771Y-142168949D01*
X122417365Y-142164157D01*
X122417368Y-142164156D01*
X122434780Y-142153170D01*
X122449865Y-142145030D01*
X122476782Y-142132792D01*
X122496235Y-142116030D01*
X122511239Y-142104927D01*
X122532958Y-142091224D01*
X122538897Y-142084499D01*
X122538901Y-142084496D01*
X122552532Y-142069062D01*
X122564724Y-142057018D01*
X122580327Y-142043573D01*
X122580329Y-142043570D01*
X122587127Y-142037713D01*
X122601094Y-142016165D01*
X122612385Y-142001291D01*
X122623431Y-141988783D01*
X122623432Y-141988782D01*
X122629378Y-141982049D01*
X122641943Y-141955287D01*
X122650263Y-141940309D01*
X122661471Y-141923017D01*
X122661473Y-141923012D01*
X122666352Y-141915485D01*
X122668922Y-141906892D01*
X122668924Y-141906887D01*
X122673711Y-141890880D01*
X122680372Y-141873436D01*
X122687467Y-141858324D01*
X122687468Y-141858322D01*
X122691281Y-141850200D01*
X122695830Y-141820983D01*
X122699613Y-141804268D01*
X122705515Y-141784534D01*
X122705516Y-141784528D01*
X122708086Y-141775934D01*
X122708296Y-141741494D01*
X122708329Y-141740711D01*
X122708500Y-141739614D01*
X122708500Y-141708623D01*
X122708502Y-141707853D01*
X122708952Y-141634215D01*
X122708952Y-141634214D01*
X122708976Y-141630279D01*
X122708592Y-141628935D01*
X122708500Y-141627590D01*
X122708500Y-129908623D01*
X122708502Y-129907853D01*
X122708800Y-129859102D01*
X122708976Y-129830279D01*
X122700850Y-129801847D01*
X122697272Y-129785085D01*
X122694352Y-129764698D01*
X122693080Y-129755813D01*
X122682451Y-129732436D01*
X122676004Y-129714913D01*
X122671416Y-129698862D01*
X122668949Y-129690229D01*
X122664156Y-129682632D01*
X122653170Y-129665220D01*
X122645030Y-129650135D01*
X122642564Y-129644711D01*
X122632792Y-129623218D01*
X122616030Y-129603765D01*
X122604927Y-129588761D01*
X122591224Y-129567042D01*
X122584499Y-129561103D01*
X122584496Y-129561099D01*
X122569062Y-129547468D01*
X122557018Y-129535276D01*
X122543573Y-129519673D01*
X122543570Y-129519671D01*
X122537713Y-129512873D01*
X122524009Y-129503990D01*
X122516165Y-129498906D01*
X122501291Y-129487615D01*
X122488783Y-129476569D01*
X122488782Y-129476568D01*
X122482049Y-129470622D01*
X122455287Y-129458057D01*
X122440309Y-129449737D01*
X122423017Y-129438529D01*
X122423012Y-129438527D01*
X122415485Y-129433648D01*
X122406892Y-129431078D01*
X122406887Y-129431076D01*
X122390880Y-129426289D01*
X122373436Y-129419628D01*
X122358324Y-129412533D01*
X122358322Y-129412532D01*
X122350200Y-129408719D01*
X122341333Y-129407338D01*
X122341332Y-129407338D01*
X122330478Y-129405648D01*
X122320983Y-129404170D01*
X122304268Y-129400387D01*
X122284534Y-129394485D01*
X122284528Y-129394484D01*
X122275934Y-129391914D01*
X122266963Y-129391859D01*
X122266962Y-129391859D01*
X122256903Y-129391798D01*
X122241494Y-129391704D01*
X122240711Y-129391671D01*
X122239614Y-129391500D01*
X122208623Y-129391500D01*
X122207853Y-129391498D01*
X122134215Y-129391048D01*
X122134214Y-129391048D01*
X122130279Y-129391024D01*
X122128935Y-129391408D01*
X122127590Y-129391500D01*
X109808623Y-129391500D01*
X109807853Y-129391498D01*
X109807037Y-129391493D01*
X109730279Y-129391024D01*
X109707918Y-129397415D01*
X109701847Y-129399150D01*
X109685085Y-129402728D01*
X109655813Y-129406920D01*
X109647645Y-129410634D01*
X109647644Y-129410634D01*
X109632438Y-129417548D01*
X109614914Y-129423996D01*
X109590229Y-129431051D01*
X109582635Y-129435843D01*
X109582632Y-129435844D01*
X109565220Y-129446830D01*
X109550137Y-129454969D01*
X109523218Y-129467208D01*
X109516416Y-129473069D01*
X109503765Y-129483970D01*
X109488761Y-129495073D01*
X109467042Y-129508776D01*
X109461103Y-129515501D01*
X109461099Y-129515504D01*
X109447468Y-129530938D01*
X109435276Y-129542982D01*
X109419673Y-129556427D01*
X109419671Y-129556430D01*
X109412873Y-129562287D01*
X109407993Y-129569816D01*
X109407992Y-129569817D01*
X109398906Y-129583835D01*
X109387615Y-129598709D01*
X109376569Y-129611217D01*
X109370622Y-129617951D01*
X109364312Y-129631391D01*
X109358058Y-129644711D01*
X109349737Y-129659691D01*
X109338529Y-129676983D01*
X109338527Y-129676988D01*
X109333648Y-129684515D01*
X109331078Y-129693108D01*
X109331076Y-129693113D01*
X109326289Y-129709120D01*
X109319628Y-129726564D01*
X109312533Y-129741676D01*
X109308719Y-129749800D01*
X109307338Y-129758667D01*
X109307338Y-129758668D01*
X109304170Y-129779015D01*
X109300387Y-129795732D01*
X109294485Y-129815466D01*
X109294484Y-129815472D01*
X109291914Y-129824066D01*
X109291859Y-129833037D01*
X109291859Y-129833038D01*
X109291704Y-129858497D01*
X109291671Y-129859289D01*
X109291500Y-129860386D01*
X109291500Y-129891377D01*
X109291498Y-129892147D01*
X109291024Y-129969721D01*
X109291408Y-129971065D01*
X109291500Y-129972410D01*
X109291500Y-141691377D01*
X109291498Y-141692147D01*
X109291024Y-141769721D01*
X103313586Y-141769721D01*
X103295871Y-141704964D01*
X103183077Y-141440524D01*
X103035439Y-141193839D01*
X102855687Y-140969472D01*
X102647149Y-140771577D01*
X102413683Y-140603814D01*
X102391843Y-140592250D01*
X102368654Y-140579972D01*
X102159608Y-140469288D01*
X101889627Y-140370489D01*
X101608736Y-140309245D01*
X101577685Y-140306801D01*
X101385718Y-140291693D01*
X101385709Y-140291693D01*
X101383261Y-140291500D01*
X101227729Y-140291500D01*
X101225593Y-140291646D01*
X101225582Y-140291646D01*
X101017452Y-140305835D01*
X101017446Y-140305836D01*
X101013175Y-140306127D01*
X101008980Y-140306996D01*
X101008978Y-140306996D01*
X100872416Y-140335277D01*
X100731658Y-140364426D01*
X100460657Y-140460393D01*
X100205188Y-140592250D01*
X100201687Y-140594711D01*
X100201683Y-140594713D01*
X100191594Y-140601804D01*
X99969977Y-140757559D01*
X99759378Y-140953260D01*
X99577287Y-141175732D01*
X99427073Y-141420858D01*
X99425347Y-141424791D01*
X99425346Y-141424792D01*
X99335144Y-141630279D01*
X99311517Y-141684102D01*
X99232756Y-141960594D01*
X99213484Y-142096010D01*
X99199278Y-142195830D01*
X99192249Y-142245216D01*
X99192227Y-142249505D01*
X99192226Y-142249512D01*
X99190765Y-142528417D01*
X99190743Y-142532703D01*
X96358500Y-142532703D01*
X96358500Y-122191972D01*
X112387724Y-122191972D01*
X112387990Y-122195313D01*
X112387990Y-122195318D01*
X112402829Y-122381777D01*
X112417384Y-122564680D01*
X112418004Y-122567975D01*
X112418004Y-122567978D01*
X112453286Y-122755596D01*
X112486482Y-122932126D01*
X112594234Y-123290149D01*
X112739422Y-123634694D01*
X112920400Y-123961861D01*
X112922321Y-123964599D01*
X112922327Y-123964609D01*
X113133197Y-124265202D01*
X113135120Y-124267943D01*
X113381149Y-124549476D01*
X113655702Y-124803270D01*
X113955670Y-125026452D01*
X113958557Y-125028156D01*
X114274764Y-125214789D01*
X114274769Y-125214792D01*
X114277655Y-125216495D01*
X114618013Y-125371246D01*
X114799521Y-125431450D01*
X114969696Y-125487895D01*
X114969703Y-125487897D01*
X114972887Y-125488953D01*
X114976172Y-125489666D01*
X114976171Y-125489666D01*
X115334981Y-125567572D01*
X115334984Y-125567572D01*
X115338261Y-125568284D01*
X115533587Y-125589331D01*
X115707477Y-125608068D01*
X115707485Y-125608069D01*
X115709995Y-125608339D01*
X115712515Y-125608407D01*
X115712527Y-125608408D01*
X115714515Y-125608461D01*
X115715945Y-125608500D01*
X115993461Y-125608500D01*
X115995127Y-125608411D01*
X115995136Y-125608411D01*
X116270022Y-125593764D01*
X116270028Y-125593763D01*
X116273357Y-125593586D01*
X116276649Y-125593056D01*
X116276656Y-125593055D01*
X116639170Y-125534665D01*
X116639171Y-125534665D01*
X116642485Y-125534131D01*
X116645725Y-125533248D01*
X116645728Y-125533247D01*
X116999960Y-125436672D01*
X116999961Y-125436672D01*
X117003206Y-125435787D01*
X117351434Y-125299669D01*
X117683226Y-125127317D01*
X117994824Y-124920683D01*
X118282700Y-124682108D01*
X118543595Y-124414292D01*
X118656574Y-124270464D01*
X118772481Y-124122907D01*
X118772482Y-124122905D01*
X118774553Y-124120269D01*
X118972959Y-123803369D01*
X119136566Y-123467179D01*
X119263523Y-123115507D01*
X119352390Y-122752336D01*
X119402163Y-122381777D01*
X119412276Y-122008028D01*
X119412010Y-122004682D01*
X119382883Y-121638669D01*
X119382882Y-121638660D01*
X119382616Y-121635320D01*
X119347952Y-121450984D01*
X119314136Y-121271158D01*
X119314134Y-121271150D01*
X119313518Y-121267874D01*
X119205766Y-120909851D01*
X119060578Y-120565306D01*
X118879600Y-120238139D01*
X118877679Y-120235401D01*
X118877673Y-120235391D01*
X118666803Y-119934798D01*
X118666802Y-119934796D01*
X118664880Y-119932057D01*
X118418851Y-119650524D01*
X118144298Y-119396730D01*
X117844330Y-119173548D01*
X117670823Y-119071140D01*
X117525236Y-118985211D01*
X117525231Y-118985208D01*
X117522345Y-118983505D01*
X117181987Y-118828754D01*
X116984735Y-118763328D01*
X116830304Y-118712105D01*
X116830297Y-118712103D01*
X116827113Y-118711047D01*
X116616578Y-118665335D01*
X116465019Y-118632428D01*
X116465016Y-118632428D01*
X116461739Y-118631716D01*
X116225270Y-118606236D01*
X116092523Y-118591932D01*
X116092515Y-118591931D01*
X116090005Y-118591661D01*
X116087485Y-118591593D01*
X116087473Y-118591592D01*
X116085485Y-118591539D01*
X116084055Y-118591500D01*
X115806539Y-118591500D01*
X115804873Y-118591589D01*
X115804864Y-118591589D01*
X115529978Y-118606236D01*
X115529972Y-118606237D01*
X115526643Y-118606414D01*
X115523351Y-118606944D01*
X115523344Y-118606945D01*
X115160830Y-118665335D01*
X115157515Y-118665869D01*
X115154275Y-118666752D01*
X115154272Y-118666753D01*
X114800040Y-118763328D01*
X114796794Y-118764213D01*
X114448566Y-118900331D01*
X114116774Y-119072683D01*
X113805176Y-119279317D01*
X113517300Y-119517892D01*
X113256405Y-119785708D01*
X113254338Y-119788340D01*
X113254334Y-119788344D01*
X113141446Y-119932057D01*
X113025447Y-120079731D01*
X112827041Y-120396631D01*
X112663434Y-120732821D01*
X112536477Y-121084493D01*
X112447610Y-121447664D01*
X112397837Y-121818223D01*
X112387724Y-122191972D01*
X96358500Y-122191972D01*
X96358500Y-98581148D01*
X98026272Y-98581148D01*
X98026454Y-98593699D01*
X98027271Y-98598489D01*
X98029707Y-98612775D01*
X98031500Y-98633956D01*
X98031500Y-114557127D01*
X98029066Y-114581772D01*
X98027037Y-114591946D01*
X98026505Y-114604488D01*
X98027049Y-114609320D01*
X98029618Y-114632156D01*
X98030122Y-114637754D01*
X98038438Y-114760885D01*
X98040036Y-114766826D01*
X98040036Y-114766828D01*
X98043252Y-114778785D01*
X98079136Y-114912219D01*
X98148426Y-115052781D01*
X98152165Y-115057666D01*
X98239932Y-115172339D01*
X98239935Y-115172343D01*
X98243673Y-115177226D01*
X98248290Y-115181294D01*
X98248291Y-115181295D01*
X98281698Y-115210728D01*
X98361256Y-115280824D01*
X98496707Y-115359638D01*
X98644877Y-115410672D01*
X98650981Y-115411510D01*
X98748843Y-115424945D01*
X98757409Y-115426424D01*
X98775181Y-115430127D01*
X98787543Y-115432703D01*
X98792399Y-115432951D01*
X98792400Y-115432951D01*
X98792713Y-115432967D01*
X98800080Y-115433343D01*
X98840231Y-115429174D01*
X98853245Y-115428500D01*
X114507878Y-115428500D01*
X114527477Y-115430723D01*
X114527566Y-115430127D01*
X114532392Y-115430849D01*
X114537127Y-115431937D01*
X114541975Y-115432284D01*
X114541978Y-115432284D01*
X114544787Y-115432485D01*
X114544793Y-115432485D01*
X114549648Y-115432832D01*
X114554495Y-115432428D01*
X114554507Y-115432428D01*
X114568354Y-115431274D01*
X114573222Y-115430963D01*
X114709517Y-115424908D01*
X114709520Y-115424908D01*
X114716039Y-115424618D01*
X114877311Y-115383194D01*
X114931311Y-115356544D01*
X115020769Y-115312395D01*
X115020772Y-115312393D01*
X115026624Y-115309505D01*
X115059219Y-115283921D01*
X115077587Y-115269504D01*
X115157602Y-115206698D01*
X115264651Y-115079163D01*
X115343200Y-114932348D01*
X115389893Y-114772522D01*
X115399088Y-114653672D01*
X115399949Y-114645786D01*
X115403728Y-114619042D01*
X115403551Y-114606490D01*
X115400285Y-114587295D01*
X115398500Y-114566160D01*
X115398500Y-98626209D01*
X115399814Y-98608063D01*
X115403026Y-98585996D01*
X115403026Y-98585990D01*
X115403728Y-98581169D01*
X115403728Y-98581148D01*
X116526272Y-98581148D01*
X116526454Y-98593699D01*
X116527271Y-98598489D01*
X116529707Y-98612775D01*
X116531500Y-98633956D01*
X116531500Y-114557127D01*
X116529066Y-114581772D01*
X116527037Y-114591946D01*
X116526505Y-114604488D01*
X116527049Y-114609320D01*
X116529618Y-114632156D01*
X116530122Y-114637754D01*
X116538438Y-114760885D01*
X116540036Y-114766826D01*
X116540036Y-114766828D01*
X116543252Y-114778785D01*
X116579136Y-114912219D01*
X116648426Y-115052781D01*
X116652165Y-115057666D01*
X116739932Y-115172339D01*
X116739935Y-115172343D01*
X116743673Y-115177226D01*
X116748290Y-115181294D01*
X116748291Y-115181295D01*
X116781698Y-115210728D01*
X116861256Y-115280824D01*
X116996707Y-115359638D01*
X117144877Y-115410672D01*
X117150981Y-115411510D01*
X117248843Y-115424945D01*
X117257409Y-115426424D01*
X117275181Y-115430127D01*
X117287543Y-115432703D01*
X117292399Y-115432951D01*
X117292400Y-115432951D01*
X117292713Y-115432967D01*
X117300080Y-115433343D01*
X117340231Y-115429174D01*
X117353245Y-115428500D01*
X133007878Y-115428500D01*
X133027477Y-115430723D01*
X133027566Y-115430127D01*
X133032392Y-115430849D01*
X133037127Y-115431937D01*
X133041975Y-115432284D01*
X133041978Y-115432284D01*
X133044787Y-115432485D01*
X133044793Y-115432485D01*
X133049648Y-115432832D01*
X133054495Y-115432428D01*
X133054507Y-115432428D01*
X133068354Y-115431274D01*
X133073222Y-115430963D01*
X133209517Y-115424908D01*
X133209520Y-115424908D01*
X133216039Y-115424618D01*
X133377311Y-115383194D01*
X133431311Y-115356544D01*
X133520769Y-115312395D01*
X133520772Y-115312393D01*
X133526624Y-115309505D01*
X133559219Y-115283921D01*
X133577587Y-115269504D01*
X133657602Y-115206698D01*
X133764651Y-115079163D01*
X133843200Y-114932348D01*
X133889893Y-114772522D01*
X133899088Y-114653672D01*
X133899949Y-114645786D01*
X133903728Y-114619042D01*
X133903551Y-114606490D01*
X133900285Y-114587295D01*
X133898500Y-114566160D01*
X133898500Y-98626209D01*
X133899814Y-98608063D01*
X133903026Y-98585996D01*
X133903026Y-98585990D01*
X133903728Y-98581169D01*
X133903603Y-98568616D01*
X133899179Y-98541951D01*
X133898380Y-98536362D01*
X133883973Y-98416475D01*
X133883973Y-98416473D01*
X133883240Y-98410377D01*
X133833931Y-98258788D01*
X133756199Y-98119616D01*
X133678296Y-98027919D01*
X133656967Y-98002814D01*
X133656965Y-98002812D01*
X133652989Y-97998132D01*
X133648186Y-97994313D01*
X133648183Y-97994311D01*
X133533015Y-97902758D01*
X133528206Y-97898935D01*
X133386576Y-97825780D01*
X133233460Y-97781436D01*
X133227344Y-97780903D01*
X133227341Y-97780902D01*
X133125931Y-97772057D01*
X133125069Y-97771982D01*
X133116413Y-97770924D01*
X133087195Y-97766321D01*
X133082333Y-97766312D01*
X133082327Y-97766312D01*
X133080925Y-97766310D01*
X133074642Y-97766299D01*
X133069835Y-97767039D01*
X133069830Y-97767039D01*
X133050368Y-97770034D01*
X133031206Y-97771500D01*
X117359800Y-97771500D01*
X117344183Y-97770528D01*
X117315595Y-97766957D01*
X117315592Y-97766957D01*
X117310766Y-97766354D01*
X117298219Y-97766733D01*
X117283280Y-97769524D01*
X117272494Y-97771538D01*
X117266891Y-97772454D01*
X117242243Y-97775917D01*
X117143586Y-97789780D01*
X117137798Y-97791788D01*
X117137795Y-97791789D01*
X117069798Y-97815383D01*
X116996010Y-97840986D01*
X116990719Y-97844075D01*
X116990718Y-97844075D01*
X116896736Y-97898935D01*
X116861104Y-97919734D01*
X116743949Y-98023058D01*
X116740228Y-98027916D01*
X116740225Y-98027919D01*
X116652688Y-98142196D01*
X116652685Y-98142201D01*
X116648959Y-98147065D01*
X116646242Y-98152559D01*
X116593706Y-98258788D01*
X116579711Y-98287085D01*
X116538813Y-98437844D01*
X116531627Y-98539570D01*
X116529944Y-98539451D01*
X116530146Y-98541301D01*
X116531498Y-98541397D01*
X116531426Y-98542413D01*
X116530855Y-98547806D01*
X116530906Y-98548268D01*
X116530653Y-98550062D01*
X116530606Y-98550167D01*
X116530508Y-98551089D01*
X116526272Y-98581148D01*
X115403728Y-98581148D01*
X115403603Y-98568616D01*
X115399179Y-98541951D01*
X115398380Y-98536362D01*
X115383973Y-98416475D01*
X115383973Y-98416473D01*
X115383240Y-98410377D01*
X115333931Y-98258788D01*
X115256199Y-98119616D01*
X115178296Y-98027919D01*
X115156967Y-98002814D01*
X115156965Y-98002812D01*
X115152989Y-97998132D01*
X115148186Y-97994313D01*
X115148183Y-97994311D01*
X115033015Y-97902758D01*
X115028206Y-97898935D01*
X114886576Y-97825780D01*
X114733460Y-97781436D01*
X114727344Y-97780903D01*
X114727341Y-97780902D01*
X114625931Y-97772057D01*
X114625069Y-97771982D01*
X114616413Y-97770924D01*
X114587195Y-97766321D01*
X114582333Y-97766312D01*
X114582327Y-97766312D01*
X114580925Y-97766310D01*
X114574642Y-97766299D01*
X114569835Y-97767039D01*
X114569830Y-97767039D01*
X114550368Y-97770034D01*
X114531206Y-97771500D01*
X98859800Y-97771500D01*
X98844183Y-97770528D01*
X98815595Y-97766957D01*
X98815592Y-97766957D01*
X98810766Y-97766354D01*
X98798219Y-97766733D01*
X98783280Y-97769524D01*
X98772494Y-97771538D01*
X98766891Y-97772454D01*
X98742243Y-97775917D01*
X98643586Y-97789780D01*
X98637798Y-97791788D01*
X98637795Y-97791789D01*
X98569798Y-97815383D01*
X98496010Y-97840986D01*
X98490719Y-97844075D01*
X98490718Y-97844075D01*
X98396736Y-97898935D01*
X98361104Y-97919734D01*
X98243949Y-98023058D01*
X98240228Y-98027916D01*
X98240225Y-98027919D01*
X98152688Y-98142196D01*
X98152685Y-98142201D01*
X98148959Y-98147065D01*
X98146242Y-98152559D01*
X98093706Y-98258788D01*
X98079711Y-98287085D01*
X98038813Y-98437844D01*
X98031627Y-98539570D01*
X98029944Y-98539451D01*
X98030146Y-98541301D01*
X98031498Y-98541397D01*
X98031426Y-98542413D01*
X98030855Y-98547806D01*
X98030906Y-98548268D01*
X98030653Y-98550062D01*
X98030606Y-98550167D01*
X98030508Y-98551089D01*
X98026272Y-98581148D01*
X96358500Y-98581148D01*
X96358500Y-79581148D01*
X98026272Y-79581148D01*
X98026454Y-79593699D01*
X98027271Y-79598489D01*
X98029707Y-79612775D01*
X98031500Y-79633956D01*
X98031500Y-95557127D01*
X98029066Y-95581772D01*
X98027037Y-95591946D01*
X98026505Y-95604488D01*
X98027049Y-95609320D01*
X98029618Y-95632156D01*
X98030122Y-95637754D01*
X98038438Y-95760885D01*
X98040036Y-95766826D01*
X98040036Y-95766828D01*
X98043252Y-95778785D01*
X98079136Y-95912219D01*
X98148426Y-96052781D01*
X98152165Y-96057666D01*
X98239932Y-96172339D01*
X98239935Y-96172343D01*
X98243673Y-96177226D01*
X98248290Y-96181294D01*
X98248291Y-96181295D01*
X98281698Y-96210728D01*
X98361256Y-96280824D01*
X98496707Y-96359638D01*
X98644877Y-96410672D01*
X98650981Y-96411510D01*
X98748843Y-96424945D01*
X98757409Y-96426424D01*
X98775181Y-96430127D01*
X98787543Y-96432703D01*
X98792399Y-96432951D01*
X98792400Y-96432951D01*
X98792713Y-96432967D01*
X98800080Y-96433343D01*
X98840231Y-96429174D01*
X98853245Y-96428500D01*
X114507878Y-96428500D01*
X114527477Y-96430723D01*
X114527566Y-96430127D01*
X114532392Y-96430849D01*
X114537127Y-96431937D01*
X114541975Y-96432284D01*
X114541978Y-96432284D01*
X114544787Y-96432485D01*
X114544793Y-96432485D01*
X114549648Y-96432832D01*
X114554495Y-96432428D01*
X114554507Y-96432428D01*
X114568354Y-96431274D01*
X114573222Y-96430963D01*
X114709517Y-96424908D01*
X114709520Y-96424908D01*
X114716039Y-96424618D01*
X114877311Y-96383194D01*
X114931311Y-96356544D01*
X115020769Y-96312395D01*
X115020772Y-96312393D01*
X115026624Y-96309505D01*
X115059219Y-96283921D01*
X115077587Y-96269504D01*
X115157602Y-96206698D01*
X115264651Y-96079163D01*
X115343200Y-95932348D01*
X115389893Y-95772522D01*
X115399088Y-95653672D01*
X115399949Y-95645786D01*
X115403728Y-95619042D01*
X115403551Y-95606490D01*
X115400285Y-95587295D01*
X115398500Y-95566160D01*
X115398500Y-79626209D01*
X115399814Y-79608063D01*
X115403026Y-79585996D01*
X115403026Y-79585990D01*
X115403728Y-79581169D01*
X115403728Y-79581148D01*
X116526272Y-79581148D01*
X116526454Y-79593699D01*
X116527271Y-79598489D01*
X116529707Y-79612775D01*
X116531500Y-79633956D01*
X116531500Y-95557127D01*
X116529066Y-95581772D01*
X116527037Y-95591946D01*
X116526505Y-95604488D01*
X116527049Y-95609320D01*
X116529618Y-95632156D01*
X116530122Y-95637754D01*
X116538438Y-95760885D01*
X116540036Y-95766826D01*
X116540036Y-95766828D01*
X116543252Y-95778785D01*
X116579136Y-95912219D01*
X116648426Y-96052781D01*
X116652165Y-96057666D01*
X116739932Y-96172339D01*
X116739935Y-96172343D01*
X116743673Y-96177226D01*
X116748290Y-96181294D01*
X116748291Y-96181295D01*
X116781698Y-96210728D01*
X116861256Y-96280824D01*
X116996707Y-96359638D01*
X117144877Y-96410672D01*
X117150981Y-96411510D01*
X117248843Y-96424945D01*
X117257409Y-96426424D01*
X117275181Y-96430127D01*
X117287543Y-96432703D01*
X117292399Y-96432951D01*
X117292400Y-96432951D01*
X117292713Y-96432967D01*
X117300080Y-96433343D01*
X117340231Y-96429174D01*
X117353245Y-96428500D01*
X133007878Y-96428500D01*
X133027477Y-96430723D01*
X133027566Y-96430127D01*
X133032392Y-96430849D01*
X133037127Y-96431937D01*
X133041975Y-96432284D01*
X133041978Y-96432284D01*
X133044787Y-96432485D01*
X133044793Y-96432485D01*
X133049648Y-96432832D01*
X133054495Y-96432428D01*
X133054507Y-96432428D01*
X133068354Y-96431274D01*
X133073222Y-96430963D01*
X133209517Y-96424908D01*
X133209520Y-96424908D01*
X133216039Y-96424618D01*
X133377311Y-96383194D01*
X133431311Y-96356544D01*
X133520769Y-96312395D01*
X133520772Y-96312393D01*
X133526624Y-96309505D01*
X133559219Y-96283921D01*
X133577587Y-96269504D01*
X133657602Y-96206698D01*
X133764651Y-96079163D01*
X133843200Y-95932348D01*
X133889893Y-95772522D01*
X133899088Y-95653672D01*
X133899949Y-95645786D01*
X133903728Y-95619042D01*
X133903551Y-95606490D01*
X133900285Y-95587295D01*
X133898500Y-95566160D01*
X133898500Y-79626209D01*
X133899814Y-79608063D01*
X133903026Y-79585996D01*
X133903026Y-79585990D01*
X133903728Y-79581169D01*
X133903603Y-79568616D01*
X133899179Y-79541951D01*
X133898380Y-79536362D01*
X133883973Y-79416475D01*
X133883973Y-79416473D01*
X133883240Y-79410377D01*
X133833931Y-79258788D01*
X133756199Y-79119616D01*
X133678296Y-79027919D01*
X133656967Y-79002814D01*
X133656965Y-79002812D01*
X133652989Y-78998132D01*
X133648186Y-78994313D01*
X133648183Y-78994311D01*
X133533015Y-78902758D01*
X133528206Y-78898935D01*
X133386576Y-78825780D01*
X133233460Y-78781436D01*
X133227344Y-78780903D01*
X133227341Y-78780902D01*
X133125931Y-78772057D01*
X133125069Y-78771982D01*
X133116413Y-78770924D01*
X133087195Y-78766321D01*
X133082333Y-78766312D01*
X133082327Y-78766312D01*
X133080925Y-78766310D01*
X133074642Y-78766299D01*
X133069835Y-78767039D01*
X133069830Y-78767039D01*
X133050368Y-78770034D01*
X133031206Y-78771500D01*
X117359800Y-78771500D01*
X117344183Y-78770528D01*
X117315595Y-78766957D01*
X117315592Y-78766957D01*
X117310766Y-78766354D01*
X117298219Y-78766733D01*
X117283280Y-78769524D01*
X117272494Y-78771538D01*
X117266891Y-78772454D01*
X117242243Y-78775917D01*
X117143586Y-78789780D01*
X117137798Y-78791788D01*
X117137795Y-78791789D01*
X117069798Y-78815383D01*
X116996010Y-78840986D01*
X116990719Y-78844075D01*
X116990718Y-78844075D01*
X116896736Y-78898935D01*
X116861104Y-78919734D01*
X116743949Y-79023058D01*
X116740228Y-79027916D01*
X116740225Y-79027919D01*
X116652688Y-79142196D01*
X116652685Y-79142201D01*
X116648959Y-79147065D01*
X116646242Y-79152559D01*
X116593706Y-79258788D01*
X116579711Y-79287085D01*
X116538813Y-79437844D01*
X116531627Y-79539570D01*
X116529944Y-79539451D01*
X116530146Y-79541301D01*
X116531498Y-79541397D01*
X116531426Y-79542413D01*
X116530855Y-79547806D01*
X116530906Y-79548268D01*
X116530653Y-79550062D01*
X116530606Y-79550167D01*
X116530508Y-79551089D01*
X116526272Y-79581148D01*
X115403728Y-79581148D01*
X115403603Y-79568616D01*
X115399179Y-79541951D01*
X115398380Y-79536362D01*
X115383973Y-79416475D01*
X115383973Y-79416473D01*
X115383240Y-79410377D01*
X115333931Y-79258788D01*
X115256199Y-79119616D01*
X115178296Y-79027919D01*
X115156967Y-79002814D01*
X115156965Y-79002812D01*
X115152989Y-78998132D01*
X115148186Y-78994313D01*
X115148183Y-78994311D01*
X115033015Y-78902758D01*
X115028206Y-78898935D01*
X114886576Y-78825780D01*
X114733460Y-78781436D01*
X114727344Y-78780903D01*
X114727341Y-78780902D01*
X114625931Y-78772057D01*
X114625069Y-78771982D01*
X114616413Y-78770924D01*
X114587195Y-78766321D01*
X114582333Y-78766312D01*
X114582327Y-78766312D01*
X114580925Y-78766310D01*
X114574642Y-78766299D01*
X114569835Y-78767039D01*
X114569830Y-78767039D01*
X114550368Y-78770034D01*
X114531206Y-78771500D01*
X98859800Y-78771500D01*
X98844183Y-78770528D01*
X98815595Y-78766957D01*
X98815592Y-78766957D01*
X98810766Y-78766354D01*
X98798219Y-78766733D01*
X98783280Y-78769524D01*
X98772494Y-78771538D01*
X98766891Y-78772454D01*
X98742243Y-78775917D01*
X98643586Y-78789780D01*
X98637798Y-78791788D01*
X98637795Y-78791789D01*
X98569798Y-78815383D01*
X98496010Y-78840986D01*
X98490719Y-78844075D01*
X98490718Y-78844075D01*
X98396736Y-78898935D01*
X98361104Y-78919734D01*
X98243949Y-79023058D01*
X98240228Y-79027916D01*
X98240225Y-79027919D01*
X98152688Y-79142196D01*
X98152685Y-79142201D01*
X98148959Y-79147065D01*
X98146242Y-79152559D01*
X98093706Y-79258788D01*
X98079711Y-79287085D01*
X98038813Y-79437844D01*
X98031627Y-79539570D01*
X98029944Y-79539451D01*
X98030146Y-79541301D01*
X98031498Y-79541397D01*
X98031426Y-79542413D01*
X98030855Y-79547806D01*
X98030906Y-79548268D01*
X98030653Y-79550062D01*
X98030606Y-79550167D01*
X98030508Y-79551089D01*
X98026272Y-79581148D01*
X96358500Y-79581148D01*
X96358500Y-60481148D01*
X98026272Y-60481148D01*
X98026454Y-60493699D01*
X98027271Y-60498489D01*
X98029707Y-60512775D01*
X98031500Y-60533956D01*
X98031500Y-76457127D01*
X98029066Y-76481772D01*
X98027037Y-76491946D01*
X98026505Y-76504488D01*
X98027049Y-76509320D01*
X98029618Y-76532156D01*
X98030122Y-76537754D01*
X98038438Y-76660885D01*
X98040036Y-76666826D01*
X98040036Y-76666828D01*
X98043252Y-76678785D01*
X98079136Y-76812219D01*
X98148426Y-76952781D01*
X98152165Y-76957666D01*
X98239932Y-77072339D01*
X98239935Y-77072343D01*
X98243673Y-77077226D01*
X98248290Y-77081294D01*
X98248291Y-77081295D01*
X98281698Y-77110728D01*
X98361256Y-77180824D01*
X98496707Y-77259638D01*
X98644877Y-77310672D01*
X98650981Y-77311510D01*
X98748843Y-77324945D01*
X98757409Y-77326424D01*
X98775181Y-77330127D01*
X98787543Y-77332703D01*
X98792399Y-77332951D01*
X98792400Y-77332951D01*
X98792713Y-77332967D01*
X98800080Y-77333343D01*
X98840231Y-77329174D01*
X98853245Y-77328500D01*
X114507878Y-77328500D01*
X114527477Y-77330723D01*
X114527566Y-77330127D01*
X114532392Y-77330849D01*
X114537127Y-77331937D01*
X114541975Y-77332284D01*
X114541978Y-77332284D01*
X114544787Y-77332485D01*
X114544793Y-77332485D01*
X114549648Y-77332832D01*
X114554495Y-77332428D01*
X114554507Y-77332428D01*
X114568354Y-77331274D01*
X114573222Y-77330963D01*
X114709517Y-77324908D01*
X114709520Y-77324908D01*
X114716039Y-77324618D01*
X114877311Y-77283194D01*
X114931311Y-77256544D01*
X115020769Y-77212395D01*
X115020772Y-77212393D01*
X115026624Y-77209505D01*
X115059219Y-77183921D01*
X115077587Y-77169504D01*
X115157602Y-77106698D01*
X115264651Y-76979163D01*
X115343200Y-76832348D01*
X115389893Y-76672522D01*
X115399088Y-76553672D01*
X115399949Y-76545786D01*
X115403728Y-76519042D01*
X115403551Y-76506490D01*
X115400285Y-76487295D01*
X115398500Y-76466160D01*
X115398500Y-60526209D01*
X115399814Y-60508063D01*
X115403026Y-60485996D01*
X115403026Y-60485990D01*
X115403728Y-60481169D01*
X115403728Y-60481148D01*
X116526272Y-60481148D01*
X116526454Y-60493699D01*
X116527271Y-60498489D01*
X116529707Y-60512775D01*
X116531500Y-60533956D01*
X116531500Y-76457127D01*
X116529066Y-76481772D01*
X116527037Y-76491946D01*
X116526505Y-76504488D01*
X116527049Y-76509320D01*
X116529618Y-76532156D01*
X116530122Y-76537754D01*
X116538438Y-76660885D01*
X116540036Y-76666826D01*
X116540036Y-76666828D01*
X116543252Y-76678785D01*
X116579136Y-76812219D01*
X116648426Y-76952781D01*
X116652165Y-76957666D01*
X116739932Y-77072339D01*
X116739935Y-77072343D01*
X116743673Y-77077226D01*
X116748290Y-77081294D01*
X116748291Y-77081295D01*
X116781698Y-77110728D01*
X116861256Y-77180824D01*
X116996707Y-77259638D01*
X117144877Y-77310672D01*
X117150981Y-77311510D01*
X117248843Y-77324945D01*
X117257409Y-77326424D01*
X117275181Y-77330127D01*
X117287543Y-77332703D01*
X117292399Y-77332951D01*
X117292400Y-77332951D01*
X117292713Y-77332967D01*
X117300080Y-77333343D01*
X117340231Y-77329174D01*
X117353245Y-77328500D01*
X133007878Y-77328500D01*
X133027477Y-77330723D01*
X133027566Y-77330127D01*
X133032392Y-77330849D01*
X133037127Y-77331937D01*
X133041975Y-77332284D01*
X133041978Y-77332284D01*
X133044787Y-77332485D01*
X133044793Y-77332485D01*
X133049648Y-77332832D01*
X133054495Y-77332428D01*
X133054507Y-77332428D01*
X133068354Y-77331274D01*
X133073222Y-77330963D01*
X133209517Y-77324908D01*
X133209520Y-77324908D01*
X133216039Y-77324618D01*
X133377311Y-77283194D01*
X133431311Y-77256544D01*
X133520769Y-77212395D01*
X133520772Y-77212393D01*
X133526624Y-77209505D01*
X133559219Y-77183921D01*
X133577587Y-77169504D01*
X133657602Y-77106698D01*
X133764651Y-76979163D01*
X133843200Y-76832348D01*
X133889893Y-76672522D01*
X133899088Y-76553672D01*
X133899949Y-76545786D01*
X133903728Y-76519042D01*
X133903551Y-76506490D01*
X133900285Y-76487295D01*
X133898500Y-76466160D01*
X133898500Y-60526209D01*
X133899814Y-60508063D01*
X133903026Y-60485996D01*
X133903026Y-60485990D01*
X133903728Y-60481169D01*
X133903603Y-60468616D01*
X133899179Y-60441951D01*
X133898380Y-60436362D01*
X133883973Y-60316475D01*
X133883973Y-60316473D01*
X133883240Y-60310377D01*
X133833931Y-60158788D01*
X133756199Y-60019616D01*
X133678296Y-59927919D01*
X133656967Y-59902814D01*
X133656965Y-59902812D01*
X133652989Y-59898132D01*
X133648186Y-59894313D01*
X133648183Y-59894311D01*
X133533015Y-59802758D01*
X133528206Y-59798935D01*
X133386576Y-59725780D01*
X133233460Y-59681436D01*
X133227344Y-59680903D01*
X133227341Y-59680902D01*
X133125931Y-59672057D01*
X133125069Y-59671982D01*
X133116413Y-59670924D01*
X133087195Y-59666321D01*
X133082333Y-59666312D01*
X133082327Y-59666312D01*
X133080925Y-59666310D01*
X133074642Y-59666299D01*
X133069835Y-59667039D01*
X133069830Y-59667039D01*
X133050368Y-59670034D01*
X133031206Y-59671500D01*
X117359800Y-59671500D01*
X117344183Y-59670528D01*
X117315595Y-59666957D01*
X117315592Y-59666957D01*
X117310766Y-59666354D01*
X117298219Y-59666733D01*
X117283280Y-59669524D01*
X117272494Y-59671538D01*
X117266891Y-59672454D01*
X117242243Y-59675917D01*
X117143586Y-59689780D01*
X117137798Y-59691788D01*
X117137795Y-59691789D01*
X117069798Y-59715383D01*
X116996010Y-59740986D01*
X116990719Y-59744075D01*
X116990718Y-59744075D01*
X116896736Y-59798935D01*
X116861104Y-59819734D01*
X116743949Y-59923058D01*
X116740228Y-59927916D01*
X116740225Y-59927919D01*
X116652688Y-60042196D01*
X116652685Y-60042201D01*
X116648959Y-60047065D01*
X116646242Y-60052559D01*
X116593706Y-60158788D01*
X116579711Y-60187085D01*
X116538813Y-60337844D01*
X116531627Y-60439570D01*
X116529944Y-60439451D01*
X116530146Y-60441301D01*
X116531498Y-60441397D01*
X116531426Y-60442413D01*
X116530855Y-60447806D01*
X116530906Y-60448268D01*
X116530653Y-60450062D01*
X116530606Y-60450167D01*
X116530508Y-60451089D01*
X116526272Y-60481148D01*
X115403728Y-60481148D01*
X115403603Y-60468616D01*
X115399179Y-60441951D01*
X115398380Y-60436362D01*
X115383973Y-60316475D01*
X115383973Y-60316473D01*
X115383240Y-60310377D01*
X115333931Y-60158788D01*
X115256199Y-60019616D01*
X115178296Y-59927919D01*
X115156967Y-59902814D01*
X115156965Y-59902812D01*
X115152989Y-59898132D01*
X115148186Y-59894313D01*
X115148183Y-59894311D01*
X115033015Y-59802758D01*
X115028206Y-59798935D01*
X114886576Y-59725780D01*
X114733460Y-59681436D01*
X114727344Y-59680903D01*
X114727341Y-59680902D01*
X114625931Y-59672057D01*
X114625069Y-59671982D01*
X114616413Y-59670924D01*
X114587195Y-59666321D01*
X114582333Y-59666312D01*
X114582327Y-59666312D01*
X114580925Y-59666310D01*
X114574642Y-59666299D01*
X114569835Y-59667039D01*
X114569830Y-59667039D01*
X114550368Y-59670034D01*
X114531206Y-59671500D01*
X98859800Y-59671500D01*
X98844183Y-59670528D01*
X98815595Y-59666957D01*
X98815592Y-59666957D01*
X98810766Y-59666354D01*
X98798219Y-59666733D01*
X98783280Y-59669524D01*
X98772494Y-59671538D01*
X98766891Y-59672454D01*
X98742243Y-59675917D01*
X98643586Y-59689780D01*
X98637798Y-59691788D01*
X98637795Y-59691789D01*
X98569798Y-59715383D01*
X98496010Y-59740986D01*
X98490719Y-59744075D01*
X98490718Y-59744075D01*
X98396736Y-59798935D01*
X98361104Y-59819734D01*
X98243949Y-59923058D01*
X98240228Y-59927916D01*
X98240225Y-59927919D01*
X98152688Y-60042196D01*
X98152685Y-60042201D01*
X98148959Y-60047065D01*
X98146242Y-60052559D01*
X98093706Y-60158788D01*
X98079711Y-60187085D01*
X98038813Y-60337844D01*
X98031627Y-60439570D01*
X98029944Y-60439451D01*
X98030146Y-60441301D01*
X98031498Y-60441397D01*
X98031426Y-60442413D01*
X98030855Y-60447806D01*
X98030906Y-60448268D01*
X98030653Y-60450062D01*
X98030606Y-60450167D01*
X98030508Y-60451089D01*
X98026272Y-60481148D01*
X96358500Y-60481148D01*
X96358500Y-54132703D01*
X100890743Y-54132703D01*
X100891302Y-54136947D01*
X100891302Y-54136951D01*
X100904996Y-54240964D01*
X100928268Y-54417734D01*
X101004129Y-54695036D01*
X101005813Y-54698984D01*
X101072034Y-54854235D01*
X101116923Y-54959476D01*
X101264561Y-55206161D01*
X101444313Y-55430528D01*
X101464475Y-55449661D01*
X101648473Y-55624268D01*
X101652851Y-55628423D01*
X101886317Y-55796186D01*
X101890112Y-55798195D01*
X101890113Y-55798196D01*
X101911519Y-55809530D01*
X102140392Y-55930712D01*
X102168609Y-55941038D01*
X102399339Y-56025473D01*
X102410373Y-56029511D01*
X102691264Y-56090755D01*
X102718494Y-56092898D01*
X102914282Y-56108307D01*
X102914291Y-56108307D01*
X102916739Y-56108500D01*
X103072271Y-56108500D01*
X103074407Y-56108354D01*
X103074418Y-56108354D01*
X103282548Y-56094165D01*
X103282554Y-56094164D01*
X103286825Y-56093873D01*
X103291020Y-56093004D01*
X103291022Y-56093004D01*
X103427583Y-56064724D01*
X103568342Y-56035574D01*
X103839343Y-55939607D01*
X104094812Y-55807750D01*
X104098313Y-55805289D01*
X104098317Y-55805287D01*
X104326457Y-55644947D01*
X104330023Y-55642441D01*
X104540622Y-55446740D01*
X104722713Y-55224268D01*
X104872927Y-54979142D01*
X104988483Y-54715898D01*
X105067244Y-54439406D01*
X105104926Y-54174636D01*
X105107146Y-54159036D01*
X105107146Y-54159034D01*
X105107751Y-54154784D01*
X105107845Y-54136951D01*
X105108407Y-54029733D01*
X106487822Y-54029733D01*
X106487975Y-54034121D01*
X106487975Y-54034127D01*
X106496118Y-54267297D01*
X106497625Y-54310458D01*
X106498387Y-54314781D01*
X106498388Y-54314788D01*
X106522164Y-54449624D01*
X106546402Y-54587087D01*
X106633203Y-54854235D01*
X106756340Y-55106702D01*
X106758795Y-55110341D01*
X106758798Y-55110347D01*
X106820942Y-55202479D01*
X106913415Y-55339576D01*
X106916360Y-55342847D01*
X106916361Y-55342848D01*
X106995309Y-55430528D01*
X107101371Y-55548322D01*
X107316550Y-55728879D01*
X107554764Y-55877731D01*
X107811375Y-55991982D01*
X108081390Y-56069407D01*
X108085740Y-56070018D01*
X108085743Y-56070019D01*
X108188690Y-56084487D01*
X108359552Y-56108500D01*
X108570146Y-56108500D01*
X108572332Y-56108347D01*
X108572336Y-56108347D01*
X108775827Y-56094118D01*
X108775832Y-56094117D01*
X108780212Y-56093811D01*
X109054970Y-56035409D01*
X109059099Y-56033906D01*
X109059103Y-56033905D01*
X109314781Y-55940846D01*
X109314785Y-55940844D01*
X109318926Y-55939337D01*
X109566942Y-55807464D01*
X109570503Y-55804877D01*
X109790629Y-55644947D01*
X109790632Y-55644944D01*
X109794192Y-55642358D01*
X109806031Y-55630926D01*
X109993087Y-55450287D01*
X109996252Y-55447231D01*
X110169188Y-55225882D01*
X110171384Y-55222078D01*
X110171389Y-55222071D01*
X110307435Y-54986431D01*
X110309636Y-54982619D01*
X110414862Y-54722176D01*
X110417457Y-54711770D01*
X110481753Y-54453893D01*
X110481754Y-54453888D01*
X110482817Y-54449624D01*
X110484338Y-54435159D01*
X110511719Y-54174636D01*
X110511719Y-54174633D01*
X110512178Y-54170267D01*
X110511786Y-54159036D01*
X110507271Y-54029733D01*
X111587822Y-54029733D01*
X111587975Y-54034121D01*
X111587975Y-54034127D01*
X111596118Y-54267297D01*
X111597625Y-54310458D01*
X111598387Y-54314781D01*
X111598388Y-54314788D01*
X111622164Y-54449624D01*
X111646402Y-54587087D01*
X111733203Y-54854235D01*
X111856340Y-55106702D01*
X111858795Y-55110341D01*
X111858798Y-55110347D01*
X111920942Y-55202479D01*
X112013415Y-55339576D01*
X112016360Y-55342847D01*
X112016361Y-55342848D01*
X112095309Y-55430528D01*
X112201371Y-55548322D01*
X112416550Y-55728879D01*
X112654764Y-55877731D01*
X112911375Y-55991982D01*
X113181390Y-56069407D01*
X113185740Y-56070018D01*
X113185743Y-56070019D01*
X113288690Y-56084487D01*
X113459552Y-56108500D01*
X113670146Y-56108500D01*
X113672332Y-56108347D01*
X113672336Y-56108347D01*
X113875827Y-56094118D01*
X113875832Y-56094117D01*
X113880212Y-56093811D01*
X114154970Y-56035409D01*
X114159099Y-56033906D01*
X114159103Y-56033905D01*
X114414781Y-55940846D01*
X114414785Y-55940844D01*
X114418926Y-55939337D01*
X114666942Y-55807464D01*
X114670503Y-55804877D01*
X114890629Y-55644947D01*
X114890632Y-55644944D01*
X114894192Y-55642358D01*
X114906031Y-55630926D01*
X115093087Y-55450287D01*
X115096252Y-55447231D01*
X115269188Y-55225882D01*
X115271384Y-55222078D01*
X115271389Y-55222071D01*
X115407435Y-54986431D01*
X115409636Y-54982619D01*
X115514862Y-54722176D01*
X115517457Y-54711770D01*
X115581753Y-54453893D01*
X115581754Y-54453888D01*
X115582817Y-54449624D01*
X115584338Y-54435159D01*
X115611719Y-54174636D01*
X115611719Y-54174633D01*
X115612178Y-54170267D01*
X115611786Y-54159036D01*
X115607271Y-54029733D01*
X116487822Y-54029733D01*
X116487975Y-54034121D01*
X116487975Y-54034127D01*
X116496118Y-54267297D01*
X116497625Y-54310458D01*
X116498387Y-54314781D01*
X116498388Y-54314788D01*
X116522164Y-54449624D01*
X116546402Y-54587087D01*
X116633203Y-54854235D01*
X116756340Y-55106702D01*
X116758795Y-55110341D01*
X116758798Y-55110347D01*
X116820942Y-55202479D01*
X116913415Y-55339576D01*
X116916360Y-55342847D01*
X116916361Y-55342848D01*
X116995309Y-55430528D01*
X117101371Y-55548322D01*
X117316550Y-55728879D01*
X117554764Y-55877731D01*
X117811375Y-55991982D01*
X118081390Y-56069407D01*
X118085740Y-56070018D01*
X118085743Y-56070019D01*
X118188690Y-56084487D01*
X118359552Y-56108500D01*
X118570146Y-56108500D01*
X118572332Y-56108347D01*
X118572336Y-56108347D01*
X118775827Y-56094118D01*
X118775832Y-56094117D01*
X118780212Y-56093811D01*
X119054970Y-56035409D01*
X119059099Y-56033906D01*
X119059103Y-56033905D01*
X119314781Y-55940846D01*
X119314785Y-55940844D01*
X119318926Y-55939337D01*
X119566942Y-55807464D01*
X119570503Y-55804877D01*
X119790629Y-55644947D01*
X119790632Y-55644944D01*
X119794192Y-55642358D01*
X119806031Y-55630926D01*
X119993087Y-55450287D01*
X119996252Y-55447231D01*
X120169188Y-55225882D01*
X120171384Y-55222078D01*
X120171389Y-55222071D01*
X120307435Y-54986431D01*
X120309636Y-54982619D01*
X120414862Y-54722176D01*
X120417457Y-54711770D01*
X120481753Y-54453893D01*
X120481754Y-54453888D01*
X120482817Y-54449624D01*
X120484338Y-54435159D01*
X120511719Y-54174636D01*
X120511719Y-54174633D01*
X120512178Y-54170267D01*
X120511786Y-54159036D01*
X120507271Y-54029733D01*
X121487822Y-54029733D01*
X121487975Y-54034121D01*
X121487975Y-54034127D01*
X121496118Y-54267297D01*
X121497625Y-54310458D01*
X121498387Y-54314781D01*
X121498388Y-54314788D01*
X121522164Y-54449624D01*
X121546402Y-54587087D01*
X121633203Y-54854235D01*
X121756340Y-55106702D01*
X121758795Y-55110341D01*
X121758798Y-55110347D01*
X121820942Y-55202479D01*
X121913415Y-55339576D01*
X121916360Y-55342847D01*
X121916361Y-55342848D01*
X121995309Y-55430528D01*
X122101371Y-55548322D01*
X122316550Y-55728879D01*
X122554764Y-55877731D01*
X122811375Y-55991982D01*
X123081390Y-56069407D01*
X123085740Y-56070018D01*
X123085743Y-56070019D01*
X123188690Y-56084487D01*
X123359552Y-56108500D01*
X123570146Y-56108500D01*
X123572332Y-56108347D01*
X123572336Y-56108347D01*
X123775827Y-56094118D01*
X123775832Y-56094117D01*
X123780212Y-56093811D01*
X124054970Y-56035409D01*
X124059099Y-56033906D01*
X124059103Y-56033905D01*
X124314781Y-55940846D01*
X124314785Y-55940844D01*
X124318926Y-55939337D01*
X124566942Y-55807464D01*
X124570503Y-55804877D01*
X124790629Y-55644947D01*
X124790632Y-55644944D01*
X124794192Y-55642358D01*
X124806031Y-55630926D01*
X124993087Y-55450287D01*
X124996252Y-55447231D01*
X125169188Y-55225882D01*
X125171384Y-55222078D01*
X125171389Y-55222071D01*
X125307435Y-54986431D01*
X125309636Y-54982619D01*
X125414862Y-54722176D01*
X125417457Y-54711770D01*
X125462103Y-54532703D01*
X126890743Y-54532703D01*
X126891302Y-54536947D01*
X126891302Y-54536951D01*
X126897903Y-54587087D01*
X126928268Y-54817734D01*
X126929401Y-54821874D01*
X126929401Y-54821876D01*
X126939336Y-54858193D01*
X127004129Y-55095036D01*
X127005813Y-55098984D01*
X127109831Y-55342848D01*
X127116923Y-55359476D01*
X127264561Y-55606161D01*
X127444313Y-55830528D01*
X127652851Y-56028423D01*
X127886317Y-56196186D01*
X127890112Y-56198195D01*
X127890113Y-56198196D01*
X127911869Y-56209715D01*
X128140392Y-56330712D01*
X128410373Y-56429511D01*
X128691264Y-56490755D01*
X128719841Y-56493004D01*
X128914282Y-56508307D01*
X128914291Y-56508307D01*
X128916739Y-56508500D01*
X129072271Y-56508500D01*
X129074407Y-56508354D01*
X129074418Y-56508354D01*
X129282548Y-56494165D01*
X129282554Y-56494164D01*
X129286825Y-56493873D01*
X129291020Y-56493004D01*
X129291022Y-56493004D01*
X129427583Y-56464724D01*
X129568342Y-56435574D01*
X129839343Y-56339607D01*
X130094812Y-56207750D01*
X130098313Y-56205289D01*
X130098317Y-56205287D01*
X130212417Y-56125096D01*
X130330023Y-56042441D01*
X130408403Y-55969606D01*
X130537479Y-55849661D01*
X130537481Y-55849658D01*
X130540622Y-55846740D01*
X130722713Y-55624268D01*
X130872927Y-55379142D01*
X130988483Y-55115898D01*
X131067244Y-54839406D01*
X131107751Y-54554784D01*
X131107845Y-54536951D01*
X131109235Y-54271583D01*
X131109235Y-54271576D01*
X131109257Y-54267297D01*
X131071732Y-53982266D01*
X130995871Y-53704964D01*
X130932531Y-53556466D01*
X130884763Y-53444476D01*
X130884761Y-53444472D01*
X130883077Y-53440524D01*
X130787107Y-53280170D01*
X130737643Y-53197521D01*
X130737640Y-53197517D01*
X130735439Y-53193839D01*
X130555687Y-52969472D01*
X130432289Y-52852372D01*
X130350258Y-52774527D01*
X130350255Y-52774525D01*
X130347149Y-52771577D01*
X130113683Y-52603814D01*
X130091843Y-52592250D01*
X130024472Y-52556579D01*
X129859608Y-52469288D01*
X129644228Y-52390470D01*
X129593658Y-52371964D01*
X129593656Y-52371963D01*
X129589627Y-52370489D01*
X129308736Y-52309245D01*
X129277685Y-52306801D01*
X129085718Y-52291693D01*
X129085709Y-52291693D01*
X129083261Y-52291500D01*
X128927729Y-52291500D01*
X128925593Y-52291646D01*
X128925582Y-52291646D01*
X128717452Y-52305835D01*
X128717446Y-52305836D01*
X128713175Y-52306127D01*
X128708980Y-52306996D01*
X128708978Y-52306996D01*
X128623991Y-52324596D01*
X128431658Y-52364426D01*
X128160657Y-52460393D01*
X127905188Y-52592250D01*
X127901687Y-52594711D01*
X127901683Y-52594713D01*
X127891594Y-52601804D01*
X127669977Y-52757559D01*
X127459378Y-52953260D01*
X127277287Y-53175732D01*
X127127073Y-53420858D01*
X127011517Y-53684102D01*
X126932756Y-53960594D01*
X126892249Y-54245216D01*
X126892227Y-54249505D01*
X126892226Y-54249512D01*
X126890765Y-54528417D01*
X126890743Y-54532703D01*
X125462103Y-54532703D01*
X125481753Y-54453893D01*
X125481754Y-54453888D01*
X125482817Y-54449624D01*
X125484338Y-54435159D01*
X125511719Y-54174636D01*
X125511719Y-54174633D01*
X125512178Y-54170267D01*
X125511786Y-54159036D01*
X125502529Y-53893939D01*
X125502528Y-53893933D01*
X125502375Y-53889542D01*
X125499209Y-53871583D01*
X125466878Y-53688230D01*
X125453598Y-53612913D01*
X125366797Y-53345765D01*
X125344972Y-53301016D01*
X125283866Y-53175732D01*
X125243660Y-53093298D01*
X125241205Y-53089659D01*
X125241202Y-53089653D01*
X125147233Y-52950339D01*
X125086585Y-52860424D01*
X124898629Y-52651678D01*
X124683450Y-52471121D01*
X124445236Y-52322269D01*
X124188625Y-52208018D01*
X123918610Y-52130593D01*
X123914260Y-52129982D01*
X123914257Y-52129981D01*
X123811310Y-52115513D01*
X123640448Y-52091500D01*
X123429854Y-52091500D01*
X123427668Y-52091653D01*
X123427664Y-52091653D01*
X123224173Y-52105882D01*
X123224168Y-52105883D01*
X123219788Y-52106189D01*
X122945030Y-52164591D01*
X122940901Y-52166094D01*
X122940897Y-52166095D01*
X122685219Y-52259154D01*
X122685215Y-52259156D01*
X122681074Y-52260663D01*
X122433058Y-52392536D01*
X122429499Y-52395122D01*
X122429497Y-52395123D01*
X122215860Y-52550339D01*
X122205808Y-52557642D01*
X122202644Y-52560698D01*
X122202641Y-52560700D01*
X122190097Y-52572814D01*
X122003748Y-52752769D01*
X121830812Y-52974118D01*
X121828616Y-52977922D01*
X121828611Y-52977929D01*
X121716326Y-53172414D01*
X121690364Y-53217381D01*
X121585138Y-53477824D01*
X121584073Y-53482097D01*
X121584072Y-53482099D01*
X121527474Y-53709103D01*
X121517183Y-53750376D01*
X121516724Y-53754744D01*
X121516723Y-53754749D01*
X121488281Y-54025364D01*
X121487822Y-54029733D01*
X120507271Y-54029733D01*
X120502529Y-53893939D01*
X120502528Y-53893933D01*
X120502375Y-53889542D01*
X120499209Y-53871583D01*
X120466878Y-53688230D01*
X120453598Y-53612913D01*
X120366797Y-53345765D01*
X120344972Y-53301016D01*
X120283866Y-53175732D01*
X120243660Y-53093298D01*
X120241205Y-53089659D01*
X120241202Y-53089653D01*
X120147233Y-52950339D01*
X120086585Y-52860424D01*
X119898629Y-52651678D01*
X119683450Y-52471121D01*
X119445236Y-52322269D01*
X119188625Y-52208018D01*
X118918610Y-52130593D01*
X118914260Y-52129982D01*
X118914257Y-52129981D01*
X118811310Y-52115513D01*
X118640448Y-52091500D01*
X118429854Y-52091500D01*
X118427668Y-52091653D01*
X118427664Y-52091653D01*
X118224173Y-52105882D01*
X118224168Y-52105883D01*
X118219788Y-52106189D01*
X117945030Y-52164591D01*
X117940901Y-52166094D01*
X117940897Y-52166095D01*
X117685219Y-52259154D01*
X117685215Y-52259156D01*
X117681074Y-52260663D01*
X117433058Y-52392536D01*
X117429499Y-52395122D01*
X117429497Y-52395123D01*
X117215860Y-52550339D01*
X117205808Y-52557642D01*
X117202644Y-52560698D01*
X117202641Y-52560700D01*
X117190097Y-52572814D01*
X117003748Y-52752769D01*
X116830812Y-52974118D01*
X116828616Y-52977922D01*
X116828611Y-52977929D01*
X116716326Y-53172414D01*
X116690364Y-53217381D01*
X116585138Y-53477824D01*
X116584073Y-53482097D01*
X116584072Y-53482099D01*
X116527474Y-53709103D01*
X116517183Y-53750376D01*
X116516724Y-53754744D01*
X116516723Y-53754749D01*
X116488281Y-54025364D01*
X116487822Y-54029733D01*
X115607271Y-54029733D01*
X115602529Y-53893939D01*
X115602528Y-53893933D01*
X115602375Y-53889542D01*
X115599209Y-53871583D01*
X115566878Y-53688230D01*
X115553598Y-53612913D01*
X115466797Y-53345765D01*
X115444972Y-53301016D01*
X115383866Y-53175732D01*
X115343660Y-53093298D01*
X115341205Y-53089659D01*
X115341202Y-53089653D01*
X115247233Y-52950339D01*
X115186585Y-52860424D01*
X114998629Y-52651678D01*
X114783450Y-52471121D01*
X114545236Y-52322269D01*
X114288625Y-52208018D01*
X114018610Y-52130593D01*
X114014260Y-52129982D01*
X114014257Y-52129981D01*
X113911310Y-52115513D01*
X113740448Y-52091500D01*
X113529854Y-52091500D01*
X113527668Y-52091653D01*
X113527664Y-52091653D01*
X113324173Y-52105882D01*
X113324168Y-52105883D01*
X113319788Y-52106189D01*
X113045030Y-52164591D01*
X113040901Y-52166094D01*
X113040897Y-52166095D01*
X112785219Y-52259154D01*
X112785215Y-52259156D01*
X112781074Y-52260663D01*
X112533058Y-52392536D01*
X112529499Y-52395122D01*
X112529497Y-52395123D01*
X112315860Y-52550339D01*
X112305808Y-52557642D01*
X112302644Y-52560698D01*
X112302641Y-52560700D01*
X112290097Y-52572814D01*
X112103748Y-52752769D01*
X111930812Y-52974118D01*
X111928616Y-52977922D01*
X111928611Y-52977929D01*
X111816326Y-53172414D01*
X111790364Y-53217381D01*
X111685138Y-53477824D01*
X111684073Y-53482097D01*
X111684072Y-53482099D01*
X111627474Y-53709103D01*
X111617183Y-53750376D01*
X111616724Y-53754744D01*
X111616723Y-53754749D01*
X111588281Y-54025364D01*
X111587822Y-54029733D01*
X110507271Y-54029733D01*
X110502529Y-53893939D01*
X110502528Y-53893933D01*
X110502375Y-53889542D01*
X110499209Y-53871583D01*
X110466878Y-53688230D01*
X110453598Y-53612913D01*
X110366797Y-53345765D01*
X110344972Y-53301016D01*
X110283866Y-53175732D01*
X110243660Y-53093298D01*
X110241205Y-53089659D01*
X110241202Y-53089653D01*
X110147233Y-52950339D01*
X110086585Y-52860424D01*
X109898629Y-52651678D01*
X109683450Y-52471121D01*
X109445236Y-52322269D01*
X109188625Y-52208018D01*
X108918610Y-52130593D01*
X108914260Y-52129982D01*
X108914257Y-52129981D01*
X108811310Y-52115513D01*
X108640448Y-52091500D01*
X108429854Y-52091500D01*
X108427668Y-52091653D01*
X108427664Y-52091653D01*
X108224173Y-52105882D01*
X108224168Y-52105883D01*
X108219788Y-52106189D01*
X107945030Y-52164591D01*
X107940901Y-52166094D01*
X107940897Y-52166095D01*
X107685219Y-52259154D01*
X107685215Y-52259156D01*
X107681074Y-52260663D01*
X107433058Y-52392536D01*
X107429499Y-52395122D01*
X107429497Y-52395123D01*
X107215860Y-52550339D01*
X107205808Y-52557642D01*
X107202644Y-52560698D01*
X107202641Y-52560700D01*
X107190097Y-52572814D01*
X107003748Y-52752769D01*
X106830812Y-52974118D01*
X106828616Y-52977922D01*
X106828611Y-52977929D01*
X106716326Y-53172414D01*
X106690364Y-53217381D01*
X106585138Y-53477824D01*
X106584073Y-53482097D01*
X106584072Y-53482099D01*
X106527474Y-53709103D01*
X106517183Y-53750376D01*
X106516724Y-53754744D01*
X106516723Y-53754749D01*
X106488281Y-54025364D01*
X106487822Y-54029733D01*
X105108407Y-54029733D01*
X105109235Y-53871583D01*
X105109235Y-53871576D01*
X105109257Y-53867297D01*
X105071732Y-53582266D01*
X104995871Y-53304964D01*
X104960254Y-53221461D01*
X104884763Y-53044476D01*
X104884761Y-53044472D01*
X104883077Y-53040524D01*
X104808527Y-52915960D01*
X104737643Y-52797521D01*
X104737640Y-52797517D01*
X104735439Y-52793839D01*
X104555687Y-52569472D01*
X104432289Y-52452372D01*
X104350258Y-52374527D01*
X104350255Y-52374525D01*
X104347149Y-52371577D01*
X104122020Y-52209805D01*
X104117172Y-52206321D01*
X104117171Y-52206320D01*
X104113683Y-52203814D01*
X104091843Y-52192250D01*
X104037879Y-52163678D01*
X103859608Y-52069288D01*
X103589627Y-51970489D01*
X103308736Y-51909245D01*
X103277685Y-51906801D01*
X103085718Y-51891693D01*
X103085709Y-51891693D01*
X103083261Y-51891500D01*
X102927729Y-51891500D01*
X102925593Y-51891646D01*
X102925582Y-51891646D01*
X102717452Y-51905835D01*
X102717446Y-51905836D01*
X102713175Y-51906127D01*
X102708980Y-51906996D01*
X102708978Y-51906996D01*
X102572416Y-51935277D01*
X102431658Y-51964426D01*
X102160657Y-52060393D01*
X102156848Y-52062359D01*
X101955863Y-52166095D01*
X101905188Y-52192250D01*
X101901687Y-52194711D01*
X101901683Y-52194713D01*
X101809993Y-52259154D01*
X101669977Y-52357559D01*
X101651717Y-52374527D01*
X101560855Y-52458962D01*
X101459378Y-52553260D01*
X101277287Y-52775732D01*
X101127073Y-53020858D01*
X101011517Y-53284102D01*
X101010342Y-53288229D01*
X101010341Y-53288230D01*
X100973603Y-53417201D01*
X100932756Y-53560594D01*
X100892249Y-53845216D01*
X100892227Y-53849505D01*
X100892226Y-53849512D01*
X100891305Y-54025364D01*
X100890743Y-54132703D01*
X96358500Y-54132703D01*
X96358500Y-47529733D01*
X106487822Y-47529733D01*
X106497625Y-47810458D01*
X106498387Y-47814781D01*
X106498388Y-47814788D01*
X106522164Y-47949624D01*
X106546402Y-48087087D01*
X106633203Y-48354235D01*
X106756340Y-48606702D01*
X106758795Y-48610341D01*
X106758798Y-48610347D01*
X106831890Y-48718710D01*
X106913415Y-48839576D01*
X107101371Y-49048322D01*
X107316550Y-49228879D01*
X107554764Y-49377731D01*
X107811375Y-49491982D01*
X108081390Y-49569407D01*
X108085740Y-49570018D01*
X108085743Y-49570019D01*
X108188690Y-49584487D01*
X108359552Y-49608500D01*
X108570146Y-49608500D01*
X108572332Y-49608347D01*
X108572336Y-49608347D01*
X108775827Y-49594118D01*
X108775832Y-49594117D01*
X108780212Y-49593811D01*
X109054970Y-49535409D01*
X109059099Y-49533906D01*
X109059103Y-49533905D01*
X109314781Y-49440846D01*
X109314785Y-49440844D01*
X109318926Y-49439337D01*
X109566942Y-49307464D01*
X109671896Y-49231211D01*
X109790629Y-49144947D01*
X109790632Y-49144944D01*
X109794192Y-49142358D01*
X109996252Y-48947231D01*
X110169188Y-48725882D01*
X110171384Y-48722078D01*
X110171389Y-48722071D01*
X110307435Y-48486431D01*
X110309636Y-48482619D01*
X110414862Y-48222176D01*
X110448544Y-48087087D01*
X110481753Y-47953893D01*
X110481754Y-47953888D01*
X110482817Y-47949624D01*
X110512178Y-47670267D01*
X110507271Y-47529733D01*
X111487822Y-47529733D01*
X111497625Y-47810458D01*
X111498387Y-47814781D01*
X111498388Y-47814788D01*
X111522164Y-47949624D01*
X111546402Y-48087087D01*
X111633203Y-48354235D01*
X111756340Y-48606702D01*
X111758795Y-48610341D01*
X111758798Y-48610347D01*
X111831890Y-48718710D01*
X111913415Y-48839576D01*
X112101371Y-49048322D01*
X112316550Y-49228879D01*
X112554764Y-49377731D01*
X112811375Y-49491982D01*
X113081390Y-49569407D01*
X113085740Y-49570018D01*
X113085743Y-49570019D01*
X113188690Y-49584487D01*
X113359552Y-49608500D01*
X113570146Y-49608500D01*
X113572332Y-49608347D01*
X113572336Y-49608347D01*
X113775827Y-49594118D01*
X113775832Y-49594117D01*
X113780212Y-49593811D01*
X114054970Y-49535409D01*
X114059099Y-49533906D01*
X114059103Y-49533905D01*
X114314781Y-49440846D01*
X114314785Y-49440844D01*
X114318926Y-49439337D01*
X114566942Y-49307464D01*
X114671896Y-49231211D01*
X114790629Y-49144947D01*
X114790632Y-49144944D01*
X114794192Y-49142358D01*
X114996252Y-48947231D01*
X115169188Y-48725882D01*
X115171384Y-48722078D01*
X115171389Y-48722071D01*
X115307435Y-48486431D01*
X115309636Y-48482619D01*
X115414862Y-48222176D01*
X115448544Y-48087087D01*
X115481753Y-47953893D01*
X115481754Y-47953888D01*
X115482817Y-47949624D01*
X115512178Y-47670267D01*
X115507271Y-47529733D01*
X116487822Y-47529733D01*
X116497625Y-47810458D01*
X116498387Y-47814781D01*
X116498388Y-47814788D01*
X116522164Y-47949624D01*
X116546402Y-48087087D01*
X116633203Y-48354235D01*
X116756340Y-48606702D01*
X116758795Y-48610341D01*
X116758798Y-48610347D01*
X116831890Y-48718710D01*
X116913415Y-48839576D01*
X117101371Y-49048322D01*
X117316550Y-49228879D01*
X117554764Y-49377731D01*
X117811375Y-49491982D01*
X118081390Y-49569407D01*
X118085740Y-49570018D01*
X118085743Y-49570019D01*
X118188690Y-49584487D01*
X118359552Y-49608500D01*
X118570146Y-49608500D01*
X118572332Y-49608347D01*
X118572336Y-49608347D01*
X118775827Y-49594118D01*
X118775832Y-49594117D01*
X118780212Y-49593811D01*
X119054970Y-49535409D01*
X119059099Y-49533906D01*
X119059103Y-49533905D01*
X119314781Y-49440846D01*
X119314785Y-49440844D01*
X119318926Y-49439337D01*
X119566942Y-49307464D01*
X119671896Y-49231211D01*
X119790629Y-49144947D01*
X119790632Y-49144944D01*
X119794192Y-49142358D01*
X119996252Y-48947231D01*
X120169188Y-48725882D01*
X120171384Y-48722078D01*
X120171389Y-48722071D01*
X120307435Y-48486431D01*
X120309636Y-48482619D01*
X120414862Y-48222176D01*
X120448544Y-48087087D01*
X120481753Y-47953893D01*
X120481754Y-47953888D01*
X120482817Y-47949624D01*
X120512178Y-47670267D01*
X120507271Y-47529733D01*
X121487822Y-47529733D01*
X121497625Y-47810458D01*
X121498387Y-47814781D01*
X121498388Y-47814788D01*
X121522164Y-47949624D01*
X121546402Y-48087087D01*
X121633203Y-48354235D01*
X121756340Y-48606702D01*
X121758795Y-48610341D01*
X121758798Y-48610347D01*
X121831890Y-48718710D01*
X121913415Y-48839576D01*
X122101371Y-49048322D01*
X122316550Y-49228879D01*
X122554764Y-49377731D01*
X122811375Y-49491982D01*
X123081390Y-49569407D01*
X123085740Y-49570018D01*
X123085743Y-49570019D01*
X123188690Y-49584487D01*
X123359552Y-49608500D01*
X123570146Y-49608500D01*
X123572332Y-49608347D01*
X123572336Y-49608347D01*
X123775827Y-49594118D01*
X123775832Y-49594117D01*
X123780212Y-49593811D01*
X124054970Y-49535409D01*
X124059099Y-49533906D01*
X124059103Y-49533905D01*
X124314781Y-49440846D01*
X124314785Y-49440844D01*
X124318926Y-49439337D01*
X124566942Y-49307464D01*
X124671896Y-49231211D01*
X124790629Y-49144947D01*
X124790632Y-49144944D01*
X124794192Y-49142358D01*
X124996252Y-48947231D01*
X125169188Y-48725882D01*
X125171384Y-48722078D01*
X125171389Y-48722071D01*
X125307435Y-48486431D01*
X125309636Y-48482619D01*
X125414862Y-48222176D01*
X125448544Y-48087087D01*
X125481753Y-47953893D01*
X125481754Y-47953888D01*
X125482817Y-47949624D01*
X125512178Y-47670267D01*
X125502375Y-47389542D01*
X125478608Y-47254749D01*
X125454360Y-47117236D01*
X125453598Y-47112913D01*
X125366797Y-46845765D01*
X125243660Y-46593298D01*
X125241205Y-46589659D01*
X125241202Y-46589653D01*
X125160935Y-46470653D01*
X125086585Y-46360424D01*
X124898629Y-46151678D01*
X124683450Y-45971121D01*
X124445236Y-45822269D01*
X124188625Y-45708018D01*
X123918610Y-45630593D01*
X123914260Y-45629982D01*
X123914257Y-45629981D01*
X123811310Y-45615513D01*
X123640448Y-45591500D01*
X123429854Y-45591500D01*
X123427668Y-45591653D01*
X123427664Y-45591653D01*
X123224173Y-45605882D01*
X123224168Y-45605883D01*
X123219788Y-45606189D01*
X122945030Y-45664591D01*
X122940901Y-45666094D01*
X122940897Y-45666095D01*
X122685219Y-45759154D01*
X122685215Y-45759156D01*
X122681074Y-45760663D01*
X122433058Y-45892536D01*
X122429499Y-45895122D01*
X122429497Y-45895123D01*
X122324895Y-45971121D01*
X122205808Y-46057642D01*
X122003748Y-46252769D01*
X121830812Y-46474118D01*
X121828616Y-46477922D01*
X121828611Y-46477929D01*
X121714794Y-46675067D01*
X121690364Y-46717381D01*
X121585138Y-46977824D01*
X121584073Y-46982097D01*
X121584072Y-46982099D01*
X121550379Y-47117236D01*
X121517183Y-47250376D01*
X121487822Y-47529733D01*
X120507271Y-47529733D01*
X120502375Y-47389542D01*
X120478608Y-47254749D01*
X120454360Y-47117236D01*
X120453598Y-47112913D01*
X120366797Y-46845765D01*
X120243660Y-46593298D01*
X120241205Y-46589659D01*
X120241202Y-46589653D01*
X120160935Y-46470653D01*
X120086585Y-46360424D01*
X119898629Y-46151678D01*
X119683450Y-45971121D01*
X119445236Y-45822269D01*
X119188625Y-45708018D01*
X118918610Y-45630593D01*
X118914260Y-45629982D01*
X118914257Y-45629981D01*
X118811310Y-45615513D01*
X118640448Y-45591500D01*
X118429854Y-45591500D01*
X118427668Y-45591653D01*
X118427664Y-45591653D01*
X118224173Y-45605882D01*
X118224168Y-45605883D01*
X118219788Y-45606189D01*
X117945030Y-45664591D01*
X117940901Y-45666094D01*
X117940897Y-45666095D01*
X117685219Y-45759154D01*
X117685215Y-45759156D01*
X117681074Y-45760663D01*
X117433058Y-45892536D01*
X117429499Y-45895122D01*
X117429497Y-45895123D01*
X117324895Y-45971121D01*
X117205808Y-46057642D01*
X117003748Y-46252769D01*
X116830812Y-46474118D01*
X116828616Y-46477922D01*
X116828611Y-46477929D01*
X116714794Y-46675067D01*
X116690364Y-46717381D01*
X116585138Y-46977824D01*
X116584073Y-46982097D01*
X116584072Y-46982099D01*
X116550379Y-47117236D01*
X116517183Y-47250376D01*
X116487822Y-47529733D01*
X115507271Y-47529733D01*
X115502375Y-47389542D01*
X115478608Y-47254749D01*
X115454360Y-47117236D01*
X115453598Y-47112913D01*
X115366797Y-46845765D01*
X115243660Y-46593298D01*
X115241205Y-46589659D01*
X115241202Y-46589653D01*
X115160935Y-46470653D01*
X115086585Y-46360424D01*
X114898629Y-46151678D01*
X114683450Y-45971121D01*
X114445236Y-45822269D01*
X114188625Y-45708018D01*
X113918610Y-45630593D01*
X113914260Y-45629982D01*
X113914257Y-45629981D01*
X113811310Y-45615513D01*
X113640448Y-45591500D01*
X113429854Y-45591500D01*
X113427668Y-45591653D01*
X113427664Y-45591653D01*
X113224173Y-45605882D01*
X113224168Y-45605883D01*
X113219788Y-45606189D01*
X112945030Y-45664591D01*
X112940901Y-45666094D01*
X112940897Y-45666095D01*
X112685219Y-45759154D01*
X112685215Y-45759156D01*
X112681074Y-45760663D01*
X112433058Y-45892536D01*
X112429499Y-45895122D01*
X112429497Y-45895123D01*
X112324895Y-45971121D01*
X112205808Y-46057642D01*
X112003748Y-46252769D01*
X111830812Y-46474118D01*
X111828616Y-46477922D01*
X111828611Y-46477929D01*
X111714794Y-46675067D01*
X111690364Y-46717381D01*
X111585138Y-46977824D01*
X111584073Y-46982097D01*
X111584072Y-46982099D01*
X111550379Y-47117236D01*
X111517183Y-47250376D01*
X111487822Y-47529733D01*
X110507271Y-47529733D01*
X110502375Y-47389542D01*
X110478608Y-47254749D01*
X110454360Y-47117236D01*
X110453598Y-47112913D01*
X110366797Y-46845765D01*
X110243660Y-46593298D01*
X110241205Y-46589659D01*
X110241202Y-46589653D01*
X110160935Y-46470653D01*
X110086585Y-46360424D01*
X109898629Y-46151678D01*
X109683450Y-45971121D01*
X109445236Y-45822269D01*
X109188625Y-45708018D01*
X108918610Y-45630593D01*
X108914260Y-45629982D01*
X108914257Y-45629981D01*
X108811310Y-45615513D01*
X108640448Y-45591500D01*
X108429854Y-45591500D01*
X108427668Y-45591653D01*
X108427664Y-45591653D01*
X108224173Y-45605882D01*
X108224168Y-45605883D01*
X108219788Y-45606189D01*
X107945030Y-45664591D01*
X107940901Y-45666094D01*
X107940897Y-45666095D01*
X107685219Y-45759154D01*
X107685215Y-45759156D01*
X107681074Y-45760663D01*
X107433058Y-45892536D01*
X107429499Y-45895122D01*
X107429497Y-45895123D01*
X107324895Y-45971121D01*
X107205808Y-46057642D01*
X107003748Y-46252769D01*
X106830812Y-46474118D01*
X106828616Y-46477922D01*
X106828611Y-46477929D01*
X106714794Y-46675067D01*
X106690364Y-46717381D01*
X106585138Y-46977824D01*
X106584073Y-46982097D01*
X106584072Y-46982099D01*
X106550379Y-47117236D01*
X106517183Y-47250376D01*
X106487822Y-47529733D01*
X96358500Y-47529733D01*
X96358500Y-32132703D01*
X125590743Y-32132703D01*
X125628268Y-32417734D01*
X125704129Y-32695036D01*
X125816923Y-32959476D01*
X125964561Y-33206161D01*
X126144313Y-33430528D01*
X126352851Y-33628423D01*
X126586317Y-33796186D01*
X126590112Y-33798195D01*
X126590113Y-33798196D01*
X126611869Y-33809715D01*
X126840392Y-33930712D01*
X127110373Y-34029511D01*
X127391264Y-34090755D01*
X127419841Y-34093004D01*
X127614282Y-34108307D01*
X127614291Y-34108307D01*
X127616739Y-34108500D01*
X129572271Y-34108500D01*
X129574407Y-34108354D01*
X129574418Y-34108354D01*
X129782548Y-34094165D01*
X129782554Y-34094164D01*
X129786825Y-34093873D01*
X129791020Y-34093004D01*
X129791022Y-34093004D01*
X129927583Y-34064724D01*
X130068342Y-34035574D01*
X130339343Y-33939607D01*
X130594812Y-33807750D01*
X130598313Y-33805289D01*
X130598317Y-33805287D01*
X130712417Y-33725096D01*
X130830023Y-33642441D01*
X131040622Y-33446740D01*
X131222713Y-33224268D01*
X131372927Y-32979142D01*
X131488483Y-32715898D01*
X131567244Y-32439406D01*
X131607751Y-32154784D01*
X131607845Y-32136951D01*
X131609235Y-31871583D01*
X131609235Y-31871576D01*
X131609257Y-31867297D01*
X131571732Y-31582266D01*
X131495871Y-31304964D01*
X131383077Y-31040524D01*
X131235439Y-30793839D01*
X131055687Y-30569472D01*
X130847149Y-30371577D01*
X130613683Y-30203814D01*
X130591843Y-30192250D01*
X130568654Y-30179972D01*
X130359608Y-30069288D01*
X130089627Y-29970489D01*
X129808736Y-29909245D01*
X129777685Y-29906801D01*
X129585718Y-29891693D01*
X129585709Y-29891693D01*
X129583261Y-29891500D01*
X127627729Y-29891500D01*
X127625593Y-29891646D01*
X127625582Y-29891646D01*
X127417452Y-29905835D01*
X127417446Y-29905836D01*
X127413175Y-29906127D01*
X127408980Y-29906996D01*
X127408978Y-29906996D01*
X127272417Y-29935276D01*
X127131658Y-29964426D01*
X126860657Y-30060393D01*
X126605188Y-30192250D01*
X126601687Y-30194711D01*
X126601683Y-30194713D01*
X126591594Y-30201804D01*
X126369977Y-30357559D01*
X126159378Y-30553260D01*
X125977287Y-30775732D01*
X125827073Y-31020858D01*
X125711517Y-31284102D01*
X125632756Y-31560594D01*
X125592249Y-31845216D01*
X125592227Y-31849505D01*
X125592226Y-31849512D01*
X125590765Y-32128417D01*
X125590743Y-32132703D01*
X96358500Y-32132703D01*
X96358500Y-29634500D01*
X96378502Y-29566379D01*
X96432158Y-29519886D01*
X96484500Y-29508500D01*
X135515500Y-29508500D01*
X135583621Y-29528502D01*
G37*
G04 #@! TD.AperFunction*
M02*
