G04 #@! TF.GenerationSoftware,KiCad,Pcbnew,(6.0.11)*
G04 #@! TF.CreationDate,2023-03-03T10:03:19+00:00*
G04 #@! TF.ProjectId,QMidiMonger_controls,514d6964-694d-46f6-9e67-65725f636f6e,rev?*
G04 #@! TF.SameCoordinates,Original*
G04 #@! TF.FileFunction,Copper,L1,Top*
G04 #@! TF.FilePolarity,Positive*
%FSLAX46Y46*%
G04 Gerber Fmt 4.6, Leading zero omitted, Abs format (unit mm)*
G04 Created by KiCad (PCBNEW (6.0.11)) date 2023-03-03 10:03:19*
%MOMM*%
%LPD*%
G01*
G04 APERTURE LIST*
G04 Aperture macros list*
%AMRoundRect*
0 Rectangle with rounded corners*
0 $1 Rounding radius*
0 $2 $3 $4 $5 $6 $7 $8 $9 X,Y pos of 4 corners*
0 Add a 4 corners polygon primitive as box body*
4,1,4,$2,$3,$4,$5,$6,$7,$8,$9,$2,$3,0*
0 Add four circle primitives for the rounded corners*
1,1,$1+$1,$2,$3*
1,1,$1+$1,$4,$5*
1,1,$1+$1,$6,$7*
1,1,$1+$1,$8,$9*
0 Add four rect primitives between the rounded corners*
20,1,$1+$1,$2,$3,$4,$5,0*
20,1,$1+$1,$4,$5,$6,$7,0*
20,1,$1+$1,$6,$7,$8,$9,0*
20,1,$1+$1,$8,$9,$2,$3,0*%
G04 Aperture macros list end*
G04 #@! TA.AperFunction,ComponentPad*
%ADD10R,1.800000X1.800000*%
G04 #@! TD*
G04 #@! TA.AperFunction,ComponentPad*
%ADD11C,1.800000*%
G04 #@! TD*
G04 #@! TA.AperFunction,ComponentPad*
%ADD12R,1.700000X1.700000*%
G04 #@! TD*
G04 #@! TA.AperFunction,ComponentPad*
%ADD13O,1.700000X1.700000*%
G04 #@! TD*
G04 #@! TA.AperFunction,WasherPad*
%ADD14C,3.650000*%
G04 #@! TD*
G04 #@! TA.AperFunction,ComponentPad*
%ADD15R,1.500000X1.500000*%
G04 #@! TD*
G04 #@! TA.AperFunction,ComponentPad*
%ADD16C,1.500000*%
G04 #@! TD*
G04 #@! TA.AperFunction,SMDPad,CuDef*
%ADD17R,1.050000X2.600000*%
G04 #@! TD*
G04 #@! TA.AperFunction,SMDPad,CuDef*
%ADD18R,3.980000X9.000000*%
G04 #@! TD*
G04 #@! TA.AperFunction,ComponentPad*
%ADD19RoundRect,0.650000X-0.650000X0.650000X-0.650000X-0.650000X0.650000X-0.650000X0.650000X0.650000X0*%
G04 #@! TD*
G04 #@! TA.AperFunction,ComponentPad*
%ADD20O,2.100000X3.100000*%
G04 #@! TD*
G04 #@! TA.AperFunction,ViaPad*
%ADD21C,0.800000*%
G04 #@! TD*
G04 #@! TA.AperFunction,Conductor*
%ADD22C,0.250000*%
G04 #@! TD*
G04 #@! TA.AperFunction,Conductor*
%ADD23C,0.300000*%
G04 #@! TD*
G04 APERTURE END LIST*
D10*
X108500000Y-46330000D03*
D11*
X108500000Y-48870000D03*
D10*
X113500000Y-46330000D03*
D11*
X113500000Y-48870000D03*
D10*
X123500000Y-46330000D03*
D11*
X123500000Y-48870000D03*
D10*
X113500000Y-55270000D03*
D11*
X113500000Y-52730000D03*
D10*
X118500000Y-55270000D03*
D11*
X118500000Y-52730000D03*
D10*
X123500000Y-55270000D03*
D11*
X123500000Y-52730000D03*
D10*
X118500000Y-46330000D03*
D11*
X118500000Y-48870000D03*
D10*
X108500000Y-55270000D03*
D11*
X108500000Y-52730000D03*
D12*
X130875000Y-125500000D03*
D13*
X128335000Y-125500000D03*
X130875000Y-122960000D03*
X128335000Y-122960000D03*
X130875000Y-120420000D03*
X128335000Y-120420000D03*
X130875000Y-117880000D03*
X128335000Y-117880000D03*
D14*
X112460000Y-108300000D03*
X101030000Y-108300000D03*
D15*
X102300000Y-101950000D03*
D16*
X103570000Y-99410000D03*
X104840000Y-101950000D03*
X106110000Y-99410000D03*
X107380000Y-101950000D03*
X108650000Y-99410000D03*
X109920000Y-101950000D03*
X111190000Y-99410000D03*
D14*
X130960000Y-70200000D03*
X119530000Y-70200000D03*
D15*
X120800000Y-63850000D03*
D16*
X122070000Y-61310000D03*
X123340000Y-63850000D03*
X124610000Y-61310000D03*
X125880000Y-63850000D03*
X127150000Y-61310000D03*
X128420000Y-63850000D03*
X129690000Y-61310000D03*
D14*
X130960000Y-89300000D03*
X119530000Y-89300000D03*
D15*
X120800000Y-82950000D03*
D16*
X122070000Y-80410000D03*
X123340000Y-82950000D03*
X124610000Y-80410000D03*
X125880000Y-82950000D03*
X127150000Y-80410000D03*
X128420000Y-82950000D03*
X129690000Y-80410000D03*
D14*
X130960000Y-108300000D03*
X119530000Y-108300000D03*
D15*
X120800000Y-101950000D03*
D16*
X122070000Y-99410000D03*
X123340000Y-101950000D03*
X124610000Y-99410000D03*
X125880000Y-101950000D03*
X127150000Y-99410000D03*
X128420000Y-101950000D03*
X129690000Y-99410000D03*
D14*
X101030000Y-89300000D03*
X112460000Y-89300000D03*
D15*
X102300000Y-82950000D03*
D16*
X103570000Y-80410000D03*
X104840000Y-82950000D03*
X106110000Y-80410000D03*
X107380000Y-82950000D03*
X108650000Y-80410000D03*
X109920000Y-82950000D03*
X111190000Y-80410000D03*
D14*
X112460000Y-70200000D03*
X101030000Y-70200000D03*
D15*
X102300000Y-63850000D03*
D16*
X103570000Y-61310000D03*
X104840000Y-63850000D03*
X106110000Y-61310000D03*
X107380000Y-63850000D03*
X108650000Y-61310000D03*
X109920000Y-63850000D03*
X111190000Y-61310000D03*
D17*
X116630000Y-129950000D03*
X114130000Y-129950000D03*
X115380000Y-141650000D03*
X117880000Y-141650000D03*
D18*
X108490000Y-135800000D03*
X123510000Y-135800000D03*
D19*
X112520000Y-122100000D03*
D20*
X109420000Y-122100000D03*
D19*
X120820000Y-122100000D03*
D12*
X134000000Y-50000000D03*
D13*
X134000000Y-52540000D03*
X134000000Y-55080000D03*
X134000000Y-57620000D03*
X134000000Y-60160000D03*
X134000000Y-62700000D03*
X134000000Y-65240000D03*
X134000000Y-67780000D03*
D12*
X98000000Y-120000000D03*
D13*
X98000000Y-122540000D03*
X98000000Y-125080000D03*
X98000000Y-127620000D03*
X98000000Y-130160000D03*
X98000000Y-132700000D03*
X98000000Y-135240000D03*
X98000000Y-137780000D03*
D12*
X98000000Y-47400000D03*
D13*
X98000000Y-49940000D03*
X98000000Y-52480000D03*
X98000000Y-55020000D03*
X98000000Y-57560000D03*
X98000000Y-60100000D03*
X98000000Y-62640000D03*
X98000000Y-65180000D03*
X98000000Y-67720000D03*
D12*
X134000000Y-132700000D03*
D13*
X134000000Y-135240000D03*
X134000000Y-137780000D03*
D21*
X100700000Y-49900000D03*
X103600000Y-49800000D03*
D22*
X115200000Y-95400000D02*
X111190000Y-99410000D01*
X111190000Y-80410000D02*
X115200000Y-84420000D01*
X115200000Y-84420000D02*
X115200000Y-95400000D01*
X109920000Y-82950000D02*
X109920000Y-101950000D01*
X108650000Y-80410000D02*
X108650000Y-99410000D01*
X107380000Y-82950000D02*
X107380000Y-101950000D01*
X115100000Y-76500000D02*
X111190000Y-80410000D01*
X115100000Y-65220000D02*
X115100000Y-76500000D01*
X111190000Y-61310000D02*
X115100000Y-65220000D01*
X109920000Y-63850000D02*
X109920000Y-82950000D01*
X108650000Y-61310000D02*
X108650000Y-80410000D01*
X107380000Y-63850000D02*
X107380000Y-82950000D01*
D23*
X110130000Y-50500000D02*
X108500000Y-48870000D01*
X134000000Y-50000000D02*
X133500000Y-50500000D01*
X133500000Y-50500000D02*
X110130000Y-50500000D01*
X106970000Y-51200000D02*
X108500000Y-52730000D01*
X101400000Y-51200000D02*
X106970000Y-51200000D01*
X99600000Y-53000000D02*
X101400000Y-51200000D01*
X99600000Y-58500000D02*
X99600000Y-53000000D01*
X98000000Y-60100000D02*
X99600000Y-58500000D01*
X103040000Y-57600000D02*
X108630000Y-57600000D01*
X108630000Y-57600000D02*
X113500000Y-52730000D01*
X98000000Y-62640000D02*
X103040000Y-57600000D01*
X103312804Y-58400000D02*
X112830000Y-58400000D01*
X98000000Y-65180000D02*
X99800000Y-63380000D01*
X99800000Y-61912804D02*
X103312804Y-58400000D01*
X112830000Y-58400000D02*
X118500000Y-52730000D01*
X99800000Y-63380000D02*
X99800000Y-61912804D01*
X117030000Y-59200000D02*
X103400000Y-59200000D01*
X103400000Y-59200000D02*
X100700000Y-61900000D01*
X123500000Y-52730000D02*
X117030000Y-59200000D01*
X100700000Y-65020000D02*
X98000000Y-67720000D01*
X100700000Y-61900000D02*
X100700000Y-65020000D01*
X102300000Y-78900000D02*
X102300000Y-82950000D01*
X102300000Y-65500000D02*
X97900000Y-69900000D01*
X97700000Y-97550000D02*
X102100000Y-101950000D01*
X102200000Y-82950000D02*
X97700000Y-87450000D01*
X97900000Y-74500000D02*
X102300000Y-78900000D01*
X97700000Y-87450000D02*
X97700000Y-97550000D01*
X97900000Y-69900000D02*
X97900000Y-74500000D01*
X102300000Y-63850000D02*
X102300000Y-65500000D01*
X102300000Y-101950000D02*
X102100000Y-101950000D01*
X103570000Y-61310000D02*
X103570000Y-80410000D01*
X103570000Y-99350000D02*
X103500000Y-99280000D01*
X103570000Y-80410000D02*
X103500000Y-80480000D01*
X103570000Y-99410000D02*
X103570000Y-99350000D01*
X103500000Y-80480000D02*
X103500000Y-99280000D01*
X104840000Y-82950000D02*
X104840000Y-101950000D01*
X104840000Y-82950000D02*
X104840000Y-63850000D01*
X106100000Y-99400000D02*
X106110000Y-99410000D01*
X106100000Y-61320000D02*
X106100000Y-99400000D01*
X132500000Y-54040000D02*
X132500000Y-57300000D01*
X120800000Y-58500000D02*
X120800000Y-63550000D01*
X120700000Y-101900000D02*
X120700000Y-101950000D01*
X132500000Y-57300000D02*
X132000000Y-57800000D01*
X116700000Y-78700000D02*
X120800000Y-82800000D01*
X120750000Y-63850000D02*
X116700000Y-67900000D01*
X120800000Y-82800000D02*
X120800000Y-82950000D01*
X116900000Y-87500000D02*
X116900000Y-98100000D01*
X134000000Y-52540000D02*
X132500000Y-54040000D01*
X120800000Y-82950000D02*
X120800000Y-83600000D01*
X121500000Y-57800000D02*
X120800000Y-58500000D01*
X132000000Y-57800000D02*
X121500000Y-57800000D01*
X116900000Y-98100000D02*
X120700000Y-101900000D01*
X116700000Y-67900000D02*
X116700000Y-78700000D01*
X120800000Y-83600000D02*
X116900000Y-87500000D01*
X122070000Y-80410000D02*
X122070000Y-99310000D01*
X122070000Y-61310000D02*
X122070000Y-80410000D01*
X134000000Y-57620000D02*
X132920000Y-58700000D01*
X122070000Y-99310000D02*
X121970000Y-99410000D01*
X122700000Y-58700000D02*
X122070000Y-59330000D01*
X122070000Y-59330000D02*
X122070000Y-61010000D01*
X132920000Y-58700000D02*
X122700000Y-58700000D01*
X123340000Y-63850000D02*
X123340000Y-82950000D01*
D22*
X129510000Y-119055000D02*
X129510000Y-117393299D01*
X127500000Y-115400000D02*
X123340000Y-111240000D01*
X130875000Y-120420000D02*
X129510000Y-119055000D01*
D23*
X132830000Y-60160000D02*
X132370000Y-59700000D01*
D22*
X123340000Y-111240000D02*
X123340000Y-101950000D01*
X129510000Y-117393299D02*
X127516701Y-115400000D01*
D23*
X123340000Y-82950000D02*
X123300000Y-82990000D01*
X123300000Y-82990000D02*
X123300000Y-101890000D01*
X132370000Y-59700000D02*
X123600000Y-59700000D01*
D22*
X127516701Y-115400000D02*
X127500000Y-115400000D01*
D23*
X123600000Y-59700000D02*
X123340000Y-59960000D01*
X123340000Y-59960000D02*
X123340000Y-63550000D01*
X134000000Y-60160000D02*
X132830000Y-60160000D01*
X124610000Y-80410000D02*
X124610000Y-99410000D01*
X124610000Y-61310000D02*
X124610000Y-80410000D01*
X124610000Y-61010000D02*
X126200000Y-62600000D01*
D22*
X124610000Y-109710000D02*
X124610000Y-99410000D01*
X130900000Y-116000000D02*
X124610000Y-109710000D01*
X130875000Y-116025000D02*
X130875000Y-117880000D01*
X130900000Y-116000000D02*
X130875000Y-116025000D01*
D23*
X131360000Y-62600000D02*
X134000000Y-65240000D01*
X126200000Y-62600000D02*
X131360000Y-62600000D01*
X132797919Y-137780000D02*
X134000000Y-137780000D01*
X112481762Y-121781762D02*
X116799681Y-121781762D01*
X116799681Y-121781762D02*
X132797919Y-137780000D01*
X134000000Y-135240000D02*
X134000000Y-135200000D01*
X134000000Y-135200000D02*
X120781762Y-121981762D01*
D22*
X115005000Y-131575000D02*
X111475000Y-131575000D01*
X104980000Y-130800000D02*
X98000000Y-137780000D01*
X116630000Y-129950000D02*
X115005000Y-131575000D01*
X110700000Y-130800000D02*
X104980000Y-130800000D01*
X111475000Y-131575000D02*
X110700000Y-130800000D01*
X103290000Y-129950000D02*
X98000000Y-135240000D01*
X114130000Y-129950000D02*
X103290000Y-129950000D01*
X98000000Y-132700000D02*
X96600000Y-134100000D01*
X105875000Y-141650000D02*
X115380000Y-141650000D01*
X97100000Y-139100000D02*
X103325000Y-139100000D01*
X96600000Y-138600000D02*
X97100000Y-139100000D01*
X103325000Y-139100000D02*
X105875000Y-141650000D01*
X96600000Y-134100000D02*
X96600000Y-138600000D01*
G04 #@! TA.AperFunction,Conductor*
G36*
X132750792Y-51178502D02*
G01*
X132774332Y-51200407D01*
X132775008Y-51199731D01*
X132781357Y-51206080D01*
X132786739Y-51213261D01*
X132903295Y-51300615D01*
X132911704Y-51303767D01*
X132911705Y-51303768D01*
X133020451Y-51344535D01*
X133077216Y-51387176D01*
X133101916Y-51453738D01*
X133086709Y-51523087D01*
X133067316Y-51549568D01*
X132945678Y-51676855D01*
X132940629Y-51682138D01*
X132814743Y-51866680D01*
X132800713Y-51896906D01*
X132726032Y-52057793D01*
X132720688Y-52069305D01*
X132660989Y-52284570D01*
X132637251Y-52506695D01*
X132637548Y-52511848D01*
X132637548Y-52511851D01*
X132642184Y-52592250D01*
X132650110Y-52729715D01*
X132672276Y-52828069D01*
X132676951Y-52848814D01*
X132672415Y-52919665D01*
X132643130Y-52965610D01*
X132092391Y-53516350D01*
X132083611Y-53524338D01*
X132076920Y-53528584D01*
X132071494Y-53534362D01*
X132028395Y-53580258D01*
X132025640Y-53583100D01*
X132005073Y-53603667D01*
X132002356Y-53607170D01*
X131994648Y-53616195D01*
X131963028Y-53649867D01*
X131959207Y-53656818D01*
X131959206Y-53656819D01*
X131952697Y-53668658D01*
X131941843Y-53685182D01*
X131935039Y-53693955D01*
X131928696Y-53702132D01*
X131925549Y-53709404D01*
X131925548Y-53709406D01*
X131910346Y-53744535D01*
X131905124Y-53755195D01*
X131882876Y-53795663D01*
X131877541Y-53816441D01*
X131871142Y-53835131D01*
X131862620Y-53854824D01*
X131855687Y-53898596D01*
X131855394Y-53900448D01*
X131852987Y-53912071D01*
X131850490Y-53921797D01*
X131841500Y-53956812D01*
X131841500Y-53978259D01*
X131839949Y-53997969D01*
X131836594Y-54019152D01*
X131838192Y-54036052D01*
X131840941Y-54065138D01*
X131841500Y-54076996D01*
X131841500Y-56975050D01*
X131821498Y-57043171D01*
X131804595Y-57064145D01*
X131764145Y-57104595D01*
X131701833Y-57138621D01*
X131675050Y-57141500D01*
X121582056Y-57141500D01*
X121570200Y-57140941D01*
X121570197Y-57140941D01*
X121562463Y-57139212D01*
X121507446Y-57140941D01*
X121491631Y-57141438D01*
X121487673Y-57141500D01*
X121458568Y-57141500D01*
X121454168Y-57142056D01*
X121442336Y-57142988D01*
X121396169Y-57144438D01*
X121375579Y-57150420D01*
X121356218Y-57154430D01*
X121349230Y-57155312D01*
X121342796Y-57156125D01*
X121342795Y-57156125D01*
X121334936Y-57157118D01*
X121327571Y-57160034D01*
X121327567Y-57160035D01*
X121291982Y-57174124D01*
X121280752Y-57177969D01*
X121236399Y-57190855D01*
X121229575Y-57194891D01*
X121217943Y-57201770D01*
X121200187Y-57210469D01*
X121180244Y-57218365D01*
X121154224Y-57237270D01*
X121142868Y-57245520D01*
X121132949Y-57252035D01*
X121100023Y-57271508D01*
X121100019Y-57271511D01*
X121093193Y-57275548D01*
X121078032Y-57290709D01*
X121063000Y-57303548D01*
X121045643Y-57316159D01*
X121017917Y-57349675D01*
X121016198Y-57351752D01*
X121008208Y-57360533D01*
X120392391Y-57976349D01*
X120383612Y-57984337D01*
X120376920Y-57988584D01*
X120371495Y-57994361D01*
X120328395Y-58040258D01*
X120325640Y-58043100D01*
X120305073Y-58063667D01*
X120302356Y-58067170D01*
X120294648Y-58076195D01*
X120263028Y-58109867D01*
X120259207Y-58116818D01*
X120259206Y-58116819D01*
X120252697Y-58128658D01*
X120241843Y-58145182D01*
X120236607Y-58151933D01*
X120228696Y-58162132D01*
X120225549Y-58169404D01*
X120225548Y-58169406D01*
X120210346Y-58204535D01*
X120205124Y-58215195D01*
X120182876Y-58255663D01*
X120177541Y-58276441D01*
X120171142Y-58295131D01*
X120162620Y-58314824D01*
X120161380Y-58322655D01*
X120155394Y-58360448D01*
X120152987Y-58372071D01*
X120141500Y-58416812D01*
X120141500Y-58438259D01*
X120139949Y-58457969D01*
X120136594Y-58479152D01*
X120139790Y-58512957D01*
X120140941Y-58525138D01*
X120141500Y-58536996D01*
X120141500Y-62465500D01*
X120121498Y-62533621D01*
X120067842Y-62580114D01*
X120015500Y-62591500D01*
X120001866Y-62591500D01*
X119939684Y-62598255D01*
X119803295Y-62649385D01*
X119686739Y-62736739D01*
X119599385Y-62853295D01*
X119548255Y-62989684D01*
X119541500Y-63051866D01*
X119541500Y-64075050D01*
X119521498Y-64143171D01*
X119504595Y-64164145D01*
X116292395Y-67376345D01*
X116283615Y-67384335D01*
X116283613Y-67384337D01*
X116276920Y-67388584D01*
X116271494Y-67394362D01*
X116271493Y-67394363D01*
X116228396Y-67440257D01*
X116225641Y-67443099D01*
X116205073Y-67463667D01*
X116202356Y-67467170D01*
X116194648Y-67476195D01*
X116163028Y-67509867D01*
X116159207Y-67516818D01*
X116159206Y-67516819D01*
X116152697Y-67528658D01*
X116141843Y-67545182D01*
X116134018Y-67555271D01*
X116128696Y-67562132D01*
X116125549Y-67569404D01*
X116125548Y-67569406D01*
X116110346Y-67604535D01*
X116105124Y-67615195D01*
X116082876Y-67655663D01*
X116077541Y-67676441D01*
X116071142Y-67695131D01*
X116062620Y-67714824D01*
X116061380Y-67722655D01*
X116055394Y-67760448D01*
X116052987Y-67772071D01*
X116048685Y-67788828D01*
X116041500Y-67816812D01*
X116041500Y-67838259D01*
X116039949Y-67857969D01*
X116036594Y-67879152D01*
X116037340Y-67887043D01*
X116040941Y-67925138D01*
X116041500Y-67936996D01*
X116041500Y-78617944D01*
X116040941Y-78629800D01*
X116039212Y-78637537D01*
X116039461Y-78645459D01*
X116041438Y-78708369D01*
X116041500Y-78712327D01*
X116041500Y-78741432D01*
X116042056Y-78745832D01*
X116042988Y-78757664D01*
X116044438Y-78803831D01*
X116046650Y-78811444D01*
X116046650Y-78811445D01*
X116050419Y-78824416D01*
X116054430Y-78843782D01*
X116057118Y-78865064D01*
X116060034Y-78872429D01*
X116060035Y-78872433D01*
X116074126Y-78908021D01*
X116077965Y-78919231D01*
X116090855Y-78963600D01*
X116101775Y-78982065D01*
X116110466Y-78999805D01*
X116118365Y-79019756D01*
X116145516Y-79057126D01*
X116152033Y-79067048D01*
X116171507Y-79099977D01*
X116171510Y-79099981D01*
X116175547Y-79106807D01*
X116190711Y-79121971D01*
X116203551Y-79137004D01*
X116216159Y-79154357D01*
X116240247Y-79174284D01*
X116251752Y-79183802D01*
X116260532Y-79191792D01*
X119504595Y-82435855D01*
X119538621Y-82498167D01*
X119541500Y-82524950D01*
X119541500Y-83748134D01*
X119548255Y-83810316D01*
X119551027Y-83817710D01*
X119552855Y-83825398D01*
X119550655Y-83825921D01*
X119555002Y-83885289D01*
X119520931Y-83947809D01*
X116492395Y-86976345D01*
X116483615Y-86984335D01*
X116483613Y-86984337D01*
X116476920Y-86988584D01*
X116471494Y-86994362D01*
X116471493Y-86994363D01*
X116428396Y-87040257D01*
X116425641Y-87043099D01*
X116405073Y-87063667D01*
X116402628Y-87066819D01*
X116402356Y-87067170D01*
X116394648Y-87076195D01*
X116363028Y-87109867D01*
X116359207Y-87116818D01*
X116359206Y-87116819D01*
X116352697Y-87128658D01*
X116341843Y-87145182D01*
X116334589Y-87154535D01*
X116328696Y-87162132D01*
X116325549Y-87169404D01*
X116325548Y-87169406D01*
X116310346Y-87204535D01*
X116305124Y-87215195D01*
X116282876Y-87255663D01*
X116277541Y-87276441D01*
X116271142Y-87295131D01*
X116262620Y-87314824D01*
X116261380Y-87322655D01*
X116255394Y-87360448D01*
X116252987Y-87372071D01*
X116241500Y-87416812D01*
X116241500Y-87438259D01*
X116239949Y-87457969D01*
X116236594Y-87479152D01*
X116237340Y-87487043D01*
X116240941Y-87525138D01*
X116241500Y-87536996D01*
X116241500Y-98017944D01*
X116240941Y-98029800D01*
X116239212Y-98037537D01*
X116239461Y-98045459D01*
X116241438Y-98108369D01*
X116241500Y-98112327D01*
X116241500Y-98141432D01*
X116242056Y-98145832D01*
X116242988Y-98157664D01*
X116244438Y-98203831D01*
X116249973Y-98222880D01*
X116250419Y-98224416D01*
X116254430Y-98243782D01*
X116257118Y-98265064D01*
X116260034Y-98272429D01*
X116260035Y-98272433D01*
X116274126Y-98308021D01*
X116277965Y-98319231D01*
X116290855Y-98363600D01*
X116301775Y-98382065D01*
X116310466Y-98399805D01*
X116318365Y-98419756D01*
X116334709Y-98442251D01*
X116345516Y-98457126D01*
X116352033Y-98467048D01*
X116371507Y-98499977D01*
X116371510Y-98499981D01*
X116375547Y-98506807D01*
X116390711Y-98521971D01*
X116403551Y-98537004D01*
X116416159Y-98554357D01*
X116451752Y-98583802D01*
X116460532Y-98591792D01*
X119504595Y-101635855D01*
X119538621Y-101698167D01*
X119541500Y-101724950D01*
X119541500Y-102748134D01*
X119548255Y-102810316D01*
X119599385Y-102946705D01*
X119686739Y-103063261D01*
X119803295Y-103150615D01*
X119939684Y-103201745D01*
X120001866Y-103208500D01*
X121598134Y-103208500D01*
X121660316Y-103201745D01*
X121796705Y-103150615D01*
X121913261Y-103063261D01*
X122000615Y-102946705D01*
X122051745Y-102810316D01*
X122058500Y-102748134D01*
X122058500Y-102713576D01*
X122078502Y-102645455D01*
X122132158Y-102598962D01*
X122202432Y-102588858D01*
X122267012Y-102618352D01*
X122287713Y-102641305D01*
X122360123Y-102744717D01*
X122372251Y-102762038D01*
X122527962Y-102917749D01*
X122532470Y-102920906D01*
X122532473Y-102920908D01*
X122569315Y-102946705D01*
X122652772Y-103005142D01*
X122697099Y-103060598D01*
X122706500Y-103108354D01*
X122706500Y-111161233D01*
X122705973Y-111172416D01*
X122704298Y-111179909D01*
X122704547Y-111187835D01*
X122704547Y-111187836D01*
X122706438Y-111247986D01*
X122706500Y-111251945D01*
X122706500Y-111279856D01*
X122706997Y-111283790D01*
X122706997Y-111283791D01*
X122707005Y-111283856D01*
X122707938Y-111295693D01*
X122709327Y-111339889D01*
X122714978Y-111359339D01*
X122718987Y-111378700D01*
X122721526Y-111398797D01*
X122724445Y-111406168D01*
X122724445Y-111406170D01*
X122737804Y-111439912D01*
X122741649Y-111451142D01*
X122753982Y-111493593D01*
X122758015Y-111500412D01*
X122758017Y-111500417D01*
X122764293Y-111511028D01*
X122772988Y-111528776D01*
X122780448Y-111547617D01*
X122785110Y-111554033D01*
X122785110Y-111554034D01*
X122806436Y-111583387D01*
X122812952Y-111593307D01*
X122835458Y-111631362D01*
X122849779Y-111645683D01*
X122862619Y-111660716D01*
X122874528Y-111677107D01*
X122880634Y-111682158D01*
X122908605Y-111705298D01*
X122917384Y-111713288D01*
X126996343Y-115792247D01*
X127003887Y-115800537D01*
X127008000Y-115807018D01*
X127013777Y-115812443D01*
X127057667Y-115853658D01*
X127060509Y-115856413D01*
X127080230Y-115876134D01*
X127083425Y-115878612D01*
X127092447Y-115886318D01*
X127124679Y-115916586D01*
X127137185Y-115923461D01*
X127165576Y-115944779D01*
X127709840Y-116489043D01*
X127743866Y-116551355D01*
X127738801Y-116622170D01*
X127696254Y-116679006D01*
X127678926Y-116689901D01*
X127608607Y-116726507D01*
X127604474Y-116729610D01*
X127604471Y-116729612D01*
X127434100Y-116857530D01*
X127429965Y-116860635D01*
X127275629Y-117022138D01*
X127149743Y-117206680D01*
X127055688Y-117409305D01*
X126995989Y-117624570D01*
X126972251Y-117846695D01*
X126972548Y-117851848D01*
X126972548Y-117851851D01*
X126978011Y-117946590D01*
X126985110Y-118069715D01*
X126986247Y-118074761D01*
X126986248Y-118074767D01*
X127006119Y-118162939D01*
X127034222Y-118287639D01*
X127118266Y-118494616D01*
X127120965Y-118499020D01*
X127214116Y-118651029D01*
X127234987Y-118685088D01*
X127381250Y-118853938D01*
X127553126Y-118996632D01*
X127614139Y-119032285D01*
X127626445Y-119039476D01*
X127675169Y-119091114D01*
X127688240Y-119160897D01*
X127661509Y-119226669D01*
X127621055Y-119260027D01*
X127608607Y-119266507D01*
X127604474Y-119269610D01*
X127604471Y-119269612D01*
X127580247Y-119287800D01*
X127429965Y-119400635D01*
X127275629Y-119562138D01*
X127149743Y-119746680D01*
X127055688Y-119949305D01*
X126995989Y-120164570D01*
X126972251Y-120386695D01*
X126972548Y-120391848D01*
X126972548Y-120391851D01*
X126982020Y-120556131D01*
X126985110Y-120609715D01*
X126986247Y-120614761D01*
X126986248Y-120614767D01*
X126996418Y-120659891D01*
X127034222Y-120827639D01*
X127118266Y-121034616D01*
X127155581Y-121095508D01*
X127232291Y-121220688D01*
X127234987Y-121225088D01*
X127381250Y-121393938D01*
X127553126Y-121536632D01*
X127623595Y-121577811D01*
X127626445Y-121579476D01*
X127675169Y-121631114D01*
X127688240Y-121700897D01*
X127661509Y-121766669D01*
X127621055Y-121800027D01*
X127608607Y-121806507D01*
X127604474Y-121809610D01*
X127604471Y-121809612D01*
X127495417Y-121891492D01*
X127429965Y-121940635D01*
X127426393Y-121944373D01*
X127281539Y-122095954D01*
X127275629Y-122102138D01*
X127149743Y-122286680D01*
X127055688Y-122489305D01*
X126995989Y-122704570D01*
X126972251Y-122926695D01*
X126972548Y-122931848D01*
X126972548Y-122931851D01*
X126982130Y-123098037D01*
X126985110Y-123149715D01*
X126986247Y-123154761D01*
X126986248Y-123154767D01*
X127005925Y-123242077D01*
X127034222Y-123367639D01*
X127118266Y-123574616D01*
X127158199Y-123639781D01*
X127232291Y-123760688D01*
X127234987Y-123765088D01*
X127381250Y-123933938D01*
X127553126Y-124076632D01*
X127593987Y-124100509D01*
X127626445Y-124119476D01*
X127675169Y-124171114D01*
X127688240Y-124240897D01*
X127661509Y-124306669D01*
X127621055Y-124340027D01*
X127608607Y-124346507D01*
X127604474Y-124349610D01*
X127604471Y-124349612D01*
X127434100Y-124477530D01*
X127429965Y-124480635D01*
X127390525Y-124521907D01*
X127312722Y-124603323D01*
X127275629Y-124642138D01*
X127149743Y-124826680D01*
X127055688Y-125029305D01*
X126995989Y-125244570D01*
X126972251Y-125466695D01*
X126972548Y-125471848D01*
X126972548Y-125471851D01*
X126978592Y-125576672D01*
X126985110Y-125689715D01*
X126986247Y-125694761D01*
X126986248Y-125694767D01*
X126987156Y-125698794D01*
X127034222Y-125907639D01*
X127118266Y-126114616D01*
X127120965Y-126119020D01*
X127228165Y-126293955D01*
X127234987Y-126305088D01*
X127381250Y-126473938D01*
X127553126Y-126616632D01*
X127746000Y-126729338D01*
X127954692Y-126809030D01*
X127959760Y-126810061D01*
X127959763Y-126810062D01*
X128067017Y-126831883D01*
X128173597Y-126853567D01*
X128178772Y-126853757D01*
X128178774Y-126853757D01*
X128391673Y-126861564D01*
X128391677Y-126861564D01*
X128396837Y-126861753D01*
X128401957Y-126861097D01*
X128401959Y-126861097D01*
X128613288Y-126834025D01*
X128613289Y-126834025D01*
X128618416Y-126833368D01*
X128623366Y-126831883D01*
X128827429Y-126770661D01*
X128827434Y-126770659D01*
X128832384Y-126769174D01*
X129032994Y-126670896D01*
X129214860Y-126541173D01*
X129323091Y-126433319D01*
X129385462Y-126399404D01*
X129456268Y-126404592D01*
X129513030Y-126447238D01*
X129530012Y-126478341D01*
X129574385Y-126596705D01*
X129661739Y-126713261D01*
X129778295Y-126800615D01*
X129914684Y-126851745D01*
X129976866Y-126858500D01*
X131773134Y-126858500D01*
X131835316Y-126851745D01*
X131971705Y-126800615D01*
X132088261Y-126713261D01*
X132175615Y-126596705D01*
X132226745Y-126460316D01*
X132233500Y-126398134D01*
X132233500Y-124601866D01*
X132226745Y-124539684D01*
X132175615Y-124403295D01*
X132088261Y-124286739D01*
X131971705Y-124199385D01*
X131944905Y-124189338D01*
X131853203Y-124154960D01*
X131796439Y-124112318D01*
X131771739Y-124045756D01*
X131786947Y-123976408D01*
X131808493Y-123947727D01*
X131862843Y-123893567D01*
X131913096Y-123843489D01*
X131972594Y-123760689D01*
X132040435Y-123666277D01*
X132043453Y-123662077D01*
X132047778Y-123653327D01*
X132140136Y-123466453D01*
X132140137Y-123466451D01*
X132142430Y-123461811D01*
X132207370Y-123248069D01*
X132236529Y-123026590D01*
X132238156Y-122960000D01*
X132219852Y-122737361D01*
X132165431Y-122520702D01*
X132076354Y-122315840D01*
X131955014Y-122128277D01*
X131804670Y-121963051D01*
X131800619Y-121959852D01*
X131800615Y-121959848D01*
X131633414Y-121827800D01*
X131633410Y-121827798D01*
X131629359Y-121824598D01*
X131588053Y-121801796D01*
X131538084Y-121751364D01*
X131523312Y-121681921D01*
X131548428Y-121615516D01*
X131575780Y-121588909D01*
X131635252Y-121546488D01*
X131754860Y-121461173D01*
X131913096Y-121303489D01*
X131919032Y-121295229D01*
X132040435Y-121126277D01*
X132043453Y-121122077D01*
X132051591Y-121105612D01*
X132140136Y-120926453D01*
X132140137Y-120926451D01*
X132142430Y-120921811D01*
X132178384Y-120803474D01*
X132205865Y-120713023D01*
X132205865Y-120713021D01*
X132207370Y-120708069D01*
X132236529Y-120486590D01*
X132236704Y-120479415D01*
X132238074Y-120423365D01*
X132238074Y-120423361D01*
X132238156Y-120420000D01*
X132219852Y-120197361D01*
X132165431Y-119980702D01*
X132076354Y-119775840D01*
X131955014Y-119588277D01*
X131804670Y-119423051D01*
X131800619Y-119419852D01*
X131800615Y-119419848D01*
X131633414Y-119287800D01*
X131633410Y-119287798D01*
X131629359Y-119284598D01*
X131588053Y-119261796D01*
X131538084Y-119211364D01*
X131523312Y-119141921D01*
X131548428Y-119075516D01*
X131575780Y-119048909D01*
X131619603Y-119017650D01*
X131754860Y-118921173D01*
X131820925Y-118855339D01*
X131882559Y-118793919D01*
X131913096Y-118763489D01*
X131972594Y-118680689D01*
X132040435Y-118586277D01*
X132043453Y-118582077D01*
X132142430Y-118381811D01*
X132207370Y-118168069D01*
X132236529Y-117946590D01*
X132238156Y-117880000D01*
X132219852Y-117657361D01*
X132165431Y-117440702D01*
X132076354Y-117235840D01*
X131955014Y-117048277D01*
X131804670Y-116883051D01*
X131800619Y-116879852D01*
X131800615Y-116879848D01*
X131633414Y-116747800D01*
X131633410Y-116747798D01*
X131629359Y-116744598D01*
X131624835Y-116742101D01*
X131624831Y-116742098D01*
X131573608Y-116713822D01*
X131523636Y-116663390D01*
X131508500Y-116603513D01*
X131508500Y-116208629D01*
X131512670Y-116179325D01*
X131513181Y-116178145D01*
X131521967Y-116122674D01*
X131523450Y-116114901D01*
X131535702Y-116060091D01*
X131535443Y-116051850D01*
X131536932Y-116028182D01*
X131536979Y-116027885D01*
X131538219Y-116020057D01*
X131532935Y-115964153D01*
X131532438Y-115956255D01*
X131530922Y-115908030D01*
X131530922Y-115908029D01*
X131530673Y-115900110D01*
X131528373Y-115892193D01*
X131523934Y-115868919D01*
X131523904Y-115868605D01*
X131523903Y-115868601D01*
X131523157Y-115860708D01*
X131504128Y-115807852D01*
X131501688Y-115800342D01*
X131488229Y-115754016D01*
X131488228Y-115754014D01*
X131486018Y-115746407D01*
X131481826Y-115739318D01*
X131471731Y-115717864D01*
X131471627Y-115717576D01*
X131471626Y-115717573D01*
X131468939Y-115710111D01*
X131437371Y-115663661D01*
X131433129Y-115656976D01*
X131408579Y-115615463D01*
X131408578Y-115615462D01*
X131404542Y-115608637D01*
X131398717Y-115602812D01*
X131383602Y-115584542D01*
X131383429Y-115584287D01*
X131383426Y-115584283D01*
X131378972Y-115577730D01*
X131373030Y-115572491D01*
X131373027Y-115572488D01*
X131336853Y-115540597D01*
X131331083Y-115535178D01*
X125280405Y-109484500D01*
X125246379Y-109422188D01*
X125243500Y-109395405D01*
X125243500Y-108300000D01*
X128621493Y-108300000D01*
X128641499Y-108605236D01*
X128701176Y-108905250D01*
X128799501Y-109194908D01*
X128801324Y-109198604D01*
X128801327Y-109198612D01*
X128898376Y-109395405D01*
X128934794Y-109469253D01*
X129104738Y-109723593D01*
X129107452Y-109726687D01*
X129107456Y-109726693D01*
X129272975Y-109915431D01*
X129306426Y-109953574D01*
X129309515Y-109956283D01*
X129533307Y-110152544D01*
X129533313Y-110152548D01*
X129536407Y-110155262D01*
X129539833Y-110157551D01*
X129539838Y-110157555D01*
X129713503Y-110273594D01*
X129790746Y-110325206D01*
X129794449Y-110327032D01*
X130061388Y-110458673D01*
X130061396Y-110458676D01*
X130065092Y-110460499D01*
X130069006Y-110461828D01*
X130069007Y-110461828D01*
X130350837Y-110557496D01*
X130350841Y-110557497D01*
X130354750Y-110558824D01*
X130358794Y-110559628D01*
X130358800Y-110559630D01*
X130650725Y-110617698D01*
X130650731Y-110617699D01*
X130654764Y-110618501D01*
X130658869Y-110618770D01*
X130658876Y-110618771D01*
X130955881Y-110638237D01*
X130960000Y-110638507D01*
X130964119Y-110638237D01*
X131261124Y-110618771D01*
X131261131Y-110618770D01*
X131265236Y-110618501D01*
X131269269Y-110617699D01*
X131269275Y-110617698D01*
X131561200Y-110559630D01*
X131561206Y-110559628D01*
X131565250Y-110558824D01*
X131569159Y-110557497D01*
X131569163Y-110557496D01*
X131850993Y-110461828D01*
X131850994Y-110461828D01*
X131854908Y-110460499D01*
X131858604Y-110458676D01*
X131858612Y-110458673D01*
X132125551Y-110327032D01*
X132129254Y-110325206D01*
X132206497Y-110273594D01*
X132380162Y-110157555D01*
X132380167Y-110157551D01*
X132383593Y-110155262D01*
X132386687Y-110152548D01*
X132386693Y-110152544D01*
X132610485Y-109956283D01*
X132613574Y-109953574D01*
X132647025Y-109915431D01*
X132812544Y-109726693D01*
X132812548Y-109726687D01*
X132815262Y-109723593D01*
X132985206Y-109469253D01*
X133021624Y-109395405D01*
X133118673Y-109198612D01*
X133118676Y-109198604D01*
X133120499Y-109194908D01*
X133218824Y-108905250D01*
X133278501Y-108605236D01*
X133298507Y-108300000D01*
X133278501Y-107994764D01*
X133218824Y-107694750D01*
X133120499Y-107405092D01*
X133118676Y-107401396D01*
X133118673Y-107401388D01*
X132987032Y-107134450D01*
X132985206Y-107130747D01*
X132815262Y-106876407D01*
X132812548Y-106873313D01*
X132812544Y-106873307D01*
X132616283Y-106649515D01*
X132613574Y-106646426D01*
X132610485Y-106643717D01*
X132386693Y-106447456D01*
X132386687Y-106447452D01*
X132383593Y-106444738D01*
X132380163Y-106442446D01*
X132380162Y-106442445D01*
X132132689Y-106277089D01*
X132132687Y-106277088D01*
X132129254Y-106274794D01*
X132080747Y-106250873D01*
X131858612Y-106141327D01*
X131858604Y-106141324D01*
X131854908Y-106139501D01*
X131850993Y-106138172D01*
X131569163Y-106042504D01*
X131569159Y-106042503D01*
X131565250Y-106041176D01*
X131561206Y-106040372D01*
X131561200Y-106040370D01*
X131269275Y-105982302D01*
X131269269Y-105982301D01*
X131265236Y-105981499D01*
X131261131Y-105981230D01*
X131261124Y-105981229D01*
X130964119Y-105961763D01*
X130960000Y-105961493D01*
X130955881Y-105961763D01*
X130658876Y-105981229D01*
X130658869Y-105981230D01*
X130654764Y-105981499D01*
X130650731Y-105982301D01*
X130650725Y-105982302D01*
X130358800Y-106040370D01*
X130358794Y-106040372D01*
X130354750Y-106041176D01*
X130350841Y-106042503D01*
X130350837Y-106042504D01*
X130069007Y-106138172D01*
X130065092Y-106139501D01*
X130061396Y-106141324D01*
X130061388Y-106141327D01*
X129840816Y-106250103D01*
X129790747Y-106274794D01*
X129536407Y-106444738D01*
X129533313Y-106447452D01*
X129533307Y-106447456D01*
X129309515Y-106643717D01*
X129306426Y-106646426D01*
X129303717Y-106649515D01*
X129107456Y-106873307D01*
X129107452Y-106873313D01*
X129104738Y-106876407D01*
X128934794Y-107130747D01*
X128932968Y-107134450D01*
X128801327Y-107401388D01*
X128801324Y-107401396D01*
X128799501Y-107405092D01*
X128701176Y-107694750D01*
X128641499Y-107994764D01*
X128621493Y-108300000D01*
X125243500Y-108300000D01*
X125243500Y-103239576D01*
X125263502Y-103171455D01*
X125317158Y-103124962D01*
X125387432Y-103114858D01*
X125422751Y-103125382D01*
X125442934Y-103134794D01*
X125442942Y-103134797D01*
X125447924Y-103137120D01*
X125660629Y-103194115D01*
X125880000Y-103213307D01*
X126099371Y-103194115D01*
X126312076Y-103137120D01*
X126511654Y-103044056D01*
X126692038Y-102917749D01*
X126847749Y-102762038D01*
X126859878Y-102744717D01*
X126970899Y-102586162D01*
X126970900Y-102586160D01*
X126974056Y-102581653D01*
X126976379Y-102576671D01*
X126976382Y-102576666D01*
X127035805Y-102449231D01*
X127082722Y-102395946D01*
X127150999Y-102376485D01*
X127218959Y-102397027D01*
X127264195Y-102449231D01*
X127323618Y-102576666D01*
X127323621Y-102576671D01*
X127325944Y-102581653D01*
X127329100Y-102586160D01*
X127329101Y-102586162D01*
X127440123Y-102744717D01*
X127452251Y-102762038D01*
X127607962Y-102917749D01*
X127788346Y-103044056D01*
X127987924Y-103137120D01*
X128200629Y-103194115D01*
X128420000Y-103213307D01*
X128639371Y-103194115D01*
X128852076Y-103137120D01*
X129051654Y-103044056D01*
X129232038Y-102917749D01*
X129387749Y-102762038D01*
X129399878Y-102744717D01*
X129510899Y-102586162D01*
X129510900Y-102586160D01*
X129514056Y-102581653D01*
X129516379Y-102576671D01*
X129516382Y-102576666D01*
X129604795Y-102387061D01*
X129607120Y-102382076D01*
X129664115Y-102169371D01*
X129683307Y-101950000D01*
X129664115Y-101730629D01*
X129607120Y-101517924D01*
X129563585Y-101424562D01*
X129516382Y-101323334D01*
X129516379Y-101323329D01*
X129514056Y-101318347D01*
X129503326Y-101303023D01*
X129390908Y-101142473D01*
X129390906Y-101142470D01*
X129387749Y-101137962D01*
X129232038Y-100982251D01*
X129051654Y-100855944D01*
X128852076Y-100762880D01*
X128639371Y-100705885D01*
X128420000Y-100686693D01*
X128200629Y-100705885D01*
X127987924Y-100762880D01*
X127962752Y-100774618D01*
X127793334Y-100853618D01*
X127793329Y-100853621D01*
X127788347Y-100855944D01*
X127783840Y-100859100D01*
X127783838Y-100859101D01*
X127612473Y-100979092D01*
X127612470Y-100979094D01*
X127607962Y-100982251D01*
X127452251Y-101137962D01*
X127449094Y-101142470D01*
X127449092Y-101142473D01*
X127336674Y-101303023D01*
X127325944Y-101318347D01*
X127323621Y-101323329D01*
X127323618Y-101323334D01*
X127264195Y-101450769D01*
X127217278Y-101504054D01*
X127149001Y-101523515D01*
X127081041Y-101502973D01*
X127035805Y-101450769D01*
X126976382Y-101323334D01*
X126976379Y-101323329D01*
X126974056Y-101318347D01*
X126963326Y-101303023D01*
X126850908Y-101142473D01*
X126850906Y-101142470D01*
X126847749Y-101137962D01*
X126692038Y-100982251D01*
X126511654Y-100855944D01*
X126312076Y-100762880D01*
X126099371Y-100705885D01*
X125880000Y-100686693D01*
X125660629Y-100705885D01*
X125447924Y-100762880D01*
X125442942Y-100765203D01*
X125442934Y-100765206D01*
X125422751Y-100774618D01*
X125352559Y-100785280D01*
X125287746Y-100756300D01*
X125248890Y-100696881D01*
X125243500Y-100660424D01*
X125243500Y-100568354D01*
X125263502Y-100500233D01*
X125297228Y-100465142D01*
X125364134Y-100418294D01*
X125417527Y-100380908D01*
X125417530Y-100380906D01*
X125422038Y-100377749D01*
X125577749Y-100222038D01*
X125704056Y-100041653D01*
X125706379Y-100036671D01*
X125706382Y-100036666D01*
X125765805Y-99909231D01*
X125812722Y-99855946D01*
X125880999Y-99836485D01*
X125948959Y-99857027D01*
X125994195Y-99909231D01*
X126053618Y-100036666D01*
X126053621Y-100036671D01*
X126055944Y-100041653D01*
X126182251Y-100222038D01*
X126337962Y-100377749D01*
X126518346Y-100504056D01*
X126717924Y-100597120D01*
X126930629Y-100654115D01*
X127150000Y-100673307D01*
X127369371Y-100654115D01*
X127582076Y-100597120D01*
X127781654Y-100504056D01*
X127962038Y-100377749D01*
X128117749Y-100222038D01*
X128244056Y-100041653D01*
X128246379Y-100036671D01*
X128246382Y-100036666D01*
X128305805Y-99909231D01*
X128352722Y-99855946D01*
X128420999Y-99836485D01*
X128488959Y-99857027D01*
X128534195Y-99909231D01*
X128593618Y-100036666D01*
X128593621Y-100036671D01*
X128595944Y-100041653D01*
X128722251Y-100222038D01*
X128877962Y-100377749D01*
X129058346Y-100504056D01*
X129257924Y-100597120D01*
X129470629Y-100654115D01*
X129690000Y-100673307D01*
X129909371Y-100654115D01*
X130122076Y-100597120D01*
X130321654Y-100504056D01*
X130502038Y-100377749D01*
X130657749Y-100222038D01*
X130784056Y-100041653D01*
X130786379Y-100036671D01*
X130786382Y-100036666D01*
X130874795Y-99847061D01*
X130877120Y-99842076D01*
X130934115Y-99629371D01*
X130953307Y-99410000D01*
X130934115Y-99190629D01*
X130877120Y-98977924D01*
X130833585Y-98884562D01*
X130786382Y-98783334D01*
X130786379Y-98783329D01*
X130784056Y-98778347D01*
X130657749Y-98597962D01*
X130502038Y-98442251D01*
X130321654Y-98315944D01*
X130122076Y-98222880D01*
X129909371Y-98165885D01*
X129690000Y-98146693D01*
X129470629Y-98165885D01*
X129257924Y-98222880D01*
X129209887Y-98245280D01*
X129063334Y-98313618D01*
X129063329Y-98313621D01*
X129058347Y-98315944D01*
X129053840Y-98319100D01*
X129053838Y-98319101D01*
X128882473Y-98439092D01*
X128882470Y-98439094D01*
X128877962Y-98442251D01*
X128722251Y-98597962D01*
X128595944Y-98778347D01*
X128593621Y-98783329D01*
X128593618Y-98783334D01*
X128534195Y-98910769D01*
X128487278Y-98964054D01*
X128419001Y-98983515D01*
X128351041Y-98962973D01*
X128305805Y-98910769D01*
X128246382Y-98783334D01*
X128246379Y-98783329D01*
X128244056Y-98778347D01*
X128117749Y-98597962D01*
X127962038Y-98442251D01*
X127781654Y-98315944D01*
X127582076Y-98222880D01*
X127369371Y-98165885D01*
X127150000Y-98146693D01*
X126930629Y-98165885D01*
X126717924Y-98222880D01*
X126669887Y-98245280D01*
X126523334Y-98313618D01*
X126523329Y-98313621D01*
X126518347Y-98315944D01*
X126513840Y-98319100D01*
X126513838Y-98319101D01*
X126342473Y-98439092D01*
X126342470Y-98439094D01*
X126337962Y-98442251D01*
X126182251Y-98597962D01*
X126055944Y-98778347D01*
X126053621Y-98783329D01*
X126053618Y-98783334D01*
X125994195Y-98910769D01*
X125947278Y-98964054D01*
X125879001Y-98983515D01*
X125811041Y-98962973D01*
X125765805Y-98910769D01*
X125706382Y-98783334D01*
X125706379Y-98783329D01*
X125704056Y-98778347D01*
X125577749Y-98597962D01*
X125422038Y-98442251D01*
X125322228Y-98372363D01*
X125277901Y-98316907D01*
X125268500Y-98269151D01*
X125268500Y-89300000D01*
X128621493Y-89300000D01*
X128641499Y-89605236D01*
X128701176Y-89905250D01*
X128799501Y-90194908D01*
X128801324Y-90198604D01*
X128801327Y-90198612D01*
X128853500Y-90304406D01*
X128934794Y-90469253D01*
X129104738Y-90723593D01*
X129107452Y-90726687D01*
X129107456Y-90726693D01*
X129303716Y-90950484D01*
X129306426Y-90953574D01*
X129309515Y-90956283D01*
X129533307Y-91152544D01*
X129533313Y-91152548D01*
X129536407Y-91155262D01*
X129539833Y-91157551D01*
X129539838Y-91157555D01*
X129787311Y-91322911D01*
X129790746Y-91325206D01*
X129794449Y-91327032D01*
X130061388Y-91458673D01*
X130061396Y-91458676D01*
X130065092Y-91460499D01*
X130069006Y-91461828D01*
X130069007Y-91461828D01*
X130350837Y-91557496D01*
X130350841Y-91557497D01*
X130354750Y-91558824D01*
X130358794Y-91559628D01*
X130358800Y-91559630D01*
X130650725Y-91617698D01*
X130650731Y-91617699D01*
X130654764Y-91618501D01*
X130658869Y-91618770D01*
X130658876Y-91618771D01*
X130955881Y-91638237D01*
X130960000Y-91638507D01*
X130964119Y-91638237D01*
X131261124Y-91618771D01*
X131261131Y-91618770D01*
X131265236Y-91618501D01*
X131269269Y-91617699D01*
X131269275Y-91617698D01*
X131561200Y-91559630D01*
X131561206Y-91559628D01*
X131565250Y-91558824D01*
X131569159Y-91557497D01*
X131569163Y-91557496D01*
X131850993Y-91461828D01*
X131850994Y-91461828D01*
X131854908Y-91460499D01*
X131858604Y-91458676D01*
X131858612Y-91458673D01*
X132125551Y-91327032D01*
X132129254Y-91325206D01*
X132132689Y-91322911D01*
X132380162Y-91157555D01*
X132380167Y-91157551D01*
X132383593Y-91155262D01*
X132386687Y-91152548D01*
X132386693Y-91152544D01*
X132610485Y-90956283D01*
X132613574Y-90953574D01*
X132616284Y-90950484D01*
X132812544Y-90726693D01*
X132812548Y-90726687D01*
X132815262Y-90723593D01*
X132985206Y-90469253D01*
X133066500Y-90304406D01*
X133118673Y-90198612D01*
X133118676Y-90198604D01*
X133120499Y-90194908D01*
X133218824Y-89905250D01*
X133278501Y-89605236D01*
X133298507Y-89300000D01*
X133278501Y-88994764D01*
X133218824Y-88694750D01*
X133120499Y-88405092D01*
X133118676Y-88401396D01*
X133118673Y-88401388D01*
X132987032Y-88134450D01*
X132985206Y-88130747D01*
X132815262Y-87876407D01*
X132812548Y-87873313D01*
X132812544Y-87873307D01*
X132616283Y-87649515D01*
X132613574Y-87646426D01*
X132562422Y-87601567D01*
X132386693Y-87447456D01*
X132386687Y-87447452D01*
X132383593Y-87444738D01*
X132380163Y-87442446D01*
X132380162Y-87442445D01*
X132132689Y-87277089D01*
X132132687Y-87277088D01*
X132129254Y-87274794D01*
X132008400Y-87215195D01*
X131858612Y-87141327D01*
X131858604Y-87141324D01*
X131854908Y-87139501D01*
X131850993Y-87138172D01*
X131569163Y-87042504D01*
X131569159Y-87042503D01*
X131565250Y-87041176D01*
X131561206Y-87040372D01*
X131561200Y-87040370D01*
X131269275Y-86982302D01*
X131269269Y-86982301D01*
X131265236Y-86981499D01*
X131261131Y-86981230D01*
X131261124Y-86981229D01*
X130964119Y-86961763D01*
X130960000Y-86961493D01*
X130955881Y-86961763D01*
X130658876Y-86981229D01*
X130658869Y-86981230D01*
X130654764Y-86981499D01*
X130650731Y-86982301D01*
X130650725Y-86982302D01*
X130358800Y-87040370D01*
X130358794Y-87040372D01*
X130354750Y-87041176D01*
X130350841Y-87042503D01*
X130350837Y-87042504D01*
X130069007Y-87138172D01*
X130065092Y-87139501D01*
X130061396Y-87141324D01*
X130061388Y-87141327D01*
X129874882Y-87233303D01*
X129790747Y-87274794D01*
X129787314Y-87277088D01*
X129787312Y-87277089D01*
X129760298Y-87295139D01*
X129536407Y-87444738D01*
X129533313Y-87447452D01*
X129533307Y-87447456D01*
X129357578Y-87601567D01*
X129306426Y-87646426D01*
X129303717Y-87649515D01*
X129107456Y-87873307D01*
X129107452Y-87873313D01*
X129104738Y-87876407D01*
X128934794Y-88130747D01*
X128932968Y-88134450D01*
X128801327Y-88401388D01*
X128801324Y-88401396D01*
X128799501Y-88405092D01*
X128701176Y-88694750D01*
X128641499Y-88994764D01*
X128621493Y-89300000D01*
X125268500Y-89300000D01*
X125268500Y-84251233D01*
X125288502Y-84183112D01*
X125342158Y-84136619D01*
X125412432Y-84126515D01*
X125437387Y-84133976D01*
X125437773Y-84132915D01*
X125442940Y-84134796D01*
X125447924Y-84137120D01*
X125453228Y-84138541D01*
X125453233Y-84138543D01*
X125557219Y-84166406D01*
X125660629Y-84194115D01*
X125880000Y-84213307D01*
X126099371Y-84194115D01*
X126312076Y-84137120D01*
X126511654Y-84044056D01*
X126692038Y-83917749D01*
X126847749Y-83762038D01*
X126859878Y-83744717D01*
X126970899Y-83586162D01*
X126970900Y-83586160D01*
X126974056Y-83581653D01*
X126976379Y-83576671D01*
X126976382Y-83576666D01*
X127035805Y-83449231D01*
X127082722Y-83395946D01*
X127150999Y-83376485D01*
X127218959Y-83397027D01*
X127264195Y-83449231D01*
X127323618Y-83576666D01*
X127323621Y-83576671D01*
X127325944Y-83581653D01*
X127329100Y-83586160D01*
X127329101Y-83586162D01*
X127440123Y-83744717D01*
X127452251Y-83762038D01*
X127607962Y-83917749D01*
X127788346Y-84044056D01*
X127987924Y-84137120D01*
X128200629Y-84194115D01*
X128420000Y-84213307D01*
X128639371Y-84194115D01*
X128852076Y-84137120D01*
X129051654Y-84044056D01*
X129232038Y-83917749D01*
X129387749Y-83762038D01*
X129399878Y-83744717D01*
X129510899Y-83586162D01*
X129510900Y-83586160D01*
X129514056Y-83581653D01*
X129516379Y-83576671D01*
X129516382Y-83576666D01*
X129604795Y-83387061D01*
X129607120Y-83382076D01*
X129664115Y-83169371D01*
X129683307Y-82950000D01*
X129664115Y-82730629D01*
X129607120Y-82517924D01*
X129563585Y-82424562D01*
X129516382Y-82323334D01*
X129516379Y-82323329D01*
X129514056Y-82318347D01*
X129510899Y-82313838D01*
X129390908Y-82142473D01*
X129390906Y-82142470D01*
X129387749Y-82137962D01*
X129232038Y-81982251D01*
X129051654Y-81855944D01*
X128852076Y-81762880D01*
X128639371Y-81705885D01*
X128420000Y-81686693D01*
X128200629Y-81705885D01*
X127987924Y-81762880D01*
X127926235Y-81791646D01*
X127793334Y-81853618D01*
X127793329Y-81853621D01*
X127788347Y-81855944D01*
X127783840Y-81859100D01*
X127783838Y-81859101D01*
X127612473Y-81979092D01*
X127612470Y-81979094D01*
X127607962Y-81982251D01*
X127452251Y-82137962D01*
X127449094Y-82142470D01*
X127449092Y-82142473D01*
X127329101Y-82313838D01*
X127325944Y-82318347D01*
X127323621Y-82323329D01*
X127323618Y-82323334D01*
X127264195Y-82450769D01*
X127217278Y-82504054D01*
X127149001Y-82523515D01*
X127081041Y-82502973D01*
X127035805Y-82450769D01*
X126976382Y-82323334D01*
X126976379Y-82323329D01*
X126974056Y-82318347D01*
X126970899Y-82313838D01*
X126850908Y-82142473D01*
X126850906Y-82142470D01*
X126847749Y-82137962D01*
X126692038Y-81982251D01*
X126511654Y-81855944D01*
X126312076Y-81762880D01*
X126099371Y-81705885D01*
X125880000Y-81686693D01*
X125660629Y-81705885D01*
X125447924Y-81762880D01*
X125442939Y-81765205D01*
X125437770Y-81767086D01*
X125436875Y-81764628D01*
X125377477Y-81773611D01*
X125312683Y-81744589D01*
X125273866Y-81685144D01*
X125268500Y-81648766D01*
X125268500Y-81550849D01*
X125288502Y-81482728D01*
X125322228Y-81447637D01*
X125422038Y-81377749D01*
X125577749Y-81222038D01*
X125704056Y-81041653D01*
X125706379Y-81036671D01*
X125706382Y-81036666D01*
X125765805Y-80909231D01*
X125812722Y-80855946D01*
X125880999Y-80836485D01*
X125948959Y-80857027D01*
X125994195Y-80909231D01*
X126053618Y-81036666D01*
X126053621Y-81036671D01*
X126055944Y-81041653D01*
X126182251Y-81222038D01*
X126337962Y-81377749D01*
X126518346Y-81504056D01*
X126717924Y-81597120D01*
X126930629Y-81654115D01*
X127150000Y-81673307D01*
X127369371Y-81654115D01*
X127582076Y-81597120D01*
X127781654Y-81504056D01*
X127962038Y-81377749D01*
X128117749Y-81222038D01*
X128244056Y-81041653D01*
X128246379Y-81036671D01*
X128246382Y-81036666D01*
X128305805Y-80909231D01*
X128352722Y-80855946D01*
X128420999Y-80836485D01*
X128488959Y-80857027D01*
X128534195Y-80909231D01*
X128593618Y-81036666D01*
X128593621Y-81036671D01*
X128595944Y-81041653D01*
X128722251Y-81222038D01*
X128877962Y-81377749D01*
X129058346Y-81504056D01*
X129257924Y-81597120D01*
X129470629Y-81654115D01*
X129690000Y-81673307D01*
X129909371Y-81654115D01*
X130122076Y-81597120D01*
X130321654Y-81504056D01*
X130502038Y-81377749D01*
X130657749Y-81222038D01*
X130784056Y-81041653D01*
X130786379Y-81036671D01*
X130786382Y-81036666D01*
X130874795Y-80847061D01*
X130877120Y-80842076D01*
X130934115Y-80629371D01*
X130953307Y-80410000D01*
X130934115Y-80190629D01*
X130877120Y-79977924D01*
X130833585Y-79884562D01*
X130786382Y-79783334D01*
X130786379Y-79783329D01*
X130784056Y-79778347D01*
X130657749Y-79597962D01*
X130502038Y-79442251D01*
X130321654Y-79315944D01*
X130122076Y-79222880D01*
X129909371Y-79165885D01*
X129690000Y-79146693D01*
X129470629Y-79165885D01*
X129257924Y-79222880D01*
X129232752Y-79234618D01*
X129063334Y-79313618D01*
X129063329Y-79313621D01*
X129058347Y-79315944D01*
X129053840Y-79319100D01*
X129053838Y-79319101D01*
X128882473Y-79439092D01*
X128882470Y-79439094D01*
X128877962Y-79442251D01*
X128722251Y-79597962D01*
X128595944Y-79778347D01*
X128593621Y-79783329D01*
X128593618Y-79783334D01*
X128534195Y-79910769D01*
X128487278Y-79964054D01*
X128419001Y-79983515D01*
X128351041Y-79962973D01*
X128305805Y-79910769D01*
X128246382Y-79783334D01*
X128246379Y-79783329D01*
X128244056Y-79778347D01*
X128117749Y-79597962D01*
X127962038Y-79442251D01*
X127781654Y-79315944D01*
X127582076Y-79222880D01*
X127369371Y-79165885D01*
X127150000Y-79146693D01*
X126930629Y-79165885D01*
X126717924Y-79222880D01*
X126692752Y-79234618D01*
X126523334Y-79313618D01*
X126523329Y-79313621D01*
X126518347Y-79315944D01*
X126513840Y-79319100D01*
X126513838Y-79319101D01*
X126342473Y-79439092D01*
X126342470Y-79439094D01*
X126337962Y-79442251D01*
X126182251Y-79597962D01*
X126055944Y-79778347D01*
X126053621Y-79783329D01*
X126053618Y-79783334D01*
X125994195Y-79910769D01*
X125947278Y-79964054D01*
X125879001Y-79983515D01*
X125811041Y-79962973D01*
X125765805Y-79910769D01*
X125706382Y-79783334D01*
X125706379Y-79783329D01*
X125704056Y-79778347D01*
X125577749Y-79597962D01*
X125422038Y-79442251D01*
X125322228Y-79372363D01*
X125277901Y-79316907D01*
X125268500Y-79269151D01*
X125268500Y-65151233D01*
X125288502Y-65083112D01*
X125342158Y-65036619D01*
X125412432Y-65026515D01*
X125437387Y-65033976D01*
X125437773Y-65032915D01*
X125442940Y-65034796D01*
X125447924Y-65037120D01*
X125453228Y-65038541D01*
X125453233Y-65038543D01*
X125567161Y-65069070D01*
X125660629Y-65094115D01*
X125880000Y-65113307D01*
X126099371Y-65094115D01*
X126312076Y-65037120D01*
X126511654Y-64944056D01*
X126676487Y-64828638D01*
X126687527Y-64820908D01*
X126687529Y-64820906D01*
X126692038Y-64817749D01*
X126847749Y-64662038D01*
X126851024Y-64657362D01*
X126970899Y-64486162D01*
X126970900Y-64486160D01*
X126974056Y-64481653D01*
X126976379Y-64476671D01*
X126976382Y-64476666D01*
X127035805Y-64349231D01*
X127082722Y-64295946D01*
X127150999Y-64276485D01*
X127218959Y-64297027D01*
X127264195Y-64349231D01*
X127323618Y-64476666D01*
X127323621Y-64476671D01*
X127325944Y-64481653D01*
X127329100Y-64486160D01*
X127329101Y-64486162D01*
X127448977Y-64657362D01*
X127452251Y-64662038D01*
X127607962Y-64817749D01*
X127612471Y-64820906D01*
X127612473Y-64820908D01*
X127623513Y-64828638D01*
X127788346Y-64944056D01*
X127987924Y-65037120D01*
X128200629Y-65094115D01*
X128420000Y-65113307D01*
X128639371Y-65094115D01*
X128852076Y-65037120D01*
X129051654Y-64944056D01*
X129216487Y-64828638D01*
X129227527Y-64820908D01*
X129227529Y-64820906D01*
X129232038Y-64817749D01*
X129387749Y-64662038D01*
X129391024Y-64657362D01*
X129510899Y-64486162D01*
X129510900Y-64486160D01*
X129514056Y-64481653D01*
X129516379Y-64476671D01*
X129516382Y-64476666D01*
X129590181Y-64318401D01*
X129607120Y-64282076D01*
X129664115Y-64069371D01*
X129683307Y-63850000D01*
X129664115Y-63630629D01*
X129607120Y-63417924D01*
X129609487Y-63417290D01*
X129605613Y-63356802D01*
X129640101Y-63294744D01*
X129702664Y-63261184D01*
X129728531Y-63258500D01*
X131035050Y-63258500D01*
X131103171Y-63278502D01*
X131124145Y-63295405D01*
X132642101Y-64813361D01*
X132676127Y-64875673D01*
X132674424Y-64936125D01*
X132660989Y-64984570D01*
X132637251Y-65206695D01*
X132637548Y-65211848D01*
X132637548Y-65211851D01*
X132641026Y-65272164D01*
X132650110Y-65429715D01*
X132651247Y-65434761D01*
X132651248Y-65434767D01*
X132661984Y-65482405D01*
X132699222Y-65647639D01*
X132783266Y-65854616D01*
X132899987Y-66045088D01*
X133046250Y-66213938D01*
X133218126Y-66356632D01*
X133277135Y-66391114D01*
X133291445Y-66399476D01*
X133340169Y-66451114D01*
X133353240Y-66520897D01*
X133326509Y-66586669D01*
X133286055Y-66620027D01*
X133273607Y-66626507D01*
X133269474Y-66629610D01*
X133269471Y-66629612D01*
X133169899Y-66704373D01*
X133094965Y-66760635D01*
X133091393Y-66764373D01*
X133001538Y-66858401D01*
X132940629Y-66922138D01*
X132814743Y-67106680D01*
X132799003Y-67140589D01*
X132728449Y-67292586D01*
X132720688Y-67309305D01*
X132660989Y-67524570D01*
X132637251Y-67746695D01*
X132637548Y-67751848D01*
X132637548Y-67751851D01*
X132645070Y-67882302D01*
X132650110Y-67969715D01*
X132651247Y-67974761D01*
X132651248Y-67974767D01*
X132672275Y-68068069D01*
X132699222Y-68187639D01*
X132730187Y-68263897D01*
X132772704Y-68368605D01*
X132779800Y-68439246D01*
X132747578Y-68502510D01*
X132686268Y-68538310D01*
X132615336Y-68535280D01*
X132572883Y-68510741D01*
X132386693Y-68347456D01*
X132386687Y-68347452D01*
X132383593Y-68344738D01*
X132380163Y-68342446D01*
X132380162Y-68342445D01*
X132132689Y-68177089D01*
X132132687Y-68177088D01*
X132129254Y-68174794D01*
X132050294Y-68135855D01*
X131858612Y-68041327D01*
X131858604Y-68041324D01*
X131854908Y-68039501D01*
X131649324Y-67969715D01*
X131569163Y-67942504D01*
X131569159Y-67942503D01*
X131565250Y-67941176D01*
X131561206Y-67940372D01*
X131561200Y-67940370D01*
X131269275Y-67882302D01*
X131269269Y-67882301D01*
X131265236Y-67881499D01*
X131261131Y-67881230D01*
X131261124Y-67881229D01*
X130964119Y-67861763D01*
X130960000Y-67861493D01*
X130955881Y-67861763D01*
X130658876Y-67881229D01*
X130658869Y-67881230D01*
X130654764Y-67881499D01*
X130650731Y-67882301D01*
X130650725Y-67882302D01*
X130358800Y-67940370D01*
X130358794Y-67940372D01*
X130354750Y-67941176D01*
X130350841Y-67942503D01*
X130350837Y-67942504D01*
X130270676Y-67969715D01*
X130065092Y-68039501D01*
X130061396Y-68041324D01*
X130061388Y-68041327D01*
X129886367Y-68127639D01*
X129790747Y-68174794D01*
X129787314Y-68177088D01*
X129787312Y-68177089D01*
X129764360Y-68192425D01*
X129536407Y-68344738D01*
X129533313Y-68347452D01*
X129533307Y-68347456D01*
X129314127Y-68539672D01*
X129306426Y-68546426D01*
X129303717Y-68549515D01*
X129107456Y-68773307D01*
X129107452Y-68773313D01*
X129104738Y-68776407D01*
X129022663Y-68899242D01*
X128947868Y-69011181D01*
X128934794Y-69030747D01*
X128918657Y-69063470D01*
X128801327Y-69301388D01*
X128801324Y-69301396D01*
X128799501Y-69305092D01*
X128798172Y-69309006D01*
X128798172Y-69309007D01*
X128714375Y-69555868D01*
X128701176Y-69594750D01*
X128700372Y-69598794D01*
X128700370Y-69598800D01*
X128643035Y-69887043D01*
X128641499Y-69894764D01*
X128641230Y-69898869D01*
X128641229Y-69898876D01*
X128623278Y-70172760D01*
X128621493Y-70200000D01*
X128641499Y-70505236D01*
X128701176Y-70805250D01*
X128799501Y-71094908D01*
X128801324Y-71098604D01*
X128801327Y-71098612D01*
X128910103Y-71319184D01*
X128934794Y-71369253D01*
X129104738Y-71623593D01*
X129107452Y-71626687D01*
X129107456Y-71626693D01*
X129303716Y-71850484D01*
X129306426Y-71853574D01*
X129309515Y-71856283D01*
X129533307Y-72052544D01*
X129533313Y-72052548D01*
X129536407Y-72055262D01*
X129539833Y-72057551D01*
X129539838Y-72057555D01*
X129787311Y-72222911D01*
X129790746Y-72225206D01*
X129794449Y-72227032D01*
X130061388Y-72358673D01*
X130061396Y-72358676D01*
X130065092Y-72360499D01*
X130069006Y-72361828D01*
X130069007Y-72361828D01*
X130350837Y-72457496D01*
X130350841Y-72457497D01*
X130354750Y-72458824D01*
X130358794Y-72459628D01*
X130358800Y-72459630D01*
X130650725Y-72517698D01*
X130650731Y-72517699D01*
X130654764Y-72518501D01*
X130658869Y-72518770D01*
X130658876Y-72518771D01*
X130955881Y-72538237D01*
X130960000Y-72538507D01*
X130964119Y-72538237D01*
X131261124Y-72518771D01*
X131261131Y-72518770D01*
X131265236Y-72518501D01*
X131269269Y-72517699D01*
X131269275Y-72517698D01*
X131561200Y-72459630D01*
X131561206Y-72459628D01*
X131565250Y-72458824D01*
X131569159Y-72457497D01*
X131569163Y-72457496D01*
X131850993Y-72361828D01*
X131850994Y-72361828D01*
X131854908Y-72360499D01*
X131858604Y-72358676D01*
X131858612Y-72358673D01*
X132125551Y-72227032D01*
X132129254Y-72225206D01*
X132132689Y-72222911D01*
X132380162Y-72057555D01*
X132380167Y-72057551D01*
X132383593Y-72055262D01*
X132386687Y-72052548D01*
X132386693Y-72052544D01*
X132610485Y-71856283D01*
X132613574Y-71853574D01*
X132616284Y-71850484D01*
X132812544Y-71626693D01*
X132812548Y-71626687D01*
X132815262Y-71623593D01*
X132985206Y-71369253D01*
X133009897Y-71319184D01*
X133118673Y-71098612D01*
X133118676Y-71098604D01*
X133120499Y-71094908D01*
X133218824Y-70805250D01*
X133278501Y-70505236D01*
X133298507Y-70200000D01*
X133296722Y-70172760D01*
X133278771Y-69898876D01*
X133278770Y-69898869D01*
X133278501Y-69894764D01*
X133276966Y-69887043D01*
X133219630Y-69598800D01*
X133219628Y-69598794D01*
X133218824Y-69594750D01*
X133205626Y-69555868D01*
X133121828Y-69309007D01*
X133121828Y-69309006D01*
X133120499Y-69305092D01*
X133118676Y-69301396D01*
X133118673Y-69301388D01*
X133001343Y-69063470D01*
X132985206Y-69030747D01*
X132975083Y-69015597D01*
X132953869Y-68947844D01*
X132972653Y-68879377D01*
X133025471Y-68831934D01*
X133095553Y-68820578D01*
X133160333Y-68848652D01*
X133218126Y-68896632D01*
X133411000Y-69009338D01*
X133415825Y-69011180D01*
X133415826Y-69011181D01*
X133440183Y-69020482D01*
X133619692Y-69089030D01*
X133624760Y-69090061D01*
X133624763Y-69090062D01*
X133732017Y-69111883D01*
X133838597Y-69133567D01*
X133843772Y-69133757D01*
X133843774Y-69133757D01*
X134056673Y-69141564D01*
X134056677Y-69141564D01*
X134061837Y-69141753D01*
X134066957Y-69141097D01*
X134066959Y-69141097D01*
X134278288Y-69114025D01*
X134278289Y-69114025D01*
X134283416Y-69113368D01*
X134288366Y-69111883D01*
X134492429Y-69050661D01*
X134492434Y-69050659D01*
X134497384Y-69049174D01*
X134697994Y-68950896D01*
X134879860Y-68821173D01*
X135038096Y-68663489D01*
X135068814Y-68620741D01*
X135165435Y-68486277D01*
X135168453Y-68482077D01*
X135173656Y-68471551D01*
X135252543Y-68311933D01*
X135300656Y-68259726D01*
X135369358Y-68241819D01*
X135436834Y-68263897D01*
X135481662Y-68318951D01*
X135491500Y-68367760D01*
X135491500Y-131480608D01*
X135471498Y-131548729D01*
X135417842Y-131595222D01*
X135347568Y-131605326D01*
X135282988Y-131575832D01*
X135264674Y-131556173D01*
X135218285Y-131494276D01*
X135205724Y-131481715D01*
X135103649Y-131405214D01*
X135088054Y-131396676D01*
X134967606Y-131351522D01*
X134952351Y-131347895D01*
X134901486Y-131342369D01*
X134894672Y-131342000D01*
X134272115Y-131342000D01*
X134256876Y-131346475D01*
X134255671Y-131347865D01*
X134254000Y-131355548D01*
X134254000Y-132828000D01*
X134233998Y-132896121D01*
X134180342Y-132942614D01*
X134128000Y-132954000D01*
X132737449Y-132954000D01*
X132669328Y-132933998D01*
X132648354Y-132917095D01*
X132159144Y-132427885D01*
X132642000Y-132427885D01*
X132646475Y-132443124D01*
X132647865Y-132444329D01*
X132655548Y-132446000D01*
X133727885Y-132446000D01*
X133743124Y-132441525D01*
X133744329Y-132440135D01*
X133746000Y-132432452D01*
X133746000Y-131360116D01*
X133741525Y-131344877D01*
X133740135Y-131343672D01*
X133732452Y-131342001D01*
X133105331Y-131342001D01*
X133098510Y-131342371D01*
X133047648Y-131347895D01*
X133032396Y-131351521D01*
X132911946Y-131396676D01*
X132896351Y-131405214D01*
X132794276Y-131481715D01*
X132781715Y-131494276D01*
X132705214Y-131596351D01*
X132696676Y-131611946D01*
X132651522Y-131732394D01*
X132647895Y-131747649D01*
X132642369Y-131798514D01*
X132642000Y-131805328D01*
X132642000Y-132427885D01*
X132159144Y-132427885D01*
X128134555Y-128403295D01*
X122663981Y-122932721D01*
X122629955Y-122870409D01*
X122627398Y-122834622D01*
X122628338Y-122821498D01*
X122628338Y-122821496D01*
X122628500Y-122819237D01*
X122628499Y-121380764D01*
X122628016Y-121374157D01*
X122621653Y-121287182D01*
X122621652Y-121287178D01*
X122621277Y-121282047D01*
X122571391Y-121075056D01*
X122484620Y-120880622D01*
X122363869Y-120705256D01*
X122318425Y-120659891D01*
X122217270Y-120558911D01*
X122217265Y-120558907D01*
X122213183Y-120554832D01*
X122159159Y-120517772D01*
X122042371Y-120437655D01*
X122042370Y-120437655D01*
X122037607Y-120434387D01*
X121912896Y-120378993D01*
X121848299Y-120350300D01*
X121848295Y-120350299D01*
X121843021Y-120347956D01*
X121805753Y-120339043D01*
X121640941Y-120299627D01*
X121640937Y-120299626D01*
X121635943Y-120298432D01*
X121599715Y-120295835D01*
X121541487Y-120291661D01*
X121541479Y-120291661D01*
X121539237Y-120291500D01*
X120826457Y-120291500D01*
X120100764Y-120291501D01*
X120098471Y-120291669D01*
X120098464Y-120291669D01*
X120007182Y-120298347D01*
X120007178Y-120298348D01*
X120002047Y-120298723D01*
X119795056Y-120348609D01*
X119600622Y-120435380D01*
X119595868Y-120438653D01*
X119595867Y-120438654D01*
X119431886Y-120551566D01*
X119425256Y-120556131D01*
X119421176Y-120560218D01*
X119421175Y-120560219D01*
X119278911Y-120702730D01*
X119278907Y-120702735D01*
X119274832Y-120706817D01*
X119154387Y-120882393D01*
X119123265Y-120952460D01*
X119072111Y-121067625D01*
X119067956Y-121076979D01*
X119066612Y-121082599D01*
X119030294Y-121234459D01*
X119018432Y-121284057D01*
X119018065Y-121289179D01*
X119011974Y-121374157D01*
X119011500Y-121380763D01*
X119011501Y-122098401D01*
X119011501Y-122758132D01*
X118991499Y-122826253D01*
X118937843Y-122872746D01*
X118867569Y-122882850D01*
X118802989Y-122853357D01*
X118796406Y-122847227D01*
X117323336Y-121374157D01*
X117315346Y-121365377D01*
X117315344Y-121365375D01*
X117311097Y-121358682D01*
X117259423Y-121310157D01*
X117256582Y-121307403D01*
X117236014Y-121286835D01*
X117232507Y-121284115D01*
X117223485Y-121276409D01*
X117195594Y-121250218D01*
X117189814Y-121244790D01*
X117182862Y-121240968D01*
X117171023Y-121234459D01*
X117154499Y-121223605D01*
X117143813Y-121215317D01*
X117137549Y-121210458D01*
X117130277Y-121207311D01*
X117130275Y-121207310D01*
X117095146Y-121192108D01*
X117084486Y-121186886D01*
X117050965Y-121168457D01*
X117050963Y-121168456D01*
X117044018Y-121164638D01*
X117023240Y-121159303D01*
X117004550Y-121152904D01*
X116984857Y-121144382D01*
X116939233Y-121137156D01*
X116927610Y-121134749D01*
X116897404Y-121126994D01*
X116882869Y-121123262D01*
X116861422Y-121123262D01*
X116841712Y-121121711D01*
X116828358Y-121119596D01*
X116820529Y-121118356D01*
X116774540Y-121122703D01*
X116762685Y-121123262D01*
X114374651Y-121123262D01*
X114306530Y-121103260D01*
X114259589Y-121048611D01*
X114253344Y-121034616D01*
X114184620Y-120880622D01*
X114063869Y-120705256D01*
X114018425Y-120659891D01*
X113917270Y-120558911D01*
X113917265Y-120558907D01*
X113913183Y-120554832D01*
X113859159Y-120517772D01*
X113742371Y-120437655D01*
X113742370Y-120437655D01*
X113737607Y-120434387D01*
X113612896Y-120378993D01*
X113548299Y-120350300D01*
X113548295Y-120350299D01*
X113543021Y-120347956D01*
X113505753Y-120339043D01*
X113340941Y-120299627D01*
X113340937Y-120299626D01*
X113335943Y-120298432D01*
X113299715Y-120295835D01*
X113241487Y-120291661D01*
X113241479Y-120291661D01*
X113239237Y-120291500D01*
X112526457Y-120291500D01*
X111800764Y-120291501D01*
X111798471Y-120291669D01*
X111798464Y-120291669D01*
X111707182Y-120298347D01*
X111707178Y-120298348D01*
X111702047Y-120298723D01*
X111495056Y-120348609D01*
X111300622Y-120435380D01*
X111295868Y-120438653D01*
X111295867Y-120438654D01*
X111131886Y-120551566D01*
X111125256Y-120556131D01*
X111121176Y-120560218D01*
X111121175Y-120560219D01*
X110978911Y-120702730D01*
X110978907Y-120702735D01*
X110974832Y-120706817D01*
X110971566Y-120711578D01*
X110939298Y-120758616D01*
X110884269Y-120803474D01*
X110813723Y-120811461D01*
X110750058Y-120780040D01*
X110728776Y-120754481D01*
X110674297Y-120667969D01*
X110668253Y-120659891D01*
X110509143Y-120479415D01*
X110501891Y-120472412D01*
X110315975Y-120319699D01*
X110307693Y-120313943D01*
X110099754Y-120192920D01*
X110090655Y-120188560D01*
X109866045Y-120102340D01*
X109856363Y-120099491D01*
X109691736Y-120065098D01*
X109677675Y-120066221D01*
X109674000Y-120076328D01*
X109674000Y-124120925D01*
X109678136Y-124135011D01*
X109691114Y-124137060D01*
X109718572Y-124133883D01*
X109728476Y-124131922D01*
X109959975Y-124066413D01*
X109969424Y-124062899D01*
X110187483Y-123961218D01*
X110196247Y-123956239D01*
X110395234Y-123821007D01*
X110403109Y-123814675D01*
X110577905Y-123649379D01*
X110584666Y-123641870D01*
X110730791Y-123450747D01*
X110732314Y-123448383D01*
X110733151Y-123447660D01*
X110733864Y-123446727D01*
X110734058Y-123446875D01*
X110786028Y-123401958D01*
X110856315Y-123391943D01*
X110920858Y-123421518D01*
X110942003Y-123445180D01*
X110976131Y-123494744D01*
X110980218Y-123498824D01*
X110980219Y-123498825D01*
X111122730Y-123641089D01*
X111122735Y-123641093D01*
X111126817Y-123645168D01*
X111138711Y-123653327D01*
X111222631Y-123710896D01*
X111302393Y-123765613D01*
X111384864Y-123802245D01*
X111491701Y-123849700D01*
X111491705Y-123849701D01*
X111496979Y-123852044D01*
X111502600Y-123853388D01*
X111502599Y-123853388D01*
X111699059Y-123900373D01*
X111699063Y-123900374D01*
X111704057Y-123901568D01*
X111740285Y-123904165D01*
X111798513Y-123908339D01*
X111798521Y-123908339D01*
X111800763Y-123908500D01*
X112513543Y-123908500D01*
X113239236Y-123908499D01*
X113241529Y-123908331D01*
X113241536Y-123908331D01*
X113332818Y-123901653D01*
X113332822Y-123901652D01*
X113337953Y-123901277D01*
X113544944Y-123851391D01*
X113739378Y-123764620D01*
X113745087Y-123760689D01*
X113909988Y-123647144D01*
X113909989Y-123647143D01*
X113914744Y-123643869D01*
X113950925Y-123607625D01*
X114061089Y-123497270D01*
X114061093Y-123497265D01*
X114065168Y-123493183D01*
X114185613Y-123317607D01*
X114258010Y-123154616D01*
X114269700Y-123128299D01*
X114269701Y-123128295D01*
X114272044Y-123123021D01*
X114295907Y-123023240D01*
X114320373Y-122920941D01*
X114320374Y-122920937D01*
X114321568Y-122915943D01*
X114328500Y-122819237D01*
X114328500Y-122566262D01*
X114348502Y-122498141D01*
X114402158Y-122451648D01*
X114454500Y-122440262D01*
X116474731Y-122440262D01*
X116542852Y-122460264D01*
X116563826Y-122477167D01*
X124663064Y-130576405D01*
X124697090Y-130638717D01*
X124692025Y-130709532D01*
X124649478Y-130766368D01*
X124582958Y-130791179D01*
X124573969Y-130791500D01*
X121471866Y-130791500D01*
X121409684Y-130798255D01*
X121273295Y-130849385D01*
X121156739Y-130936739D01*
X121069385Y-131053295D01*
X121018255Y-131189684D01*
X121011500Y-131251866D01*
X121011500Y-140348134D01*
X121018255Y-140410316D01*
X121069385Y-140546705D01*
X121156739Y-140663261D01*
X121273295Y-140750615D01*
X121409684Y-140801745D01*
X121471866Y-140808500D01*
X125548134Y-140808500D01*
X125610316Y-140801745D01*
X125746705Y-140750615D01*
X125863261Y-140663261D01*
X125950615Y-140546705D01*
X126001745Y-140410316D01*
X126008500Y-140348134D01*
X126008500Y-132226031D01*
X126028502Y-132157910D01*
X126082158Y-132111417D01*
X126152432Y-132101313D01*
X126217012Y-132130807D01*
X126223595Y-132136936D01*
X132274264Y-138187605D01*
X132282254Y-138196385D01*
X132286503Y-138203080D01*
X132292281Y-138208506D01*
X132292282Y-138208507D01*
X132338176Y-138251604D01*
X132341018Y-138254359D01*
X132361586Y-138274927D01*
X132365089Y-138277644D01*
X132374114Y-138285352D01*
X132407786Y-138316972D01*
X132414737Y-138320793D01*
X132414738Y-138320794D01*
X132426577Y-138327303D01*
X132443101Y-138338157D01*
X132453784Y-138346443D01*
X132460051Y-138351304D01*
X132467326Y-138354452D01*
X132502455Y-138369654D01*
X132513100Y-138374869D01*
X132553582Y-138397124D01*
X132561256Y-138399094D01*
X132561263Y-138399097D01*
X132574345Y-138402455D01*
X132593053Y-138408860D01*
X132612742Y-138417380D01*
X132620568Y-138418619D01*
X132620570Y-138418620D01*
X132645078Y-138422501D01*
X132658378Y-138424608D01*
X132669989Y-138427012D01*
X132701026Y-138434981D01*
X132707054Y-138436529D01*
X132707055Y-138436529D01*
X132714731Y-138438500D01*
X132736177Y-138438500D01*
X132755877Y-138440050D01*
X132759661Y-138440649D01*
X132823817Y-138471055D01*
X132847394Y-138499264D01*
X132899987Y-138585088D01*
X133046250Y-138753938D01*
X133218126Y-138896632D01*
X133411000Y-139009338D01*
X133619692Y-139089030D01*
X133624760Y-139090061D01*
X133624763Y-139090062D01*
X133732017Y-139111883D01*
X133838597Y-139133567D01*
X133843772Y-139133757D01*
X133843774Y-139133757D01*
X134056673Y-139141564D01*
X134056677Y-139141564D01*
X134061837Y-139141753D01*
X134066957Y-139141097D01*
X134066959Y-139141097D01*
X134278288Y-139114025D01*
X134278289Y-139114025D01*
X134283416Y-139113368D01*
X134288366Y-139111883D01*
X134492429Y-139050661D01*
X134492434Y-139050659D01*
X134497384Y-139049174D01*
X134697994Y-138950896D01*
X134879860Y-138821173D01*
X135038096Y-138663489D01*
X135068311Y-138621441D01*
X135165435Y-138486277D01*
X135168453Y-138482077D01*
X135173901Y-138471055D01*
X135252543Y-138311933D01*
X135300656Y-138259726D01*
X135369358Y-138241819D01*
X135436834Y-138263897D01*
X135481662Y-138318951D01*
X135491500Y-138367760D01*
X135491500Y-145865500D01*
X135471498Y-145933621D01*
X135417842Y-145980114D01*
X135365500Y-145991500D01*
X96634500Y-145991500D01*
X96566379Y-145971498D01*
X96519886Y-145917842D01*
X96508500Y-145865500D01*
X96508500Y-142532703D01*
X99190743Y-142532703D01*
X99228268Y-142817734D01*
X99304129Y-143095036D01*
X99305813Y-143098984D01*
X99399506Y-143318642D01*
X99416923Y-143359476D01*
X99564561Y-143606161D01*
X99744313Y-143830528D01*
X99952851Y-144028423D01*
X100186317Y-144196186D01*
X100190112Y-144198195D01*
X100190113Y-144198196D01*
X100211869Y-144209715D01*
X100440392Y-144330712D01*
X100710373Y-144429511D01*
X100991264Y-144490755D01*
X101019841Y-144493004D01*
X101214282Y-144508307D01*
X101214291Y-144508307D01*
X101216739Y-144508500D01*
X101372271Y-144508500D01*
X101374407Y-144508354D01*
X101374418Y-144508354D01*
X101582548Y-144494165D01*
X101582554Y-144494164D01*
X101586825Y-144493873D01*
X101591020Y-144493004D01*
X101591022Y-144493004D01*
X101727583Y-144464724D01*
X101868342Y-144435574D01*
X102139343Y-144339607D01*
X102394812Y-144207750D01*
X102398313Y-144205289D01*
X102398317Y-144205287D01*
X102512417Y-144125096D01*
X102630023Y-144042441D01*
X102840622Y-143846740D01*
X103022713Y-143624268D01*
X103172927Y-143379142D01*
X103288483Y-143115898D01*
X103367244Y-142839406D01*
X103407751Y-142554784D01*
X103407845Y-142536951D01*
X103409235Y-142271583D01*
X103409235Y-142271576D01*
X103409257Y-142267297D01*
X103406410Y-142245667D01*
X103387890Y-142104999D01*
X103371732Y-141982266D01*
X103295871Y-141704964D01*
X103183077Y-141440524D01*
X103035439Y-141193839D01*
X102855687Y-140969472D01*
X102710532Y-140831725D01*
X102650258Y-140774527D01*
X102650255Y-140774525D01*
X102647149Y-140771577D01*
X102413683Y-140603814D01*
X102391843Y-140592250D01*
X102289943Y-140538297D01*
X102159608Y-140469288D01*
X101889627Y-140370489D01*
X101608736Y-140309245D01*
X101577685Y-140306801D01*
X101385718Y-140291693D01*
X101385709Y-140291693D01*
X101383261Y-140291500D01*
X101227729Y-140291500D01*
X101225593Y-140291646D01*
X101225582Y-140291646D01*
X101017452Y-140305835D01*
X101017446Y-140305836D01*
X101013175Y-140306127D01*
X101008980Y-140306996D01*
X101008978Y-140306996D01*
X100872416Y-140335277D01*
X100731658Y-140364426D01*
X100460657Y-140460393D01*
X100205188Y-140592250D01*
X100201687Y-140594711D01*
X100201683Y-140594713D01*
X100096493Y-140668642D01*
X99969977Y-140757559D01*
X99922427Y-140801745D01*
X99860614Y-140859186D01*
X99759378Y-140953260D01*
X99577287Y-141175732D01*
X99427073Y-141420858D01*
X99311517Y-141684102D01*
X99232756Y-141960594D01*
X99192249Y-142245216D01*
X99192227Y-142249505D01*
X99192226Y-142249512D01*
X99191388Y-142409500D01*
X99190743Y-142532703D01*
X96508500Y-142532703D01*
X96508500Y-139704749D01*
X96528502Y-139636628D01*
X96582158Y-139590135D01*
X96652432Y-139580031D01*
X96711184Y-139608297D01*
X96712489Y-139606501D01*
X96718900Y-139611159D01*
X96724679Y-139616586D01*
X96731625Y-139620405D01*
X96731628Y-139620407D01*
X96742434Y-139626348D01*
X96758953Y-139637199D01*
X96774959Y-139649614D01*
X96782228Y-139652759D01*
X96782232Y-139652762D01*
X96815537Y-139667174D01*
X96826187Y-139672391D01*
X96864940Y-139693695D01*
X96872615Y-139695666D01*
X96872616Y-139695666D01*
X96884562Y-139698733D01*
X96903267Y-139705137D01*
X96921855Y-139713181D01*
X96929678Y-139714420D01*
X96929688Y-139714423D01*
X96965524Y-139720099D01*
X96977144Y-139722505D01*
X97012289Y-139731528D01*
X97019970Y-139733500D01*
X97040224Y-139733500D01*
X97059934Y-139735051D01*
X97079943Y-139738220D01*
X97087835Y-139737474D01*
X97123961Y-139734059D01*
X97135819Y-139733500D01*
X103010406Y-139733500D01*
X103078527Y-139753502D01*
X103099501Y-139770405D01*
X105371343Y-142042247D01*
X105378887Y-142050537D01*
X105383000Y-142057018D01*
X105388777Y-142062443D01*
X105432667Y-142103658D01*
X105435509Y-142106413D01*
X105455231Y-142126135D01*
X105458355Y-142128558D01*
X105458359Y-142128562D01*
X105458424Y-142128612D01*
X105467445Y-142136317D01*
X105499679Y-142166586D01*
X105506627Y-142170405D01*
X105506629Y-142170407D01*
X105517432Y-142176346D01*
X105533959Y-142187202D01*
X105543698Y-142194757D01*
X105543700Y-142194758D01*
X105549960Y-142199614D01*
X105590540Y-142217174D01*
X105601188Y-142222391D01*
X105639940Y-142243695D01*
X105647616Y-142245666D01*
X105647619Y-142245667D01*
X105659562Y-142248733D01*
X105678267Y-142255137D01*
X105696855Y-142263181D01*
X105704678Y-142264420D01*
X105704688Y-142264423D01*
X105740524Y-142270099D01*
X105752144Y-142272505D01*
X105787289Y-142281528D01*
X105794970Y-142283500D01*
X105815224Y-142283500D01*
X105834934Y-142285051D01*
X105854943Y-142288220D01*
X105862835Y-142287474D01*
X105898961Y-142284059D01*
X105910819Y-142283500D01*
X114220500Y-142283500D01*
X114288621Y-142303502D01*
X114335114Y-142357158D01*
X114346500Y-142409500D01*
X114346500Y-142998134D01*
X114353255Y-143060316D01*
X114404385Y-143196705D01*
X114491739Y-143313261D01*
X114608295Y-143400615D01*
X114744684Y-143451745D01*
X114806866Y-143458500D01*
X115953134Y-143458500D01*
X116015316Y-143451745D01*
X116151705Y-143400615D01*
X116268261Y-143313261D01*
X116355615Y-143196705D01*
X116406745Y-143060316D01*
X116413500Y-142998134D01*
X116413500Y-142994669D01*
X116847001Y-142994669D01*
X116847371Y-143001490D01*
X116852895Y-143052352D01*
X116856521Y-143067604D01*
X116901676Y-143188054D01*
X116910214Y-143203649D01*
X116986715Y-143305724D01*
X116999276Y-143318285D01*
X117101351Y-143394786D01*
X117116946Y-143403324D01*
X117237394Y-143448478D01*
X117252649Y-143452105D01*
X117303514Y-143457631D01*
X117310328Y-143458000D01*
X117607885Y-143458000D01*
X117623124Y-143453525D01*
X117624329Y-143452135D01*
X117626000Y-143444452D01*
X117626000Y-143439884D01*
X118134000Y-143439884D01*
X118138475Y-143455123D01*
X118139865Y-143456328D01*
X118147548Y-143457999D01*
X118449669Y-143457999D01*
X118456490Y-143457629D01*
X118507352Y-143452105D01*
X118522604Y-143448479D01*
X118643054Y-143403324D01*
X118658649Y-143394786D01*
X118760724Y-143318285D01*
X118773285Y-143305724D01*
X118849786Y-143203649D01*
X118858324Y-143188054D01*
X118903478Y-143067606D01*
X118907105Y-143052351D01*
X118912631Y-143001486D01*
X118913000Y-142994672D01*
X118913000Y-142532703D01*
X128590743Y-142532703D01*
X128628268Y-142817734D01*
X128704129Y-143095036D01*
X128705813Y-143098984D01*
X128799506Y-143318642D01*
X128816923Y-143359476D01*
X128964561Y-143606161D01*
X129144313Y-143830528D01*
X129352851Y-144028423D01*
X129586317Y-144196186D01*
X129590112Y-144198195D01*
X129590113Y-144198196D01*
X129611869Y-144209715D01*
X129840392Y-144330712D01*
X130110373Y-144429511D01*
X130391264Y-144490755D01*
X130419841Y-144493004D01*
X130614282Y-144508307D01*
X130614291Y-144508307D01*
X130616739Y-144508500D01*
X130772271Y-144508500D01*
X130774407Y-144508354D01*
X130774418Y-144508354D01*
X130982548Y-144494165D01*
X130982554Y-144494164D01*
X130986825Y-144493873D01*
X130991020Y-144493004D01*
X130991022Y-144493004D01*
X131127583Y-144464724D01*
X131268342Y-144435574D01*
X131539343Y-144339607D01*
X131794812Y-144207750D01*
X131798313Y-144205289D01*
X131798317Y-144205287D01*
X131912417Y-144125096D01*
X132030023Y-144042441D01*
X132240622Y-143846740D01*
X132422713Y-143624268D01*
X132572927Y-143379142D01*
X132688483Y-143115898D01*
X132767244Y-142839406D01*
X132807751Y-142554784D01*
X132807845Y-142536951D01*
X132809235Y-142271583D01*
X132809235Y-142271576D01*
X132809257Y-142267297D01*
X132806410Y-142245667D01*
X132787890Y-142104999D01*
X132771732Y-141982266D01*
X132695871Y-141704964D01*
X132583077Y-141440524D01*
X132435439Y-141193839D01*
X132255687Y-140969472D01*
X132110532Y-140831725D01*
X132050258Y-140774527D01*
X132050255Y-140774525D01*
X132047149Y-140771577D01*
X131813683Y-140603814D01*
X131791843Y-140592250D01*
X131689943Y-140538297D01*
X131559608Y-140469288D01*
X131289627Y-140370489D01*
X131008736Y-140309245D01*
X130977685Y-140306801D01*
X130785718Y-140291693D01*
X130785709Y-140291693D01*
X130783261Y-140291500D01*
X130627729Y-140291500D01*
X130625593Y-140291646D01*
X130625582Y-140291646D01*
X130417452Y-140305835D01*
X130417446Y-140305836D01*
X130413175Y-140306127D01*
X130408980Y-140306996D01*
X130408978Y-140306996D01*
X130272416Y-140335277D01*
X130131658Y-140364426D01*
X129860657Y-140460393D01*
X129605188Y-140592250D01*
X129601687Y-140594711D01*
X129601683Y-140594713D01*
X129496493Y-140668642D01*
X129369977Y-140757559D01*
X129322427Y-140801745D01*
X129260614Y-140859186D01*
X129159378Y-140953260D01*
X128977287Y-141175732D01*
X128827073Y-141420858D01*
X128711517Y-141684102D01*
X128632756Y-141960594D01*
X128592249Y-142245216D01*
X128592227Y-142249505D01*
X128592226Y-142249512D01*
X128591388Y-142409500D01*
X128590743Y-142532703D01*
X118913000Y-142532703D01*
X118913000Y-141922115D01*
X118908525Y-141906876D01*
X118907135Y-141905671D01*
X118899452Y-141904000D01*
X118152115Y-141904000D01*
X118136876Y-141908475D01*
X118135671Y-141909865D01*
X118134000Y-141917548D01*
X118134000Y-143439884D01*
X117626000Y-143439884D01*
X117626000Y-141922115D01*
X117621525Y-141906876D01*
X117620135Y-141905671D01*
X117612452Y-141904000D01*
X116865116Y-141904000D01*
X116849877Y-141908475D01*
X116848672Y-141909865D01*
X116847001Y-141917548D01*
X116847001Y-142994669D01*
X116413500Y-142994669D01*
X116413500Y-141377885D01*
X116847000Y-141377885D01*
X116851475Y-141393124D01*
X116852865Y-141394329D01*
X116860548Y-141396000D01*
X117607885Y-141396000D01*
X117623124Y-141391525D01*
X117624329Y-141390135D01*
X117626000Y-141382452D01*
X117626000Y-141377885D01*
X118134000Y-141377885D01*
X118138475Y-141393124D01*
X118139865Y-141394329D01*
X118147548Y-141396000D01*
X118894884Y-141396000D01*
X118910123Y-141391525D01*
X118911328Y-141390135D01*
X118912999Y-141382452D01*
X118912999Y-140305331D01*
X118912629Y-140298510D01*
X118907105Y-140247648D01*
X118903479Y-140232396D01*
X118858324Y-140111946D01*
X118849786Y-140096351D01*
X118773285Y-139994276D01*
X118760724Y-139981715D01*
X118658649Y-139905214D01*
X118643054Y-139896676D01*
X118522606Y-139851522D01*
X118507351Y-139847895D01*
X118456486Y-139842369D01*
X118449672Y-139842000D01*
X118152115Y-139842000D01*
X118136876Y-139846475D01*
X118135671Y-139847865D01*
X118134000Y-139855548D01*
X118134000Y-141377885D01*
X117626000Y-141377885D01*
X117626000Y-139860116D01*
X117621525Y-139844877D01*
X117620135Y-139843672D01*
X117612452Y-139842001D01*
X117310331Y-139842001D01*
X117303510Y-139842371D01*
X117252648Y-139847895D01*
X117237396Y-139851521D01*
X117116946Y-139896676D01*
X117101351Y-139905214D01*
X116999276Y-139981715D01*
X116986715Y-139994276D01*
X116910214Y-140096351D01*
X116901676Y-140111946D01*
X116856522Y-140232394D01*
X116852895Y-140247649D01*
X116847369Y-140298514D01*
X116847000Y-140305328D01*
X116847000Y-141377885D01*
X116413500Y-141377885D01*
X116413500Y-140301866D01*
X116406745Y-140239684D01*
X116355615Y-140103295D01*
X116268261Y-139986739D01*
X116151705Y-139899385D01*
X116015316Y-139848255D01*
X115953134Y-139841500D01*
X114806866Y-139841500D01*
X114744684Y-139848255D01*
X114608295Y-139899385D01*
X114491739Y-139986739D01*
X114404385Y-140103295D01*
X114353255Y-140239684D01*
X114346500Y-140301866D01*
X114346500Y-140890500D01*
X114326498Y-140958621D01*
X114272842Y-141005114D01*
X114220500Y-141016500D01*
X110712509Y-141016500D01*
X110644388Y-140996498D01*
X110597895Y-140942842D01*
X110587791Y-140872568D01*
X110617285Y-140807988D01*
X110668279Y-140772518D01*
X110718297Y-140753767D01*
X110726705Y-140750615D01*
X110843261Y-140663261D01*
X110930615Y-140546705D01*
X110981745Y-140410316D01*
X110988500Y-140348134D01*
X110988500Y-132246560D01*
X111008502Y-132178439D01*
X111062158Y-132131946D01*
X111132432Y-132121842D01*
X111164538Y-132130923D01*
X111190531Y-132142170D01*
X111201188Y-132147391D01*
X111225976Y-132161018D01*
X111239940Y-132168695D01*
X111247616Y-132170666D01*
X111247619Y-132170667D01*
X111259562Y-132173733D01*
X111278267Y-132180137D01*
X111296855Y-132188181D01*
X111304678Y-132189420D01*
X111304688Y-132189423D01*
X111340524Y-132195099D01*
X111352144Y-132197505D01*
X111383959Y-132205673D01*
X111394970Y-132208500D01*
X111415224Y-132208500D01*
X111434934Y-132210051D01*
X111454943Y-132213220D01*
X111462835Y-132212474D01*
X111481580Y-132210702D01*
X111498962Y-132209059D01*
X111510819Y-132208500D01*
X114926233Y-132208500D01*
X114937416Y-132209027D01*
X114944909Y-132210702D01*
X114952835Y-132210453D01*
X114952836Y-132210453D01*
X115012986Y-132208562D01*
X115016945Y-132208500D01*
X115044856Y-132208500D01*
X115048791Y-132208003D01*
X115048856Y-132207995D01*
X115060693Y-132207062D01*
X115092951Y-132206048D01*
X115096970Y-132205922D01*
X115104889Y-132205673D01*
X115124343Y-132200021D01*
X115143700Y-132196013D01*
X115155930Y-132194468D01*
X115155931Y-132194468D01*
X115163797Y-132193474D01*
X115171168Y-132190555D01*
X115171170Y-132190555D01*
X115204912Y-132177196D01*
X115216142Y-132173351D01*
X115250983Y-132163229D01*
X115250984Y-132163229D01*
X115258593Y-132161018D01*
X115265412Y-132156985D01*
X115265417Y-132156983D01*
X115276028Y-132150707D01*
X115293776Y-132142012D01*
X115312617Y-132134552D01*
X115348387Y-132108564D01*
X115358307Y-132102048D01*
X115389535Y-132083580D01*
X115389538Y-132083578D01*
X115396362Y-132079542D01*
X115410683Y-132065221D01*
X115425717Y-132052380D01*
X115435694Y-132045131D01*
X115442107Y-132040472D01*
X115470298Y-132006395D01*
X115478288Y-131997616D01*
X115740558Y-131735346D01*
X115802870Y-131701320D01*
X115873882Y-131706459D01*
X115987282Y-131748971D01*
X115987288Y-131748973D01*
X115994684Y-131751745D01*
X116056866Y-131758500D01*
X117203134Y-131758500D01*
X117265316Y-131751745D01*
X117401705Y-131700615D01*
X117518261Y-131613261D01*
X117605615Y-131496705D01*
X117656745Y-131360316D01*
X117663500Y-131298134D01*
X117663500Y-128601866D01*
X117656745Y-128539684D01*
X117605615Y-128403295D01*
X117518261Y-128286739D01*
X117401705Y-128199385D01*
X117265316Y-128148255D01*
X117203134Y-128141500D01*
X116056866Y-128141500D01*
X115994684Y-128148255D01*
X115858295Y-128199385D01*
X115741739Y-128286739D01*
X115654385Y-128403295D01*
X115603255Y-128539684D01*
X115596500Y-128601866D01*
X115596500Y-130035405D01*
X115576498Y-130103526D01*
X115559595Y-130124501D01*
X115378595Y-130305500D01*
X115316283Y-130339525D01*
X115245467Y-130334460D01*
X115188632Y-130291913D01*
X115163821Y-130225392D01*
X115163500Y-130216404D01*
X115163500Y-128601866D01*
X115156745Y-128539684D01*
X115105615Y-128403295D01*
X115018261Y-128286739D01*
X114901705Y-128199385D01*
X114765316Y-128148255D01*
X114703134Y-128141500D01*
X113556866Y-128141500D01*
X113494684Y-128148255D01*
X113358295Y-128199385D01*
X113241739Y-128286739D01*
X113154385Y-128403295D01*
X113103255Y-128539684D01*
X113096500Y-128601866D01*
X113096500Y-129190500D01*
X113076498Y-129258621D01*
X113022842Y-129305114D01*
X112970500Y-129316500D01*
X103368768Y-129316500D01*
X103357585Y-129315973D01*
X103350092Y-129314298D01*
X103342166Y-129314547D01*
X103342165Y-129314547D01*
X103282002Y-129316438D01*
X103278044Y-129316500D01*
X103250144Y-129316500D01*
X103246154Y-129317004D01*
X103234320Y-129317936D01*
X103190111Y-129319326D01*
X103182497Y-129321538D01*
X103182492Y-129321539D01*
X103170659Y-129324977D01*
X103151296Y-129328988D01*
X103131203Y-129331526D01*
X103123836Y-129334443D01*
X103123831Y-129334444D01*
X103090092Y-129347802D01*
X103078865Y-129351646D01*
X103036407Y-129363982D01*
X103029581Y-129368019D01*
X103018972Y-129374293D01*
X103001224Y-129382988D01*
X102982383Y-129390448D01*
X102975967Y-129395110D01*
X102975966Y-129395110D01*
X102946613Y-129416436D01*
X102936693Y-129422952D01*
X102905465Y-129441420D01*
X102905462Y-129441422D01*
X102898638Y-129445458D01*
X102884317Y-129459779D01*
X102869284Y-129472619D01*
X102852893Y-129484528D01*
X102847842Y-129490634D01*
X102824702Y-129518605D01*
X102816712Y-129527384D01*
X99576877Y-132767218D01*
X99514565Y-132801244D01*
X99443749Y-132796179D01*
X99386914Y-132753632D01*
X99362206Y-132688447D01*
X99345276Y-132482522D01*
X99344852Y-132477361D01*
X99290431Y-132260702D01*
X99201354Y-132055840D01*
X99080014Y-131868277D01*
X98929670Y-131703051D01*
X98925619Y-131699852D01*
X98925615Y-131699848D01*
X98758414Y-131567800D01*
X98758410Y-131567798D01*
X98754359Y-131564598D01*
X98713053Y-131541796D01*
X98663084Y-131491364D01*
X98648312Y-131421921D01*
X98673428Y-131355516D01*
X98700780Y-131328909D01*
X98748715Y-131294717D01*
X98879860Y-131201173D01*
X99038096Y-131043489D01*
X99097594Y-130960689D01*
X99165435Y-130866277D01*
X99168453Y-130862077D01*
X99234999Y-130727432D01*
X99265136Y-130666453D01*
X99265137Y-130666451D01*
X99267430Y-130661811D01*
X99332370Y-130448069D01*
X99361529Y-130226590D01*
X99363156Y-130160000D01*
X99344852Y-129937361D01*
X99290431Y-129720702D01*
X99201354Y-129515840D01*
X99095132Y-129351646D01*
X99082822Y-129332617D01*
X99082820Y-129332614D01*
X99080014Y-129328277D01*
X98929670Y-129163051D01*
X98925619Y-129159852D01*
X98925615Y-129159848D01*
X98758414Y-129027800D01*
X98758410Y-129027798D01*
X98754359Y-129024598D01*
X98713053Y-129001796D01*
X98663084Y-128951364D01*
X98648312Y-128881921D01*
X98673428Y-128815516D01*
X98700780Y-128788909D01*
X98744603Y-128757650D01*
X98879860Y-128661173D01*
X99038096Y-128503489D01*
X99097594Y-128420689D01*
X99165435Y-128326277D01*
X99168453Y-128322077D01*
X99182370Y-128293919D01*
X99265136Y-128126453D01*
X99265137Y-128126451D01*
X99267430Y-128121811D01*
X99332370Y-127908069D01*
X99361529Y-127686590D01*
X99363156Y-127620000D01*
X99344852Y-127397361D01*
X99290431Y-127180702D01*
X99201354Y-126975840D01*
X99127426Y-126861564D01*
X99082822Y-126792617D01*
X99082820Y-126792614D01*
X99080014Y-126788277D01*
X98929670Y-126623051D01*
X98925619Y-126619852D01*
X98925615Y-126619848D01*
X98758414Y-126487800D01*
X98758410Y-126487798D01*
X98754359Y-126484598D01*
X98743025Y-126478341D01*
X98712569Y-126461529D01*
X98662598Y-126411097D01*
X98647826Y-126341654D01*
X98672942Y-126275248D01*
X98700294Y-126248641D01*
X98875328Y-126123792D01*
X98883200Y-126117139D01*
X99034052Y-125966812D01*
X99040730Y-125958965D01*
X99165003Y-125786020D01*
X99170313Y-125777183D01*
X99264670Y-125586267D01*
X99268469Y-125576672D01*
X99330377Y-125372910D01*
X99332555Y-125362837D01*
X99333986Y-125351962D01*
X99331775Y-125337778D01*
X99318617Y-125334000D01*
X97872000Y-125334000D01*
X97803879Y-125313998D01*
X97757386Y-125260342D01*
X97746000Y-125208000D01*
X97746000Y-124952000D01*
X97766002Y-124883879D01*
X97819658Y-124837386D01*
X97872000Y-124826000D01*
X99318344Y-124826000D01*
X99331875Y-124822027D01*
X99333180Y-124812947D01*
X99291214Y-124645875D01*
X99287894Y-124636124D01*
X99202972Y-124440814D01*
X99198105Y-124431739D01*
X99082426Y-124252926D01*
X99076136Y-124244757D01*
X98932806Y-124087240D01*
X98925273Y-124080215D01*
X98758139Y-123948222D01*
X98749556Y-123942520D01*
X98712602Y-123922120D01*
X98662631Y-123871687D01*
X98647859Y-123802245D01*
X98672975Y-123735839D01*
X98700327Y-123709232D01*
X98723797Y-123692491D01*
X98879860Y-123581173D01*
X99038096Y-123423489D01*
X99097594Y-123340689D01*
X99165435Y-123246277D01*
X99168453Y-123242077D01*
X99226344Y-123124944D01*
X99265136Y-123046453D01*
X99265137Y-123046451D01*
X99267430Y-123041811D01*
X99332370Y-122828069D01*
X99354434Y-122660482D01*
X107862000Y-122660482D01*
X107862202Y-122665514D01*
X107876632Y-122844863D01*
X107878244Y-122854816D01*
X107935634Y-123088467D01*
X107938817Y-123098037D01*
X108032826Y-123319506D01*
X108037501Y-123328448D01*
X108165707Y-123532036D01*
X108171747Y-123540109D01*
X108330857Y-123720585D01*
X108338109Y-123727588D01*
X108524025Y-123880301D01*
X108532307Y-123886057D01*
X108740246Y-124007080D01*
X108749345Y-124011440D01*
X108973955Y-124097660D01*
X108983637Y-124100509D01*
X109148264Y-124134902D01*
X109162325Y-124133779D01*
X109166000Y-124123672D01*
X109166000Y-122372115D01*
X109161525Y-122356876D01*
X109160135Y-122355671D01*
X109152452Y-122354000D01*
X107880115Y-122354000D01*
X107864876Y-122358475D01*
X107863671Y-122359865D01*
X107862000Y-122367548D01*
X107862000Y-122660482D01*
X99354434Y-122660482D01*
X99361529Y-122606590D01*
X99361611Y-122603240D01*
X99363074Y-122543365D01*
X99363074Y-122543361D01*
X99363156Y-122540000D01*
X99344852Y-122317361D01*
X99290431Y-122100702D01*
X99201354Y-121895840D01*
X99157392Y-121827885D01*
X107862000Y-121827885D01*
X107866475Y-121843124D01*
X107867865Y-121844329D01*
X107875548Y-121846000D01*
X109147885Y-121846000D01*
X109163124Y-121841525D01*
X109164329Y-121840135D01*
X109166000Y-121832452D01*
X109166000Y-120079075D01*
X109161864Y-120064989D01*
X109148886Y-120062940D01*
X109121428Y-120066117D01*
X109111524Y-120068078D01*
X108880025Y-120133587D01*
X108870576Y-120137101D01*
X108652517Y-120238782D01*
X108643753Y-120243761D01*
X108444766Y-120378993D01*
X108436891Y-120385325D01*
X108262095Y-120550621D01*
X108255334Y-120558130D01*
X108109209Y-120749253D01*
X108103745Y-120757732D01*
X107990055Y-120969764D01*
X107986013Y-120979016D01*
X107907687Y-121206493D01*
X107905176Y-121216269D01*
X107864039Y-121454428D01*
X107863184Y-121462295D01*
X107862064Y-121486953D01*
X107862000Y-121489786D01*
X107862000Y-121827885D01*
X99157392Y-121827885D01*
X99139370Y-121800027D01*
X99082822Y-121712617D01*
X99082820Y-121712614D01*
X99080014Y-121708277D01*
X99073299Y-121700897D01*
X98932798Y-121546488D01*
X98901746Y-121482642D01*
X98910141Y-121412143D01*
X98955317Y-121357375D01*
X98981761Y-121343706D01*
X99088297Y-121303767D01*
X99096705Y-121300615D01*
X99213261Y-121213261D01*
X99300615Y-121096705D01*
X99351745Y-120960316D01*
X99358500Y-120898134D01*
X99358500Y-119101866D01*
X99351745Y-119039684D01*
X99300615Y-118903295D01*
X99213261Y-118786739D01*
X99096705Y-118699385D01*
X98960316Y-118648255D01*
X98898134Y-118641500D01*
X97101866Y-118641500D01*
X97039684Y-118648255D01*
X96903295Y-118699385D01*
X96786739Y-118786739D01*
X96781358Y-118793919D01*
X96781357Y-118793920D01*
X96735326Y-118855339D01*
X96678467Y-118897854D01*
X96607648Y-118902880D01*
X96545355Y-118868820D01*
X96511365Y-118806489D01*
X96508500Y-118779774D01*
X96508500Y-108300000D01*
X98691493Y-108300000D01*
X98711499Y-108605236D01*
X98771176Y-108905250D01*
X98869501Y-109194908D01*
X98871324Y-109198604D01*
X98871327Y-109198612D01*
X98968376Y-109395405D01*
X99004794Y-109469253D01*
X99174738Y-109723593D01*
X99177452Y-109726687D01*
X99177456Y-109726693D01*
X99342975Y-109915431D01*
X99376426Y-109953574D01*
X99379515Y-109956283D01*
X99603307Y-110152544D01*
X99603313Y-110152548D01*
X99606407Y-110155262D01*
X99609833Y-110157551D01*
X99609838Y-110157555D01*
X99783503Y-110273594D01*
X99860746Y-110325206D01*
X99864449Y-110327032D01*
X100131388Y-110458673D01*
X100131396Y-110458676D01*
X100135092Y-110460499D01*
X100139006Y-110461828D01*
X100139007Y-110461828D01*
X100420837Y-110557496D01*
X100420841Y-110557497D01*
X100424750Y-110558824D01*
X100428794Y-110559628D01*
X100428800Y-110559630D01*
X100720725Y-110617698D01*
X100720731Y-110617699D01*
X100724764Y-110618501D01*
X100728869Y-110618770D01*
X100728876Y-110618771D01*
X101025881Y-110638237D01*
X101030000Y-110638507D01*
X101034119Y-110638237D01*
X101331124Y-110618771D01*
X101331131Y-110618770D01*
X101335236Y-110618501D01*
X101339269Y-110617699D01*
X101339275Y-110617698D01*
X101631200Y-110559630D01*
X101631206Y-110559628D01*
X101635250Y-110558824D01*
X101639159Y-110557497D01*
X101639163Y-110557496D01*
X101920993Y-110461828D01*
X101920994Y-110461828D01*
X101924908Y-110460499D01*
X101928604Y-110458676D01*
X101928612Y-110458673D01*
X102195551Y-110327032D01*
X102199254Y-110325206D01*
X102276497Y-110273594D01*
X102450162Y-110157555D01*
X102450167Y-110157551D01*
X102453593Y-110155262D01*
X102456687Y-110152548D01*
X102456693Y-110152544D01*
X102680485Y-109956283D01*
X102683574Y-109953574D01*
X102717025Y-109915431D01*
X102882544Y-109726693D01*
X102882548Y-109726687D01*
X102885262Y-109723593D01*
X103055206Y-109469253D01*
X103091624Y-109395405D01*
X103188673Y-109198612D01*
X103188676Y-109198604D01*
X103190499Y-109194908D01*
X103288824Y-108905250D01*
X103348501Y-108605236D01*
X103368507Y-108300000D01*
X110121493Y-108300000D01*
X110141499Y-108605236D01*
X110201176Y-108905250D01*
X110299501Y-109194908D01*
X110301324Y-109198604D01*
X110301327Y-109198612D01*
X110398376Y-109395405D01*
X110434794Y-109469253D01*
X110604738Y-109723593D01*
X110607452Y-109726687D01*
X110607456Y-109726693D01*
X110772975Y-109915431D01*
X110806426Y-109953574D01*
X110809515Y-109956283D01*
X111033307Y-110152544D01*
X111033313Y-110152548D01*
X111036407Y-110155262D01*
X111039833Y-110157551D01*
X111039838Y-110157555D01*
X111213503Y-110273594D01*
X111290746Y-110325206D01*
X111294449Y-110327032D01*
X111561388Y-110458673D01*
X111561396Y-110458676D01*
X111565092Y-110460499D01*
X111569006Y-110461828D01*
X111569007Y-110461828D01*
X111850837Y-110557496D01*
X111850841Y-110557497D01*
X111854750Y-110558824D01*
X111858794Y-110559628D01*
X111858800Y-110559630D01*
X112150725Y-110617698D01*
X112150731Y-110617699D01*
X112154764Y-110618501D01*
X112158869Y-110618770D01*
X112158876Y-110618771D01*
X112455881Y-110638237D01*
X112460000Y-110638507D01*
X112464119Y-110638237D01*
X112761124Y-110618771D01*
X112761131Y-110618770D01*
X112765236Y-110618501D01*
X112769269Y-110617699D01*
X112769275Y-110617698D01*
X113061200Y-110559630D01*
X113061206Y-110559628D01*
X113065250Y-110558824D01*
X113069159Y-110557497D01*
X113069163Y-110557496D01*
X113350993Y-110461828D01*
X113350994Y-110461828D01*
X113354908Y-110460499D01*
X113358604Y-110458676D01*
X113358612Y-110458673D01*
X113625551Y-110327032D01*
X113629254Y-110325206D01*
X113706497Y-110273594D01*
X113880162Y-110157555D01*
X113880167Y-110157551D01*
X113883593Y-110155262D01*
X113886687Y-110152548D01*
X113886693Y-110152544D01*
X114110485Y-109956283D01*
X114113574Y-109953574D01*
X114147025Y-109915431D01*
X114312544Y-109726693D01*
X114312548Y-109726687D01*
X114315262Y-109723593D01*
X114485206Y-109469253D01*
X114521624Y-109395405D01*
X114618673Y-109198612D01*
X114618676Y-109198604D01*
X114620499Y-109194908D01*
X114718824Y-108905250D01*
X114778501Y-108605236D01*
X114798507Y-108300000D01*
X117191493Y-108300000D01*
X117211499Y-108605236D01*
X117271176Y-108905250D01*
X117369501Y-109194908D01*
X117371324Y-109198604D01*
X117371327Y-109198612D01*
X117468376Y-109395405D01*
X117504794Y-109469253D01*
X117674738Y-109723593D01*
X117677452Y-109726687D01*
X117677456Y-109726693D01*
X117842975Y-109915431D01*
X117876426Y-109953574D01*
X117879515Y-109956283D01*
X118103307Y-110152544D01*
X118103313Y-110152548D01*
X118106407Y-110155262D01*
X118109833Y-110157551D01*
X118109838Y-110157555D01*
X118283503Y-110273594D01*
X118360746Y-110325206D01*
X118364449Y-110327032D01*
X118631388Y-110458673D01*
X118631396Y-110458676D01*
X118635092Y-110460499D01*
X118639006Y-110461828D01*
X118639007Y-110461828D01*
X118920837Y-110557496D01*
X118920841Y-110557497D01*
X118924750Y-110558824D01*
X118928794Y-110559628D01*
X118928800Y-110559630D01*
X119220725Y-110617698D01*
X119220731Y-110617699D01*
X119224764Y-110618501D01*
X119228869Y-110618770D01*
X119228876Y-110618771D01*
X119525881Y-110638237D01*
X119530000Y-110638507D01*
X119534119Y-110638237D01*
X119831124Y-110618771D01*
X119831131Y-110618770D01*
X119835236Y-110618501D01*
X119839269Y-110617699D01*
X119839275Y-110617698D01*
X120131200Y-110559630D01*
X120131206Y-110559628D01*
X120135250Y-110558824D01*
X120139159Y-110557497D01*
X120139163Y-110557496D01*
X120420993Y-110461828D01*
X120420994Y-110461828D01*
X120424908Y-110460499D01*
X120428604Y-110458676D01*
X120428612Y-110458673D01*
X120695551Y-110327032D01*
X120699254Y-110325206D01*
X120776497Y-110273594D01*
X120950162Y-110157555D01*
X120950167Y-110157551D01*
X120953593Y-110155262D01*
X120956687Y-110152548D01*
X120956693Y-110152544D01*
X121180485Y-109956283D01*
X121183574Y-109953574D01*
X121217025Y-109915431D01*
X121382544Y-109726693D01*
X121382548Y-109726687D01*
X121385262Y-109723593D01*
X121555206Y-109469253D01*
X121591624Y-109395405D01*
X121688673Y-109198612D01*
X121688676Y-109198604D01*
X121690499Y-109194908D01*
X121788824Y-108905250D01*
X121848501Y-108605236D01*
X121868507Y-108300000D01*
X121848501Y-107994764D01*
X121788824Y-107694750D01*
X121690499Y-107405092D01*
X121688676Y-107401396D01*
X121688673Y-107401388D01*
X121557032Y-107134450D01*
X121555206Y-107130747D01*
X121385262Y-106876407D01*
X121382548Y-106873313D01*
X121382544Y-106873307D01*
X121186283Y-106649515D01*
X121183574Y-106646426D01*
X121180485Y-106643717D01*
X120956693Y-106447456D01*
X120956687Y-106447452D01*
X120953593Y-106444738D01*
X120950163Y-106442446D01*
X120950162Y-106442445D01*
X120702689Y-106277089D01*
X120702687Y-106277088D01*
X120699254Y-106274794D01*
X120650747Y-106250873D01*
X120428612Y-106141327D01*
X120428604Y-106141324D01*
X120424908Y-106139501D01*
X120420993Y-106138172D01*
X120139163Y-106042504D01*
X120139159Y-106042503D01*
X120135250Y-106041176D01*
X120131206Y-106040372D01*
X120131200Y-106040370D01*
X119839275Y-105982302D01*
X119839269Y-105982301D01*
X119835236Y-105981499D01*
X119831131Y-105981230D01*
X119831124Y-105981229D01*
X119534119Y-105961763D01*
X119530000Y-105961493D01*
X119525881Y-105961763D01*
X119228876Y-105981229D01*
X119228869Y-105981230D01*
X119224764Y-105981499D01*
X119220731Y-105982301D01*
X119220725Y-105982302D01*
X118928800Y-106040370D01*
X118928794Y-106040372D01*
X118924750Y-106041176D01*
X118920841Y-106042503D01*
X118920837Y-106042504D01*
X118639007Y-106138172D01*
X118635092Y-106139501D01*
X118631396Y-106141324D01*
X118631388Y-106141327D01*
X118410816Y-106250103D01*
X118360747Y-106274794D01*
X118106407Y-106444738D01*
X118103313Y-106447452D01*
X118103307Y-106447456D01*
X117879515Y-106643717D01*
X117876426Y-106646426D01*
X117873717Y-106649515D01*
X117677456Y-106873307D01*
X117677452Y-106873313D01*
X117674738Y-106876407D01*
X117504794Y-107130747D01*
X117502968Y-107134450D01*
X117371327Y-107401388D01*
X117371324Y-107401396D01*
X117369501Y-107405092D01*
X117271176Y-107694750D01*
X117211499Y-107994764D01*
X117191493Y-108300000D01*
X114798507Y-108300000D01*
X114778501Y-107994764D01*
X114718824Y-107694750D01*
X114620499Y-107405092D01*
X114618676Y-107401396D01*
X114618673Y-107401388D01*
X114487032Y-107134450D01*
X114485206Y-107130747D01*
X114315262Y-106876407D01*
X114312548Y-106873313D01*
X114312544Y-106873307D01*
X114116283Y-106649515D01*
X114113574Y-106646426D01*
X114110485Y-106643717D01*
X113886693Y-106447456D01*
X113886687Y-106447452D01*
X113883593Y-106444738D01*
X113880163Y-106442446D01*
X113880162Y-106442445D01*
X113632689Y-106277089D01*
X113632687Y-106277088D01*
X113629254Y-106274794D01*
X113580747Y-106250873D01*
X113358612Y-106141327D01*
X113358604Y-106141324D01*
X113354908Y-106139501D01*
X113350993Y-106138172D01*
X113069163Y-106042504D01*
X113069159Y-106042503D01*
X113065250Y-106041176D01*
X113061206Y-106040372D01*
X113061200Y-106040370D01*
X112769275Y-105982302D01*
X112769269Y-105982301D01*
X112765236Y-105981499D01*
X112761131Y-105981230D01*
X112761124Y-105981229D01*
X112464119Y-105961763D01*
X112460000Y-105961493D01*
X112455881Y-105961763D01*
X112158876Y-105981229D01*
X112158869Y-105981230D01*
X112154764Y-105981499D01*
X112150731Y-105982301D01*
X112150725Y-105982302D01*
X111858800Y-106040370D01*
X111858794Y-106040372D01*
X111854750Y-106041176D01*
X111850841Y-106042503D01*
X111850837Y-106042504D01*
X111569007Y-106138172D01*
X111565092Y-106139501D01*
X111561396Y-106141324D01*
X111561388Y-106141327D01*
X111340816Y-106250103D01*
X111290747Y-106274794D01*
X111036407Y-106444738D01*
X111033313Y-106447452D01*
X111033307Y-106447456D01*
X110809515Y-106643717D01*
X110806426Y-106646426D01*
X110803717Y-106649515D01*
X110607456Y-106873307D01*
X110607452Y-106873313D01*
X110604738Y-106876407D01*
X110434794Y-107130747D01*
X110432968Y-107134450D01*
X110301327Y-107401388D01*
X110301324Y-107401396D01*
X110299501Y-107405092D01*
X110201176Y-107694750D01*
X110141499Y-107994764D01*
X110121493Y-108300000D01*
X103368507Y-108300000D01*
X103348501Y-107994764D01*
X103288824Y-107694750D01*
X103190499Y-107405092D01*
X103188676Y-107401396D01*
X103188673Y-107401388D01*
X103057032Y-107134450D01*
X103055206Y-107130747D01*
X102885262Y-106876407D01*
X102882548Y-106873313D01*
X102882544Y-106873307D01*
X102686283Y-106649515D01*
X102683574Y-106646426D01*
X102680485Y-106643717D01*
X102456693Y-106447456D01*
X102456687Y-106447452D01*
X102453593Y-106444738D01*
X102450163Y-106442446D01*
X102450162Y-106442445D01*
X102202689Y-106277089D01*
X102202687Y-106277088D01*
X102199254Y-106274794D01*
X102150747Y-106250873D01*
X101928612Y-106141327D01*
X101928604Y-106141324D01*
X101924908Y-106139501D01*
X101920993Y-106138172D01*
X101639163Y-106042504D01*
X101639159Y-106042503D01*
X101635250Y-106041176D01*
X101631206Y-106040372D01*
X101631200Y-106040370D01*
X101339275Y-105982302D01*
X101339269Y-105982301D01*
X101335236Y-105981499D01*
X101331131Y-105981230D01*
X101331124Y-105981229D01*
X101034119Y-105961763D01*
X101030000Y-105961493D01*
X101025881Y-105961763D01*
X100728876Y-105981229D01*
X100728869Y-105981230D01*
X100724764Y-105981499D01*
X100720731Y-105982301D01*
X100720725Y-105982302D01*
X100428800Y-106040370D01*
X100428794Y-106040372D01*
X100424750Y-106041176D01*
X100420841Y-106042503D01*
X100420837Y-106042504D01*
X100139007Y-106138172D01*
X100135092Y-106139501D01*
X100131396Y-106141324D01*
X100131388Y-106141327D01*
X99910816Y-106250103D01*
X99860747Y-106274794D01*
X99606407Y-106444738D01*
X99603313Y-106447452D01*
X99603307Y-106447456D01*
X99379515Y-106643717D01*
X99376426Y-106646426D01*
X99373717Y-106649515D01*
X99177456Y-106873307D01*
X99177452Y-106873313D01*
X99174738Y-106876407D01*
X99004794Y-107130747D01*
X99002968Y-107134450D01*
X98871327Y-107401388D01*
X98871324Y-107401396D01*
X98869501Y-107405092D01*
X98771176Y-107694750D01*
X98711499Y-107994764D01*
X98691493Y-108300000D01*
X96508500Y-108300000D01*
X96508500Y-68303156D01*
X96528502Y-68235035D01*
X96582158Y-68188542D01*
X96652432Y-68178438D01*
X96717012Y-68207932D01*
X96751243Y-68255752D01*
X96770492Y-68303156D01*
X96783266Y-68334616D01*
X96820034Y-68394616D01*
X96884649Y-68500058D01*
X96899987Y-68525088D01*
X97046250Y-68693938D01*
X97141851Y-68773307D01*
X97199506Y-68821173D01*
X97218126Y-68836632D01*
X97411000Y-68949338D01*
X97415825Y-68951180D01*
X97415826Y-68951181D01*
X97597307Y-69020482D01*
X97653810Y-69063470D01*
X97678103Y-69130181D01*
X97662473Y-69199435D01*
X97641453Y-69227287D01*
X97492395Y-69376345D01*
X97483615Y-69384335D01*
X97483613Y-69384337D01*
X97476920Y-69388584D01*
X97471494Y-69394362D01*
X97471493Y-69394363D01*
X97428396Y-69440257D01*
X97425641Y-69443099D01*
X97405073Y-69463667D01*
X97402356Y-69467170D01*
X97394648Y-69476195D01*
X97363028Y-69509867D01*
X97359207Y-69516818D01*
X97359206Y-69516819D01*
X97352697Y-69528658D01*
X97341843Y-69545182D01*
X97334018Y-69555271D01*
X97328696Y-69562132D01*
X97325549Y-69569404D01*
X97325548Y-69569406D01*
X97310346Y-69604535D01*
X97305124Y-69615195D01*
X97282876Y-69655663D01*
X97277541Y-69676441D01*
X97271142Y-69695131D01*
X97262620Y-69714824D01*
X97261380Y-69722655D01*
X97255394Y-69760448D01*
X97252987Y-69772071D01*
X97241500Y-69816812D01*
X97241500Y-69838259D01*
X97239949Y-69857969D01*
X97236594Y-69879152D01*
X97238459Y-69898876D01*
X97240941Y-69925138D01*
X97241500Y-69936996D01*
X97241500Y-74417944D01*
X97240941Y-74429800D01*
X97239212Y-74437537D01*
X97239461Y-74445459D01*
X97241438Y-74508369D01*
X97241500Y-74512327D01*
X97241500Y-74541432D01*
X97242056Y-74545832D01*
X97242988Y-74557664D01*
X97244438Y-74603831D01*
X97246650Y-74611444D01*
X97246650Y-74611445D01*
X97250419Y-74624416D01*
X97254430Y-74643782D01*
X97257118Y-74665064D01*
X97260034Y-74672429D01*
X97260035Y-74672433D01*
X97274126Y-74708021D01*
X97277965Y-74719231D01*
X97290855Y-74763600D01*
X97301775Y-74782065D01*
X97310466Y-74799805D01*
X97318365Y-74819756D01*
X97345516Y-74857126D01*
X97352033Y-74867048D01*
X97371507Y-74899977D01*
X97371510Y-74899981D01*
X97375547Y-74906807D01*
X97390711Y-74921971D01*
X97403551Y-74937004D01*
X97416159Y-74954357D01*
X97451752Y-74983802D01*
X97460532Y-74991792D01*
X101604595Y-79135855D01*
X101638621Y-79198167D01*
X101641500Y-79224950D01*
X101641500Y-81565500D01*
X101621498Y-81633621D01*
X101567842Y-81680114D01*
X101515500Y-81691500D01*
X101501866Y-81691500D01*
X101439684Y-81698255D01*
X101303295Y-81749385D01*
X101186739Y-81836739D01*
X101099385Y-81953295D01*
X101048255Y-82089684D01*
X101041500Y-82151866D01*
X101041500Y-83125050D01*
X101021498Y-83193171D01*
X101004595Y-83214145D01*
X97292395Y-86926345D01*
X97283615Y-86934335D01*
X97283613Y-86934337D01*
X97276920Y-86938584D01*
X97271494Y-86944362D01*
X97271493Y-86944363D01*
X97228396Y-86990257D01*
X97225641Y-86993099D01*
X97205073Y-87013667D01*
X97202356Y-87017170D01*
X97194648Y-87026195D01*
X97163028Y-87059867D01*
X97159207Y-87066818D01*
X97159206Y-87066819D01*
X97152697Y-87078658D01*
X97141843Y-87095182D01*
X97134936Y-87104087D01*
X97128696Y-87112132D01*
X97125549Y-87119404D01*
X97125548Y-87119406D01*
X97110346Y-87154535D01*
X97105124Y-87165195D01*
X97082876Y-87205663D01*
X97077541Y-87226441D01*
X97071142Y-87245131D01*
X97062620Y-87264824D01*
X97059260Y-87286037D01*
X97055394Y-87310448D01*
X97052987Y-87322071D01*
X97041500Y-87366812D01*
X97041500Y-87388259D01*
X97039949Y-87407969D01*
X97036594Y-87429152D01*
X97037340Y-87437043D01*
X97040941Y-87475138D01*
X97041500Y-87486996D01*
X97041500Y-97467944D01*
X97040941Y-97479800D01*
X97039212Y-97487537D01*
X97039461Y-97495459D01*
X97041438Y-97558369D01*
X97041500Y-97562327D01*
X97041500Y-97591432D01*
X97042056Y-97595832D01*
X97042988Y-97607664D01*
X97044438Y-97653831D01*
X97046650Y-97661444D01*
X97046650Y-97661445D01*
X97050419Y-97674416D01*
X97054430Y-97693782D01*
X97057118Y-97715064D01*
X97060034Y-97722429D01*
X97060035Y-97722433D01*
X97074126Y-97758021D01*
X97077965Y-97769231D01*
X97090855Y-97813600D01*
X97101775Y-97832065D01*
X97110466Y-97849805D01*
X97118365Y-97869756D01*
X97145516Y-97907126D01*
X97152033Y-97917048D01*
X97171507Y-97949977D01*
X97171510Y-97949981D01*
X97175547Y-97956807D01*
X97190711Y-97971971D01*
X97203551Y-97987004D01*
X97216159Y-98004357D01*
X97251752Y-98033802D01*
X97260532Y-98041792D01*
X101004595Y-101785855D01*
X101038621Y-101848167D01*
X101041500Y-101874950D01*
X101041500Y-102748134D01*
X101048255Y-102810316D01*
X101099385Y-102946705D01*
X101186739Y-103063261D01*
X101303295Y-103150615D01*
X101439684Y-103201745D01*
X101501866Y-103208500D01*
X103098134Y-103208500D01*
X103160316Y-103201745D01*
X103296705Y-103150615D01*
X103413261Y-103063261D01*
X103500615Y-102946705D01*
X103551745Y-102810316D01*
X103558500Y-102748134D01*
X103558500Y-102713576D01*
X103578502Y-102645455D01*
X103632158Y-102598962D01*
X103702432Y-102588858D01*
X103767012Y-102618352D01*
X103787713Y-102641305D01*
X103860123Y-102744717D01*
X103872251Y-102762038D01*
X104027962Y-102917749D01*
X104208346Y-103044056D01*
X104407924Y-103137120D01*
X104620629Y-103194115D01*
X104840000Y-103213307D01*
X105059371Y-103194115D01*
X105272076Y-103137120D01*
X105471654Y-103044056D01*
X105652038Y-102917749D01*
X105807749Y-102762038D01*
X105819878Y-102744717D01*
X105930899Y-102586162D01*
X105930900Y-102586160D01*
X105934056Y-102581653D01*
X105936379Y-102576671D01*
X105936382Y-102576666D01*
X105995805Y-102449231D01*
X106042722Y-102395946D01*
X106110999Y-102376485D01*
X106178959Y-102397027D01*
X106224195Y-102449231D01*
X106283618Y-102576666D01*
X106283621Y-102576671D01*
X106285944Y-102581653D01*
X106289100Y-102586160D01*
X106289101Y-102586162D01*
X106400123Y-102744717D01*
X106412251Y-102762038D01*
X106567962Y-102917749D01*
X106748346Y-103044056D01*
X106947924Y-103137120D01*
X107160629Y-103194115D01*
X107380000Y-103213307D01*
X107599371Y-103194115D01*
X107812076Y-103137120D01*
X108011654Y-103044056D01*
X108192038Y-102917749D01*
X108347749Y-102762038D01*
X108359878Y-102744717D01*
X108470899Y-102586162D01*
X108470900Y-102586160D01*
X108474056Y-102581653D01*
X108476379Y-102576671D01*
X108476382Y-102576666D01*
X108535805Y-102449231D01*
X108582722Y-102395946D01*
X108650999Y-102376485D01*
X108718959Y-102397027D01*
X108764195Y-102449231D01*
X108823618Y-102576666D01*
X108823621Y-102576671D01*
X108825944Y-102581653D01*
X108829100Y-102586160D01*
X108829101Y-102586162D01*
X108940123Y-102744717D01*
X108952251Y-102762038D01*
X109107962Y-102917749D01*
X109288346Y-103044056D01*
X109487924Y-103137120D01*
X109700629Y-103194115D01*
X109920000Y-103213307D01*
X110139371Y-103194115D01*
X110352076Y-103137120D01*
X110551654Y-103044056D01*
X110732038Y-102917749D01*
X110887749Y-102762038D01*
X110899878Y-102744717D01*
X111010899Y-102586162D01*
X111010900Y-102586160D01*
X111014056Y-102581653D01*
X111016379Y-102576671D01*
X111016382Y-102576666D01*
X111104795Y-102387061D01*
X111107120Y-102382076D01*
X111164115Y-102169371D01*
X111183307Y-101950000D01*
X111164115Y-101730629D01*
X111107120Y-101517924D01*
X111063585Y-101424562D01*
X111016382Y-101323334D01*
X111016379Y-101323329D01*
X111014056Y-101318347D01*
X111003326Y-101303023D01*
X110890908Y-101142473D01*
X110890906Y-101142470D01*
X110887749Y-101137962D01*
X110732038Y-100982251D01*
X110727530Y-100979094D01*
X110727527Y-100979092D01*
X110622112Y-100905280D01*
X110607228Y-100894858D01*
X110562901Y-100839402D01*
X110553500Y-100791646D01*
X110553500Y-100699576D01*
X110573502Y-100631455D01*
X110627158Y-100584962D01*
X110697432Y-100574858D01*
X110732751Y-100585382D01*
X110752934Y-100594794D01*
X110752942Y-100594797D01*
X110757924Y-100597120D01*
X110970629Y-100654115D01*
X111190000Y-100673307D01*
X111409371Y-100654115D01*
X111622076Y-100597120D01*
X111821654Y-100504056D01*
X112002038Y-100377749D01*
X112157749Y-100222038D01*
X112284056Y-100041653D01*
X112286379Y-100036671D01*
X112286382Y-100036666D01*
X112374795Y-99847061D01*
X112377120Y-99842076D01*
X112434115Y-99629371D01*
X112453307Y-99410000D01*
X112434115Y-99190629D01*
X112432692Y-99185319D01*
X112432691Y-99185312D01*
X112425716Y-99159281D01*
X112427406Y-99088304D01*
X112458328Y-99037576D01*
X115592247Y-95903657D01*
X115600537Y-95896113D01*
X115607018Y-95892000D01*
X115653659Y-95842332D01*
X115656413Y-95839491D01*
X115676134Y-95819770D01*
X115678612Y-95816575D01*
X115686318Y-95807553D01*
X115711158Y-95781101D01*
X115716586Y-95775321D01*
X115726346Y-95757568D01*
X115737199Y-95741045D01*
X115744753Y-95731306D01*
X115749613Y-95725041D01*
X115767176Y-95684457D01*
X115772383Y-95673827D01*
X115793695Y-95635060D01*
X115795666Y-95627383D01*
X115795668Y-95627378D01*
X115798732Y-95615442D01*
X115805138Y-95596730D01*
X115810034Y-95585417D01*
X115813181Y-95578145D01*
X115820097Y-95534481D01*
X115822504Y-95522860D01*
X115831528Y-95487711D01*
X115831528Y-95487710D01*
X115833500Y-95480030D01*
X115833500Y-95459769D01*
X115835051Y-95440058D01*
X115836979Y-95427885D01*
X115838219Y-95420057D01*
X115834059Y-95376046D01*
X115833500Y-95364189D01*
X115833500Y-84498763D01*
X115834027Y-84487579D01*
X115835701Y-84480091D01*
X115833562Y-84412032D01*
X115833500Y-84408075D01*
X115833500Y-84380144D01*
X115832994Y-84376138D01*
X115832061Y-84364292D01*
X115830922Y-84328037D01*
X115830673Y-84320110D01*
X115825022Y-84300658D01*
X115821014Y-84281306D01*
X115819468Y-84269068D01*
X115819467Y-84269066D01*
X115818474Y-84261203D01*
X115802194Y-84220086D01*
X115798359Y-84208885D01*
X115786018Y-84166406D01*
X115781985Y-84159587D01*
X115781983Y-84159582D01*
X115775707Y-84148971D01*
X115767010Y-84131221D01*
X115759552Y-84112383D01*
X115733571Y-84076623D01*
X115727053Y-84066701D01*
X115708578Y-84035460D01*
X115708574Y-84035455D01*
X115704542Y-84028637D01*
X115690218Y-84014313D01*
X115677376Y-83999278D01*
X115665472Y-83982893D01*
X115631406Y-83954711D01*
X115622627Y-83946722D01*
X112458328Y-80782423D01*
X112424302Y-80720111D01*
X112425716Y-80660717D01*
X112432691Y-80634685D01*
X112432692Y-80634681D01*
X112434115Y-80629371D01*
X112453307Y-80410000D01*
X112434115Y-80190629D01*
X112425716Y-80159283D01*
X112427406Y-80088306D01*
X112458328Y-80037577D01*
X115492253Y-77003652D01*
X115500539Y-76996112D01*
X115507018Y-76992000D01*
X115553644Y-76942348D01*
X115556398Y-76939507D01*
X115576135Y-76919770D01*
X115578615Y-76916573D01*
X115586320Y-76907551D01*
X115611159Y-76881100D01*
X115616586Y-76875321D01*
X115620405Y-76868375D01*
X115620407Y-76868372D01*
X115626348Y-76857566D01*
X115637199Y-76841047D01*
X115644758Y-76831301D01*
X115649614Y-76825041D01*
X115652759Y-76817772D01*
X115652762Y-76817768D01*
X115667174Y-76784463D01*
X115672391Y-76773813D01*
X115693695Y-76735060D01*
X115698733Y-76715437D01*
X115705137Y-76696734D01*
X115710033Y-76685420D01*
X115710033Y-76685419D01*
X115713181Y-76678145D01*
X115714420Y-76670322D01*
X115714423Y-76670312D01*
X115720099Y-76634476D01*
X115722505Y-76622856D01*
X115731528Y-76587711D01*
X115731528Y-76587710D01*
X115733500Y-76580030D01*
X115733500Y-76559776D01*
X115735051Y-76540065D01*
X115736980Y-76527886D01*
X115738220Y-76520057D01*
X115734059Y-76476038D01*
X115733500Y-76464181D01*
X115733500Y-65298767D01*
X115734027Y-65287584D01*
X115735702Y-65280091D01*
X115733562Y-65212014D01*
X115733500Y-65208055D01*
X115733500Y-65180144D01*
X115732995Y-65176144D01*
X115732062Y-65164301D01*
X115730922Y-65128030D01*
X115730673Y-65120111D01*
X115725021Y-65100657D01*
X115721013Y-65081300D01*
X115719468Y-65069070D01*
X115719468Y-65069069D01*
X115718474Y-65061203D01*
X115715555Y-65053830D01*
X115702196Y-65020088D01*
X115698351Y-65008858D01*
X115688229Y-64974017D01*
X115688229Y-64974016D01*
X115686018Y-64966407D01*
X115681985Y-64959588D01*
X115681983Y-64959583D01*
X115675707Y-64948972D01*
X115667012Y-64931224D01*
X115659552Y-64912383D01*
X115654291Y-64905141D01*
X115633564Y-64876613D01*
X115627048Y-64866693D01*
X115608580Y-64835465D01*
X115608578Y-64835462D01*
X115604542Y-64828638D01*
X115590221Y-64814317D01*
X115577380Y-64799283D01*
X115570131Y-64789306D01*
X115565472Y-64782893D01*
X115531395Y-64754702D01*
X115522616Y-64746712D01*
X112458328Y-61682423D01*
X112424302Y-61620111D01*
X112425716Y-61560717D01*
X112432691Y-61534685D01*
X112432692Y-61534681D01*
X112434115Y-61529371D01*
X112453307Y-61310000D01*
X112434115Y-61090629D01*
X112377120Y-60877924D01*
X112318407Y-60752013D01*
X112286382Y-60683334D01*
X112286379Y-60683329D01*
X112284056Y-60678347D01*
X112274955Y-60665349D01*
X112160908Y-60502473D01*
X112160906Y-60502470D01*
X112157749Y-60497962D01*
X112002038Y-60342251D01*
X111821654Y-60215944D01*
X111622076Y-60122880D01*
X111616762Y-60121456D01*
X111559853Y-60106207D01*
X111499230Y-60069255D01*
X111468209Y-60005394D01*
X111476637Y-59934900D01*
X111521840Y-59880153D01*
X111592464Y-59858500D01*
X116947944Y-59858500D01*
X116959800Y-59859059D01*
X116959803Y-59859059D01*
X116967537Y-59860788D01*
X117038369Y-59858562D01*
X117042327Y-59858500D01*
X117071432Y-59858500D01*
X117075832Y-59857944D01*
X117087664Y-59857012D01*
X117133831Y-59855562D01*
X117154421Y-59849580D01*
X117173782Y-59845570D01*
X117181701Y-59844570D01*
X117187204Y-59843875D01*
X117187205Y-59843875D01*
X117195064Y-59842882D01*
X117202429Y-59839966D01*
X117202433Y-59839965D01*
X117238021Y-59825874D01*
X117249231Y-59822035D01*
X117293600Y-59809145D01*
X117312065Y-59798225D01*
X117329805Y-59789534D01*
X117349756Y-59781635D01*
X117387129Y-59754482D01*
X117397048Y-59747967D01*
X117429977Y-59728493D01*
X117429981Y-59728490D01*
X117436807Y-59724453D01*
X117451971Y-59709289D01*
X117467005Y-59696448D01*
X117477943Y-59688501D01*
X117484357Y-59683841D01*
X117513803Y-59648247D01*
X117521792Y-59639468D01*
X121876905Y-55284355D01*
X121939217Y-55250329D01*
X122010032Y-55255394D01*
X122066868Y-55297941D01*
X122091679Y-55364461D01*
X122092000Y-55373450D01*
X122092001Y-56214669D01*
X122092371Y-56221490D01*
X122097895Y-56272352D01*
X122101521Y-56287604D01*
X122146676Y-56408054D01*
X122155214Y-56423649D01*
X122231715Y-56525724D01*
X122244276Y-56538285D01*
X122346351Y-56614786D01*
X122361946Y-56623324D01*
X122482394Y-56668478D01*
X122497649Y-56672105D01*
X122548514Y-56677631D01*
X122555328Y-56678000D01*
X123227885Y-56678000D01*
X123243124Y-56673525D01*
X123244329Y-56672135D01*
X123246000Y-56664452D01*
X123246000Y-56659884D01*
X123754000Y-56659884D01*
X123758475Y-56675123D01*
X123759865Y-56676328D01*
X123767548Y-56677999D01*
X124444669Y-56677999D01*
X124451490Y-56677629D01*
X124502352Y-56672105D01*
X124517604Y-56668479D01*
X124638054Y-56623324D01*
X124653649Y-56614786D01*
X124755724Y-56538285D01*
X124768285Y-56525724D01*
X124844786Y-56423649D01*
X124853324Y-56408054D01*
X124898478Y-56287606D01*
X124902105Y-56272351D01*
X124907631Y-56221486D01*
X124908000Y-56214672D01*
X124908000Y-55542115D01*
X124903525Y-55526876D01*
X124902135Y-55525671D01*
X124894452Y-55524000D01*
X123772115Y-55524000D01*
X123756876Y-55528475D01*
X123755671Y-55529865D01*
X123754000Y-55537548D01*
X123754000Y-56659884D01*
X123246000Y-56659884D01*
X123246000Y-55142000D01*
X123266002Y-55073879D01*
X123319658Y-55027386D01*
X123372000Y-55016000D01*
X124889884Y-55016000D01*
X124905123Y-55011525D01*
X124906328Y-55010135D01*
X124907999Y-55002452D01*
X124907999Y-54532703D01*
X126890743Y-54532703D01*
X126891302Y-54536947D01*
X126891302Y-54536951D01*
X126898627Y-54592586D01*
X126928268Y-54817734D01*
X127004129Y-55095036D01*
X127005813Y-55098984D01*
X127070368Y-55250329D01*
X127116923Y-55359476D01*
X127128693Y-55379142D01*
X127239267Y-55563897D01*
X127264561Y-55606161D01*
X127444313Y-55830528D01*
X127652851Y-56028423D01*
X127886317Y-56196186D01*
X127890112Y-56198195D01*
X127890113Y-56198196D01*
X127911869Y-56209715D01*
X128140392Y-56330712D01*
X128229599Y-56363357D01*
X128396948Y-56424598D01*
X128410373Y-56429511D01*
X128691264Y-56490755D01*
X128719841Y-56493004D01*
X128914282Y-56508307D01*
X128914291Y-56508307D01*
X128916739Y-56508500D01*
X129072271Y-56508500D01*
X129074407Y-56508354D01*
X129074418Y-56508354D01*
X129282548Y-56494165D01*
X129282554Y-56494164D01*
X129286825Y-56493873D01*
X129291020Y-56493004D01*
X129291022Y-56493004D01*
X129441715Y-56461797D01*
X129568342Y-56435574D01*
X129839343Y-56339607D01*
X129969648Y-56272352D01*
X130091005Y-56209715D01*
X130091006Y-56209715D01*
X130094812Y-56207750D01*
X130098313Y-56205289D01*
X130098317Y-56205287D01*
X130217999Y-56121173D01*
X130330023Y-56042441D01*
X130540622Y-55846740D01*
X130722713Y-55624268D01*
X130872927Y-55379142D01*
X130988483Y-55115898D01*
X130994283Y-55095539D01*
X131066068Y-54843534D01*
X131067244Y-54839406D01*
X131106228Y-54565483D01*
X131107146Y-54559036D01*
X131107146Y-54559034D01*
X131107751Y-54554784D01*
X131107818Y-54542135D01*
X131109235Y-54271583D01*
X131109235Y-54271576D01*
X131109257Y-54267297D01*
X131107325Y-54252617D01*
X131085503Y-54086870D01*
X131071732Y-53982266D01*
X130995871Y-53704964D01*
X130980385Y-53668658D01*
X130884763Y-53444476D01*
X130884761Y-53444472D01*
X130883077Y-53440524D01*
X130773138Y-53256829D01*
X130737643Y-53197521D01*
X130737640Y-53197517D01*
X130735439Y-53193839D01*
X130555687Y-52969472D01*
X130392722Y-52814824D01*
X130350258Y-52774527D01*
X130350255Y-52774525D01*
X130347149Y-52771577D01*
X130113683Y-52603814D01*
X130091843Y-52592250D01*
X130053344Y-52571866D01*
X129859608Y-52469288D01*
X129724617Y-52419888D01*
X129593658Y-52371964D01*
X129593656Y-52371963D01*
X129589627Y-52370489D01*
X129308736Y-52309245D01*
X129277685Y-52306801D01*
X129085718Y-52291693D01*
X129085709Y-52291693D01*
X129083261Y-52291500D01*
X128927729Y-52291500D01*
X128925593Y-52291646D01*
X128925582Y-52291646D01*
X128717452Y-52305835D01*
X128717446Y-52305836D01*
X128713175Y-52306127D01*
X128708980Y-52306996D01*
X128708978Y-52306996D01*
X128572416Y-52335277D01*
X128431658Y-52364426D01*
X128160657Y-52460393D01*
X127905188Y-52592250D01*
X127901687Y-52594711D01*
X127901683Y-52594713D01*
X127805756Y-52662132D01*
X127669977Y-52757559D01*
X127654892Y-52771577D01*
X127476759Y-52937109D01*
X127459378Y-52953260D01*
X127277287Y-53175732D01*
X127127073Y-53420858D01*
X127011517Y-53684102D01*
X127010342Y-53688229D01*
X127010341Y-53688230D01*
X126989719Y-53760625D01*
X126932756Y-53960594D01*
X126892249Y-54245216D01*
X126892227Y-54249505D01*
X126892226Y-54249512D01*
X126890973Y-54488768D01*
X126890743Y-54532703D01*
X124907999Y-54532703D01*
X124907999Y-54325331D01*
X124907629Y-54318510D01*
X124902105Y-54267648D01*
X124898479Y-54252396D01*
X124853324Y-54131946D01*
X124844786Y-54116351D01*
X124768285Y-54014276D01*
X124755724Y-54001715D01*
X124653649Y-53925214D01*
X124638052Y-53916675D01*
X124579415Y-53894693D01*
X124522650Y-53852052D01*
X124497950Y-53785490D01*
X124513157Y-53716141D01*
X124534703Y-53687461D01*
X124565451Y-53656819D01*
X124576303Y-53646005D01*
X124711458Y-53457917D01*
X124715536Y-53449667D01*
X124811784Y-53254922D01*
X124811785Y-53254920D01*
X124814078Y-53250280D01*
X124881408Y-53028671D01*
X124911640Y-52799041D01*
X124913327Y-52730000D01*
X124902953Y-52603814D01*
X124894773Y-52504318D01*
X124894772Y-52504312D01*
X124894349Y-52499167D01*
X124860864Y-52365856D01*
X124839184Y-52279544D01*
X124839183Y-52279540D01*
X124837925Y-52274533D01*
X124832796Y-52262737D01*
X124747630Y-52066868D01*
X124747628Y-52066865D01*
X124745570Y-52062131D01*
X124619764Y-51867665D01*
X124463887Y-51696358D01*
X124459836Y-51693159D01*
X124459832Y-51693155D01*
X124286177Y-51556011D01*
X124286172Y-51556008D01*
X124282123Y-51552810D01*
X124277607Y-51550317D01*
X124277604Y-51550315D01*
X124083879Y-51443373D01*
X124083875Y-51443371D01*
X124079355Y-51440876D01*
X124074486Y-51439152D01*
X124074482Y-51439150D01*
X123973168Y-51403273D01*
X123915632Y-51361679D01*
X123889716Y-51295581D01*
X123903650Y-51225965D01*
X123953009Y-51174934D01*
X124015228Y-51158500D01*
X132682671Y-51158500D01*
X132750792Y-51178502D01*
G37*
G04 #@! TD.AperFunction*
G04 #@! TA.AperFunction,Conductor*
G36*
X106713171Y-51878502D02*
G01*
X106734145Y-51895405D01*
X107101477Y-52262737D01*
X107135503Y-52325049D01*
X107133800Y-52385502D01*
X107111707Y-52465169D01*
X107111159Y-52470301D01*
X107111158Y-52470304D01*
X107108609Y-52494156D01*
X107087095Y-52695469D01*
X107087392Y-52700622D01*
X107087392Y-52700625D01*
X107093067Y-52799041D01*
X107100427Y-52926697D01*
X107101564Y-52931743D01*
X107101565Y-52931749D01*
X107126369Y-53041811D01*
X107151346Y-53152642D01*
X107153288Y-53157424D01*
X107153289Y-53157428D01*
X107193652Y-53256829D01*
X107238484Y-53367237D01*
X107359501Y-53564719D01*
X107362882Y-53568622D01*
X107471653Y-53694191D01*
X107501135Y-53758776D01*
X107491020Y-53829049D01*
X107444519Y-53882697D01*
X107420646Y-53894670D01*
X107361944Y-53916677D01*
X107346351Y-53925214D01*
X107244276Y-54001715D01*
X107231715Y-54014276D01*
X107155214Y-54116351D01*
X107146676Y-54131946D01*
X107101522Y-54252394D01*
X107097895Y-54267649D01*
X107092369Y-54318514D01*
X107092000Y-54325328D01*
X107092000Y-54997885D01*
X107096475Y-55013124D01*
X107097865Y-55014329D01*
X107105548Y-55016000D01*
X108628000Y-55016000D01*
X108696121Y-55036002D01*
X108742614Y-55089658D01*
X108754000Y-55142000D01*
X108754000Y-55398000D01*
X108733998Y-55466121D01*
X108680342Y-55512614D01*
X108628000Y-55524000D01*
X107110116Y-55524000D01*
X107094877Y-55528475D01*
X107093672Y-55529865D01*
X107092001Y-55537548D01*
X107092001Y-56214669D01*
X107092371Y-56221490D01*
X107097895Y-56272352D01*
X107101521Y-56287604D01*
X107146676Y-56408054D01*
X107155214Y-56423649D01*
X107231715Y-56525724D01*
X107244276Y-56538285D01*
X107346351Y-56614786D01*
X107361946Y-56623324D01*
X107482394Y-56668478D01*
X107497649Y-56672105D01*
X107548514Y-56677631D01*
X107555328Y-56678000D01*
X108316551Y-56677999D01*
X108384672Y-56698001D01*
X108431165Y-56751657D01*
X108441269Y-56821931D01*
X108411776Y-56886511D01*
X108405646Y-56893094D01*
X108394145Y-56904595D01*
X108331833Y-56938621D01*
X108305050Y-56941500D01*
X103122056Y-56941500D01*
X103110200Y-56940941D01*
X103110197Y-56940941D01*
X103102463Y-56939212D01*
X103047446Y-56940941D01*
X103031631Y-56941438D01*
X103027673Y-56941500D01*
X102998568Y-56941500D01*
X102994168Y-56942056D01*
X102982336Y-56942988D01*
X102936169Y-56944438D01*
X102915579Y-56950420D01*
X102896218Y-56954430D01*
X102889230Y-56955312D01*
X102882796Y-56956125D01*
X102882795Y-56956125D01*
X102874936Y-56957118D01*
X102867571Y-56960034D01*
X102867567Y-56960035D01*
X102831979Y-56974126D01*
X102820769Y-56977965D01*
X102776400Y-56990855D01*
X102757943Y-57001771D01*
X102740193Y-57010466D01*
X102720244Y-57018365D01*
X102713833Y-57023023D01*
X102713831Y-57023024D01*
X102682864Y-57045523D01*
X102672946Y-57052038D01*
X102633193Y-57075548D01*
X102618032Y-57090709D01*
X102603000Y-57103548D01*
X102585643Y-57116159D01*
X102564679Y-57141500D01*
X102556193Y-57151758D01*
X102548203Y-57160538D01*
X99574191Y-60134550D01*
X99511879Y-60168576D01*
X99441064Y-60163511D01*
X99384228Y-60120964D01*
X99359520Y-60055779D01*
X99344852Y-59877361D01*
X99328272Y-59811354D01*
X99323919Y-59794022D01*
X99326723Y-59723081D01*
X99357028Y-59674232D01*
X100007605Y-59023655D01*
X100016385Y-59015665D01*
X100016387Y-59015663D01*
X100023080Y-59011416D01*
X100071605Y-58959742D01*
X100074359Y-58956901D01*
X100094927Y-58936333D01*
X100097647Y-58932826D01*
X100105353Y-58923804D01*
X100131544Y-58895913D01*
X100136972Y-58890133D01*
X100140794Y-58883181D01*
X100147303Y-58871342D01*
X100158157Y-58854818D01*
X100166445Y-58844132D01*
X100171304Y-58837868D01*
X100179649Y-58818584D01*
X100189654Y-58795465D01*
X100194876Y-58784805D01*
X100213305Y-58751284D01*
X100213306Y-58751282D01*
X100217124Y-58744337D01*
X100222459Y-58723559D01*
X100228858Y-58704869D01*
X100237380Y-58685176D01*
X100244606Y-58639552D01*
X100247013Y-58627929D01*
X100256528Y-58590868D01*
X100258500Y-58583188D01*
X100258500Y-58561741D01*
X100260051Y-58542031D01*
X100262166Y-58528677D01*
X100263406Y-58520848D01*
X100259059Y-58474859D01*
X100258500Y-58463004D01*
X100258500Y-54532703D01*
X100890743Y-54532703D01*
X100891302Y-54536947D01*
X100891302Y-54536951D01*
X100898627Y-54592586D01*
X100928268Y-54817734D01*
X101004129Y-55095036D01*
X101005813Y-55098984D01*
X101070368Y-55250329D01*
X101116923Y-55359476D01*
X101128693Y-55379142D01*
X101239267Y-55563897D01*
X101264561Y-55606161D01*
X101444313Y-55830528D01*
X101652851Y-56028423D01*
X101886317Y-56196186D01*
X101890112Y-56198195D01*
X101890113Y-56198196D01*
X101911869Y-56209715D01*
X102140392Y-56330712D01*
X102229599Y-56363357D01*
X102396948Y-56424598D01*
X102410373Y-56429511D01*
X102691264Y-56490755D01*
X102719841Y-56493004D01*
X102914282Y-56508307D01*
X102914291Y-56508307D01*
X102916739Y-56508500D01*
X103072271Y-56508500D01*
X103074407Y-56508354D01*
X103074418Y-56508354D01*
X103282548Y-56494165D01*
X103282554Y-56494164D01*
X103286825Y-56493873D01*
X103291020Y-56493004D01*
X103291022Y-56493004D01*
X103441715Y-56461797D01*
X103568342Y-56435574D01*
X103839343Y-56339607D01*
X103969648Y-56272352D01*
X104091005Y-56209715D01*
X104091006Y-56209715D01*
X104094812Y-56207750D01*
X104098313Y-56205289D01*
X104098317Y-56205287D01*
X104217999Y-56121173D01*
X104330023Y-56042441D01*
X104540622Y-55846740D01*
X104722713Y-55624268D01*
X104872927Y-55379142D01*
X104988483Y-55115898D01*
X104994283Y-55095539D01*
X105066068Y-54843534D01*
X105067244Y-54839406D01*
X105106228Y-54565483D01*
X105107146Y-54559036D01*
X105107146Y-54559034D01*
X105107751Y-54554784D01*
X105107818Y-54542135D01*
X105109235Y-54271583D01*
X105109235Y-54271576D01*
X105109257Y-54267297D01*
X105107325Y-54252617D01*
X105085503Y-54086870D01*
X105071732Y-53982266D01*
X104995871Y-53704964D01*
X104980385Y-53668658D01*
X104884763Y-53444476D01*
X104884761Y-53444472D01*
X104883077Y-53440524D01*
X104773138Y-53256829D01*
X104737643Y-53197521D01*
X104737640Y-53197517D01*
X104735439Y-53193839D01*
X104555687Y-52969472D01*
X104392722Y-52814824D01*
X104350258Y-52774527D01*
X104350255Y-52774525D01*
X104347149Y-52771577D01*
X104113683Y-52603814D01*
X104091843Y-52592250D01*
X104053344Y-52571866D01*
X103859608Y-52469288D01*
X103724617Y-52419888D01*
X103593658Y-52371964D01*
X103593656Y-52371963D01*
X103589627Y-52370489D01*
X103308736Y-52309245D01*
X103277685Y-52306801D01*
X103085718Y-52291693D01*
X103085709Y-52291693D01*
X103083261Y-52291500D01*
X102927729Y-52291500D01*
X102925593Y-52291646D01*
X102925582Y-52291646D01*
X102717452Y-52305835D01*
X102717446Y-52305836D01*
X102713175Y-52306127D01*
X102708980Y-52306996D01*
X102708978Y-52306996D01*
X102572416Y-52335277D01*
X102431658Y-52364426D01*
X102160657Y-52460393D01*
X101905188Y-52592250D01*
X101901687Y-52594711D01*
X101901683Y-52594713D01*
X101805756Y-52662132D01*
X101669977Y-52757559D01*
X101654892Y-52771577D01*
X101476759Y-52937109D01*
X101459378Y-52953260D01*
X101277287Y-53175732D01*
X101127073Y-53420858D01*
X101011517Y-53684102D01*
X101010342Y-53688229D01*
X101010341Y-53688230D01*
X100989719Y-53760625D01*
X100932756Y-53960594D01*
X100892249Y-54245216D01*
X100892227Y-54249505D01*
X100892226Y-54249512D01*
X100890973Y-54488768D01*
X100890743Y-54532703D01*
X100258500Y-54532703D01*
X100258500Y-53324950D01*
X100278502Y-53256829D01*
X100295405Y-53235855D01*
X101635854Y-51895405D01*
X101698166Y-51861380D01*
X101724949Y-51858500D01*
X106645050Y-51858500D01*
X106713171Y-51878502D01*
G37*
G04 #@! TD.AperFunction*
G04 #@! TA.AperFunction,Conductor*
G36*
X135433621Y-44528502D02*
G01*
X135480114Y-44582158D01*
X135491500Y-44634500D01*
X135491500Y-48779774D01*
X135471498Y-48847895D01*
X135417842Y-48894388D01*
X135347568Y-48904492D01*
X135282988Y-48874998D01*
X135264674Y-48855339D01*
X135218643Y-48793920D01*
X135218642Y-48793919D01*
X135213261Y-48786739D01*
X135096705Y-48699385D01*
X134960316Y-48648255D01*
X134898134Y-48641500D01*
X133101866Y-48641500D01*
X133039684Y-48648255D01*
X132903295Y-48699385D01*
X132786739Y-48786739D01*
X132699385Y-48903295D01*
X132648255Y-49039684D01*
X132641500Y-49101866D01*
X132641500Y-49715500D01*
X132621498Y-49783621D01*
X132567842Y-49830114D01*
X132515500Y-49841500D01*
X124782123Y-49841500D01*
X124714002Y-49821498D01*
X124667509Y-49767842D01*
X124657405Y-49697568D01*
X124679800Y-49641974D01*
X124708440Y-49602117D01*
X124711458Y-49597917D01*
X124757025Y-49505720D01*
X124811784Y-49394922D01*
X124811785Y-49394920D01*
X124814078Y-49390280D01*
X124881408Y-49168671D01*
X124911640Y-48939041D01*
X124912484Y-48904492D01*
X124913245Y-48873365D01*
X124913245Y-48873361D01*
X124913327Y-48870000D01*
X124898958Y-48695229D01*
X124894773Y-48644318D01*
X124894772Y-48644312D01*
X124894349Y-48639167D01*
X124858565Y-48496705D01*
X124839184Y-48419544D01*
X124839183Y-48419540D01*
X124837925Y-48414533D01*
X124835866Y-48409797D01*
X124747630Y-48206868D01*
X124747628Y-48206865D01*
X124745570Y-48202131D01*
X124619764Y-48007665D01*
X124529486Y-47908450D01*
X124498434Y-47844605D01*
X124506829Y-47774106D01*
X124552005Y-47719338D01*
X124578449Y-47705669D01*
X124638054Y-47683324D01*
X124653649Y-47674786D01*
X124755724Y-47598285D01*
X124768285Y-47585724D01*
X124844786Y-47483649D01*
X124853324Y-47468054D01*
X124898478Y-47347606D01*
X124902105Y-47332351D01*
X124907631Y-47281486D01*
X124908000Y-47274672D01*
X124908000Y-46602115D01*
X124903525Y-46586876D01*
X124902135Y-46585671D01*
X124894452Y-46584000D01*
X122110116Y-46584000D01*
X122094877Y-46588475D01*
X122093672Y-46589865D01*
X122092001Y-46597548D01*
X122092001Y-47274669D01*
X122092371Y-47281490D01*
X122097895Y-47332352D01*
X122101521Y-47347604D01*
X122146676Y-47468054D01*
X122155214Y-47483649D01*
X122231715Y-47585724D01*
X122244276Y-47598285D01*
X122346351Y-47674786D01*
X122361946Y-47683324D01*
X122421540Y-47705665D01*
X122478304Y-47748307D01*
X122503004Y-47814868D01*
X122487796Y-47884217D01*
X122468404Y-47910698D01*
X122401639Y-47980564D01*
X122398725Y-47984836D01*
X122398724Y-47984837D01*
X122383152Y-48007665D01*
X122271119Y-48171899D01*
X122173602Y-48381981D01*
X122111707Y-48605169D01*
X122087095Y-48835469D01*
X122087392Y-48840622D01*
X122087392Y-48840625D01*
X122099322Y-49047540D01*
X122100427Y-49066697D01*
X122101564Y-49071743D01*
X122101565Y-49071749D01*
X122124524Y-49173624D01*
X122151346Y-49292642D01*
X122153288Y-49297424D01*
X122153289Y-49297428D01*
X122220170Y-49462135D01*
X122238484Y-49507237D01*
X122321051Y-49641974D01*
X122325764Y-49649665D01*
X122344302Y-49718199D01*
X122322846Y-49785875D01*
X122268206Y-49831208D01*
X122218331Y-49841500D01*
X119782123Y-49841500D01*
X119714002Y-49821498D01*
X119667509Y-49767842D01*
X119657405Y-49697568D01*
X119679800Y-49641974D01*
X119708440Y-49602117D01*
X119711458Y-49597917D01*
X119757025Y-49505720D01*
X119811784Y-49394922D01*
X119811785Y-49394920D01*
X119814078Y-49390280D01*
X119881408Y-49168671D01*
X119911640Y-48939041D01*
X119912484Y-48904492D01*
X119913245Y-48873365D01*
X119913245Y-48873361D01*
X119913327Y-48870000D01*
X119898958Y-48695229D01*
X119894773Y-48644318D01*
X119894772Y-48644312D01*
X119894349Y-48639167D01*
X119858565Y-48496705D01*
X119839184Y-48419544D01*
X119839183Y-48419540D01*
X119837925Y-48414533D01*
X119835866Y-48409797D01*
X119747630Y-48206868D01*
X119747628Y-48206865D01*
X119745570Y-48202131D01*
X119619764Y-48007665D01*
X119529486Y-47908450D01*
X119498434Y-47844605D01*
X119506829Y-47774106D01*
X119552005Y-47719338D01*
X119578449Y-47705669D01*
X119638054Y-47683324D01*
X119653649Y-47674786D01*
X119755724Y-47598285D01*
X119768285Y-47585724D01*
X119844786Y-47483649D01*
X119853324Y-47468054D01*
X119898478Y-47347606D01*
X119902105Y-47332351D01*
X119907631Y-47281486D01*
X119908000Y-47274672D01*
X119908000Y-46602115D01*
X119903525Y-46586876D01*
X119902135Y-46585671D01*
X119894452Y-46584000D01*
X117110116Y-46584000D01*
X117094877Y-46588475D01*
X117093672Y-46589865D01*
X117092001Y-46597548D01*
X117092001Y-47274669D01*
X117092371Y-47281490D01*
X117097895Y-47332352D01*
X117101521Y-47347604D01*
X117146676Y-47468054D01*
X117155214Y-47483649D01*
X117231715Y-47585724D01*
X117244276Y-47598285D01*
X117346351Y-47674786D01*
X117361946Y-47683324D01*
X117421540Y-47705665D01*
X117478304Y-47748307D01*
X117503004Y-47814868D01*
X117487796Y-47884217D01*
X117468404Y-47910698D01*
X117401639Y-47980564D01*
X117398725Y-47984836D01*
X117398724Y-47984837D01*
X117383152Y-48007665D01*
X117271119Y-48171899D01*
X117173602Y-48381981D01*
X117111707Y-48605169D01*
X117087095Y-48835469D01*
X117087392Y-48840622D01*
X117087392Y-48840625D01*
X117099322Y-49047540D01*
X117100427Y-49066697D01*
X117101564Y-49071743D01*
X117101565Y-49071749D01*
X117124524Y-49173624D01*
X117151346Y-49292642D01*
X117153288Y-49297424D01*
X117153289Y-49297428D01*
X117220170Y-49462135D01*
X117238484Y-49507237D01*
X117321051Y-49641974D01*
X117325764Y-49649665D01*
X117344302Y-49718199D01*
X117322846Y-49785875D01*
X117268206Y-49831208D01*
X117218331Y-49841500D01*
X114782123Y-49841500D01*
X114714002Y-49821498D01*
X114667509Y-49767842D01*
X114657405Y-49697568D01*
X114679800Y-49641974D01*
X114708440Y-49602117D01*
X114711458Y-49597917D01*
X114757025Y-49505720D01*
X114811784Y-49394922D01*
X114811785Y-49394920D01*
X114814078Y-49390280D01*
X114881408Y-49168671D01*
X114911640Y-48939041D01*
X114912484Y-48904492D01*
X114913245Y-48873365D01*
X114913245Y-48873361D01*
X114913327Y-48870000D01*
X114898958Y-48695229D01*
X114894773Y-48644318D01*
X114894772Y-48644312D01*
X114894349Y-48639167D01*
X114858565Y-48496705D01*
X114839184Y-48419544D01*
X114839183Y-48419540D01*
X114837925Y-48414533D01*
X114835866Y-48409797D01*
X114747630Y-48206868D01*
X114747628Y-48206865D01*
X114745570Y-48202131D01*
X114619764Y-48007665D01*
X114529486Y-47908450D01*
X114498434Y-47844605D01*
X114506829Y-47774106D01*
X114552005Y-47719338D01*
X114578449Y-47705669D01*
X114638054Y-47683324D01*
X114653649Y-47674786D01*
X114755724Y-47598285D01*
X114768285Y-47585724D01*
X114844786Y-47483649D01*
X114853324Y-47468054D01*
X114898478Y-47347606D01*
X114902105Y-47332351D01*
X114907631Y-47281486D01*
X114908000Y-47274672D01*
X114908000Y-46602115D01*
X114903525Y-46586876D01*
X114902135Y-46585671D01*
X114894452Y-46584000D01*
X112110116Y-46584000D01*
X112094877Y-46588475D01*
X112093672Y-46589865D01*
X112092001Y-46597548D01*
X112092001Y-47274669D01*
X112092371Y-47281490D01*
X112097895Y-47332352D01*
X112101521Y-47347604D01*
X112146676Y-47468054D01*
X112155214Y-47483649D01*
X112231715Y-47585724D01*
X112244276Y-47598285D01*
X112346351Y-47674786D01*
X112361946Y-47683324D01*
X112421540Y-47705665D01*
X112478304Y-47748307D01*
X112503004Y-47814868D01*
X112487796Y-47884217D01*
X112468404Y-47910698D01*
X112401639Y-47980564D01*
X112398725Y-47984836D01*
X112398724Y-47984837D01*
X112383152Y-48007665D01*
X112271119Y-48171899D01*
X112173602Y-48381981D01*
X112111707Y-48605169D01*
X112087095Y-48835469D01*
X112087392Y-48840622D01*
X112087392Y-48840625D01*
X112099322Y-49047540D01*
X112100427Y-49066697D01*
X112101564Y-49071743D01*
X112101565Y-49071749D01*
X112124524Y-49173624D01*
X112151346Y-49292642D01*
X112153288Y-49297424D01*
X112153289Y-49297428D01*
X112220170Y-49462135D01*
X112238484Y-49507237D01*
X112321051Y-49641974D01*
X112325764Y-49649665D01*
X112344302Y-49718199D01*
X112322846Y-49785875D01*
X112268206Y-49831208D01*
X112218331Y-49841500D01*
X110454950Y-49841500D01*
X110386829Y-49821498D01*
X110365855Y-49804595D01*
X109899538Y-49338278D01*
X109865512Y-49275966D01*
X109868075Y-49212554D01*
X109879903Y-49173624D01*
X109879905Y-49173617D01*
X109881408Y-49168671D01*
X109911640Y-48939041D01*
X109912484Y-48904492D01*
X109913245Y-48873365D01*
X109913245Y-48873361D01*
X109913327Y-48870000D01*
X109898958Y-48695229D01*
X109894773Y-48644318D01*
X109894772Y-48644312D01*
X109894349Y-48639167D01*
X109858565Y-48496705D01*
X109839184Y-48419544D01*
X109839183Y-48419540D01*
X109837925Y-48414533D01*
X109835866Y-48409797D01*
X109747630Y-48206868D01*
X109747628Y-48206865D01*
X109745570Y-48202131D01*
X109619764Y-48007665D01*
X109529486Y-47908450D01*
X109498434Y-47844605D01*
X109506829Y-47774106D01*
X109552005Y-47719338D01*
X109578449Y-47705669D01*
X109638054Y-47683324D01*
X109653649Y-47674786D01*
X109755724Y-47598285D01*
X109768285Y-47585724D01*
X109844786Y-47483649D01*
X109853324Y-47468054D01*
X109898478Y-47347606D01*
X109902105Y-47332351D01*
X109907631Y-47281486D01*
X109908000Y-47274672D01*
X109908000Y-46602115D01*
X109903525Y-46586876D01*
X109902135Y-46585671D01*
X109894452Y-46584000D01*
X107110116Y-46584000D01*
X107094877Y-46588475D01*
X107093672Y-46589865D01*
X107092001Y-46597548D01*
X107092001Y-47274669D01*
X107092371Y-47281490D01*
X107097895Y-47332352D01*
X107101521Y-47347604D01*
X107146676Y-47468054D01*
X107155214Y-47483649D01*
X107231715Y-47585724D01*
X107244276Y-47598285D01*
X107346351Y-47674786D01*
X107361946Y-47683324D01*
X107421540Y-47705665D01*
X107478304Y-47748307D01*
X107503004Y-47814868D01*
X107487796Y-47884217D01*
X107468404Y-47910698D01*
X107401639Y-47980564D01*
X107398725Y-47984836D01*
X107398724Y-47984837D01*
X107383152Y-48007665D01*
X107271119Y-48171899D01*
X107173602Y-48381981D01*
X107111707Y-48605169D01*
X107087095Y-48835469D01*
X107087392Y-48840622D01*
X107087392Y-48840625D01*
X107099322Y-49047540D01*
X107100427Y-49066697D01*
X107101564Y-49071743D01*
X107101565Y-49071749D01*
X107124524Y-49173624D01*
X107151346Y-49292642D01*
X107153288Y-49297424D01*
X107153289Y-49297428D01*
X107220170Y-49462135D01*
X107238484Y-49507237D01*
X107359501Y-49704719D01*
X107511147Y-49879784D01*
X107689349Y-50027730D01*
X107889322Y-50144584D01*
X108105694Y-50227209D01*
X108110760Y-50228240D01*
X108110761Y-50228240D01*
X108155504Y-50237343D01*
X108332656Y-50273385D01*
X108463324Y-50278176D01*
X108558949Y-50281683D01*
X108558953Y-50281683D01*
X108564113Y-50281872D01*
X108569233Y-50281216D01*
X108569235Y-50281216D01*
X108661861Y-50269350D01*
X108793847Y-50252442D01*
X108798796Y-50250957D01*
X108798802Y-50250956D01*
X108830423Y-50241469D01*
X108842789Y-50237759D01*
X108913783Y-50237343D01*
X108968090Y-50269350D01*
X109606345Y-50907605D01*
X109614335Y-50916385D01*
X109618584Y-50923080D01*
X109624362Y-50928506D01*
X109624363Y-50928507D01*
X109670257Y-50971604D01*
X109673099Y-50974359D01*
X109693667Y-50994927D01*
X109697170Y-50997644D01*
X109706195Y-51005352D01*
X109739867Y-51036972D01*
X109746818Y-51040793D01*
X109746819Y-51040794D01*
X109758658Y-51047303D01*
X109775182Y-51058157D01*
X109785271Y-51065982D01*
X109792132Y-51071304D01*
X109799404Y-51074451D01*
X109799406Y-51074452D01*
X109834535Y-51089654D01*
X109845195Y-51094876D01*
X109874335Y-51110896D01*
X109885663Y-51117124D01*
X109906441Y-51122459D01*
X109925131Y-51128858D01*
X109944824Y-51137380D01*
X109988596Y-51144313D01*
X109990448Y-51144606D01*
X110002071Y-51147013D01*
X110030072Y-51154202D01*
X110046812Y-51158500D01*
X110068259Y-51158500D01*
X110087969Y-51160051D01*
X110109152Y-51163406D01*
X110155141Y-51159059D01*
X110166996Y-51158500D01*
X112983051Y-51158500D01*
X113051172Y-51178502D01*
X113097665Y-51232158D01*
X113107769Y-51302432D01*
X113078275Y-51367012D01*
X113022196Y-51404265D01*
X112952314Y-51427106D01*
X112947726Y-51429494D01*
X112947722Y-51429496D01*
X112751461Y-51531663D01*
X112746872Y-51534052D01*
X112742739Y-51537155D01*
X112742736Y-51537157D01*
X112565790Y-51670012D01*
X112561655Y-51673117D01*
X112401639Y-51840564D01*
X112398725Y-51844836D01*
X112398724Y-51844837D01*
X112383824Y-51866680D01*
X112271119Y-52031899D01*
X112173602Y-52241981D01*
X112111707Y-52465169D01*
X112087095Y-52695469D01*
X112087392Y-52700622D01*
X112087392Y-52700625D01*
X112093067Y-52799041D01*
X112100427Y-52926697D01*
X112101564Y-52931743D01*
X112101565Y-52931749D01*
X112135121Y-53080645D01*
X112130585Y-53151497D01*
X112101299Y-53197441D01*
X110123095Y-55175645D01*
X110060783Y-55209671D01*
X109989968Y-55204606D01*
X109933132Y-55162059D01*
X109908321Y-55095539D01*
X109908000Y-55086550D01*
X109907999Y-54325331D01*
X109907629Y-54318510D01*
X109902105Y-54267648D01*
X109898479Y-54252396D01*
X109853324Y-54131946D01*
X109844786Y-54116351D01*
X109768285Y-54014276D01*
X109755724Y-54001715D01*
X109653649Y-53925214D01*
X109638052Y-53916675D01*
X109579415Y-53894693D01*
X109522650Y-53852052D01*
X109497950Y-53785490D01*
X109513157Y-53716141D01*
X109534703Y-53687461D01*
X109565451Y-53656819D01*
X109576303Y-53646005D01*
X109711458Y-53457917D01*
X109715536Y-53449667D01*
X109811784Y-53254922D01*
X109811785Y-53254920D01*
X109814078Y-53250280D01*
X109881408Y-53028671D01*
X109911640Y-52799041D01*
X109913327Y-52730000D01*
X109902953Y-52603814D01*
X109894773Y-52504318D01*
X109894772Y-52504312D01*
X109894349Y-52499167D01*
X109860864Y-52365856D01*
X109839184Y-52279544D01*
X109839183Y-52279540D01*
X109837925Y-52274533D01*
X109832796Y-52262737D01*
X109747630Y-52066868D01*
X109747628Y-52066865D01*
X109745570Y-52062131D01*
X109619764Y-51867665D01*
X109463887Y-51696358D01*
X109459836Y-51693159D01*
X109459832Y-51693155D01*
X109286177Y-51556011D01*
X109286172Y-51556008D01*
X109282123Y-51552810D01*
X109277607Y-51550317D01*
X109277604Y-51550315D01*
X109083879Y-51443373D01*
X109083875Y-51443371D01*
X109079355Y-51440876D01*
X109074486Y-51439152D01*
X109074482Y-51439150D01*
X108865903Y-51365288D01*
X108865899Y-51365287D01*
X108861028Y-51363562D01*
X108855935Y-51362655D01*
X108855932Y-51362654D01*
X108638095Y-51323851D01*
X108638089Y-51323850D01*
X108633006Y-51322945D01*
X108560096Y-51322054D01*
X108406581Y-51320179D01*
X108406579Y-51320179D01*
X108401411Y-51320116D01*
X108172464Y-51355150D01*
X108165657Y-51357375D01*
X108158530Y-51359704D01*
X108087566Y-51361853D01*
X108030293Y-51329033D01*
X107493655Y-50792395D01*
X107485665Y-50783615D01*
X107485663Y-50783613D01*
X107481416Y-50776920D01*
X107454627Y-50751763D01*
X107429743Y-50728396D01*
X107426901Y-50725641D01*
X107406333Y-50705073D01*
X107402826Y-50702353D01*
X107393804Y-50694647D01*
X107360133Y-50663028D01*
X107353181Y-50659206D01*
X107341342Y-50652697D01*
X107324818Y-50641843D01*
X107314132Y-50633555D01*
X107307868Y-50628696D01*
X107300596Y-50625549D01*
X107300594Y-50625548D01*
X107265465Y-50610346D01*
X107254805Y-50605124D01*
X107221284Y-50586695D01*
X107221282Y-50586694D01*
X107214337Y-50582876D01*
X107193559Y-50577541D01*
X107174869Y-50571142D01*
X107155176Y-50562620D01*
X107109552Y-50555394D01*
X107097929Y-50552987D01*
X107063661Y-50544189D01*
X107053188Y-50541500D01*
X107031741Y-50541500D01*
X107012031Y-50539949D01*
X106998677Y-50537834D01*
X106990848Y-50536594D01*
X106944859Y-50540941D01*
X106933004Y-50541500D01*
X101482056Y-50541500D01*
X101470200Y-50540941D01*
X101470197Y-50540941D01*
X101462463Y-50539212D01*
X101407446Y-50540941D01*
X101391631Y-50541438D01*
X101387673Y-50541500D01*
X101358568Y-50541500D01*
X101354168Y-50542056D01*
X101342336Y-50542988D01*
X101296169Y-50544438D01*
X101275579Y-50550420D01*
X101256218Y-50554430D01*
X101254743Y-50554616D01*
X101242796Y-50556125D01*
X101242795Y-50556125D01*
X101234936Y-50557118D01*
X101227571Y-50560034D01*
X101227567Y-50560035D01*
X101191982Y-50574124D01*
X101180752Y-50577969D01*
X101136399Y-50590855D01*
X101129575Y-50594891D01*
X101117943Y-50601770D01*
X101100187Y-50610469D01*
X101080244Y-50618365D01*
X101066025Y-50628696D01*
X101042868Y-50645520D01*
X101032949Y-50652035D01*
X101000023Y-50671508D01*
X101000019Y-50671511D01*
X100993193Y-50675548D01*
X100978032Y-50690709D01*
X100963000Y-50703548D01*
X100945643Y-50716159D01*
X100940593Y-50722263D01*
X100940591Y-50722265D01*
X100916188Y-50751763D01*
X100908199Y-50760541D01*
X99514951Y-52153789D01*
X99452639Y-52187815D01*
X99381824Y-52182750D01*
X99324988Y-52140203D01*
X99303653Y-52095391D01*
X99291217Y-52045884D01*
X99287894Y-52036124D01*
X99202972Y-51840814D01*
X99198105Y-51831739D01*
X99082426Y-51652926D01*
X99076136Y-51644757D01*
X98932806Y-51487240D01*
X98925273Y-51480215D01*
X98758139Y-51348222D01*
X98749556Y-51342520D01*
X98712602Y-51322120D01*
X98662631Y-51271687D01*
X98647859Y-51202245D01*
X98672975Y-51135839D01*
X98700327Y-51109232D01*
X98760312Y-51066445D01*
X98879860Y-50981173D01*
X98889463Y-50971604D01*
X99034435Y-50827137D01*
X99038096Y-50823489D01*
X99065196Y-50785776D01*
X99165435Y-50646277D01*
X99168453Y-50642077D01*
X99175067Y-50628696D01*
X99265136Y-50446453D01*
X99265137Y-50446451D01*
X99267430Y-50441811D01*
X99316223Y-50281216D01*
X99330865Y-50233023D01*
X99330865Y-50233021D01*
X99332370Y-50228069D01*
X99361529Y-50006590D01*
X99363156Y-49940000D01*
X99344852Y-49717361D01*
X99290431Y-49500702D01*
X99201354Y-49295840D01*
X99122289Y-49173624D01*
X99082822Y-49112617D01*
X99082820Y-49112614D01*
X99080014Y-49108277D01*
X99076532Y-49104450D01*
X98932798Y-48946488D01*
X98901746Y-48882642D01*
X98910141Y-48812143D01*
X98955317Y-48757375D01*
X98981761Y-48743706D01*
X99088297Y-48703767D01*
X99096705Y-48700615D01*
X99213261Y-48613261D01*
X99300615Y-48496705D01*
X99351745Y-48360316D01*
X99358500Y-48298134D01*
X99358500Y-46501866D01*
X99351745Y-46439684D01*
X99300615Y-46303295D01*
X99213261Y-46186739D01*
X99096705Y-46099385D01*
X98986004Y-46057885D01*
X107092000Y-46057885D01*
X107096475Y-46073124D01*
X107097865Y-46074329D01*
X107105548Y-46076000D01*
X108227885Y-46076000D01*
X108243124Y-46071525D01*
X108244329Y-46070135D01*
X108246000Y-46062452D01*
X108246000Y-46057885D01*
X108754000Y-46057885D01*
X108758475Y-46073124D01*
X108759865Y-46074329D01*
X108767548Y-46076000D01*
X109889884Y-46076000D01*
X109905123Y-46071525D01*
X109906328Y-46070135D01*
X109907999Y-46062452D01*
X109907999Y-46057885D01*
X112092000Y-46057885D01*
X112096475Y-46073124D01*
X112097865Y-46074329D01*
X112105548Y-46076000D01*
X113227885Y-46076000D01*
X113243124Y-46071525D01*
X113244329Y-46070135D01*
X113246000Y-46062452D01*
X113246000Y-46057885D01*
X113754000Y-46057885D01*
X113758475Y-46073124D01*
X113759865Y-46074329D01*
X113767548Y-46076000D01*
X114889884Y-46076000D01*
X114905123Y-46071525D01*
X114906328Y-46070135D01*
X114907999Y-46062452D01*
X114907999Y-46057885D01*
X117092000Y-46057885D01*
X117096475Y-46073124D01*
X117097865Y-46074329D01*
X117105548Y-46076000D01*
X118227885Y-46076000D01*
X118243124Y-46071525D01*
X118244329Y-46070135D01*
X118246000Y-46062452D01*
X118246000Y-46057885D01*
X118754000Y-46057885D01*
X118758475Y-46073124D01*
X118759865Y-46074329D01*
X118767548Y-46076000D01*
X119889884Y-46076000D01*
X119905123Y-46071525D01*
X119906328Y-46070135D01*
X119907999Y-46062452D01*
X119907999Y-46057885D01*
X122092000Y-46057885D01*
X122096475Y-46073124D01*
X122097865Y-46074329D01*
X122105548Y-46076000D01*
X123227885Y-46076000D01*
X123243124Y-46071525D01*
X123244329Y-46070135D01*
X123246000Y-46062452D01*
X123246000Y-46057885D01*
X123754000Y-46057885D01*
X123758475Y-46073124D01*
X123759865Y-46074329D01*
X123767548Y-46076000D01*
X124889884Y-46076000D01*
X124905123Y-46071525D01*
X124906328Y-46070135D01*
X124907999Y-46062452D01*
X124907999Y-45385331D01*
X124907629Y-45378510D01*
X124902105Y-45327648D01*
X124898479Y-45312396D01*
X124853324Y-45191946D01*
X124844786Y-45176351D01*
X124768285Y-45074276D01*
X124755724Y-45061715D01*
X124653649Y-44985214D01*
X124638054Y-44976676D01*
X124517606Y-44931522D01*
X124502351Y-44927895D01*
X124451486Y-44922369D01*
X124444672Y-44922000D01*
X123772115Y-44922000D01*
X123756876Y-44926475D01*
X123755671Y-44927865D01*
X123754000Y-44935548D01*
X123754000Y-46057885D01*
X123246000Y-46057885D01*
X123246000Y-44940116D01*
X123241525Y-44924877D01*
X123240135Y-44923672D01*
X123232452Y-44922001D01*
X122555331Y-44922001D01*
X122548510Y-44922371D01*
X122497648Y-44927895D01*
X122482396Y-44931521D01*
X122361946Y-44976676D01*
X122346351Y-44985214D01*
X122244276Y-45061715D01*
X122231715Y-45074276D01*
X122155214Y-45176351D01*
X122146676Y-45191946D01*
X122101522Y-45312394D01*
X122097895Y-45327649D01*
X122092369Y-45378514D01*
X122092000Y-45385328D01*
X122092000Y-46057885D01*
X119907999Y-46057885D01*
X119907999Y-45385331D01*
X119907629Y-45378510D01*
X119902105Y-45327648D01*
X119898479Y-45312396D01*
X119853324Y-45191946D01*
X119844786Y-45176351D01*
X119768285Y-45074276D01*
X119755724Y-45061715D01*
X119653649Y-44985214D01*
X119638054Y-44976676D01*
X119517606Y-44931522D01*
X119502351Y-44927895D01*
X119451486Y-44922369D01*
X119444672Y-44922000D01*
X118772115Y-44922000D01*
X118756876Y-44926475D01*
X118755671Y-44927865D01*
X118754000Y-44935548D01*
X118754000Y-46057885D01*
X118246000Y-46057885D01*
X118246000Y-44940116D01*
X118241525Y-44924877D01*
X118240135Y-44923672D01*
X118232452Y-44922001D01*
X117555331Y-44922001D01*
X117548510Y-44922371D01*
X117497648Y-44927895D01*
X117482396Y-44931521D01*
X117361946Y-44976676D01*
X117346351Y-44985214D01*
X117244276Y-45061715D01*
X117231715Y-45074276D01*
X117155214Y-45176351D01*
X117146676Y-45191946D01*
X117101522Y-45312394D01*
X117097895Y-45327649D01*
X117092369Y-45378514D01*
X117092000Y-45385328D01*
X117092000Y-46057885D01*
X114907999Y-46057885D01*
X114907999Y-45385331D01*
X114907629Y-45378510D01*
X114902105Y-45327648D01*
X114898479Y-45312396D01*
X114853324Y-45191946D01*
X114844786Y-45176351D01*
X114768285Y-45074276D01*
X114755724Y-45061715D01*
X114653649Y-44985214D01*
X114638054Y-44976676D01*
X114517606Y-44931522D01*
X114502351Y-44927895D01*
X114451486Y-44922369D01*
X114444672Y-44922000D01*
X113772115Y-44922000D01*
X113756876Y-44926475D01*
X113755671Y-44927865D01*
X113754000Y-44935548D01*
X113754000Y-46057885D01*
X113246000Y-46057885D01*
X113246000Y-44940116D01*
X113241525Y-44924877D01*
X113240135Y-44923672D01*
X113232452Y-44922001D01*
X112555331Y-44922001D01*
X112548510Y-44922371D01*
X112497648Y-44927895D01*
X112482396Y-44931521D01*
X112361946Y-44976676D01*
X112346351Y-44985214D01*
X112244276Y-45061715D01*
X112231715Y-45074276D01*
X112155214Y-45176351D01*
X112146676Y-45191946D01*
X112101522Y-45312394D01*
X112097895Y-45327649D01*
X112092369Y-45378514D01*
X112092000Y-45385328D01*
X112092000Y-46057885D01*
X109907999Y-46057885D01*
X109907999Y-45385331D01*
X109907629Y-45378510D01*
X109902105Y-45327648D01*
X109898479Y-45312396D01*
X109853324Y-45191946D01*
X109844786Y-45176351D01*
X109768285Y-45074276D01*
X109755724Y-45061715D01*
X109653649Y-44985214D01*
X109638054Y-44976676D01*
X109517606Y-44931522D01*
X109502351Y-44927895D01*
X109451486Y-44922369D01*
X109444672Y-44922000D01*
X108772115Y-44922000D01*
X108756876Y-44926475D01*
X108755671Y-44927865D01*
X108754000Y-44935548D01*
X108754000Y-46057885D01*
X108246000Y-46057885D01*
X108246000Y-44940116D01*
X108241525Y-44924877D01*
X108240135Y-44923672D01*
X108232452Y-44922001D01*
X107555331Y-44922001D01*
X107548510Y-44922371D01*
X107497648Y-44927895D01*
X107482396Y-44931521D01*
X107361946Y-44976676D01*
X107346351Y-44985214D01*
X107244276Y-45061715D01*
X107231715Y-45074276D01*
X107155214Y-45176351D01*
X107146676Y-45191946D01*
X107101522Y-45312394D01*
X107097895Y-45327649D01*
X107092369Y-45378514D01*
X107092000Y-45385328D01*
X107092000Y-46057885D01*
X98986004Y-46057885D01*
X98960316Y-46048255D01*
X98898134Y-46041500D01*
X97101866Y-46041500D01*
X97039684Y-46048255D01*
X96903295Y-46099385D01*
X96786739Y-46186739D01*
X96781358Y-46193919D01*
X96781357Y-46193920D01*
X96735326Y-46255339D01*
X96678467Y-46297854D01*
X96607648Y-46302880D01*
X96545355Y-46268820D01*
X96511365Y-46206489D01*
X96508500Y-46179774D01*
X96508500Y-44634500D01*
X96528502Y-44566379D01*
X96582158Y-44519886D01*
X96634500Y-44508500D01*
X135365500Y-44508500D01*
X135433621Y-44528502D01*
G37*
G04 #@! TD.AperFunction*
M02*
