M48
; DRILL file {KiCad (6.0.11)} date Fri Mar  3 10:03:23 2023
; FORMAT={-:-/ absolute / inch / decimal}
; #@! TF.CreationDate,2023-03-03T10:03:23+00:00
; #@! TF.GenerationSoftware,Kicad,Pcbnew,(6.0.11)
; #@! TF.FileFunction,Plated,1,2,PTH
FMAT,2
INCH
; #@! TA.AperFunction,Plated,PTH,ViaDrill
T1C0.0157
; #@! TA.AperFunction,Plated,PTH,ComponentDrill
T2C0.0236
; #@! TA.AperFunction,Plated,PTH,ComponentDrill
T3C0.0354
; #@! TA.AperFunction,Plated,PTH,ComponentDrill
T4C0.0394
%
G90
G05
T1
X3.9646Y-1.9646
X4.0787Y-1.9606
T3
X4.0276Y-2.5138
X4.0276Y-3.2657
X4.0276Y-4.0138
X4.0776Y-2.4138
X4.0776Y-3.1657
X4.0776Y-3.9138
X4.1276Y-2.5138
X4.1276Y-3.2657
X4.1276Y-4.0138
X4.1776Y-2.4138
X4.1776Y-3.1657
X4.1776Y-3.9138
X4.2276Y-2.5138
X4.2276Y-3.2657
X4.2276Y-4.0138
X4.2717Y-1.824
X4.2717Y-1.924
X4.2717Y-2.076
X4.2717Y-2.176
X4.2776Y-2.4138
X4.2776Y-3.1657
X4.2776Y-3.9138
X4.3276Y-2.5138
X4.3276Y-3.2657
X4.3276Y-4.0138
X4.3776Y-2.4138
X4.3776Y-3.1657
X4.3776Y-3.9138
X4.4685Y-1.824
X4.4685Y-1.924
X4.4685Y-2.076
X4.4685Y-2.176
X4.6654Y-1.824
X4.6654Y-1.924
X4.6654Y-2.076
X4.6654Y-2.176
X4.7559Y-2.5138
X4.7559Y-3.2657
X4.7559Y-4.0138
X4.8059Y-2.4138
X4.8059Y-3.1657
X4.8059Y-3.9138
X4.8559Y-2.5138
X4.8559Y-3.2657
X4.8559Y-4.0138
X4.8622Y-1.824
X4.8622Y-1.924
X4.8622Y-2.076
X4.8622Y-2.176
X4.9059Y-2.4138
X4.9059Y-3.1657
X4.9059Y-3.9138
X4.9559Y-2.5138
X4.9559Y-3.2657
X4.9559Y-4.0138
X5.0059Y-2.4138
X5.0059Y-3.1657
X5.0059Y-3.9138
X5.0559Y-2.5138
X5.0559Y-3.2657
X5.0559Y-4.0138
X5.1059Y-2.4138
X5.1059Y-3.1657
X5.1059Y-3.9138
T4
X3.8583Y-1.8661
X3.8583Y-1.9661
X3.8583Y-2.0661
X3.8583Y-2.1661
X3.8583Y-2.2661
X3.8583Y-2.3661
X3.8583Y-2.4661
X3.8583Y-2.5661
X3.8583Y-2.6661
X3.8583Y-4.7244
X3.8583Y-4.8244
X3.8583Y-4.9244
X3.8583Y-5.0244
X3.8583Y-5.1244
X3.8583Y-5.2244
X3.8583Y-5.3244
X3.8583Y-5.4244
X5.0526Y-4.6409
X5.0526Y-4.7409
X5.0526Y-4.8409
X5.0526Y-4.9409
X5.1526Y-4.6409
X5.1526Y-4.7409
X5.1526Y-4.8409
X5.1526Y-4.9409
X5.2756Y-1.9685
X5.2756Y-2.0685
X5.2756Y-2.1685
X5.2756Y-2.2685
X5.2756Y-2.3685
X5.2756Y-2.4685
X5.2756Y-2.5685
X5.2756Y-2.6685
X5.2756Y-5.2244
X5.2756Y-5.3244
X5.2756Y-5.4244
T2
G00X4.3079Y-4.7874
M15
G01X4.3079Y-4.8268
M16
G05
G00X4.4299Y-4.7874
M15
G01X4.4299Y-4.8268
M16
G05
G00X4.7567Y-4.7874
M15
G01X4.7567Y-4.8268
M16
G05
T0
M30
