G04 #@! TF.GenerationSoftware,KiCad,Pcbnew,(6.0.11)*
G04 #@! TF.CreationDate,2023-03-02T17:20:23+00:00*
G04 #@! TF.ProjectId,QMidiMonger_panel,514d6964-694d-46f6-9e67-65725f70616e,rev?*
G04 #@! TF.SameCoordinates,Original*
G04 #@! TF.FileFunction,Profile,NP*
%FSLAX46Y46*%
G04 Gerber Fmt 4.6, Leading zero omitted, Abs format (unit mm)*
G04 Created by KiCad (PCBNEW (6.0.11)) date 2023-03-02 17:20:23*
%MOMM*%
%LPD*%
G01*
G04 APERTURE LIST*
G04 #@! TA.AperFunction,Profile*
%ADD10C,0.100000*%
G04 #@! TD*
G04 #@! TA.AperFunction,Profile*
%ADD11C,0.120000*%
G04 #@! TD*
G04 APERTURE END LIST*
D10*
X95850000Y-29000000D02*
X136150000Y-29000000D01*
X136150000Y-29000000D02*
X136150000Y-157500000D01*
X136150000Y-157500000D02*
X95850000Y-157500000D01*
X95850000Y-157500000D02*
X95850000Y-29000000D01*
D11*
X98540000Y-79580000D02*
X98540000Y-95620000D01*
X114580000Y-95920000D02*
X98820000Y-95920000D01*
X114890000Y-79580000D02*
X114890000Y-95620000D01*
X114580000Y-79280000D02*
X98820000Y-79280000D01*
X98539999Y-95620000D02*
G75*
G03*
X98820000Y-95920000I291316J-8772D01*
G01*
X114890039Y-79579999D02*
G75*
G03*
X114580000Y-79280000I-306839J-6901D01*
G01*
X98820000Y-79279999D02*
G75*
G03*
X98540000Y-79580000I12375J-292217D01*
G01*
X114580001Y-95919990D02*
G75*
G03*
X114890000Y-95620000I17299J292290D01*
G01*
X133080000Y-95920000D02*
X117320000Y-95920000D01*
X133080000Y-79280000D02*
X117320000Y-79280000D01*
X133390000Y-79580000D02*
X133390000Y-95620000D01*
X117040000Y-79580000D02*
X117040000Y-95620000D01*
X117320000Y-79279999D02*
G75*
G03*
X117040000Y-79580000I12375J-292217D01*
G01*
X133390039Y-79579999D02*
G75*
G03*
X133080000Y-79280000I-306839J-6901D01*
G01*
X133080001Y-95919990D02*
G75*
G03*
X133390000Y-95620000I17299J292290D01*
G01*
X117039999Y-95620000D02*
G75*
G03*
X117320000Y-95920000I291316J-8772D01*
G01*
X117040000Y-60480000D02*
X117040000Y-76520000D01*
X133080000Y-76820000D02*
X117320000Y-76820000D01*
X133390000Y-60480000D02*
X133390000Y-76520000D01*
X133080000Y-60180000D02*
X117320000Y-60180000D01*
X133080001Y-76819990D02*
G75*
G03*
X133390000Y-76520000I17299J292290D01*
G01*
X133390039Y-60479999D02*
G75*
G03*
X133080000Y-60180000I-306839J-6901D01*
G01*
X117039999Y-76520000D02*
G75*
G03*
X117320000Y-76820000I291316J-8772D01*
G01*
X117320000Y-60179999D02*
G75*
G03*
X117040000Y-60480000I12375J-292217D01*
G01*
D10*
X109800000Y-129900000D02*
X122200000Y-129900000D01*
X122200000Y-129900000D02*
X122200000Y-141700000D01*
X122200000Y-141700000D02*
X109800000Y-141700000D01*
X109800000Y-141700000D02*
X109800000Y-129900000D01*
D11*
X133080000Y-98280000D02*
X117320000Y-98280000D01*
X133390000Y-98580000D02*
X133390000Y-114620000D01*
X117040000Y-98580000D02*
X117040000Y-114620000D01*
X133080000Y-114920000D02*
X117320000Y-114920000D01*
X117039999Y-114620000D02*
G75*
G03*
X117320000Y-114920000I291316J-8772D01*
G01*
X133080001Y-114919990D02*
G75*
G03*
X133390000Y-114620000I17299J292290D01*
G01*
X133390039Y-98579999D02*
G75*
G03*
X133080000Y-98280000I-306839J-6901D01*
G01*
X117320000Y-98279999D02*
G75*
G03*
X117040000Y-98580000I12375J-292217D01*
G01*
X114890000Y-60480000D02*
X114890000Y-76520000D01*
X98540000Y-60480000D02*
X98540000Y-76520000D01*
X114580000Y-76820000D02*
X98820000Y-76820000D01*
X114580000Y-60180000D02*
X98820000Y-60180000D01*
X114580001Y-76819990D02*
G75*
G03*
X114890000Y-76520000I17299J292290D01*
G01*
X98820000Y-60179999D02*
G75*
G03*
X98540000Y-60480000I12375J-292217D01*
G01*
X114890039Y-60479999D02*
G75*
G03*
X114580000Y-60180000I-306839J-6901D01*
G01*
X98539999Y-76520000D02*
G75*
G03*
X98820000Y-76820000I291316J-8772D01*
G01*
X114890000Y-98580000D02*
X114890000Y-114620000D01*
X98540000Y-98580000D02*
X98540000Y-114620000D01*
X114580000Y-98280000D02*
X98820000Y-98280000D01*
X114580000Y-114920000D02*
X98820000Y-114920000D01*
X98820000Y-98279999D02*
G75*
G03*
X98540000Y-98580000I12375J-292217D01*
G01*
X98539999Y-114620000D02*
G75*
G03*
X98820000Y-114920000I291316J-8772D01*
G01*
X114580001Y-114919990D02*
G75*
G03*
X114890000Y-114620000I17299J292290D01*
G01*
X114890039Y-98579999D02*
G75*
G03*
X114580000Y-98280000I-306839J-6901D01*
G01*
M02*
