G04 #@! TF.GenerationSoftware,KiCad,Pcbnew,8.0.4*
G04 #@! TF.CreationDate,2024-08-06T17:15:24+01:00*
G04 #@! TF.ProjectId,MidiMonger_panel,4d696469-4d6f-46e6-9765-725f70616e65,rev?*
G04 #@! TF.SameCoordinates,Original*
G04 #@! TF.FileFunction,Soldermask,Top*
G04 #@! TF.FilePolarity,Negative*
%FSLAX46Y46*%
G04 Gerber Fmt 4.6, Leading zero omitted, Abs format (unit mm)*
G04 Created by KiCad (PCBNEW 8.0.4) date 2024-08-06 17:15:24*
%MOMM*%
%LPD*%
G01*
G04 APERTURE LIST*
%ADD10C,0.300000*%
%ADD11C,0.200000*%
%ADD12C,2.074846*%
%ADD13C,0.020000*%
%ADD14C,0.010000*%
%ADD15C,6.200000*%
%ADD16C,6.000000*%
%ADD17O,5.000000X3.200000*%
%ADD18C,3.500000*%
%ADD19C,3.000000*%
G04 APERTURE END LIST*
D10*
X105048300Y-132304622D02*
G75*
G02*
X104482614Y-132304622I-282843J0D01*
G01*
X104482614Y-132304622D02*
G75*
G02*
X105048300Y-132304622I282843J0D01*
G01*
X107748300Y-130104622D02*
G75*
G02*
X107182614Y-130104622I-282843J0D01*
G01*
X107182614Y-130104622D02*
G75*
G02*
X107748300Y-130104622I282843J0D01*
G01*
X106648300Y-129904622D02*
G75*
G02*
X106082614Y-129904622I-282843J0D01*
G01*
X106082614Y-129904622D02*
G75*
G02*
X106648300Y-129904622I282843J0D01*
G01*
X105648300Y-130304622D02*
G75*
G02*
X105082614Y-130304622I-282843J0D01*
G01*
X105082614Y-130304622D02*
G75*
G02*
X105648300Y-130304622I282843J0D01*
G01*
X118742857Y-112249757D02*
X118600000Y-112178328D01*
X118600000Y-112178328D02*
X118385714Y-112178328D01*
X118385714Y-112178328D02*
X118171428Y-112249757D01*
X118171428Y-112249757D02*
X118028571Y-112392614D01*
X118028571Y-112392614D02*
X117957142Y-112535471D01*
X117957142Y-112535471D02*
X117885714Y-112821185D01*
X117885714Y-112821185D02*
X117885714Y-113035471D01*
X117885714Y-113035471D02*
X117957142Y-113321185D01*
X117957142Y-113321185D02*
X118028571Y-113464042D01*
X118028571Y-113464042D02*
X118171428Y-113606900D01*
X118171428Y-113606900D02*
X118385714Y-113678328D01*
X118385714Y-113678328D02*
X118528571Y-113678328D01*
X118528571Y-113678328D02*
X118742857Y-113606900D01*
X118742857Y-113606900D02*
X118814285Y-113535471D01*
X118814285Y-113535471D02*
X118814285Y-113035471D01*
X118814285Y-113035471D02*
X118528571Y-113035471D01*
X120100000Y-113678328D02*
X120100000Y-112892614D01*
X120100000Y-112892614D02*
X120028571Y-112749757D01*
X120028571Y-112749757D02*
X119885714Y-112678328D01*
X119885714Y-112678328D02*
X119600000Y-112678328D01*
X119600000Y-112678328D02*
X119457142Y-112749757D01*
X120100000Y-113606900D02*
X119957142Y-113678328D01*
X119957142Y-113678328D02*
X119600000Y-113678328D01*
X119600000Y-113678328D02*
X119457142Y-113606900D01*
X119457142Y-113606900D02*
X119385714Y-113464042D01*
X119385714Y-113464042D02*
X119385714Y-113321185D01*
X119385714Y-113321185D02*
X119457142Y-113178328D01*
X119457142Y-113178328D02*
X119600000Y-113106900D01*
X119600000Y-113106900D02*
X119957142Y-113106900D01*
X119957142Y-113106900D02*
X120100000Y-113035471D01*
X120600000Y-112678328D02*
X121171428Y-112678328D01*
X120814285Y-112178328D02*
X120814285Y-113464042D01*
X120814285Y-113464042D02*
X120885714Y-113606900D01*
X120885714Y-113606900D02*
X121028571Y-113678328D01*
X121028571Y-113678328D02*
X121171428Y-113678328D01*
X122242857Y-113606900D02*
X122100000Y-113678328D01*
X122100000Y-113678328D02*
X121814286Y-113678328D01*
X121814286Y-113678328D02*
X121671428Y-113606900D01*
X121671428Y-113606900D02*
X121600000Y-113464042D01*
X121600000Y-113464042D02*
X121600000Y-112892614D01*
X121600000Y-112892614D02*
X121671428Y-112749757D01*
X121671428Y-112749757D02*
X121814286Y-112678328D01*
X121814286Y-112678328D02*
X122100000Y-112678328D01*
X122100000Y-112678328D02*
X122242857Y-112749757D01*
X122242857Y-112749757D02*
X122314286Y-112892614D01*
X122314286Y-112892614D02*
X122314286Y-113035471D01*
X122314286Y-113035471D02*
X121600000Y-113178328D01*
X108465457Y-132104622D02*
G75*
G02*
X106365457Y-133804622I-1900000J200000D01*
G01*
X104948300Y-131204622D02*
G75*
G02*
X104382614Y-131204622I-282843J0D01*
G01*
X104382614Y-131204622D02*
G75*
G02*
X104948300Y-131204622I282843J0D01*
G01*
X109165458Y-131704622D02*
G75*
G02*
X103885306Y-131704622I-2640076J0D01*
G01*
X103885306Y-131704622D02*
G75*
G02*
X109165458Y-131704622I2640076J0D01*
G01*
X126342857Y-43949757D02*
X126200000Y-43878328D01*
X126200000Y-43878328D02*
X125985714Y-43878328D01*
X125985714Y-43878328D02*
X125771428Y-43949757D01*
X125771428Y-43949757D02*
X125628571Y-44092614D01*
X125628571Y-44092614D02*
X125557142Y-44235471D01*
X125557142Y-44235471D02*
X125485714Y-44521185D01*
X125485714Y-44521185D02*
X125485714Y-44735471D01*
X125485714Y-44735471D02*
X125557142Y-45021185D01*
X125557142Y-45021185D02*
X125628571Y-45164042D01*
X125628571Y-45164042D02*
X125771428Y-45306900D01*
X125771428Y-45306900D02*
X125985714Y-45378328D01*
X125985714Y-45378328D02*
X126128571Y-45378328D01*
X126128571Y-45378328D02*
X126342857Y-45306900D01*
X126342857Y-45306900D02*
X126414285Y-45235471D01*
X126414285Y-45235471D02*
X126414285Y-44735471D01*
X126414285Y-44735471D02*
X126128571Y-44735471D01*
X127700000Y-45378328D02*
X127700000Y-44592614D01*
X127700000Y-44592614D02*
X127628571Y-44449757D01*
X127628571Y-44449757D02*
X127485714Y-44378328D01*
X127485714Y-44378328D02*
X127200000Y-44378328D01*
X127200000Y-44378328D02*
X127057142Y-44449757D01*
X127700000Y-45306900D02*
X127557142Y-45378328D01*
X127557142Y-45378328D02*
X127200000Y-45378328D01*
X127200000Y-45378328D02*
X127057142Y-45306900D01*
X127057142Y-45306900D02*
X126985714Y-45164042D01*
X126985714Y-45164042D02*
X126985714Y-45021185D01*
X126985714Y-45021185D02*
X127057142Y-44878328D01*
X127057142Y-44878328D02*
X127200000Y-44806900D01*
X127200000Y-44806900D02*
X127557142Y-44806900D01*
X127557142Y-44806900D02*
X127700000Y-44735471D01*
X128200000Y-44378328D02*
X128771428Y-44378328D01*
X128414285Y-43878328D02*
X128414285Y-45164042D01*
X128414285Y-45164042D02*
X128485714Y-45306900D01*
X128485714Y-45306900D02*
X128628571Y-45378328D01*
X128628571Y-45378328D02*
X128771428Y-45378328D01*
X129842857Y-45306900D02*
X129700000Y-45378328D01*
X129700000Y-45378328D02*
X129414286Y-45378328D01*
X129414286Y-45378328D02*
X129271428Y-45306900D01*
X129271428Y-45306900D02*
X129200000Y-45164042D01*
X129200000Y-45164042D02*
X129200000Y-44592614D01*
X129200000Y-44592614D02*
X129271428Y-44449757D01*
X129271428Y-44449757D02*
X129414286Y-44378328D01*
X129414286Y-44378328D02*
X129700000Y-44378328D01*
X129700000Y-44378328D02*
X129842857Y-44449757D01*
X129842857Y-44449757D02*
X129914286Y-44592614D01*
X129914286Y-44592614D02*
X129914286Y-44735471D01*
X129914286Y-44735471D02*
X129200000Y-44878328D01*
X108428571Y-45235471D02*
X108357143Y-45306900D01*
X108357143Y-45306900D02*
X108142857Y-45378328D01*
X108142857Y-45378328D02*
X108000000Y-45378328D01*
X108000000Y-45378328D02*
X107785714Y-45306900D01*
X107785714Y-45306900D02*
X107642857Y-45164042D01*
X107642857Y-45164042D02*
X107571428Y-45021185D01*
X107571428Y-45021185D02*
X107500000Y-44735471D01*
X107500000Y-44735471D02*
X107500000Y-44521185D01*
X107500000Y-44521185D02*
X107571428Y-44235471D01*
X107571428Y-44235471D02*
X107642857Y-44092614D01*
X107642857Y-44092614D02*
X107785714Y-43949757D01*
X107785714Y-43949757D02*
X108000000Y-43878328D01*
X108000000Y-43878328D02*
X108142857Y-43878328D01*
X108142857Y-43878328D02*
X108357143Y-43949757D01*
X108357143Y-43949757D02*
X108428571Y-44021185D01*
X108857143Y-43878328D02*
X109357143Y-45378328D01*
X109357143Y-45378328D02*
X109857143Y-43878328D01*
X111428571Y-43806900D02*
X110142857Y-45735471D01*
X111928571Y-45378328D02*
X111928571Y-43878328D01*
X111928571Y-43878328D02*
X112500000Y-43878328D01*
X112500000Y-43878328D02*
X112642857Y-43949757D01*
X112642857Y-43949757D02*
X112714286Y-44021185D01*
X112714286Y-44021185D02*
X112785714Y-44164042D01*
X112785714Y-44164042D02*
X112785714Y-44378328D01*
X112785714Y-44378328D02*
X112714286Y-44521185D01*
X112714286Y-44521185D02*
X112642857Y-44592614D01*
X112642857Y-44592614D02*
X112500000Y-44664042D01*
X112500000Y-44664042D02*
X111928571Y-44664042D01*
X113428571Y-45378328D02*
X113428571Y-44378328D01*
X113428571Y-43878328D02*
X113357143Y-43949757D01*
X113357143Y-43949757D02*
X113428571Y-44021185D01*
X113428571Y-44021185D02*
X113500000Y-43949757D01*
X113500000Y-43949757D02*
X113428571Y-43878328D01*
X113428571Y-43878328D02*
X113428571Y-44021185D01*
X113928572Y-44378328D02*
X114500000Y-44378328D01*
X114142857Y-43878328D02*
X114142857Y-45164042D01*
X114142857Y-45164042D02*
X114214286Y-45306900D01*
X114214286Y-45306900D02*
X114357143Y-45378328D01*
X114357143Y-45378328D02*
X114500000Y-45378328D01*
X115642858Y-45306900D02*
X115500000Y-45378328D01*
X115500000Y-45378328D02*
X115214286Y-45378328D01*
X115214286Y-45378328D02*
X115071429Y-45306900D01*
X115071429Y-45306900D02*
X115000000Y-45235471D01*
X115000000Y-45235471D02*
X114928572Y-45092614D01*
X114928572Y-45092614D02*
X114928572Y-44664042D01*
X114928572Y-44664042D02*
X115000000Y-44521185D01*
X115000000Y-44521185D02*
X115071429Y-44449757D01*
X115071429Y-44449757D02*
X115214286Y-44378328D01*
X115214286Y-44378328D02*
X115500000Y-44378328D01*
X115500000Y-44378328D02*
X115642858Y-44449757D01*
X116285714Y-45378328D02*
X116285714Y-43878328D01*
X116928572Y-45378328D02*
X116928572Y-44592614D01*
X116928572Y-44592614D02*
X116857143Y-44449757D01*
X116857143Y-44449757D02*
X116714286Y-44378328D01*
X116714286Y-44378328D02*
X116500000Y-44378328D01*
X116500000Y-44378328D02*
X116357143Y-44449757D01*
X116357143Y-44449757D02*
X116285714Y-44521185D01*
X134785715Y-101878328D02*
X134500000Y-101878328D01*
X134500000Y-101878328D02*
X134357143Y-101949757D01*
X134357143Y-101949757D02*
X134285715Y-102021185D01*
X134285715Y-102021185D02*
X134142857Y-102235471D01*
X134142857Y-102235471D02*
X134071429Y-102521185D01*
X134071429Y-102521185D02*
X134071429Y-103092614D01*
X134071429Y-103092614D02*
X134142857Y-103235471D01*
X134142857Y-103235471D02*
X134214286Y-103306900D01*
X134214286Y-103306900D02*
X134357143Y-103378328D01*
X134357143Y-103378328D02*
X134642857Y-103378328D01*
X134642857Y-103378328D02*
X134785715Y-103306900D01*
X134785715Y-103306900D02*
X134857143Y-103235471D01*
X134857143Y-103235471D02*
X134928572Y-103092614D01*
X134928572Y-103092614D02*
X134928572Y-102735471D01*
X134928572Y-102735471D02*
X134857143Y-102592614D01*
X134857143Y-102592614D02*
X134785715Y-102521185D01*
X134785715Y-102521185D02*
X134642857Y-102449757D01*
X134642857Y-102449757D02*
X134357143Y-102449757D01*
X134357143Y-102449757D02*
X134214286Y-102521185D01*
X134214286Y-102521185D02*
X134142857Y-102592614D01*
X134142857Y-102592614D02*
X134071429Y-102735471D01*
X134357143Y-115521185D02*
X134214286Y-115449757D01*
X134214286Y-115449757D02*
X134142857Y-115378328D01*
X134142857Y-115378328D02*
X134071429Y-115235471D01*
X134071429Y-115235471D02*
X134071429Y-115164042D01*
X134071429Y-115164042D02*
X134142857Y-115021185D01*
X134142857Y-115021185D02*
X134214286Y-114949757D01*
X134214286Y-114949757D02*
X134357143Y-114878328D01*
X134357143Y-114878328D02*
X134642857Y-114878328D01*
X134642857Y-114878328D02*
X134785715Y-114949757D01*
X134785715Y-114949757D02*
X134857143Y-115021185D01*
X134857143Y-115021185D02*
X134928572Y-115164042D01*
X134928572Y-115164042D02*
X134928572Y-115235471D01*
X134928572Y-115235471D02*
X134857143Y-115378328D01*
X134857143Y-115378328D02*
X134785715Y-115449757D01*
X134785715Y-115449757D02*
X134642857Y-115521185D01*
X134642857Y-115521185D02*
X134357143Y-115521185D01*
X134357143Y-115521185D02*
X134214286Y-115592614D01*
X134214286Y-115592614D02*
X134142857Y-115664042D01*
X134142857Y-115664042D02*
X134071429Y-115806900D01*
X134071429Y-115806900D02*
X134071429Y-116092614D01*
X134071429Y-116092614D02*
X134142857Y-116235471D01*
X134142857Y-116235471D02*
X134214286Y-116306900D01*
X134214286Y-116306900D02*
X134357143Y-116378328D01*
X134357143Y-116378328D02*
X134642857Y-116378328D01*
X134642857Y-116378328D02*
X134785715Y-116306900D01*
X134785715Y-116306900D02*
X134857143Y-116235471D01*
X134857143Y-116235471D02*
X134928572Y-116092614D01*
X134928572Y-116092614D02*
X134928572Y-115806900D01*
X134928572Y-115806900D02*
X134857143Y-115664042D01*
X134857143Y-115664042D02*
X134785715Y-115592614D01*
X134785715Y-115592614D02*
X134642857Y-115521185D01*
X105000000Y-114878328D02*
X106000000Y-114878328D01*
X106000000Y-114878328D02*
X105357143Y-116378328D01*
X105857143Y-101878328D02*
X105142857Y-101878328D01*
X105142857Y-101878328D02*
X105071429Y-102592614D01*
X105071429Y-102592614D02*
X105142857Y-102521185D01*
X105142857Y-102521185D02*
X105285715Y-102449757D01*
X105285715Y-102449757D02*
X105642857Y-102449757D01*
X105642857Y-102449757D02*
X105785715Y-102521185D01*
X105785715Y-102521185D02*
X105857143Y-102592614D01*
X105857143Y-102592614D02*
X105928572Y-102735471D01*
X105928572Y-102735471D02*
X105928572Y-103092614D01*
X105928572Y-103092614D02*
X105857143Y-103235471D01*
X105857143Y-103235471D02*
X105785715Y-103306900D01*
X105785715Y-103306900D02*
X105642857Y-103378328D01*
X105642857Y-103378328D02*
X105285715Y-103378328D01*
X105285715Y-103378328D02*
X105142857Y-103306900D01*
X105142857Y-103306900D02*
X105071429Y-103235471D01*
X134785715Y-86878328D02*
X134785715Y-87878328D01*
X134428572Y-86306900D02*
X134071429Y-87378328D01*
X134071429Y-87378328D02*
X135000000Y-87378328D01*
X134000000Y-73378328D02*
X134928572Y-73378328D01*
X134928572Y-73378328D02*
X134428572Y-73949757D01*
X134428572Y-73949757D02*
X134642857Y-73949757D01*
X134642857Y-73949757D02*
X134785715Y-74021185D01*
X134785715Y-74021185D02*
X134857143Y-74092614D01*
X134857143Y-74092614D02*
X134928572Y-74235471D01*
X134928572Y-74235471D02*
X134928572Y-74592614D01*
X134928572Y-74592614D02*
X134857143Y-74735471D01*
X134857143Y-74735471D02*
X134785715Y-74806900D01*
X134785715Y-74806900D02*
X134642857Y-74878328D01*
X134642857Y-74878328D02*
X134214286Y-74878328D01*
X134214286Y-74878328D02*
X134071429Y-74806900D01*
X134071429Y-74806900D02*
X134000000Y-74735471D01*
X134071429Y-60521185D02*
X134142857Y-60449757D01*
X134142857Y-60449757D02*
X134285715Y-60378328D01*
X134285715Y-60378328D02*
X134642857Y-60378328D01*
X134642857Y-60378328D02*
X134785715Y-60449757D01*
X134785715Y-60449757D02*
X134857143Y-60521185D01*
X134857143Y-60521185D02*
X134928572Y-60664042D01*
X134928572Y-60664042D02*
X134928572Y-60806900D01*
X134928572Y-60806900D02*
X134857143Y-61021185D01*
X134857143Y-61021185D02*
X134000000Y-61878328D01*
X134000000Y-61878328D02*
X134928572Y-61878328D01*
X105785715Y-86878328D02*
X105785715Y-87878328D01*
X105428572Y-86306900D02*
X105071429Y-87378328D01*
X105071429Y-87378328D02*
X106000000Y-87378328D01*
X105000000Y-73378328D02*
X105928572Y-73378328D01*
X105928572Y-73378328D02*
X105428572Y-73949757D01*
X105428572Y-73949757D02*
X105642857Y-73949757D01*
X105642857Y-73949757D02*
X105785715Y-74021185D01*
X105785715Y-74021185D02*
X105857143Y-74092614D01*
X105857143Y-74092614D02*
X105928572Y-74235471D01*
X105928572Y-74235471D02*
X105928572Y-74592614D01*
X105928572Y-74592614D02*
X105857143Y-74735471D01*
X105857143Y-74735471D02*
X105785715Y-74806900D01*
X105785715Y-74806900D02*
X105642857Y-74878328D01*
X105642857Y-74878328D02*
X105214286Y-74878328D01*
X105214286Y-74878328D02*
X105071429Y-74806900D01*
X105071429Y-74806900D02*
X105000000Y-74735471D01*
X105071429Y-60521185D02*
X105142857Y-60449757D01*
X105142857Y-60449757D02*
X105285715Y-60378328D01*
X105285715Y-60378328D02*
X105642857Y-60378328D01*
X105642857Y-60378328D02*
X105785715Y-60449757D01*
X105785715Y-60449757D02*
X105857143Y-60521185D01*
X105857143Y-60521185D02*
X105928572Y-60664042D01*
X105928572Y-60664042D02*
X105928572Y-60806900D01*
X105928572Y-60806900D02*
X105857143Y-61021185D01*
X105857143Y-61021185D02*
X105000000Y-61878328D01*
X105000000Y-61878328D02*
X105928572Y-61878328D01*
X134928572Y-48878328D02*
X134071429Y-48878328D01*
X134500000Y-48878328D02*
X134500000Y-47378328D01*
X134500000Y-47378328D02*
X134357143Y-47592614D01*
X134357143Y-47592614D02*
X134214286Y-47735471D01*
X134214286Y-47735471D02*
X134071429Y-47806900D01*
X105928572Y-48878328D02*
X105071429Y-48878328D01*
X105500000Y-48878328D02*
X105500000Y-47378328D01*
X105500000Y-47378328D02*
X105357143Y-47592614D01*
X105357143Y-47592614D02*
X105214286Y-47735471D01*
X105214286Y-47735471D02*
X105071429Y-47806900D01*
D11*
X113819047Y-160902219D02*
X113819047Y-159902219D01*
X113819047Y-159902219D02*
X114152380Y-160616504D01*
X114152380Y-160616504D02*
X114485713Y-159902219D01*
X114485713Y-159902219D02*
X114485713Y-160902219D01*
X115104761Y-160902219D02*
X115009523Y-160854600D01*
X115009523Y-160854600D02*
X114961904Y-160806980D01*
X114961904Y-160806980D02*
X114914285Y-160711742D01*
X114914285Y-160711742D02*
X114914285Y-160426028D01*
X114914285Y-160426028D02*
X114961904Y-160330790D01*
X114961904Y-160330790D02*
X115009523Y-160283171D01*
X115009523Y-160283171D02*
X115104761Y-160235552D01*
X115104761Y-160235552D02*
X115247618Y-160235552D01*
X115247618Y-160235552D02*
X115342856Y-160283171D01*
X115342856Y-160283171D02*
X115390475Y-160330790D01*
X115390475Y-160330790D02*
X115438094Y-160426028D01*
X115438094Y-160426028D02*
X115438094Y-160711742D01*
X115438094Y-160711742D02*
X115390475Y-160806980D01*
X115390475Y-160806980D02*
X115342856Y-160854600D01*
X115342856Y-160854600D02*
X115247618Y-160902219D01*
X115247618Y-160902219D02*
X115104761Y-160902219D01*
X116295237Y-160235552D02*
X116295237Y-160902219D01*
X115866666Y-160235552D02*
X115866666Y-160759361D01*
X115866666Y-160759361D02*
X115914285Y-160854600D01*
X115914285Y-160854600D02*
X116009523Y-160902219D01*
X116009523Y-160902219D02*
X116152380Y-160902219D01*
X116152380Y-160902219D02*
X116247618Y-160854600D01*
X116247618Y-160854600D02*
X116295237Y-160806980D01*
X116771428Y-160235552D02*
X116771428Y-160902219D01*
X116771428Y-160330790D02*
X116819047Y-160283171D01*
X116819047Y-160283171D02*
X116914285Y-160235552D01*
X116914285Y-160235552D02*
X117057142Y-160235552D01*
X117057142Y-160235552D02*
X117152380Y-160283171D01*
X117152380Y-160283171D02*
X117199999Y-160378409D01*
X117199999Y-160378409D02*
X117199999Y-160902219D01*
X117533333Y-160235552D02*
X117914285Y-160235552D01*
X117676190Y-159902219D02*
X117676190Y-160759361D01*
X117676190Y-160759361D02*
X117723809Y-160854600D01*
X117723809Y-160854600D02*
X117819047Y-160902219D01*
X117819047Y-160902219D02*
X117914285Y-160902219D01*
X118247619Y-160235552D02*
X118247619Y-161092695D01*
X118247619Y-161092695D02*
X118200000Y-161187933D01*
X118200000Y-161187933D02*
X118104762Y-161235552D01*
X118104762Y-161235552D02*
X118057143Y-161235552D01*
X118247619Y-159902219D02*
X118200000Y-159949838D01*
X118200000Y-159949838D02*
X118247619Y-159997457D01*
X118247619Y-159997457D02*
X118295238Y-159949838D01*
X118295238Y-159949838D02*
X118247619Y-159902219D01*
X118247619Y-159902219D02*
X118247619Y-159997457D01*
X118866666Y-160902219D02*
X118771428Y-160854600D01*
X118771428Y-160854600D02*
X118723809Y-160806980D01*
X118723809Y-160806980D02*
X118676190Y-160711742D01*
X118676190Y-160711742D02*
X118676190Y-160426028D01*
X118676190Y-160426028D02*
X118723809Y-160330790D01*
X118723809Y-160330790D02*
X118771428Y-160283171D01*
X118771428Y-160283171D02*
X118866666Y-160235552D01*
X118866666Y-160235552D02*
X119009523Y-160235552D01*
X119009523Y-160235552D02*
X119104761Y-160283171D01*
X119104761Y-160283171D02*
X119152380Y-160330790D01*
X119152380Y-160330790D02*
X119199999Y-160426028D01*
X119199999Y-160426028D02*
X119199999Y-160711742D01*
X119199999Y-160711742D02*
X119152380Y-160806980D01*
X119152380Y-160806980D02*
X119104761Y-160854600D01*
X119104761Y-160854600D02*
X119009523Y-160902219D01*
X119009523Y-160902219D02*
X118866666Y-160902219D01*
X119533333Y-160235552D02*
X119771428Y-160902219D01*
X120009523Y-160235552D02*
X119771428Y-160902219D01*
X119771428Y-160902219D02*
X119676190Y-161140314D01*
X119676190Y-161140314D02*
X119628571Y-161187933D01*
X119628571Y-161187933D02*
X119533333Y-161235552D01*
X121152381Y-160902219D02*
X121152381Y-159902219D01*
X121152381Y-159902219D02*
X121485714Y-160616504D01*
X121485714Y-160616504D02*
X121819047Y-159902219D01*
X121819047Y-159902219D02*
X121819047Y-160902219D01*
X122438095Y-160902219D02*
X122342857Y-160854600D01*
X122342857Y-160854600D02*
X122295238Y-160806980D01*
X122295238Y-160806980D02*
X122247619Y-160711742D01*
X122247619Y-160711742D02*
X122247619Y-160426028D01*
X122247619Y-160426028D02*
X122295238Y-160330790D01*
X122295238Y-160330790D02*
X122342857Y-160283171D01*
X122342857Y-160283171D02*
X122438095Y-160235552D01*
X122438095Y-160235552D02*
X122580952Y-160235552D01*
X122580952Y-160235552D02*
X122676190Y-160283171D01*
X122676190Y-160283171D02*
X122723809Y-160330790D01*
X122723809Y-160330790D02*
X122771428Y-160426028D01*
X122771428Y-160426028D02*
X122771428Y-160711742D01*
X122771428Y-160711742D02*
X122723809Y-160806980D01*
X122723809Y-160806980D02*
X122676190Y-160854600D01*
X122676190Y-160854600D02*
X122580952Y-160902219D01*
X122580952Y-160902219D02*
X122438095Y-160902219D01*
X123628571Y-160902219D02*
X123628571Y-159902219D01*
X123628571Y-160854600D02*
X123533333Y-160902219D01*
X123533333Y-160902219D02*
X123342857Y-160902219D01*
X123342857Y-160902219D02*
X123247619Y-160854600D01*
X123247619Y-160854600D02*
X123200000Y-160806980D01*
X123200000Y-160806980D02*
X123152381Y-160711742D01*
X123152381Y-160711742D02*
X123152381Y-160426028D01*
X123152381Y-160426028D02*
X123200000Y-160330790D01*
X123200000Y-160330790D02*
X123247619Y-160283171D01*
X123247619Y-160283171D02*
X123342857Y-160235552D01*
X123342857Y-160235552D02*
X123533333Y-160235552D01*
X123533333Y-160235552D02*
X123628571Y-160283171D01*
X124533333Y-160235552D02*
X124533333Y-160902219D01*
X124104762Y-160235552D02*
X124104762Y-160759361D01*
X124104762Y-160759361D02*
X124152381Y-160854600D01*
X124152381Y-160854600D02*
X124247619Y-160902219D01*
X124247619Y-160902219D02*
X124390476Y-160902219D01*
X124390476Y-160902219D02*
X124485714Y-160854600D01*
X124485714Y-160854600D02*
X124533333Y-160806980D01*
X125152381Y-160902219D02*
X125057143Y-160854600D01*
X125057143Y-160854600D02*
X125009524Y-160759361D01*
X125009524Y-160759361D02*
X125009524Y-159902219D01*
X125961905Y-160902219D02*
X125961905Y-160378409D01*
X125961905Y-160378409D02*
X125914286Y-160283171D01*
X125914286Y-160283171D02*
X125819048Y-160235552D01*
X125819048Y-160235552D02*
X125628572Y-160235552D01*
X125628572Y-160235552D02*
X125533334Y-160283171D01*
X125961905Y-160854600D02*
X125866667Y-160902219D01*
X125866667Y-160902219D02*
X125628572Y-160902219D01*
X125628572Y-160902219D02*
X125533334Y-160854600D01*
X125533334Y-160854600D02*
X125485715Y-160759361D01*
X125485715Y-160759361D02*
X125485715Y-160664123D01*
X125485715Y-160664123D02*
X125533334Y-160568885D01*
X125533334Y-160568885D02*
X125628572Y-160521266D01*
X125628572Y-160521266D02*
X125866667Y-160521266D01*
X125866667Y-160521266D02*
X125961905Y-160473647D01*
X126438096Y-160902219D02*
X126438096Y-160235552D01*
X126438096Y-160426028D02*
X126485715Y-160330790D01*
X126485715Y-160330790D02*
X126533334Y-160283171D01*
X126533334Y-160283171D02*
X126628572Y-160235552D01*
X126628572Y-160235552D02*
X126723810Y-160235552D01*
D12*
X117737423Y-127600000D02*
G75*
G02*
X115662577Y-127600000I-1037423J0D01*
G01*
X115662577Y-127600000D02*
G75*
G02*
X117737423Y-127600000I1037423J0D01*
G01*
D13*
X117125000Y-126100000D02*
X117500000Y-126250000D01*
X117900000Y-126600000D01*
X118150000Y-127000000D01*
X118275000Y-127600000D01*
X118150000Y-128200000D01*
X117900000Y-128600000D01*
X117500000Y-128950000D01*
X117125000Y-129100000D01*
X116700000Y-129175000D01*
X116300000Y-129100000D01*
X115900000Y-128950000D01*
X115500000Y-128600000D01*
X115250000Y-128200000D01*
X115125000Y-127600000D01*
X115250000Y-127000000D01*
X115500000Y-126600000D01*
X115900000Y-126250000D01*
X116300000Y-126100000D01*
X116700000Y-126025000D01*
X117125000Y-126100000D01*
G36*
X117125000Y-126100000D02*
G01*
X117500000Y-126250000D01*
X117900000Y-126600000D01*
X118150000Y-127000000D01*
X118275000Y-127600000D01*
X118150000Y-128200000D01*
X117900000Y-128600000D01*
X117500000Y-128950000D01*
X117125000Y-129100000D01*
X116700000Y-129175000D01*
X116300000Y-129100000D01*
X115900000Y-128950000D01*
X115500000Y-128600000D01*
X115250000Y-128200000D01*
X115125000Y-127600000D01*
X115250000Y-127000000D01*
X115500000Y-126600000D01*
X115900000Y-126250000D01*
X116300000Y-126100000D01*
X116700000Y-126025000D01*
X117125000Y-126100000D01*
G37*
D14*
X116825957Y-131491764D02*
X116981011Y-131496509D01*
X117068513Y-131509029D01*
X117105487Y-131533097D01*
X117108957Y-131572488D01*
X117101974Y-131605321D01*
X117091900Y-131689711D01*
X117079763Y-131858233D01*
X117066528Y-132093463D01*
X117053158Y-132377978D01*
X117040619Y-132694357D01*
X117038700Y-132748322D01*
X117002723Y-133777022D01*
X116164157Y-133777022D01*
X116130405Y-132773722D01*
X116118613Y-132455502D01*
X116105787Y-132164244D01*
X116092892Y-131918213D01*
X116080893Y-131735674D01*
X116070756Y-131634892D01*
X116070019Y-131630722D01*
X116043384Y-131491022D01*
X116586327Y-131491021D01*
X116825957Y-131491764D01*
G36*
X116825957Y-131491764D02*
G01*
X116981011Y-131496509D01*
X117068513Y-131509029D01*
X117105487Y-131533097D01*
X117108957Y-131572488D01*
X117101974Y-131605321D01*
X117091900Y-131689711D01*
X117079763Y-131858233D01*
X117066528Y-132093463D01*
X117053158Y-132377978D01*
X117040619Y-132694357D01*
X117038700Y-132748322D01*
X117002723Y-133777022D01*
X116164157Y-133777022D01*
X116130405Y-132773722D01*
X116118613Y-132455502D01*
X116105787Y-132164244D01*
X116092892Y-131918213D01*
X116080893Y-131735674D01*
X116070756Y-131634892D01*
X116070019Y-131630722D01*
X116043384Y-131491022D01*
X116586327Y-131491021D01*
X116825957Y-131491764D01*
G37*
X114997941Y-131515108D02*
X115326078Y-131638554D01*
X115589418Y-131823001D01*
X115761787Y-132038152D01*
X115837232Y-132234587D01*
X115880401Y-132486958D01*
X115887414Y-132753647D01*
X115854389Y-132993037D01*
X115851768Y-133002988D01*
X115736368Y-133257011D01*
X115547255Y-133485542D01*
X115312129Y-133656904D01*
X115256189Y-133684134D01*
X115080013Y-133737486D01*
X114840049Y-133778458D01*
X114573740Y-133803331D01*
X114318529Y-133808387D01*
X114141589Y-133794816D01*
X113984322Y-133771753D01*
X113960065Y-133125623D01*
X114836969Y-133125623D01*
X114838249Y-133262708D01*
X114850949Y-133333800D01*
X114879181Y-133356679D01*
X114927060Y-133349122D01*
X114944597Y-133343958D01*
X115075184Y-133280002D01*
X115155355Y-133218603D01*
X115220540Y-133111678D01*
X115267297Y-132955792D01*
X115274898Y-132905814D01*
X115263179Y-132692966D01*
X115179266Y-132538798D01*
X115030591Y-132455067D01*
X114984657Y-132446578D01*
X114925304Y-132442573D01*
X114887417Y-132460788D01*
X114865261Y-132519774D01*
X114853100Y-132638081D01*
X114845199Y-132834261D01*
X114842997Y-132904767D01*
X114836969Y-133125623D01*
X113960065Y-133125623D01*
X113950083Y-132859738D01*
X113937152Y-132548027D01*
X113922774Y-132255738D01*
X113908185Y-132004543D01*
X113894619Y-131816116D01*
X113885445Y-131725934D01*
X113855045Y-131504144D01*
X114193233Y-131467927D01*
X114616496Y-131456840D01*
X114997941Y-131515108D01*
G36*
X114997941Y-131515108D02*
G01*
X115326078Y-131638554D01*
X115589418Y-131823001D01*
X115761787Y-132038152D01*
X115837232Y-132234587D01*
X115880401Y-132486958D01*
X115887414Y-132753647D01*
X115854389Y-132993037D01*
X115851768Y-133002988D01*
X115736368Y-133257011D01*
X115547255Y-133485542D01*
X115312129Y-133656904D01*
X115256189Y-133684134D01*
X115080013Y-133737486D01*
X114840049Y-133778458D01*
X114573740Y-133803331D01*
X114318529Y-133808387D01*
X114141589Y-133794816D01*
X113984322Y-133771753D01*
X113960065Y-133125623D01*
X114836969Y-133125623D01*
X114838249Y-133262708D01*
X114850949Y-133333800D01*
X114879181Y-133356679D01*
X114927060Y-133349122D01*
X114944597Y-133343958D01*
X115075184Y-133280002D01*
X115155355Y-133218603D01*
X115220540Y-133111678D01*
X115267297Y-132955792D01*
X115274898Y-132905814D01*
X115263179Y-132692966D01*
X115179266Y-132538798D01*
X115030591Y-132455067D01*
X114984657Y-132446578D01*
X114925304Y-132442573D01*
X114887417Y-132460788D01*
X114865261Y-132519774D01*
X114853100Y-132638081D01*
X114845199Y-132834261D01*
X114842997Y-132904767D01*
X114836969Y-133125623D01*
X113960065Y-133125623D01*
X113950083Y-132859738D01*
X113937152Y-132548027D01*
X113922774Y-132255738D01*
X113908185Y-132004543D01*
X113894619Y-131816116D01*
X113885445Y-131725934D01*
X113855045Y-131504144D01*
X114193233Y-131467927D01*
X114616496Y-131456840D01*
X114997941Y-131515108D01*
G37*
X113523957Y-131491764D02*
X113679011Y-131496509D01*
X113766513Y-131509029D01*
X113803487Y-131533097D01*
X113806957Y-131572488D01*
X113799974Y-131605321D01*
X113789900Y-131689711D01*
X113777763Y-131858233D01*
X113764528Y-132093463D01*
X113751158Y-132377978D01*
X113738619Y-132694357D01*
X113736700Y-132748322D01*
X113700723Y-133777022D01*
X112862157Y-133777022D01*
X112828405Y-132773722D01*
X112816613Y-132455502D01*
X112803787Y-132164244D01*
X112790892Y-131918213D01*
X112778893Y-131735674D01*
X112768756Y-131634892D01*
X112768019Y-131630722D01*
X112741384Y-131491022D01*
X113284327Y-131491021D01*
X113523957Y-131491764D01*
G36*
X113523957Y-131491764D02*
G01*
X113679011Y-131496509D01*
X113766513Y-131509029D01*
X113803487Y-131533097D01*
X113806957Y-131572488D01*
X113799974Y-131605321D01*
X113789900Y-131689711D01*
X113777763Y-131858233D01*
X113764528Y-132093463D01*
X113751158Y-132377978D01*
X113738619Y-132694357D01*
X113736700Y-132748322D01*
X113700723Y-133777022D01*
X112862157Y-133777022D01*
X112828405Y-132773722D01*
X112816613Y-132455502D01*
X112803787Y-132164244D01*
X112790892Y-131918213D01*
X112778893Y-131735674D01*
X112768756Y-131634892D01*
X112768019Y-131630722D01*
X112741384Y-131491022D01*
X113284327Y-131491021D01*
X113523957Y-131491764D01*
G37*
X112612736Y-131491022D02*
X112579702Y-132138722D01*
X112566183Y-132446942D01*
X112555299Y-132777117D01*
X112548339Y-133084926D01*
X112546463Y-133281722D01*
X112546257Y-133777022D01*
X111992099Y-133777022D01*
X111962057Y-133102794D01*
X111712466Y-133465308D01*
X111599940Y-133627856D01*
X111512352Y-133752699D01*
X111463138Y-133820758D01*
X111457151Y-133827822D01*
X111426248Y-133790221D01*
X111348214Y-133689457D01*
X111236961Y-133543580D01*
X111173341Y-133459522D01*
X110895257Y-133091222D01*
X110880235Y-133434122D01*
X110865214Y-133777022D01*
X110368082Y-133777022D01*
X110341791Y-133561122D01*
X110331086Y-133437127D01*
X110318521Y-133234245D01*
X110305290Y-132975143D01*
X110292588Y-132682489D01*
X110285432Y-132492102D01*
X110273790Y-132203747D01*
X110260684Y-131947983D01*
X110247283Y-131743368D01*
X110234758Y-131608460D01*
X110226975Y-131565002D01*
X110229106Y-131528563D01*
X110280688Y-131506117D01*
X110398344Y-131494628D01*
X110598692Y-131491062D01*
X110632097Y-131491022D01*
X111065609Y-131491022D01*
X111193654Y-131770711D01*
X111276375Y-131941936D01*
X111355133Y-132089567D01*
X111397544Y-132158682D01*
X111436517Y-132206265D01*
X111471824Y-132212225D01*
X111515765Y-132163719D01*
X111580640Y-132047902D01*
X111665362Y-131878993D01*
X111857336Y-131491021D01*
X112235036Y-131491021D01*
X112612736Y-131491022D01*
G36*
X112612736Y-131491022D02*
G01*
X112579702Y-132138722D01*
X112566183Y-132446942D01*
X112555299Y-132777117D01*
X112548339Y-133084926D01*
X112546463Y-133281722D01*
X112546257Y-133777022D01*
X111992099Y-133777022D01*
X111962057Y-133102794D01*
X111712466Y-133465308D01*
X111599940Y-133627856D01*
X111512352Y-133752699D01*
X111463138Y-133820758D01*
X111457151Y-133827822D01*
X111426248Y-133790221D01*
X111348214Y-133689457D01*
X111236961Y-133543580D01*
X111173341Y-133459522D01*
X110895257Y-133091222D01*
X110880235Y-133434122D01*
X110865214Y-133777022D01*
X110368082Y-133777022D01*
X110341791Y-133561122D01*
X110331086Y-133437127D01*
X110318521Y-133234245D01*
X110305290Y-132975143D01*
X110292588Y-132682489D01*
X110285432Y-132492102D01*
X110273790Y-132203747D01*
X110260684Y-131947983D01*
X110247283Y-131743368D01*
X110234758Y-131608460D01*
X110226975Y-131565002D01*
X110229106Y-131528563D01*
X110280688Y-131506117D01*
X110398344Y-131494628D01*
X110598692Y-131491062D01*
X110632097Y-131491022D01*
X111065609Y-131491022D01*
X111193654Y-131770711D01*
X111276375Y-131941936D01*
X111355133Y-132089567D01*
X111397544Y-132158682D01*
X111436517Y-132206265D01*
X111471824Y-132212225D01*
X111515765Y-132163719D01*
X111580640Y-132047902D01*
X111665362Y-131878993D01*
X111857336Y-131491021D01*
X112235036Y-131491021D01*
X112612736Y-131491022D01*
G37*
X134306852Y-131522732D02*
X134506744Y-131532887D01*
X134655606Y-131554528D01*
X134778658Y-131590791D01*
X134856657Y-131623648D01*
X135089821Y-131753751D01*
X135239205Y-131902174D01*
X135322413Y-132093826D01*
X135355644Y-132329610D01*
X135362226Y-132522780D01*
X135346027Y-132656442D01*
X135298331Y-132771709D01*
X135242927Y-132861369D01*
X135157272Y-132980124D01*
X135090976Y-133053180D01*
X135071836Y-133064199D01*
X135000461Y-133089162D01*
X134962486Y-133110532D01*
X134935789Y-133150832D01*
X134960040Y-133220603D01*
X135043445Y-133337030D01*
X135108619Y-133416588D01*
X135215732Y-133550005D01*
X135287207Y-133649749D01*
X135307632Y-133694305D01*
X135307590Y-133694344D01*
X135255309Y-133724738D01*
X135139938Y-133785458D01*
X135026635Y-133843094D01*
X134871058Y-133915320D01*
X134777674Y-133939519D01*
X134721934Y-133920563D01*
X134708139Y-133906300D01*
X134653980Y-133826596D01*
X134571992Y-133690393D01*
X134500981Y-133565016D01*
X134350497Y-133292022D01*
X134348657Y-133825422D01*
X133500962Y-133825422D01*
X133457196Y-132810535D01*
X134348739Y-132810535D01*
X134359960Y-132928580D01*
X134379023Y-132975255D01*
X134450966Y-132985091D01*
X134562203Y-132946195D01*
X134640757Y-132896915D01*
X134700351Y-132795341D01*
X134688508Y-132667307D01*
X134611652Y-132551620D01*
X134579490Y-132526814D01*
X134473587Y-132478108D01*
X134401690Y-132477841D01*
X134371509Y-132543365D01*
X134353224Y-132668196D01*
X134348739Y-132810535D01*
X133457196Y-132810535D01*
X133452218Y-132695122D01*
X133438755Y-132367168D01*
X133428050Y-132074741D01*
X133420535Y-131832591D01*
X133416644Y-131655466D01*
X133416809Y-131558115D01*
X133418422Y-131544098D01*
X133472012Y-131535806D01*
X133606701Y-131528658D01*
X133801989Y-131523431D01*
X134030713Y-131520926D01*
X134306852Y-131522732D01*
G36*
X134306852Y-131522732D02*
G01*
X134506744Y-131532887D01*
X134655606Y-131554528D01*
X134778658Y-131590791D01*
X134856657Y-131623648D01*
X135089821Y-131753751D01*
X135239205Y-131902174D01*
X135322413Y-132093826D01*
X135355644Y-132329610D01*
X135362226Y-132522780D01*
X135346027Y-132656442D01*
X135298331Y-132771709D01*
X135242927Y-132861369D01*
X135157272Y-132980124D01*
X135090976Y-133053180D01*
X135071836Y-133064199D01*
X135000461Y-133089162D01*
X134962486Y-133110532D01*
X134935789Y-133150832D01*
X134960040Y-133220603D01*
X135043445Y-133337030D01*
X135108619Y-133416588D01*
X135215732Y-133550005D01*
X135287207Y-133649749D01*
X135307632Y-133694305D01*
X135307590Y-133694344D01*
X135255309Y-133724738D01*
X135139938Y-133785458D01*
X135026635Y-133843094D01*
X134871058Y-133915320D01*
X134777674Y-133939519D01*
X134721934Y-133920563D01*
X134708139Y-133906300D01*
X134653980Y-133826596D01*
X134571992Y-133690393D01*
X134500981Y-133565016D01*
X134350497Y-133292022D01*
X134348657Y-133825422D01*
X133500962Y-133825422D01*
X133457196Y-132810535D01*
X134348739Y-132810535D01*
X134359960Y-132928580D01*
X134379023Y-132975255D01*
X134450966Y-132985091D01*
X134562203Y-132946195D01*
X134640757Y-132896915D01*
X134700351Y-132795341D01*
X134688508Y-132667307D01*
X134611652Y-132551620D01*
X134579490Y-132526814D01*
X134473587Y-132478108D01*
X134401690Y-132477841D01*
X134371509Y-132543365D01*
X134353224Y-132668196D01*
X134348739Y-132810535D01*
X133457196Y-132810535D01*
X133452218Y-132695122D01*
X133438755Y-132367168D01*
X133428050Y-132074741D01*
X133420535Y-131832591D01*
X133416644Y-131655466D01*
X133416809Y-131558115D01*
X133418422Y-131544098D01*
X133472012Y-131535806D01*
X133606701Y-131528658D01*
X133801989Y-131523431D01*
X134030713Y-131520926D01*
X134306852Y-131522732D01*
G37*
X133192425Y-131907721D02*
X133180432Y-132155477D01*
X133164661Y-132318612D01*
X133135557Y-132413944D01*
X133083564Y-132458288D01*
X132999129Y-132468460D01*
X132877699Y-132461619D01*
X132726608Y-132454531D01*
X132650812Y-132468085D01*
X132624415Y-132513833D01*
X132621457Y-132575919D01*
X132628792Y-132653425D01*
X132667971Y-132692530D01*
X132764752Y-132706287D01*
X132881807Y-132707822D01*
X133142157Y-132707822D01*
X133110407Y-132866571D01*
X133088080Y-132991126D01*
X133078658Y-133069354D01*
X133078657Y-133069771D01*
X133033240Y-133096284D01*
X132918334Y-133112184D01*
X132850057Y-133114222D01*
X132709524Y-133118512D01*
X132642968Y-133144028D01*
X132622787Y-133209736D01*
X132621457Y-133271323D01*
X132621457Y-133428425D01*
X132900848Y-133411023D01*
X133180239Y-133393622D01*
X133148176Y-133571422D01*
X133121005Y-133700654D01*
X133096794Y-133782455D01*
X133094386Y-133787322D01*
X133038247Y-133801644D01*
X132900375Y-133813509D01*
X132700632Y-133821790D01*
X132458876Y-133825361D01*
X132422204Y-133825422D01*
X131771747Y-133825422D01*
X131734552Y-132750139D01*
X131722292Y-132426836D01*
X131709221Y-132135975D01*
X131696226Y-131893593D01*
X131684193Y-131715729D01*
X131674009Y-131618423D01*
X131671372Y-131607139D01*
X131679221Y-131580674D01*
X131734565Y-131561802D01*
X131849837Y-131549407D01*
X132037470Y-131542377D01*
X132309895Y-131539597D01*
X132427182Y-131539421D01*
X133208978Y-131539421D01*
X133192425Y-131907721D01*
G36*
X133192425Y-131907721D02*
G01*
X133180432Y-132155477D01*
X133164661Y-132318612D01*
X133135557Y-132413944D01*
X133083564Y-132458288D01*
X132999129Y-132468460D01*
X132877699Y-132461619D01*
X132726608Y-132454531D01*
X132650812Y-132468085D01*
X132624415Y-132513833D01*
X132621457Y-132575919D01*
X132628792Y-132653425D01*
X132667971Y-132692530D01*
X132764752Y-132706287D01*
X132881807Y-132707822D01*
X133142157Y-132707822D01*
X133110407Y-132866571D01*
X133088080Y-132991126D01*
X133078658Y-133069354D01*
X133078657Y-133069771D01*
X133033240Y-133096284D01*
X132918334Y-133112184D01*
X132850057Y-133114222D01*
X132709524Y-133118512D01*
X132642968Y-133144028D01*
X132622787Y-133209736D01*
X132621457Y-133271323D01*
X132621457Y-133428425D01*
X132900848Y-133411023D01*
X133180239Y-133393622D01*
X133148176Y-133571422D01*
X133121005Y-133700654D01*
X133096794Y-133782455D01*
X133094386Y-133787322D01*
X133038247Y-133801644D01*
X132900375Y-133813509D01*
X132700632Y-133821790D01*
X132458876Y-133825361D01*
X132422204Y-133825422D01*
X131771747Y-133825422D01*
X131734552Y-132750139D01*
X131722292Y-132426836D01*
X131709221Y-132135975D01*
X131696226Y-131893593D01*
X131684193Y-131715729D01*
X131674009Y-131618423D01*
X131671372Y-131607139D01*
X131679221Y-131580674D01*
X131734565Y-131561802D01*
X131849837Y-131549407D01*
X132037470Y-131542377D01*
X132309895Y-131539597D01*
X132427182Y-131539421D01*
X133208978Y-131539421D01*
X133192425Y-131907721D01*
G37*
X131369620Y-131851673D02*
X131394918Y-132106047D01*
X131404431Y-132276297D01*
X131393306Y-132379313D01*
X131356688Y-132431980D01*
X131289723Y-132451186D01*
X131196534Y-132453822D01*
X130950863Y-132490998D01*
X130751312Y-132592082D01*
X130610155Y-132741409D01*
X130539665Y-132923310D01*
X130552118Y-133122121D01*
X130593545Y-133223462D01*
X130671661Y-133303334D01*
X130802238Y-133387712D01*
X130940643Y-133451179D01*
X131026187Y-133469822D01*
X131038658Y-133424059D01*
X131037357Y-133305022D01*
X131025296Y-133165022D01*
X130990811Y-132860222D01*
X131604349Y-132860222D01*
X131572424Y-133330122D01*
X131556564Y-133537520D01*
X131540564Y-133703203D01*
X131526877Y-133803466D01*
X131521502Y-133821864D01*
X131459325Y-133838031D01*
X131323201Y-133849525D01*
X131140689Y-133856087D01*
X130939346Y-133857460D01*
X130746732Y-133853384D01*
X130590403Y-133843602D01*
X130509411Y-133831348D01*
X130186147Y-133701553D01*
X129929919Y-133500652D01*
X129748575Y-133237513D01*
X129649966Y-132921004D01*
X129640640Y-132849917D01*
X129645918Y-132489091D01*
X129737996Y-132175008D01*
X129913776Y-131913817D01*
X130170165Y-131711662D01*
X130230319Y-131679122D01*
X130393780Y-131604865D01*
X130544633Y-131562265D01*
X130723072Y-131543196D01*
X130921529Y-131539422D01*
X131336983Y-131539422D01*
X131369620Y-131851673D01*
G36*
X131369620Y-131851673D02*
G01*
X131394918Y-132106047D01*
X131404431Y-132276297D01*
X131393306Y-132379313D01*
X131356688Y-132431980D01*
X131289723Y-132451186D01*
X131196534Y-132453822D01*
X130950863Y-132490998D01*
X130751312Y-132592082D01*
X130610155Y-132741409D01*
X130539665Y-132923310D01*
X130552118Y-133122121D01*
X130593545Y-133223462D01*
X130671661Y-133303334D01*
X130802238Y-133387712D01*
X130940643Y-133451179D01*
X131026187Y-133469822D01*
X131038658Y-133424059D01*
X131037357Y-133305022D01*
X131025296Y-133165022D01*
X130990811Y-132860222D01*
X131604349Y-132860222D01*
X131572424Y-133330122D01*
X131556564Y-133537520D01*
X131540564Y-133703203D01*
X131526877Y-133803466D01*
X131521502Y-133821864D01*
X131459325Y-133838031D01*
X131323201Y-133849525D01*
X131140689Y-133856087D01*
X130939346Y-133857460D01*
X130746732Y-133853384D01*
X130590403Y-133843602D01*
X130509411Y-133831348D01*
X130186147Y-133701553D01*
X129929919Y-133500652D01*
X129748575Y-133237513D01*
X129649966Y-132921004D01*
X129640640Y-132849917D01*
X129645918Y-132489091D01*
X129737996Y-132175008D01*
X129913776Y-131913817D01*
X130170165Y-131711662D01*
X130230319Y-131679122D01*
X130393780Y-131604865D01*
X130544633Y-131562265D01*
X130723072Y-131543196D01*
X130921529Y-131539422D01*
X131336983Y-131539422D01*
X131369620Y-131851673D01*
G37*
X129205883Y-131539390D02*
X129473310Y-131539422D01*
X129440389Y-132263322D01*
X129425540Y-132569169D01*
X129408794Y-132880943D01*
X129392109Y-133163986D01*
X129377442Y-133383637D01*
X129376162Y-133400770D01*
X129344857Y-133814319D01*
X128847636Y-133438870D01*
X128652594Y-133294451D01*
X128485122Y-133175778D01*
X128362603Y-133094802D01*
X128302417Y-133063473D01*
X128301536Y-133063422D01*
X128278103Y-133110097D01*
X128260824Y-133233718D01*
X128252858Y-133409671D01*
X128252657Y-133444422D01*
X128252657Y-133825422D01*
X127806031Y-133825422D01*
X127776197Y-133431722D01*
X127761858Y-133220753D01*
X127745473Y-132945485D01*
X127729159Y-132643133D01*
X127716241Y-132377622D01*
X127703026Y-132121945D01*
X127688563Y-131897812D01*
X127674496Y-131727598D01*
X127662468Y-131633677D01*
X127661164Y-131628322D01*
X127659122Y-131582086D01*
X127698324Y-131555255D01*
X127798231Y-131542736D01*
X127978302Y-131539440D01*
X128001035Y-131539422D01*
X128365861Y-131539421D01*
X128670426Y-131803271D01*
X128974991Y-132067120D01*
X128938457Y-131539358D01*
X129205883Y-131539390D01*
G36*
X129205883Y-131539390D02*
G01*
X129473310Y-131539422D01*
X129440389Y-132263322D01*
X129425540Y-132569169D01*
X129408794Y-132880943D01*
X129392109Y-133163986D01*
X129377442Y-133383637D01*
X129376162Y-133400770D01*
X129344857Y-133814319D01*
X128847636Y-133438870D01*
X128652594Y-133294451D01*
X128485122Y-133175778D01*
X128362603Y-133094802D01*
X128302417Y-133063473D01*
X128301536Y-133063422D01*
X128278103Y-133110097D01*
X128260824Y-133233718D01*
X128252858Y-133409671D01*
X128252657Y-133444422D01*
X128252657Y-133825422D01*
X127806031Y-133825422D01*
X127776197Y-133431722D01*
X127761858Y-133220753D01*
X127745473Y-132945485D01*
X127729159Y-132643133D01*
X127716241Y-132377622D01*
X127703026Y-132121945D01*
X127688563Y-131897812D01*
X127674496Y-131727598D01*
X127662468Y-131633677D01*
X127661164Y-131628322D01*
X127659122Y-131582086D01*
X127698324Y-131555255D01*
X127798231Y-131542736D01*
X127978302Y-131539440D01*
X128001035Y-131539422D01*
X128365861Y-131539421D01*
X128670426Y-131803271D01*
X128974991Y-132067120D01*
X128938457Y-131539358D01*
X129205883Y-131539390D01*
G37*
X126950662Y-131531502D02*
X127198838Y-131686600D01*
X127391907Y-131917026D01*
X127445970Y-132019920D01*
X127512396Y-132247992D01*
X127541626Y-132531133D01*
X127533987Y-132829997D01*
X127489808Y-133105237D01*
X127435588Y-133266622D01*
X127274168Y-133547826D01*
X127080981Y-133737642D01*
X126844308Y-133844282D01*
X126566079Y-133876032D01*
X126297658Y-133844155D01*
X126119955Y-133768001D01*
X125981785Y-133674252D01*
X125877733Y-133572543D01*
X125780040Y-133431379D01*
X125700464Y-133292022D01*
X125642998Y-133166942D01*
X125608497Y-133028847D01*
X125591673Y-132846875D01*
X125591304Y-132828664D01*
X126304579Y-132828664D01*
X126313943Y-133007247D01*
X126361447Y-133174612D01*
X126441907Y-133303341D01*
X126550135Y-133366017D01*
X126576257Y-133368222D01*
X126673220Y-133328565D01*
X126761352Y-133237217D01*
X126830771Y-133067356D01*
X126849867Y-132872828D01*
X126820245Y-132690715D01*
X126743509Y-132558102D01*
X126731495Y-132547505D01*
X126635733Y-132479879D01*
X126576257Y-132453822D01*
X126511880Y-132482836D01*
X126421018Y-132547505D01*
X126338542Y-132666277D01*
X126304579Y-132828664D01*
X125591304Y-132828664D01*
X125587308Y-132631622D01*
X125589860Y-132401146D01*
X125603718Y-132240049D01*
X125635196Y-132116231D01*
X125690606Y-131997593D01*
X125723275Y-131940328D01*
X125873066Y-131730871D01*
X126046889Y-131593010D01*
X126278051Y-131502774D01*
X126359705Y-131482290D01*
X126665057Y-131460482D01*
X126950662Y-131531502D01*
G36*
X126950662Y-131531502D02*
G01*
X127198838Y-131686600D01*
X127391907Y-131917026D01*
X127445970Y-132019920D01*
X127512396Y-132247992D01*
X127541626Y-132531133D01*
X127533987Y-132829997D01*
X127489808Y-133105237D01*
X127435588Y-133266622D01*
X127274168Y-133547826D01*
X127080981Y-133737642D01*
X126844308Y-133844282D01*
X126566079Y-133876032D01*
X126297658Y-133844155D01*
X126119955Y-133768001D01*
X125981785Y-133674252D01*
X125877733Y-133572543D01*
X125780040Y-133431379D01*
X125700464Y-133292022D01*
X125642998Y-133166942D01*
X125608497Y-133028847D01*
X125591673Y-132846875D01*
X125591304Y-132828664D01*
X126304579Y-132828664D01*
X126313943Y-133007247D01*
X126361447Y-133174612D01*
X126441907Y-133303341D01*
X126550135Y-133366017D01*
X126576257Y-133368222D01*
X126673220Y-133328565D01*
X126761352Y-133237217D01*
X126830771Y-133067356D01*
X126849867Y-132872828D01*
X126820245Y-132690715D01*
X126743509Y-132558102D01*
X126731495Y-132547505D01*
X126635733Y-132479879D01*
X126576257Y-132453822D01*
X126511880Y-132482836D01*
X126421018Y-132547505D01*
X126338542Y-132666277D01*
X126304579Y-132828664D01*
X125591304Y-132828664D01*
X125587308Y-132631622D01*
X125589860Y-132401146D01*
X125603718Y-132240049D01*
X125635196Y-132116231D01*
X125690606Y-131997593D01*
X125723275Y-131940328D01*
X125873066Y-131730871D01*
X126046889Y-131593010D01*
X126278051Y-131502774D01*
X126359705Y-131482290D01*
X126665057Y-131460482D01*
X126950662Y-131531502D01*
G37*
X125423536Y-131539422D02*
X125390502Y-132187122D01*
X125376983Y-132495342D01*
X125366099Y-132825517D01*
X125359139Y-133133326D01*
X125357263Y-133330122D01*
X125357057Y-133825422D01*
X124802899Y-133825422D01*
X124772857Y-133151194D01*
X124523266Y-133513708D01*
X124410740Y-133676256D01*
X124323152Y-133801099D01*
X124273938Y-133869158D01*
X124267951Y-133876222D01*
X124237048Y-133838621D01*
X124159014Y-133737857D01*
X124047761Y-133591980D01*
X123984141Y-133507922D01*
X123706057Y-133139622D01*
X123691035Y-133482522D01*
X123676014Y-133825422D01*
X123178882Y-133825422D01*
X123152591Y-133609522D01*
X123141886Y-133485527D01*
X123129321Y-133282645D01*
X123116090Y-133023543D01*
X123103388Y-132730889D01*
X123096232Y-132540502D01*
X123084590Y-132252147D01*
X123071484Y-131996383D01*
X123058083Y-131791768D01*
X123045558Y-131656860D01*
X123037775Y-131613402D01*
X123039906Y-131576963D01*
X123091488Y-131554517D01*
X123209144Y-131543028D01*
X123409492Y-131539462D01*
X123442897Y-131539422D01*
X123876409Y-131539422D01*
X124004454Y-131819111D01*
X124087175Y-131990336D01*
X124165933Y-132137967D01*
X124208344Y-132207082D01*
X124247317Y-132254665D01*
X124282624Y-132260625D01*
X124326565Y-132212119D01*
X124391440Y-132096302D01*
X124476162Y-131927393D01*
X124668136Y-131539421D01*
X125045836Y-131539421D01*
X125423536Y-131539422D01*
G36*
X125423536Y-131539422D02*
G01*
X125390502Y-132187122D01*
X125376983Y-132495342D01*
X125366099Y-132825517D01*
X125359139Y-133133326D01*
X125357263Y-133330122D01*
X125357057Y-133825422D01*
X124802899Y-133825422D01*
X124772857Y-133151194D01*
X124523266Y-133513708D01*
X124410740Y-133676256D01*
X124323152Y-133801099D01*
X124273938Y-133869158D01*
X124267951Y-133876222D01*
X124237048Y-133838621D01*
X124159014Y-133737857D01*
X124047761Y-133591980D01*
X123984141Y-133507922D01*
X123706057Y-133139622D01*
X123691035Y-133482522D01*
X123676014Y-133825422D01*
X123178882Y-133825422D01*
X123152591Y-133609522D01*
X123141886Y-133485527D01*
X123129321Y-133282645D01*
X123116090Y-133023543D01*
X123103388Y-132730889D01*
X123096232Y-132540502D01*
X123084590Y-132252147D01*
X123071484Y-131996383D01*
X123058083Y-131791768D01*
X123045558Y-131656860D01*
X123037775Y-131613402D01*
X123039906Y-131576963D01*
X123091488Y-131554517D01*
X123209144Y-131543028D01*
X123409492Y-131539462D01*
X123442897Y-131539422D01*
X123876409Y-131539422D01*
X124004454Y-131819111D01*
X124087175Y-131990336D01*
X124165933Y-132137967D01*
X124208344Y-132207082D01*
X124247317Y-132254665D01*
X124282624Y-132260625D01*
X124326565Y-132212119D01*
X124391440Y-132096302D01*
X124476162Y-131927393D01*
X124668136Y-131539421D01*
X125045836Y-131539421D01*
X125423536Y-131539422D01*
G37*
D15*
X119000000Y-145000000D03*
D16*
X131500000Y-145000000D03*
X127500000Y-120200000D03*
X112500000Y-120200000D03*
X112500000Y-107000000D03*
X127500000Y-107000000D03*
X127500000Y-91800000D03*
X112500000Y-91800000D03*
X112500000Y-78600000D03*
X127500000Y-78600000D03*
X127500000Y-65500000D03*
X112500000Y-65500000D03*
X127500000Y-52400000D03*
X112500000Y-52400000D03*
D17*
X132600000Y-38000000D03*
X107400000Y-38000000D03*
X132600000Y-160500000D03*
X107400000Y-160500000D03*
D18*
X120000000Y-132750000D03*
D19*
X134500000Y-120200000D03*
X134500000Y-107000000D03*
X134500000Y-91800000D03*
X134500000Y-78600000D03*
X134500000Y-65500000D03*
X134500000Y-52400000D03*
X105500000Y-120200000D03*
X105500000Y-107000000D03*
X105500000Y-91800000D03*
X105500000Y-78600000D03*
X105500000Y-65500000D03*
X105500000Y-52400000D03*
M02*
