G04 #@! TF.GenerationSoftware,KiCad,Pcbnew,8.0.4*
G04 #@! TF.CreationDate,2024-08-06T17:15:24+01:00*
G04 #@! TF.ProjectId,MidiMonger_panel,4d696469-4d6f-46e6-9765-725f70616e65,rev?*
G04 #@! TF.SameCoordinates,Original*
G04 #@! TF.FileFunction,Copper,L2,Bot*
G04 #@! TF.FilePolarity,Positive*
%FSLAX46Y46*%
G04 Gerber Fmt 4.6, Leading zero omitted, Abs format (unit mm)*
G04 Created by KiCad (PCBNEW 8.0.4) date 2024-08-06 17:15:24*
%MOMM*%
%LPD*%
G01*
G04 APERTURE LIST*
G04 #@! TA.AperFunction,WasherPad*
%ADD10C,6.200000*%
G04 #@! TD*
G04 APERTURE END LIST*
D10*
X119000000Y-145000000D03*
G04 #@! TA.AperFunction,NonConductor*
G36*
X140016621Y-35095502D02*
G01*
X140063114Y-35149158D01*
X140074500Y-35201500D01*
X140074500Y-163298500D01*
X140054498Y-163366621D01*
X140000842Y-163413114D01*
X139948500Y-163424500D01*
X100051500Y-163424500D01*
X99983379Y-163404498D01*
X99936886Y-163350842D01*
X99925500Y-163298500D01*
X99925500Y-160378709D01*
X104649500Y-160378709D01*
X104649500Y-160621290D01*
X104681160Y-160861782D01*
X104743944Y-161096095D01*
X104743945Y-161096097D01*
X104743946Y-161096100D01*
X104836776Y-161320212D01*
X104836777Y-161320213D01*
X104836782Y-161320224D01*
X104958061Y-161530285D01*
X104958063Y-161530288D01*
X104958064Y-161530289D01*
X105105735Y-161722738D01*
X105105739Y-161722742D01*
X105105744Y-161722748D01*
X105277251Y-161894255D01*
X105277256Y-161894259D01*
X105277262Y-161894265D01*
X105469711Y-162041936D01*
X105469714Y-162041938D01*
X105679775Y-162163217D01*
X105679779Y-162163218D01*
X105679788Y-162163224D01*
X105903900Y-162256054D01*
X106138211Y-162318838D01*
X106138215Y-162318838D01*
X106138217Y-162318839D01*
X106200202Y-162326999D01*
X106378712Y-162350500D01*
X106378719Y-162350500D01*
X108421281Y-162350500D01*
X108421288Y-162350500D01*
X108638637Y-162321885D01*
X108661782Y-162318839D01*
X108661782Y-162318838D01*
X108661789Y-162318838D01*
X108896100Y-162256054D01*
X109120212Y-162163224D01*
X109330289Y-162041936D01*
X109522738Y-161894265D01*
X109694265Y-161722738D01*
X109841936Y-161530289D01*
X109963224Y-161320212D01*
X110056054Y-161096100D01*
X110118838Y-160861789D01*
X110150500Y-160621288D01*
X110150500Y-160378712D01*
X110150500Y-160378709D01*
X129849500Y-160378709D01*
X129849500Y-160621290D01*
X129881160Y-160861782D01*
X129943944Y-161096095D01*
X129943945Y-161096097D01*
X129943946Y-161096100D01*
X130036776Y-161320212D01*
X130036777Y-161320213D01*
X130036782Y-161320224D01*
X130158061Y-161530285D01*
X130158063Y-161530288D01*
X130158064Y-161530289D01*
X130305735Y-161722738D01*
X130305739Y-161722742D01*
X130305744Y-161722748D01*
X130477251Y-161894255D01*
X130477256Y-161894259D01*
X130477262Y-161894265D01*
X130669711Y-162041936D01*
X130669714Y-162041938D01*
X130879775Y-162163217D01*
X130879779Y-162163218D01*
X130879788Y-162163224D01*
X131103900Y-162256054D01*
X131338211Y-162318838D01*
X131338215Y-162318838D01*
X131338217Y-162318839D01*
X131400202Y-162326999D01*
X131578712Y-162350500D01*
X131578719Y-162350500D01*
X133621281Y-162350500D01*
X133621288Y-162350500D01*
X133838637Y-162321885D01*
X133861782Y-162318839D01*
X133861782Y-162318838D01*
X133861789Y-162318838D01*
X134096100Y-162256054D01*
X134320212Y-162163224D01*
X134530289Y-162041936D01*
X134722738Y-161894265D01*
X134894265Y-161722738D01*
X135041936Y-161530289D01*
X135163224Y-161320212D01*
X135256054Y-161096100D01*
X135318838Y-160861789D01*
X135350500Y-160621288D01*
X135350500Y-160378712D01*
X135318838Y-160138211D01*
X135256054Y-159903900D01*
X135163224Y-159679788D01*
X135163218Y-159679779D01*
X135163217Y-159679775D01*
X135041938Y-159469714D01*
X135041936Y-159469711D01*
X134894265Y-159277262D01*
X134894259Y-159277256D01*
X134894255Y-159277251D01*
X134722748Y-159105744D01*
X134722742Y-159105739D01*
X134722738Y-159105735D01*
X134530289Y-158958064D01*
X134530288Y-158958063D01*
X134530285Y-158958061D01*
X134320224Y-158836782D01*
X134320216Y-158836778D01*
X134320212Y-158836776D01*
X134096100Y-158743946D01*
X134096097Y-158743945D01*
X134096095Y-158743944D01*
X133861782Y-158681160D01*
X133621290Y-158649500D01*
X133621288Y-158649500D01*
X131578712Y-158649500D01*
X131578709Y-158649500D01*
X131338217Y-158681160D01*
X131103904Y-158743944D01*
X131103900Y-158743946D01*
X130879786Y-158836777D01*
X130879775Y-158836782D01*
X130669714Y-158958061D01*
X130477262Y-159105735D01*
X130477251Y-159105744D01*
X130305744Y-159277251D01*
X130305735Y-159277262D01*
X130158061Y-159469714D01*
X130036782Y-159679775D01*
X130036777Y-159679786D01*
X129943946Y-159903900D01*
X129943944Y-159903904D01*
X129881160Y-160138217D01*
X129849500Y-160378709D01*
X110150500Y-160378709D01*
X110118838Y-160138211D01*
X110056054Y-159903900D01*
X109963224Y-159679788D01*
X109963218Y-159679779D01*
X109963217Y-159679775D01*
X109841938Y-159469714D01*
X109841936Y-159469711D01*
X109694265Y-159277262D01*
X109694259Y-159277256D01*
X109694255Y-159277251D01*
X109522748Y-159105744D01*
X109522742Y-159105739D01*
X109522738Y-159105735D01*
X109330289Y-158958064D01*
X109330288Y-158958063D01*
X109330285Y-158958061D01*
X109120224Y-158836782D01*
X109120216Y-158836778D01*
X109120212Y-158836776D01*
X108896100Y-158743946D01*
X108896097Y-158743945D01*
X108896095Y-158743944D01*
X108661782Y-158681160D01*
X108421290Y-158649500D01*
X108421288Y-158649500D01*
X106378712Y-158649500D01*
X106378709Y-158649500D01*
X106138217Y-158681160D01*
X105903904Y-158743944D01*
X105903900Y-158743946D01*
X105679786Y-158836777D01*
X105679775Y-158836782D01*
X105469714Y-158958061D01*
X105277262Y-159105735D01*
X105277251Y-159105744D01*
X105105744Y-159277251D01*
X105105735Y-159277262D01*
X104958061Y-159469714D01*
X104836782Y-159679775D01*
X104836777Y-159679786D01*
X104743946Y-159903900D01*
X104743944Y-159903904D01*
X104681160Y-160138217D01*
X104649500Y-160378709D01*
X99925500Y-160378709D01*
X99925500Y-141639711D01*
X106123914Y-141639711D01*
X106124500Y-141643587D01*
X106124500Y-148375469D01*
X106124500Y-148400000D01*
X106124500Y-148508254D01*
X106155571Y-148704423D01*
X106158371Y-148722102D01*
X106219908Y-148911494D01*
X106225274Y-148928009D01*
X106323567Y-149120919D01*
X106393168Y-149216717D01*
X106450829Y-149296080D01*
X106603919Y-149449170D01*
X106603922Y-149449172D01*
X106779081Y-149576433D01*
X106971991Y-149674726D01*
X107177897Y-149741628D01*
X107177898Y-149741628D01*
X107177903Y-149741630D01*
X107391746Y-149775500D01*
X107484982Y-149775500D01*
X108456413Y-149775500D01*
X108460288Y-149776085D01*
X108476569Y-149775848D01*
X108476570Y-149775849D01*
X108498963Y-149775523D01*
X108499657Y-149775513D01*
X108501489Y-149775500D01*
X108524128Y-149775500D01*
X108527677Y-149775124D01*
X108609852Y-149773989D01*
X108824236Y-149737148D01*
X109030319Y-149667524D01*
X109223120Y-149566798D01*
X109397978Y-149437405D01*
X109550667Y-149282473D01*
X109677496Y-149105746D01*
X109775400Y-148911497D01*
X109842012Y-148704421D01*
X109875722Y-148489522D01*
X109875640Y-148380759D01*
X109875639Y-148356227D01*
X109875638Y-148356226D01*
X109875638Y-148336768D01*
X109875500Y-148335895D01*
X109875500Y-144999993D01*
X115386548Y-144999993D01*
X115386548Y-145000006D01*
X115406341Y-145377700D01*
X115465510Y-145751277D01*
X115563404Y-146116624D01*
X115698942Y-146469713D01*
X115698946Y-146469721D01*
X115870659Y-146806726D01*
X116076650Y-147123926D01*
X116076662Y-147123943D01*
X116314669Y-147417857D01*
X116314683Y-147417872D01*
X116582127Y-147685316D01*
X116582142Y-147685330D01*
X116876056Y-147923337D01*
X116876073Y-147923349D01*
X117055082Y-148039598D01*
X117193274Y-148129341D01*
X117530277Y-148301053D01*
X117530281Y-148301054D01*
X117530286Y-148301057D01*
X117883375Y-148436595D01*
X117883380Y-148436596D01*
X117883382Y-148436597D01*
X118248721Y-148534489D01*
X118622291Y-148593657D01*
X118622293Y-148593657D01*
X118622299Y-148593658D01*
X118999994Y-148613452D01*
X119000000Y-148613452D01*
X119000006Y-148613452D01*
X119377700Y-148593658D01*
X119377704Y-148593657D01*
X119377709Y-148593657D01*
X119751279Y-148534489D01*
X120116618Y-148436597D01*
X120116621Y-148436595D01*
X120116624Y-148436595D01*
X120469713Y-148301057D01*
X120469714Y-148301056D01*
X120469723Y-148301053D01*
X120806726Y-148129341D01*
X121123934Y-147923344D01*
X121286860Y-147791409D01*
X121417857Y-147685330D01*
X121417862Y-147685324D01*
X121417871Y-147685318D01*
X121685318Y-147417871D01*
X121685324Y-147417862D01*
X121685330Y-147417857D01*
X121923337Y-147123943D01*
X121923338Y-147123940D01*
X121923344Y-147123934D01*
X122129341Y-146806726D01*
X122301053Y-146469723D01*
X122301057Y-146469713D01*
X122436595Y-146116624D01*
X122523910Y-145790760D01*
X122534489Y-145751279D01*
X122593657Y-145377709D01*
X122593657Y-145377704D01*
X122593658Y-145377700D01*
X122613452Y-145000006D01*
X122613452Y-144999993D01*
X122605083Y-144840306D01*
X128249500Y-144840306D01*
X128249500Y-145159693D01*
X128280802Y-145477508D01*
X128280804Y-145477523D01*
X128343111Y-145790760D01*
X128435820Y-146096381D01*
X128435821Y-146096385D01*
X128558039Y-146391444D01*
X128708592Y-146673108D01*
X128886020Y-146938649D01*
X128886031Y-146938664D01*
X129088628Y-147185528D01*
X129088646Y-147185548D01*
X129314451Y-147411353D01*
X129314471Y-147411371D01*
X129322392Y-147417872D01*
X129561344Y-147613975D01*
X129826894Y-147791409D01*
X130108556Y-147941961D01*
X130403619Y-148064180D01*
X130709240Y-148156889D01*
X131022477Y-148219196D01*
X131340313Y-148250500D01*
X131340322Y-148250500D01*
X131659678Y-148250500D01*
X131659687Y-148250500D01*
X131977523Y-148219196D01*
X132290760Y-148156889D01*
X132596381Y-148064180D01*
X132891444Y-147941961D01*
X133173106Y-147791409D01*
X133438656Y-147613975D01*
X133685535Y-147411366D01*
X133911366Y-147185535D01*
X134113975Y-146938656D01*
X134291409Y-146673106D01*
X134441961Y-146391444D01*
X134564180Y-146096381D01*
X134656889Y-145790760D01*
X134719196Y-145477523D01*
X134750500Y-145159687D01*
X134750500Y-144840313D01*
X134719196Y-144522477D01*
X134656889Y-144209240D01*
X134564180Y-143903619D01*
X134441961Y-143608556D01*
X134291409Y-143326894D01*
X134113975Y-143061344D01*
X133911366Y-142814465D01*
X133911362Y-142814461D01*
X133911353Y-142814451D01*
X133685548Y-142588646D01*
X133685528Y-142588628D01*
X133438664Y-142386031D01*
X133438649Y-142386020D01*
X133173108Y-142208592D01*
X132891444Y-142058039D01*
X132596385Y-141935821D01*
X132596381Y-141935820D01*
X132290760Y-141843111D01*
X132081935Y-141801573D01*
X131977524Y-141780804D01*
X131977508Y-141780802D01*
X131659693Y-141749500D01*
X131659687Y-141749500D01*
X131340313Y-141749500D01*
X131340306Y-141749500D01*
X131022491Y-141780802D01*
X131022475Y-141780804D01*
X130813652Y-141822342D01*
X130709240Y-141843111D01*
X130556429Y-141889465D01*
X130403618Y-141935820D01*
X130403614Y-141935821D01*
X130108555Y-142058039D01*
X129826891Y-142208592D01*
X129561350Y-142386020D01*
X129561335Y-142386031D01*
X129314471Y-142588628D01*
X129314451Y-142588646D01*
X129088646Y-142814451D01*
X129088628Y-142814471D01*
X128886031Y-143061335D01*
X128886020Y-143061350D01*
X128708592Y-143326891D01*
X128558039Y-143608555D01*
X128435821Y-143903614D01*
X128435820Y-143903618D01*
X128343111Y-144209241D01*
X128280804Y-144522475D01*
X128280802Y-144522491D01*
X128249500Y-144840306D01*
X122605083Y-144840306D01*
X122593658Y-144622299D01*
X122577847Y-144522475D01*
X122534489Y-144248721D01*
X122436597Y-143883382D01*
X122436596Y-143883380D01*
X122436595Y-143883375D01*
X122301057Y-143530286D01*
X122301053Y-143530278D01*
X122301053Y-143530277D01*
X122129341Y-143193274D01*
X121923344Y-142876066D01*
X121923337Y-142876056D01*
X121685330Y-142582142D01*
X121685316Y-142582127D01*
X121417872Y-142314683D01*
X121417857Y-142314669D01*
X121123943Y-142076662D01*
X121123926Y-142076650D01*
X120806726Y-141870659D01*
X120469721Y-141698946D01*
X120469713Y-141698942D01*
X120116624Y-141563404D01*
X119751277Y-141465510D01*
X119377700Y-141406341D01*
X119000006Y-141386548D01*
X118999994Y-141386548D01*
X118622299Y-141406341D01*
X118248722Y-141465510D01*
X117883375Y-141563404D01*
X117530286Y-141698942D01*
X117530278Y-141698946D01*
X117193273Y-141870659D01*
X116876073Y-142076650D01*
X116876056Y-142076662D01*
X116582142Y-142314669D01*
X116582127Y-142314683D01*
X116314683Y-142582127D01*
X116314669Y-142582142D01*
X116076662Y-142876056D01*
X116076650Y-142876073D01*
X115870659Y-143193273D01*
X115698946Y-143530278D01*
X115698942Y-143530286D01*
X115563404Y-143883375D01*
X115465510Y-144248722D01*
X115406341Y-144622299D01*
X115386548Y-144999993D01*
X109875500Y-144999993D01*
X109875500Y-141664183D01*
X109875638Y-141663312D01*
X109875638Y-141643773D01*
X109875639Y-141643773D01*
X109875640Y-141619241D01*
X109875639Y-141619241D01*
X109875721Y-141510478D01*
X109842011Y-141295579D01*
X109775399Y-141088503D01*
X109677495Y-140894254D01*
X109670971Y-140885164D01*
X109571177Y-140746109D01*
X109550666Y-140717528D01*
X109397977Y-140562596D01*
X109223119Y-140433203D01*
X109223113Y-140433200D01*
X109223112Y-140433199D01*
X109030319Y-140332477D01*
X108824233Y-140262852D01*
X108609847Y-140226011D01*
X108527636Y-140224875D01*
X108524079Y-140224500D01*
X108515018Y-140224500D01*
X108501489Y-140224500D01*
X108499657Y-140224487D01*
X108460288Y-140223914D01*
X108456413Y-140224500D01*
X107543587Y-140224500D01*
X107539711Y-140223914D01*
X107500343Y-140224487D01*
X107498511Y-140224500D01*
X107476195Y-140224500D01*
X107472351Y-140224907D01*
X107391183Y-140226126D01*
X107178787Y-140262305D01*
X107178785Y-140262305D01*
X107178783Y-140262306D01*
X107109902Y-140285353D01*
X106974458Y-140330673D01*
X106974452Y-140330676D01*
X106783050Y-140429608D01*
X106783049Y-140429608D01*
X106609114Y-140556754D01*
X106609106Y-140556761D01*
X106456761Y-140709106D01*
X106456754Y-140709114D01*
X106329608Y-140883049D01*
X106329608Y-140883050D01*
X106230676Y-141074452D01*
X106230673Y-141074458D01*
X106162305Y-141278787D01*
X106126126Y-141491183D01*
X106124907Y-141572351D01*
X106124500Y-141576195D01*
X106124500Y-141598510D01*
X106124487Y-141600342D01*
X106123914Y-141639711D01*
X99925500Y-141639711D01*
X99925500Y-132618878D01*
X117999500Y-132618878D01*
X117999500Y-132881121D01*
X118033728Y-133141108D01*
X118033729Y-133141114D01*
X118033730Y-133141116D01*
X118101602Y-133394419D01*
X118201957Y-133636697D01*
X118201958Y-133636698D01*
X118201963Y-133636709D01*
X118333073Y-133863799D01*
X118333077Y-133863805D01*
X118492710Y-134071842D01*
X118492729Y-134071863D01*
X118678136Y-134257270D01*
X118678157Y-134257289D01*
X118886194Y-134416922D01*
X118886200Y-134416926D01*
X119113290Y-134548036D01*
X119113294Y-134548037D01*
X119113303Y-134548043D01*
X119355581Y-134648398D01*
X119608884Y-134716270D01*
X119608890Y-134716270D01*
X119608891Y-134716271D01*
X119633900Y-134719563D01*
X119868880Y-134750500D01*
X119868887Y-134750500D01*
X120131113Y-134750500D01*
X120131120Y-134750500D01*
X120391116Y-134716270D01*
X120644419Y-134648398D01*
X120886697Y-134548043D01*
X121113803Y-134416924D01*
X121321851Y-134257282D01*
X121507282Y-134071851D01*
X121666924Y-133863803D01*
X121798043Y-133636697D01*
X121898398Y-133394419D01*
X121966270Y-133141116D01*
X122000500Y-132881120D01*
X122000500Y-132618880D01*
X121966270Y-132358884D01*
X121898398Y-132105581D01*
X121798043Y-131863303D01*
X121798037Y-131863294D01*
X121798036Y-131863290D01*
X121666926Y-131636200D01*
X121666922Y-131636194D01*
X121507289Y-131428157D01*
X121507270Y-131428136D01*
X121321863Y-131242729D01*
X121321842Y-131242710D01*
X121113805Y-131083077D01*
X121113799Y-131083073D01*
X120886709Y-130951963D01*
X120886701Y-130951959D01*
X120886697Y-130951957D01*
X120644419Y-130851602D01*
X120391116Y-130783730D01*
X120391114Y-130783729D01*
X120391108Y-130783728D01*
X120131121Y-130749500D01*
X120131120Y-130749500D01*
X119868880Y-130749500D01*
X119868878Y-130749500D01*
X119608891Y-130783728D01*
X119355581Y-130851602D01*
X119113301Y-130951958D01*
X119113290Y-130951963D01*
X118886200Y-131083073D01*
X118886194Y-131083077D01*
X118678157Y-131242710D01*
X118678136Y-131242729D01*
X118492729Y-131428136D01*
X118492710Y-131428157D01*
X118333077Y-131636194D01*
X118333073Y-131636200D01*
X118201963Y-131863290D01*
X118201958Y-131863301D01*
X118101602Y-132105581D01*
X118033728Y-132358891D01*
X117999500Y-132618878D01*
X99925500Y-132618878D01*
X99925500Y-127600000D01*
X115125000Y-127600000D01*
X115250000Y-128200000D01*
X115500000Y-128600000D01*
X115900000Y-128950000D01*
X116299994Y-129099998D01*
X116299995Y-129099998D01*
X116300000Y-129100000D01*
X116700000Y-129175000D01*
X117125000Y-129100000D01*
X117500000Y-128950000D01*
X117900000Y-128600000D01*
X118150000Y-128200000D01*
X118275000Y-127600000D01*
X118150000Y-127000000D01*
X117900000Y-126600000D01*
X117500000Y-126250000D01*
X117499999Y-126249999D01*
X117100005Y-126100001D01*
X117099994Y-126099998D01*
X116700000Y-126025000D01*
X116300005Y-126099998D01*
X116299994Y-126100001D01*
X115900000Y-126249999D01*
X115500001Y-126599999D01*
X115499999Y-126600001D01*
X115250001Y-126999997D01*
X115250000Y-126999999D01*
X115250000Y-127000000D01*
X115125000Y-127600000D01*
X99925500Y-127600000D01*
X99925500Y-120085263D01*
X103749500Y-120085263D01*
X103749500Y-120314736D01*
X103779450Y-120542231D01*
X103779452Y-120542238D01*
X103838842Y-120763887D01*
X103926656Y-120975888D01*
X103926657Y-120975889D01*
X103926662Y-120975900D01*
X104041386Y-121174608D01*
X104041391Y-121174615D01*
X104181073Y-121356652D01*
X104181092Y-121356673D01*
X104343326Y-121518907D01*
X104343347Y-121518926D01*
X104525384Y-121658608D01*
X104525391Y-121658613D01*
X104724099Y-121773337D01*
X104724103Y-121773338D01*
X104724112Y-121773344D01*
X104936113Y-121861158D01*
X105157762Y-121920548D01*
X105157766Y-121920548D01*
X105157768Y-121920549D01*
X105216398Y-121928267D01*
X105385266Y-121950500D01*
X105385273Y-121950500D01*
X105614727Y-121950500D01*
X105614734Y-121950500D01*
X105820345Y-121923430D01*
X105842231Y-121920549D01*
X105842231Y-121920548D01*
X105842238Y-121920548D01*
X106063887Y-121861158D01*
X106275888Y-121773344D01*
X106474612Y-121658611D01*
X106656661Y-121518919D01*
X106818919Y-121356661D01*
X106958611Y-121174612D01*
X107073344Y-120975888D01*
X107161158Y-120763887D01*
X107220548Y-120542238D01*
X107250500Y-120314734D01*
X107250500Y-120085266D01*
X107244581Y-120040306D01*
X109249500Y-120040306D01*
X109249500Y-120359693D01*
X109280802Y-120677508D01*
X109280804Y-120677523D01*
X109343111Y-120990760D01*
X109398881Y-121174608D01*
X109435820Y-121296381D01*
X109435821Y-121296385D01*
X109558039Y-121591444D01*
X109708592Y-121873108D01*
X109886020Y-122138649D01*
X109886031Y-122138664D01*
X110088628Y-122385528D01*
X110088646Y-122385548D01*
X110314451Y-122611353D01*
X110314461Y-122611362D01*
X110314465Y-122611366D01*
X110561344Y-122813975D01*
X110826894Y-122991409D01*
X111108556Y-123141961D01*
X111403619Y-123264180D01*
X111709240Y-123356889D01*
X112022477Y-123419196D01*
X112340313Y-123450500D01*
X112340322Y-123450500D01*
X112659678Y-123450500D01*
X112659687Y-123450500D01*
X112977523Y-123419196D01*
X113290760Y-123356889D01*
X113596381Y-123264180D01*
X113891444Y-123141961D01*
X114173106Y-122991409D01*
X114438656Y-122813975D01*
X114685535Y-122611366D01*
X114911366Y-122385535D01*
X115113975Y-122138656D01*
X115291409Y-121873106D01*
X115441961Y-121591444D01*
X115564180Y-121296381D01*
X115656889Y-120990760D01*
X115719196Y-120677523D01*
X115750500Y-120359687D01*
X115750500Y-120040313D01*
X115750499Y-120040306D01*
X124249500Y-120040306D01*
X124249500Y-120359693D01*
X124280802Y-120677508D01*
X124280804Y-120677523D01*
X124343111Y-120990760D01*
X124398881Y-121174608D01*
X124435820Y-121296381D01*
X124435821Y-121296385D01*
X124558039Y-121591444D01*
X124708592Y-121873108D01*
X124886020Y-122138649D01*
X124886031Y-122138664D01*
X125088628Y-122385528D01*
X125088646Y-122385548D01*
X125314451Y-122611353D01*
X125314461Y-122611362D01*
X125314465Y-122611366D01*
X125561344Y-122813975D01*
X125826894Y-122991409D01*
X126108556Y-123141961D01*
X126403619Y-123264180D01*
X126709240Y-123356889D01*
X127022477Y-123419196D01*
X127340313Y-123450500D01*
X127340322Y-123450500D01*
X127659678Y-123450500D01*
X127659687Y-123450500D01*
X127977523Y-123419196D01*
X128290760Y-123356889D01*
X128596381Y-123264180D01*
X128891444Y-123141961D01*
X129173106Y-122991409D01*
X129438656Y-122813975D01*
X129685535Y-122611366D01*
X129911366Y-122385535D01*
X130113975Y-122138656D01*
X130291409Y-121873106D01*
X130441961Y-121591444D01*
X130564180Y-121296381D01*
X130656889Y-120990760D01*
X130719196Y-120677523D01*
X130750500Y-120359687D01*
X130750500Y-120085263D01*
X132749500Y-120085263D01*
X132749500Y-120314736D01*
X132779450Y-120542231D01*
X132779452Y-120542238D01*
X132838842Y-120763887D01*
X132926656Y-120975888D01*
X132926657Y-120975889D01*
X132926662Y-120975900D01*
X133041386Y-121174608D01*
X133041391Y-121174615D01*
X133181073Y-121356652D01*
X133181092Y-121356673D01*
X133343326Y-121518907D01*
X133343347Y-121518926D01*
X133525384Y-121658608D01*
X133525391Y-121658613D01*
X133724099Y-121773337D01*
X133724103Y-121773338D01*
X133724112Y-121773344D01*
X133936113Y-121861158D01*
X134157762Y-121920548D01*
X134157766Y-121920548D01*
X134157768Y-121920549D01*
X134216398Y-121928267D01*
X134385266Y-121950500D01*
X134385273Y-121950500D01*
X134614727Y-121950500D01*
X134614734Y-121950500D01*
X134820345Y-121923430D01*
X134842231Y-121920549D01*
X134842231Y-121920548D01*
X134842238Y-121920548D01*
X135063887Y-121861158D01*
X135275888Y-121773344D01*
X135474612Y-121658611D01*
X135656661Y-121518919D01*
X135818919Y-121356661D01*
X135958611Y-121174612D01*
X136073344Y-120975888D01*
X136161158Y-120763887D01*
X136220548Y-120542238D01*
X136250500Y-120314734D01*
X136250500Y-120085266D01*
X136220548Y-119857762D01*
X136161158Y-119636113D01*
X136073344Y-119424112D01*
X136073338Y-119424103D01*
X136073337Y-119424099D01*
X135958613Y-119225391D01*
X135958608Y-119225384D01*
X135818926Y-119043347D01*
X135818907Y-119043326D01*
X135656673Y-118881092D01*
X135656652Y-118881073D01*
X135474615Y-118741391D01*
X135474608Y-118741386D01*
X135275900Y-118626662D01*
X135275892Y-118626658D01*
X135275888Y-118626656D01*
X135063887Y-118538842D01*
X134842238Y-118479452D01*
X134842231Y-118479450D01*
X134614736Y-118449500D01*
X134614734Y-118449500D01*
X134385266Y-118449500D01*
X134385263Y-118449500D01*
X134157768Y-118479450D01*
X133936113Y-118538842D01*
X133724110Y-118626657D01*
X133724099Y-118626662D01*
X133525391Y-118741386D01*
X133525384Y-118741391D01*
X133343347Y-118881073D01*
X133343326Y-118881092D01*
X133181092Y-119043326D01*
X133181073Y-119043347D01*
X133041391Y-119225384D01*
X133041386Y-119225391D01*
X132926662Y-119424099D01*
X132926657Y-119424110D01*
X132838842Y-119636113D01*
X132779450Y-119857768D01*
X132749500Y-120085263D01*
X130750500Y-120085263D01*
X130750500Y-120040313D01*
X130719196Y-119722477D01*
X130656889Y-119409240D01*
X130564180Y-119103619D01*
X130441961Y-118808556D01*
X130291409Y-118526894D01*
X130113975Y-118261344D01*
X129911366Y-118014465D01*
X129911362Y-118014461D01*
X129911353Y-118014451D01*
X129685548Y-117788646D01*
X129685528Y-117788628D01*
X129438664Y-117586031D01*
X129438649Y-117586020D01*
X129173108Y-117408592D01*
X128891444Y-117258039D01*
X128596385Y-117135821D01*
X128596381Y-117135820D01*
X128290760Y-117043111D01*
X128081935Y-117001573D01*
X127977524Y-116980804D01*
X127977508Y-116980802D01*
X127659693Y-116949500D01*
X127659687Y-116949500D01*
X127340313Y-116949500D01*
X127340306Y-116949500D01*
X127022491Y-116980802D01*
X127022475Y-116980804D01*
X126813652Y-117022342D01*
X126709240Y-117043111D01*
X126556429Y-117089465D01*
X126403618Y-117135820D01*
X126403614Y-117135821D01*
X126108555Y-117258039D01*
X125826891Y-117408592D01*
X125561350Y-117586020D01*
X125561335Y-117586031D01*
X125314471Y-117788628D01*
X125314451Y-117788646D01*
X125088646Y-118014451D01*
X125088628Y-118014471D01*
X124886031Y-118261335D01*
X124886020Y-118261350D01*
X124708592Y-118526891D01*
X124558039Y-118808555D01*
X124435821Y-119103614D01*
X124435820Y-119103618D01*
X124435820Y-119103619D01*
X124343111Y-119409240D01*
X124340153Y-119424110D01*
X124280804Y-119722475D01*
X124280802Y-119722491D01*
X124249500Y-120040306D01*
X115750499Y-120040306D01*
X115719196Y-119722477D01*
X115656889Y-119409240D01*
X115564180Y-119103619D01*
X115441961Y-118808556D01*
X115291409Y-118526894D01*
X115113975Y-118261344D01*
X114911366Y-118014465D01*
X114911362Y-118014461D01*
X114911353Y-118014451D01*
X114685548Y-117788646D01*
X114685528Y-117788628D01*
X114438664Y-117586031D01*
X114438649Y-117586020D01*
X114173108Y-117408592D01*
X113891444Y-117258039D01*
X113596385Y-117135821D01*
X113596381Y-117135820D01*
X113290760Y-117043111D01*
X113081935Y-117001573D01*
X112977524Y-116980804D01*
X112977508Y-116980802D01*
X112659693Y-116949500D01*
X112659687Y-116949500D01*
X112340313Y-116949500D01*
X112340306Y-116949500D01*
X112022491Y-116980802D01*
X112022475Y-116980804D01*
X111813652Y-117022342D01*
X111709240Y-117043111D01*
X111556429Y-117089465D01*
X111403618Y-117135820D01*
X111403614Y-117135821D01*
X111108555Y-117258039D01*
X110826891Y-117408592D01*
X110561350Y-117586020D01*
X110561335Y-117586031D01*
X110314471Y-117788628D01*
X110314451Y-117788646D01*
X110088646Y-118014451D01*
X110088628Y-118014471D01*
X109886031Y-118261335D01*
X109886020Y-118261350D01*
X109708592Y-118526891D01*
X109558039Y-118808555D01*
X109435821Y-119103614D01*
X109435820Y-119103618D01*
X109435820Y-119103619D01*
X109343111Y-119409240D01*
X109340153Y-119424110D01*
X109280804Y-119722475D01*
X109280802Y-119722491D01*
X109249500Y-120040306D01*
X107244581Y-120040306D01*
X107220548Y-119857762D01*
X107161158Y-119636113D01*
X107073344Y-119424112D01*
X107073338Y-119424103D01*
X107073337Y-119424099D01*
X106958613Y-119225391D01*
X106958608Y-119225384D01*
X106818926Y-119043347D01*
X106818907Y-119043326D01*
X106656673Y-118881092D01*
X106656652Y-118881073D01*
X106474615Y-118741391D01*
X106474608Y-118741386D01*
X106275900Y-118626662D01*
X106275892Y-118626658D01*
X106275888Y-118626656D01*
X106063887Y-118538842D01*
X105842238Y-118479452D01*
X105842231Y-118479450D01*
X105614736Y-118449500D01*
X105614734Y-118449500D01*
X105385266Y-118449500D01*
X105385263Y-118449500D01*
X105157768Y-118479450D01*
X104936113Y-118538842D01*
X104724110Y-118626657D01*
X104724099Y-118626662D01*
X104525391Y-118741386D01*
X104525384Y-118741391D01*
X104343347Y-118881073D01*
X104343326Y-118881092D01*
X104181092Y-119043326D01*
X104181073Y-119043347D01*
X104041391Y-119225384D01*
X104041386Y-119225391D01*
X103926662Y-119424099D01*
X103926657Y-119424110D01*
X103838842Y-119636113D01*
X103779450Y-119857768D01*
X103749500Y-120085263D01*
X99925500Y-120085263D01*
X99925500Y-106885263D01*
X103749500Y-106885263D01*
X103749500Y-107114736D01*
X103779450Y-107342231D01*
X103779452Y-107342238D01*
X103838842Y-107563887D01*
X103926656Y-107775888D01*
X103926657Y-107775889D01*
X103926662Y-107775900D01*
X104041386Y-107974608D01*
X104041391Y-107974615D01*
X104181073Y-108156652D01*
X104181092Y-108156673D01*
X104343326Y-108318907D01*
X104343347Y-108318926D01*
X104525384Y-108458608D01*
X104525391Y-108458613D01*
X104724099Y-108573337D01*
X104724103Y-108573338D01*
X104724112Y-108573344D01*
X104936113Y-108661158D01*
X105157762Y-108720548D01*
X105157766Y-108720548D01*
X105157768Y-108720549D01*
X105216398Y-108728267D01*
X105385266Y-108750500D01*
X105385273Y-108750500D01*
X105614727Y-108750500D01*
X105614734Y-108750500D01*
X105820345Y-108723430D01*
X105842231Y-108720549D01*
X105842231Y-108720548D01*
X105842238Y-108720548D01*
X106063887Y-108661158D01*
X106275888Y-108573344D01*
X106474612Y-108458611D01*
X106656661Y-108318919D01*
X106818919Y-108156661D01*
X106958611Y-107974612D01*
X107073344Y-107775888D01*
X107161158Y-107563887D01*
X107220548Y-107342238D01*
X107250500Y-107114734D01*
X107250500Y-106885266D01*
X107244581Y-106840306D01*
X109249500Y-106840306D01*
X109249500Y-107159693D01*
X109280802Y-107477508D01*
X109280804Y-107477523D01*
X109343111Y-107790760D01*
X109398881Y-107974608D01*
X109435820Y-108096381D01*
X109435821Y-108096385D01*
X109558039Y-108391444D01*
X109708592Y-108673108D01*
X109886020Y-108938649D01*
X109886031Y-108938664D01*
X110088628Y-109185528D01*
X110088646Y-109185548D01*
X110314451Y-109411353D01*
X110314461Y-109411362D01*
X110314465Y-109411366D01*
X110561344Y-109613975D01*
X110826894Y-109791409D01*
X111108556Y-109941961D01*
X111403619Y-110064180D01*
X111709240Y-110156889D01*
X112022477Y-110219196D01*
X112340313Y-110250500D01*
X112340322Y-110250500D01*
X112659678Y-110250500D01*
X112659687Y-110250500D01*
X112977523Y-110219196D01*
X113290760Y-110156889D01*
X113596381Y-110064180D01*
X113891444Y-109941961D01*
X114173106Y-109791409D01*
X114438656Y-109613975D01*
X114685535Y-109411366D01*
X114911366Y-109185535D01*
X115113975Y-108938656D01*
X115291409Y-108673106D01*
X115441961Y-108391444D01*
X115564180Y-108096381D01*
X115656889Y-107790760D01*
X115719196Y-107477523D01*
X115750500Y-107159687D01*
X115750500Y-106840313D01*
X115750499Y-106840306D01*
X124249500Y-106840306D01*
X124249500Y-107159693D01*
X124280802Y-107477508D01*
X124280804Y-107477523D01*
X124343111Y-107790760D01*
X124398881Y-107974608D01*
X124435820Y-108096381D01*
X124435821Y-108096385D01*
X124558039Y-108391444D01*
X124708592Y-108673108D01*
X124886020Y-108938649D01*
X124886031Y-108938664D01*
X125088628Y-109185528D01*
X125088646Y-109185548D01*
X125314451Y-109411353D01*
X125314461Y-109411362D01*
X125314465Y-109411366D01*
X125561344Y-109613975D01*
X125826894Y-109791409D01*
X126108556Y-109941961D01*
X126403619Y-110064180D01*
X126709240Y-110156889D01*
X127022477Y-110219196D01*
X127340313Y-110250500D01*
X127340322Y-110250500D01*
X127659678Y-110250500D01*
X127659687Y-110250500D01*
X127977523Y-110219196D01*
X128290760Y-110156889D01*
X128596381Y-110064180D01*
X128891444Y-109941961D01*
X129173106Y-109791409D01*
X129438656Y-109613975D01*
X129685535Y-109411366D01*
X129911366Y-109185535D01*
X130113975Y-108938656D01*
X130291409Y-108673106D01*
X130441961Y-108391444D01*
X130564180Y-108096381D01*
X130656889Y-107790760D01*
X130719196Y-107477523D01*
X130750500Y-107159687D01*
X130750500Y-106885263D01*
X132749500Y-106885263D01*
X132749500Y-107114736D01*
X132779450Y-107342231D01*
X132779452Y-107342238D01*
X132838842Y-107563887D01*
X132926656Y-107775888D01*
X132926657Y-107775889D01*
X132926662Y-107775900D01*
X133041386Y-107974608D01*
X133041391Y-107974615D01*
X133181073Y-108156652D01*
X133181092Y-108156673D01*
X133343326Y-108318907D01*
X133343347Y-108318926D01*
X133525384Y-108458608D01*
X133525391Y-108458613D01*
X133724099Y-108573337D01*
X133724103Y-108573338D01*
X133724112Y-108573344D01*
X133936113Y-108661158D01*
X134157762Y-108720548D01*
X134157766Y-108720548D01*
X134157768Y-108720549D01*
X134216398Y-108728267D01*
X134385266Y-108750500D01*
X134385273Y-108750500D01*
X134614727Y-108750500D01*
X134614734Y-108750500D01*
X134820345Y-108723430D01*
X134842231Y-108720549D01*
X134842231Y-108720548D01*
X134842238Y-108720548D01*
X135063887Y-108661158D01*
X135275888Y-108573344D01*
X135474612Y-108458611D01*
X135656661Y-108318919D01*
X135818919Y-108156661D01*
X135958611Y-107974612D01*
X136073344Y-107775888D01*
X136161158Y-107563887D01*
X136220548Y-107342238D01*
X136250500Y-107114734D01*
X136250500Y-106885266D01*
X136220548Y-106657762D01*
X136161158Y-106436113D01*
X136073344Y-106224112D01*
X136073338Y-106224103D01*
X136073337Y-106224099D01*
X135958613Y-106025391D01*
X135958608Y-106025384D01*
X135818926Y-105843347D01*
X135818907Y-105843326D01*
X135656673Y-105681092D01*
X135656652Y-105681073D01*
X135474615Y-105541391D01*
X135474608Y-105541386D01*
X135275900Y-105426662D01*
X135275892Y-105426658D01*
X135275888Y-105426656D01*
X135063887Y-105338842D01*
X134842238Y-105279452D01*
X134842231Y-105279450D01*
X134614736Y-105249500D01*
X134614734Y-105249500D01*
X134385266Y-105249500D01*
X134385263Y-105249500D01*
X134157768Y-105279450D01*
X133936113Y-105338842D01*
X133724110Y-105426657D01*
X133724099Y-105426662D01*
X133525391Y-105541386D01*
X133525384Y-105541391D01*
X133343347Y-105681073D01*
X133343326Y-105681092D01*
X133181092Y-105843326D01*
X133181073Y-105843347D01*
X133041391Y-106025384D01*
X133041386Y-106025391D01*
X132926662Y-106224099D01*
X132926657Y-106224110D01*
X132838842Y-106436113D01*
X132779450Y-106657768D01*
X132749500Y-106885263D01*
X130750500Y-106885263D01*
X130750500Y-106840313D01*
X130719196Y-106522477D01*
X130656889Y-106209240D01*
X130564180Y-105903619D01*
X130441961Y-105608556D01*
X130291409Y-105326894D01*
X130113975Y-105061344D01*
X129911366Y-104814465D01*
X129911362Y-104814461D01*
X129911353Y-104814451D01*
X129685548Y-104588646D01*
X129685528Y-104588628D01*
X129438664Y-104386031D01*
X129438649Y-104386020D01*
X129173108Y-104208592D01*
X128891444Y-104058039D01*
X128596385Y-103935821D01*
X128596381Y-103935820D01*
X128290760Y-103843111D01*
X128081935Y-103801573D01*
X127977524Y-103780804D01*
X127977508Y-103780802D01*
X127659693Y-103749500D01*
X127659687Y-103749500D01*
X127340313Y-103749500D01*
X127340306Y-103749500D01*
X127022491Y-103780802D01*
X127022475Y-103780804D01*
X126813652Y-103822342D01*
X126709240Y-103843111D01*
X126556429Y-103889465D01*
X126403618Y-103935820D01*
X126403614Y-103935821D01*
X126108555Y-104058039D01*
X125826891Y-104208592D01*
X125561350Y-104386020D01*
X125561335Y-104386031D01*
X125314471Y-104588628D01*
X125314451Y-104588646D01*
X125088646Y-104814451D01*
X125088628Y-104814471D01*
X124886031Y-105061335D01*
X124886020Y-105061350D01*
X124708592Y-105326891D01*
X124558039Y-105608555D01*
X124435821Y-105903614D01*
X124435820Y-105903618D01*
X124435820Y-105903619D01*
X124343111Y-106209240D01*
X124340153Y-106224110D01*
X124280804Y-106522475D01*
X124280802Y-106522491D01*
X124249500Y-106840306D01*
X115750499Y-106840306D01*
X115719196Y-106522477D01*
X115656889Y-106209240D01*
X115564180Y-105903619D01*
X115441961Y-105608556D01*
X115291409Y-105326894D01*
X115113975Y-105061344D01*
X114911366Y-104814465D01*
X114911362Y-104814461D01*
X114911353Y-104814451D01*
X114685548Y-104588646D01*
X114685528Y-104588628D01*
X114438664Y-104386031D01*
X114438649Y-104386020D01*
X114173108Y-104208592D01*
X113891444Y-104058039D01*
X113596385Y-103935821D01*
X113596381Y-103935820D01*
X113290760Y-103843111D01*
X113081935Y-103801573D01*
X112977524Y-103780804D01*
X112977508Y-103780802D01*
X112659693Y-103749500D01*
X112659687Y-103749500D01*
X112340313Y-103749500D01*
X112340306Y-103749500D01*
X112022491Y-103780802D01*
X112022475Y-103780804D01*
X111813652Y-103822342D01*
X111709240Y-103843111D01*
X111556429Y-103889465D01*
X111403618Y-103935820D01*
X111403614Y-103935821D01*
X111108555Y-104058039D01*
X110826891Y-104208592D01*
X110561350Y-104386020D01*
X110561335Y-104386031D01*
X110314471Y-104588628D01*
X110314451Y-104588646D01*
X110088646Y-104814451D01*
X110088628Y-104814471D01*
X109886031Y-105061335D01*
X109886020Y-105061350D01*
X109708592Y-105326891D01*
X109558039Y-105608555D01*
X109435821Y-105903614D01*
X109435820Y-105903618D01*
X109435820Y-105903619D01*
X109343111Y-106209240D01*
X109340153Y-106224110D01*
X109280804Y-106522475D01*
X109280802Y-106522491D01*
X109249500Y-106840306D01*
X107244581Y-106840306D01*
X107220548Y-106657762D01*
X107161158Y-106436113D01*
X107073344Y-106224112D01*
X107073338Y-106224103D01*
X107073337Y-106224099D01*
X106958613Y-106025391D01*
X106958608Y-106025384D01*
X106818926Y-105843347D01*
X106818907Y-105843326D01*
X106656673Y-105681092D01*
X106656652Y-105681073D01*
X106474615Y-105541391D01*
X106474608Y-105541386D01*
X106275900Y-105426662D01*
X106275892Y-105426658D01*
X106275888Y-105426656D01*
X106063887Y-105338842D01*
X105842238Y-105279452D01*
X105842231Y-105279450D01*
X105614736Y-105249500D01*
X105614734Y-105249500D01*
X105385266Y-105249500D01*
X105385263Y-105249500D01*
X105157768Y-105279450D01*
X104936113Y-105338842D01*
X104724110Y-105426657D01*
X104724099Y-105426662D01*
X104525391Y-105541386D01*
X104525384Y-105541391D01*
X104343347Y-105681073D01*
X104343326Y-105681092D01*
X104181092Y-105843326D01*
X104181073Y-105843347D01*
X104041391Y-106025384D01*
X104041386Y-106025391D01*
X103926662Y-106224099D01*
X103926657Y-106224110D01*
X103838842Y-106436113D01*
X103779450Y-106657768D01*
X103749500Y-106885263D01*
X99925500Y-106885263D01*
X99925500Y-91685263D01*
X103749500Y-91685263D01*
X103749500Y-91914736D01*
X103779450Y-92142231D01*
X103779452Y-92142238D01*
X103838842Y-92363887D01*
X103926656Y-92575888D01*
X103926657Y-92575889D01*
X103926662Y-92575900D01*
X104041386Y-92774608D01*
X104041391Y-92774615D01*
X104181073Y-92956652D01*
X104181092Y-92956673D01*
X104343326Y-93118907D01*
X104343347Y-93118926D01*
X104525384Y-93258608D01*
X104525391Y-93258613D01*
X104724099Y-93373337D01*
X104724103Y-93373338D01*
X104724112Y-93373344D01*
X104936113Y-93461158D01*
X105157762Y-93520548D01*
X105157766Y-93520548D01*
X105157768Y-93520549D01*
X105216398Y-93528267D01*
X105385266Y-93550500D01*
X105385273Y-93550500D01*
X105614727Y-93550500D01*
X105614734Y-93550500D01*
X105820345Y-93523430D01*
X105842231Y-93520549D01*
X105842231Y-93520548D01*
X105842238Y-93520548D01*
X106063887Y-93461158D01*
X106275888Y-93373344D01*
X106474612Y-93258611D01*
X106656661Y-93118919D01*
X106818919Y-92956661D01*
X106958611Y-92774612D01*
X107073344Y-92575888D01*
X107161158Y-92363887D01*
X107220548Y-92142238D01*
X107250500Y-91914734D01*
X107250500Y-91685266D01*
X107244581Y-91640306D01*
X109249500Y-91640306D01*
X109249500Y-91959693D01*
X109280802Y-92277508D01*
X109280804Y-92277523D01*
X109343111Y-92590760D01*
X109398881Y-92774608D01*
X109435820Y-92896381D01*
X109435821Y-92896385D01*
X109558039Y-93191444D01*
X109708592Y-93473108D01*
X109886020Y-93738649D01*
X109886031Y-93738664D01*
X110088628Y-93985528D01*
X110088646Y-93985548D01*
X110314451Y-94211353D01*
X110314461Y-94211362D01*
X110314465Y-94211366D01*
X110561344Y-94413975D01*
X110826894Y-94591409D01*
X111108556Y-94741961D01*
X111403619Y-94864180D01*
X111709240Y-94956889D01*
X112022477Y-95019196D01*
X112340313Y-95050500D01*
X112340322Y-95050500D01*
X112659678Y-95050500D01*
X112659687Y-95050500D01*
X112977523Y-95019196D01*
X113290760Y-94956889D01*
X113596381Y-94864180D01*
X113891444Y-94741961D01*
X114173106Y-94591409D01*
X114438656Y-94413975D01*
X114685535Y-94211366D01*
X114911366Y-93985535D01*
X115113975Y-93738656D01*
X115291409Y-93473106D01*
X115441961Y-93191444D01*
X115564180Y-92896381D01*
X115656889Y-92590760D01*
X115719196Y-92277523D01*
X115750500Y-91959687D01*
X115750500Y-91640313D01*
X115750499Y-91640306D01*
X124249500Y-91640306D01*
X124249500Y-91959693D01*
X124280802Y-92277508D01*
X124280804Y-92277523D01*
X124343111Y-92590760D01*
X124398881Y-92774608D01*
X124435820Y-92896381D01*
X124435821Y-92896385D01*
X124558039Y-93191444D01*
X124708592Y-93473108D01*
X124886020Y-93738649D01*
X124886031Y-93738664D01*
X125088628Y-93985528D01*
X125088646Y-93985548D01*
X125314451Y-94211353D01*
X125314461Y-94211362D01*
X125314465Y-94211366D01*
X125561344Y-94413975D01*
X125826894Y-94591409D01*
X126108556Y-94741961D01*
X126403619Y-94864180D01*
X126709240Y-94956889D01*
X127022477Y-95019196D01*
X127340313Y-95050500D01*
X127340322Y-95050500D01*
X127659678Y-95050500D01*
X127659687Y-95050500D01*
X127977523Y-95019196D01*
X128290760Y-94956889D01*
X128596381Y-94864180D01*
X128891444Y-94741961D01*
X129173106Y-94591409D01*
X129438656Y-94413975D01*
X129685535Y-94211366D01*
X129911366Y-93985535D01*
X130113975Y-93738656D01*
X130291409Y-93473106D01*
X130441961Y-93191444D01*
X130564180Y-92896381D01*
X130656889Y-92590760D01*
X130719196Y-92277523D01*
X130750500Y-91959687D01*
X130750500Y-91685263D01*
X132749500Y-91685263D01*
X132749500Y-91914736D01*
X132779450Y-92142231D01*
X132779452Y-92142238D01*
X132838842Y-92363887D01*
X132926656Y-92575888D01*
X132926657Y-92575889D01*
X132926662Y-92575900D01*
X133041386Y-92774608D01*
X133041391Y-92774615D01*
X133181073Y-92956652D01*
X133181092Y-92956673D01*
X133343326Y-93118907D01*
X133343347Y-93118926D01*
X133525384Y-93258608D01*
X133525391Y-93258613D01*
X133724099Y-93373337D01*
X133724103Y-93373338D01*
X133724112Y-93373344D01*
X133936113Y-93461158D01*
X134157762Y-93520548D01*
X134157766Y-93520548D01*
X134157768Y-93520549D01*
X134216398Y-93528267D01*
X134385266Y-93550500D01*
X134385273Y-93550500D01*
X134614727Y-93550500D01*
X134614734Y-93550500D01*
X134820345Y-93523430D01*
X134842231Y-93520549D01*
X134842231Y-93520548D01*
X134842238Y-93520548D01*
X135063887Y-93461158D01*
X135275888Y-93373344D01*
X135474612Y-93258611D01*
X135656661Y-93118919D01*
X135818919Y-92956661D01*
X135958611Y-92774612D01*
X136073344Y-92575888D01*
X136161158Y-92363887D01*
X136220548Y-92142238D01*
X136250500Y-91914734D01*
X136250500Y-91685266D01*
X136220548Y-91457762D01*
X136161158Y-91236113D01*
X136073344Y-91024112D01*
X136073338Y-91024103D01*
X136073337Y-91024099D01*
X135958613Y-90825391D01*
X135958608Y-90825384D01*
X135818926Y-90643347D01*
X135818907Y-90643326D01*
X135656673Y-90481092D01*
X135656652Y-90481073D01*
X135474615Y-90341391D01*
X135474608Y-90341386D01*
X135275900Y-90226662D01*
X135275892Y-90226658D01*
X135275888Y-90226656D01*
X135063887Y-90138842D01*
X134842238Y-90079452D01*
X134842231Y-90079450D01*
X134614736Y-90049500D01*
X134614734Y-90049500D01*
X134385266Y-90049500D01*
X134385263Y-90049500D01*
X134157768Y-90079450D01*
X133936113Y-90138842D01*
X133724110Y-90226657D01*
X133724099Y-90226662D01*
X133525391Y-90341386D01*
X133525384Y-90341391D01*
X133343347Y-90481073D01*
X133343326Y-90481092D01*
X133181092Y-90643326D01*
X133181073Y-90643347D01*
X133041391Y-90825384D01*
X133041386Y-90825391D01*
X132926662Y-91024099D01*
X132926657Y-91024110D01*
X132838842Y-91236113D01*
X132779450Y-91457768D01*
X132749500Y-91685263D01*
X130750500Y-91685263D01*
X130750500Y-91640313D01*
X130719196Y-91322477D01*
X130656889Y-91009240D01*
X130564180Y-90703619D01*
X130441961Y-90408556D01*
X130291409Y-90126894D01*
X130113975Y-89861344D01*
X129911366Y-89614465D01*
X129911362Y-89614461D01*
X129911353Y-89614451D01*
X129685548Y-89388646D01*
X129685528Y-89388628D01*
X129438664Y-89186031D01*
X129438649Y-89186020D01*
X129173108Y-89008592D01*
X128891444Y-88858039D01*
X128596385Y-88735821D01*
X128596381Y-88735820D01*
X128290760Y-88643111D01*
X128081935Y-88601573D01*
X127977524Y-88580804D01*
X127977508Y-88580802D01*
X127659693Y-88549500D01*
X127659687Y-88549500D01*
X127340313Y-88549500D01*
X127340306Y-88549500D01*
X127022491Y-88580802D01*
X127022475Y-88580804D01*
X126813652Y-88622342D01*
X126709240Y-88643111D01*
X126556429Y-88689465D01*
X126403618Y-88735820D01*
X126403614Y-88735821D01*
X126108555Y-88858039D01*
X125826891Y-89008592D01*
X125561350Y-89186020D01*
X125561335Y-89186031D01*
X125314471Y-89388628D01*
X125314451Y-89388646D01*
X125088646Y-89614451D01*
X125088628Y-89614471D01*
X124886031Y-89861335D01*
X124886020Y-89861350D01*
X124708592Y-90126891D01*
X124558039Y-90408555D01*
X124435821Y-90703614D01*
X124435820Y-90703618D01*
X124435820Y-90703619D01*
X124343111Y-91009240D01*
X124340153Y-91024110D01*
X124280804Y-91322475D01*
X124280802Y-91322491D01*
X124249500Y-91640306D01*
X115750499Y-91640306D01*
X115719196Y-91322477D01*
X115656889Y-91009240D01*
X115564180Y-90703619D01*
X115441961Y-90408556D01*
X115291409Y-90126894D01*
X115113975Y-89861344D01*
X114911366Y-89614465D01*
X114911362Y-89614461D01*
X114911353Y-89614451D01*
X114685548Y-89388646D01*
X114685528Y-89388628D01*
X114438664Y-89186031D01*
X114438649Y-89186020D01*
X114173108Y-89008592D01*
X113891444Y-88858039D01*
X113596385Y-88735821D01*
X113596381Y-88735820D01*
X113290760Y-88643111D01*
X113081935Y-88601573D01*
X112977524Y-88580804D01*
X112977508Y-88580802D01*
X112659693Y-88549500D01*
X112659687Y-88549500D01*
X112340313Y-88549500D01*
X112340306Y-88549500D01*
X112022491Y-88580802D01*
X112022475Y-88580804D01*
X111813652Y-88622342D01*
X111709240Y-88643111D01*
X111556429Y-88689465D01*
X111403618Y-88735820D01*
X111403614Y-88735821D01*
X111108555Y-88858039D01*
X110826891Y-89008592D01*
X110561350Y-89186020D01*
X110561335Y-89186031D01*
X110314471Y-89388628D01*
X110314451Y-89388646D01*
X110088646Y-89614451D01*
X110088628Y-89614471D01*
X109886031Y-89861335D01*
X109886020Y-89861350D01*
X109708592Y-90126891D01*
X109558039Y-90408555D01*
X109435821Y-90703614D01*
X109435820Y-90703618D01*
X109435820Y-90703619D01*
X109343111Y-91009240D01*
X109340153Y-91024110D01*
X109280804Y-91322475D01*
X109280802Y-91322491D01*
X109249500Y-91640306D01*
X107244581Y-91640306D01*
X107220548Y-91457762D01*
X107161158Y-91236113D01*
X107073344Y-91024112D01*
X107073338Y-91024103D01*
X107073337Y-91024099D01*
X106958613Y-90825391D01*
X106958608Y-90825384D01*
X106818926Y-90643347D01*
X106818907Y-90643326D01*
X106656673Y-90481092D01*
X106656652Y-90481073D01*
X106474615Y-90341391D01*
X106474608Y-90341386D01*
X106275900Y-90226662D01*
X106275892Y-90226658D01*
X106275888Y-90226656D01*
X106063887Y-90138842D01*
X105842238Y-90079452D01*
X105842231Y-90079450D01*
X105614736Y-90049500D01*
X105614734Y-90049500D01*
X105385266Y-90049500D01*
X105385263Y-90049500D01*
X105157768Y-90079450D01*
X104936113Y-90138842D01*
X104724110Y-90226657D01*
X104724099Y-90226662D01*
X104525391Y-90341386D01*
X104525384Y-90341391D01*
X104343347Y-90481073D01*
X104343326Y-90481092D01*
X104181092Y-90643326D01*
X104181073Y-90643347D01*
X104041391Y-90825384D01*
X104041386Y-90825391D01*
X103926662Y-91024099D01*
X103926657Y-91024110D01*
X103838842Y-91236113D01*
X103779450Y-91457768D01*
X103749500Y-91685263D01*
X99925500Y-91685263D01*
X99925500Y-78485263D01*
X103749500Y-78485263D01*
X103749500Y-78714736D01*
X103779450Y-78942231D01*
X103779452Y-78942238D01*
X103838842Y-79163887D01*
X103926656Y-79375888D01*
X103926657Y-79375889D01*
X103926662Y-79375900D01*
X104041386Y-79574608D01*
X104041391Y-79574615D01*
X104181073Y-79756652D01*
X104181092Y-79756673D01*
X104343326Y-79918907D01*
X104343347Y-79918926D01*
X104525384Y-80058608D01*
X104525391Y-80058613D01*
X104724099Y-80173337D01*
X104724103Y-80173338D01*
X104724112Y-80173344D01*
X104936113Y-80261158D01*
X105157762Y-80320548D01*
X105157766Y-80320548D01*
X105157768Y-80320549D01*
X105216398Y-80328267D01*
X105385266Y-80350500D01*
X105385273Y-80350500D01*
X105614727Y-80350500D01*
X105614734Y-80350500D01*
X105820345Y-80323430D01*
X105842231Y-80320549D01*
X105842231Y-80320548D01*
X105842238Y-80320548D01*
X106063887Y-80261158D01*
X106275888Y-80173344D01*
X106474612Y-80058611D01*
X106656661Y-79918919D01*
X106818919Y-79756661D01*
X106958611Y-79574612D01*
X107073344Y-79375888D01*
X107161158Y-79163887D01*
X107220548Y-78942238D01*
X107250500Y-78714734D01*
X107250500Y-78485266D01*
X107244581Y-78440306D01*
X109249500Y-78440306D01*
X109249500Y-78759693D01*
X109280802Y-79077508D01*
X109280804Y-79077523D01*
X109343111Y-79390760D01*
X109398881Y-79574608D01*
X109435820Y-79696381D01*
X109435821Y-79696385D01*
X109558039Y-79991444D01*
X109708592Y-80273108D01*
X109886020Y-80538649D01*
X109886031Y-80538664D01*
X110088628Y-80785528D01*
X110088646Y-80785548D01*
X110314451Y-81011353D01*
X110314461Y-81011362D01*
X110314465Y-81011366D01*
X110561344Y-81213975D01*
X110826894Y-81391409D01*
X111108556Y-81541961D01*
X111403619Y-81664180D01*
X111709240Y-81756889D01*
X112022477Y-81819196D01*
X112340313Y-81850500D01*
X112340322Y-81850500D01*
X112659678Y-81850500D01*
X112659687Y-81850500D01*
X112977523Y-81819196D01*
X113290760Y-81756889D01*
X113596381Y-81664180D01*
X113891444Y-81541961D01*
X114173106Y-81391409D01*
X114438656Y-81213975D01*
X114685535Y-81011366D01*
X114911366Y-80785535D01*
X115113975Y-80538656D01*
X115291409Y-80273106D01*
X115441961Y-79991444D01*
X115564180Y-79696381D01*
X115656889Y-79390760D01*
X115719196Y-79077523D01*
X115750500Y-78759687D01*
X115750500Y-78440313D01*
X115750499Y-78440306D01*
X124249500Y-78440306D01*
X124249500Y-78759693D01*
X124280802Y-79077508D01*
X124280804Y-79077523D01*
X124343111Y-79390760D01*
X124398881Y-79574608D01*
X124435820Y-79696381D01*
X124435821Y-79696385D01*
X124558039Y-79991444D01*
X124708592Y-80273108D01*
X124886020Y-80538649D01*
X124886031Y-80538664D01*
X125088628Y-80785528D01*
X125088646Y-80785548D01*
X125314451Y-81011353D01*
X125314461Y-81011362D01*
X125314465Y-81011366D01*
X125561344Y-81213975D01*
X125826894Y-81391409D01*
X126108556Y-81541961D01*
X126403619Y-81664180D01*
X126709240Y-81756889D01*
X127022477Y-81819196D01*
X127340313Y-81850500D01*
X127340322Y-81850500D01*
X127659678Y-81850500D01*
X127659687Y-81850500D01*
X127977523Y-81819196D01*
X128290760Y-81756889D01*
X128596381Y-81664180D01*
X128891444Y-81541961D01*
X129173106Y-81391409D01*
X129438656Y-81213975D01*
X129685535Y-81011366D01*
X129911366Y-80785535D01*
X130113975Y-80538656D01*
X130291409Y-80273106D01*
X130441961Y-79991444D01*
X130564180Y-79696381D01*
X130656889Y-79390760D01*
X130719196Y-79077523D01*
X130750500Y-78759687D01*
X130750500Y-78485263D01*
X132749500Y-78485263D01*
X132749500Y-78714736D01*
X132779450Y-78942231D01*
X132779452Y-78942238D01*
X132838842Y-79163887D01*
X132926656Y-79375888D01*
X132926657Y-79375889D01*
X132926662Y-79375900D01*
X133041386Y-79574608D01*
X133041391Y-79574615D01*
X133181073Y-79756652D01*
X133181092Y-79756673D01*
X133343326Y-79918907D01*
X133343347Y-79918926D01*
X133525384Y-80058608D01*
X133525391Y-80058613D01*
X133724099Y-80173337D01*
X133724103Y-80173338D01*
X133724112Y-80173344D01*
X133936113Y-80261158D01*
X134157762Y-80320548D01*
X134157766Y-80320548D01*
X134157768Y-80320549D01*
X134216398Y-80328267D01*
X134385266Y-80350500D01*
X134385273Y-80350500D01*
X134614727Y-80350500D01*
X134614734Y-80350500D01*
X134820345Y-80323430D01*
X134842231Y-80320549D01*
X134842231Y-80320548D01*
X134842238Y-80320548D01*
X135063887Y-80261158D01*
X135275888Y-80173344D01*
X135474612Y-80058611D01*
X135656661Y-79918919D01*
X135818919Y-79756661D01*
X135958611Y-79574612D01*
X136073344Y-79375888D01*
X136161158Y-79163887D01*
X136220548Y-78942238D01*
X136250500Y-78714734D01*
X136250500Y-78485266D01*
X136220548Y-78257762D01*
X136161158Y-78036113D01*
X136073344Y-77824112D01*
X136073338Y-77824103D01*
X136073337Y-77824099D01*
X135958613Y-77625391D01*
X135958608Y-77625384D01*
X135818926Y-77443347D01*
X135818907Y-77443326D01*
X135656673Y-77281092D01*
X135656652Y-77281073D01*
X135474615Y-77141391D01*
X135474608Y-77141386D01*
X135275900Y-77026662D01*
X135275892Y-77026658D01*
X135275888Y-77026656D01*
X135063887Y-76938842D01*
X134842238Y-76879452D01*
X134842231Y-76879450D01*
X134614736Y-76849500D01*
X134614734Y-76849500D01*
X134385266Y-76849500D01*
X134385263Y-76849500D01*
X134157768Y-76879450D01*
X133936113Y-76938842D01*
X133724110Y-77026657D01*
X133724099Y-77026662D01*
X133525391Y-77141386D01*
X133525384Y-77141391D01*
X133343347Y-77281073D01*
X133343326Y-77281092D01*
X133181092Y-77443326D01*
X133181073Y-77443347D01*
X133041391Y-77625384D01*
X133041386Y-77625391D01*
X132926662Y-77824099D01*
X132926657Y-77824110D01*
X132838842Y-78036113D01*
X132779450Y-78257768D01*
X132749500Y-78485263D01*
X130750500Y-78485263D01*
X130750500Y-78440313D01*
X130719196Y-78122477D01*
X130656889Y-77809240D01*
X130564180Y-77503619D01*
X130441961Y-77208556D01*
X130291409Y-76926894D01*
X130113975Y-76661344D01*
X129911366Y-76414465D01*
X129911362Y-76414461D01*
X129911353Y-76414451D01*
X129685548Y-76188646D01*
X129685528Y-76188628D01*
X129438664Y-75986031D01*
X129438649Y-75986020D01*
X129173108Y-75808592D01*
X128891444Y-75658039D01*
X128596385Y-75535821D01*
X128596381Y-75535820D01*
X128290760Y-75443111D01*
X128081935Y-75401573D01*
X127977524Y-75380804D01*
X127977508Y-75380802D01*
X127659693Y-75349500D01*
X127659687Y-75349500D01*
X127340313Y-75349500D01*
X127340306Y-75349500D01*
X127022491Y-75380802D01*
X127022475Y-75380804D01*
X126813652Y-75422342D01*
X126709240Y-75443111D01*
X126556429Y-75489465D01*
X126403618Y-75535820D01*
X126403614Y-75535821D01*
X126108555Y-75658039D01*
X125826891Y-75808592D01*
X125561350Y-75986020D01*
X125561335Y-75986031D01*
X125314471Y-76188628D01*
X125314451Y-76188646D01*
X125088646Y-76414451D01*
X125088628Y-76414471D01*
X124886031Y-76661335D01*
X124886020Y-76661350D01*
X124708592Y-76926891D01*
X124558039Y-77208555D01*
X124435821Y-77503614D01*
X124435820Y-77503618D01*
X124435820Y-77503619D01*
X124343111Y-77809240D01*
X124340153Y-77824110D01*
X124280804Y-78122475D01*
X124280802Y-78122491D01*
X124249500Y-78440306D01*
X115750499Y-78440306D01*
X115719196Y-78122477D01*
X115656889Y-77809240D01*
X115564180Y-77503619D01*
X115441961Y-77208556D01*
X115291409Y-76926894D01*
X115113975Y-76661344D01*
X114911366Y-76414465D01*
X114911362Y-76414461D01*
X114911353Y-76414451D01*
X114685548Y-76188646D01*
X114685528Y-76188628D01*
X114438664Y-75986031D01*
X114438649Y-75986020D01*
X114173108Y-75808592D01*
X113891444Y-75658039D01*
X113596385Y-75535821D01*
X113596381Y-75535820D01*
X113290760Y-75443111D01*
X113081935Y-75401573D01*
X112977524Y-75380804D01*
X112977508Y-75380802D01*
X112659693Y-75349500D01*
X112659687Y-75349500D01*
X112340313Y-75349500D01*
X112340306Y-75349500D01*
X112022491Y-75380802D01*
X112022475Y-75380804D01*
X111813652Y-75422342D01*
X111709240Y-75443111D01*
X111556429Y-75489465D01*
X111403618Y-75535820D01*
X111403614Y-75535821D01*
X111108555Y-75658039D01*
X110826891Y-75808592D01*
X110561350Y-75986020D01*
X110561335Y-75986031D01*
X110314471Y-76188628D01*
X110314451Y-76188646D01*
X110088646Y-76414451D01*
X110088628Y-76414471D01*
X109886031Y-76661335D01*
X109886020Y-76661350D01*
X109708592Y-76926891D01*
X109558039Y-77208555D01*
X109435821Y-77503614D01*
X109435820Y-77503618D01*
X109435820Y-77503619D01*
X109343111Y-77809240D01*
X109340153Y-77824110D01*
X109280804Y-78122475D01*
X109280802Y-78122491D01*
X109249500Y-78440306D01*
X107244581Y-78440306D01*
X107220548Y-78257762D01*
X107161158Y-78036113D01*
X107073344Y-77824112D01*
X107073338Y-77824103D01*
X107073337Y-77824099D01*
X106958613Y-77625391D01*
X106958608Y-77625384D01*
X106818926Y-77443347D01*
X106818907Y-77443326D01*
X106656673Y-77281092D01*
X106656652Y-77281073D01*
X106474615Y-77141391D01*
X106474608Y-77141386D01*
X106275900Y-77026662D01*
X106275892Y-77026658D01*
X106275888Y-77026656D01*
X106063887Y-76938842D01*
X105842238Y-76879452D01*
X105842231Y-76879450D01*
X105614736Y-76849500D01*
X105614734Y-76849500D01*
X105385266Y-76849500D01*
X105385263Y-76849500D01*
X105157768Y-76879450D01*
X104936113Y-76938842D01*
X104724110Y-77026657D01*
X104724099Y-77026662D01*
X104525391Y-77141386D01*
X104525384Y-77141391D01*
X104343347Y-77281073D01*
X104343326Y-77281092D01*
X104181092Y-77443326D01*
X104181073Y-77443347D01*
X104041391Y-77625384D01*
X104041386Y-77625391D01*
X103926662Y-77824099D01*
X103926657Y-77824110D01*
X103838842Y-78036113D01*
X103779450Y-78257768D01*
X103749500Y-78485263D01*
X99925500Y-78485263D01*
X99925500Y-65385263D01*
X103749500Y-65385263D01*
X103749500Y-65614736D01*
X103779450Y-65842231D01*
X103779452Y-65842238D01*
X103838842Y-66063887D01*
X103926656Y-66275888D01*
X103926657Y-66275889D01*
X103926662Y-66275900D01*
X104041386Y-66474608D01*
X104041391Y-66474615D01*
X104181073Y-66656652D01*
X104181092Y-66656673D01*
X104343326Y-66818907D01*
X104343347Y-66818926D01*
X104525384Y-66958608D01*
X104525391Y-66958613D01*
X104724099Y-67073337D01*
X104724103Y-67073338D01*
X104724112Y-67073344D01*
X104936113Y-67161158D01*
X105157762Y-67220548D01*
X105157766Y-67220548D01*
X105157768Y-67220549D01*
X105216398Y-67228267D01*
X105385266Y-67250500D01*
X105385273Y-67250500D01*
X105614727Y-67250500D01*
X105614734Y-67250500D01*
X105820345Y-67223430D01*
X105842231Y-67220549D01*
X105842231Y-67220548D01*
X105842238Y-67220548D01*
X106063887Y-67161158D01*
X106275888Y-67073344D01*
X106474612Y-66958611D01*
X106656661Y-66818919D01*
X106818919Y-66656661D01*
X106958611Y-66474612D01*
X107073344Y-66275888D01*
X107161158Y-66063887D01*
X107220548Y-65842238D01*
X107250500Y-65614734D01*
X107250500Y-65385266D01*
X107244581Y-65340306D01*
X109249500Y-65340306D01*
X109249500Y-65659693D01*
X109280802Y-65977508D01*
X109280804Y-65977523D01*
X109343111Y-66290760D01*
X109398881Y-66474608D01*
X109435820Y-66596381D01*
X109435821Y-66596385D01*
X109558039Y-66891444D01*
X109708592Y-67173108D01*
X109886020Y-67438649D01*
X109886031Y-67438664D01*
X110088628Y-67685528D01*
X110088646Y-67685548D01*
X110314451Y-67911353D01*
X110314461Y-67911362D01*
X110314465Y-67911366D01*
X110561344Y-68113975D01*
X110826894Y-68291409D01*
X111108556Y-68441961D01*
X111403619Y-68564180D01*
X111709240Y-68656889D01*
X112022477Y-68719196D01*
X112340313Y-68750500D01*
X112340322Y-68750500D01*
X112659678Y-68750500D01*
X112659687Y-68750500D01*
X112977523Y-68719196D01*
X113290760Y-68656889D01*
X113596381Y-68564180D01*
X113891444Y-68441961D01*
X114173106Y-68291409D01*
X114438656Y-68113975D01*
X114685535Y-67911366D01*
X114911366Y-67685535D01*
X115113975Y-67438656D01*
X115291409Y-67173106D01*
X115441961Y-66891444D01*
X115564180Y-66596381D01*
X115656889Y-66290760D01*
X115719196Y-65977523D01*
X115750500Y-65659687D01*
X115750500Y-65340313D01*
X115750499Y-65340306D01*
X124249500Y-65340306D01*
X124249500Y-65659693D01*
X124280802Y-65977508D01*
X124280804Y-65977523D01*
X124343111Y-66290760D01*
X124398881Y-66474608D01*
X124435820Y-66596381D01*
X124435821Y-66596385D01*
X124558039Y-66891444D01*
X124708592Y-67173108D01*
X124886020Y-67438649D01*
X124886031Y-67438664D01*
X125088628Y-67685528D01*
X125088646Y-67685548D01*
X125314451Y-67911353D01*
X125314461Y-67911362D01*
X125314465Y-67911366D01*
X125561344Y-68113975D01*
X125826894Y-68291409D01*
X126108556Y-68441961D01*
X126403619Y-68564180D01*
X126709240Y-68656889D01*
X127022477Y-68719196D01*
X127340313Y-68750500D01*
X127340322Y-68750500D01*
X127659678Y-68750500D01*
X127659687Y-68750500D01*
X127977523Y-68719196D01*
X128290760Y-68656889D01*
X128596381Y-68564180D01*
X128891444Y-68441961D01*
X129173106Y-68291409D01*
X129438656Y-68113975D01*
X129685535Y-67911366D01*
X129911366Y-67685535D01*
X130113975Y-67438656D01*
X130291409Y-67173106D01*
X130441961Y-66891444D01*
X130564180Y-66596381D01*
X130656889Y-66290760D01*
X130719196Y-65977523D01*
X130750500Y-65659687D01*
X130750500Y-65385263D01*
X132749500Y-65385263D01*
X132749500Y-65614736D01*
X132779450Y-65842231D01*
X132779452Y-65842238D01*
X132838842Y-66063887D01*
X132926656Y-66275888D01*
X132926657Y-66275889D01*
X132926662Y-66275900D01*
X133041386Y-66474608D01*
X133041391Y-66474615D01*
X133181073Y-66656652D01*
X133181092Y-66656673D01*
X133343326Y-66818907D01*
X133343347Y-66818926D01*
X133525384Y-66958608D01*
X133525391Y-66958613D01*
X133724099Y-67073337D01*
X133724103Y-67073338D01*
X133724112Y-67073344D01*
X133936113Y-67161158D01*
X134157762Y-67220548D01*
X134157766Y-67220548D01*
X134157768Y-67220549D01*
X134216398Y-67228267D01*
X134385266Y-67250500D01*
X134385273Y-67250500D01*
X134614727Y-67250500D01*
X134614734Y-67250500D01*
X134820345Y-67223430D01*
X134842231Y-67220549D01*
X134842231Y-67220548D01*
X134842238Y-67220548D01*
X135063887Y-67161158D01*
X135275888Y-67073344D01*
X135474612Y-66958611D01*
X135656661Y-66818919D01*
X135818919Y-66656661D01*
X135958611Y-66474612D01*
X136073344Y-66275888D01*
X136161158Y-66063887D01*
X136220548Y-65842238D01*
X136250500Y-65614734D01*
X136250500Y-65385266D01*
X136220548Y-65157762D01*
X136161158Y-64936113D01*
X136073344Y-64724112D01*
X136073338Y-64724103D01*
X136073337Y-64724099D01*
X135958613Y-64525391D01*
X135958608Y-64525384D01*
X135818926Y-64343347D01*
X135818907Y-64343326D01*
X135656673Y-64181092D01*
X135656652Y-64181073D01*
X135474615Y-64041391D01*
X135474608Y-64041386D01*
X135275900Y-63926662D01*
X135275892Y-63926658D01*
X135275888Y-63926656D01*
X135063887Y-63838842D01*
X134842238Y-63779452D01*
X134842231Y-63779450D01*
X134614736Y-63749500D01*
X134614734Y-63749500D01*
X134385266Y-63749500D01*
X134385263Y-63749500D01*
X134157768Y-63779450D01*
X133936113Y-63838842D01*
X133724110Y-63926657D01*
X133724099Y-63926662D01*
X133525391Y-64041386D01*
X133525384Y-64041391D01*
X133343347Y-64181073D01*
X133343326Y-64181092D01*
X133181092Y-64343326D01*
X133181073Y-64343347D01*
X133041391Y-64525384D01*
X133041386Y-64525391D01*
X132926662Y-64724099D01*
X132926657Y-64724110D01*
X132838842Y-64936113D01*
X132779450Y-65157768D01*
X132749500Y-65385263D01*
X130750500Y-65385263D01*
X130750500Y-65340313D01*
X130719196Y-65022477D01*
X130656889Y-64709240D01*
X130564180Y-64403619D01*
X130441961Y-64108556D01*
X130291409Y-63826894D01*
X130113975Y-63561344D01*
X129911366Y-63314465D01*
X129911362Y-63314461D01*
X129911353Y-63314451D01*
X129685548Y-63088646D01*
X129685528Y-63088628D01*
X129438664Y-62886031D01*
X129438649Y-62886020D01*
X129173108Y-62708592D01*
X128891444Y-62558039D01*
X128596385Y-62435821D01*
X128596381Y-62435820D01*
X128290760Y-62343111D01*
X128081935Y-62301573D01*
X127977524Y-62280804D01*
X127977508Y-62280802D01*
X127659693Y-62249500D01*
X127659687Y-62249500D01*
X127340313Y-62249500D01*
X127340306Y-62249500D01*
X127022491Y-62280802D01*
X127022475Y-62280804D01*
X126813652Y-62322342D01*
X126709240Y-62343111D01*
X126556429Y-62389465D01*
X126403618Y-62435820D01*
X126403614Y-62435821D01*
X126108555Y-62558039D01*
X125826891Y-62708592D01*
X125561350Y-62886020D01*
X125561335Y-62886031D01*
X125314471Y-63088628D01*
X125314451Y-63088646D01*
X125088646Y-63314451D01*
X125088628Y-63314471D01*
X124886031Y-63561335D01*
X124886020Y-63561350D01*
X124708592Y-63826891D01*
X124558039Y-64108555D01*
X124435821Y-64403614D01*
X124435820Y-64403618D01*
X124435820Y-64403619D01*
X124343111Y-64709240D01*
X124340153Y-64724110D01*
X124280804Y-65022475D01*
X124280802Y-65022491D01*
X124249500Y-65340306D01*
X115750499Y-65340306D01*
X115719196Y-65022477D01*
X115656889Y-64709240D01*
X115564180Y-64403619D01*
X115441961Y-64108556D01*
X115291409Y-63826894D01*
X115113975Y-63561344D01*
X114911366Y-63314465D01*
X114911362Y-63314461D01*
X114911353Y-63314451D01*
X114685548Y-63088646D01*
X114685528Y-63088628D01*
X114438664Y-62886031D01*
X114438649Y-62886020D01*
X114173108Y-62708592D01*
X113891444Y-62558039D01*
X113596385Y-62435821D01*
X113596381Y-62435820D01*
X113290760Y-62343111D01*
X113081935Y-62301573D01*
X112977524Y-62280804D01*
X112977508Y-62280802D01*
X112659693Y-62249500D01*
X112659687Y-62249500D01*
X112340313Y-62249500D01*
X112340306Y-62249500D01*
X112022491Y-62280802D01*
X112022475Y-62280804D01*
X111813652Y-62322342D01*
X111709240Y-62343111D01*
X111556429Y-62389465D01*
X111403618Y-62435820D01*
X111403614Y-62435821D01*
X111108555Y-62558039D01*
X110826891Y-62708592D01*
X110561350Y-62886020D01*
X110561335Y-62886031D01*
X110314471Y-63088628D01*
X110314451Y-63088646D01*
X110088646Y-63314451D01*
X110088628Y-63314471D01*
X109886031Y-63561335D01*
X109886020Y-63561350D01*
X109708592Y-63826891D01*
X109558039Y-64108555D01*
X109435821Y-64403614D01*
X109435820Y-64403618D01*
X109435820Y-64403619D01*
X109343111Y-64709240D01*
X109340153Y-64724110D01*
X109280804Y-65022475D01*
X109280802Y-65022491D01*
X109249500Y-65340306D01*
X107244581Y-65340306D01*
X107220548Y-65157762D01*
X107161158Y-64936113D01*
X107073344Y-64724112D01*
X107073338Y-64724103D01*
X107073337Y-64724099D01*
X106958613Y-64525391D01*
X106958608Y-64525384D01*
X106818926Y-64343347D01*
X106818907Y-64343326D01*
X106656673Y-64181092D01*
X106656652Y-64181073D01*
X106474615Y-64041391D01*
X106474608Y-64041386D01*
X106275900Y-63926662D01*
X106275892Y-63926658D01*
X106275888Y-63926656D01*
X106063887Y-63838842D01*
X105842238Y-63779452D01*
X105842231Y-63779450D01*
X105614736Y-63749500D01*
X105614734Y-63749500D01*
X105385266Y-63749500D01*
X105385263Y-63749500D01*
X105157768Y-63779450D01*
X104936113Y-63838842D01*
X104724110Y-63926657D01*
X104724099Y-63926662D01*
X104525391Y-64041386D01*
X104525384Y-64041391D01*
X104343347Y-64181073D01*
X104343326Y-64181092D01*
X104181092Y-64343326D01*
X104181073Y-64343347D01*
X104041391Y-64525384D01*
X104041386Y-64525391D01*
X103926662Y-64724099D01*
X103926657Y-64724110D01*
X103838842Y-64936113D01*
X103779450Y-65157768D01*
X103749500Y-65385263D01*
X99925500Y-65385263D01*
X99925500Y-52285263D01*
X103749500Y-52285263D01*
X103749500Y-52514736D01*
X103779450Y-52742231D01*
X103779452Y-52742238D01*
X103838842Y-52963887D01*
X103926656Y-53175888D01*
X103926657Y-53175889D01*
X103926662Y-53175900D01*
X104041386Y-53374608D01*
X104041391Y-53374615D01*
X104181073Y-53556652D01*
X104181092Y-53556673D01*
X104343326Y-53718907D01*
X104343347Y-53718926D01*
X104525384Y-53858608D01*
X104525391Y-53858613D01*
X104724099Y-53973337D01*
X104724103Y-53973338D01*
X104724112Y-53973344D01*
X104936113Y-54061158D01*
X105157762Y-54120548D01*
X105157766Y-54120548D01*
X105157768Y-54120549D01*
X105216398Y-54128267D01*
X105385266Y-54150500D01*
X105385273Y-54150500D01*
X105614727Y-54150500D01*
X105614734Y-54150500D01*
X105820345Y-54123430D01*
X105842231Y-54120549D01*
X105842231Y-54120548D01*
X105842238Y-54120548D01*
X106063887Y-54061158D01*
X106275888Y-53973344D01*
X106474612Y-53858611D01*
X106656661Y-53718919D01*
X106818919Y-53556661D01*
X106958611Y-53374612D01*
X107073344Y-53175888D01*
X107161158Y-52963887D01*
X107220548Y-52742238D01*
X107250500Y-52514734D01*
X107250500Y-52285266D01*
X107244581Y-52240306D01*
X109249500Y-52240306D01*
X109249500Y-52559693D01*
X109280802Y-52877508D01*
X109280804Y-52877523D01*
X109343111Y-53190760D01*
X109398881Y-53374608D01*
X109435820Y-53496381D01*
X109435821Y-53496385D01*
X109558039Y-53791444D01*
X109708592Y-54073108D01*
X109886020Y-54338649D01*
X109886031Y-54338664D01*
X110088628Y-54585528D01*
X110088646Y-54585548D01*
X110314451Y-54811353D01*
X110314461Y-54811362D01*
X110314465Y-54811366D01*
X110561344Y-55013975D01*
X110826894Y-55191409D01*
X111108556Y-55341961D01*
X111403619Y-55464180D01*
X111709240Y-55556889D01*
X112022477Y-55619196D01*
X112340313Y-55650500D01*
X112340322Y-55650500D01*
X112659678Y-55650500D01*
X112659687Y-55650500D01*
X112977523Y-55619196D01*
X113290760Y-55556889D01*
X113596381Y-55464180D01*
X113891444Y-55341961D01*
X114173106Y-55191409D01*
X114438656Y-55013975D01*
X114685535Y-54811366D01*
X114911366Y-54585535D01*
X115113975Y-54338656D01*
X115291409Y-54073106D01*
X115441961Y-53791444D01*
X115564180Y-53496381D01*
X115656889Y-53190760D01*
X115719196Y-52877523D01*
X115750500Y-52559687D01*
X115750500Y-52240313D01*
X115750499Y-52240306D01*
X124249500Y-52240306D01*
X124249500Y-52559693D01*
X124280802Y-52877508D01*
X124280804Y-52877523D01*
X124343111Y-53190760D01*
X124398881Y-53374608D01*
X124435820Y-53496381D01*
X124435821Y-53496385D01*
X124558039Y-53791444D01*
X124708592Y-54073108D01*
X124886020Y-54338649D01*
X124886031Y-54338664D01*
X125088628Y-54585528D01*
X125088646Y-54585548D01*
X125314451Y-54811353D01*
X125314461Y-54811362D01*
X125314465Y-54811366D01*
X125561344Y-55013975D01*
X125826894Y-55191409D01*
X126108556Y-55341961D01*
X126403619Y-55464180D01*
X126709240Y-55556889D01*
X127022477Y-55619196D01*
X127340313Y-55650500D01*
X127340322Y-55650500D01*
X127659678Y-55650500D01*
X127659687Y-55650500D01*
X127977523Y-55619196D01*
X128290760Y-55556889D01*
X128596381Y-55464180D01*
X128891444Y-55341961D01*
X129173106Y-55191409D01*
X129438656Y-55013975D01*
X129685535Y-54811366D01*
X129911366Y-54585535D01*
X130113975Y-54338656D01*
X130291409Y-54073106D01*
X130441961Y-53791444D01*
X130564180Y-53496381D01*
X130656889Y-53190760D01*
X130719196Y-52877523D01*
X130750500Y-52559687D01*
X130750500Y-52285263D01*
X132749500Y-52285263D01*
X132749500Y-52514736D01*
X132779450Y-52742231D01*
X132779452Y-52742238D01*
X132838842Y-52963887D01*
X132926656Y-53175888D01*
X132926657Y-53175889D01*
X132926662Y-53175900D01*
X133041386Y-53374608D01*
X133041391Y-53374615D01*
X133181073Y-53556652D01*
X133181092Y-53556673D01*
X133343326Y-53718907D01*
X133343347Y-53718926D01*
X133525384Y-53858608D01*
X133525391Y-53858613D01*
X133724099Y-53973337D01*
X133724103Y-53973338D01*
X133724112Y-53973344D01*
X133936113Y-54061158D01*
X134157762Y-54120548D01*
X134157766Y-54120548D01*
X134157768Y-54120549D01*
X134216398Y-54128267D01*
X134385266Y-54150500D01*
X134385273Y-54150500D01*
X134614727Y-54150500D01*
X134614734Y-54150500D01*
X134820345Y-54123430D01*
X134842231Y-54120549D01*
X134842231Y-54120548D01*
X134842238Y-54120548D01*
X135063887Y-54061158D01*
X135275888Y-53973344D01*
X135474612Y-53858611D01*
X135656661Y-53718919D01*
X135818919Y-53556661D01*
X135958611Y-53374612D01*
X136073344Y-53175888D01*
X136161158Y-52963887D01*
X136220548Y-52742238D01*
X136250500Y-52514734D01*
X136250500Y-52285266D01*
X136220548Y-52057762D01*
X136161158Y-51836113D01*
X136073344Y-51624112D01*
X136073338Y-51624103D01*
X136073337Y-51624099D01*
X135958613Y-51425391D01*
X135958608Y-51425384D01*
X135818926Y-51243347D01*
X135818907Y-51243326D01*
X135656673Y-51081092D01*
X135656652Y-51081073D01*
X135474615Y-50941391D01*
X135474608Y-50941386D01*
X135275900Y-50826662D01*
X135275892Y-50826658D01*
X135275888Y-50826656D01*
X135063887Y-50738842D01*
X134842238Y-50679452D01*
X134842231Y-50679450D01*
X134614736Y-50649500D01*
X134614734Y-50649500D01*
X134385266Y-50649500D01*
X134385263Y-50649500D01*
X134157768Y-50679450D01*
X133936113Y-50738842D01*
X133724110Y-50826657D01*
X133724099Y-50826662D01*
X133525391Y-50941386D01*
X133525384Y-50941391D01*
X133343347Y-51081073D01*
X133343326Y-51081092D01*
X133181092Y-51243326D01*
X133181073Y-51243347D01*
X133041391Y-51425384D01*
X133041386Y-51425391D01*
X132926662Y-51624099D01*
X132926657Y-51624110D01*
X132838842Y-51836113D01*
X132779450Y-52057768D01*
X132749500Y-52285263D01*
X130750500Y-52285263D01*
X130750500Y-52240313D01*
X130719196Y-51922477D01*
X130656889Y-51609240D01*
X130564180Y-51303619D01*
X130441961Y-51008556D01*
X130291409Y-50726894D01*
X130113975Y-50461344D01*
X129911366Y-50214465D01*
X129911362Y-50214461D01*
X129911353Y-50214451D01*
X129685548Y-49988646D01*
X129685528Y-49988628D01*
X129438664Y-49786031D01*
X129438649Y-49786020D01*
X129173108Y-49608592D01*
X128891444Y-49458039D01*
X128596385Y-49335821D01*
X128596381Y-49335820D01*
X128290760Y-49243111D01*
X128081935Y-49201573D01*
X127977524Y-49180804D01*
X127977508Y-49180802D01*
X127659693Y-49149500D01*
X127659687Y-49149500D01*
X127340313Y-49149500D01*
X127340306Y-49149500D01*
X127022491Y-49180802D01*
X127022475Y-49180804D01*
X126813652Y-49222342D01*
X126709240Y-49243111D01*
X126556429Y-49289465D01*
X126403618Y-49335820D01*
X126403614Y-49335821D01*
X126108555Y-49458039D01*
X125826891Y-49608592D01*
X125561350Y-49786020D01*
X125561335Y-49786031D01*
X125314471Y-49988628D01*
X125314451Y-49988646D01*
X125088646Y-50214451D01*
X125088628Y-50214471D01*
X124886031Y-50461335D01*
X124886020Y-50461350D01*
X124708592Y-50726891D01*
X124558039Y-51008555D01*
X124435821Y-51303614D01*
X124435820Y-51303618D01*
X124435820Y-51303619D01*
X124343111Y-51609240D01*
X124340153Y-51624110D01*
X124280804Y-51922475D01*
X124280802Y-51922491D01*
X124249500Y-52240306D01*
X115750499Y-52240306D01*
X115719196Y-51922477D01*
X115656889Y-51609240D01*
X115564180Y-51303619D01*
X115441961Y-51008556D01*
X115291409Y-50726894D01*
X115113975Y-50461344D01*
X114911366Y-50214465D01*
X114911362Y-50214461D01*
X114911353Y-50214451D01*
X114685548Y-49988646D01*
X114685528Y-49988628D01*
X114438664Y-49786031D01*
X114438649Y-49786020D01*
X114173108Y-49608592D01*
X113891444Y-49458039D01*
X113596385Y-49335821D01*
X113596381Y-49335820D01*
X113290760Y-49243111D01*
X113081935Y-49201573D01*
X112977524Y-49180804D01*
X112977508Y-49180802D01*
X112659693Y-49149500D01*
X112659687Y-49149500D01*
X112340313Y-49149500D01*
X112340306Y-49149500D01*
X112022491Y-49180802D01*
X112022475Y-49180804D01*
X111813652Y-49222342D01*
X111709240Y-49243111D01*
X111556429Y-49289465D01*
X111403618Y-49335820D01*
X111403614Y-49335821D01*
X111108555Y-49458039D01*
X110826891Y-49608592D01*
X110561350Y-49786020D01*
X110561335Y-49786031D01*
X110314471Y-49988628D01*
X110314451Y-49988646D01*
X110088646Y-50214451D01*
X110088628Y-50214471D01*
X109886031Y-50461335D01*
X109886020Y-50461350D01*
X109708592Y-50726891D01*
X109558039Y-51008555D01*
X109435821Y-51303614D01*
X109435820Y-51303618D01*
X109435820Y-51303619D01*
X109343111Y-51609240D01*
X109340153Y-51624110D01*
X109280804Y-51922475D01*
X109280802Y-51922491D01*
X109249500Y-52240306D01*
X107244581Y-52240306D01*
X107220548Y-52057762D01*
X107161158Y-51836113D01*
X107073344Y-51624112D01*
X107073338Y-51624103D01*
X107073337Y-51624099D01*
X106958613Y-51425391D01*
X106958608Y-51425384D01*
X106818926Y-51243347D01*
X106818907Y-51243326D01*
X106656673Y-51081092D01*
X106656652Y-51081073D01*
X106474615Y-50941391D01*
X106474608Y-50941386D01*
X106275900Y-50826662D01*
X106275892Y-50826658D01*
X106275888Y-50826656D01*
X106063887Y-50738842D01*
X105842238Y-50679452D01*
X105842231Y-50679450D01*
X105614736Y-50649500D01*
X105614734Y-50649500D01*
X105385266Y-50649500D01*
X105385263Y-50649500D01*
X105157768Y-50679450D01*
X104936113Y-50738842D01*
X104724110Y-50826657D01*
X104724099Y-50826662D01*
X104525391Y-50941386D01*
X104525384Y-50941391D01*
X104343347Y-51081073D01*
X104343326Y-51081092D01*
X104181092Y-51243326D01*
X104181073Y-51243347D01*
X104041391Y-51425384D01*
X104041386Y-51425391D01*
X103926662Y-51624099D01*
X103926657Y-51624110D01*
X103838842Y-51836113D01*
X103779450Y-52057768D01*
X103749500Y-52285263D01*
X99925500Y-52285263D01*
X99925500Y-37878709D01*
X104649500Y-37878709D01*
X104649500Y-38121290D01*
X104681160Y-38361782D01*
X104743944Y-38596095D01*
X104743945Y-38596097D01*
X104743946Y-38596100D01*
X104836776Y-38820212D01*
X104836777Y-38820213D01*
X104836782Y-38820224D01*
X104958061Y-39030285D01*
X104958063Y-39030288D01*
X104958064Y-39030289D01*
X105105735Y-39222738D01*
X105105739Y-39222742D01*
X105105744Y-39222748D01*
X105277251Y-39394255D01*
X105277256Y-39394259D01*
X105277262Y-39394265D01*
X105469711Y-39541936D01*
X105469714Y-39541938D01*
X105679775Y-39663217D01*
X105679779Y-39663218D01*
X105679788Y-39663224D01*
X105903900Y-39756054D01*
X106138211Y-39818838D01*
X106138215Y-39818838D01*
X106138217Y-39818839D01*
X106200202Y-39826999D01*
X106378712Y-39850500D01*
X106378719Y-39850500D01*
X108421281Y-39850500D01*
X108421288Y-39850500D01*
X108638637Y-39821885D01*
X108661782Y-39818839D01*
X108661782Y-39818838D01*
X108661789Y-39818838D01*
X108896100Y-39756054D01*
X109120212Y-39663224D01*
X109330289Y-39541936D01*
X109522738Y-39394265D01*
X109694265Y-39222738D01*
X109841936Y-39030289D01*
X109963224Y-38820212D01*
X110056054Y-38596100D01*
X110118838Y-38361789D01*
X110150500Y-38121288D01*
X110150500Y-37878712D01*
X110150500Y-37878709D01*
X129849500Y-37878709D01*
X129849500Y-38121290D01*
X129881160Y-38361782D01*
X129943944Y-38596095D01*
X129943945Y-38596097D01*
X129943946Y-38596100D01*
X130036776Y-38820212D01*
X130036777Y-38820213D01*
X130036782Y-38820224D01*
X130158061Y-39030285D01*
X130158063Y-39030288D01*
X130158064Y-39030289D01*
X130305735Y-39222738D01*
X130305739Y-39222742D01*
X130305744Y-39222748D01*
X130477251Y-39394255D01*
X130477256Y-39394259D01*
X130477262Y-39394265D01*
X130669711Y-39541936D01*
X130669714Y-39541938D01*
X130879775Y-39663217D01*
X130879779Y-39663218D01*
X130879788Y-39663224D01*
X131103900Y-39756054D01*
X131338211Y-39818838D01*
X131338215Y-39818838D01*
X131338217Y-39818839D01*
X131400202Y-39826999D01*
X131578712Y-39850500D01*
X131578719Y-39850500D01*
X133621281Y-39850500D01*
X133621288Y-39850500D01*
X133838637Y-39821885D01*
X133861782Y-39818839D01*
X133861782Y-39818838D01*
X133861789Y-39818838D01*
X134096100Y-39756054D01*
X134320212Y-39663224D01*
X134530289Y-39541936D01*
X134722738Y-39394265D01*
X134894265Y-39222738D01*
X135041936Y-39030289D01*
X135163224Y-38820212D01*
X135256054Y-38596100D01*
X135318838Y-38361789D01*
X135350500Y-38121288D01*
X135350500Y-37878712D01*
X135318838Y-37638211D01*
X135256054Y-37403900D01*
X135163224Y-37179788D01*
X135163218Y-37179779D01*
X135163217Y-37179775D01*
X135041938Y-36969714D01*
X135041936Y-36969711D01*
X134894265Y-36777262D01*
X134894259Y-36777256D01*
X134894255Y-36777251D01*
X134722748Y-36605744D01*
X134722742Y-36605739D01*
X134722738Y-36605735D01*
X134530289Y-36458064D01*
X134530288Y-36458063D01*
X134530285Y-36458061D01*
X134320224Y-36336782D01*
X134320216Y-36336778D01*
X134320212Y-36336776D01*
X134096100Y-36243946D01*
X134096097Y-36243945D01*
X134096095Y-36243944D01*
X133861782Y-36181160D01*
X133621290Y-36149500D01*
X133621288Y-36149500D01*
X131578712Y-36149500D01*
X131578709Y-36149500D01*
X131338217Y-36181160D01*
X131103904Y-36243944D01*
X131103900Y-36243946D01*
X130879786Y-36336777D01*
X130879775Y-36336782D01*
X130669714Y-36458061D01*
X130477262Y-36605735D01*
X130477251Y-36605744D01*
X130305744Y-36777251D01*
X130305735Y-36777262D01*
X130158061Y-36969714D01*
X130036782Y-37179775D01*
X130036777Y-37179786D01*
X129943946Y-37403900D01*
X129943944Y-37403904D01*
X129881160Y-37638217D01*
X129849500Y-37878709D01*
X110150500Y-37878709D01*
X110118838Y-37638211D01*
X110056054Y-37403900D01*
X109963224Y-37179788D01*
X109963218Y-37179779D01*
X109963217Y-37179775D01*
X109841938Y-36969714D01*
X109841936Y-36969711D01*
X109694265Y-36777262D01*
X109694259Y-36777256D01*
X109694255Y-36777251D01*
X109522748Y-36605744D01*
X109522742Y-36605739D01*
X109522738Y-36605735D01*
X109330289Y-36458064D01*
X109330288Y-36458063D01*
X109330285Y-36458061D01*
X109120224Y-36336782D01*
X109120216Y-36336778D01*
X109120212Y-36336776D01*
X108896100Y-36243946D01*
X108896097Y-36243945D01*
X108896095Y-36243944D01*
X108661782Y-36181160D01*
X108421290Y-36149500D01*
X108421288Y-36149500D01*
X106378712Y-36149500D01*
X106378709Y-36149500D01*
X106138217Y-36181160D01*
X105903904Y-36243944D01*
X105903900Y-36243946D01*
X105679786Y-36336777D01*
X105679775Y-36336782D01*
X105469714Y-36458061D01*
X105277262Y-36605735D01*
X105277251Y-36605744D01*
X105105744Y-36777251D01*
X105105735Y-36777262D01*
X104958061Y-36969714D01*
X104836782Y-37179775D01*
X104836777Y-37179786D01*
X104743946Y-37403900D01*
X104743944Y-37403904D01*
X104681160Y-37638217D01*
X104649500Y-37878709D01*
X99925500Y-37878709D01*
X99925500Y-35201500D01*
X99945502Y-35133379D01*
X99999158Y-35086886D01*
X100051500Y-35075500D01*
X139948500Y-35075500D01*
X140016621Y-35095502D01*
G37*
G04 #@! TD.AperFunction*
M02*
