G04 #@! TF.GenerationSoftware,KiCad,Pcbnew,8.0.4*
G04 #@! TF.CreationDate,2024-08-06T17:15:25+01:00*
G04 #@! TF.ProjectId,MidiMonger_panel,4d696469-4d6f-46e6-9765-725f70616e65,rev?*
G04 #@! TF.SameCoordinates,Original*
G04 #@! TF.FileFunction,Soldermask,Bot*
G04 #@! TF.FilePolarity,Negative*
%FSLAX46Y46*%
G04 Gerber Fmt 4.6, Leading zero omitted, Abs format (unit mm)*
G04 Created by KiCad (PCBNEW 8.0.4) date 2024-08-06 17:15:25*
%MOMM*%
%LPD*%
G01*
G04 APERTURE LIST*
%ADD10C,0.020000*%
%ADD11C,6.200000*%
%ADD12C,6.000000*%
%ADD13O,5.000000X3.200000*%
%ADD14C,3.500000*%
%ADD15C,3.000000*%
G04 APERTURE END LIST*
D10*
X117129151Y-126105472D02*
X117504151Y-126255472D01*
X117904151Y-126605472D01*
X118154151Y-127005472D01*
X118279151Y-127605472D01*
X118154151Y-128205472D01*
X117904151Y-128605472D01*
X117504151Y-128955472D01*
X117129151Y-129105472D01*
X116704151Y-129180472D01*
X116304151Y-129105472D01*
X115904151Y-128955472D01*
X115504151Y-128605472D01*
X115254151Y-128205472D01*
X115129151Y-127605472D01*
X115254151Y-127005472D01*
X115504151Y-126605472D01*
X115904151Y-126255472D01*
X116304151Y-126105472D01*
X116704151Y-126030472D01*
X117129151Y-126105472D01*
G36*
X117129151Y-126105472D02*
G01*
X117504151Y-126255472D01*
X117904151Y-126605472D01*
X118154151Y-127005472D01*
X118279151Y-127605472D01*
X118154151Y-128205472D01*
X117904151Y-128605472D01*
X117504151Y-128955472D01*
X117129151Y-129105472D01*
X116704151Y-129180472D01*
X116304151Y-129105472D01*
X115904151Y-128955472D01*
X115504151Y-128605472D01*
X115254151Y-128205472D01*
X115129151Y-127605472D01*
X115254151Y-127005472D01*
X115504151Y-126605472D01*
X115904151Y-126255472D01*
X116304151Y-126105472D01*
X116704151Y-126030472D01*
X117129151Y-126105472D01*
G37*
D11*
X119000000Y-145000000D03*
D12*
X131500000Y-145000000D03*
X127500000Y-120200000D03*
X112500000Y-120200000D03*
X112500000Y-107000000D03*
X127500000Y-107000000D03*
X127500000Y-91800000D03*
X112500000Y-91800000D03*
X112500000Y-78600000D03*
X127500000Y-78600000D03*
X127500000Y-65500000D03*
X112500000Y-65500000D03*
X127500000Y-52400000D03*
X112500000Y-52400000D03*
D13*
X132600000Y-38000000D03*
X107400000Y-38000000D03*
X132600000Y-160500000D03*
X107400000Y-160500000D03*
D14*
X120000000Y-132750000D03*
D15*
X134500000Y-120200000D03*
X134500000Y-107000000D03*
X134500000Y-91800000D03*
X134500000Y-78600000D03*
X134500000Y-65500000D03*
X134500000Y-52400000D03*
X105500000Y-120200000D03*
X105500000Y-107000000D03*
X105500000Y-91800000D03*
X105500000Y-78600000D03*
X105500000Y-65500000D03*
X105500000Y-52400000D03*
M02*
