G04 #@! TF.GenerationSoftware,KiCad,Pcbnew,8.0.4*
G04 #@! TF.CreationDate,2024-08-08T15:14:59+01:00*
G04 #@! TF.ProjectId,MidiMonger_panel,4d696469-4d6f-46e6-9765-725f70616e65,rev?*
G04 #@! TF.SameCoordinates,Original*
G04 #@! TF.FileFunction,Legend,Bot*
G04 #@! TF.FilePolarity,Positive*
%FSLAX46Y46*%
G04 Gerber Fmt 4.6, Leading zero omitted, Abs format (unit mm)*
G04 Created by KiCad (PCBNEW 8.0.4) date 2024-08-08 15:14:59*
%MOMM*%
%LPD*%
G01*
G04 APERTURE LIST*
%ADD10C,0.150000*%
G04 APERTURE END LIST*
D10*
X126580952Y-37649847D02*
X126580952Y-36649847D01*
X126580952Y-36649847D02*
X126247619Y-37364132D01*
X126247619Y-37364132D02*
X125914286Y-36649847D01*
X125914286Y-36649847D02*
X125914286Y-37649847D01*
X125295238Y-37649847D02*
X125390476Y-37602228D01*
X125390476Y-37602228D02*
X125438095Y-37554608D01*
X125438095Y-37554608D02*
X125485714Y-37459370D01*
X125485714Y-37459370D02*
X125485714Y-37173656D01*
X125485714Y-37173656D02*
X125438095Y-37078418D01*
X125438095Y-37078418D02*
X125390476Y-37030799D01*
X125390476Y-37030799D02*
X125295238Y-36983180D01*
X125295238Y-36983180D02*
X125152381Y-36983180D01*
X125152381Y-36983180D02*
X125057143Y-37030799D01*
X125057143Y-37030799D02*
X125009524Y-37078418D01*
X125009524Y-37078418D02*
X124961905Y-37173656D01*
X124961905Y-37173656D02*
X124961905Y-37459370D01*
X124961905Y-37459370D02*
X125009524Y-37554608D01*
X125009524Y-37554608D02*
X125057143Y-37602228D01*
X125057143Y-37602228D02*
X125152381Y-37649847D01*
X125152381Y-37649847D02*
X125295238Y-37649847D01*
X124104762Y-36983180D02*
X124104762Y-37649847D01*
X124533333Y-36983180D02*
X124533333Y-37506989D01*
X124533333Y-37506989D02*
X124485714Y-37602228D01*
X124485714Y-37602228D02*
X124390476Y-37649847D01*
X124390476Y-37649847D02*
X124247619Y-37649847D01*
X124247619Y-37649847D02*
X124152381Y-37602228D01*
X124152381Y-37602228D02*
X124104762Y-37554608D01*
X123628571Y-36983180D02*
X123628571Y-37649847D01*
X123628571Y-37078418D02*
X123580952Y-37030799D01*
X123580952Y-37030799D02*
X123485714Y-36983180D01*
X123485714Y-36983180D02*
X123342857Y-36983180D01*
X123342857Y-36983180D02*
X123247619Y-37030799D01*
X123247619Y-37030799D02*
X123200000Y-37126037D01*
X123200000Y-37126037D02*
X123200000Y-37649847D01*
X122866666Y-36983180D02*
X122485714Y-36983180D01*
X122723809Y-36649847D02*
X122723809Y-37506989D01*
X122723809Y-37506989D02*
X122676190Y-37602228D01*
X122676190Y-37602228D02*
X122580952Y-37649847D01*
X122580952Y-37649847D02*
X122485714Y-37649847D01*
X122152380Y-36983180D02*
X122152380Y-37840323D01*
X122152380Y-37840323D02*
X122199999Y-37935561D01*
X122199999Y-37935561D02*
X122295237Y-37983180D01*
X122295237Y-37983180D02*
X122342856Y-37983180D01*
X122152380Y-36649847D02*
X122199999Y-36697466D01*
X122199999Y-36697466D02*
X122152380Y-36745085D01*
X122152380Y-36745085D02*
X122104761Y-36697466D01*
X122104761Y-36697466D02*
X122152380Y-36649847D01*
X122152380Y-36649847D02*
X122152380Y-36745085D01*
X121533333Y-37649847D02*
X121628571Y-37602228D01*
X121628571Y-37602228D02*
X121676190Y-37554608D01*
X121676190Y-37554608D02*
X121723809Y-37459370D01*
X121723809Y-37459370D02*
X121723809Y-37173656D01*
X121723809Y-37173656D02*
X121676190Y-37078418D01*
X121676190Y-37078418D02*
X121628571Y-37030799D01*
X121628571Y-37030799D02*
X121533333Y-36983180D01*
X121533333Y-36983180D02*
X121390476Y-36983180D01*
X121390476Y-36983180D02*
X121295238Y-37030799D01*
X121295238Y-37030799D02*
X121247619Y-37078418D01*
X121247619Y-37078418D02*
X121200000Y-37173656D01*
X121200000Y-37173656D02*
X121200000Y-37459370D01*
X121200000Y-37459370D02*
X121247619Y-37554608D01*
X121247619Y-37554608D02*
X121295238Y-37602228D01*
X121295238Y-37602228D02*
X121390476Y-37649847D01*
X121390476Y-37649847D02*
X121533333Y-37649847D01*
X120866666Y-36983180D02*
X120628571Y-37649847D01*
X120390476Y-36983180D02*
X120628571Y-37649847D01*
X120628571Y-37649847D02*
X120723809Y-37887942D01*
X120723809Y-37887942D02*
X120771428Y-37935561D01*
X120771428Y-37935561D02*
X120866666Y-37983180D01*
X119247618Y-37649847D02*
X119247618Y-36649847D01*
X119247618Y-36649847D02*
X118914285Y-37364132D01*
X118914285Y-37364132D02*
X118580952Y-36649847D01*
X118580952Y-36649847D02*
X118580952Y-37649847D01*
X117961904Y-37649847D02*
X118057142Y-37602228D01*
X118057142Y-37602228D02*
X118104761Y-37554608D01*
X118104761Y-37554608D02*
X118152380Y-37459370D01*
X118152380Y-37459370D02*
X118152380Y-37173656D01*
X118152380Y-37173656D02*
X118104761Y-37078418D01*
X118104761Y-37078418D02*
X118057142Y-37030799D01*
X118057142Y-37030799D02*
X117961904Y-36983180D01*
X117961904Y-36983180D02*
X117819047Y-36983180D01*
X117819047Y-36983180D02*
X117723809Y-37030799D01*
X117723809Y-37030799D02*
X117676190Y-37078418D01*
X117676190Y-37078418D02*
X117628571Y-37173656D01*
X117628571Y-37173656D02*
X117628571Y-37459370D01*
X117628571Y-37459370D02*
X117676190Y-37554608D01*
X117676190Y-37554608D02*
X117723809Y-37602228D01*
X117723809Y-37602228D02*
X117819047Y-37649847D01*
X117819047Y-37649847D02*
X117961904Y-37649847D01*
X116771428Y-37649847D02*
X116771428Y-36649847D01*
X116771428Y-37602228D02*
X116866666Y-37649847D01*
X116866666Y-37649847D02*
X117057142Y-37649847D01*
X117057142Y-37649847D02*
X117152380Y-37602228D01*
X117152380Y-37602228D02*
X117199999Y-37554608D01*
X117199999Y-37554608D02*
X117247618Y-37459370D01*
X117247618Y-37459370D02*
X117247618Y-37173656D01*
X117247618Y-37173656D02*
X117199999Y-37078418D01*
X117199999Y-37078418D02*
X117152380Y-37030799D01*
X117152380Y-37030799D02*
X117057142Y-36983180D01*
X117057142Y-36983180D02*
X116866666Y-36983180D01*
X116866666Y-36983180D02*
X116771428Y-37030799D01*
X115866666Y-36983180D02*
X115866666Y-37649847D01*
X116295237Y-36983180D02*
X116295237Y-37506989D01*
X116295237Y-37506989D02*
X116247618Y-37602228D01*
X116247618Y-37602228D02*
X116152380Y-37649847D01*
X116152380Y-37649847D02*
X116009523Y-37649847D01*
X116009523Y-37649847D02*
X115914285Y-37602228D01*
X115914285Y-37602228D02*
X115866666Y-37554608D01*
X115247618Y-37649847D02*
X115342856Y-37602228D01*
X115342856Y-37602228D02*
X115390475Y-37506989D01*
X115390475Y-37506989D02*
X115390475Y-36649847D01*
X114438094Y-37649847D02*
X114438094Y-37126037D01*
X114438094Y-37126037D02*
X114485713Y-37030799D01*
X114485713Y-37030799D02*
X114580951Y-36983180D01*
X114580951Y-36983180D02*
X114771427Y-36983180D01*
X114771427Y-36983180D02*
X114866665Y-37030799D01*
X114438094Y-37602228D02*
X114533332Y-37649847D01*
X114533332Y-37649847D02*
X114771427Y-37649847D01*
X114771427Y-37649847D02*
X114866665Y-37602228D01*
X114866665Y-37602228D02*
X114914284Y-37506989D01*
X114914284Y-37506989D02*
X114914284Y-37411751D01*
X114914284Y-37411751D02*
X114866665Y-37316513D01*
X114866665Y-37316513D02*
X114771427Y-37268894D01*
X114771427Y-37268894D02*
X114533332Y-37268894D01*
X114533332Y-37268894D02*
X114438094Y-37221275D01*
X113961903Y-37649847D02*
X113961903Y-36983180D01*
X113961903Y-37173656D02*
X113914284Y-37078418D01*
X113914284Y-37078418D02*
X113866665Y-37030799D01*
X113866665Y-37030799D02*
X113771427Y-36983180D01*
X113771427Y-36983180D02*
X113676189Y-36983180D01*
X128985714Y-39259791D02*
X128985714Y-38259791D01*
X128985714Y-38259791D02*
X128652381Y-38974076D01*
X128652381Y-38974076D02*
X128319048Y-38259791D01*
X128319048Y-38259791D02*
X128319048Y-39259791D01*
X127842857Y-39259791D02*
X127842857Y-38259791D01*
X127366667Y-39259791D02*
X127366667Y-38259791D01*
X127366667Y-38259791D02*
X127128572Y-38259791D01*
X127128572Y-38259791D02*
X126985715Y-38307410D01*
X126985715Y-38307410D02*
X126890477Y-38402648D01*
X126890477Y-38402648D02*
X126842858Y-38497886D01*
X126842858Y-38497886D02*
X126795239Y-38688362D01*
X126795239Y-38688362D02*
X126795239Y-38831219D01*
X126795239Y-38831219D02*
X126842858Y-39021695D01*
X126842858Y-39021695D02*
X126890477Y-39116933D01*
X126890477Y-39116933D02*
X126985715Y-39212172D01*
X126985715Y-39212172D02*
X127128572Y-39259791D01*
X127128572Y-39259791D02*
X127366667Y-39259791D01*
X126366667Y-39259791D02*
X126366667Y-38259791D01*
X125128572Y-39259791D02*
X125128572Y-38259791D01*
X125128572Y-38259791D02*
X124795239Y-38974076D01*
X124795239Y-38974076D02*
X124461906Y-38259791D01*
X124461906Y-38259791D02*
X124461906Y-39259791D01*
X123842858Y-39259791D02*
X123938096Y-39212172D01*
X123938096Y-39212172D02*
X123985715Y-39164552D01*
X123985715Y-39164552D02*
X124033334Y-39069314D01*
X124033334Y-39069314D02*
X124033334Y-38783600D01*
X124033334Y-38783600D02*
X123985715Y-38688362D01*
X123985715Y-38688362D02*
X123938096Y-38640743D01*
X123938096Y-38640743D02*
X123842858Y-38593124D01*
X123842858Y-38593124D02*
X123700001Y-38593124D01*
X123700001Y-38593124D02*
X123604763Y-38640743D01*
X123604763Y-38640743D02*
X123557144Y-38688362D01*
X123557144Y-38688362D02*
X123509525Y-38783600D01*
X123509525Y-38783600D02*
X123509525Y-39069314D01*
X123509525Y-39069314D02*
X123557144Y-39164552D01*
X123557144Y-39164552D02*
X123604763Y-39212172D01*
X123604763Y-39212172D02*
X123700001Y-39259791D01*
X123700001Y-39259791D02*
X123842858Y-39259791D01*
X123080953Y-38593124D02*
X123080953Y-39259791D01*
X123080953Y-38688362D02*
X123033334Y-38640743D01*
X123033334Y-38640743D02*
X122938096Y-38593124D01*
X122938096Y-38593124D02*
X122795239Y-38593124D01*
X122795239Y-38593124D02*
X122700001Y-38640743D01*
X122700001Y-38640743D02*
X122652382Y-38735981D01*
X122652382Y-38735981D02*
X122652382Y-39259791D01*
X121747620Y-38593124D02*
X121747620Y-39402648D01*
X121747620Y-39402648D02*
X121795239Y-39497886D01*
X121795239Y-39497886D02*
X121842858Y-39545505D01*
X121842858Y-39545505D02*
X121938096Y-39593124D01*
X121938096Y-39593124D02*
X122080953Y-39593124D01*
X122080953Y-39593124D02*
X122176191Y-39545505D01*
X121747620Y-39212172D02*
X121842858Y-39259791D01*
X121842858Y-39259791D02*
X122033334Y-39259791D01*
X122033334Y-39259791D02*
X122128572Y-39212172D01*
X122128572Y-39212172D02*
X122176191Y-39164552D01*
X122176191Y-39164552D02*
X122223810Y-39069314D01*
X122223810Y-39069314D02*
X122223810Y-38783600D01*
X122223810Y-38783600D02*
X122176191Y-38688362D01*
X122176191Y-38688362D02*
X122128572Y-38640743D01*
X122128572Y-38640743D02*
X122033334Y-38593124D01*
X122033334Y-38593124D02*
X121842858Y-38593124D01*
X121842858Y-38593124D02*
X121747620Y-38640743D01*
X120890477Y-39212172D02*
X120985715Y-39259791D01*
X120985715Y-39259791D02*
X121176191Y-39259791D01*
X121176191Y-39259791D02*
X121271429Y-39212172D01*
X121271429Y-39212172D02*
X121319048Y-39116933D01*
X121319048Y-39116933D02*
X121319048Y-38735981D01*
X121319048Y-38735981D02*
X121271429Y-38640743D01*
X121271429Y-38640743D02*
X121176191Y-38593124D01*
X121176191Y-38593124D02*
X120985715Y-38593124D01*
X120985715Y-38593124D02*
X120890477Y-38640743D01*
X120890477Y-38640743D02*
X120842858Y-38735981D01*
X120842858Y-38735981D02*
X120842858Y-38831219D01*
X120842858Y-38831219D02*
X121319048Y-38926457D01*
X120414286Y-39259791D02*
X120414286Y-38593124D01*
X120414286Y-38783600D02*
X120366667Y-38688362D01*
X120366667Y-38688362D02*
X120319048Y-38640743D01*
X120319048Y-38640743D02*
X120223810Y-38593124D01*
X120223810Y-38593124D02*
X120128572Y-38593124D01*
X119033333Y-39259791D02*
X119033333Y-38259791D01*
X119033333Y-38259791D02*
X118652381Y-38259791D01*
X118652381Y-38259791D02*
X118557143Y-38307410D01*
X118557143Y-38307410D02*
X118509524Y-38355029D01*
X118509524Y-38355029D02*
X118461905Y-38450267D01*
X118461905Y-38450267D02*
X118461905Y-38593124D01*
X118461905Y-38593124D02*
X118509524Y-38688362D01*
X118509524Y-38688362D02*
X118557143Y-38735981D01*
X118557143Y-38735981D02*
X118652381Y-38783600D01*
X118652381Y-38783600D02*
X119033333Y-38783600D01*
X117604762Y-39259791D02*
X117604762Y-38735981D01*
X117604762Y-38735981D02*
X117652381Y-38640743D01*
X117652381Y-38640743D02*
X117747619Y-38593124D01*
X117747619Y-38593124D02*
X117938095Y-38593124D01*
X117938095Y-38593124D02*
X118033333Y-38640743D01*
X117604762Y-39212172D02*
X117700000Y-39259791D01*
X117700000Y-39259791D02*
X117938095Y-39259791D01*
X117938095Y-39259791D02*
X118033333Y-39212172D01*
X118033333Y-39212172D02*
X118080952Y-39116933D01*
X118080952Y-39116933D02*
X118080952Y-39021695D01*
X118080952Y-39021695D02*
X118033333Y-38926457D01*
X118033333Y-38926457D02*
X117938095Y-38878838D01*
X117938095Y-38878838D02*
X117700000Y-38878838D01*
X117700000Y-38878838D02*
X117604762Y-38831219D01*
X117128571Y-38593124D02*
X117128571Y-39259791D01*
X117128571Y-38688362D02*
X117080952Y-38640743D01*
X117080952Y-38640743D02*
X116985714Y-38593124D01*
X116985714Y-38593124D02*
X116842857Y-38593124D01*
X116842857Y-38593124D02*
X116747619Y-38640743D01*
X116747619Y-38640743D02*
X116700000Y-38735981D01*
X116700000Y-38735981D02*
X116700000Y-39259791D01*
X115842857Y-39212172D02*
X115938095Y-39259791D01*
X115938095Y-39259791D02*
X116128571Y-39259791D01*
X116128571Y-39259791D02*
X116223809Y-39212172D01*
X116223809Y-39212172D02*
X116271428Y-39116933D01*
X116271428Y-39116933D02*
X116271428Y-38735981D01*
X116271428Y-38735981D02*
X116223809Y-38640743D01*
X116223809Y-38640743D02*
X116128571Y-38593124D01*
X116128571Y-38593124D02*
X115938095Y-38593124D01*
X115938095Y-38593124D02*
X115842857Y-38640743D01*
X115842857Y-38640743D02*
X115795238Y-38735981D01*
X115795238Y-38735981D02*
X115795238Y-38831219D01*
X115795238Y-38831219D02*
X116271428Y-38926457D01*
X115223809Y-39259791D02*
X115319047Y-39212172D01*
X115319047Y-39212172D02*
X115366666Y-39116933D01*
X115366666Y-39116933D02*
X115366666Y-38259791D01*
X114176189Y-38593124D02*
X113938094Y-39259791D01*
X113938094Y-39259791D02*
X113699999Y-38593124D01*
X113366665Y-38355029D02*
X113319046Y-38307410D01*
X113319046Y-38307410D02*
X113223808Y-38259791D01*
X113223808Y-38259791D02*
X112985713Y-38259791D01*
X112985713Y-38259791D02*
X112890475Y-38307410D01*
X112890475Y-38307410D02*
X112842856Y-38355029D01*
X112842856Y-38355029D02*
X112795237Y-38450267D01*
X112795237Y-38450267D02*
X112795237Y-38545505D01*
X112795237Y-38545505D02*
X112842856Y-38688362D01*
X112842856Y-38688362D02*
X113414284Y-39259791D01*
X113414284Y-39259791D02*
X112795237Y-39259791D01*
X112366665Y-39164552D02*
X112319046Y-39212172D01*
X112319046Y-39212172D02*
X112366665Y-39259791D01*
X112366665Y-39259791D02*
X112414284Y-39212172D01*
X112414284Y-39212172D02*
X112366665Y-39164552D01*
X112366665Y-39164552D02*
X112366665Y-39259791D01*
X111699999Y-38259791D02*
X111604761Y-38259791D01*
X111604761Y-38259791D02*
X111509523Y-38307410D01*
X111509523Y-38307410D02*
X111461904Y-38355029D01*
X111461904Y-38355029D02*
X111414285Y-38450267D01*
X111414285Y-38450267D02*
X111366666Y-38640743D01*
X111366666Y-38640743D02*
X111366666Y-38878838D01*
X111366666Y-38878838D02*
X111414285Y-39069314D01*
X111414285Y-39069314D02*
X111461904Y-39164552D01*
X111461904Y-39164552D02*
X111509523Y-39212172D01*
X111509523Y-39212172D02*
X111604761Y-39259791D01*
X111604761Y-39259791D02*
X111699999Y-39259791D01*
X111699999Y-39259791D02*
X111795237Y-39212172D01*
X111795237Y-39212172D02*
X111842856Y-39164552D01*
X111842856Y-39164552D02*
X111890475Y-39069314D01*
X111890475Y-39069314D02*
X111938094Y-38878838D01*
X111938094Y-38878838D02*
X111938094Y-38640743D01*
X111938094Y-38640743D02*
X111890475Y-38450267D01*
X111890475Y-38450267D02*
X111842856Y-38355029D01*
X111842856Y-38355029D02*
X111795237Y-38307410D01*
X111795237Y-38307410D02*
X111699999Y-38259791D01*
X123971428Y-159954819D02*
X123733333Y-160954819D01*
X123733333Y-160954819D02*
X123542857Y-160240533D01*
X123542857Y-160240533D02*
X123352381Y-160954819D01*
X123352381Y-160954819D02*
X123114286Y-159954819D01*
X122304762Y-160954819D02*
X122304762Y-160431009D01*
X122304762Y-160431009D02*
X122352381Y-160335771D01*
X122352381Y-160335771D02*
X122447619Y-160288152D01*
X122447619Y-160288152D02*
X122638095Y-160288152D01*
X122638095Y-160288152D02*
X122733333Y-160335771D01*
X122304762Y-160907200D02*
X122400000Y-160954819D01*
X122400000Y-160954819D02*
X122638095Y-160954819D01*
X122638095Y-160954819D02*
X122733333Y-160907200D01*
X122733333Y-160907200D02*
X122780952Y-160811961D01*
X122780952Y-160811961D02*
X122780952Y-160716723D01*
X122780952Y-160716723D02*
X122733333Y-160621485D01*
X122733333Y-160621485D02*
X122638095Y-160573866D01*
X122638095Y-160573866D02*
X122400000Y-160573866D01*
X122400000Y-160573866D02*
X122304762Y-160526247D01*
X121923809Y-160288152D02*
X121685714Y-160954819D01*
X121447619Y-160288152D02*
X121685714Y-160954819D01*
X121685714Y-160954819D02*
X121780952Y-161192914D01*
X121780952Y-161192914D02*
X121828571Y-161240533D01*
X121828571Y-161240533D02*
X121923809Y-161288152D01*
X121161904Y-159954819D02*
X120923809Y-160954819D01*
X120923809Y-160954819D02*
X120733333Y-160240533D01*
X120733333Y-160240533D02*
X120542857Y-160954819D01*
X120542857Y-160954819D02*
X120304762Y-159954819D01*
X119495238Y-160954819D02*
X119495238Y-160431009D01*
X119495238Y-160431009D02*
X119542857Y-160335771D01*
X119542857Y-160335771D02*
X119638095Y-160288152D01*
X119638095Y-160288152D02*
X119828571Y-160288152D01*
X119828571Y-160288152D02*
X119923809Y-160335771D01*
X119495238Y-160907200D02*
X119590476Y-160954819D01*
X119590476Y-160954819D02*
X119828571Y-160954819D01*
X119828571Y-160954819D02*
X119923809Y-160907200D01*
X119923809Y-160907200D02*
X119971428Y-160811961D01*
X119971428Y-160811961D02*
X119971428Y-160716723D01*
X119971428Y-160716723D02*
X119923809Y-160621485D01*
X119923809Y-160621485D02*
X119828571Y-160573866D01*
X119828571Y-160573866D02*
X119590476Y-160573866D01*
X119590476Y-160573866D02*
X119495238Y-160526247D01*
X119114285Y-160288152D02*
X118876190Y-160954819D01*
X118638095Y-160288152D02*
X118876190Y-160954819D01*
X118876190Y-160954819D02*
X118971428Y-161192914D01*
X118971428Y-161192914D02*
X119019047Y-161240533D01*
X119019047Y-161240533D02*
X119114285Y-161288152D01*
X118352380Y-159954819D02*
X118114285Y-160954819D01*
X118114285Y-160954819D02*
X117923809Y-160240533D01*
X117923809Y-160240533D02*
X117733333Y-160954819D01*
X117733333Y-160954819D02*
X117495238Y-159954819D01*
X116685714Y-160954819D02*
X116685714Y-160431009D01*
X116685714Y-160431009D02*
X116733333Y-160335771D01*
X116733333Y-160335771D02*
X116828571Y-160288152D01*
X116828571Y-160288152D02*
X117019047Y-160288152D01*
X117019047Y-160288152D02*
X117114285Y-160335771D01*
X116685714Y-160907200D02*
X116780952Y-160954819D01*
X116780952Y-160954819D02*
X117019047Y-160954819D01*
X117019047Y-160954819D02*
X117114285Y-160907200D01*
X117114285Y-160907200D02*
X117161904Y-160811961D01*
X117161904Y-160811961D02*
X117161904Y-160716723D01*
X117161904Y-160716723D02*
X117114285Y-160621485D01*
X117114285Y-160621485D02*
X117019047Y-160573866D01*
X117019047Y-160573866D02*
X116780952Y-160573866D01*
X116780952Y-160573866D02*
X116685714Y-160526247D01*
X116304761Y-160288152D02*
X116066666Y-160954819D01*
X115828571Y-160288152D02*
X116066666Y-160954819D01*
X116066666Y-160954819D02*
X116161904Y-161192914D01*
X116161904Y-161192914D02*
X116209523Y-161240533D01*
X116209523Y-161240533D02*
X116304761Y-161288152D01*
M02*
