G04 #@! TF.GenerationSoftware,KiCad,Pcbnew,8.0.4*
G04 #@! TF.CreationDate,2024-08-08T15:14:59+01:00*
G04 #@! TF.ProjectId,MidiMonger_panel,4d696469-4d6f-46e6-9765-725f70616e65,rev?*
G04 #@! TF.SameCoordinates,Original*
G04 #@! TF.FileFunction,Copper,L1,Top*
G04 #@! TF.FilePolarity,Positive*
%FSLAX46Y46*%
G04 Gerber Fmt 4.6, Leading zero omitted, Abs format (unit mm)*
G04 Created by KiCad (PCBNEW 8.0.4) date 2024-08-08 15:14:59*
%MOMM*%
%LPD*%
G01*
G04 APERTURE LIST*
G04 #@! TA.AperFunction,WasherPad*
%ADD10C,6.200000*%
G04 #@! TD*
G04 APERTURE END LIST*
D10*
X131500000Y-146000000D03*
G04 #@! TA.AperFunction,NonConductor*
G36*
X140016621Y-35095502D02*
G01*
X140063114Y-35149158D01*
X140074500Y-35201500D01*
X140074500Y-163298500D01*
X140054498Y-163366621D01*
X140000842Y-163413114D01*
X139948500Y-163424500D01*
X100051500Y-163424500D01*
X99983379Y-163404498D01*
X99936886Y-163350842D01*
X99925500Y-163298500D01*
X99925500Y-160378709D01*
X104649500Y-160378709D01*
X104649500Y-160621290D01*
X104681160Y-160861782D01*
X104743944Y-161096095D01*
X104743945Y-161096097D01*
X104743946Y-161096100D01*
X104836776Y-161320212D01*
X104836777Y-161320213D01*
X104836782Y-161320224D01*
X104958061Y-161530285D01*
X104958063Y-161530288D01*
X104958064Y-161530289D01*
X105105735Y-161722738D01*
X105105739Y-161722742D01*
X105105744Y-161722748D01*
X105277251Y-161894255D01*
X105277256Y-161894259D01*
X105277262Y-161894265D01*
X105469711Y-162041936D01*
X105469714Y-162041938D01*
X105679775Y-162163217D01*
X105679779Y-162163218D01*
X105679788Y-162163224D01*
X105903900Y-162256054D01*
X106138211Y-162318838D01*
X106138215Y-162318838D01*
X106138217Y-162318839D01*
X106200202Y-162326999D01*
X106378712Y-162350500D01*
X106378719Y-162350500D01*
X108421281Y-162350500D01*
X108421288Y-162350500D01*
X108638637Y-162321885D01*
X108661782Y-162318839D01*
X108661782Y-162318838D01*
X108661789Y-162318838D01*
X108896100Y-162256054D01*
X109120212Y-162163224D01*
X109330289Y-162041936D01*
X109522738Y-161894265D01*
X109694265Y-161722738D01*
X109841936Y-161530289D01*
X109963224Y-161320212D01*
X110056054Y-161096100D01*
X110118838Y-160861789D01*
X110150500Y-160621288D01*
X110150500Y-160378712D01*
X110150500Y-160378709D01*
X129849500Y-160378709D01*
X129849500Y-160621290D01*
X129881160Y-160861782D01*
X129943944Y-161096095D01*
X129943945Y-161096097D01*
X129943946Y-161096100D01*
X130036776Y-161320212D01*
X130036777Y-161320213D01*
X130036782Y-161320224D01*
X130158061Y-161530285D01*
X130158063Y-161530288D01*
X130158064Y-161530289D01*
X130305735Y-161722738D01*
X130305739Y-161722742D01*
X130305744Y-161722748D01*
X130477251Y-161894255D01*
X130477256Y-161894259D01*
X130477262Y-161894265D01*
X130669711Y-162041936D01*
X130669714Y-162041938D01*
X130879775Y-162163217D01*
X130879779Y-162163218D01*
X130879788Y-162163224D01*
X131103900Y-162256054D01*
X131338211Y-162318838D01*
X131338215Y-162318838D01*
X131338217Y-162318839D01*
X131400202Y-162326999D01*
X131578712Y-162350500D01*
X131578719Y-162350500D01*
X133621281Y-162350500D01*
X133621288Y-162350500D01*
X133838637Y-162321885D01*
X133861782Y-162318839D01*
X133861782Y-162318838D01*
X133861789Y-162318838D01*
X134096100Y-162256054D01*
X134320212Y-162163224D01*
X134530289Y-162041936D01*
X134722738Y-161894265D01*
X134894265Y-161722738D01*
X135041936Y-161530289D01*
X135163224Y-161320212D01*
X135256054Y-161096100D01*
X135318838Y-160861789D01*
X135350500Y-160621288D01*
X135350500Y-160378712D01*
X135318838Y-160138211D01*
X135256054Y-159903900D01*
X135163224Y-159679788D01*
X135163218Y-159679779D01*
X135163217Y-159679775D01*
X135041938Y-159469714D01*
X135041936Y-159469711D01*
X134894265Y-159277262D01*
X134894259Y-159277256D01*
X134894255Y-159277251D01*
X134722748Y-159105744D01*
X134722742Y-159105739D01*
X134722738Y-159105735D01*
X134530289Y-158958064D01*
X134530288Y-158958063D01*
X134530285Y-158958061D01*
X134320224Y-158836782D01*
X134320216Y-158836778D01*
X134320212Y-158836776D01*
X134096100Y-158743946D01*
X134096097Y-158743945D01*
X134096095Y-158743944D01*
X133861782Y-158681160D01*
X133621290Y-158649500D01*
X133621288Y-158649500D01*
X131578712Y-158649500D01*
X131578709Y-158649500D01*
X131338217Y-158681160D01*
X131103904Y-158743944D01*
X131103900Y-158743946D01*
X130879786Y-158836777D01*
X130879775Y-158836782D01*
X130669714Y-158958061D01*
X130477262Y-159105735D01*
X130477251Y-159105744D01*
X130305744Y-159277251D01*
X130305735Y-159277262D01*
X130158061Y-159469714D01*
X130036782Y-159679775D01*
X130036777Y-159679786D01*
X129943946Y-159903900D01*
X129943944Y-159903904D01*
X129881160Y-160138217D01*
X129849500Y-160378709D01*
X110150500Y-160378709D01*
X110118838Y-160138211D01*
X110056054Y-159903900D01*
X109963224Y-159679788D01*
X109963218Y-159679779D01*
X109963217Y-159679775D01*
X109841938Y-159469714D01*
X109841936Y-159469711D01*
X109694265Y-159277262D01*
X109694259Y-159277256D01*
X109694255Y-159277251D01*
X109522748Y-159105744D01*
X109522742Y-159105739D01*
X109522738Y-159105735D01*
X109330289Y-158958064D01*
X109330288Y-158958063D01*
X109330285Y-158958061D01*
X109120224Y-158836782D01*
X109120216Y-158836778D01*
X109120212Y-158836776D01*
X108896100Y-158743946D01*
X108896097Y-158743945D01*
X108896095Y-158743944D01*
X108661782Y-158681160D01*
X108421290Y-158649500D01*
X108421288Y-158649500D01*
X106378712Y-158649500D01*
X106378709Y-158649500D01*
X106138217Y-158681160D01*
X105903904Y-158743944D01*
X105903900Y-158743946D01*
X105679786Y-158836777D01*
X105679775Y-158836782D01*
X105469714Y-158958061D01*
X105277262Y-159105735D01*
X105277251Y-159105744D01*
X105105744Y-159277251D01*
X105105735Y-159277262D01*
X104958061Y-159469714D01*
X104836782Y-159679775D01*
X104836777Y-159679786D01*
X104743946Y-159903900D01*
X104743944Y-159903904D01*
X104681160Y-160138217D01*
X104649500Y-160378709D01*
X99925500Y-160378709D01*
X99925500Y-145840306D01*
X105049500Y-145840306D01*
X105049500Y-146159693D01*
X105080802Y-146477508D01*
X105080804Y-146477523D01*
X105143111Y-146790760D01*
X105235820Y-147096381D01*
X105235821Y-147096385D01*
X105358039Y-147391444D01*
X105508592Y-147673108D01*
X105686020Y-147938649D01*
X105686031Y-147938664D01*
X105888628Y-148185528D01*
X105888646Y-148185548D01*
X106114451Y-148411353D01*
X106114471Y-148411371D01*
X106122392Y-148417872D01*
X106361344Y-148613975D01*
X106626894Y-148791409D01*
X106908556Y-148941961D01*
X107203619Y-149064180D01*
X107509240Y-149156889D01*
X107822477Y-149219196D01*
X108140313Y-149250500D01*
X108140322Y-149250500D01*
X108459678Y-149250500D01*
X108459687Y-149250500D01*
X108777523Y-149219196D01*
X109090760Y-149156889D01*
X109396381Y-149064180D01*
X109691444Y-148941961D01*
X109973106Y-148791409D01*
X110238656Y-148613975D01*
X110485535Y-148411366D01*
X110711366Y-148185535D01*
X110913975Y-147938656D01*
X111091409Y-147673106D01*
X111241961Y-147391444D01*
X111364180Y-147096381D01*
X111456889Y-146790760D01*
X111519196Y-146477523D01*
X111550500Y-146159687D01*
X111550500Y-145840313D01*
X111519196Y-145522477D01*
X111456889Y-145209240D01*
X111364180Y-144903619D01*
X111241961Y-144608556D01*
X111091409Y-144326894D01*
X110913975Y-144061344D01*
X110711366Y-143814465D01*
X110711362Y-143814461D01*
X110711353Y-143814451D01*
X110485548Y-143588646D01*
X110485528Y-143588628D01*
X110238664Y-143386031D01*
X110238649Y-143386020D01*
X109973108Y-143208592D01*
X109691444Y-143058039D01*
X109396385Y-142935821D01*
X109396381Y-142935820D01*
X109090760Y-142843111D01*
X108881935Y-142801573D01*
X108777524Y-142780804D01*
X108777508Y-142780802D01*
X108459693Y-142749500D01*
X108459687Y-142749500D01*
X108140313Y-142749500D01*
X108140306Y-142749500D01*
X107822491Y-142780802D01*
X107822475Y-142780804D01*
X107613652Y-142822342D01*
X107509240Y-142843111D01*
X107356429Y-142889465D01*
X107203618Y-142935820D01*
X107203614Y-142935821D01*
X106908555Y-143058039D01*
X106626891Y-143208592D01*
X106361350Y-143386020D01*
X106361335Y-143386031D01*
X106114471Y-143588628D01*
X106114451Y-143588646D01*
X105888646Y-143814451D01*
X105888628Y-143814471D01*
X105686031Y-144061335D01*
X105686020Y-144061350D01*
X105508592Y-144326891D01*
X105358039Y-144608555D01*
X105235821Y-144903614D01*
X105235820Y-144903618D01*
X105143111Y-145209241D01*
X105080804Y-145522475D01*
X105080802Y-145522491D01*
X105049500Y-145840306D01*
X99925500Y-145840306D01*
X99925500Y-142639711D01*
X118123914Y-142639711D01*
X118124500Y-142643587D01*
X118124500Y-149375469D01*
X118124500Y-149400000D01*
X118124500Y-149508254D01*
X118155571Y-149704423D01*
X118158371Y-149722102D01*
X118219908Y-149911494D01*
X118225274Y-149928009D01*
X118323567Y-150120919D01*
X118393168Y-150216717D01*
X118450829Y-150296080D01*
X118603919Y-150449170D01*
X118603922Y-150449172D01*
X118779081Y-150576433D01*
X118971991Y-150674726D01*
X119177897Y-150741628D01*
X119177898Y-150741628D01*
X119177903Y-150741630D01*
X119391746Y-150775500D01*
X119484982Y-150775500D01*
X120456413Y-150775500D01*
X120460288Y-150776085D01*
X120476569Y-150775848D01*
X120476570Y-150775849D01*
X120498963Y-150775523D01*
X120499657Y-150775513D01*
X120501489Y-150775500D01*
X120524128Y-150775500D01*
X120527677Y-150775124D01*
X120609852Y-150773989D01*
X120824236Y-150737148D01*
X121030319Y-150667524D01*
X121223120Y-150566798D01*
X121397978Y-150437405D01*
X121550667Y-150282473D01*
X121677496Y-150105746D01*
X121775400Y-149911497D01*
X121842012Y-149704421D01*
X121875722Y-149489522D01*
X121875640Y-149380759D01*
X121875639Y-149356227D01*
X121875638Y-149356226D01*
X121875638Y-149336768D01*
X121875500Y-149335895D01*
X121875500Y-145999993D01*
X127886548Y-145999993D01*
X127886548Y-146000006D01*
X127906341Y-146377700D01*
X127965510Y-146751277D01*
X128063404Y-147116624D01*
X128198942Y-147469713D01*
X128198946Y-147469721D01*
X128370659Y-147806726D01*
X128576650Y-148123926D01*
X128576662Y-148123943D01*
X128814669Y-148417857D01*
X128814683Y-148417872D01*
X129082127Y-148685316D01*
X129082142Y-148685330D01*
X129376056Y-148923337D01*
X129376073Y-148923349D01*
X129555082Y-149039598D01*
X129693274Y-149129341D01*
X130030277Y-149301053D01*
X130030281Y-149301054D01*
X130030286Y-149301057D01*
X130383375Y-149436595D01*
X130383380Y-149436596D01*
X130383382Y-149436597D01*
X130748721Y-149534489D01*
X131122291Y-149593657D01*
X131122293Y-149593657D01*
X131122299Y-149593658D01*
X131499994Y-149613452D01*
X131500000Y-149613452D01*
X131500006Y-149613452D01*
X131877700Y-149593658D01*
X131877704Y-149593657D01*
X131877709Y-149593657D01*
X132251279Y-149534489D01*
X132616618Y-149436597D01*
X132616621Y-149436595D01*
X132616624Y-149436595D01*
X132969713Y-149301057D01*
X132969714Y-149301056D01*
X132969723Y-149301053D01*
X133306726Y-149129341D01*
X133623934Y-148923344D01*
X133786860Y-148791409D01*
X133917857Y-148685330D01*
X133917862Y-148685324D01*
X133917871Y-148685318D01*
X134185318Y-148417871D01*
X134185324Y-148417862D01*
X134185330Y-148417857D01*
X134423337Y-148123943D01*
X134423338Y-148123940D01*
X134423344Y-148123934D01*
X134629341Y-147806726D01*
X134801053Y-147469723D01*
X134801057Y-147469713D01*
X134936595Y-147116624D01*
X135023910Y-146790760D01*
X135034489Y-146751279D01*
X135093657Y-146377709D01*
X135093657Y-146377704D01*
X135093658Y-146377700D01*
X135113452Y-146000006D01*
X135113452Y-145999993D01*
X135093658Y-145622299D01*
X135077847Y-145522475D01*
X135034489Y-145248721D01*
X134936597Y-144883382D01*
X134936596Y-144883380D01*
X134936595Y-144883375D01*
X134801057Y-144530286D01*
X134801053Y-144530278D01*
X134801053Y-144530277D01*
X134629341Y-144193274D01*
X134423344Y-143876066D01*
X134423337Y-143876056D01*
X134185330Y-143582142D01*
X134185316Y-143582127D01*
X133917872Y-143314683D01*
X133917857Y-143314669D01*
X133623943Y-143076662D01*
X133623926Y-143076650D01*
X133306726Y-142870659D01*
X132969721Y-142698946D01*
X132969713Y-142698942D01*
X132616624Y-142563404D01*
X132251277Y-142465510D01*
X131877700Y-142406341D01*
X131500006Y-142386548D01*
X131499994Y-142386548D01*
X131122299Y-142406341D01*
X130748722Y-142465510D01*
X130383375Y-142563404D01*
X130030286Y-142698942D01*
X130030278Y-142698946D01*
X129693273Y-142870659D01*
X129376073Y-143076650D01*
X129376056Y-143076662D01*
X129082142Y-143314669D01*
X129082127Y-143314683D01*
X128814683Y-143582127D01*
X128814669Y-143582142D01*
X128576662Y-143876056D01*
X128576650Y-143876073D01*
X128370659Y-144193273D01*
X128198946Y-144530278D01*
X128198942Y-144530286D01*
X128063404Y-144883375D01*
X127965510Y-145248722D01*
X127906341Y-145622299D01*
X127886548Y-145999993D01*
X121875500Y-145999993D01*
X121875500Y-142664183D01*
X121875638Y-142663312D01*
X121875638Y-142643773D01*
X121875639Y-142643773D01*
X121875640Y-142619241D01*
X121875639Y-142619241D01*
X121875721Y-142510478D01*
X121842011Y-142295579D01*
X121775399Y-142088503D01*
X121677495Y-141894254D01*
X121670971Y-141885164D01*
X121571177Y-141746109D01*
X121550666Y-141717528D01*
X121397977Y-141562596D01*
X121223119Y-141433203D01*
X121223113Y-141433200D01*
X121223112Y-141433199D01*
X121030319Y-141332477D01*
X120824233Y-141262852D01*
X120609847Y-141226011D01*
X120527636Y-141224875D01*
X120524079Y-141224500D01*
X120515018Y-141224500D01*
X120501489Y-141224500D01*
X120499657Y-141224487D01*
X120460288Y-141223914D01*
X120456413Y-141224500D01*
X119543587Y-141224500D01*
X119539711Y-141223914D01*
X119500343Y-141224487D01*
X119498511Y-141224500D01*
X119476195Y-141224500D01*
X119472351Y-141224907D01*
X119391183Y-141226126D01*
X119178787Y-141262305D01*
X119178785Y-141262305D01*
X119178783Y-141262306D01*
X119109902Y-141285353D01*
X118974458Y-141330673D01*
X118974452Y-141330676D01*
X118783050Y-141429608D01*
X118783049Y-141429608D01*
X118609114Y-141556754D01*
X118609106Y-141556761D01*
X118456761Y-141709106D01*
X118456754Y-141709114D01*
X118329608Y-141883049D01*
X118329608Y-141883050D01*
X118230676Y-142074452D01*
X118230673Y-142074458D01*
X118162305Y-142278787D01*
X118126126Y-142491183D01*
X118124907Y-142572351D01*
X118124500Y-142576195D01*
X118124500Y-142598510D01*
X118124487Y-142600342D01*
X118123914Y-142639711D01*
X99925500Y-142639711D01*
X99925500Y-134668878D01*
X118099500Y-134668878D01*
X118099500Y-134931121D01*
X118133728Y-135191108D01*
X118133729Y-135191114D01*
X118133730Y-135191116D01*
X118201602Y-135444419D01*
X118301957Y-135686697D01*
X118301958Y-135686698D01*
X118301963Y-135686709D01*
X118433073Y-135913799D01*
X118433077Y-135913805D01*
X118592710Y-136121842D01*
X118592729Y-136121863D01*
X118778136Y-136307270D01*
X118778157Y-136307289D01*
X118986194Y-136466922D01*
X118986200Y-136466926D01*
X119213290Y-136598036D01*
X119213294Y-136598037D01*
X119213303Y-136598043D01*
X119455581Y-136698398D01*
X119708884Y-136766270D01*
X119708890Y-136766270D01*
X119708891Y-136766271D01*
X119733900Y-136769563D01*
X119968880Y-136800500D01*
X119968887Y-136800500D01*
X120231113Y-136800500D01*
X120231120Y-136800500D01*
X120491116Y-136766270D01*
X120744419Y-136698398D01*
X120986697Y-136598043D01*
X121213803Y-136466924D01*
X121421851Y-136307282D01*
X121607282Y-136121851D01*
X121766924Y-135913803D01*
X121898043Y-135686697D01*
X121998398Y-135444419D01*
X122066270Y-135191116D01*
X122100500Y-134931120D01*
X122100500Y-134668880D01*
X122066270Y-134408884D01*
X121998398Y-134155581D01*
X121898043Y-133913303D01*
X121898037Y-133913294D01*
X121898036Y-133913290D01*
X121766926Y-133686200D01*
X121766922Y-133686194D01*
X121607289Y-133478157D01*
X121607270Y-133478136D01*
X121421863Y-133292729D01*
X121421842Y-133292710D01*
X121213805Y-133133077D01*
X121213799Y-133133073D01*
X120986709Y-133001963D01*
X120986701Y-133001959D01*
X120986697Y-133001957D01*
X120744419Y-132901602D01*
X120491116Y-132833730D01*
X120491114Y-132833729D01*
X120491108Y-132833728D01*
X120231121Y-132799500D01*
X120231120Y-132799500D01*
X119968880Y-132799500D01*
X119968878Y-132799500D01*
X119708891Y-132833728D01*
X119455581Y-132901602D01*
X119213301Y-133001958D01*
X119213290Y-133001963D01*
X118986200Y-133133073D01*
X118986194Y-133133077D01*
X118778157Y-133292710D01*
X118778136Y-133292729D01*
X118592729Y-133478136D01*
X118592710Y-133478157D01*
X118433077Y-133686194D01*
X118433073Y-133686200D01*
X118301963Y-133913290D01*
X118301958Y-133913301D01*
X118201602Y-134155581D01*
X118133728Y-134408891D01*
X118099500Y-134668878D01*
X99925500Y-134668878D01*
X99925500Y-120200000D01*
X103925000Y-120200000D01*
X104050000Y-120800000D01*
X104300000Y-121200000D01*
X104700000Y-121550000D01*
X105099994Y-121699998D01*
X105099995Y-121699998D01*
X105100000Y-121700000D01*
X105500000Y-121775000D01*
X105925000Y-121700000D01*
X106300000Y-121550000D01*
X106700000Y-121200000D01*
X106950000Y-120800000D01*
X107075000Y-120200000D01*
X107041730Y-120040306D01*
X109249500Y-120040306D01*
X109249500Y-120359693D01*
X109280802Y-120677508D01*
X109280804Y-120677523D01*
X109343111Y-120990760D01*
X109406583Y-121199998D01*
X109435820Y-121296381D01*
X109435821Y-121296385D01*
X109558039Y-121591444D01*
X109708592Y-121873108D01*
X109886020Y-122138649D01*
X109886031Y-122138664D01*
X110088628Y-122385528D01*
X110088646Y-122385548D01*
X110314451Y-122611353D01*
X110314461Y-122611362D01*
X110314465Y-122611366D01*
X110561344Y-122813975D01*
X110826894Y-122991409D01*
X111108556Y-123141961D01*
X111403619Y-123264180D01*
X111709240Y-123356889D01*
X112022477Y-123419196D01*
X112340313Y-123450500D01*
X112340322Y-123450500D01*
X112659678Y-123450500D01*
X112659687Y-123450500D01*
X112977523Y-123419196D01*
X113290760Y-123356889D01*
X113596381Y-123264180D01*
X113891444Y-123141961D01*
X114173106Y-122991409D01*
X114438656Y-122813975D01*
X114685535Y-122611366D01*
X114911366Y-122385535D01*
X115113975Y-122138656D01*
X115291409Y-121873106D01*
X115441961Y-121591444D01*
X115564180Y-121296381D01*
X115656889Y-120990760D01*
X115719196Y-120677523D01*
X115750500Y-120359687D01*
X115750500Y-120040313D01*
X115750499Y-120040306D01*
X124249500Y-120040306D01*
X124249500Y-120359693D01*
X124280802Y-120677508D01*
X124280804Y-120677523D01*
X124343111Y-120990760D01*
X124406583Y-121199998D01*
X124435820Y-121296381D01*
X124435821Y-121296385D01*
X124558039Y-121591444D01*
X124708592Y-121873108D01*
X124886020Y-122138649D01*
X124886031Y-122138664D01*
X125088628Y-122385528D01*
X125088646Y-122385548D01*
X125314451Y-122611353D01*
X125314461Y-122611362D01*
X125314465Y-122611366D01*
X125561344Y-122813975D01*
X125826894Y-122991409D01*
X126108556Y-123141961D01*
X126403619Y-123264180D01*
X126709240Y-123356889D01*
X127022477Y-123419196D01*
X127340313Y-123450500D01*
X127340322Y-123450500D01*
X127659678Y-123450500D01*
X127659687Y-123450500D01*
X127977523Y-123419196D01*
X128290760Y-123356889D01*
X128596381Y-123264180D01*
X128891444Y-123141961D01*
X129173106Y-122991409D01*
X129438656Y-122813975D01*
X129685535Y-122611366D01*
X129911366Y-122385535D01*
X130113975Y-122138656D01*
X130291409Y-121873106D01*
X130441961Y-121591444D01*
X130564180Y-121296381D01*
X130656889Y-120990760D01*
X130719196Y-120677523D01*
X130750500Y-120359687D01*
X130750500Y-120200000D01*
X132925000Y-120200000D01*
X133050000Y-120800000D01*
X133300000Y-121200000D01*
X133700000Y-121550000D01*
X134099994Y-121699998D01*
X134099995Y-121699998D01*
X134100000Y-121700000D01*
X134500000Y-121775000D01*
X134925000Y-121700000D01*
X135300000Y-121550000D01*
X135700000Y-121200000D01*
X135950000Y-120800000D01*
X136075000Y-120200000D01*
X135950000Y-119600000D01*
X135700000Y-119200000D01*
X135300000Y-118850000D01*
X135299999Y-118849999D01*
X134900005Y-118700001D01*
X134899994Y-118699998D01*
X134500000Y-118625000D01*
X134100005Y-118699998D01*
X134099994Y-118700001D01*
X133700000Y-118849999D01*
X133300001Y-119199999D01*
X133299999Y-119200001D01*
X133050001Y-119599997D01*
X133050000Y-119599999D01*
X133050000Y-119600000D01*
X132925000Y-120200000D01*
X130750500Y-120200000D01*
X130750500Y-120040313D01*
X130719196Y-119722477D01*
X130656889Y-119409240D01*
X130564180Y-119103619D01*
X130441961Y-118808556D01*
X130291409Y-118526894D01*
X130113975Y-118261344D01*
X129911366Y-118014465D01*
X129911362Y-118014461D01*
X129911353Y-118014451D01*
X129685548Y-117788646D01*
X129685528Y-117788628D01*
X129438664Y-117586031D01*
X129438649Y-117586020D01*
X129173108Y-117408592D01*
X128891444Y-117258039D01*
X128596385Y-117135821D01*
X128596381Y-117135820D01*
X128290760Y-117043111D01*
X128081935Y-117001573D01*
X127977524Y-116980804D01*
X127977508Y-116980802D01*
X127659693Y-116949500D01*
X127659687Y-116949500D01*
X127340313Y-116949500D01*
X127340306Y-116949500D01*
X127022491Y-116980802D01*
X127022475Y-116980804D01*
X126813652Y-117022342D01*
X126709240Y-117043111D01*
X126556429Y-117089465D01*
X126403618Y-117135820D01*
X126403614Y-117135821D01*
X126108555Y-117258039D01*
X125826891Y-117408592D01*
X125561350Y-117586020D01*
X125561335Y-117586031D01*
X125314471Y-117788628D01*
X125314451Y-117788646D01*
X125088646Y-118014451D01*
X125088628Y-118014471D01*
X124886031Y-118261335D01*
X124886020Y-118261350D01*
X124708592Y-118526891D01*
X124558039Y-118808555D01*
X124435821Y-119103614D01*
X124435820Y-119103618D01*
X124343111Y-119409241D01*
X124280804Y-119722475D01*
X124280802Y-119722491D01*
X124249500Y-120040306D01*
X115750499Y-120040306D01*
X115719196Y-119722477D01*
X115656889Y-119409240D01*
X115564180Y-119103619D01*
X115441961Y-118808556D01*
X115291409Y-118526894D01*
X115113975Y-118261344D01*
X114911366Y-118014465D01*
X114911362Y-118014461D01*
X114911353Y-118014451D01*
X114685548Y-117788646D01*
X114685528Y-117788628D01*
X114438664Y-117586031D01*
X114438649Y-117586020D01*
X114173108Y-117408592D01*
X113891444Y-117258039D01*
X113596385Y-117135821D01*
X113596381Y-117135820D01*
X113290760Y-117043111D01*
X113081935Y-117001573D01*
X112977524Y-116980804D01*
X112977508Y-116980802D01*
X112659693Y-116949500D01*
X112659687Y-116949500D01*
X112340313Y-116949500D01*
X112340306Y-116949500D01*
X112022491Y-116980802D01*
X112022475Y-116980804D01*
X111813652Y-117022342D01*
X111709240Y-117043111D01*
X111556429Y-117089465D01*
X111403618Y-117135820D01*
X111403614Y-117135821D01*
X111108555Y-117258039D01*
X110826891Y-117408592D01*
X110561350Y-117586020D01*
X110561335Y-117586031D01*
X110314471Y-117788628D01*
X110314451Y-117788646D01*
X110088646Y-118014451D01*
X110088628Y-118014471D01*
X109886031Y-118261335D01*
X109886020Y-118261350D01*
X109708592Y-118526891D01*
X109558039Y-118808555D01*
X109435821Y-119103614D01*
X109435820Y-119103618D01*
X109343111Y-119409241D01*
X109280804Y-119722475D01*
X109280802Y-119722491D01*
X109249500Y-120040306D01*
X107041730Y-120040306D01*
X106950000Y-119600000D01*
X106700000Y-119200000D01*
X106300000Y-118850000D01*
X106299999Y-118849999D01*
X105900005Y-118700001D01*
X105899994Y-118699998D01*
X105500000Y-118625000D01*
X105100005Y-118699998D01*
X105099994Y-118700001D01*
X104700000Y-118849999D01*
X104300001Y-119199999D01*
X104299999Y-119200001D01*
X104050001Y-119599997D01*
X104050000Y-119599999D01*
X104050000Y-119600000D01*
X103925000Y-120200000D01*
X99925500Y-120200000D01*
X99925500Y-107000000D01*
X103925000Y-107000000D01*
X104050000Y-107600000D01*
X104300000Y-108000000D01*
X104700000Y-108350000D01*
X105099994Y-108499998D01*
X105099995Y-108499998D01*
X105100000Y-108500000D01*
X105500000Y-108575000D01*
X105925000Y-108500000D01*
X106300000Y-108350000D01*
X106700000Y-108000000D01*
X106950000Y-107600000D01*
X107075000Y-107000000D01*
X107041730Y-106840306D01*
X109249500Y-106840306D01*
X109249500Y-107159693D01*
X109280802Y-107477508D01*
X109280804Y-107477523D01*
X109343111Y-107790760D01*
X109406583Y-107999998D01*
X109435820Y-108096381D01*
X109435821Y-108096385D01*
X109558039Y-108391444D01*
X109708592Y-108673108D01*
X109886020Y-108938649D01*
X109886031Y-108938664D01*
X110088628Y-109185528D01*
X110088646Y-109185548D01*
X110314451Y-109411353D01*
X110314461Y-109411362D01*
X110314465Y-109411366D01*
X110561344Y-109613975D01*
X110826894Y-109791409D01*
X111108556Y-109941961D01*
X111403619Y-110064180D01*
X111709240Y-110156889D01*
X112022477Y-110219196D01*
X112340313Y-110250500D01*
X112340322Y-110250500D01*
X112659678Y-110250500D01*
X112659687Y-110250500D01*
X112977523Y-110219196D01*
X113290760Y-110156889D01*
X113596381Y-110064180D01*
X113891444Y-109941961D01*
X114173106Y-109791409D01*
X114438656Y-109613975D01*
X114685535Y-109411366D01*
X114911366Y-109185535D01*
X115113975Y-108938656D01*
X115291409Y-108673106D01*
X115441961Y-108391444D01*
X115564180Y-108096381D01*
X115656889Y-107790760D01*
X115719196Y-107477523D01*
X115750500Y-107159687D01*
X115750500Y-106840313D01*
X115750499Y-106840306D01*
X124249500Y-106840306D01*
X124249500Y-107159693D01*
X124280802Y-107477508D01*
X124280804Y-107477523D01*
X124343111Y-107790760D01*
X124406583Y-107999998D01*
X124435820Y-108096381D01*
X124435821Y-108096385D01*
X124558039Y-108391444D01*
X124708592Y-108673108D01*
X124886020Y-108938649D01*
X124886031Y-108938664D01*
X125088628Y-109185528D01*
X125088646Y-109185548D01*
X125314451Y-109411353D01*
X125314461Y-109411362D01*
X125314465Y-109411366D01*
X125561344Y-109613975D01*
X125826894Y-109791409D01*
X126108556Y-109941961D01*
X126403619Y-110064180D01*
X126709240Y-110156889D01*
X127022477Y-110219196D01*
X127340313Y-110250500D01*
X127340322Y-110250500D01*
X127659678Y-110250500D01*
X127659687Y-110250500D01*
X127977523Y-110219196D01*
X128290760Y-110156889D01*
X128596381Y-110064180D01*
X128891444Y-109941961D01*
X129173106Y-109791409D01*
X129438656Y-109613975D01*
X129685535Y-109411366D01*
X129911366Y-109185535D01*
X130113975Y-108938656D01*
X130291409Y-108673106D01*
X130441961Y-108391444D01*
X130564180Y-108096381D01*
X130656889Y-107790760D01*
X130719196Y-107477523D01*
X130750500Y-107159687D01*
X130750500Y-107000000D01*
X132925000Y-107000000D01*
X133050000Y-107600000D01*
X133300000Y-108000000D01*
X133700000Y-108350000D01*
X134099994Y-108499998D01*
X134099995Y-108499998D01*
X134100000Y-108500000D01*
X134500000Y-108575000D01*
X134925000Y-108500000D01*
X135300000Y-108350000D01*
X135700000Y-108000000D01*
X135950000Y-107600000D01*
X136075000Y-107000000D01*
X135950000Y-106400000D01*
X135700000Y-106000000D01*
X135300000Y-105650000D01*
X135299999Y-105649999D01*
X134900005Y-105500001D01*
X134899994Y-105499998D01*
X134500000Y-105425000D01*
X134100005Y-105499998D01*
X134099994Y-105500001D01*
X133700000Y-105649999D01*
X133300001Y-105999999D01*
X133299999Y-106000001D01*
X133050001Y-106399997D01*
X133050000Y-106399999D01*
X133050000Y-106400000D01*
X132925000Y-107000000D01*
X130750500Y-107000000D01*
X130750500Y-106840313D01*
X130719196Y-106522477D01*
X130656889Y-106209240D01*
X130564180Y-105903619D01*
X130441961Y-105608556D01*
X130291409Y-105326894D01*
X130113975Y-105061344D01*
X129911366Y-104814465D01*
X129911362Y-104814461D01*
X129911353Y-104814451D01*
X129685548Y-104588646D01*
X129685528Y-104588628D01*
X129438664Y-104386031D01*
X129438649Y-104386020D01*
X129173108Y-104208592D01*
X128891444Y-104058039D01*
X128596385Y-103935821D01*
X128596381Y-103935820D01*
X128290760Y-103843111D01*
X128081935Y-103801573D01*
X127977524Y-103780804D01*
X127977508Y-103780802D01*
X127659693Y-103749500D01*
X127659687Y-103749500D01*
X127340313Y-103749500D01*
X127340306Y-103749500D01*
X127022491Y-103780802D01*
X127022475Y-103780804D01*
X126813652Y-103822342D01*
X126709240Y-103843111D01*
X126556429Y-103889465D01*
X126403618Y-103935820D01*
X126403614Y-103935821D01*
X126108555Y-104058039D01*
X125826891Y-104208592D01*
X125561350Y-104386020D01*
X125561335Y-104386031D01*
X125314471Y-104588628D01*
X125314451Y-104588646D01*
X125088646Y-104814451D01*
X125088628Y-104814471D01*
X124886031Y-105061335D01*
X124886020Y-105061350D01*
X124708592Y-105326891D01*
X124558039Y-105608555D01*
X124435821Y-105903614D01*
X124435820Y-105903618D01*
X124343111Y-106209241D01*
X124280804Y-106522475D01*
X124280802Y-106522491D01*
X124249500Y-106840306D01*
X115750499Y-106840306D01*
X115719196Y-106522477D01*
X115656889Y-106209240D01*
X115564180Y-105903619D01*
X115441961Y-105608556D01*
X115291409Y-105326894D01*
X115113975Y-105061344D01*
X114911366Y-104814465D01*
X114911362Y-104814461D01*
X114911353Y-104814451D01*
X114685548Y-104588646D01*
X114685528Y-104588628D01*
X114438664Y-104386031D01*
X114438649Y-104386020D01*
X114173108Y-104208592D01*
X113891444Y-104058039D01*
X113596385Y-103935821D01*
X113596381Y-103935820D01*
X113290760Y-103843111D01*
X113081935Y-103801573D01*
X112977524Y-103780804D01*
X112977508Y-103780802D01*
X112659693Y-103749500D01*
X112659687Y-103749500D01*
X112340313Y-103749500D01*
X112340306Y-103749500D01*
X112022491Y-103780802D01*
X112022475Y-103780804D01*
X111813652Y-103822342D01*
X111709240Y-103843111D01*
X111556429Y-103889465D01*
X111403618Y-103935820D01*
X111403614Y-103935821D01*
X111108555Y-104058039D01*
X110826891Y-104208592D01*
X110561350Y-104386020D01*
X110561335Y-104386031D01*
X110314471Y-104588628D01*
X110314451Y-104588646D01*
X110088646Y-104814451D01*
X110088628Y-104814471D01*
X109886031Y-105061335D01*
X109886020Y-105061350D01*
X109708592Y-105326891D01*
X109558039Y-105608555D01*
X109435821Y-105903614D01*
X109435820Y-105903618D01*
X109343111Y-106209241D01*
X109280804Y-106522475D01*
X109280802Y-106522491D01*
X109249500Y-106840306D01*
X107041730Y-106840306D01*
X106950000Y-106400000D01*
X106700000Y-106000000D01*
X106300000Y-105650000D01*
X106299999Y-105649999D01*
X105900005Y-105500001D01*
X105899994Y-105499998D01*
X105500000Y-105425000D01*
X105100005Y-105499998D01*
X105099994Y-105500001D01*
X104700000Y-105649999D01*
X104300001Y-105999999D01*
X104299999Y-106000001D01*
X104050001Y-106399997D01*
X104050000Y-106399999D01*
X104050000Y-106400000D01*
X103925000Y-107000000D01*
X99925500Y-107000000D01*
X99925500Y-91800000D01*
X103925000Y-91800000D01*
X104050000Y-92400000D01*
X104300000Y-92800000D01*
X104700000Y-93150000D01*
X105099994Y-93299998D01*
X105099995Y-93299998D01*
X105100000Y-93300000D01*
X105500000Y-93375000D01*
X105925000Y-93300000D01*
X106300000Y-93150000D01*
X106700000Y-92800000D01*
X106950000Y-92400000D01*
X107075000Y-91800000D01*
X107041730Y-91640306D01*
X109249500Y-91640306D01*
X109249500Y-91959693D01*
X109280802Y-92277508D01*
X109280804Y-92277523D01*
X109343111Y-92590760D01*
X109406583Y-92799998D01*
X109435820Y-92896381D01*
X109435821Y-92896385D01*
X109558039Y-93191444D01*
X109708592Y-93473108D01*
X109886020Y-93738649D01*
X109886031Y-93738664D01*
X110088628Y-93985528D01*
X110088646Y-93985548D01*
X110314451Y-94211353D01*
X110314461Y-94211362D01*
X110314465Y-94211366D01*
X110561344Y-94413975D01*
X110826894Y-94591409D01*
X111108556Y-94741961D01*
X111403619Y-94864180D01*
X111709240Y-94956889D01*
X112022477Y-95019196D01*
X112340313Y-95050500D01*
X112340322Y-95050500D01*
X112659678Y-95050500D01*
X112659687Y-95050500D01*
X112977523Y-95019196D01*
X113290760Y-94956889D01*
X113596381Y-94864180D01*
X113891444Y-94741961D01*
X114173106Y-94591409D01*
X114438656Y-94413975D01*
X114685535Y-94211366D01*
X114911366Y-93985535D01*
X115113975Y-93738656D01*
X115291409Y-93473106D01*
X115441961Y-93191444D01*
X115564180Y-92896381D01*
X115656889Y-92590760D01*
X115719196Y-92277523D01*
X115750500Y-91959687D01*
X115750500Y-91640313D01*
X115750499Y-91640306D01*
X124249500Y-91640306D01*
X124249500Y-91959693D01*
X124280802Y-92277508D01*
X124280804Y-92277523D01*
X124343111Y-92590760D01*
X124406583Y-92799998D01*
X124435820Y-92896381D01*
X124435821Y-92896385D01*
X124558039Y-93191444D01*
X124708592Y-93473108D01*
X124886020Y-93738649D01*
X124886031Y-93738664D01*
X125088628Y-93985528D01*
X125088646Y-93985548D01*
X125314451Y-94211353D01*
X125314461Y-94211362D01*
X125314465Y-94211366D01*
X125561344Y-94413975D01*
X125826894Y-94591409D01*
X126108556Y-94741961D01*
X126403619Y-94864180D01*
X126709240Y-94956889D01*
X127022477Y-95019196D01*
X127340313Y-95050500D01*
X127340322Y-95050500D01*
X127659678Y-95050500D01*
X127659687Y-95050500D01*
X127977523Y-95019196D01*
X128290760Y-94956889D01*
X128596381Y-94864180D01*
X128891444Y-94741961D01*
X129173106Y-94591409D01*
X129438656Y-94413975D01*
X129685535Y-94211366D01*
X129911366Y-93985535D01*
X130113975Y-93738656D01*
X130291409Y-93473106D01*
X130441961Y-93191444D01*
X130564180Y-92896381D01*
X130656889Y-92590760D01*
X130719196Y-92277523D01*
X130750500Y-91959687D01*
X130750500Y-91800000D01*
X132925000Y-91800000D01*
X133050000Y-92400000D01*
X133300000Y-92800000D01*
X133700000Y-93150000D01*
X134099994Y-93299998D01*
X134099995Y-93299998D01*
X134100000Y-93300000D01*
X134500000Y-93375000D01*
X134925000Y-93300000D01*
X135300000Y-93150000D01*
X135700000Y-92800000D01*
X135950000Y-92400000D01*
X136075000Y-91800000D01*
X135950000Y-91200000D01*
X135700000Y-90800000D01*
X135300000Y-90450000D01*
X135299999Y-90449999D01*
X134900005Y-90300001D01*
X134899994Y-90299998D01*
X134500000Y-90225000D01*
X134100005Y-90299998D01*
X134099994Y-90300001D01*
X133700000Y-90449999D01*
X133300001Y-90799999D01*
X133299999Y-90800001D01*
X133050001Y-91199997D01*
X133050000Y-91199999D01*
X133050000Y-91200000D01*
X132925000Y-91800000D01*
X130750500Y-91800000D01*
X130750500Y-91640313D01*
X130719196Y-91322477D01*
X130656889Y-91009240D01*
X130564180Y-90703619D01*
X130441961Y-90408556D01*
X130291409Y-90126894D01*
X130113975Y-89861344D01*
X129911366Y-89614465D01*
X129911362Y-89614461D01*
X129911353Y-89614451D01*
X129685548Y-89388646D01*
X129685528Y-89388628D01*
X129438664Y-89186031D01*
X129438649Y-89186020D01*
X129173108Y-89008592D01*
X128891444Y-88858039D01*
X128596385Y-88735821D01*
X128596381Y-88735820D01*
X128290760Y-88643111D01*
X128081935Y-88601573D01*
X127977524Y-88580804D01*
X127977508Y-88580802D01*
X127659693Y-88549500D01*
X127659687Y-88549500D01*
X127340313Y-88549500D01*
X127340306Y-88549500D01*
X127022491Y-88580802D01*
X127022475Y-88580804D01*
X126813652Y-88622342D01*
X126709240Y-88643111D01*
X126556429Y-88689465D01*
X126403618Y-88735820D01*
X126403614Y-88735821D01*
X126108555Y-88858039D01*
X125826891Y-89008592D01*
X125561350Y-89186020D01*
X125561335Y-89186031D01*
X125314471Y-89388628D01*
X125314451Y-89388646D01*
X125088646Y-89614451D01*
X125088628Y-89614471D01*
X124886031Y-89861335D01*
X124886020Y-89861350D01*
X124708592Y-90126891D01*
X124558039Y-90408555D01*
X124435821Y-90703614D01*
X124435820Y-90703618D01*
X124343111Y-91009241D01*
X124280804Y-91322475D01*
X124280802Y-91322491D01*
X124249500Y-91640306D01*
X115750499Y-91640306D01*
X115719196Y-91322477D01*
X115656889Y-91009240D01*
X115564180Y-90703619D01*
X115441961Y-90408556D01*
X115291409Y-90126894D01*
X115113975Y-89861344D01*
X114911366Y-89614465D01*
X114911362Y-89614461D01*
X114911353Y-89614451D01*
X114685548Y-89388646D01*
X114685528Y-89388628D01*
X114438664Y-89186031D01*
X114438649Y-89186020D01*
X114173108Y-89008592D01*
X113891444Y-88858039D01*
X113596385Y-88735821D01*
X113596381Y-88735820D01*
X113290760Y-88643111D01*
X113081935Y-88601573D01*
X112977524Y-88580804D01*
X112977508Y-88580802D01*
X112659693Y-88549500D01*
X112659687Y-88549500D01*
X112340313Y-88549500D01*
X112340306Y-88549500D01*
X112022491Y-88580802D01*
X112022475Y-88580804D01*
X111813652Y-88622342D01*
X111709240Y-88643111D01*
X111556429Y-88689465D01*
X111403618Y-88735820D01*
X111403614Y-88735821D01*
X111108555Y-88858039D01*
X110826891Y-89008592D01*
X110561350Y-89186020D01*
X110561335Y-89186031D01*
X110314471Y-89388628D01*
X110314451Y-89388646D01*
X110088646Y-89614451D01*
X110088628Y-89614471D01*
X109886031Y-89861335D01*
X109886020Y-89861350D01*
X109708592Y-90126891D01*
X109558039Y-90408555D01*
X109435821Y-90703614D01*
X109435820Y-90703618D01*
X109343111Y-91009241D01*
X109280804Y-91322475D01*
X109280802Y-91322491D01*
X109249500Y-91640306D01*
X107041730Y-91640306D01*
X106950000Y-91200000D01*
X106700000Y-90800000D01*
X106300000Y-90450000D01*
X106299999Y-90449999D01*
X105900005Y-90300001D01*
X105899994Y-90299998D01*
X105500000Y-90225000D01*
X105100005Y-90299998D01*
X105099994Y-90300001D01*
X104700000Y-90449999D01*
X104300001Y-90799999D01*
X104299999Y-90800001D01*
X104050001Y-91199997D01*
X104050000Y-91199999D01*
X104050000Y-91200000D01*
X103925000Y-91800000D01*
X99925500Y-91800000D01*
X99925500Y-78600000D01*
X103925000Y-78600000D01*
X104050000Y-79200000D01*
X104300000Y-79600000D01*
X104700000Y-79950000D01*
X105099994Y-80099998D01*
X105099995Y-80099998D01*
X105100000Y-80100000D01*
X105500000Y-80175000D01*
X105925000Y-80100000D01*
X106300000Y-79950000D01*
X106700000Y-79600000D01*
X106950000Y-79200000D01*
X107075000Y-78600000D01*
X107041730Y-78440306D01*
X109249500Y-78440306D01*
X109249500Y-78759693D01*
X109280802Y-79077508D01*
X109280804Y-79077523D01*
X109343111Y-79390760D01*
X109406583Y-79599998D01*
X109435820Y-79696381D01*
X109435821Y-79696385D01*
X109558039Y-79991444D01*
X109708592Y-80273108D01*
X109886020Y-80538649D01*
X109886031Y-80538664D01*
X110088628Y-80785528D01*
X110088646Y-80785548D01*
X110314451Y-81011353D01*
X110314461Y-81011362D01*
X110314465Y-81011366D01*
X110561344Y-81213975D01*
X110826894Y-81391409D01*
X111108556Y-81541961D01*
X111403619Y-81664180D01*
X111709240Y-81756889D01*
X112022477Y-81819196D01*
X112340313Y-81850500D01*
X112340322Y-81850500D01*
X112659678Y-81850500D01*
X112659687Y-81850500D01*
X112977523Y-81819196D01*
X113290760Y-81756889D01*
X113596381Y-81664180D01*
X113891444Y-81541961D01*
X114173106Y-81391409D01*
X114438656Y-81213975D01*
X114685535Y-81011366D01*
X114911366Y-80785535D01*
X115113975Y-80538656D01*
X115291409Y-80273106D01*
X115441961Y-79991444D01*
X115564180Y-79696381D01*
X115656889Y-79390760D01*
X115719196Y-79077523D01*
X115750500Y-78759687D01*
X115750500Y-78440313D01*
X115750499Y-78440306D01*
X124249500Y-78440306D01*
X124249500Y-78759693D01*
X124280802Y-79077508D01*
X124280804Y-79077523D01*
X124343111Y-79390760D01*
X124406583Y-79599998D01*
X124435820Y-79696381D01*
X124435821Y-79696385D01*
X124558039Y-79991444D01*
X124708592Y-80273108D01*
X124886020Y-80538649D01*
X124886031Y-80538664D01*
X125088628Y-80785528D01*
X125088646Y-80785548D01*
X125314451Y-81011353D01*
X125314461Y-81011362D01*
X125314465Y-81011366D01*
X125561344Y-81213975D01*
X125826894Y-81391409D01*
X126108556Y-81541961D01*
X126403619Y-81664180D01*
X126709240Y-81756889D01*
X127022477Y-81819196D01*
X127340313Y-81850500D01*
X127340322Y-81850500D01*
X127659678Y-81850500D01*
X127659687Y-81850500D01*
X127977523Y-81819196D01*
X128290760Y-81756889D01*
X128596381Y-81664180D01*
X128891444Y-81541961D01*
X129173106Y-81391409D01*
X129438656Y-81213975D01*
X129685535Y-81011366D01*
X129911366Y-80785535D01*
X130113975Y-80538656D01*
X130291409Y-80273106D01*
X130441961Y-79991444D01*
X130564180Y-79696381D01*
X130656889Y-79390760D01*
X130719196Y-79077523D01*
X130750500Y-78759687D01*
X130750500Y-78600000D01*
X132925000Y-78600000D01*
X133050000Y-79200000D01*
X133300000Y-79600000D01*
X133700000Y-79950000D01*
X134099994Y-80099998D01*
X134099995Y-80099998D01*
X134100000Y-80100000D01*
X134500000Y-80175000D01*
X134925000Y-80100000D01*
X135300000Y-79950000D01*
X135700000Y-79600000D01*
X135950000Y-79200000D01*
X136075000Y-78600000D01*
X135950000Y-78000000D01*
X135700000Y-77600000D01*
X135300000Y-77250000D01*
X135299999Y-77249999D01*
X134900005Y-77100001D01*
X134899994Y-77099998D01*
X134500000Y-77025000D01*
X134100005Y-77099998D01*
X134099994Y-77100001D01*
X133700000Y-77249999D01*
X133300001Y-77599999D01*
X133299999Y-77600001D01*
X133050001Y-77999997D01*
X133050000Y-77999999D01*
X133050000Y-78000000D01*
X132925000Y-78600000D01*
X130750500Y-78600000D01*
X130750500Y-78440313D01*
X130719196Y-78122477D01*
X130656889Y-77809240D01*
X130564180Y-77503619D01*
X130441961Y-77208556D01*
X130291409Y-76926894D01*
X130113975Y-76661344D01*
X129911366Y-76414465D01*
X129911362Y-76414461D01*
X129911353Y-76414451D01*
X129685548Y-76188646D01*
X129685528Y-76188628D01*
X129438664Y-75986031D01*
X129438649Y-75986020D01*
X129173108Y-75808592D01*
X128891444Y-75658039D01*
X128596385Y-75535821D01*
X128596381Y-75535820D01*
X128290760Y-75443111D01*
X128081935Y-75401573D01*
X127977524Y-75380804D01*
X127977508Y-75380802D01*
X127659693Y-75349500D01*
X127659687Y-75349500D01*
X127340313Y-75349500D01*
X127340306Y-75349500D01*
X127022491Y-75380802D01*
X127022475Y-75380804D01*
X126813652Y-75422342D01*
X126709240Y-75443111D01*
X126556429Y-75489465D01*
X126403618Y-75535820D01*
X126403614Y-75535821D01*
X126108555Y-75658039D01*
X125826891Y-75808592D01*
X125561350Y-75986020D01*
X125561335Y-75986031D01*
X125314471Y-76188628D01*
X125314451Y-76188646D01*
X125088646Y-76414451D01*
X125088628Y-76414471D01*
X124886031Y-76661335D01*
X124886020Y-76661350D01*
X124708592Y-76926891D01*
X124558039Y-77208555D01*
X124435821Y-77503614D01*
X124435820Y-77503618D01*
X124343111Y-77809241D01*
X124280804Y-78122475D01*
X124280802Y-78122491D01*
X124249500Y-78440306D01*
X115750499Y-78440306D01*
X115719196Y-78122477D01*
X115656889Y-77809240D01*
X115564180Y-77503619D01*
X115441961Y-77208556D01*
X115291409Y-76926894D01*
X115113975Y-76661344D01*
X114911366Y-76414465D01*
X114911362Y-76414461D01*
X114911353Y-76414451D01*
X114685548Y-76188646D01*
X114685528Y-76188628D01*
X114438664Y-75986031D01*
X114438649Y-75986020D01*
X114173108Y-75808592D01*
X113891444Y-75658039D01*
X113596385Y-75535821D01*
X113596381Y-75535820D01*
X113290760Y-75443111D01*
X113081935Y-75401573D01*
X112977524Y-75380804D01*
X112977508Y-75380802D01*
X112659693Y-75349500D01*
X112659687Y-75349500D01*
X112340313Y-75349500D01*
X112340306Y-75349500D01*
X112022491Y-75380802D01*
X112022475Y-75380804D01*
X111813652Y-75422342D01*
X111709240Y-75443111D01*
X111556429Y-75489465D01*
X111403618Y-75535820D01*
X111403614Y-75535821D01*
X111108555Y-75658039D01*
X110826891Y-75808592D01*
X110561350Y-75986020D01*
X110561335Y-75986031D01*
X110314471Y-76188628D01*
X110314451Y-76188646D01*
X110088646Y-76414451D01*
X110088628Y-76414471D01*
X109886031Y-76661335D01*
X109886020Y-76661350D01*
X109708592Y-76926891D01*
X109558039Y-77208555D01*
X109435821Y-77503614D01*
X109435820Y-77503618D01*
X109343111Y-77809241D01*
X109280804Y-78122475D01*
X109280802Y-78122491D01*
X109249500Y-78440306D01*
X107041730Y-78440306D01*
X106950000Y-78000000D01*
X106700000Y-77600000D01*
X106300000Y-77250000D01*
X106299999Y-77249999D01*
X105900005Y-77100001D01*
X105899994Y-77099998D01*
X105500000Y-77025000D01*
X105100005Y-77099998D01*
X105099994Y-77100001D01*
X104700000Y-77249999D01*
X104300001Y-77599999D01*
X104299999Y-77600001D01*
X104050001Y-77999997D01*
X104050000Y-77999999D01*
X104050000Y-78000000D01*
X103925000Y-78600000D01*
X99925500Y-78600000D01*
X99925500Y-65500000D01*
X103925000Y-65500000D01*
X104050000Y-66100000D01*
X104300000Y-66500000D01*
X104700000Y-66850000D01*
X105099994Y-66999998D01*
X105099995Y-66999998D01*
X105100000Y-67000000D01*
X105500000Y-67075000D01*
X105925000Y-67000000D01*
X106300000Y-66850000D01*
X106700000Y-66500000D01*
X106950000Y-66100000D01*
X107075000Y-65500000D01*
X107041730Y-65340306D01*
X109249500Y-65340306D01*
X109249500Y-65659693D01*
X109280802Y-65977508D01*
X109280804Y-65977523D01*
X109343111Y-66290760D01*
X109406583Y-66499998D01*
X109435820Y-66596381D01*
X109435821Y-66596385D01*
X109558039Y-66891444D01*
X109708592Y-67173108D01*
X109886020Y-67438649D01*
X109886031Y-67438664D01*
X110088628Y-67685528D01*
X110088646Y-67685548D01*
X110314451Y-67911353D01*
X110314461Y-67911362D01*
X110314465Y-67911366D01*
X110561344Y-68113975D01*
X110826894Y-68291409D01*
X111108556Y-68441961D01*
X111403619Y-68564180D01*
X111709240Y-68656889D01*
X112022477Y-68719196D01*
X112340313Y-68750500D01*
X112340322Y-68750500D01*
X112659678Y-68750500D01*
X112659687Y-68750500D01*
X112977523Y-68719196D01*
X113290760Y-68656889D01*
X113596381Y-68564180D01*
X113891444Y-68441961D01*
X114173106Y-68291409D01*
X114438656Y-68113975D01*
X114685535Y-67911366D01*
X114911366Y-67685535D01*
X115113975Y-67438656D01*
X115291409Y-67173106D01*
X115441961Y-66891444D01*
X115564180Y-66596381D01*
X115656889Y-66290760D01*
X115719196Y-65977523D01*
X115750500Y-65659687D01*
X115750500Y-65340313D01*
X115750499Y-65340306D01*
X124249500Y-65340306D01*
X124249500Y-65659693D01*
X124280802Y-65977508D01*
X124280804Y-65977523D01*
X124343111Y-66290760D01*
X124406583Y-66499998D01*
X124435820Y-66596381D01*
X124435821Y-66596385D01*
X124558039Y-66891444D01*
X124708592Y-67173108D01*
X124886020Y-67438649D01*
X124886031Y-67438664D01*
X125088628Y-67685528D01*
X125088646Y-67685548D01*
X125314451Y-67911353D01*
X125314461Y-67911362D01*
X125314465Y-67911366D01*
X125561344Y-68113975D01*
X125826894Y-68291409D01*
X126108556Y-68441961D01*
X126403619Y-68564180D01*
X126709240Y-68656889D01*
X127022477Y-68719196D01*
X127340313Y-68750500D01*
X127340322Y-68750500D01*
X127659678Y-68750500D01*
X127659687Y-68750500D01*
X127977523Y-68719196D01*
X128290760Y-68656889D01*
X128596381Y-68564180D01*
X128891444Y-68441961D01*
X129173106Y-68291409D01*
X129438656Y-68113975D01*
X129685535Y-67911366D01*
X129911366Y-67685535D01*
X130113975Y-67438656D01*
X130291409Y-67173106D01*
X130441961Y-66891444D01*
X130564180Y-66596381D01*
X130656889Y-66290760D01*
X130719196Y-65977523D01*
X130750500Y-65659687D01*
X130750500Y-65500000D01*
X132925000Y-65500000D01*
X133050000Y-66100000D01*
X133300000Y-66500000D01*
X133700000Y-66850000D01*
X134099994Y-66999998D01*
X134099995Y-66999998D01*
X134100000Y-67000000D01*
X134500000Y-67075000D01*
X134925000Y-67000000D01*
X135300000Y-66850000D01*
X135700000Y-66500000D01*
X135950000Y-66100000D01*
X136075000Y-65500000D01*
X135950000Y-64900000D01*
X135700000Y-64500000D01*
X135300000Y-64150000D01*
X135299999Y-64149999D01*
X134900005Y-64000001D01*
X134899994Y-63999998D01*
X134500000Y-63925000D01*
X134100005Y-63999998D01*
X134099994Y-64000001D01*
X133700000Y-64149999D01*
X133300001Y-64499999D01*
X133299999Y-64500001D01*
X133050001Y-64899997D01*
X133050000Y-64899999D01*
X133050000Y-64900000D01*
X132925000Y-65500000D01*
X130750500Y-65500000D01*
X130750500Y-65340313D01*
X130719196Y-65022477D01*
X130656889Y-64709240D01*
X130564180Y-64403619D01*
X130441961Y-64108556D01*
X130291409Y-63826894D01*
X130113975Y-63561344D01*
X129911366Y-63314465D01*
X129911362Y-63314461D01*
X129911353Y-63314451D01*
X129685548Y-63088646D01*
X129685528Y-63088628D01*
X129438664Y-62886031D01*
X129438649Y-62886020D01*
X129173108Y-62708592D01*
X128891444Y-62558039D01*
X128596385Y-62435821D01*
X128596381Y-62435820D01*
X128290760Y-62343111D01*
X128081935Y-62301573D01*
X127977524Y-62280804D01*
X127977508Y-62280802D01*
X127659693Y-62249500D01*
X127659687Y-62249500D01*
X127340313Y-62249500D01*
X127340306Y-62249500D01*
X127022491Y-62280802D01*
X127022475Y-62280804D01*
X126813652Y-62322342D01*
X126709240Y-62343111D01*
X126556429Y-62389465D01*
X126403618Y-62435820D01*
X126403614Y-62435821D01*
X126108555Y-62558039D01*
X125826891Y-62708592D01*
X125561350Y-62886020D01*
X125561335Y-62886031D01*
X125314471Y-63088628D01*
X125314451Y-63088646D01*
X125088646Y-63314451D01*
X125088628Y-63314471D01*
X124886031Y-63561335D01*
X124886020Y-63561350D01*
X124708592Y-63826891D01*
X124558039Y-64108555D01*
X124435821Y-64403614D01*
X124435820Y-64403618D01*
X124343111Y-64709241D01*
X124280804Y-65022475D01*
X124280802Y-65022491D01*
X124249500Y-65340306D01*
X115750499Y-65340306D01*
X115719196Y-65022477D01*
X115656889Y-64709240D01*
X115564180Y-64403619D01*
X115441961Y-64108556D01*
X115291409Y-63826894D01*
X115113975Y-63561344D01*
X114911366Y-63314465D01*
X114911362Y-63314461D01*
X114911353Y-63314451D01*
X114685548Y-63088646D01*
X114685528Y-63088628D01*
X114438664Y-62886031D01*
X114438649Y-62886020D01*
X114173108Y-62708592D01*
X113891444Y-62558039D01*
X113596385Y-62435821D01*
X113596381Y-62435820D01*
X113290760Y-62343111D01*
X113081935Y-62301573D01*
X112977524Y-62280804D01*
X112977508Y-62280802D01*
X112659693Y-62249500D01*
X112659687Y-62249500D01*
X112340313Y-62249500D01*
X112340306Y-62249500D01*
X112022491Y-62280802D01*
X112022475Y-62280804D01*
X111813652Y-62322342D01*
X111709240Y-62343111D01*
X111556429Y-62389465D01*
X111403618Y-62435820D01*
X111403614Y-62435821D01*
X111108555Y-62558039D01*
X110826891Y-62708592D01*
X110561350Y-62886020D01*
X110561335Y-62886031D01*
X110314471Y-63088628D01*
X110314451Y-63088646D01*
X110088646Y-63314451D01*
X110088628Y-63314471D01*
X109886031Y-63561335D01*
X109886020Y-63561350D01*
X109708592Y-63826891D01*
X109558039Y-64108555D01*
X109435821Y-64403614D01*
X109435820Y-64403618D01*
X109343111Y-64709241D01*
X109280804Y-65022475D01*
X109280802Y-65022491D01*
X109249500Y-65340306D01*
X107041730Y-65340306D01*
X106950000Y-64900000D01*
X106700000Y-64500000D01*
X106300000Y-64150000D01*
X106299999Y-64149999D01*
X105900005Y-64000001D01*
X105899994Y-63999998D01*
X105500000Y-63925000D01*
X105100005Y-63999998D01*
X105099994Y-64000001D01*
X104700000Y-64149999D01*
X104300001Y-64499999D01*
X104299999Y-64500001D01*
X104050001Y-64899997D01*
X104050000Y-64899999D01*
X104050000Y-64900000D01*
X103925000Y-65500000D01*
X99925500Y-65500000D01*
X99925500Y-52400000D01*
X103925000Y-52400000D01*
X104050000Y-53000000D01*
X104300000Y-53400000D01*
X104700000Y-53750000D01*
X105099994Y-53899998D01*
X105099995Y-53899998D01*
X105100000Y-53900000D01*
X105500000Y-53975000D01*
X105925000Y-53900000D01*
X106300000Y-53750000D01*
X106700000Y-53400000D01*
X106950000Y-53000000D01*
X107075000Y-52400000D01*
X107041730Y-52240306D01*
X109249500Y-52240306D01*
X109249500Y-52559693D01*
X109280802Y-52877508D01*
X109280804Y-52877523D01*
X109343111Y-53190760D01*
X109406583Y-53399998D01*
X109435820Y-53496381D01*
X109435821Y-53496385D01*
X109558039Y-53791444D01*
X109708592Y-54073108D01*
X109886020Y-54338649D01*
X109886031Y-54338664D01*
X110088628Y-54585528D01*
X110088646Y-54585548D01*
X110314451Y-54811353D01*
X110314461Y-54811362D01*
X110314465Y-54811366D01*
X110561344Y-55013975D01*
X110826894Y-55191409D01*
X111108556Y-55341961D01*
X111403619Y-55464180D01*
X111709240Y-55556889D01*
X112022477Y-55619196D01*
X112340313Y-55650500D01*
X112340322Y-55650500D01*
X112659678Y-55650500D01*
X112659687Y-55650500D01*
X112977523Y-55619196D01*
X113290760Y-55556889D01*
X113596381Y-55464180D01*
X113891444Y-55341961D01*
X114173106Y-55191409D01*
X114438656Y-55013975D01*
X114685535Y-54811366D01*
X114911366Y-54585535D01*
X115113975Y-54338656D01*
X115291409Y-54073106D01*
X115441961Y-53791444D01*
X115564180Y-53496381D01*
X115656889Y-53190760D01*
X115719196Y-52877523D01*
X115750500Y-52559687D01*
X115750500Y-52240313D01*
X115750499Y-52240306D01*
X124249500Y-52240306D01*
X124249500Y-52559693D01*
X124280802Y-52877508D01*
X124280804Y-52877523D01*
X124343111Y-53190760D01*
X124406583Y-53399998D01*
X124435820Y-53496381D01*
X124435821Y-53496385D01*
X124558039Y-53791444D01*
X124708592Y-54073108D01*
X124886020Y-54338649D01*
X124886031Y-54338664D01*
X125088628Y-54585528D01*
X125088646Y-54585548D01*
X125314451Y-54811353D01*
X125314461Y-54811362D01*
X125314465Y-54811366D01*
X125561344Y-55013975D01*
X125826894Y-55191409D01*
X126108556Y-55341961D01*
X126403619Y-55464180D01*
X126709240Y-55556889D01*
X127022477Y-55619196D01*
X127340313Y-55650500D01*
X127340322Y-55650500D01*
X127659678Y-55650500D01*
X127659687Y-55650500D01*
X127977523Y-55619196D01*
X128290760Y-55556889D01*
X128596381Y-55464180D01*
X128891444Y-55341961D01*
X129173106Y-55191409D01*
X129438656Y-55013975D01*
X129685535Y-54811366D01*
X129911366Y-54585535D01*
X130113975Y-54338656D01*
X130291409Y-54073106D01*
X130441961Y-53791444D01*
X130564180Y-53496381D01*
X130656889Y-53190760D01*
X130719196Y-52877523D01*
X130750500Y-52559687D01*
X130750500Y-52400000D01*
X132925000Y-52400000D01*
X133050000Y-53000000D01*
X133300000Y-53400000D01*
X133700000Y-53750000D01*
X134099994Y-53899998D01*
X134099995Y-53899998D01*
X134100000Y-53900000D01*
X134500000Y-53975000D01*
X134925000Y-53900000D01*
X135300000Y-53750000D01*
X135700000Y-53400000D01*
X135950000Y-53000000D01*
X136075000Y-52400000D01*
X135950000Y-51800000D01*
X135700000Y-51400000D01*
X135300000Y-51050000D01*
X135299999Y-51049999D01*
X134900005Y-50900001D01*
X134899994Y-50899998D01*
X134500000Y-50825000D01*
X134100005Y-50899998D01*
X134099994Y-50900001D01*
X133700000Y-51049999D01*
X133300001Y-51399999D01*
X133299999Y-51400001D01*
X133050001Y-51799997D01*
X133050000Y-51799999D01*
X133050000Y-51800000D01*
X132925000Y-52400000D01*
X130750500Y-52400000D01*
X130750500Y-52240313D01*
X130719196Y-51922477D01*
X130656889Y-51609240D01*
X130564180Y-51303619D01*
X130441961Y-51008556D01*
X130291409Y-50726894D01*
X130113975Y-50461344D01*
X129911366Y-50214465D01*
X129911362Y-50214461D01*
X129911353Y-50214451D01*
X129685548Y-49988646D01*
X129685528Y-49988628D01*
X129438664Y-49786031D01*
X129438649Y-49786020D01*
X129173108Y-49608592D01*
X128891444Y-49458039D01*
X128596385Y-49335821D01*
X128596381Y-49335820D01*
X128290760Y-49243111D01*
X128081935Y-49201573D01*
X127977524Y-49180804D01*
X127977508Y-49180802D01*
X127659693Y-49149500D01*
X127659687Y-49149500D01*
X127340313Y-49149500D01*
X127340306Y-49149500D01*
X127022491Y-49180802D01*
X127022475Y-49180804D01*
X126813652Y-49222342D01*
X126709240Y-49243111D01*
X126556429Y-49289465D01*
X126403618Y-49335820D01*
X126403614Y-49335821D01*
X126108555Y-49458039D01*
X125826891Y-49608592D01*
X125561350Y-49786020D01*
X125561335Y-49786031D01*
X125314471Y-49988628D01*
X125314451Y-49988646D01*
X125088646Y-50214451D01*
X125088628Y-50214471D01*
X124886031Y-50461335D01*
X124886020Y-50461350D01*
X124708592Y-50726891D01*
X124558039Y-51008555D01*
X124435821Y-51303614D01*
X124435820Y-51303618D01*
X124343111Y-51609241D01*
X124280804Y-51922475D01*
X124280802Y-51922491D01*
X124249500Y-52240306D01*
X115750499Y-52240306D01*
X115719196Y-51922477D01*
X115656889Y-51609240D01*
X115564180Y-51303619D01*
X115441961Y-51008556D01*
X115291409Y-50726894D01*
X115113975Y-50461344D01*
X114911366Y-50214465D01*
X114911362Y-50214461D01*
X114911353Y-50214451D01*
X114685548Y-49988646D01*
X114685528Y-49988628D01*
X114438664Y-49786031D01*
X114438649Y-49786020D01*
X114173108Y-49608592D01*
X113891444Y-49458039D01*
X113596385Y-49335821D01*
X113596381Y-49335820D01*
X113290760Y-49243111D01*
X113081935Y-49201573D01*
X112977524Y-49180804D01*
X112977508Y-49180802D01*
X112659693Y-49149500D01*
X112659687Y-49149500D01*
X112340313Y-49149500D01*
X112340306Y-49149500D01*
X112022491Y-49180802D01*
X112022475Y-49180804D01*
X111813652Y-49222342D01*
X111709240Y-49243111D01*
X111556429Y-49289465D01*
X111403618Y-49335820D01*
X111403614Y-49335821D01*
X111108555Y-49458039D01*
X110826891Y-49608592D01*
X110561350Y-49786020D01*
X110561335Y-49786031D01*
X110314471Y-49988628D01*
X110314451Y-49988646D01*
X110088646Y-50214451D01*
X110088628Y-50214471D01*
X109886031Y-50461335D01*
X109886020Y-50461350D01*
X109708592Y-50726891D01*
X109558039Y-51008555D01*
X109435821Y-51303614D01*
X109435820Y-51303618D01*
X109343111Y-51609241D01*
X109280804Y-51922475D01*
X109280802Y-51922491D01*
X109249500Y-52240306D01*
X107041730Y-52240306D01*
X106950000Y-51800000D01*
X106700000Y-51400000D01*
X106300000Y-51050000D01*
X106299999Y-51049999D01*
X105900005Y-50900001D01*
X105899994Y-50899998D01*
X105500000Y-50825000D01*
X105100005Y-50899998D01*
X105099994Y-50900001D01*
X104700000Y-51049999D01*
X104300001Y-51399999D01*
X104299999Y-51400001D01*
X104050001Y-51799997D01*
X104050000Y-51799999D01*
X104050000Y-51800000D01*
X103925000Y-52400000D01*
X99925500Y-52400000D01*
X99925500Y-37878709D01*
X104649500Y-37878709D01*
X104649500Y-38121290D01*
X104681160Y-38361782D01*
X104743944Y-38596095D01*
X104743945Y-38596097D01*
X104743946Y-38596100D01*
X104836776Y-38820212D01*
X104836777Y-38820213D01*
X104836782Y-38820224D01*
X104958061Y-39030285D01*
X104958063Y-39030288D01*
X104958064Y-39030289D01*
X105105735Y-39222738D01*
X105105739Y-39222742D01*
X105105744Y-39222748D01*
X105277251Y-39394255D01*
X105277256Y-39394259D01*
X105277262Y-39394265D01*
X105469711Y-39541936D01*
X105469714Y-39541938D01*
X105679775Y-39663217D01*
X105679779Y-39663218D01*
X105679788Y-39663224D01*
X105903900Y-39756054D01*
X106138211Y-39818838D01*
X106138215Y-39818838D01*
X106138217Y-39818839D01*
X106200202Y-39826999D01*
X106378712Y-39850500D01*
X106378719Y-39850500D01*
X108421281Y-39850500D01*
X108421288Y-39850500D01*
X108638637Y-39821885D01*
X108661782Y-39818839D01*
X108661782Y-39818838D01*
X108661789Y-39818838D01*
X108896100Y-39756054D01*
X109120212Y-39663224D01*
X109330289Y-39541936D01*
X109522738Y-39394265D01*
X109694265Y-39222738D01*
X109841936Y-39030289D01*
X109963224Y-38820212D01*
X110056054Y-38596100D01*
X110118838Y-38361789D01*
X110150500Y-38121288D01*
X110150500Y-37878712D01*
X110150500Y-37878709D01*
X129849500Y-37878709D01*
X129849500Y-38121290D01*
X129881160Y-38361782D01*
X129943944Y-38596095D01*
X129943945Y-38596097D01*
X129943946Y-38596100D01*
X130036776Y-38820212D01*
X130036777Y-38820213D01*
X130036782Y-38820224D01*
X130158061Y-39030285D01*
X130158063Y-39030288D01*
X130158064Y-39030289D01*
X130305735Y-39222738D01*
X130305739Y-39222742D01*
X130305744Y-39222748D01*
X130477251Y-39394255D01*
X130477256Y-39394259D01*
X130477262Y-39394265D01*
X130669711Y-39541936D01*
X130669714Y-39541938D01*
X130879775Y-39663217D01*
X130879779Y-39663218D01*
X130879788Y-39663224D01*
X131103900Y-39756054D01*
X131338211Y-39818838D01*
X131338215Y-39818838D01*
X131338217Y-39818839D01*
X131400202Y-39826999D01*
X131578712Y-39850500D01*
X131578719Y-39850500D01*
X133621281Y-39850500D01*
X133621288Y-39850500D01*
X133838637Y-39821885D01*
X133861782Y-39818839D01*
X133861782Y-39818838D01*
X133861789Y-39818838D01*
X134096100Y-39756054D01*
X134320212Y-39663224D01*
X134530289Y-39541936D01*
X134722738Y-39394265D01*
X134894265Y-39222738D01*
X135041936Y-39030289D01*
X135163224Y-38820212D01*
X135256054Y-38596100D01*
X135318838Y-38361789D01*
X135350500Y-38121288D01*
X135350500Y-37878712D01*
X135318838Y-37638211D01*
X135256054Y-37403900D01*
X135163224Y-37179788D01*
X135163218Y-37179779D01*
X135163217Y-37179775D01*
X135041938Y-36969714D01*
X135041936Y-36969711D01*
X134894265Y-36777262D01*
X134894259Y-36777256D01*
X134894255Y-36777251D01*
X134722748Y-36605744D01*
X134722742Y-36605739D01*
X134722738Y-36605735D01*
X134530289Y-36458064D01*
X134530288Y-36458063D01*
X134530285Y-36458061D01*
X134320224Y-36336782D01*
X134320216Y-36336778D01*
X134320212Y-36336776D01*
X134096100Y-36243946D01*
X134096097Y-36243945D01*
X134096095Y-36243944D01*
X133861782Y-36181160D01*
X133621290Y-36149500D01*
X133621288Y-36149500D01*
X131578712Y-36149500D01*
X131578709Y-36149500D01*
X131338217Y-36181160D01*
X131103904Y-36243944D01*
X131103900Y-36243946D01*
X130879786Y-36336777D01*
X130879775Y-36336782D01*
X130669714Y-36458061D01*
X130477262Y-36605735D01*
X130477251Y-36605744D01*
X130305744Y-36777251D01*
X130305735Y-36777262D01*
X130158061Y-36969714D01*
X130036782Y-37179775D01*
X130036777Y-37179786D01*
X129943946Y-37403900D01*
X129943944Y-37403904D01*
X129881160Y-37638217D01*
X129849500Y-37878709D01*
X110150500Y-37878709D01*
X110118838Y-37638211D01*
X110056054Y-37403900D01*
X109963224Y-37179788D01*
X109963218Y-37179779D01*
X109963217Y-37179775D01*
X109841938Y-36969714D01*
X109841936Y-36969711D01*
X109694265Y-36777262D01*
X109694259Y-36777256D01*
X109694255Y-36777251D01*
X109522748Y-36605744D01*
X109522742Y-36605739D01*
X109522738Y-36605735D01*
X109330289Y-36458064D01*
X109330288Y-36458063D01*
X109330285Y-36458061D01*
X109120224Y-36336782D01*
X109120216Y-36336778D01*
X109120212Y-36336776D01*
X108896100Y-36243946D01*
X108896097Y-36243945D01*
X108896095Y-36243944D01*
X108661782Y-36181160D01*
X108421290Y-36149500D01*
X108421288Y-36149500D01*
X106378712Y-36149500D01*
X106378709Y-36149500D01*
X106138217Y-36181160D01*
X105903904Y-36243944D01*
X105903900Y-36243946D01*
X105679786Y-36336777D01*
X105679775Y-36336782D01*
X105469714Y-36458061D01*
X105277262Y-36605735D01*
X105277251Y-36605744D01*
X105105744Y-36777251D01*
X105105735Y-36777262D01*
X104958061Y-36969714D01*
X104836782Y-37179775D01*
X104836777Y-37179786D01*
X104743946Y-37403900D01*
X104743944Y-37403904D01*
X104681160Y-37638217D01*
X104649500Y-37878709D01*
X99925500Y-37878709D01*
X99925500Y-35201500D01*
X99945502Y-35133379D01*
X99999158Y-35086886D01*
X100051500Y-35075500D01*
X139948500Y-35075500D01*
X140016621Y-35095502D01*
G37*
G04 #@! TD.AperFunction*
M02*
