G04 #@! TF.GenerationSoftware,KiCad,Pcbnew,8.0.4*
G04 #@! TF.CreationDate,2024-08-08T15:14:59+01:00*
G04 #@! TF.ProjectId,MidiMonger_panel,4d696469-4d6f-46e6-9765-725f70616e65,rev?*
G04 #@! TF.SameCoordinates,Original*
G04 #@! TF.FileFunction,Soldermask,Top*
G04 #@! TF.FilePolarity,Negative*
%FSLAX46Y46*%
G04 Gerber Fmt 4.6, Leading zero omitted, Abs format (unit mm)*
G04 Created by KiCad (PCBNEW 8.0.4) date 2024-08-08 15:14:59*
%MOMM*%
%LPD*%
G01*
G04 APERTURE LIST*
%ADD10C,0.300000*%
%ADD11C,1.000000*%
%ADD12C,0.200000*%
%ADD13C,0.100000*%
%ADD14C,2.074846*%
%ADD15C,0.010000*%
%ADD16C,0.000000*%
%ADD17C,3.500000*%
%ADD18O,5.000000X3.200000*%
%ADD19C,6.000000*%
%ADD20C,6.200000*%
G04 APERTURE END LIST*
D10*
X105648300Y-132604622D02*
G75*
G02*
X105082614Y-132604622I-282843J0D01*
G01*
X105082614Y-132604622D02*
G75*
G02*
X105648300Y-132604622I282843J0D01*
G01*
X106648300Y-132204622D02*
G75*
G02*
X106082614Y-132204622I-282843J0D01*
G01*
X106082614Y-132204622D02*
G75*
G02*
X106648300Y-132204622I282843J0D01*
G01*
X107748300Y-132404622D02*
G75*
G02*
X107182614Y-132404622I-282843J0D01*
G01*
X107182614Y-132404622D02*
G75*
G02*
X107748300Y-132404622I282843J0D01*
G01*
X105048300Y-134604622D02*
G75*
G02*
X104482614Y-134604622I-282843J0D01*
G01*
X104482614Y-134604622D02*
G75*
G02*
X105048300Y-134604622I282843J0D01*
G01*
D11*
X134500000Y-65500000D02*
X127500000Y-65500000D01*
D12*
X102500000Y-128400000D02*
X112825000Y-128400000D01*
D10*
X109165458Y-134004622D02*
G75*
G02*
X103885306Y-134004622I-2640076J0D01*
G01*
X103885306Y-134004622D02*
G75*
G02*
X109165458Y-134004622I2640076J0D01*
G01*
X104948300Y-133504622D02*
G75*
G02*
X104382614Y-133504622I-282843J0D01*
G01*
X104382614Y-133504622D02*
G75*
G02*
X104948300Y-133504622I282843J0D01*
G01*
D11*
X112500000Y-52400000D02*
X105500000Y-52400000D01*
X127500000Y-107000000D02*
X134500000Y-107000000D01*
D12*
X137500000Y-101400000D02*
X137500000Y-99400000D01*
X137500000Y-128300000D02*
X137500000Y-126300000D01*
X102500000Y-128400000D02*
X102500000Y-126400000D01*
D11*
X127500000Y-120200000D02*
X134500000Y-120200000D01*
D12*
X102500000Y-101400000D02*
X102500000Y-99400000D01*
D11*
X112500000Y-65500000D02*
X105500000Y-65500000D01*
D12*
X126450000Y-128300000D02*
X137500000Y-128300000D01*
D13*
X126500000Y-148000000D02*
X123500000Y-146000000D01*
X126500000Y-144000000D01*
X126500000Y-148000000D01*
G36*
X126500000Y-148000000D02*
G01*
X123500000Y-146000000D01*
X126500000Y-144000000D01*
X126500000Y-148000000D01*
G37*
D12*
X102500000Y-99400000D02*
X119000000Y-99400000D01*
D13*
X105700000Y-153400000D02*
X104700000Y-154400000D01*
X104700000Y-152500000D01*
X105700000Y-153400000D01*
G36*
X105700000Y-153400000D02*
G01*
X104700000Y-154400000D01*
X104700000Y-152500000D01*
X105700000Y-153400000D01*
G37*
D12*
X121000000Y-99400000D02*
X137500000Y-99400000D01*
D11*
X112500000Y-107000000D02*
X105500000Y-107000000D01*
D12*
X121000000Y-43200000D02*
X121000000Y-99400000D01*
D11*
X112500000Y-78600000D02*
X105500000Y-78600000D01*
X134500000Y-78600000D02*
X127500000Y-78600000D01*
X112500000Y-120200000D02*
X105500000Y-120200000D01*
D12*
X119000000Y-43200000D02*
X119000000Y-99400000D01*
D11*
X134500000Y-91800000D02*
X127500000Y-91800000D01*
X112500000Y-91800000D02*
X105500000Y-91800000D01*
X134500000Y-52400000D02*
X127500000Y-52400000D01*
D10*
X108465457Y-134404622D02*
G75*
G02*
X106365464Y-136104556I-1899957J200022D01*
G01*
X134928572Y-48878328D02*
X134071429Y-48878328D01*
X134500000Y-48878328D02*
X134500000Y-47378328D01*
X134500000Y-47378328D02*
X134357143Y-47592614D01*
X134357143Y-47592614D02*
X134214286Y-47735471D01*
X134214286Y-47735471D02*
X134071429Y-47806900D01*
X105071429Y-60521185D02*
X105142857Y-60449757D01*
X105142857Y-60449757D02*
X105285715Y-60378328D01*
X105285715Y-60378328D02*
X105642857Y-60378328D01*
X105642857Y-60378328D02*
X105785715Y-60449757D01*
X105785715Y-60449757D02*
X105857143Y-60521185D01*
X105857143Y-60521185D02*
X105928572Y-60664042D01*
X105928572Y-60664042D02*
X105928572Y-60806900D01*
X105928572Y-60806900D02*
X105857143Y-61021185D01*
X105857143Y-61021185D02*
X105000000Y-61878328D01*
X105000000Y-61878328D02*
X105928572Y-61878328D01*
X105000000Y-73378328D02*
X105928572Y-73378328D01*
X105928572Y-73378328D02*
X105428572Y-73949757D01*
X105428572Y-73949757D02*
X105642857Y-73949757D01*
X105642857Y-73949757D02*
X105785715Y-74021185D01*
X105785715Y-74021185D02*
X105857143Y-74092614D01*
X105857143Y-74092614D02*
X105928572Y-74235471D01*
X105928572Y-74235471D02*
X105928572Y-74592614D01*
X105928572Y-74592614D02*
X105857143Y-74735471D01*
X105857143Y-74735471D02*
X105785715Y-74806900D01*
X105785715Y-74806900D02*
X105642857Y-74878328D01*
X105642857Y-74878328D02*
X105214286Y-74878328D01*
X105214286Y-74878328D02*
X105071429Y-74806900D01*
X105071429Y-74806900D02*
X105000000Y-74735471D01*
X105785715Y-86878328D02*
X105785715Y-87878328D01*
X105428572Y-86306900D02*
X105071429Y-87378328D01*
X105071429Y-87378328D02*
X106000000Y-87378328D01*
X134071429Y-60521185D02*
X134142857Y-60449757D01*
X134142857Y-60449757D02*
X134285715Y-60378328D01*
X134285715Y-60378328D02*
X134642857Y-60378328D01*
X134642857Y-60378328D02*
X134785715Y-60449757D01*
X134785715Y-60449757D02*
X134857143Y-60521185D01*
X134857143Y-60521185D02*
X134928572Y-60664042D01*
X134928572Y-60664042D02*
X134928572Y-60806900D01*
X134928572Y-60806900D02*
X134857143Y-61021185D01*
X134857143Y-61021185D02*
X134000000Y-61878328D01*
X134000000Y-61878328D02*
X134928572Y-61878328D01*
X134000000Y-73378328D02*
X134928572Y-73378328D01*
X134928572Y-73378328D02*
X134428572Y-73949757D01*
X134428572Y-73949757D02*
X134642857Y-73949757D01*
X134642857Y-73949757D02*
X134785715Y-74021185D01*
X134785715Y-74021185D02*
X134857143Y-74092614D01*
X134857143Y-74092614D02*
X134928572Y-74235471D01*
X134928572Y-74235471D02*
X134928572Y-74592614D01*
X134928572Y-74592614D02*
X134857143Y-74735471D01*
X134857143Y-74735471D02*
X134785715Y-74806900D01*
X134785715Y-74806900D02*
X134642857Y-74878328D01*
X134642857Y-74878328D02*
X134214286Y-74878328D01*
X134214286Y-74878328D02*
X134071429Y-74806900D01*
X134071429Y-74806900D02*
X134000000Y-74735471D01*
X134785715Y-86878328D02*
X134785715Y-87878328D01*
X134428572Y-86306900D02*
X134071429Y-87378328D01*
X134071429Y-87378328D02*
X135000000Y-87378328D01*
X105857143Y-101878328D02*
X105142857Y-101878328D01*
X105142857Y-101878328D02*
X105071429Y-102592614D01*
X105071429Y-102592614D02*
X105142857Y-102521185D01*
X105142857Y-102521185D02*
X105285715Y-102449757D01*
X105285715Y-102449757D02*
X105642857Y-102449757D01*
X105642857Y-102449757D02*
X105785715Y-102521185D01*
X105785715Y-102521185D02*
X105857143Y-102592614D01*
X105857143Y-102592614D02*
X105928572Y-102735471D01*
X105928572Y-102735471D02*
X105928572Y-103092614D01*
X105928572Y-103092614D02*
X105857143Y-103235471D01*
X105857143Y-103235471D02*
X105785715Y-103306900D01*
X105785715Y-103306900D02*
X105642857Y-103378328D01*
X105642857Y-103378328D02*
X105285715Y-103378328D01*
X105285715Y-103378328D02*
X105142857Y-103306900D01*
X105142857Y-103306900D02*
X105071429Y-103235471D01*
X105000000Y-114878328D02*
X106000000Y-114878328D01*
X106000000Y-114878328D02*
X105357143Y-116378328D01*
X134357143Y-115521185D02*
X134214286Y-115449757D01*
X134214286Y-115449757D02*
X134142857Y-115378328D01*
X134142857Y-115378328D02*
X134071429Y-115235471D01*
X134071429Y-115235471D02*
X134071429Y-115164042D01*
X134071429Y-115164042D02*
X134142857Y-115021185D01*
X134142857Y-115021185D02*
X134214286Y-114949757D01*
X134214286Y-114949757D02*
X134357143Y-114878328D01*
X134357143Y-114878328D02*
X134642857Y-114878328D01*
X134642857Y-114878328D02*
X134785715Y-114949757D01*
X134785715Y-114949757D02*
X134857143Y-115021185D01*
X134857143Y-115021185D02*
X134928572Y-115164042D01*
X134928572Y-115164042D02*
X134928572Y-115235471D01*
X134928572Y-115235471D02*
X134857143Y-115378328D01*
X134857143Y-115378328D02*
X134785715Y-115449757D01*
X134785715Y-115449757D02*
X134642857Y-115521185D01*
X134642857Y-115521185D02*
X134357143Y-115521185D01*
X134357143Y-115521185D02*
X134214286Y-115592614D01*
X134214286Y-115592614D02*
X134142857Y-115664042D01*
X134142857Y-115664042D02*
X134071429Y-115806900D01*
X134071429Y-115806900D02*
X134071429Y-116092614D01*
X134071429Y-116092614D02*
X134142857Y-116235471D01*
X134142857Y-116235471D02*
X134214286Y-116306900D01*
X134214286Y-116306900D02*
X134357143Y-116378328D01*
X134357143Y-116378328D02*
X134642857Y-116378328D01*
X134642857Y-116378328D02*
X134785715Y-116306900D01*
X134785715Y-116306900D02*
X134857143Y-116235471D01*
X134857143Y-116235471D02*
X134928572Y-116092614D01*
X134928572Y-116092614D02*
X134928572Y-115806900D01*
X134928572Y-115806900D02*
X134857143Y-115664042D01*
X134857143Y-115664042D02*
X134785715Y-115592614D01*
X134785715Y-115592614D02*
X134642857Y-115521185D01*
X134785715Y-101878328D02*
X134500000Y-101878328D01*
X134500000Y-101878328D02*
X134357143Y-101949757D01*
X134357143Y-101949757D02*
X134285715Y-102021185D01*
X134285715Y-102021185D02*
X134142857Y-102235471D01*
X134142857Y-102235471D02*
X134071429Y-102521185D01*
X134071429Y-102521185D02*
X134071429Y-103092614D01*
X134071429Y-103092614D02*
X134142857Y-103235471D01*
X134142857Y-103235471D02*
X134214286Y-103306900D01*
X134214286Y-103306900D02*
X134357143Y-103378328D01*
X134357143Y-103378328D02*
X134642857Y-103378328D01*
X134642857Y-103378328D02*
X134785715Y-103306900D01*
X134785715Y-103306900D02*
X134857143Y-103235471D01*
X134857143Y-103235471D02*
X134928572Y-103092614D01*
X134928572Y-103092614D02*
X134928572Y-102735471D01*
X134928572Y-102735471D02*
X134857143Y-102592614D01*
X134857143Y-102592614D02*
X134785715Y-102521185D01*
X134785715Y-102521185D02*
X134642857Y-102449757D01*
X134642857Y-102449757D02*
X134357143Y-102449757D01*
X134357143Y-102449757D02*
X134214286Y-102521185D01*
X134214286Y-102521185D02*
X134142857Y-102592614D01*
X134142857Y-102592614D02*
X134071429Y-102735471D01*
D12*
X113819047Y-160902219D02*
X113819047Y-159902219D01*
X113819047Y-159902219D02*
X114152380Y-160616504D01*
X114152380Y-160616504D02*
X114485713Y-159902219D01*
X114485713Y-159902219D02*
X114485713Y-160902219D01*
X115104761Y-160902219D02*
X115009523Y-160854600D01*
X115009523Y-160854600D02*
X114961904Y-160806980D01*
X114961904Y-160806980D02*
X114914285Y-160711742D01*
X114914285Y-160711742D02*
X114914285Y-160426028D01*
X114914285Y-160426028D02*
X114961904Y-160330790D01*
X114961904Y-160330790D02*
X115009523Y-160283171D01*
X115009523Y-160283171D02*
X115104761Y-160235552D01*
X115104761Y-160235552D02*
X115247618Y-160235552D01*
X115247618Y-160235552D02*
X115342856Y-160283171D01*
X115342856Y-160283171D02*
X115390475Y-160330790D01*
X115390475Y-160330790D02*
X115438094Y-160426028D01*
X115438094Y-160426028D02*
X115438094Y-160711742D01*
X115438094Y-160711742D02*
X115390475Y-160806980D01*
X115390475Y-160806980D02*
X115342856Y-160854600D01*
X115342856Y-160854600D02*
X115247618Y-160902219D01*
X115247618Y-160902219D02*
X115104761Y-160902219D01*
X116295237Y-160235552D02*
X116295237Y-160902219D01*
X115866666Y-160235552D02*
X115866666Y-160759361D01*
X115866666Y-160759361D02*
X115914285Y-160854600D01*
X115914285Y-160854600D02*
X116009523Y-160902219D01*
X116009523Y-160902219D02*
X116152380Y-160902219D01*
X116152380Y-160902219D02*
X116247618Y-160854600D01*
X116247618Y-160854600D02*
X116295237Y-160806980D01*
X116771428Y-160235552D02*
X116771428Y-160902219D01*
X116771428Y-160330790D02*
X116819047Y-160283171D01*
X116819047Y-160283171D02*
X116914285Y-160235552D01*
X116914285Y-160235552D02*
X117057142Y-160235552D01*
X117057142Y-160235552D02*
X117152380Y-160283171D01*
X117152380Y-160283171D02*
X117199999Y-160378409D01*
X117199999Y-160378409D02*
X117199999Y-160902219D01*
X117533333Y-160235552D02*
X117914285Y-160235552D01*
X117676190Y-159902219D02*
X117676190Y-160759361D01*
X117676190Y-160759361D02*
X117723809Y-160854600D01*
X117723809Y-160854600D02*
X117819047Y-160902219D01*
X117819047Y-160902219D02*
X117914285Y-160902219D01*
X118247619Y-160235552D02*
X118247619Y-161092695D01*
X118247619Y-161092695D02*
X118200000Y-161187933D01*
X118200000Y-161187933D02*
X118104762Y-161235552D01*
X118104762Y-161235552D02*
X118057143Y-161235552D01*
X118247619Y-159902219D02*
X118200000Y-159949838D01*
X118200000Y-159949838D02*
X118247619Y-159997457D01*
X118247619Y-159997457D02*
X118295238Y-159949838D01*
X118295238Y-159949838D02*
X118247619Y-159902219D01*
X118247619Y-159902219D02*
X118247619Y-159997457D01*
X118866666Y-160902219D02*
X118771428Y-160854600D01*
X118771428Y-160854600D02*
X118723809Y-160806980D01*
X118723809Y-160806980D02*
X118676190Y-160711742D01*
X118676190Y-160711742D02*
X118676190Y-160426028D01*
X118676190Y-160426028D02*
X118723809Y-160330790D01*
X118723809Y-160330790D02*
X118771428Y-160283171D01*
X118771428Y-160283171D02*
X118866666Y-160235552D01*
X118866666Y-160235552D02*
X119009523Y-160235552D01*
X119009523Y-160235552D02*
X119104761Y-160283171D01*
X119104761Y-160283171D02*
X119152380Y-160330790D01*
X119152380Y-160330790D02*
X119199999Y-160426028D01*
X119199999Y-160426028D02*
X119199999Y-160711742D01*
X119199999Y-160711742D02*
X119152380Y-160806980D01*
X119152380Y-160806980D02*
X119104761Y-160854600D01*
X119104761Y-160854600D02*
X119009523Y-160902219D01*
X119009523Y-160902219D02*
X118866666Y-160902219D01*
X119533333Y-160235552D02*
X119771428Y-160902219D01*
X120009523Y-160235552D02*
X119771428Y-160902219D01*
X119771428Y-160902219D02*
X119676190Y-161140314D01*
X119676190Y-161140314D02*
X119628571Y-161187933D01*
X119628571Y-161187933D02*
X119533333Y-161235552D01*
X121152381Y-160902219D02*
X121152381Y-159902219D01*
X121152381Y-159902219D02*
X121485714Y-160616504D01*
X121485714Y-160616504D02*
X121819047Y-159902219D01*
X121819047Y-159902219D02*
X121819047Y-160902219D01*
X122438095Y-160902219D02*
X122342857Y-160854600D01*
X122342857Y-160854600D02*
X122295238Y-160806980D01*
X122295238Y-160806980D02*
X122247619Y-160711742D01*
X122247619Y-160711742D02*
X122247619Y-160426028D01*
X122247619Y-160426028D02*
X122295238Y-160330790D01*
X122295238Y-160330790D02*
X122342857Y-160283171D01*
X122342857Y-160283171D02*
X122438095Y-160235552D01*
X122438095Y-160235552D02*
X122580952Y-160235552D01*
X122580952Y-160235552D02*
X122676190Y-160283171D01*
X122676190Y-160283171D02*
X122723809Y-160330790D01*
X122723809Y-160330790D02*
X122771428Y-160426028D01*
X122771428Y-160426028D02*
X122771428Y-160711742D01*
X122771428Y-160711742D02*
X122723809Y-160806980D01*
X122723809Y-160806980D02*
X122676190Y-160854600D01*
X122676190Y-160854600D02*
X122580952Y-160902219D01*
X122580952Y-160902219D02*
X122438095Y-160902219D01*
X123628571Y-160902219D02*
X123628571Y-159902219D01*
X123628571Y-160854600D02*
X123533333Y-160902219D01*
X123533333Y-160902219D02*
X123342857Y-160902219D01*
X123342857Y-160902219D02*
X123247619Y-160854600D01*
X123247619Y-160854600D02*
X123200000Y-160806980D01*
X123200000Y-160806980D02*
X123152381Y-160711742D01*
X123152381Y-160711742D02*
X123152381Y-160426028D01*
X123152381Y-160426028D02*
X123200000Y-160330790D01*
X123200000Y-160330790D02*
X123247619Y-160283171D01*
X123247619Y-160283171D02*
X123342857Y-160235552D01*
X123342857Y-160235552D02*
X123533333Y-160235552D01*
X123533333Y-160235552D02*
X123628571Y-160283171D01*
X124533333Y-160235552D02*
X124533333Y-160902219D01*
X124104762Y-160235552D02*
X124104762Y-160759361D01*
X124104762Y-160759361D02*
X124152381Y-160854600D01*
X124152381Y-160854600D02*
X124247619Y-160902219D01*
X124247619Y-160902219D02*
X124390476Y-160902219D01*
X124390476Y-160902219D02*
X124485714Y-160854600D01*
X124485714Y-160854600D02*
X124533333Y-160806980D01*
X125152381Y-160902219D02*
X125057143Y-160854600D01*
X125057143Y-160854600D02*
X125009524Y-160759361D01*
X125009524Y-160759361D02*
X125009524Y-159902219D01*
X125961905Y-160902219D02*
X125961905Y-160378409D01*
X125961905Y-160378409D02*
X125914286Y-160283171D01*
X125914286Y-160283171D02*
X125819048Y-160235552D01*
X125819048Y-160235552D02*
X125628572Y-160235552D01*
X125628572Y-160235552D02*
X125533334Y-160283171D01*
X125961905Y-160854600D02*
X125866667Y-160902219D01*
X125866667Y-160902219D02*
X125628572Y-160902219D01*
X125628572Y-160902219D02*
X125533334Y-160854600D01*
X125533334Y-160854600D02*
X125485715Y-160759361D01*
X125485715Y-160759361D02*
X125485715Y-160664123D01*
X125485715Y-160664123D02*
X125533334Y-160568885D01*
X125533334Y-160568885D02*
X125628572Y-160521266D01*
X125628572Y-160521266D02*
X125866667Y-160521266D01*
X125866667Y-160521266D02*
X125961905Y-160473647D01*
X126438096Y-160902219D02*
X126438096Y-160235552D01*
X126438096Y-160426028D02*
X126485715Y-160330790D01*
X126485715Y-160330790D02*
X126533334Y-160283171D01*
X126533334Y-160283171D02*
X126628572Y-160235552D01*
X126628572Y-160235552D02*
X126723810Y-160235552D01*
D10*
X105928572Y-48878328D02*
X105071429Y-48878328D01*
X105500000Y-48878328D02*
X105500000Y-47378328D01*
X105500000Y-47378328D02*
X105357143Y-47592614D01*
X105357143Y-47592614D02*
X105214286Y-47735471D01*
X105214286Y-47735471D02*
X105071429Y-47806900D01*
X106935713Y-154178328D02*
X106935713Y-152678328D01*
X106935713Y-152678328D02*
X107435713Y-153749757D01*
X107435713Y-153749757D02*
X107935713Y-152678328D01*
X107935713Y-152678328D02*
X107935713Y-154178328D01*
X108649999Y-154178328D02*
X108649999Y-152678328D01*
X109364285Y-154178328D02*
X109364285Y-152678328D01*
X109364285Y-152678328D02*
X109721428Y-152678328D01*
X109721428Y-152678328D02*
X109935714Y-152749757D01*
X109935714Y-152749757D02*
X110078571Y-152892614D01*
X110078571Y-152892614D02*
X110150000Y-153035471D01*
X110150000Y-153035471D02*
X110221428Y-153321185D01*
X110221428Y-153321185D02*
X110221428Y-153535471D01*
X110221428Y-153535471D02*
X110150000Y-153821185D01*
X110150000Y-153821185D02*
X110078571Y-153964042D01*
X110078571Y-153964042D02*
X109935714Y-154106900D01*
X109935714Y-154106900D02*
X109721428Y-154178328D01*
X109721428Y-154178328D02*
X109364285Y-154178328D01*
X110864285Y-154178328D02*
X110864285Y-152678328D01*
D14*
X106537423Y-52400000D02*
G75*
G02*
X104462577Y-52400000I-1037423J0D01*
G01*
X104462577Y-52400000D02*
G75*
G02*
X106537423Y-52400000I1037423J0D01*
G01*
X106537423Y-65500000D02*
G75*
G02*
X104462577Y-65500000I-1037423J0D01*
G01*
X104462577Y-65500000D02*
G75*
G02*
X106537423Y-65500000I1037423J0D01*
G01*
X106537423Y-78600000D02*
G75*
G02*
X104462577Y-78600000I-1037423J0D01*
G01*
X104462577Y-78600000D02*
G75*
G02*
X106537423Y-78600000I1037423J0D01*
G01*
X106537423Y-91800000D02*
G75*
G02*
X104462577Y-91800000I-1037423J0D01*
G01*
X104462577Y-91800000D02*
G75*
G02*
X106537423Y-91800000I1037423J0D01*
G01*
X106537423Y-107000000D02*
G75*
G02*
X104462577Y-107000000I-1037423J0D01*
G01*
X104462577Y-107000000D02*
G75*
G02*
X106537423Y-107000000I1037423J0D01*
G01*
X106537423Y-120200000D02*
G75*
G02*
X104462577Y-120200000I-1037423J0D01*
G01*
X104462577Y-120200000D02*
G75*
G02*
X106537423Y-120200000I1037423J0D01*
G01*
X135537423Y-52400000D02*
G75*
G02*
X133462577Y-52400000I-1037423J0D01*
G01*
X133462577Y-52400000D02*
G75*
G02*
X135537423Y-52400000I1037423J0D01*
G01*
X135537423Y-65500000D02*
G75*
G02*
X133462577Y-65500000I-1037423J0D01*
G01*
X133462577Y-65500000D02*
G75*
G02*
X135537423Y-65500000I1037423J0D01*
G01*
X135537423Y-78600000D02*
G75*
G02*
X133462577Y-78600000I-1037423J0D01*
G01*
X133462577Y-78600000D02*
G75*
G02*
X135537423Y-78600000I1037423J0D01*
G01*
X135537423Y-91800000D02*
G75*
G02*
X133462577Y-91800000I-1037423J0D01*
G01*
X133462577Y-91800000D02*
G75*
G02*
X135537423Y-91800000I1037423J0D01*
G01*
X135537423Y-107000000D02*
G75*
G02*
X133462577Y-107000000I-1037423J0D01*
G01*
X133462577Y-107000000D02*
G75*
G02*
X135537423Y-107000000I1037423J0D01*
G01*
X135537423Y-120200000D02*
G75*
G02*
X133462577Y-120200000I-1037423J0D01*
G01*
X133462577Y-120200000D02*
G75*
G02*
X135537423Y-120200000I1037423J0D01*
G01*
D15*
X129205883Y-133520668D02*
X129473310Y-133520700D01*
X129440389Y-134244600D01*
X129425540Y-134550447D01*
X129408794Y-134862221D01*
X129392109Y-135145264D01*
X129377442Y-135364915D01*
X129376162Y-135382048D01*
X129344857Y-135795597D01*
X128847636Y-135420148D01*
X128652594Y-135275729D01*
X128485122Y-135157056D01*
X128362603Y-135076080D01*
X128302417Y-135044751D01*
X128301536Y-135044700D01*
X128278103Y-135091375D01*
X128260824Y-135214996D01*
X128252858Y-135390949D01*
X128252657Y-135425700D01*
X128252657Y-135806700D01*
X127806031Y-135806700D01*
X127776197Y-135413000D01*
X127761858Y-135202031D01*
X127745473Y-134926763D01*
X127729159Y-134624411D01*
X127716241Y-134358900D01*
X127703026Y-134103223D01*
X127688563Y-133879090D01*
X127674496Y-133708876D01*
X127662468Y-133614955D01*
X127661164Y-133609600D01*
X127659122Y-133563364D01*
X127698324Y-133536533D01*
X127798231Y-133524014D01*
X127978302Y-133520718D01*
X128001035Y-133520700D01*
X128365861Y-133520699D01*
X128670426Y-133784549D01*
X128974991Y-134048398D01*
X128938457Y-133520636D01*
X129205883Y-133520668D01*
G36*
X129205883Y-133520668D02*
G01*
X129473310Y-133520700D01*
X129440389Y-134244600D01*
X129425540Y-134550447D01*
X129408794Y-134862221D01*
X129392109Y-135145264D01*
X129377442Y-135364915D01*
X129376162Y-135382048D01*
X129344857Y-135795597D01*
X128847636Y-135420148D01*
X128652594Y-135275729D01*
X128485122Y-135157056D01*
X128362603Y-135076080D01*
X128302417Y-135044751D01*
X128301536Y-135044700D01*
X128278103Y-135091375D01*
X128260824Y-135214996D01*
X128252858Y-135390949D01*
X128252657Y-135425700D01*
X128252657Y-135806700D01*
X127806031Y-135806700D01*
X127776197Y-135413000D01*
X127761858Y-135202031D01*
X127745473Y-134926763D01*
X127729159Y-134624411D01*
X127716241Y-134358900D01*
X127703026Y-134103223D01*
X127688563Y-133879090D01*
X127674496Y-133708876D01*
X127662468Y-133614955D01*
X127661164Y-133609600D01*
X127659122Y-133563364D01*
X127698324Y-133536533D01*
X127798231Y-133524014D01*
X127978302Y-133520718D01*
X128001035Y-133520700D01*
X128365861Y-133520699D01*
X128670426Y-133784549D01*
X128974991Y-134048398D01*
X128938457Y-133520636D01*
X129205883Y-133520668D01*
G37*
X131369620Y-133832951D02*
X131394918Y-134087325D01*
X131404431Y-134257575D01*
X131393306Y-134360591D01*
X131356688Y-134413258D01*
X131289723Y-134432464D01*
X131196534Y-134435100D01*
X130950863Y-134472276D01*
X130751312Y-134573360D01*
X130610155Y-134722687D01*
X130539665Y-134904588D01*
X130552118Y-135103399D01*
X130593545Y-135204740D01*
X130671661Y-135284612D01*
X130802238Y-135368990D01*
X130940643Y-135432457D01*
X131026187Y-135451100D01*
X131038658Y-135405337D01*
X131037357Y-135286300D01*
X131025296Y-135146300D01*
X130990811Y-134841500D01*
X131604349Y-134841500D01*
X131572424Y-135311400D01*
X131556564Y-135518798D01*
X131540564Y-135684481D01*
X131526877Y-135784744D01*
X131521502Y-135803142D01*
X131459325Y-135819309D01*
X131323201Y-135830803D01*
X131140689Y-135837365D01*
X130939346Y-135838738D01*
X130746732Y-135834662D01*
X130590403Y-135824880D01*
X130509411Y-135812626D01*
X130186147Y-135682831D01*
X129929919Y-135481930D01*
X129748575Y-135218791D01*
X129649966Y-134902282D01*
X129640640Y-134831195D01*
X129645918Y-134470369D01*
X129737996Y-134156286D01*
X129913776Y-133895095D01*
X130170165Y-133692940D01*
X130230319Y-133660400D01*
X130393780Y-133586143D01*
X130544633Y-133543543D01*
X130723072Y-133524474D01*
X130921529Y-133520700D01*
X131336983Y-133520700D01*
X131369620Y-133832951D01*
G36*
X131369620Y-133832951D02*
G01*
X131394918Y-134087325D01*
X131404431Y-134257575D01*
X131393306Y-134360591D01*
X131356688Y-134413258D01*
X131289723Y-134432464D01*
X131196534Y-134435100D01*
X130950863Y-134472276D01*
X130751312Y-134573360D01*
X130610155Y-134722687D01*
X130539665Y-134904588D01*
X130552118Y-135103399D01*
X130593545Y-135204740D01*
X130671661Y-135284612D01*
X130802238Y-135368990D01*
X130940643Y-135432457D01*
X131026187Y-135451100D01*
X131038658Y-135405337D01*
X131037357Y-135286300D01*
X131025296Y-135146300D01*
X130990811Y-134841500D01*
X131604349Y-134841500D01*
X131572424Y-135311400D01*
X131556564Y-135518798D01*
X131540564Y-135684481D01*
X131526877Y-135784744D01*
X131521502Y-135803142D01*
X131459325Y-135819309D01*
X131323201Y-135830803D01*
X131140689Y-135837365D01*
X130939346Y-135838738D01*
X130746732Y-135834662D01*
X130590403Y-135824880D01*
X130509411Y-135812626D01*
X130186147Y-135682831D01*
X129929919Y-135481930D01*
X129748575Y-135218791D01*
X129649966Y-134902282D01*
X129640640Y-134831195D01*
X129645918Y-134470369D01*
X129737996Y-134156286D01*
X129913776Y-133895095D01*
X130170165Y-133692940D01*
X130230319Y-133660400D01*
X130393780Y-133586143D01*
X130544633Y-133543543D01*
X130723072Y-133524474D01*
X130921529Y-133520700D01*
X131336983Y-133520700D01*
X131369620Y-133832951D01*
G37*
X125423536Y-133520700D02*
X125390502Y-134168400D01*
X125376983Y-134476620D01*
X125366099Y-134806795D01*
X125359139Y-135114604D01*
X125357263Y-135311400D01*
X125357057Y-135806700D01*
X124802899Y-135806700D01*
X124772857Y-135132472D01*
X124523266Y-135494986D01*
X124410740Y-135657534D01*
X124323152Y-135782377D01*
X124273938Y-135850436D01*
X124267951Y-135857500D01*
X124237048Y-135819899D01*
X124159014Y-135719135D01*
X124047761Y-135573258D01*
X123984141Y-135489200D01*
X123706057Y-135120900D01*
X123691035Y-135463800D01*
X123676014Y-135806700D01*
X123178882Y-135806700D01*
X123152591Y-135590800D01*
X123141886Y-135466805D01*
X123129321Y-135263923D01*
X123116090Y-135004821D01*
X123103388Y-134712167D01*
X123096232Y-134521780D01*
X123084590Y-134233425D01*
X123071484Y-133977661D01*
X123058083Y-133773046D01*
X123045558Y-133638138D01*
X123037775Y-133594680D01*
X123039906Y-133558241D01*
X123091488Y-133535795D01*
X123209144Y-133524306D01*
X123409492Y-133520740D01*
X123442897Y-133520700D01*
X123876409Y-133520700D01*
X124004454Y-133800389D01*
X124087175Y-133971614D01*
X124165933Y-134119245D01*
X124208344Y-134188360D01*
X124247317Y-134235943D01*
X124282624Y-134241903D01*
X124326565Y-134193397D01*
X124391440Y-134077580D01*
X124476162Y-133908671D01*
X124668136Y-133520699D01*
X125045836Y-133520699D01*
X125423536Y-133520700D01*
G36*
X125423536Y-133520700D02*
G01*
X125390502Y-134168400D01*
X125376983Y-134476620D01*
X125366099Y-134806795D01*
X125359139Y-135114604D01*
X125357263Y-135311400D01*
X125357057Y-135806700D01*
X124802899Y-135806700D01*
X124772857Y-135132472D01*
X124523266Y-135494986D01*
X124410740Y-135657534D01*
X124323152Y-135782377D01*
X124273938Y-135850436D01*
X124267951Y-135857500D01*
X124237048Y-135819899D01*
X124159014Y-135719135D01*
X124047761Y-135573258D01*
X123984141Y-135489200D01*
X123706057Y-135120900D01*
X123691035Y-135463800D01*
X123676014Y-135806700D01*
X123178882Y-135806700D01*
X123152591Y-135590800D01*
X123141886Y-135466805D01*
X123129321Y-135263923D01*
X123116090Y-135004821D01*
X123103388Y-134712167D01*
X123096232Y-134521780D01*
X123084590Y-134233425D01*
X123071484Y-133977661D01*
X123058083Y-133773046D01*
X123045558Y-133638138D01*
X123037775Y-133594680D01*
X123039906Y-133558241D01*
X123091488Y-133535795D01*
X123209144Y-133524306D01*
X123409492Y-133520740D01*
X123442897Y-133520700D01*
X123876409Y-133520700D01*
X124004454Y-133800389D01*
X124087175Y-133971614D01*
X124165933Y-134119245D01*
X124208344Y-134188360D01*
X124247317Y-134235943D01*
X124282624Y-134241903D01*
X124326565Y-134193397D01*
X124391440Y-134077580D01*
X124476162Y-133908671D01*
X124668136Y-133520699D01*
X125045836Y-133520699D01*
X125423536Y-133520700D01*
G37*
X126950662Y-133512780D02*
X127198838Y-133667878D01*
X127391907Y-133898304D01*
X127445970Y-134001198D01*
X127512396Y-134229270D01*
X127541626Y-134512411D01*
X127533987Y-134811275D01*
X127489808Y-135086515D01*
X127435588Y-135247900D01*
X127274168Y-135529104D01*
X127080981Y-135718920D01*
X126844308Y-135825560D01*
X126566079Y-135857310D01*
X126297658Y-135825433D01*
X126119955Y-135749279D01*
X125981785Y-135655530D01*
X125877733Y-135553821D01*
X125780040Y-135412657D01*
X125700464Y-135273300D01*
X125642998Y-135148220D01*
X125608497Y-135010125D01*
X125591673Y-134828153D01*
X125591304Y-134809942D01*
X126304579Y-134809942D01*
X126313943Y-134988525D01*
X126361447Y-135155890D01*
X126441907Y-135284619D01*
X126550135Y-135347295D01*
X126576257Y-135349500D01*
X126673220Y-135309843D01*
X126761352Y-135218495D01*
X126830771Y-135048634D01*
X126849867Y-134854106D01*
X126820245Y-134671993D01*
X126743509Y-134539380D01*
X126731495Y-134528783D01*
X126635733Y-134461157D01*
X126576257Y-134435100D01*
X126511880Y-134464114D01*
X126421018Y-134528783D01*
X126338542Y-134647555D01*
X126304579Y-134809942D01*
X125591304Y-134809942D01*
X125587308Y-134612900D01*
X125589860Y-134382424D01*
X125603718Y-134221327D01*
X125635196Y-134097509D01*
X125690606Y-133978871D01*
X125723275Y-133921606D01*
X125873066Y-133712149D01*
X126046889Y-133574288D01*
X126278051Y-133484052D01*
X126359705Y-133463568D01*
X126665057Y-133441760D01*
X126950662Y-133512780D01*
G36*
X126950662Y-133512780D02*
G01*
X127198838Y-133667878D01*
X127391907Y-133898304D01*
X127445970Y-134001198D01*
X127512396Y-134229270D01*
X127541626Y-134512411D01*
X127533987Y-134811275D01*
X127489808Y-135086515D01*
X127435588Y-135247900D01*
X127274168Y-135529104D01*
X127080981Y-135718920D01*
X126844308Y-135825560D01*
X126566079Y-135857310D01*
X126297658Y-135825433D01*
X126119955Y-135749279D01*
X125981785Y-135655530D01*
X125877733Y-135553821D01*
X125780040Y-135412657D01*
X125700464Y-135273300D01*
X125642998Y-135148220D01*
X125608497Y-135010125D01*
X125591673Y-134828153D01*
X125591304Y-134809942D01*
X126304579Y-134809942D01*
X126313943Y-134988525D01*
X126361447Y-135155890D01*
X126441907Y-135284619D01*
X126550135Y-135347295D01*
X126576257Y-135349500D01*
X126673220Y-135309843D01*
X126761352Y-135218495D01*
X126830771Y-135048634D01*
X126849867Y-134854106D01*
X126820245Y-134671993D01*
X126743509Y-134539380D01*
X126731495Y-134528783D01*
X126635733Y-134461157D01*
X126576257Y-134435100D01*
X126511880Y-134464114D01*
X126421018Y-134528783D01*
X126338542Y-134647555D01*
X126304579Y-134809942D01*
X125591304Y-134809942D01*
X125587308Y-134612900D01*
X125589860Y-134382424D01*
X125603718Y-134221327D01*
X125635196Y-134097509D01*
X125690606Y-133978871D01*
X125723275Y-133921606D01*
X125873066Y-133712149D01*
X126046889Y-133574288D01*
X126278051Y-133484052D01*
X126359705Y-133463568D01*
X126665057Y-133441760D01*
X126950662Y-133512780D01*
G37*
X133192425Y-133888999D02*
X133180432Y-134136755D01*
X133164661Y-134299890D01*
X133135557Y-134395222D01*
X133083564Y-134439566D01*
X132999129Y-134449738D01*
X132877699Y-134442897D01*
X132726608Y-134435809D01*
X132650812Y-134449363D01*
X132624415Y-134495111D01*
X132621457Y-134557197D01*
X132628792Y-134634703D01*
X132667971Y-134673808D01*
X132764752Y-134687565D01*
X132881807Y-134689100D01*
X133142157Y-134689100D01*
X133110407Y-134847849D01*
X133088080Y-134972404D01*
X133078658Y-135050632D01*
X133078657Y-135051049D01*
X133033240Y-135077562D01*
X132918334Y-135093462D01*
X132850057Y-135095500D01*
X132709524Y-135099790D01*
X132642968Y-135125306D01*
X132622787Y-135191014D01*
X132621457Y-135252601D01*
X132621457Y-135409703D01*
X132900848Y-135392301D01*
X133180239Y-135374900D01*
X133148176Y-135552700D01*
X133121005Y-135681932D01*
X133096794Y-135763733D01*
X133094386Y-135768600D01*
X133038247Y-135782922D01*
X132900375Y-135794787D01*
X132700632Y-135803068D01*
X132458876Y-135806639D01*
X132422204Y-135806700D01*
X131771747Y-135806700D01*
X131734552Y-134731417D01*
X131722292Y-134408114D01*
X131709221Y-134117253D01*
X131696226Y-133874871D01*
X131684193Y-133697007D01*
X131674009Y-133599701D01*
X131671372Y-133588417D01*
X131679221Y-133561952D01*
X131734565Y-133543080D01*
X131849837Y-133530685D01*
X132037470Y-133523655D01*
X132309895Y-133520875D01*
X132427182Y-133520699D01*
X133208978Y-133520699D01*
X133192425Y-133888999D01*
G36*
X133192425Y-133888999D02*
G01*
X133180432Y-134136755D01*
X133164661Y-134299890D01*
X133135557Y-134395222D01*
X133083564Y-134439566D01*
X132999129Y-134449738D01*
X132877699Y-134442897D01*
X132726608Y-134435809D01*
X132650812Y-134449363D01*
X132624415Y-134495111D01*
X132621457Y-134557197D01*
X132628792Y-134634703D01*
X132667971Y-134673808D01*
X132764752Y-134687565D01*
X132881807Y-134689100D01*
X133142157Y-134689100D01*
X133110407Y-134847849D01*
X133088080Y-134972404D01*
X133078658Y-135050632D01*
X133078657Y-135051049D01*
X133033240Y-135077562D01*
X132918334Y-135093462D01*
X132850057Y-135095500D01*
X132709524Y-135099790D01*
X132642968Y-135125306D01*
X132622787Y-135191014D01*
X132621457Y-135252601D01*
X132621457Y-135409703D01*
X132900848Y-135392301D01*
X133180239Y-135374900D01*
X133148176Y-135552700D01*
X133121005Y-135681932D01*
X133096794Y-135763733D01*
X133094386Y-135768600D01*
X133038247Y-135782922D01*
X132900375Y-135794787D01*
X132700632Y-135803068D01*
X132458876Y-135806639D01*
X132422204Y-135806700D01*
X131771747Y-135806700D01*
X131734552Y-134731417D01*
X131722292Y-134408114D01*
X131709221Y-134117253D01*
X131696226Y-133874871D01*
X131684193Y-133697007D01*
X131674009Y-133599701D01*
X131671372Y-133588417D01*
X131679221Y-133561952D01*
X131734565Y-133543080D01*
X131849837Y-133530685D01*
X132037470Y-133523655D01*
X132309895Y-133520875D01*
X132427182Y-133520699D01*
X133208978Y-133520699D01*
X133192425Y-133888999D01*
G37*
X134306852Y-133504010D02*
X134506744Y-133514165D01*
X134655606Y-133535806D01*
X134778658Y-133572069D01*
X134856657Y-133604926D01*
X135089821Y-133735029D01*
X135239205Y-133883452D01*
X135322413Y-134075104D01*
X135355644Y-134310888D01*
X135362226Y-134504058D01*
X135346027Y-134637720D01*
X135298331Y-134752987D01*
X135242927Y-134842647D01*
X135157272Y-134961402D01*
X135090976Y-135034458D01*
X135071836Y-135045477D01*
X135000461Y-135070440D01*
X134962486Y-135091810D01*
X134935789Y-135132110D01*
X134960040Y-135201881D01*
X135043445Y-135318308D01*
X135108619Y-135397866D01*
X135215732Y-135531283D01*
X135287207Y-135631027D01*
X135307632Y-135675583D01*
X135307590Y-135675622D01*
X135255309Y-135706016D01*
X135139938Y-135766736D01*
X135026635Y-135824372D01*
X134871058Y-135896598D01*
X134777674Y-135920797D01*
X134721934Y-135901841D01*
X134708139Y-135887578D01*
X134653980Y-135807874D01*
X134571992Y-135671671D01*
X134500981Y-135546294D01*
X134350497Y-135273300D01*
X134348657Y-135806700D01*
X133500962Y-135806700D01*
X133457196Y-134791813D01*
X134348739Y-134791813D01*
X134359960Y-134909858D01*
X134379023Y-134956533D01*
X134450966Y-134966369D01*
X134562203Y-134927473D01*
X134640757Y-134878193D01*
X134700351Y-134776619D01*
X134688508Y-134648585D01*
X134611652Y-134532898D01*
X134579490Y-134508092D01*
X134473587Y-134459386D01*
X134401690Y-134459119D01*
X134371509Y-134524643D01*
X134353224Y-134649474D01*
X134348739Y-134791813D01*
X133457196Y-134791813D01*
X133452218Y-134676400D01*
X133438755Y-134348446D01*
X133428050Y-134056019D01*
X133420535Y-133813869D01*
X133416644Y-133636744D01*
X133416809Y-133539393D01*
X133418422Y-133525376D01*
X133472012Y-133517084D01*
X133606701Y-133509936D01*
X133801989Y-133504709D01*
X134030713Y-133502204D01*
X134306852Y-133504010D01*
G36*
X134306852Y-133504010D02*
G01*
X134506744Y-133514165D01*
X134655606Y-133535806D01*
X134778658Y-133572069D01*
X134856657Y-133604926D01*
X135089821Y-133735029D01*
X135239205Y-133883452D01*
X135322413Y-134075104D01*
X135355644Y-134310888D01*
X135362226Y-134504058D01*
X135346027Y-134637720D01*
X135298331Y-134752987D01*
X135242927Y-134842647D01*
X135157272Y-134961402D01*
X135090976Y-135034458D01*
X135071836Y-135045477D01*
X135000461Y-135070440D01*
X134962486Y-135091810D01*
X134935789Y-135132110D01*
X134960040Y-135201881D01*
X135043445Y-135318308D01*
X135108619Y-135397866D01*
X135215732Y-135531283D01*
X135287207Y-135631027D01*
X135307632Y-135675583D01*
X135307590Y-135675622D01*
X135255309Y-135706016D01*
X135139938Y-135766736D01*
X135026635Y-135824372D01*
X134871058Y-135896598D01*
X134777674Y-135920797D01*
X134721934Y-135901841D01*
X134708139Y-135887578D01*
X134653980Y-135807874D01*
X134571992Y-135671671D01*
X134500981Y-135546294D01*
X134350497Y-135273300D01*
X134348657Y-135806700D01*
X133500962Y-135806700D01*
X133457196Y-134791813D01*
X134348739Y-134791813D01*
X134359960Y-134909858D01*
X134379023Y-134956533D01*
X134450966Y-134966369D01*
X134562203Y-134927473D01*
X134640757Y-134878193D01*
X134700351Y-134776619D01*
X134688508Y-134648585D01*
X134611652Y-134532898D01*
X134579490Y-134508092D01*
X134473587Y-134459386D01*
X134401690Y-134459119D01*
X134371509Y-134524643D01*
X134353224Y-134649474D01*
X134348739Y-134791813D01*
X133457196Y-134791813D01*
X133452218Y-134676400D01*
X133438755Y-134348446D01*
X133428050Y-134056019D01*
X133420535Y-133813869D01*
X133416644Y-133636744D01*
X133416809Y-133539393D01*
X133418422Y-133525376D01*
X133472012Y-133517084D01*
X133606701Y-133509936D01*
X133801989Y-133504709D01*
X134030713Y-133502204D01*
X134306852Y-133504010D01*
G37*
X113523957Y-133473042D02*
X113679011Y-133477787D01*
X113766513Y-133490307D01*
X113803487Y-133514375D01*
X113806957Y-133553766D01*
X113799974Y-133586599D01*
X113789900Y-133670989D01*
X113777763Y-133839511D01*
X113764528Y-134074741D01*
X113751158Y-134359256D01*
X113738619Y-134675635D01*
X113736700Y-134729600D01*
X113700723Y-135758300D01*
X112862157Y-135758300D01*
X112828405Y-134755000D01*
X112816613Y-134436780D01*
X112803787Y-134145522D01*
X112790892Y-133899491D01*
X112778893Y-133716952D01*
X112768756Y-133616170D01*
X112768019Y-133612000D01*
X112741384Y-133472300D01*
X113284327Y-133472299D01*
X113523957Y-133473042D01*
G36*
X113523957Y-133473042D02*
G01*
X113679011Y-133477787D01*
X113766513Y-133490307D01*
X113803487Y-133514375D01*
X113806957Y-133553766D01*
X113799974Y-133586599D01*
X113789900Y-133670989D01*
X113777763Y-133839511D01*
X113764528Y-134074741D01*
X113751158Y-134359256D01*
X113738619Y-134675635D01*
X113736700Y-134729600D01*
X113700723Y-135758300D01*
X112862157Y-135758300D01*
X112828405Y-134755000D01*
X112816613Y-134436780D01*
X112803787Y-134145522D01*
X112790892Y-133899491D01*
X112778893Y-133716952D01*
X112768756Y-133616170D01*
X112768019Y-133612000D01*
X112741384Y-133472300D01*
X113284327Y-133472299D01*
X113523957Y-133473042D01*
G37*
X116825957Y-133473042D02*
X116981011Y-133477787D01*
X117068513Y-133490307D01*
X117105487Y-133514375D01*
X117108957Y-133553766D01*
X117101974Y-133586599D01*
X117091900Y-133670989D01*
X117079763Y-133839511D01*
X117066528Y-134074741D01*
X117053158Y-134359256D01*
X117040619Y-134675635D01*
X117038700Y-134729600D01*
X117002723Y-135758300D01*
X116164157Y-135758300D01*
X116130405Y-134755000D01*
X116118613Y-134436780D01*
X116105787Y-134145522D01*
X116092892Y-133899491D01*
X116080893Y-133716952D01*
X116070756Y-133616170D01*
X116070019Y-133612000D01*
X116043384Y-133472300D01*
X116586327Y-133472299D01*
X116825957Y-133473042D01*
G36*
X116825957Y-133473042D02*
G01*
X116981011Y-133477787D01*
X117068513Y-133490307D01*
X117105487Y-133514375D01*
X117108957Y-133553766D01*
X117101974Y-133586599D01*
X117091900Y-133670989D01*
X117079763Y-133839511D01*
X117066528Y-134074741D01*
X117053158Y-134359256D01*
X117040619Y-134675635D01*
X117038700Y-134729600D01*
X117002723Y-135758300D01*
X116164157Y-135758300D01*
X116130405Y-134755000D01*
X116118613Y-134436780D01*
X116105787Y-134145522D01*
X116092892Y-133899491D01*
X116080893Y-133716952D01*
X116070756Y-133616170D01*
X116070019Y-133612000D01*
X116043384Y-133472300D01*
X116586327Y-133472299D01*
X116825957Y-133473042D01*
G37*
X112612736Y-133472300D02*
X112579702Y-134120000D01*
X112566183Y-134428220D01*
X112555299Y-134758395D01*
X112548339Y-135066204D01*
X112546463Y-135263000D01*
X112546257Y-135758300D01*
X111992099Y-135758300D01*
X111962057Y-135084072D01*
X111712466Y-135446586D01*
X111599940Y-135609134D01*
X111512352Y-135733977D01*
X111463138Y-135802036D01*
X111457151Y-135809100D01*
X111426248Y-135771499D01*
X111348214Y-135670735D01*
X111236961Y-135524858D01*
X111173341Y-135440800D01*
X110895257Y-135072500D01*
X110880235Y-135415400D01*
X110865214Y-135758300D01*
X110368082Y-135758300D01*
X110341791Y-135542400D01*
X110331086Y-135418405D01*
X110318521Y-135215523D01*
X110305290Y-134956421D01*
X110292588Y-134663767D01*
X110285432Y-134473380D01*
X110273790Y-134185025D01*
X110260684Y-133929261D01*
X110247283Y-133724646D01*
X110234758Y-133589738D01*
X110226975Y-133546280D01*
X110229106Y-133509841D01*
X110280688Y-133487395D01*
X110398344Y-133475906D01*
X110598692Y-133472340D01*
X110632097Y-133472300D01*
X111065609Y-133472300D01*
X111193654Y-133751989D01*
X111276375Y-133923214D01*
X111355133Y-134070845D01*
X111397544Y-134139960D01*
X111436517Y-134187543D01*
X111471824Y-134193503D01*
X111515765Y-134144997D01*
X111580640Y-134029180D01*
X111665362Y-133860271D01*
X111857336Y-133472299D01*
X112235036Y-133472299D01*
X112612736Y-133472300D01*
G36*
X112612736Y-133472300D02*
G01*
X112579702Y-134120000D01*
X112566183Y-134428220D01*
X112555299Y-134758395D01*
X112548339Y-135066204D01*
X112546463Y-135263000D01*
X112546257Y-135758300D01*
X111992099Y-135758300D01*
X111962057Y-135084072D01*
X111712466Y-135446586D01*
X111599940Y-135609134D01*
X111512352Y-135733977D01*
X111463138Y-135802036D01*
X111457151Y-135809100D01*
X111426248Y-135771499D01*
X111348214Y-135670735D01*
X111236961Y-135524858D01*
X111173341Y-135440800D01*
X110895257Y-135072500D01*
X110880235Y-135415400D01*
X110865214Y-135758300D01*
X110368082Y-135758300D01*
X110341791Y-135542400D01*
X110331086Y-135418405D01*
X110318521Y-135215523D01*
X110305290Y-134956421D01*
X110292588Y-134663767D01*
X110285432Y-134473380D01*
X110273790Y-134185025D01*
X110260684Y-133929261D01*
X110247283Y-133724646D01*
X110234758Y-133589738D01*
X110226975Y-133546280D01*
X110229106Y-133509841D01*
X110280688Y-133487395D01*
X110398344Y-133475906D01*
X110598692Y-133472340D01*
X110632097Y-133472300D01*
X111065609Y-133472300D01*
X111193654Y-133751989D01*
X111276375Y-133923214D01*
X111355133Y-134070845D01*
X111397544Y-134139960D01*
X111436517Y-134187543D01*
X111471824Y-134193503D01*
X111515765Y-134144997D01*
X111580640Y-134029180D01*
X111665362Y-133860271D01*
X111857336Y-133472299D01*
X112235036Y-133472299D01*
X112612736Y-133472300D01*
G37*
X114997941Y-133496386D02*
X115326078Y-133619832D01*
X115589418Y-133804279D01*
X115761787Y-134019430D01*
X115837232Y-134215865D01*
X115880401Y-134468236D01*
X115887414Y-134734925D01*
X115854389Y-134974315D01*
X115851768Y-134984266D01*
X115736368Y-135238289D01*
X115547255Y-135466820D01*
X115312129Y-135638182D01*
X115256189Y-135665412D01*
X115080013Y-135718764D01*
X114840049Y-135759736D01*
X114573740Y-135784609D01*
X114318529Y-135789665D01*
X114141589Y-135776094D01*
X113984322Y-135753031D01*
X113960065Y-135106901D01*
X114836969Y-135106901D01*
X114838249Y-135243986D01*
X114850949Y-135315078D01*
X114879181Y-135337957D01*
X114927060Y-135330400D01*
X114944597Y-135325236D01*
X115075184Y-135261280D01*
X115155355Y-135199881D01*
X115220540Y-135092956D01*
X115267297Y-134937070D01*
X115274898Y-134887092D01*
X115263179Y-134674244D01*
X115179266Y-134520076D01*
X115030591Y-134436345D01*
X114984657Y-134427856D01*
X114925304Y-134423851D01*
X114887417Y-134442066D01*
X114865261Y-134501052D01*
X114853100Y-134619359D01*
X114845199Y-134815539D01*
X114842997Y-134886045D01*
X114836969Y-135106901D01*
X113960065Y-135106901D01*
X113950083Y-134841016D01*
X113937152Y-134529305D01*
X113922774Y-134237016D01*
X113908185Y-133985821D01*
X113894619Y-133797394D01*
X113885445Y-133707212D01*
X113855045Y-133485422D01*
X114193233Y-133449205D01*
X114616496Y-133438118D01*
X114997941Y-133496386D01*
G36*
X114997941Y-133496386D02*
G01*
X115326078Y-133619832D01*
X115589418Y-133804279D01*
X115761787Y-134019430D01*
X115837232Y-134215865D01*
X115880401Y-134468236D01*
X115887414Y-134734925D01*
X115854389Y-134974315D01*
X115851768Y-134984266D01*
X115736368Y-135238289D01*
X115547255Y-135466820D01*
X115312129Y-135638182D01*
X115256189Y-135665412D01*
X115080013Y-135718764D01*
X114840049Y-135759736D01*
X114573740Y-135784609D01*
X114318529Y-135789665D01*
X114141589Y-135776094D01*
X113984322Y-135753031D01*
X113960065Y-135106901D01*
X114836969Y-135106901D01*
X114838249Y-135243986D01*
X114850949Y-135315078D01*
X114879181Y-135337957D01*
X114927060Y-135330400D01*
X114944597Y-135325236D01*
X115075184Y-135261280D01*
X115155355Y-135199881D01*
X115220540Y-135092956D01*
X115267297Y-134937070D01*
X115274898Y-134887092D01*
X115263179Y-134674244D01*
X115179266Y-134520076D01*
X115030591Y-134436345D01*
X114984657Y-134427856D01*
X114925304Y-134423851D01*
X114887417Y-134442066D01*
X114865261Y-134501052D01*
X114853100Y-134619359D01*
X114845199Y-134815539D01*
X114842997Y-134886045D01*
X114836969Y-135106901D01*
X113960065Y-135106901D01*
X113950083Y-134841016D01*
X113937152Y-134529305D01*
X113922774Y-134237016D01*
X113908185Y-133985821D01*
X113894619Y-133797394D01*
X113885445Y-133707212D01*
X113855045Y-133485422D01*
X114193233Y-133449205D01*
X114616496Y-133438118D01*
X114997941Y-133496386D01*
G37*
D16*
G36*
X126836349Y-42904200D02*
G01*
X126888045Y-43104523D01*
X126931664Y-43303231D01*
X126970436Y-43510016D01*
X126579483Y-43510016D01*
X126619871Y-43303231D01*
X126665105Y-43104523D01*
X126716801Y-42904200D01*
X126776575Y-42689338D01*
X126836349Y-42904200D01*
G37*
G36*
X136229442Y-41725497D02*
G01*
X136383024Y-41748278D01*
X136533633Y-41786004D01*
X136679819Y-41838310D01*
X136820174Y-41904693D01*
X136953347Y-41984514D01*
X137078055Y-42077003D01*
X137193096Y-42181271D01*
X137297364Y-42296313D01*
X137389853Y-42421020D01*
X137469674Y-42554193D01*
X137536057Y-42694548D01*
X137588363Y-42840734D01*
X137626089Y-42991343D01*
X137648871Y-43144925D01*
X137656489Y-43300000D01*
X137648871Y-43455075D01*
X137626089Y-43608657D01*
X137588363Y-43759266D01*
X137536057Y-43905452D01*
X137469674Y-44045807D01*
X137389853Y-44178980D01*
X137297364Y-44303687D01*
X137193096Y-44418729D01*
X137078055Y-44522997D01*
X136953347Y-44615486D01*
X136820174Y-44695307D01*
X136679819Y-44761690D01*
X136533633Y-44813996D01*
X136383024Y-44851722D01*
X136229442Y-44874503D01*
X136074367Y-44882122D01*
X132304847Y-44882122D01*
X131568174Y-44882122D01*
X129406624Y-44882122D01*
X128595638Y-44882122D01*
X127131987Y-44882122D01*
X125261228Y-44882122D01*
X124443780Y-44882122D01*
X120943511Y-44882122D01*
X120943511Y-43300000D01*
X124443780Y-43300000D01*
X124458320Y-43542730D01*
X124501939Y-43753958D01*
X124572213Y-43933279D01*
X124666721Y-44080291D01*
X124784249Y-44194992D01*
X124923586Y-44277383D01*
X125083118Y-44327060D01*
X125261228Y-44343619D01*
X125458724Y-44335541D01*
X125624717Y-44311309D01*
X125661604Y-44301616D01*
X126001131Y-44301616D01*
X126414701Y-44301616D01*
X126505170Y-43839580D01*
X127038288Y-43839580D01*
X127131987Y-44301616D01*
X127558481Y-44301616D01*
X127505170Y-44074863D01*
X127451212Y-43854701D01*
X127396607Y-43641131D01*
X127341357Y-43434152D01*
X127285460Y-43233764D01*
X127215085Y-42990731D01*
X127144507Y-42754362D01*
X127106551Y-42631179D01*
X127668336Y-42631179D01*
X128194992Y-42631179D01*
X128194992Y-44301616D01*
X128595638Y-44301616D01*
X129406624Y-44301616D01*
X130689338Y-44301616D01*
X130689338Y-44191761D01*
X130947819Y-44191761D01*
X131170759Y-44290307D01*
X131344426Y-44330291D01*
X131568174Y-44343619D01*
X131794884Y-44326566D01*
X131979591Y-44275408D01*
X132122294Y-44190145D01*
X132259208Y-44004766D01*
X132304847Y-43755574D01*
X132291115Y-43604927D01*
X132249919Y-43482553D01*
X132109370Y-43301616D01*
X131921971Y-43185299D01*
X131726494Y-43106139D01*
X131602100Y-43057674D01*
X131489015Y-42997900D01*
X131406624Y-42920355D01*
X131374313Y-42818578D01*
X131409496Y-42691133D01*
X131515042Y-42614665D01*
X131690953Y-42589176D01*
X131918740Y-42621486D01*
X132098061Y-42699031D01*
X132214378Y-42392084D01*
X131983360Y-42298384D01*
X131834330Y-42266882D01*
X131661874Y-42256381D01*
X131463884Y-42273972D01*
X131296410Y-42326746D01*
X131159451Y-42414701D01*
X131022536Y-42603716D01*
X130976898Y-42854120D01*
X131028595Y-43091599D01*
X131159451Y-43251535D01*
X131335541Y-43358158D01*
X131522940Y-43432472D01*
X131658643Y-43489015D01*
X131781422Y-43556866D01*
X131871890Y-43642488D01*
X131907431Y-43752342D01*
X131892892Y-43847658D01*
X131839580Y-43931664D01*
X131734572Y-43989822D01*
X131568174Y-44010824D01*
X131407027Y-43999515D01*
X131272536Y-43965590D01*
X131064136Y-43868659D01*
X130947819Y-44191761D01*
X130689338Y-44191761D01*
X130689338Y-43972052D01*
X129804039Y-43972052D01*
X129804039Y-43409855D01*
X130511632Y-43409855D01*
X130511632Y-43080291D01*
X129804039Y-43080291D01*
X129804039Y-42631179D01*
X130618255Y-42631179D01*
X130618255Y-42301616D01*
X129406624Y-42301616D01*
X129406624Y-44301616D01*
X128595638Y-44301616D01*
X128595638Y-42631179D01*
X129122294Y-42631179D01*
X129122294Y-42301616D01*
X127668336Y-42301616D01*
X127668336Y-42631179D01*
X127106551Y-42631179D01*
X127073728Y-42524657D01*
X127002746Y-42301616D01*
X126569790Y-42301616D01*
X126501333Y-42522839D01*
X126431664Y-42750323D01*
X126360784Y-42984067D01*
X126288691Y-43224071D01*
X126230662Y-43422779D01*
X126172892Y-43629887D01*
X126115380Y-43845396D01*
X126058126Y-44069305D01*
X126001131Y-44301616D01*
X125661604Y-44301616D01*
X125846042Y-44253150D01*
X125846042Y-43254766D01*
X125448627Y-43254766D01*
X125448627Y-43984976D01*
X125371082Y-43994669D01*
X125293538Y-43997900D01*
X125100485Y-43955493D01*
X124960743Y-43828271D01*
X124897918Y-43694184D01*
X124860223Y-43518094D01*
X124847658Y-43300000D01*
X124854523Y-43151777D01*
X124875121Y-43017286D01*
X124965590Y-42797577D01*
X125125525Y-42653796D01*
X125364620Y-42602100D01*
X125577868Y-42637641D01*
X125752342Y-42718417D01*
X125855735Y-42401777D01*
X125789499Y-42363005D01*
X125678029Y-42314540D01*
X125518094Y-42274152D01*
X125309693Y-42256381D01*
X125134410Y-42272940D01*
X124970436Y-42322617D01*
X124822617Y-42405412D01*
X124695800Y-42521325D01*
X124591599Y-42669548D01*
X124511632Y-42849273D01*
X124460743Y-43059693D01*
X124443780Y-43300000D01*
X120943511Y-43300000D01*
X120943511Y-41717878D01*
X124443780Y-41717878D01*
X132304847Y-41717878D01*
X136074367Y-41717878D01*
X136229442Y-41725497D01*
G37*
G36*
X129687908Y-152883631D02*
G01*
X129685989Y-152885550D01*
X129684069Y-152883631D01*
X129685989Y-152881711D01*
X129687908Y-152883631D01*
G37*
G36*
X133388876Y-153382724D02*
G01*
X133388876Y-154509523D01*
X131490402Y-154509523D01*
X129591929Y-154509523D01*
X129591929Y-154448096D01*
X129653356Y-154448096D01*
X131490402Y-154448096D01*
X133327449Y-154448096D01*
X133327449Y-153382724D01*
X133327449Y-152317352D01*
X131490402Y-152317352D01*
X129653356Y-152317352D01*
X129653356Y-153382724D01*
X129653356Y-154448096D01*
X129591929Y-154448096D01*
X129591929Y-153382724D01*
X129591929Y-152255925D01*
X131490402Y-152255925D01*
X133388876Y-152255925D01*
X133388876Y-153382724D01*
G37*
G36*
X130033434Y-153008323D02*
G01*
X130033434Y-153626349D01*
X130108340Y-153627390D01*
X130183245Y-153628431D01*
X130183223Y-153997952D01*
X130183220Y-154050648D01*
X130183216Y-154101216D01*
X130183213Y-154149123D01*
X130183209Y-154193833D01*
X130183205Y-154234811D01*
X130183201Y-154271523D01*
X130183197Y-154303434D01*
X130183193Y-154330009D01*
X130183189Y-154350713D01*
X130183186Y-154365010D01*
X130183183Y-154372368D01*
X130183182Y-154373232D01*
X130182465Y-154374434D01*
X130179959Y-154375459D01*
X130175112Y-154376321D01*
X130167375Y-154377034D01*
X130156199Y-154377611D01*
X130141033Y-154378065D01*
X130121329Y-154378411D01*
X130096536Y-154378662D01*
X130066105Y-154378832D01*
X130029486Y-154378934D01*
X129986130Y-154378982D01*
X129950892Y-154378991D01*
X129718622Y-154378991D01*
X129718622Y-153384643D01*
X129718622Y-152390296D01*
X129876028Y-152390296D01*
X130033434Y-152390296D01*
X130033434Y-153008323D01*
G37*
G36*
X131208702Y-153373126D02*
G01*
X131208745Y-153459529D01*
X131208786Y-153543945D01*
X131208826Y-153626050D01*
X131208865Y-153705520D01*
X131208902Y-153782031D01*
X131208938Y-153855260D01*
X131208971Y-153924884D01*
X131209003Y-153990577D01*
X131209033Y-154052017D01*
X131209061Y-154108879D01*
X131209086Y-154160841D01*
X131209109Y-154207578D01*
X131209129Y-154248766D01*
X131209146Y-154284081D01*
X131209160Y-154313201D01*
X131209170Y-154335801D01*
X131209178Y-154351557D01*
X131209182Y-154360145D01*
X131209182Y-154361714D01*
X131209306Y-154365353D01*
X131209291Y-154368443D01*
X131208559Y-154371030D01*
X131206533Y-154373157D01*
X131202635Y-154374869D01*
X131196287Y-154376212D01*
X131186911Y-154377229D01*
X131173929Y-154377966D01*
X131156764Y-154378466D01*
X131134837Y-154378775D01*
X131107571Y-154378938D01*
X131074388Y-154378998D01*
X131034710Y-154379001D01*
X130987958Y-154378991D01*
X130985550Y-154378991D01*
X130944994Y-154378942D01*
X130906818Y-154378804D01*
X130871698Y-154378583D01*
X130840309Y-154378289D01*
X130813324Y-154377931D01*
X130791421Y-154377517D01*
X130775273Y-154377057D01*
X130765555Y-154376558D01*
X130762856Y-154376111D01*
X130762843Y-154371945D01*
X130762812Y-154360627D01*
X130762765Y-154342683D01*
X130762703Y-154318641D01*
X130762627Y-154289027D01*
X130762539Y-154254368D01*
X130762439Y-154215190D01*
X130762330Y-154172019D01*
X130762212Y-154125383D01*
X130762087Y-154075808D01*
X130761956Y-154023820D01*
X130761896Y-153999872D01*
X130760958Y-153626511D01*
X130836782Y-153626511D01*
X130912606Y-153626512D01*
X130912606Y-153008404D01*
X130912606Y-152390296D01*
X131060414Y-152390296D01*
X131208223Y-152390296D01*
X131208702Y-153373126D01*
G37*
G36*
X131569105Y-153008323D02*
G01*
X131569105Y-153626349D01*
X131644011Y-153627390D01*
X131718916Y-153628431D01*
X131718894Y-153997952D01*
X131718891Y-154050648D01*
X131718887Y-154101216D01*
X131718884Y-154149123D01*
X131718880Y-154193833D01*
X131718876Y-154234811D01*
X131718872Y-154271523D01*
X131718868Y-154303434D01*
X131718864Y-154330009D01*
X131718860Y-154350713D01*
X131718857Y-154365010D01*
X131718854Y-154372368D01*
X131718853Y-154373232D01*
X131718131Y-154374458D01*
X131715600Y-154375501D01*
X131710699Y-154376373D01*
X131702866Y-154377090D01*
X131691540Y-154377667D01*
X131676158Y-154378118D01*
X131656160Y-154378456D01*
X131630983Y-154378698D01*
X131600067Y-154378858D01*
X131562849Y-154378949D01*
X131518769Y-154378987D01*
X131496442Y-154378991D01*
X131449382Y-154378978D01*
X131409421Y-154378927D01*
X131375980Y-154378823D01*
X131348480Y-154378649D01*
X131326341Y-154378387D01*
X131308985Y-154378022D01*
X131295832Y-154377536D01*
X131286303Y-154376912D01*
X131279820Y-154376135D01*
X131275802Y-154375187D01*
X131273671Y-154374052D01*
X131272847Y-154372713D01*
X131272810Y-154372546D01*
X131272705Y-154368190D01*
X131272610Y-154356479D01*
X131272525Y-154337735D01*
X131272449Y-154312283D01*
X131272384Y-154280446D01*
X131272329Y-154242546D01*
X131272284Y-154198907D01*
X131272249Y-154149852D01*
X131272225Y-154095705D01*
X131272212Y-154036788D01*
X131272209Y-153973425D01*
X131272216Y-153905939D01*
X131272235Y-153834653D01*
X131272264Y-153759891D01*
X131272304Y-153681975D01*
X131272356Y-153601229D01*
X131272418Y-153517976D01*
X131272492Y-153432539D01*
X131272543Y-153378199D01*
X131273518Y-152390296D01*
X131421312Y-152390296D01*
X131569105Y-152390296D01*
X131569105Y-153008323D01*
G37*
G36*
X133255449Y-153378199D02*
G01*
X133255530Y-153464836D01*
X133255600Y-153549491D01*
X133255658Y-153631841D01*
X133255705Y-153711563D01*
X133255741Y-153788334D01*
X133255766Y-153861829D01*
X133255781Y-153931727D01*
X133255784Y-153997704D01*
X133255777Y-154059436D01*
X133255760Y-154116601D01*
X133255732Y-154168875D01*
X133255693Y-154215936D01*
X133255645Y-154257459D01*
X133255586Y-154293121D01*
X133255517Y-154322600D01*
X133255437Y-154345573D01*
X133255348Y-154361715D01*
X133255249Y-154370704D01*
X133255183Y-154372546D01*
X133254471Y-154373910D01*
X133252519Y-154375067D01*
X133248745Y-154376036D01*
X133242572Y-154376832D01*
X133233421Y-154377472D01*
X133220711Y-154377973D01*
X133203863Y-154378351D01*
X133182299Y-154378624D01*
X133155440Y-154378807D01*
X133122706Y-154378919D01*
X133083518Y-154378974D01*
X133037297Y-154378990D01*
X133031551Y-154378991D01*
X132984184Y-154378972D01*
X132943934Y-154378907D01*
X132910239Y-154378780D01*
X132882537Y-154378577D01*
X132860268Y-154378284D01*
X132842869Y-154377885D01*
X132829780Y-154377368D01*
X132820437Y-154376716D01*
X132814280Y-154375915D01*
X132810748Y-154374951D01*
X132809278Y-154373810D01*
X132809140Y-154373232D01*
X132809137Y-154368647D01*
X132809134Y-154356918D01*
X132809130Y-154338581D01*
X132809127Y-154314170D01*
X132809123Y-154284220D01*
X132809119Y-154249266D01*
X132809115Y-154209843D01*
X132809111Y-154166485D01*
X132809107Y-154119727D01*
X132809103Y-154070106D01*
X132809100Y-154018154D01*
X132809099Y-153997952D01*
X132809076Y-153628431D01*
X132883982Y-153627390D01*
X132958888Y-153626349D01*
X132958888Y-153008323D01*
X132958888Y-152390296D01*
X133106681Y-152390296D01*
X133254475Y-152390296D01*
X133255449Y-153378199D01*
G37*
G36*
X130544045Y-153008325D02*
G01*
X130544045Y-153626353D01*
X130620907Y-153627392D01*
X130697769Y-153628431D01*
X130697729Y-153999872D01*
X130697722Y-154052656D01*
X130697716Y-154103281D01*
X130697709Y-154151215D01*
X130697701Y-154195929D01*
X130697694Y-154236893D01*
X130697687Y-154273577D01*
X130697679Y-154305453D01*
X130697672Y-154331989D01*
X130697665Y-154352656D01*
X130697658Y-154366924D01*
X130697652Y-154374265D01*
X130697650Y-154375151D01*
X130693818Y-154376062D01*
X130682408Y-154376853D01*
X130663517Y-154377522D01*
X130637246Y-154378068D01*
X130603693Y-154378490D01*
X130562957Y-154378784D01*
X130515136Y-154378951D01*
X130473020Y-154378991D01*
X130425802Y-154378980D01*
X130385687Y-154378937D01*
X130352098Y-154378844D01*
X130324460Y-154378684D01*
X130302196Y-154378439D01*
X130284730Y-154378093D01*
X130271487Y-154377629D01*
X130261891Y-154377028D01*
X130255365Y-154376274D01*
X130251334Y-154375350D01*
X130249221Y-154374238D01*
X130248451Y-154372921D01*
X130248390Y-154372272D01*
X130248383Y-154367469D01*
X130248378Y-154355682D01*
X130248373Y-154337555D01*
X130248369Y-154313730D01*
X130248365Y-154284848D01*
X130248361Y-154251552D01*
X130248358Y-154214483D01*
X130248356Y-154174286D01*
X130248354Y-154131600D01*
X130248353Y-154087069D01*
X130248352Y-154041336D01*
X130248352Y-153995041D01*
X130248352Y-153948827D01*
X130248353Y-153903337D01*
X130248355Y-153859212D01*
X130248357Y-153817095D01*
X130248359Y-153777628D01*
X130248362Y-153741454D01*
X130248366Y-153709213D01*
X130248370Y-153681550D01*
X130248374Y-153659105D01*
X130248379Y-153642521D01*
X130248385Y-153632440D01*
X130248390Y-153629472D01*
X130252048Y-153628567D01*
X130262228Y-153627677D01*
X130277771Y-153626862D01*
X130297520Y-153626181D01*
X130320318Y-153625691D01*
X130324252Y-153625633D01*
X130400076Y-153624592D01*
X130401047Y-153007444D01*
X130402019Y-152390296D01*
X130473032Y-152390296D01*
X130544045Y-152390296D01*
X130544045Y-153008325D01*
G37*
G36*
X132590327Y-153008404D02*
G01*
X132590327Y-153626512D01*
X132667110Y-153626512D01*
X132690450Y-153626648D01*
X132710937Y-153627030D01*
X132727422Y-153627614D01*
X132738754Y-153628356D01*
X132743783Y-153629213D01*
X132743932Y-153629391D01*
X132743938Y-153633600D01*
X132743943Y-153644846D01*
X132743948Y-153662485D01*
X132743953Y-153685876D01*
X132743957Y-153714375D01*
X132743960Y-153747342D01*
X132743963Y-153784133D01*
X132743966Y-153824106D01*
X132743967Y-153866620D01*
X132743969Y-153911031D01*
X132743969Y-153956697D01*
X132743970Y-154002976D01*
X132743969Y-154049226D01*
X132743969Y-154094805D01*
X132743967Y-154139070D01*
X132743965Y-154181378D01*
X132743963Y-154221088D01*
X132743960Y-154257557D01*
X132743957Y-154290143D01*
X132743953Y-154318204D01*
X132743948Y-154341097D01*
X132743943Y-154358180D01*
X132743937Y-154368811D01*
X132743932Y-154372272D01*
X132743571Y-154373684D01*
X132742121Y-154374884D01*
X132739005Y-154375889D01*
X132733649Y-154376716D01*
X132725475Y-154377382D01*
X132713909Y-154377904D01*
X132698374Y-154378300D01*
X132678293Y-154378587D01*
X132653092Y-154378783D01*
X132622194Y-154378903D01*
X132585024Y-154378966D01*
X132541004Y-154378989D01*
X132519302Y-154378991D01*
X132466029Y-154378925D01*
X132419763Y-154378730D01*
X132380603Y-154378407D01*
X132348648Y-154377958D01*
X132323997Y-154377385D01*
X132306749Y-154376689D01*
X132297003Y-154375871D01*
X132294672Y-154375151D01*
X132294666Y-154370846D01*
X132294660Y-154359391D01*
X132294653Y-154341318D01*
X132294646Y-154317156D01*
X132294638Y-154287434D01*
X132294631Y-154252684D01*
X132294623Y-154213433D01*
X132294616Y-154170212D01*
X132294609Y-154123552D01*
X132294602Y-154073981D01*
X132294596Y-154022029D01*
X132294593Y-153999872D01*
X132294553Y-153628431D01*
X132371415Y-153627392D01*
X132448277Y-153626353D01*
X132448277Y-153008325D01*
X132448277Y-152390296D01*
X132519302Y-152390296D01*
X132590327Y-152390296D01*
X132590327Y-153008404D01*
G37*
G36*
X132079716Y-153008404D02*
G01*
X132079716Y-153626512D01*
X132155540Y-153626511D01*
X132231363Y-153626511D01*
X132230426Y-153999872D01*
X132230293Y-154052770D01*
X132230165Y-154103492D01*
X132230044Y-154151511D01*
X132229931Y-154196300D01*
X132229827Y-154237333D01*
X132229733Y-154274083D01*
X132229651Y-154306024D01*
X132229583Y-154332629D01*
X132229529Y-154353371D01*
X132229490Y-154367724D01*
X132229470Y-154375162D01*
X132229466Y-154376111D01*
X132225735Y-154376636D01*
X132215001Y-154377129D01*
X132197939Y-154377583D01*
X132175223Y-154377989D01*
X132147529Y-154378338D01*
X132115531Y-154378621D01*
X132079905Y-154378830D01*
X132041326Y-154378956D01*
X132006772Y-154378991D01*
X131959771Y-154378980D01*
X131919871Y-154378936D01*
X131886492Y-154378842D01*
X131859056Y-154378680D01*
X131836985Y-154378433D01*
X131819700Y-154378082D01*
X131806623Y-154377612D01*
X131797175Y-154377004D01*
X131790778Y-154376241D01*
X131786853Y-154375305D01*
X131784823Y-154374179D01*
X131784108Y-154372845D01*
X131784061Y-154372272D01*
X131784055Y-154367468D01*
X131784049Y-154355680D01*
X131784044Y-154337550D01*
X131784040Y-154313721D01*
X131784036Y-154284835D01*
X131784032Y-154251535D01*
X131784029Y-154214461D01*
X131784027Y-154174258D01*
X131784025Y-154131567D01*
X131784024Y-154087030D01*
X131784023Y-154041290D01*
X131784023Y-153994989D01*
X131784024Y-153948770D01*
X131784024Y-153903274D01*
X131784026Y-153859144D01*
X131784028Y-153817022D01*
X131784030Y-153777551D01*
X131784033Y-153741373D01*
X131784037Y-153709130D01*
X131784041Y-153681465D01*
X131784045Y-153659019D01*
X131784050Y-153642435D01*
X131784056Y-153632356D01*
X131784061Y-153629391D01*
X131787721Y-153628516D01*
X131797908Y-153627748D01*
X131813474Y-153627130D01*
X131833267Y-153626705D01*
X131856139Y-153626517D01*
X131860883Y-153626512D01*
X131937666Y-153626512D01*
X131937666Y-153008404D01*
X131937666Y-152390296D01*
X132008691Y-152390296D01*
X132079716Y-152390296D01*
X132079716Y-153008404D01*
G37*
G36*
X110994278Y-42638449D02*
G01*
X111105345Y-42692973D01*
X111176831Y-42791115D01*
X111200660Y-42940145D01*
X111176427Y-43097254D01*
X111103729Y-43200242D01*
X110983374Y-43257189D01*
X110816169Y-43276171D01*
X110654618Y-43276171D01*
X110654618Y-42629968D01*
X110753164Y-42621890D01*
X110851710Y-42620275D01*
X110994278Y-42638449D01*
G37*
G36*
X119091882Y-44830560D02*
G01*
X118014876Y-44830560D01*
X115885635Y-44830560D01*
X114321823Y-44830560D01*
X111872711Y-44830560D01*
X110654618Y-44830560D01*
X109032647Y-44830560D01*
X107452679Y-44830560D01*
X106192582Y-44830560D01*
X105323438Y-44830560D01*
X103438678Y-44830560D01*
X103433202Y-44830291D01*
X108619076Y-44830291D01*
X109032647Y-44830291D01*
X109839384Y-42323021D01*
X110257202Y-42323021D01*
X110257202Y-44297173D01*
X110654618Y-44297173D01*
X110654618Y-43621890D01*
X110796782Y-43621890D01*
X111035698Y-43604120D01*
X111235483Y-43550808D01*
X111396136Y-43461955D01*
X111513709Y-43333253D01*
X111584253Y-43160393D01*
X111607768Y-42943376D01*
X111584433Y-42728514D01*
X111542695Y-42626737D01*
X111872711Y-42626737D01*
X112308899Y-42626737D01*
X112308899Y-43967609D01*
X111872711Y-43967609D01*
X111872711Y-44297173D01*
X113142501Y-44297173D01*
X113142501Y-43967609D01*
X112709545Y-43967609D01*
X112709545Y-42626737D01*
X113142501Y-42626737D01*
X113394521Y-42626737D01*
X113921177Y-42626737D01*
X113921177Y-44297173D01*
X114321823Y-44297173D01*
X114321823Y-43295557D01*
X115016492Y-43295557D01*
X115030425Y-43531624D01*
X115072227Y-43739015D01*
X115141896Y-43917730D01*
X115239432Y-44067771D01*
X115410317Y-44218551D01*
X115625718Y-44309020D01*
X115885635Y-44339176D01*
X116062130Y-44328271D01*
X116209174Y-44297173D01*
X116690159Y-44297173D01*
X117087574Y-44297173D01*
X117087574Y-43415105D01*
X117617461Y-43415105D01*
X117617461Y-44297173D01*
X118014876Y-44297173D01*
X118014876Y-42297173D01*
X117617461Y-42297173D01*
X117617461Y-43085541D01*
X117087574Y-43085541D01*
X117087574Y-42297173D01*
X116690159Y-42297173D01*
X116690159Y-44297173D01*
X116209174Y-44297173D01*
X116216815Y-44295557D01*
X116444602Y-44200242D01*
X116344440Y-43886834D01*
X116181274Y-43957916D01*
X115924408Y-43993457D01*
X115693794Y-43947819D01*
X115538301Y-43810905D01*
X115472783Y-43671432D01*
X115433472Y-43496419D01*
X115420369Y-43285864D01*
X115431274Y-43104927D01*
X115463988Y-42956300D01*
X115577073Y-42744669D01*
X115735393Y-42631583D01*
X115917946Y-42597658D01*
X116158656Y-42631583D01*
X116337978Y-42713974D01*
X116441370Y-42397334D01*
X116375135Y-42358562D01*
X116266896Y-42310097D01*
X116116653Y-42269709D01*
X115924408Y-42251939D01*
X115734989Y-42269305D01*
X115560918Y-42321405D01*
X115405829Y-42407027D01*
X115273358Y-42524960D01*
X115165522Y-42673990D01*
X115084343Y-42852908D01*
X115033454Y-43060501D01*
X115016492Y-43295557D01*
X114321823Y-43295557D01*
X114321823Y-42626737D01*
X114848479Y-42626737D01*
X114848479Y-42297173D01*
X113394521Y-42297173D01*
X113394521Y-42626737D01*
X113142501Y-42626737D01*
X113142501Y-42297173D01*
X111872711Y-42297173D01*
X111872711Y-42626737D01*
X111542695Y-42626737D01*
X111514427Y-42557808D01*
X111397752Y-42431260D01*
X111238714Y-42344202D01*
X111041622Y-42291967D01*
X110806475Y-42274556D01*
X110680466Y-42277787D01*
X110535070Y-42285864D01*
X110388059Y-42300404D01*
X110257202Y-42323021D01*
X109839384Y-42323021D01*
X109930870Y-42038691D01*
X109523761Y-42038691D01*
X108619076Y-44830291D01*
X103433202Y-44830291D01*
X103288657Y-44823190D01*
X103140081Y-44801151D01*
X102994380Y-44764655D01*
X102852958Y-44714053D01*
X102717177Y-44649833D01*
X102588344Y-44572614D01*
X102467701Y-44483139D01*
X102356409Y-44382269D01*
X102255539Y-44270977D01*
X102166064Y-44150334D01*
X102088845Y-44021501D01*
X102024625Y-43885720D01*
X101974023Y-43744298D01*
X101937527Y-43598597D01*
X101915488Y-43450021D01*
X101908118Y-43300000D01*
X101908336Y-43295557D01*
X105323438Y-43295557D01*
X105337372Y-43531624D01*
X105379173Y-43739015D01*
X105448842Y-43917730D01*
X105546379Y-44067771D01*
X105717264Y-44218551D01*
X105932665Y-44309020D01*
X106192582Y-44339176D01*
X106369076Y-44328271D01*
X106523761Y-44295557D01*
X106751548Y-44200242D01*
X106651387Y-43886834D01*
X106488220Y-43957916D01*
X106231354Y-43993457D01*
X106000740Y-43947819D01*
X105845248Y-43810905D01*
X105779730Y-43671432D01*
X105740419Y-43496419D01*
X105727316Y-43285864D01*
X105738220Y-43104927D01*
X105770934Y-42956300D01*
X105884020Y-42744669D01*
X106042340Y-42631583D01*
X106224892Y-42597658D01*
X106465603Y-42631583D01*
X106644925Y-42713974D01*
X106748317Y-42397334D01*
X106682081Y-42358562D01*
X106573842Y-42310097D01*
X106525765Y-42297173D01*
X106893713Y-42297173D01*
X106930870Y-42478110D01*
X106984181Y-42704281D01*
X107026903Y-42873551D01*
X107073214Y-43049641D01*
X107123115Y-43232553D01*
X107175889Y-43419054D01*
X107230816Y-43605915D01*
X107287897Y-43793134D01*
X107372711Y-44059693D01*
X107452679Y-44297173D01*
X107863018Y-44297173D01*
X107924767Y-44125031D01*
X107985079Y-43948941D01*
X108043955Y-43768901D01*
X108100498Y-43587964D01*
X108153810Y-43409181D01*
X108203891Y-43232553D01*
X108272550Y-42975283D01*
X108333131Y-42730129D01*
X108385232Y-42502342D01*
X108428446Y-42297173D01*
X108011645Y-42297173D01*
X107982566Y-42465186D01*
X107947025Y-42659047D01*
X107906637Y-42868659D01*
X107863018Y-43083926D01*
X107816169Y-43300404D01*
X107766088Y-43513651D01*
X107714391Y-43713570D01*
X107662695Y-43890065D01*
X107610595Y-43711147D01*
X107557687Y-43510420D01*
X107505991Y-43297173D01*
X107457526Y-43080695D01*
X107412695Y-42865832D01*
X107371904Y-42657431D01*
X107337978Y-42464782D01*
X107313745Y-42297173D01*
X106893713Y-42297173D01*
X106525765Y-42297173D01*
X106423600Y-42269709D01*
X106231354Y-42251939D01*
X106041936Y-42269305D01*
X105867865Y-42321405D01*
X105712776Y-42407027D01*
X105580304Y-42524960D01*
X105472469Y-42673990D01*
X105391290Y-42852908D01*
X105340401Y-43060501D01*
X105323438Y-43295557D01*
X101908336Y-43295557D01*
X101915488Y-43149979D01*
X101937527Y-43001403D01*
X101974023Y-42855702D01*
X102024625Y-42714280D01*
X102088845Y-42578499D01*
X102166064Y-42449666D01*
X102255539Y-42329023D01*
X102356409Y-42217731D01*
X102467701Y-42116861D01*
X102588344Y-42027386D01*
X102717177Y-41950167D01*
X102852958Y-41885947D01*
X102994380Y-41835345D01*
X103140081Y-41798849D01*
X103288657Y-41776810D01*
X103438678Y-41769440D01*
X105323438Y-41769440D01*
X118014876Y-41769440D01*
X119091882Y-41769440D01*
X119091882Y-44830560D01*
G37*
G36*
X117523533Y-128004200D02*
G01*
X117575229Y-128204523D01*
X117618848Y-128403231D01*
X117657620Y-128610016D01*
X117266667Y-128610016D01*
X117307054Y-128403231D01*
X117352289Y-128204523D01*
X117403985Y-128004200D01*
X117463759Y-127789338D01*
X117523533Y-128004200D01*
G37*
G36*
X125301117Y-126825497D02*
G01*
X125454699Y-126848278D01*
X125605308Y-126886004D01*
X125751494Y-126938310D01*
X125891849Y-127004693D01*
X126025022Y-127084514D01*
X126149729Y-127177003D01*
X126264771Y-127281271D01*
X126369039Y-127396313D01*
X126461528Y-127521020D01*
X126541349Y-127654193D01*
X126607732Y-127794548D01*
X126660038Y-127940734D01*
X126697764Y-128091343D01*
X126720545Y-128244925D01*
X126728164Y-128400000D01*
X126720545Y-128555075D01*
X126697764Y-128708657D01*
X126660038Y-128859266D01*
X126607732Y-129005452D01*
X126541349Y-129145807D01*
X126461528Y-129278980D01*
X126369039Y-129403687D01*
X126264771Y-129518729D01*
X126149729Y-129622997D01*
X126025022Y-129715486D01*
X125891849Y-129795307D01*
X125751494Y-129861690D01*
X125605308Y-129913996D01*
X125454699Y-129951722D01*
X125301117Y-129974503D01*
X125146042Y-129982122D01*
X122992030Y-129982122D01*
X122255358Y-129982122D01*
X120093807Y-129982122D01*
X119282822Y-129982122D01*
X117819171Y-129982122D01*
X115948411Y-129982122D01*
X115130964Y-129982122D01*
X114053958Y-129982122D01*
X113898883Y-129974503D01*
X113745301Y-129951722D01*
X113594692Y-129913996D01*
X113448506Y-129861690D01*
X113308151Y-129795307D01*
X113174978Y-129715486D01*
X113050271Y-129622997D01*
X112935229Y-129518729D01*
X112830961Y-129403687D01*
X112738472Y-129278980D01*
X112658651Y-129145807D01*
X112592268Y-129005452D01*
X112539962Y-128859266D01*
X112502236Y-128708657D01*
X112479455Y-128555075D01*
X112471836Y-128400000D01*
X115130964Y-128400000D01*
X115145504Y-128642730D01*
X115189122Y-128853958D01*
X115259397Y-129033279D01*
X115353904Y-129180291D01*
X115471432Y-129294992D01*
X115610770Y-129377383D01*
X115770302Y-129427060D01*
X115948411Y-129443619D01*
X116145907Y-129435541D01*
X116311901Y-129411309D01*
X116348788Y-129401616D01*
X116688315Y-129401616D01*
X117101885Y-129401616D01*
X117192353Y-128939580D01*
X117725471Y-128939580D01*
X117819171Y-129401616D01*
X118245665Y-129401616D01*
X118192353Y-129174863D01*
X118138395Y-128954701D01*
X118083791Y-128741131D01*
X118028541Y-128534152D01*
X117972644Y-128333764D01*
X117902269Y-128090731D01*
X117831691Y-127854362D01*
X117793734Y-127731179D01*
X118355520Y-127731179D01*
X118882176Y-127731179D01*
X118882176Y-129401616D01*
X119282822Y-129401616D01*
X120093807Y-129401616D01*
X121376521Y-129401616D01*
X121376521Y-129291761D01*
X121635003Y-129291761D01*
X121857943Y-129390307D01*
X122031610Y-129430291D01*
X122255358Y-129443619D01*
X122482068Y-129426566D01*
X122666774Y-129375408D01*
X122809478Y-129290145D01*
X122946392Y-129104766D01*
X122992030Y-128855574D01*
X122978298Y-128704927D01*
X122937103Y-128582553D01*
X122796554Y-128401616D01*
X122609155Y-128285299D01*
X122413678Y-128206139D01*
X122289284Y-128157674D01*
X122176198Y-128097900D01*
X122093807Y-128020355D01*
X122061497Y-127918578D01*
X122096679Y-127791133D01*
X122202226Y-127714665D01*
X122378137Y-127689176D01*
X122605924Y-127721486D01*
X122785245Y-127799031D01*
X122901562Y-127492084D01*
X122670544Y-127398384D01*
X122521513Y-127366882D01*
X122349058Y-127356381D01*
X122151068Y-127373972D01*
X121983594Y-127426746D01*
X121846634Y-127514701D01*
X121709720Y-127703716D01*
X121664082Y-127954120D01*
X121715778Y-128191599D01*
X121846634Y-128351535D01*
X122022725Y-128458158D01*
X122210124Y-128532472D01*
X122345827Y-128589015D01*
X122468605Y-128656866D01*
X122559074Y-128742488D01*
X122594615Y-128852342D01*
X122580075Y-128947658D01*
X122526764Y-129031664D01*
X122421756Y-129089822D01*
X122255358Y-129110824D01*
X122094211Y-129099515D01*
X121959720Y-129065590D01*
X121751319Y-128968659D01*
X121635003Y-129291761D01*
X121376521Y-129291761D01*
X121376521Y-129072052D01*
X120491222Y-129072052D01*
X120491222Y-128509855D01*
X121198815Y-128509855D01*
X121198815Y-128180291D01*
X120491222Y-128180291D01*
X120491222Y-127731179D01*
X121305439Y-127731179D01*
X121305439Y-127401616D01*
X120093807Y-127401616D01*
X120093807Y-129401616D01*
X119282822Y-129401616D01*
X119282822Y-127731179D01*
X119809478Y-127731179D01*
X119809478Y-127401616D01*
X118355520Y-127401616D01*
X118355520Y-127731179D01*
X117793734Y-127731179D01*
X117760911Y-127624657D01*
X117689930Y-127401616D01*
X117256974Y-127401616D01*
X117188516Y-127622839D01*
X117118848Y-127850323D01*
X117047967Y-128084067D01*
X116975875Y-128324071D01*
X116917846Y-128522779D01*
X116860075Y-128729887D01*
X116802563Y-128945396D01*
X116745310Y-129169305D01*
X116688315Y-129401616D01*
X116348788Y-129401616D01*
X116533226Y-129353150D01*
X116533226Y-128354766D01*
X116135811Y-128354766D01*
X116135811Y-129084976D01*
X116058266Y-129094669D01*
X115980722Y-129097900D01*
X115787668Y-129055493D01*
X115647927Y-128928271D01*
X115585101Y-128794184D01*
X115547406Y-128618094D01*
X115534841Y-128400000D01*
X115541707Y-128251777D01*
X115562305Y-128117286D01*
X115652773Y-127897577D01*
X115812709Y-127753796D01*
X116051804Y-127702100D01*
X116265051Y-127737641D01*
X116439526Y-127818417D01*
X116542919Y-127501777D01*
X116476683Y-127463005D01*
X116365213Y-127414540D01*
X116205277Y-127374152D01*
X115996877Y-127356381D01*
X115821594Y-127372940D01*
X115657620Y-127422617D01*
X115509801Y-127505412D01*
X115382983Y-127621325D01*
X115278783Y-127769548D01*
X115198815Y-127949273D01*
X115147927Y-128159693D01*
X115130964Y-128400000D01*
X112471836Y-128400000D01*
X112479455Y-128244925D01*
X112502236Y-128091343D01*
X112539962Y-127940734D01*
X112592268Y-127794548D01*
X112658651Y-127654193D01*
X112738472Y-127521020D01*
X112830961Y-127396313D01*
X112935229Y-127281271D01*
X113050271Y-127177003D01*
X113174978Y-127084514D01*
X113308151Y-127004693D01*
X113448506Y-126938310D01*
X113594692Y-126886004D01*
X113745301Y-126848278D01*
X113898883Y-126825497D01*
X114053958Y-126817878D01*
X115130964Y-126817878D01*
X122992030Y-126817878D01*
X125146042Y-126817878D01*
X125301117Y-126825497D01*
G37*
G36*
X131239540Y-140144508D02*
G01*
X131239540Y-140191797D01*
X131145176Y-140191797D01*
X131050811Y-140191797D01*
X131054015Y-140147519D01*
X131057219Y-140103240D01*
X131148379Y-140100230D01*
X131239540Y-140097220D01*
X131239540Y-140144508D01*
G37*
G36*
X131377584Y-140100271D02*
G01*
X131484372Y-140103240D01*
X131487576Y-140147519D01*
X131490779Y-140191797D01*
X131380787Y-140191797D01*
X131270795Y-140191797D01*
X131270795Y-140144550D01*
X131270795Y-140097302D01*
X131377584Y-140100271D01*
G37*
G36*
X131487576Y-140267330D02*
G01*
X131484372Y-140311608D01*
X131377584Y-140314577D01*
X131270795Y-140317546D01*
X131270795Y-140270299D01*
X131270795Y-140223052D01*
X131380787Y-140223052D01*
X131490779Y-140223052D01*
X131487576Y-140267330D01*
G37*
G36*
X131729204Y-140144550D02*
G01*
X131729204Y-140191797D01*
X131619212Y-140191797D01*
X131509220Y-140191797D01*
X131512424Y-140147519D01*
X131515627Y-140103240D01*
X131622416Y-140100271D01*
X131729204Y-140097302D01*
X131729204Y-140144550D01*
G37*
G36*
X130296111Y-140371126D02*
G01*
X130286211Y-140402788D01*
X130277283Y-140423265D01*
X130264902Y-140434982D01*
X130244643Y-140440367D01*
X130212082Y-140441844D01*
X130167133Y-140441838D01*
X130063118Y-140441838D01*
X130081898Y-140397560D01*
X130100678Y-140353282D01*
X130202107Y-140350290D01*
X130303536Y-140347298D01*
X130296111Y-140371126D01*
G37*
G36*
X131239540Y-140269935D02*
G01*
X131239540Y-140316817D01*
X131140566Y-140316817D01*
X131041591Y-140316817D01*
X131041591Y-140286414D01*
X131042715Y-140257753D01*
X131048600Y-140239358D01*
X131063015Y-140228959D01*
X131089729Y-140224289D01*
X131132512Y-140223079D01*
X131146890Y-140223052D01*
X131239540Y-140223052D01*
X131239540Y-140269935D01*
G37*
G36*
X131894125Y-140098810D02*
G01*
X131923387Y-140102776D01*
X131939544Y-140112373D01*
X131946456Y-140130043D01*
X131947985Y-140158231D01*
X131947990Y-140161394D01*
X131947990Y-140191797D01*
X131854224Y-140191797D01*
X131760459Y-140191797D01*
X131760459Y-140144914D01*
X131760459Y-140098031D01*
X131847901Y-140098031D01*
X131894125Y-140098810D01*
G37*
G36*
X131900740Y-140223728D02*
G01*
X131931311Y-140227269D01*
X131948592Y-140235943D01*
X131956353Y-140252019D01*
X131958363Y-140277763D01*
X131958408Y-140286414D01*
X131958408Y-140316817D01*
X131859434Y-140316817D01*
X131760459Y-140316817D01*
X131760459Y-140269935D01*
X131760459Y-140223052D01*
X131853110Y-140223052D01*
X131900740Y-140223728D01*
G37*
G36*
X132592910Y-140130841D02*
G01*
X132601824Y-140158726D01*
X132603039Y-140176470D01*
X132593528Y-140186365D01*
X132570261Y-140190701D01*
X132530210Y-140191770D01*
X132512337Y-140191797D01*
X132420327Y-140191797D01*
X132409599Y-140144914D01*
X132398871Y-140098031D01*
X132490172Y-140098031D01*
X132581472Y-140098031D01*
X132592910Y-140130841D01*
G37*
G36*
X132634583Y-140255862D02*
G01*
X132643377Y-140283202D01*
X132644818Y-140300831D01*
X132635909Y-140310880D01*
X132613652Y-140315479D01*
X132575048Y-140316757D01*
X132548802Y-140316817D01*
X132451582Y-140316817D01*
X132440854Y-140269935D01*
X132430126Y-140223052D01*
X132526636Y-140223052D01*
X132623146Y-140223052D01*
X132634583Y-140255862D01*
G37*
G36*
X132676257Y-140380882D02*
G01*
X132684935Y-140407710D01*
X132686578Y-140425222D01*
X132678221Y-140435404D01*
X132656897Y-140440245D01*
X132619640Y-140441730D01*
X132585266Y-140441838D01*
X132482838Y-140441838D01*
X132472109Y-140394955D01*
X132461381Y-140348072D01*
X132563100Y-140348072D01*
X132664819Y-140348072D01*
X132676257Y-140380882D01*
G37*
G36*
X130051864Y-140392350D02*
G01*
X130032064Y-140436629D01*
X129927352Y-140439598D01*
X129883513Y-140440287D01*
X129848695Y-140439782D01*
X129827291Y-140438208D01*
X129822641Y-140436578D01*
X129826979Y-140424445D01*
X129837908Y-140400894D01*
X129843690Y-140389331D01*
X129864738Y-140348072D01*
X129968201Y-140348072D01*
X130071663Y-140348072D01*
X130051864Y-140392350D01*
G37*
G36*
X130103957Y-140267330D02*
G01*
X130084159Y-140311608D01*
X129984655Y-140314590D01*
X129942018Y-140315285D01*
X129908513Y-140314723D01*
X129888649Y-140313040D01*
X129885151Y-140311570D01*
X129889489Y-140299429D01*
X129900419Y-140275873D01*
X129906200Y-140264310D01*
X129927248Y-140223052D01*
X130025502Y-140223052D01*
X130123755Y-140223052D01*
X130103957Y-140267330D01*
G37*
G36*
X130559145Y-140269935D02*
G01*
X130548417Y-140316817D01*
X130451198Y-140316817D01*
X130403331Y-140316094D01*
X130373213Y-140313631D01*
X130357799Y-140308986D01*
X130353978Y-140302744D01*
X130357246Y-140283546D01*
X130365136Y-140256670D01*
X130365416Y-140255862D01*
X130376853Y-140223052D01*
X130473363Y-140223052D01*
X130569874Y-140223052D01*
X130559145Y-140269935D01*
G37*
G36*
X130590400Y-140144914D02*
G01*
X130579672Y-140191797D01*
X130487662Y-140191797D01*
X130441235Y-140191009D01*
X130412523Y-140188334D01*
X130398449Y-140183301D01*
X130395652Y-140177724D01*
X130398920Y-140158526D01*
X130406809Y-140131649D01*
X130407089Y-140130841D01*
X130418527Y-140098031D01*
X130509828Y-140098031D01*
X130601129Y-140098031D01*
X130590400Y-140144914D01*
G37*
G36*
X131729204Y-140269935D02*
G01*
X131729204Y-140316817D01*
X131626757Y-140316817D01*
X131582454Y-140316152D01*
X131546277Y-140314360D01*
X131523082Y-140311752D01*
X131517364Y-140309872D01*
X131512865Y-140295803D01*
X131510516Y-140269775D01*
X131510418Y-140262989D01*
X131510418Y-140223052D01*
X131619811Y-140223052D01*
X131729204Y-140223052D01*
X131729204Y-140269935D01*
G37*
G36*
X130527890Y-140394955D02*
G01*
X130517162Y-140441838D01*
X130414733Y-140441838D01*
X130365458Y-140441170D01*
X130333971Y-140438889D01*
X130317258Y-140434583D01*
X130312305Y-140427836D01*
X130312305Y-140427765D01*
X130315573Y-140408567D01*
X130323462Y-140381690D01*
X130323742Y-140380882D01*
X130335180Y-140348072D01*
X130436899Y-140348072D01*
X130538618Y-140348072D01*
X130527890Y-140394955D01*
G37*
G36*
X132797892Y-140350290D02*
G01*
X132899322Y-140353282D01*
X132918101Y-140397560D01*
X132936881Y-140441838D01*
X132832867Y-140441838D01*
X132785336Y-140441549D01*
X132754502Y-140440111D01*
X132736228Y-140436663D01*
X132726377Y-140430345D01*
X132720811Y-140420298D01*
X132720083Y-140418396D01*
X132709463Y-140388229D01*
X132703888Y-140371126D01*
X132696463Y-140347298D01*
X132797892Y-140350290D01*
G37*
G36*
X132678085Y-140099286D02*
G01*
X132704121Y-140100218D01*
X132795146Y-140103240D01*
X132813922Y-140147519D01*
X132832697Y-140191797D01*
X132739101Y-140191797D01*
X132694381Y-140191433D01*
X132666095Y-140189669D01*
X132649842Y-140185498D01*
X132641224Y-140177913D01*
X132636736Y-140168355D01*
X132623999Y-140134320D01*
X132618835Y-140113358D01*
X132624175Y-140102507D01*
X132642948Y-140098803D01*
X132678085Y-140099286D01*
G37*
G36*
X132716817Y-140224101D02*
G01*
X132751007Y-140225254D01*
X132847233Y-140228261D01*
X132866011Y-140272539D01*
X132884789Y-140316817D01*
X132785984Y-140316817D01*
X132739843Y-140316494D01*
X132710274Y-140314906D01*
X132693013Y-140311124D01*
X132683799Y-140304220D01*
X132678409Y-140293376D01*
X132665905Y-140260076D01*
X132660585Y-140239229D01*
X132665358Y-140228103D01*
X132683132Y-140223970D01*
X132716817Y-140224101D01*
G37*
G36*
X130321853Y-140224290D02*
G01*
X130336167Y-140226939D01*
X130340603Y-140232817D01*
X130338809Y-140242780D01*
X130337789Y-140246091D01*
X130327644Y-140278398D01*
X130318479Y-140299011D01*
X130305714Y-140310545D01*
X130284772Y-140315618D01*
X130251074Y-140316846D01*
X130214015Y-140316817D01*
X130115210Y-140316817D01*
X130133988Y-140272539D01*
X130152766Y-140228261D01*
X130248993Y-140225254D01*
X130294011Y-140224014D01*
X130321853Y-140224290D01*
G37*
G36*
X130365834Y-140099346D02*
G01*
X130378905Y-140102307D01*
X130382349Y-140108772D01*
X130379897Y-140119673D01*
X130379468Y-140121055D01*
X130369059Y-140154052D01*
X130359638Y-140174795D01*
X130346458Y-140186117D01*
X130324767Y-140190851D01*
X130289819Y-140191832D01*
X130260898Y-140191797D01*
X130167302Y-140191797D01*
X130186078Y-140147519D01*
X130204854Y-140103240D01*
X130295878Y-140100218D01*
X130339402Y-140098960D01*
X130365834Y-140099346D01*
G37*
G36*
X130808480Y-140130589D02*
G01*
X130803836Y-140158119D01*
X130801968Y-140177471D01*
X130797197Y-140184562D01*
X130780769Y-140188993D01*
X130749514Y-140191242D01*
X130707044Y-140191797D01*
X130612119Y-140191797D01*
X130619433Y-140152807D01*
X130625393Y-140125450D01*
X130630782Y-140107618D01*
X130631626Y-140105924D01*
X130643571Y-140102350D01*
X130671230Y-140099620D01*
X130709487Y-140098162D01*
X130725748Y-140098031D01*
X130814991Y-140098031D01*
X130808480Y-140130589D01*
G37*
G36*
X132315195Y-140098892D02*
G01*
X132347486Y-140101189D01*
X132366009Y-140104493D01*
X132368373Y-140105924D01*
X132373337Y-140120572D01*
X132379374Y-140146671D01*
X132380566Y-140152807D01*
X132387881Y-140191797D01*
X132292956Y-140191797D01*
X132245968Y-140191077D01*
X132216608Y-140188597D01*
X132201705Y-140183881D01*
X132198031Y-140177471D01*
X132196072Y-140157461D01*
X132191519Y-140130589D01*
X132185008Y-140098031D01*
X132274252Y-140098031D01*
X132315195Y-140098892D01*
G37*
G36*
X130118068Y-140099027D02*
G01*
X130148616Y-140101684D01*
X130164958Y-140105505D01*
X130166448Y-140107177D01*
X130162724Y-140121975D01*
X130153494Y-140147178D01*
X130150680Y-140154060D01*
X130134913Y-140191797D01*
X130041287Y-140191797D01*
X130000027Y-140191217D01*
X129968050Y-140189666D01*
X129950007Y-140187422D01*
X129947662Y-140186172D01*
X129951993Y-140174275D01*
X129962908Y-140150882D01*
X129968710Y-140139290D01*
X129989759Y-140098031D01*
X130078103Y-140098031D01*
X130118068Y-140099027D01*
G37*
G36*
X130766806Y-140380630D02*
G01*
X130762162Y-140408160D01*
X130760295Y-140427512D01*
X130755777Y-140434285D01*
X130740161Y-140438648D01*
X130710360Y-140441022D01*
X130663282Y-140441826D01*
X130654952Y-140441838D01*
X130549609Y-140441838D01*
X130556923Y-140402848D01*
X130562883Y-140375491D01*
X130568272Y-140357659D01*
X130569116Y-140355965D01*
X130580983Y-140352568D01*
X130608876Y-140349903D01*
X130647988Y-140348336D01*
X130673656Y-140348072D01*
X130773318Y-140348072D01*
X130766806Y-140380630D01*
G37*
G36*
X130787643Y-140255609D02*
G01*
X130782999Y-140283140D01*
X130781132Y-140302492D01*
X130776494Y-140309418D01*
X130760494Y-140313815D01*
X130730001Y-140316132D01*
X130681883Y-140316817D01*
X130680998Y-140316817D01*
X130580864Y-140316817D01*
X130588178Y-140277828D01*
X130594138Y-140250471D01*
X130599527Y-140232639D01*
X130600371Y-140230945D01*
X130612275Y-140227462D01*
X130640057Y-140224765D01*
X130678762Y-140223246D01*
X130699702Y-140223052D01*
X130794155Y-140223052D01*
X130787643Y-140255609D01*
G37*
G36*
X132342476Y-140223867D02*
G01*
X132376103Y-140226049D01*
X132396225Y-140229205D01*
X132399628Y-140230945D01*
X132404593Y-140245592D01*
X132410629Y-140271691D01*
X132411821Y-140277828D01*
X132419136Y-140316817D01*
X132319002Y-140316817D01*
X132270591Y-140316154D01*
X132239853Y-140313865D01*
X132223656Y-140309502D01*
X132218869Y-140302619D01*
X132218868Y-140302492D01*
X132216909Y-140282481D01*
X132212356Y-140255609D01*
X132205845Y-140223052D01*
X132300297Y-140223052D01*
X132342476Y-140223867D01*
G37*
G36*
X132369724Y-140348846D02*
G01*
X132404648Y-140350925D01*
X132426306Y-140353945D01*
X132430884Y-140355965D01*
X132435848Y-140370613D01*
X132441884Y-140396712D01*
X132443076Y-140402848D01*
X132450391Y-140441838D01*
X132345048Y-140441838D01*
X132295245Y-140441223D01*
X132263160Y-140439100D01*
X132245705Y-140435047D01*
X132239788Y-140428645D01*
X132239704Y-140427512D01*
X132237746Y-140407502D01*
X132233193Y-140380630D01*
X132226681Y-140348072D01*
X132326343Y-140348072D01*
X132369724Y-140348846D01*
G37*
G36*
X133031289Y-140139290D02*
G01*
X133044041Y-140165443D01*
X133051519Y-140183018D01*
X133052338Y-140186172D01*
X133042696Y-140188651D01*
X133016871Y-140190572D01*
X132979516Y-140191656D01*
X132958712Y-140191797D01*
X132865087Y-140191797D01*
X132849319Y-140154060D01*
X132839171Y-140127613D01*
X132833805Y-140109416D01*
X132833552Y-140107177D01*
X132843169Y-140103040D01*
X132868830Y-140099877D01*
X132905746Y-140098186D01*
X132921896Y-140098031D01*
X133010241Y-140098031D01*
X133031289Y-140139290D01*
G37*
G36*
X130984215Y-140098245D02*
G01*
X131011403Y-140099553D01*
X131025223Y-140102957D01*
X131029409Y-140109459D01*
X131027696Y-140120060D01*
X131027321Y-140121473D01*
X131022009Y-140151645D01*
X131020897Y-140168355D01*
X131019740Y-140179462D01*
X131013765Y-140186359D01*
X130998963Y-140190047D01*
X130971329Y-140191526D01*
X130926989Y-140191797D01*
X130880323Y-140191063D01*
X130851274Y-140188537D01*
X130836664Y-140183735D01*
X130833224Y-140177471D01*
X130835182Y-140157461D01*
X130839735Y-140130589D01*
X130846247Y-140098031D01*
X130939925Y-140098031D01*
X130984215Y-140098245D01*
G37*
G36*
X132160264Y-140130589D02*
G01*
X132165468Y-140158915D01*
X132165057Y-140176796D01*
X132155609Y-140186633D01*
X132133699Y-140190829D01*
X132095905Y-140191784D01*
X132073010Y-140191797D01*
X132028584Y-140191524D01*
X132000986Y-140190041D01*
X131986211Y-140186346D01*
X131980252Y-140179440D01*
X131979103Y-140168355D01*
X131976145Y-140138183D01*
X131972678Y-140121473D01*
X131970557Y-140110376D01*
X131973938Y-140103484D01*
X131986554Y-140099798D01*
X132012140Y-140098314D01*
X132054431Y-140098032D01*
X132060075Y-140098031D01*
X132153753Y-140098031D01*
X132160264Y-140130589D01*
G37*
G36*
X130970061Y-140223242D02*
G01*
X130998639Y-140224430D01*
X131013681Y-140227539D01*
X131018838Y-140233492D01*
X131017759Y-140243215D01*
X131016903Y-140246493D01*
X131011591Y-140276666D01*
X131010478Y-140293376D01*
X131009388Y-140304243D01*
X131003677Y-140311098D01*
X130989443Y-140314863D01*
X130962786Y-140316461D01*
X130919803Y-140316814D01*
X130911361Y-140316817D01*
X130863265Y-140316142D01*
X130832830Y-140313813D01*
X130816918Y-140309376D01*
X130812387Y-140302492D01*
X130814346Y-140282481D01*
X130818898Y-140255609D01*
X130825410Y-140223052D01*
X130924297Y-140223052D01*
X130970061Y-140223242D01*
G37*
G36*
X132181101Y-140255609D02*
G01*
X132186242Y-140283365D01*
X132186028Y-140301136D01*
X132177098Y-140311145D01*
X132156092Y-140315619D01*
X132119647Y-140316783D01*
X132088638Y-140316817D01*
X132042753Y-140316575D01*
X132013802Y-140315232D01*
X131997885Y-140311866D01*
X131991100Y-140305555D01*
X131989545Y-140295375D01*
X131989521Y-140293376D01*
X131986564Y-140263203D01*
X131983097Y-140246493D01*
X131980990Y-140235633D01*
X131984164Y-140228783D01*
X131996270Y-140225020D01*
X132020957Y-140223419D01*
X132061876Y-140223057D01*
X132075702Y-140223052D01*
X132174590Y-140223052D01*
X132181101Y-140255609D01*
G37*
G36*
X132201938Y-140380630D02*
G01*
X132207018Y-140407850D01*
X132206981Y-140425506D01*
X132198526Y-140435664D01*
X132178352Y-140440396D01*
X132143156Y-140441768D01*
X132104265Y-140441838D01*
X132056958Y-140441620D01*
X132026683Y-140440398D01*
X132009636Y-140437317D01*
X132002014Y-140431522D01*
X132000013Y-140422159D01*
X131999939Y-140418396D01*
X131996982Y-140388224D01*
X131993515Y-140371514D01*
X131991423Y-140360874D01*
X131994411Y-140354068D01*
X132006050Y-140350239D01*
X132029912Y-140348530D01*
X132069568Y-140348087D01*
X132091330Y-140348072D01*
X132195426Y-140348072D01*
X132201938Y-140380630D01*
G37*
G36*
X130955870Y-140348243D02*
G01*
X130985804Y-140349327D01*
X131002045Y-140352179D01*
X131008164Y-140357655D01*
X131007732Y-140366612D01*
X131006484Y-140371514D01*
X131001173Y-140401686D01*
X131000060Y-140418396D01*
X130999029Y-140429040D01*
X130993557Y-140435850D01*
X130979841Y-140439682D01*
X130954075Y-140441389D01*
X130912456Y-140441826D01*
X130895734Y-140441838D01*
X130846238Y-140441213D01*
X130814451Y-140439055D01*
X130797273Y-140434936D01*
X130791604Y-140428432D01*
X130791550Y-140427512D01*
X130793509Y-140407502D01*
X130798062Y-140380630D01*
X130804573Y-140348072D01*
X130908670Y-140348072D01*
X130955870Y-140348243D01*
G37*
G36*
X133070723Y-137977089D02*
G01*
X133109639Y-138012751D01*
X133112404Y-138972044D01*
X133115168Y-139931337D01*
X131500000Y-139931337D01*
X129884831Y-139931337D01*
X129885191Y-139806317D01*
X130010172Y-139806317D01*
X131500000Y-139806317D01*
X132989827Y-139806317D01*
X132989827Y-138936382D01*
X132989827Y-138066448D01*
X131500000Y-138066448D01*
X130010172Y-138066448D01*
X130010172Y-138936382D01*
X130010172Y-139806317D01*
X129885191Y-139806317D01*
X129887596Y-138972044D01*
X129887699Y-138936382D01*
X129890361Y-138012751D01*
X129929277Y-137977089D01*
X129968192Y-137941428D01*
X131500000Y-137941428D01*
X133031807Y-137941428D01*
X133070723Y-137977089D01*
G37*
G36*
X133093799Y-140264310D02*
G01*
X133106551Y-140290463D01*
X133114030Y-140308038D01*
X133114848Y-140311193D01*
X133105184Y-140313607D01*
X133079203Y-140315502D01*
X133041425Y-140316623D01*
X133015615Y-140316817D01*
X132969541Y-140316574D01*
X132939992Y-140315142D01*
X132922661Y-140311467D01*
X132913238Y-140304495D01*
X132907412Y-140293174D01*
X132906214Y-140290070D01*
X132894227Y-140261631D01*
X132885268Y-140243187D01*
X132881428Y-140233873D01*
X132884283Y-140227986D01*
X132897269Y-140224743D01*
X132923822Y-140223359D01*
X132967380Y-140223053D01*
X132973622Y-140223052D01*
X133072751Y-140223052D01*
X133093799Y-140264310D01*
G37*
G36*
X133156310Y-140389331D02*
G01*
X133169061Y-140415484D01*
X133176540Y-140433059D01*
X133177358Y-140436213D01*
X133167675Y-140438572D01*
X133141561Y-140440443D01*
X133103422Y-140441591D01*
X133072917Y-140441838D01*
X133025442Y-140441625D01*
X132994626Y-140440336D01*
X132976288Y-140436997D01*
X132966251Y-140430631D01*
X132960335Y-140420264D01*
X132958306Y-140415090D01*
X132946319Y-140386651D01*
X132937360Y-140368208D01*
X132933586Y-140359083D01*
X132936291Y-140353234D01*
X132948850Y-140349934D01*
X132974635Y-140348459D01*
X133017021Y-140348080D01*
X133030923Y-140348072D01*
X133135261Y-140348072D01*
X133156310Y-140389331D01*
G37*
G36*
X131452780Y-140348061D02*
G01*
X131500000Y-140348072D01*
X131611185Y-140348026D01*
X131703318Y-140348049D01*
X131778180Y-140348381D01*
X131837554Y-140349263D01*
X131883222Y-140350937D01*
X131916969Y-140353644D01*
X131940576Y-140357623D01*
X131955826Y-140363117D01*
X131964501Y-140370366D01*
X131968386Y-140379611D01*
X131969261Y-140391093D01*
X131968911Y-140405053D01*
X131968827Y-140411435D01*
X131968827Y-140441838D01*
X131500000Y-140441838D01*
X131031173Y-140441838D01*
X131031173Y-140411435D01*
X131030832Y-140396408D01*
X131030999Y-140383956D01*
X131033456Y-140373838D01*
X131039986Y-140365814D01*
X131052372Y-140359642D01*
X131072396Y-140355081D01*
X131101842Y-140351890D01*
X131142491Y-140349829D01*
X131196126Y-140348657D01*
X131264531Y-140348132D01*
X131349488Y-140348014D01*
X131452780Y-140348061D01*
G37*
G36*
X133303387Y-140370924D02*
G01*
X133350870Y-140466082D01*
X133389691Y-140544508D01*
X133420658Y-140608031D01*
X133444577Y-140658480D01*
X133462256Y-140697685D01*
X133474500Y-140727475D01*
X133482118Y-140749678D01*
X133485914Y-140766125D01*
X133486698Y-140778644D01*
X133486053Y-140785055D01*
X133475817Y-140815582D01*
X133459035Y-140839298D01*
X133457817Y-140840341D01*
X133454296Y-140842565D01*
X133448822Y-140844602D01*
X133440507Y-140846459D01*
X133428462Y-140848144D01*
X133411798Y-140849666D01*
X133389626Y-140851033D01*
X133361058Y-140852254D01*
X133325205Y-140853335D01*
X133281178Y-140854287D01*
X133228089Y-140855116D01*
X133165049Y-140855832D01*
X133091168Y-140856443D01*
X133005559Y-140856956D01*
X132907333Y-140857381D01*
X132795601Y-140857725D01*
X132669474Y-140857996D01*
X132528063Y-140858204D01*
X132370481Y-140858356D01*
X132195837Y-140858461D01*
X132003244Y-140858526D01*
X131791813Y-140858560D01*
X131560655Y-140858572D01*
X131500000Y-140858573D01*
X131263797Y-140858565D01*
X131047543Y-140858537D01*
X130850348Y-140858480D01*
X130671323Y-140858386D01*
X130509581Y-140858247D01*
X130364231Y-140858054D01*
X130234387Y-140857799D01*
X130119157Y-140857473D01*
X130017655Y-140857070D01*
X129928991Y-140856579D01*
X129852277Y-140855993D01*
X129786624Y-140855305D01*
X129731143Y-140854504D01*
X129684945Y-140853584D01*
X129647143Y-140852535D01*
X129616846Y-140851350D01*
X129593166Y-140850021D01*
X129575215Y-140848538D01*
X129562104Y-140846894D01*
X129552945Y-140845081D01*
X129546848Y-140843089D01*
X129542924Y-140840912D01*
X129542182Y-140840341D01*
X129525197Y-140817569D01*
X129514300Y-140787090D01*
X129513946Y-140785055D01*
X129513304Y-140774019D01*
X129515189Y-140760157D01*
X129520408Y-140741641D01*
X129529769Y-140716640D01*
X129544077Y-140683326D01*
X129545403Y-140680454D01*
X131012804Y-140680454D01*
X131014145Y-140686776D01*
X131017591Y-140690484D01*
X131025973Y-140693537D01*
X131041020Y-140695981D01*
X131064460Y-140697864D01*
X131098022Y-140699230D01*
X131143434Y-140700126D01*
X131202425Y-140700598D01*
X131276725Y-140700692D01*
X131368060Y-140700454D01*
X131478160Y-140699930D01*
X131502317Y-140699797D01*
X131984454Y-140697088D01*
X131981605Y-140635485D01*
X131977837Y-140596738D01*
X131971179Y-140562635D01*
X131965839Y-140546929D01*
X131952923Y-140519976D01*
X131503833Y-140517261D01*
X131392668Y-140516684D01*
X131300591Y-140516447D01*
X131225853Y-140516596D01*
X131166706Y-140517176D01*
X131121403Y-140518231D01*
X131088197Y-140519807D01*
X131065338Y-140521949D01*
X131051081Y-140524702D01*
X131043676Y-140528110D01*
X131042641Y-140529129D01*
X131033792Y-140548308D01*
X131025031Y-140580510D01*
X131017712Y-140618255D01*
X131013185Y-140654064D01*
X131012804Y-140680454D01*
X129545403Y-140680454D01*
X129564141Y-140639869D01*
X129590766Y-140584440D01*
X129624759Y-140515210D01*
X129653508Y-140457356D01*
X129780968Y-140457356D01*
X129782624Y-140459401D01*
X129788199Y-140461263D01*
X129798603Y-140462952D01*
X129814745Y-140464475D01*
X129837535Y-140465840D01*
X129867883Y-140467056D01*
X129906698Y-140468132D01*
X129954890Y-140469075D01*
X130013369Y-140469894D01*
X130083044Y-140470597D01*
X130164825Y-140471193D01*
X130259622Y-140471689D01*
X130368344Y-140472095D01*
X130491901Y-140472418D01*
X130631203Y-140472667D01*
X130787160Y-140472850D01*
X130960680Y-140472976D01*
X131152674Y-140473052D01*
X131364052Y-140473088D01*
X131500000Y-140473093D01*
X131723395Y-140473078D01*
X131926863Y-140473027D01*
X132111314Y-140472931D01*
X132277658Y-140472784D01*
X132426803Y-140472575D01*
X132559660Y-140472297D01*
X132677138Y-140471942D01*
X132780147Y-140471501D01*
X132869597Y-140470965D01*
X132946397Y-140470327D01*
X133011458Y-140469579D01*
X133065688Y-140468711D01*
X133109997Y-140467716D01*
X133145295Y-140466584D01*
X133172493Y-140465309D01*
X133192498Y-140463881D01*
X133206222Y-140462293D01*
X133214573Y-140460535D01*
X133218462Y-140458600D01*
X133219032Y-140457356D01*
X133214535Y-140443569D01*
X133201994Y-140414303D01*
X133182832Y-140372642D01*
X133158472Y-140321669D01*
X133130340Y-140264466D01*
X133125211Y-140254197D01*
X133031391Y-140066776D01*
X131500000Y-140066776D01*
X129968608Y-140066776D01*
X129874788Y-140254197D01*
X129846149Y-140312163D01*
X129821037Y-140364431D01*
X129800878Y-140407917D01*
X129787093Y-140439540D01*
X129781107Y-140456217D01*
X129780968Y-140457356D01*
X129653508Y-140457356D01*
X129666928Y-140430350D01*
X129696613Y-140370924D01*
X129885208Y-139993848D01*
X131500000Y-139993848D01*
X133114792Y-139993848D01*
X133303387Y-140370924D01*
G37*
D17*
X120100000Y-134800000D03*
D18*
X107400000Y-160500000D03*
X132600000Y-160500000D03*
X107400000Y-38000000D03*
X132600000Y-38000000D03*
D19*
X112500000Y-52400000D03*
X112500000Y-91800000D03*
X127500000Y-78600000D03*
X127500000Y-107000000D03*
X127500000Y-65500000D03*
X127500000Y-91800000D03*
X112500000Y-78600000D03*
X108300000Y-146000000D03*
X127500000Y-120200000D03*
X112500000Y-65500000D03*
D20*
X131500000Y-146000000D03*
D19*
X112500000Y-107000000D03*
X127500000Y-52400000D03*
X112500000Y-120200000D03*
M02*
