M48
; DRILL file {KiCad 8.0.4} date 2024-08-06T17:15:27+0100
; FORMAT={-:-/ absolute / inch / decimal}
; #@! TF.CreationDate,2024-08-06T17:15:27+01:00
; #@! TF.GenerationSoftware,Kicad,Pcbnew,8.0.4
; #@! TF.FileFunction,NonPlated,1,2,NPTH
FMAT,2
INCH
; #@! TA.AperFunction,NonPlated,NPTH,ComponentDrill
T1C0.1181
; #@! TA.AperFunction,NonPlated,NPTH,ComponentDrill
T2C0.1260
; #@! TA.AperFunction,NonPlated,NPTH,ComponentDrill
T3C0.1378
; #@! TA.AperFunction,NonPlated,NPTH,ComponentDrill
T4C0.2362
%
G90
G05
T1
X4.1535Y-2.063
X4.1535Y-2.5787
X4.1535Y-3.0945
X4.1535Y-3.6142
X4.1535Y-4.2126
X4.1535Y-4.7323
X5.2953Y-2.063
X5.2953Y-2.5787
X5.2953Y-3.0945
X5.2953Y-3.6142
X5.2953Y-4.2126
X5.2953Y-4.7323
T3
X4.7244Y-5.2264
T4
X4.4291Y-2.063
X4.4291Y-2.5787
X4.4291Y-3.0945
X4.4291Y-3.6142
X4.4291Y-4.2126
X4.4291Y-4.7323
X4.685Y-5.7087
X5.0197Y-2.063
X5.0197Y-2.5787
X5.0197Y-3.0945
X5.0197Y-3.6142
X5.0197Y-4.2126
X5.0197Y-4.7323
X5.1772Y-5.7087
T2
G00X4.1929Y-1.4961
M15
G01X4.2638Y-1.4961
M16
G05
G00X4.1929Y-6.3189
M15
G01X4.2638Y-6.3189
M16
G05
G00X5.185Y-1.4961
M15
G01X5.2559Y-1.4961
M16
G05
G00X5.185Y-6.3189
M15
G01X5.2559Y-6.3189
M16
G05
M30
