G04 #@! TF.GenerationSoftware,KiCad,Pcbnew,8.0.4*
G04 #@! TF.CreationDate,2024-08-08T14:54:58+01:00*
G04 #@! TF.ProjectId,MidiMonger_controls,4d696469-4d6f-46e6-9765-725f636f6e74,rev?*
G04 #@! TF.SameCoordinates,Original*
G04 #@! TF.FileFunction,Legend,Top*
G04 #@! TF.FilePolarity,Positive*
%FSLAX46Y46*%
G04 Gerber Fmt 4.6, Leading zero omitted, Abs format (unit mm)*
G04 Created by KiCad (PCBNEW 8.0.4) date 2024-08-08 14:54:58*
%MOMM*%
%LPD*%
G01*
G04 APERTURE LIST*
%ADD10C,0.150000*%
%ADD11C,0.120000*%
%ADD12C,0.127000*%
%ADD13C,0.200000*%
G04 APERTURE END LIST*
D10*
X121302438Y-80723810D02*
X121254819Y-80819048D01*
X121254819Y-80819048D02*
X121254819Y-80961905D01*
X121254819Y-80961905D02*
X121302438Y-81104762D01*
X121302438Y-81104762D02*
X121397676Y-81200000D01*
X121397676Y-81200000D02*
X121492914Y-81247619D01*
X121492914Y-81247619D02*
X121683390Y-81295238D01*
X121683390Y-81295238D02*
X121826247Y-81295238D01*
X121826247Y-81295238D02*
X122016723Y-81247619D01*
X122016723Y-81247619D02*
X122111961Y-81200000D01*
X122111961Y-81200000D02*
X122207200Y-81104762D01*
X122207200Y-81104762D02*
X122254819Y-80961905D01*
X122254819Y-80961905D02*
X122254819Y-80866667D01*
X122254819Y-80866667D02*
X122207200Y-80723810D01*
X122207200Y-80723810D02*
X122159580Y-80676191D01*
X122159580Y-80676191D02*
X121826247Y-80676191D01*
X121826247Y-80676191D02*
X121826247Y-80866667D01*
X122254819Y-79819048D02*
X121731009Y-79819048D01*
X121731009Y-79819048D02*
X121635771Y-79866667D01*
X121635771Y-79866667D02*
X121588152Y-79961905D01*
X121588152Y-79961905D02*
X121588152Y-80152381D01*
X121588152Y-80152381D02*
X121635771Y-80247619D01*
X122207200Y-79819048D02*
X122254819Y-79914286D01*
X122254819Y-79914286D02*
X122254819Y-80152381D01*
X122254819Y-80152381D02*
X122207200Y-80247619D01*
X122207200Y-80247619D02*
X122111961Y-80295238D01*
X122111961Y-80295238D02*
X122016723Y-80295238D01*
X122016723Y-80295238D02*
X121921485Y-80247619D01*
X121921485Y-80247619D02*
X121873866Y-80152381D01*
X121873866Y-80152381D02*
X121873866Y-79914286D01*
X121873866Y-79914286D02*
X121826247Y-79819048D01*
X121588152Y-79485714D02*
X121588152Y-79104762D01*
X121254819Y-79342857D02*
X122111961Y-79342857D01*
X122111961Y-79342857D02*
X122207200Y-79295238D01*
X122207200Y-79295238D02*
X122254819Y-79200000D01*
X122254819Y-79200000D02*
X122254819Y-79104762D01*
X122207200Y-78390476D02*
X122254819Y-78485714D01*
X122254819Y-78485714D02*
X122254819Y-78676190D01*
X122254819Y-78676190D02*
X122207200Y-78771428D01*
X122207200Y-78771428D02*
X122111961Y-78819047D01*
X122111961Y-78819047D02*
X121731009Y-78819047D01*
X121731009Y-78819047D02*
X121635771Y-78771428D01*
X121635771Y-78771428D02*
X121588152Y-78676190D01*
X121588152Y-78676190D02*
X121588152Y-78485714D01*
X121588152Y-78485714D02*
X121635771Y-78390476D01*
X121635771Y-78390476D02*
X121731009Y-78342857D01*
X121731009Y-78342857D02*
X121826247Y-78342857D01*
X121826247Y-78342857D02*
X121921485Y-78819047D01*
X121254819Y-78009523D02*
X121254819Y-77390476D01*
X121254819Y-77390476D02*
X121635771Y-77723809D01*
X121635771Y-77723809D02*
X121635771Y-77580952D01*
X121635771Y-77580952D02*
X121683390Y-77485714D01*
X121683390Y-77485714D02*
X121731009Y-77438095D01*
X121731009Y-77438095D02*
X121826247Y-77390476D01*
X121826247Y-77390476D02*
X122064342Y-77390476D01*
X122064342Y-77390476D02*
X122159580Y-77438095D01*
X122159580Y-77438095D02*
X122207200Y-77485714D01*
X122207200Y-77485714D02*
X122254819Y-77580952D01*
X122254819Y-77580952D02*
X122254819Y-77866666D01*
X122254819Y-77866666D02*
X122207200Y-77961904D01*
X122207200Y-77961904D02*
X122159580Y-78009523D01*
X122350057Y-77200000D02*
X122350057Y-76438095D01*
X121254819Y-76009523D02*
X121254819Y-75819047D01*
X121254819Y-75819047D02*
X121302438Y-75723809D01*
X121302438Y-75723809D02*
X121397676Y-75628571D01*
X121397676Y-75628571D02*
X121588152Y-75580952D01*
X121588152Y-75580952D02*
X121921485Y-75580952D01*
X121921485Y-75580952D02*
X122111961Y-75628571D01*
X122111961Y-75628571D02*
X122207200Y-75723809D01*
X122207200Y-75723809D02*
X122254819Y-75819047D01*
X122254819Y-75819047D02*
X122254819Y-76009523D01*
X122254819Y-76009523D02*
X122207200Y-76104761D01*
X122207200Y-76104761D02*
X122111961Y-76199999D01*
X122111961Y-76199999D02*
X121921485Y-76247618D01*
X121921485Y-76247618D02*
X121588152Y-76247618D01*
X121588152Y-76247618D02*
X121397676Y-76199999D01*
X121397676Y-76199999D02*
X121302438Y-76104761D01*
X121302438Y-76104761D02*
X121254819Y-76009523D01*
X121588152Y-74723809D02*
X122254819Y-74723809D01*
X121588152Y-75152380D02*
X122111961Y-75152380D01*
X122111961Y-75152380D02*
X122207200Y-75104761D01*
X122207200Y-75104761D02*
X122254819Y-75009523D01*
X122254819Y-75009523D02*
X122254819Y-74866666D01*
X122254819Y-74866666D02*
X122207200Y-74771428D01*
X122207200Y-74771428D02*
X122159580Y-74723809D01*
X121588152Y-74390475D02*
X121588152Y-74009523D01*
X121254819Y-74247618D02*
X122111961Y-74247618D01*
X122111961Y-74247618D02*
X122207200Y-74199999D01*
X122207200Y-74199999D02*
X122254819Y-74104761D01*
X122254819Y-74104761D02*
X122254819Y-74009523D01*
X121302438Y-94123810D02*
X121254819Y-94219048D01*
X121254819Y-94219048D02*
X121254819Y-94361905D01*
X121254819Y-94361905D02*
X121302438Y-94504762D01*
X121302438Y-94504762D02*
X121397676Y-94600000D01*
X121397676Y-94600000D02*
X121492914Y-94647619D01*
X121492914Y-94647619D02*
X121683390Y-94695238D01*
X121683390Y-94695238D02*
X121826247Y-94695238D01*
X121826247Y-94695238D02*
X122016723Y-94647619D01*
X122016723Y-94647619D02*
X122111961Y-94600000D01*
X122111961Y-94600000D02*
X122207200Y-94504762D01*
X122207200Y-94504762D02*
X122254819Y-94361905D01*
X122254819Y-94361905D02*
X122254819Y-94266667D01*
X122254819Y-94266667D02*
X122207200Y-94123810D01*
X122207200Y-94123810D02*
X122159580Y-94076191D01*
X122159580Y-94076191D02*
X121826247Y-94076191D01*
X121826247Y-94076191D02*
X121826247Y-94266667D01*
X122254819Y-93219048D02*
X121731009Y-93219048D01*
X121731009Y-93219048D02*
X121635771Y-93266667D01*
X121635771Y-93266667D02*
X121588152Y-93361905D01*
X121588152Y-93361905D02*
X121588152Y-93552381D01*
X121588152Y-93552381D02*
X121635771Y-93647619D01*
X122207200Y-93219048D02*
X122254819Y-93314286D01*
X122254819Y-93314286D02*
X122254819Y-93552381D01*
X122254819Y-93552381D02*
X122207200Y-93647619D01*
X122207200Y-93647619D02*
X122111961Y-93695238D01*
X122111961Y-93695238D02*
X122016723Y-93695238D01*
X122016723Y-93695238D02*
X121921485Y-93647619D01*
X121921485Y-93647619D02*
X121873866Y-93552381D01*
X121873866Y-93552381D02*
X121873866Y-93314286D01*
X121873866Y-93314286D02*
X121826247Y-93219048D01*
X121588152Y-92885714D02*
X121588152Y-92504762D01*
X121254819Y-92742857D02*
X122111961Y-92742857D01*
X122111961Y-92742857D02*
X122207200Y-92695238D01*
X122207200Y-92695238D02*
X122254819Y-92600000D01*
X122254819Y-92600000D02*
X122254819Y-92504762D01*
X122207200Y-91790476D02*
X122254819Y-91885714D01*
X122254819Y-91885714D02*
X122254819Y-92076190D01*
X122254819Y-92076190D02*
X122207200Y-92171428D01*
X122207200Y-92171428D02*
X122111961Y-92219047D01*
X122111961Y-92219047D02*
X121731009Y-92219047D01*
X121731009Y-92219047D02*
X121635771Y-92171428D01*
X121635771Y-92171428D02*
X121588152Y-92076190D01*
X121588152Y-92076190D02*
X121588152Y-91885714D01*
X121588152Y-91885714D02*
X121635771Y-91790476D01*
X121635771Y-91790476D02*
X121731009Y-91742857D01*
X121731009Y-91742857D02*
X121826247Y-91742857D01*
X121826247Y-91742857D02*
X121921485Y-92219047D01*
X121588152Y-90885714D02*
X122254819Y-90885714D01*
X121207200Y-91123809D02*
X121921485Y-91361904D01*
X121921485Y-91361904D02*
X121921485Y-90742857D01*
X122350057Y-90600000D02*
X122350057Y-89838095D01*
X121254819Y-89409523D02*
X121254819Y-89219047D01*
X121254819Y-89219047D02*
X121302438Y-89123809D01*
X121302438Y-89123809D02*
X121397676Y-89028571D01*
X121397676Y-89028571D02*
X121588152Y-88980952D01*
X121588152Y-88980952D02*
X121921485Y-88980952D01*
X121921485Y-88980952D02*
X122111961Y-89028571D01*
X122111961Y-89028571D02*
X122207200Y-89123809D01*
X122207200Y-89123809D02*
X122254819Y-89219047D01*
X122254819Y-89219047D02*
X122254819Y-89409523D01*
X122254819Y-89409523D02*
X122207200Y-89504761D01*
X122207200Y-89504761D02*
X122111961Y-89599999D01*
X122111961Y-89599999D02*
X121921485Y-89647618D01*
X121921485Y-89647618D02*
X121588152Y-89647618D01*
X121588152Y-89647618D02*
X121397676Y-89599999D01*
X121397676Y-89599999D02*
X121302438Y-89504761D01*
X121302438Y-89504761D02*
X121254819Y-89409523D01*
X121588152Y-88123809D02*
X122254819Y-88123809D01*
X121588152Y-88552380D02*
X122111961Y-88552380D01*
X122111961Y-88552380D02*
X122207200Y-88504761D01*
X122207200Y-88504761D02*
X122254819Y-88409523D01*
X122254819Y-88409523D02*
X122254819Y-88266666D01*
X122254819Y-88266666D02*
X122207200Y-88171428D01*
X122207200Y-88171428D02*
X122159580Y-88123809D01*
X121588152Y-87790475D02*
X121588152Y-87409523D01*
X121254819Y-87647618D02*
X122111961Y-87647618D01*
X122111961Y-87647618D02*
X122207200Y-87599999D01*
X122207200Y-87599999D02*
X122254819Y-87504761D01*
X122254819Y-87504761D02*
X122254819Y-87409523D01*
X121302438Y-54923810D02*
X121254819Y-55019048D01*
X121254819Y-55019048D02*
X121254819Y-55161905D01*
X121254819Y-55161905D02*
X121302438Y-55304762D01*
X121302438Y-55304762D02*
X121397676Y-55400000D01*
X121397676Y-55400000D02*
X121492914Y-55447619D01*
X121492914Y-55447619D02*
X121683390Y-55495238D01*
X121683390Y-55495238D02*
X121826247Y-55495238D01*
X121826247Y-55495238D02*
X122016723Y-55447619D01*
X122016723Y-55447619D02*
X122111961Y-55400000D01*
X122111961Y-55400000D02*
X122207200Y-55304762D01*
X122207200Y-55304762D02*
X122254819Y-55161905D01*
X122254819Y-55161905D02*
X122254819Y-55066667D01*
X122254819Y-55066667D02*
X122207200Y-54923810D01*
X122207200Y-54923810D02*
X122159580Y-54876191D01*
X122159580Y-54876191D02*
X121826247Y-54876191D01*
X121826247Y-54876191D02*
X121826247Y-55066667D01*
X122254819Y-54019048D02*
X121731009Y-54019048D01*
X121731009Y-54019048D02*
X121635771Y-54066667D01*
X121635771Y-54066667D02*
X121588152Y-54161905D01*
X121588152Y-54161905D02*
X121588152Y-54352381D01*
X121588152Y-54352381D02*
X121635771Y-54447619D01*
X122207200Y-54019048D02*
X122254819Y-54114286D01*
X122254819Y-54114286D02*
X122254819Y-54352381D01*
X122254819Y-54352381D02*
X122207200Y-54447619D01*
X122207200Y-54447619D02*
X122111961Y-54495238D01*
X122111961Y-54495238D02*
X122016723Y-54495238D01*
X122016723Y-54495238D02*
X121921485Y-54447619D01*
X121921485Y-54447619D02*
X121873866Y-54352381D01*
X121873866Y-54352381D02*
X121873866Y-54114286D01*
X121873866Y-54114286D02*
X121826247Y-54019048D01*
X121588152Y-53685714D02*
X121588152Y-53304762D01*
X121254819Y-53542857D02*
X122111961Y-53542857D01*
X122111961Y-53542857D02*
X122207200Y-53495238D01*
X122207200Y-53495238D02*
X122254819Y-53400000D01*
X122254819Y-53400000D02*
X122254819Y-53304762D01*
X122207200Y-52590476D02*
X122254819Y-52685714D01*
X122254819Y-52685714D02*
X122254819Y-52876190D01*
X122254819Y-52876190D02*
X122207200Y-52971428D01*
X122207200Y-52971428D02*
X122111961Y-53019047D01*
X122111961Y-53019047D02*
X121731009Y-53019047D01*
X121731009Y-53019047D02*
X121635771Y-52971428D01*
X121635771Y-52971428D02*
X121588152Y-52876190D01*
X121588152Y-52876190D02*
X121588152Y-52685714D01*
X121588152Y-52685714D02*
X121635771Y-52590476D01*
X121635771Y-52590476D02*
X121731009Y-52542857D01*
X121731009Y-52542857D02*
X121826247Y-52542857D01*
X121826247Y-52542857D02*
X121921485Y-53019047D01*
X122254819Y-51590476D02*
X122254819Y-52161904D01*
X122254819Y-51876190D02*
X121254819Y-51876190D01*
X121254819Y-51876190D02*
X121397676Y-51971428D01*
X121397676Y-51971428D02*
X121492914Y-52066666D01*
X121492914Y-52066666D02*
X121540533Y-52161904D01*
X122350057Y-51400000D02*
X122350057Y-50638095D01*
X121254819Y-50209523D02*
X121254819Y-50019047D01*
X121254819Y-50019047D02*
X121302438Y-49923809D01*
X121302438Y-49923809D02*
X121397676Y-49828571D01*
X121397676Y-49828571D02*
X121588152Y-49780952D01*
X121588152Y-49780952D02*
X121921485Y-49780952D01*
X121921485Y-49780952D02*
X122111961Y-49828571D01*
X122111961Y-49828571D02*
X122207200Y-49923809D01*
X122207200Y-49923809D02*
X122254819Y-50019047D01*
X122254819Y-50019047D02*
X122254819Y-50209523D01*
X122254819Y-50209523D02*
X122207200Y-50304761D01*
X122207200Y-50304761D02*
X122111961Y-50399999D01*
X122111961Y-50399999D02*
X121921485Y-50447618D01*
X121921485Y-50447618D02*
X121588152Y-50447618D01*
X121588152Y-50447618D02*
X121397676Y-50399999D01*
X121397676Y-50399999D02*
X121302438Y-50304761D01*
X121302438Y-50304761D02*
X121254819Y-50209523D01*
X121588152Y-48923809D02*
X122254819Y-48923809D01*
X121588152Y-49352380D02*
X122111961Y-49352380D01*
X122111961Y-49352380D02*
X122207200Y-49304761D01*
X122207200Y-49304761D02*
X122254819Y-49209523D01*
X122254819Y-49209523D02*
X122254819Y-49066666D01*
X122254819Y-49066666D02*
X122207200Y-48971428D01*
X122207200Y-48971428D02*
X122159580Y-48923809D01*
X121588152Y-48590475D02*
X121588152Y-48209523D01*
X121254819Y-48447618D02*
X122111961Y-48447618D01*
X122111961Y-48447618D02*
X122207200Y-48399999D01*
X122207200Y-48399999D02*
X122254819Y-48304761D01*
X122254819Y-48304761D02*
X122254819Y-48209523D01*
X121302438Y-67723810D02*
X121254819Y-67819048D01*
X121254819Y-67819048D02*
X121254819Y-67961905D01*
X121254819Y-67961905D02*
X121302438Y-68104762D01*
X121302438Y-68104762D02*
X121397676Y-68200000D01*
X121397676Y-68200000D02*
X121492914Y-68247619D01*
X121492914Y-68247619D02*
X121683390Y-68295238D01*
X121683390Y-68295238D02*
X121826247Y-68295238D01*
X121826247Y-68295238D02*
X122016723Y-68247619D01*
X122016723Y-68247619D02*
X122111961Y-68200000D01*
X122111961Y-68200000D02*
X122207200Y-68104762D01*
X122207200Y-68104762D02*
X122254819Y-67961905D01*
X122254819Y-67961905D02*
X122254819Y-67866667D01*
X122254819Y-67866667D02*
X122207200Y-67723810D01*
X122207200Y-67723810D02*
X122159580Y-67676191D01*
X122159580Y-67676191D02*
X121826247Y-67676191D01*
X121826247Y-67676191D02*
X121826247Y-67866667D01*
X122254819Y-66819048D02*
X121731009Y-66819048D01*
X121731009Y-66819048D02*
X121635771Y-66866667D01*
X121635771Y-66866667D02*
X121588152Y-66961905D01*
X121588152Y-66961905D02*
X121588152Y-67152381D01*
X121588152Y-67152381D02*
X121635771Y-67247619D01*
X122207200Y-66819048D02*
X122254819Y-66914286D01*
X122254819Y-66914286D02*
X122254819Y-67152381D01*
X122254819Y-67152381D02*
X122207200Y-67247619D01*
X122207200Y-67247619D02*
X122111961Y-67295238D01*
X122111961Y-67295238D02*
X122016723Y-67295238D01*
X122016723Y-67295238D02*
X121921485Y-67247619D01*
X121921485Y-67247619D02*
X121873866Y-67152381D01*
X121873866Y-67152381D02*
X121873866Y-66914286D01*
X121873866Y-66914286D02*
X121826247Y-66819048D01*
X121588152Y-66485714D02*
X121588152Y-66104762D01*
X121254819Y-66342857D02*
X122111961Y-66342857D01*
X122111961Y-66342857D02*
X122207200Y-66295238D01*
X122207200Y-66295238D02*
X122254819Y-66200000D01*
X122254819Y-66200000D02*
X122254819Y-66104762D01*
X122207200Y-65390476D02*
X122254819Y-65485714D01*
X122254819Y-65485714D02*
X122254819Y-65676190D01*
X122254819Y-65676190D02*
X122207200Y-65771428D01*
X122207200Y-65771428D02*
X122111961Y-65819047D01*
X122111961Y-65819047D02*
X121731009Y-65819047D01*
X121731009Y-65819047D02*
X121635771Y-65771428D01*
X121635771Y-65771428D02*
X121588152Y-65676190D01*
X121588152Y-65676190D02*
X121588152Y-65485714D01*
X121588152Y-65485714D02*
X121635771Y-65390476D01*
X121635771Y-65390476D02*
X121731009Y-65342857D01*
X121731009Y-65342857D02*
X121826247Y-65342857D01*
X121826247Y-65342857D02*
X121921485Y-65819047D01*
X121350057Y-64961904D02*
X121302438Y-64914285D01*
X121302438Y-64914285D02*
X121254819Y-64819047D01*
X121254819Y-64819047D02*
X121254819Y-64580952D01*
X121254819Y-64580952D02*
X121302438Y-64485714D01*
X121302438Y-64485714D02*
X121350057Y-64438095D01*
X121350057Y-64438095D02*
X121445295Y-64390476D01*
X121445295Y-64390476D02*
X121540533Y-64390476D01*
X121540533Y-64390476D02*
X121683390Y-64438095D01*
X121683390Y-64438095D02*
X122254819Y-65009523D01*
X122254819Y-65009523D02*
X122254819Y-64390476D01*
X122350057Y-64200000D02*
X122350057Y-63438095D01*
X121254819Y-63009523D02*
X121254819Y-62819047D01*
X121254819Y-62819047D02*
X121302438Y-62723809D01*
X121302438Y-62723809D02*
X121397676Y-62628571D01*
X121397676Y-62628571D02*
X121588152Y-62580952D01*
X121588152Y-62580952D02*
X121921485Y-62580952D01*
X121921485Y-62580952D02*
X122111961Y-62628571D01*
X122111961Y-62628571D02*
X122207200Y-62723809D01*
X122207200Y-62723809D02*
X122254819Y-62819047D01*
X122254819Y-62819047D02*
X122254819Y-63009523D01*
X122254819Y-63009523D02*
X122207200Y-63104761D01*
X122207200Y-63104761D02*
X122111961Y-63199999D01*
X122111961Y-63199999D02*
X121921485Y-63247618D01*
X121921485Y-63247618D02*
X121588152Y-63247618D01*
X121588152Y-63247618D02*
X121397676Y-63199999D01*
X121397676Y-63199999D02*
X121302438Y-63104761D01*
X121302438Y-63104761D02*
X121254819Y-63009523D01*
X121588152Y-61723809D02*
X122254819Y-61723809D01*
X121588152Y-62152380D02*
X122111961Y-62152380D01*
X122111961Y-62152380D02*
X122207200Y-62104761D01*
X122207200Y-62104761D02*
X122254819Y-62009523D01*
X122254819Y-62009523D02*
X122254819Y-61866666D01*
X122254819Y-61866666D02*
X122207200Y-61771428D01*
X122207200Y-61771428D02*
X122159580Y-61723809D01*
X121588152Y-61390475D02*
X121588152Y-61009523D01*
X121254819Y-61247618D02*
X122111961Y-61247618D01*
X122111961Y-61247618D02*
X122207200Y-61199999D01*
X122207200Y-61199999D02*
X122254819Y-61104761D01*
X122254819Y-61104761D02*
X122254819Y-61009523D01*
X121302438Y-109523810D02*
X121254819Y-109619048D01*
X121254819Y-109619048D02*
X121254819Y-109761905D01*
X121254819Y-109761905D02*
X121302438Y-109904762D01*
X121302438Y-109904762D02*
X121397676Y-110000000D01*
X121397676Y-110000000D02*
X121492914Y-110047619D01*
X121492914Y-110047619D02*
X121683390Y-110095238D01*
X121683390Y-110095238D02*
X121826247Y-110095238D01*
X121826247Y-110095238D02*
X122016723Y-110047619D01*
X122016723Y-110047619D02*
X122111961Y-110000000D01*
X122111961Y-110000000D02*
X122207200Y-109904762D01*
X122207200Y-109904762D02*
X122254819Y-109761905D01*
X122254819Y-109761905D02*
X122254819Y-109666667D01*
X122254819Y-109666667D02*
X122207200Y-109523810D01*
X122207200Y-109523810D02*
X122159580Y-109476191D01*
X122159580Y-109476191D02*
X121826247Y-109476191D01*
X121826247Y-109476191D02*
X121826247Y-109666667D01*
X122254819Y-108619048D02*
X121731009Y-108619048D01*
X121731009Y-108619048D02*
X121635771Y-108666667D01*
X121635771Y-108666667D02*
X121588152Y-108761905D01*
X121588152Y-108761905D02*
X121588152Y-108952381D01*
X121588152Y-108952381D02*
X121635771Y-109047619D01*
X122207200Y-108619048D02*
X122254819Y-108714286D01*
X122254819Y-108714286D02*
X122254819Y-108952381D01*
X122254819Y-108952381D02*
X122207200Y-109047619D01*
X122207200Y-109047619D02*
X122111961Y-109095238D01*
X122111961Y-109095238D02*
X122016723Y-109095238D01*
X122016723Y-109095238D02*
X121921485Y-109047619D01*
X121921485Y-109047619D02*
X121873866Y-108952381D01*
X121873866Y-108952381D02*
X121873866Y-108714286D01*
X121873866Y-108714286D02*
X121826247Y-108619048D01*
X121588152Y-108285714D02*
X121588152Y-107904762D01*
X121254819Y-108142857D02*
X122111961Y-108142857D01*
X122111961Y-108142857D02*
X122207200Y-108095238D01*
X122207200Y-108095238D02*
X122254819Y-108000000D01*
X122254819Y-108000000D02*
X122254819Y-107904762D01*
X122207200Y-107190476D02*
X122254819Y-107285714D01*
X122254819Y-107285714D02*
X122254819Y-107476190D01*
X122254819Y-107476190D02*
X122207200Y-107571428D01*
X122207200Y-107571428D02*
X122111961Y-107619047D01*
X122111961Y-107619047D02*
X121731009Y-107619047D01*
X121731009Y-107619047D02*
X121635771Y-107571428D01*
X121635771Y-107571428D02*
X121588152Y-107476190D01*
X121588152Y-107476190D02*
X121588152Y-107285714D01*
X121588152Y-107285714D02*
X121635771Y-107190476D01*
X121635771Y-107190476D02*
X121731009Y-107142857D01*
X121731009Y-107142857D02*
X121826247Y-107142857D01*
X121826247Y-107142857D02*
X121921485Y-107619047D01*
X121254819Y-106285714D02*
X121254819Y-106476190D01*
X121254819Y-106476190D02*
X121302438Y-106571428D01*
X121302438Y-106571428D02*
X121350057Y-106619047D01*
X121350057Y-106619047D02*
X121492914Y-106714285D01*
X121492914Y-106714285D02*
X121683390Y-106761904D01*
X121683390Y-106761904D02*
X122064342Y-106761904D01*
X122064342Y-106761904D02*
X122159580Y-106714285D01*
X122159580Y-106714285D02*
X122207200Y-106666666D01*
X122207200Y-106666666D02*
X122254819Y-106571428D01*
X122254819Y-106571428D02*
X122254819Y-106380952D01*
X122254819Y-106380952D02*
X122207200Y-106285714D01*
X122207200Y-106285714D02*
X122159580Y-106238095D01*
X122159580Y-106238095D02*
X122064342Y-106190476D01*
X122064342Y-106190476D02*
X121826247Y-106190476D01*
X121826247Y-106190476D02*
X121731009Y-106238095D01*
X121731009Y-106238095D02*
X121683390Y-106285714D01*
X121683390Y-106285714D02*
X121635771Y-106380952D01*
X121635771Y-106380952D02*
X121635771Y-106571428D01*
X121635771Y-106571428D02*
X121683390Y-106666666D01*
X121683390Y-106666666D02*
X121731009Y-106714285D01*
X121731009Y-106714285D02*
X121826247Y-106761904D01*
X122350057Y-106000000D02*
X122350057Y-105238095D01*
X121254819Y-104809523D02*
X121254819Y-104619047D01*
X121254819Y-104619047D02*
X121302438Y-104523809D01*
X121302438Y-104523809D02*
X121397676Y-104428571D01*
X121397676Y-104428571D02*
X121588152Y-104380952D01*
X121588152Y-104380952D02*
X121921485Y-104380952D01*
X121921485Y-104380952D02*
X122111961Y-104428571D01*
X122111961Y-104428571D02*
X122207200Y-104523809D01*
X122207200Y-104523809D02*
X122254819Y-104619047D01*
X122254819Y-104619047D02*
X122254819Y-104809523D01*
X122254819Y-104809523D02*
X122207200Y-104904761D01*
X122207200Y-104904761D02*
X122111961Y-104999999D01*
X122111961Y-104999999D02*
X121921485Y-105047618D01*
X121921485Y-105047618D02*
X121588152Y-105047618D01*
X121588152Y-105047618D02*
X121397676Y-104999999D01*
X121397676Y-104999999D02*
X121302438Y-104904761D01*
X121302438Y-104904761D02*
X121254819Y-104809523D01*
X121588152Y-103523809D02*
X122254819Y-103523809D01*
X121588152Y-103952380D02*
X122111961Y-103952380D01*
X122111961Y-103952380D02*
X122207200Y-103904761D01*
X122207200Y-103904761D02*
X122254819Y-103809523D01*
X122254819Y-103809523D02*
X122254819Y-103666666D01*
X122254819Y-103666666D02*
X122207200Y-103571428D01*
X122207200Y-103571428D02*
X122159580Y-103523809D01*
X121588152Y-103190475D02*
X121588152Y-102809523D01*
X121254819Y-103047618D02*
X122111961Y-103047618D01*
X122111961Y-103047618D02*
X122207200Y-102999999D01*
X122207200Y-102999999D02*
X122254819Y-102904761D01*
X122254819Y-102904761D02*
X122254819Y-102809523D01*
X118359580Y-67138095D02*
X118407200Y-67185714D01*
X118407200Y-67185714D02*
X118454819Y-67328571D01*
X118454819Y-67328571D02*
X118454819Y-67423809D01*
X118454819Y-67423809D02*
X118407200Y-67566666D01*
X118407200Y-67566666D02*
X118311961Y-67661904D01*
X118311961Y-67661904D02*
X118216723Y-67709523D01*
X118216723Y-67709523D02*
X118026247Y-67757142D01*
X118026247Y-67757142D02*
X117883390Y-67757142D01*
X117883390Y-67757142D02*
X117692914Y-67709523D01*
X117692914Y-67709523D02*
X117597676Y-67661904D01*
X117597676Y-67661904D02*
X117502438Y-67566666D01*
X117502438Y-67566666D02*
X117454819Y-67423809D01*
X117454819Y-67423809D02*
X117454819Y-67328571D01*
X117454819Y-67328571D02*
X117502438Y-67185714D01*
X117502438Y-67185714D02*
X117550057Y-67138095D01*
X117454819Y-66852380D02*
X118454819Y-66519047D01*
X118454819Y-66519047D02*
X117454819Y-66185714D01*
X117550057Y-65899999D02*
X117502438Y-65852380D01*
X117502438Y-65852380D02*
X117454819Y-65757142D01*
X117454819Y-65757142D02*
X117454819Y-65519047D01*
X117454819Y-65519047D02*
X117502438Y-65423809D01*
X117502438Y-65423809D02*
X117550057Y-65376190D01*
X117550057Y-65376190D02*
X117645295Y-65328571D01*
X117645295Y-65328571D02*
X117740533Y-65328571D01*
X117740533Y-65328571D02*
X117883390Y-65376190D01*
X117883390Y-65376190D02*
X118454819Y-65947618D01*
X118454819Y-65947618D02*
X118454819Y-65328571D01*
X118550057Y-65138095D02*
X118550057Y-64376190D01*
X117454819Y-63947618D02*
X117454819Y-63757142D01*
X117454819Y-63757142D02*
X117502438Y-63661904D01*
X117502438Y-63661904D02*
X117597676Y-63566666D01*
X117597676Y-63566666D02*
X117788152Y-63519047D01*
X117788152Y-63519047D02*
X118121485Y-63519047D01*
X118121485Y-63519047D02*
X118311961Y-63566666D01*
X118311961Y-63566666D02*
X118407200Y-63661904D01*
X118407200Y-63661904D02*
X118454819Y-63757142D01*
X118454819Y-63757142D02*
X118454819Y-63947618D01*
X118454819Y-63947618D02*
X118407200Y-64042856D01*
X118407200Y-64042856D02*
X118311961Y-64138094D01*
X118311961Y-64138094D02*
X118121485Y-64185713D01*
X118121485Y-64185713D02*
X117788152Y-64185713D01*
X117788152Y-64185713D02*
X117597676Y-64138094D01*
X117597676Y-64138094D02*
X117502438Y-64042856D01*
X117502438Y-64042856D02*
X117454819Y-63947618D01*
X117788152Y-62661904D02*
X118454819Y-62661904D01*
X117788152Y-63090475D02*
X118311961Y-63090475D01*
X118311961Y-63090475D02*
X118407200Y-63042856D01*
X118407200Y-63042856D02*
X118454819Y-62947618D01*
X118454819Y-62947618D02*
X118454819Y-62804761D01*
X118454819Y-62804761D02*
X118407200Y-62709523D01*
X118407200Y-62709523D02*
X118359580Y-62661904D01*
X117788152Y-62328570D02*
X117788152Y-61947618D01*
X117454819Y-62185713D02*
X118311961Y-62185713D01*
X118311961Y-62185713D02*
X118407200Y-62138094D01*
X118407200Y-62138094D02*
X118454819Y-62042856D01*
X118454819Y-62042856D02*
X118454819Y-61947618D01*
X121302438Y-122223810D02*
X121254819Y-122319048D01*
X121254819Y-122319048D02*
X121254819Y-122461905D01*
X121254819Y-122461905D02*
X121302438Y-122604762D01*
X121302438Y-122604762D02*
X121397676Y-122700000D01*
X121397676Y-122700000D02*
X121492914Y-122747619D01*
X121492914Y-122747619D02*
X121683390Y-122795238D01*
X121683390Y-122795238D02*
X121826247Y-122795238D01*
X121826247Y-122795238D02*
X122016723Y-122747619D01*
X122016723Y-122747619D02*
X122111961Y-122700000D01*
X122111961Y-122700000D02*
X122207200Y-122604762D01*
X122207200Y-122604762D02*
X122254819Y-122461905D01*
X122254819Y-122461905D02*
X122254819Y-122366667D01*
X122254819Y-122366667D02*
X122207200Y-122223810D01*
X122207200Y-122223810D02*
X122159580Y-122176191D01*
X122159580Y-122176191D02*
X121826247Y-122176191D01*
X121826247Y-122176191D02*
X121826247Y-122366667D01*
X122254819Y-121319048D02*
X121731009Y-121319048D01*
X121731009Y-121319048D02*
X121635771Y-121366667D01*
X121635771Y-121366667D02*
X121588152Y-121461905D01*
X121588152Y-121461905D02*
X121588152Y-121652381D01*
X121588152Y-121652381D02*
X121635771Y-121747619D01*
X122207200Y-121319048D02*
X122254819Y-121414286D01*
X122254819Y-121414286D02*
X122254819Y-121652381D01*
X122254819Y-121652381D02*
X122207200Y-121747619D01*
X122207200Y-121747619D02*
X122111961Y-121795238D01*
X122111961Y-121795238D02*
X122016723Y-121795238D01*
X122016723Y-121795238D02*
X121921485Y-121747619D01*
X121921485Y-121747619D02*
X121873866Y-121652381D01*
X121873866Y-121652381D02*
X121873866Y-121414286D01*
X121873866Y-121414286D02*
X121826247Y-121319048D01*
X121588152Y-120985714D02*
X121588152Y-120604762D01*
X121254819Y-120842857D02*
X122111961Y-120842857D01*
X122111961Y-120842857D02*
X122207200Y-120795238D01*
X122207200Y-120795238D02*
X122254819Y-120700000D01*
X122254819Y-120700000D02*
X122254819Y-120604762D01*
X122207200Y-119890476D02*
X122254819Y-119985714D01*
X122254819Y-119985714D02*
X122254819Y-120176190D01*
X122254819Y-120176190D02*
X122207200Y-120271428D01*
X122207200Y-120271428D02*
X122111961Y-120319047D01*
X122111961Y-120319047D02*
X121731009Y-120319047D01*
X121731009Y-120319047D02*
X121635771Y-120271428D01*
X121635771Y-120271428D02*
X121588152Y-120176190D01*
X121588152Y-120176190D02*
X121588152Y-119985714D01*
X121588152Y-119985714D02*
X121635771Y-119890476D01*
X121635771Y-119890476D02*
X121731009Y-119842857D01*
X121731009Y-119842857D02*
X121826247Y-119842857D01*
X121826247Y-119842857D02*
X121921485Y-120319047D01*
X121683390Y-119271428D02*
X121635771Y-119366666D01*
X121635771Y-119366666D02*
X121588152Y-119414285D01*
X121588152Y-119414285D02*
X121492914Y-119461904D01*
X121492914Y-119461904D02*
X121445295Y-119461904D01*
X121445295Y-119461904D02*
X121350057Y-119414285D01*
X121350057Y-119414285D02*
X121302438Y-119366666D01*
X121302438Y-119366666D02*
X121254819Y-119271428D01*
X121254819Y-119271428D02*
X121254819Y-119080952D01*
X121254819Y-119080952D02*
X121302438Y-118985714D01*
X121302438Y-118985714D02*
X121350057Y-118938095D01*
X121350057Y-118938095D02*
X121445295Y-118890476D01*
X121445295Y-118890476D02*
X121492914Y-118890476D01*
X121492914Y-118890476D02*
X121588152Y-118938095D01*
X121588152Y-118938095D02*
X121635771Y-118985714D01*
X121635771Y-118985714D02*
X121683390Y-119080952D01*
X121683390Y-119080952D02*
X121683390Y-119271428D01*
X121683390Y-119271428D02*
X121731009Y-119366666D01*
X121731009Y-119366666D02*
X121778628Y-119414285D01*
X121778628Y-119414285D02*
X121873866Y-119461904D01*
X121873866Y-119461904D02*
X122064342Y-119461904D01*
X122064342Y-119461904D02*
X122159580Y-119414285D01*
X122159580Y-119414285D02*
X122207200Y-119366666D01*
X122207200Y-119366666D02*
X122254819Y-119271428D01*
X122254819Y-119271428D02*
X122254819Y-119080952D01*
X122254819Y-119080952D02*
X122207200Y-118985714D01*
X122207200Y-118985714D02*
X122159580Y-118938095D01*
X122159580Y-118938095D02*
X122064342Y-118890476D01*
X122064342Y-118890476D02*
X121873866Y-118890476D01*
X121873866Y-118890476D02*
X121778628Y-118938095D01*
X121778628Y-118938095D02*
X121731009Y-118985714D01*
X121731009Y-118985714D02*
X121683390Y-119080952D01*
X122350057Y-118700000D02*
X122350057Y-117938095D01*
X121254819Y-117509523D02*
X121254819Y-117319047D01*
X121254819Y-117319047D02*
X121302438Y-117223809D01*
X121302438Y-117223809D02*
X121397676Y-117128571D01*
X121397676Y-117128571D02*
X121588152Y-117080952D01*
X121588152Y-117080952D02*
X121921485Y-117080952D01*
X121921485Y-117080952D02*
X122111961Y-117128571D01*
X122111961Y-117128571D02*
X122207200Y-117223809D01*
X122207200Y-117223809D02*
X122254819Y-117319047D01*
X122254819Y-117319047D02*
X122254819Y-117509523D01*
X122254819Y-117509523D02*
X122207200Y-117604761D01*
X122207200Y-117604761D02*
X122111961Y-117699999D01*
X122111961Y-117699999D02*
X121921485Y-117747618D01*
X121921485Y-117747618D02*
X121588152Y-117747618D01*
X121588152Y-117747618D02*
X121397676Y-117699999D01*
X121397676Y-117699999D02*
X121302438Y-117604761D01*
X121302438Y-117604761D02*
X121254819Y-117509523D01*
X121588152Y-116223809D02*
X122254819Y-116223809D01*
X121588152Y-116652380D02*
X122111961Y-116652380D01*
X122111961Y-116652380D02*
X122207200Y-116604761D01*
X122207200Y-116604761D02*
X122254819Y-116509523D01*
X122254819Y-116509523D02*
X122254819Y-116366666D01*
X122254819Y-116366666D02*
X122207200Y-116271428D01*
X122207200Y-116271428D02*
X122159580Y-116223809D01*
X121588152Y-115890475D02*
X121588152Y-115509523D01*
X121254819Y-115747618D02*
X122111961Y-115747618D01*
X122111961Y-115747618D02*
X122207200Y-115699999D01*
X122207200Y-115699999D02*
X122254819Y-115604761D01*
X122254819Y-115604761D02*
X122254819Y-115509523D01*
X118359580Y-93638095D02*
X118407200Y-93685714D01*
X118407200Y-93685714D02*
X118454819Y-93828571D01*
X118454819Y-93828571D02*
X118454819Y-93923809D01*
X118454819Y-93923809D02*
X118407200Y-94066666D01*
X118407200Y-94066666D02*
X118311961Y-94161904D01*
X118311961Y-94161904D02*
X118216723Y-94209523D01*
X118216723Y-94209523D02*
X118026247Y-94257142D01*
X118026247Y-94257142D02*
X117883390Y-94257142D01*
X117883390Y-94257142D02*
X117692914Y-94209523D01*
X117692914Y-94209523D02*
X117597676Y-94161904D01*
X117597676Y-94161904D02*
X117502438Y-94066666D01*
X117502438Y-94066666D02*
X117454819Y-93923809D01*
X117454819Y-93923809D02*
X117454819Y-93828571D01*
X117454819Y-93828571D02*
X117502438Y-93685714D01*
X117502438Y-93685714D02*
X117550057Y-93638095D01*
X117454819Y-93352380D02*
X118454819Y-93019047D01*
X118454819Y-93019047D02*
X117454819Y-92685714D01*
X117788152Y-91923809D02*
X118454819Y-91923809D01*
X117407200Y-92161904D02*
X118121485Y-92399999D01*
X118121485Y-92399999D02*
X118121485Y-91780952D01*
X118550057Y-91638095D02*
X118550057Y-90876190D01*
X117454819Y-90447618D02*
X117454819Y-90257142D01*
X117454819Y-90257142D02*
X117502438Y-90161904D01*
X117502438Y-90161904D02*
X117597676Y-90066666D01*
X117597676Y-90066666D02*
X117788152Y-90019047D01*
X117788152Y-90019047D02*
X118121485Y-90019047D01*
X118121485Y-90019047D02*
X118311961Y-90066666D01*
X118311961Y-90066666D02*
X118407200Y-90161904D01*
X118407200Y-90161904D02*
X118454819Y-90257142D01*
X118454819Y-90257142D02*
X118454819Y-90447618D01*
X118454819Y-90447618D02*
X118407200Y-90542856D01*
X118407200Y-90542856D02*
X118311961Y-90638094D01*
X118311961Y-90638094D02*
X118121485Y-90685713D01*
X118121485Y-90685713D02*
X117788152Y-90685713D01*
X117788152Y-90685713D02*
X117597676Y-90638094D01*
X117597676Y-90638094D02*
X117502438Y-90542856D01*
X117502438Y-90542856D02*
X117454819Y-90447618D01*
X117788152Y-89161904D02*
X118454819Y-89161904D01*
X117788152Y-89590475D02*
X118311961Y-89590475D01*
X118311961Y-89590475D02*
X118407200Y-89542856D01*
X118407200Y-89542856D02*
X118454819Y-89447618D01*
X118454819Y-89447618D02*
X118454819Y-89304761D01*
X118454819Y-89304761D02*
X118407200Y-89209523D01*
X118407200Y-89209523D02*
X118359580Y-89161904D01*
X117788152Y-88828570D02*
X117788152Y-88447618D01*
X117454819Y-88685713D02*
X118311961Y-88685713D01*
X118311961Y-88685713D02*
X118407200Y-88638094D01*
X118407200Y-88638094D02*
X118454819Y-88542856D01*
X118454819Y-88542856D02*
X118454819Y-88447618D01*
X118359580Y-80338095D02*
X118407200Y-80385714D01*
X118407200Y-80385714D02*
X118454819Y-80528571D01*
X118454819Y-80528571D02*
X118454819Y-80623809D01*
X118454819Y-80623809D02*
X118407200Y-80766666D01*
X118407200Y-80766666D02*
X118311961Y-80861904D01*
X118311961Y-80861904D02*
X118216723Y-80909523D01*
X118216723Y-80909523D02*
X118026247Y-80957142D01*
X118026247Y-80957142D02*
X117883390Y-80957142D01*
X117883390Y-80957142D02*
X117692914Y-80909523D01*
X117692914Y-80909523D02*
X117597676Y-80861904D01*
X117597676Y-80861904D02*
X117502438Y-80766666D01*
X117502438Y-80766666D02*
X117454819Y-80623809D01*
X117454819Y-80623809D02*
X117454819Y-80528571D01*
X117454819Y-80528571D02*
X117502438Y-80385714D01*
X117502438Y-80385714D02*
X117550057Y-80338095D01*
X117454819Y-80052380D02*
X118454819Y-79719047D01*
X118454819Y-79719047D02*
X117454819Y-79385714D01*
X117454819Y-79147618D02*
X117454819Y-78528571D01*
X117454819Y-78528571D02*
X117835771Y-78861904D01*
X117835771Y-78861904D02*
X117835771Y-78719047D01*
X117835771Y-78719047D02*
X117883390Y-78623809D01*
X117883390Y-78623809D02*
X117931009Y-78576190D01*
X117931009Y-78576190D02*
X118026247Y-78528571D01*
X118026247Y-78528571D02*
X118264342Y-78528571D01*
X118264342Y-78528571D02*
X118359580Y-78576190D01*
X118359580Y-78576190D02*
X118407200Y-78623809D01*
X118407200Y-78623809D02*
X118454819Y-78719047D01*
X118454819Y-78719047D02*
X118454819Y-79004761D01*
X118454819Y-79004761D02*
X118407200Y-79099999D01*
X118407200Y-79099999D02*
X118359580Y-79147618D01*
X118550057Y-78338095D02*
X118550057Y-77576190D01*
X117454819Y-77147618D02*
X117454819Y-76957142D01*
X117454819Y-76957142D02*
X117502438Y-76861904D01*
X117502438Y-76861904D02*
X117597676Y-76766666D01*
X117597676Y-76766666D02*
X117788152Y-76719047D01*
X117788152Y-76719047D02*
X118121485Y-76719047D01*
X118121485Y-76719047D02*
X118311961Y-76766666D01*
X118311961Y-76766666D02*
X118407200Y-76861904D01*
X118407200Y-76861904D02*
X118454819Y-76957142D01*
X118454819Y-76957142D02*
X118454819Y-77147618D01*
X118454819Y-77147618D02*
X118407200Y-77242856D01*
X118407200Y-77242856D02*
X118311961Y-77338094D01*
X118311961Y-77338094D02*
X118121485Y-77385713D01*
X118121485Y-77385713D02*
X117788152Y-77385713D01*
X117788152Y-77385713D02*
X117597676Y-77338094D01*
X117597676Y-77338094D02*
X117502438Y-77242856D01*
X117502438Y-77242856D02*
X117454819Y-77147618D01*
X117788152Y-75861904D02*
X118454819Y-75861904D01*
X117788152Y-76290475D02*
X118311961Y-76290475D01*
X118311961Y-76290475D02*
X118407200Y-76242856D01*
X118407200Y-76242856D02*
X118454819Y-76147618D01*
X118454819Y-76147618D02*
X118454819Y-76004761D01*
X118454819Y-76004761D02*
X118407200Y-75909523D01*
X118407200Y-75909523D02*
X118359580Y-75861904D01*
X117788152Y-75528570D02*
X117788152Y-75147618D01*
X117454819Y-75385713D02*
X118311961Y-75385713D01*
X118311961Y-75385713D02*
X118407200Y-75338094D01*
X118407200Y-75338094D02*
X118454819Y-75242856D01*
X118454819Y-75242856D02*
X118454819Y-75147618D01*
X117502438Y-122223810D02*
X117454819Y-122319048D01*
X117454819Y-122319048D02*
X117454819Y-122461905D01*
X117454819Y-122461905D02*
X117502438Y-122604762D01*
X117502438Y-122604762D02*
X117597676Y-122700000D01*
X117597676Y-122700000D02*
X117692914Y-122747619D01*
X117692914Y-122747619D02*
X117883390Y-122795238D01*
X117883390Y-122795238D02*
X118026247Y-122795238D01*
X118026247Y-122795238D02*
X118216723Y-122747619D01*
X118216723Y-122747619D02*
X118311961Y-122700000D01*
X118311961Y-122700000D02*
X118407200Y-122604762D01*
X118407200Y-122604762D02*
X118454819Y-122461905D01*
X118454819Y-122461905D02*
X118454819Y-122366667D01*
X118454819Y-122366667D02*
X118407200Y-122223810D01*
X118407200Y-122223810D02*
X118359580Y-122176191D01*
X118359580Y-122176191D02*
X118026247Y-122176191D01*
X118026247Y-122176191D02*
X118026247Y-122366667D01*
X118454819Y-121319048D02*
X117931009Y-121319048D01*
X117931009Y-121319048D02*
X117835771Y-121366667D01*
X117835771Y-121366667D02*
X117788152Y-121461905D01*
X117788152Y-121461905D02*
X117788152Y-121652381D01*
X117788152Y-121652381D02*
X117835771Y-121747619D01*
X118407200Y-121319048D02*
X118454819Y-121414286D01*
X118454819Y-121414286D02*
X118454819Y-121652381D01*
X118454819Y-121652381D02*
X118407200Y-121747619D01*
X118407200Y-121747619D02*
X118311961Y-121795238D01*
X118311961Y-121795238D02*
X118216723Y-121795238D01*
X118216723Y-121795238D02*
X118121485Y-121747619D01*
X118121485Y-121747619D02*
X118073866Y-121652381D01*
X118073866Y-121652381D02*
X118073866Y-121414286D01*
X118073866Y-121414286D02*
X118026247Y-121319048D01*
X117788152Y-120985714D02*
X117788152Y-120604762D01*
X117454819Y-120842857D02*
X118311961Y-120842857D01*
X118311961Y-120842857D02*
X118407200Y-120795238D01*
X118407200Y-120795238D02*
X118454819Y-120700000D01*
X118454819Y-120700000D02*
X118454819Y-120604762D01*
X118407200Y-119890476D02*
X118454819Y-119985714D01*
X118454819Y-119985714D02*
X118454819Y-120176190D01*
X118454819Y-120176190D02*
X118407200Y-120271428D01*
X118407200Y-120271428D02*
X118311961Y-120319047D01*
X118311961Y-120319047D02*
X117931009Y-120319047D01*
X117931009Y-120319047D02*
X117835771Y-120271428D01*
X117835771Y-120271428D02*
X117788152Y-120176190D01*
X117788152Y-120176190D02*
X117788152Y-119985714D01*
X117788152Y-119985714D02*
X117835771Y-119890476D01*
X117835771Y-119890476D02*
X117931009Y-119842857D01*
X117931009Y-119842857D02*
X118026247Y-119842857D01*
X118026247Y-119842857D02*
X118121485Y-120319047D01*
X117454819Y-119509523D02*
X117454819Y-118842857D01*
X117454819Y-118842857D02*
X118454819Y-119271428D01*
X118550057Y-118700000D02*
X118550057Y-117938095D01*
X117454819Y-117509523D02*
X117454819Y-117319047D01*
X117454819Y-117319047D02*
X117502438Y-117223809D01*
X117502438Y-117223809D02*
X117597676Y-117128571D01*
X117597676Y-117128571D02*
X117788152Y-117080952D01*
X117788152Y-117080952D02*
X118121485Y-117080952D01*
X118121485Y-117080952D02*
X118311961Y-117128571D01*
X118311961Y-117128571D02*
X118407200Y-117223809D01*
X118407200Y-117223809D02*
X118454819Y-117319047D01*
X118454819Y-117319047D02*
X118454819Y-117509523D01*
X118454819Y-117509523D02*
X118407200Y-117604761D01*
X118407200Y-117604761D02*
X118311961Y-117699999D01*
X118311961Y-117699999D02*
X118121485Y-117747618D01*
X118121485Y-117747618D02*
X117788152Y-117747618D01*
X117788152Y-117747618D02*
X117597676Y-117699999D01*
X117597676Y-117699999D02*
X117502438Y-117604761D01*
X117502438Y-117604761D02*
X117454819Y-117509523D01*
X117788152Y-116223809D02*
X118454819Y-116223809D01*
X117788152Y-116652380D02*
X118311961Y-116652380D01*
X118311961Y-116652380D02*
X118407200Y-116604761D01*
X118407200Y-116604761D02*
X118454819Y-116509523D01*
X118454819Y-116509523D02*
X118454819Y-116366666D01*
X118454819Y-116366666D02*
X118407200Y-116271428D01*
X118407200Y-116271428D02*
X118359580Y-116223809D01*
X117788152Y-115890475D02*
X117788152Y-115509523D01*
X117454819Y-115747618D02*
X118311961Y-115747618D01*
X118311961Y-115747618D02*
X118407200Y-115699999D01*
X118407200Y-115699999D02*
X118454819Y-115604761D01*
X118454819Y-115604761D02*
X118454819Y-115509523D01*
X118359580Y-54338095D02*
X118407200Y-54385714D01*
X118407200Y-54385714D02*
X118454819Y-54528571D01*
X118454819Y-54528571D02*
X118454819Y-54623809D01*
X118454819Y-54623809D02*
X118407200Y-54766666D01*
X118407200Y-54766666D02*
X118311961Y-54861904D01*
X118311961Y-54861904D02*
X118216723Y-54909523D01*
X118216723Y-54909523D02*
X118026247Y-54957142D01*
X118026247Y-54957142D02*
X117883390Y-54957142D01*
X117883390Y-54957142D02*
X117692914Y-54909523D01*
X117692914Y-54909523D02*
X117597676Y-54861904D01*
X117597676Y-54861904D02*
X117502438Y-54766666D01*
X117502438Y-54766666D02*
X117454819Y-54623809D01*
X117454819Y-54623809D02*
X117454819Y-54528571D01*
X117454819Y-54528571D02*
X117502438Y-54385714D01*
X117502438Y-54385714D02*
X117550057Y-54338095D01*
X117454819Y-54052380D02*
X118454819Y-53719047D01*
X118454819Y-53719047D02*
X117454819Y-53385714D01*
X118454819Y-52528571D02*
X118454819Y-53099999D01*
X118454819Y-52814285D02*
X117454819Y-52814285D01*
X117454819Y-52814285D02*
X117597676Y-52909523D01*
X117597676Y-52909523D02*
X117692914Y-53004761D01*
X117692914Y-53004761D02*
X117740533Y-53099999D01*
X118550057Y-52338095D02*
X118550057Y-51576190D01*
X117454819Y-51147618D02*
X117454819Y-50957142D01*
X117454819Y-50957142D02*
X117502438Y-50861904D01*
X117502438Y-50861904D02*
X117597676Y-50766666D01*
X117597676Y-50766666D02*
X117788152Y-50719047D01*
X117788152Y-50719047D02*
X118121485Y-50719047D01*
X118121485Y-50719047D02*
X118311961Y-50766666D01*
X118311961Y-50766666D02*
X118407200Y-50861904D01*
X118407200Y-50861904D02*
X118454819Y-50957142D01*
X118454819Y-50957142D02*
X118454819Y-51147618D01*
X118454819Y-51147618D02*
X118407200Y-51242856D01*
X118407200Y-51242856D02*
X118311961Y-51338094D01*
X118311961Y-51338094D02*
X118121485Y-51385713D01*
X118121485Y-51385713D02*
X117788152Y-51385713D01*
X117788152Y-51385713D02*
X117597676Y-51338094D01*
X117597676Y-51338094D02*
X117502438Y-51242856D01*
X117502438Y-51242856D02*
X117454819Y-51147618D01*
X117788152Y-49861904D02*
X118454819Y-49861904D01*
X117788152Y-50290475D02*
X118311961Y-50290475D01*
X118311961Y-50290475D02*
X118407200Y-50242856D01*
X118407200Y-50242856D02*
X118454819Y-50147618D01*
X118454819Y-50147618D02*
X118454819Y-50004761D01*
X118454819Y-50004761D02*
X118407200Y-49909523D01*
X118407200Y-49909523D02*
X118359580Y-49861904D01*
X117788152Y-49528570D02*
X117788152Y-49147618D01*
X117454819Y-49385713D02*
X118311961Y-49385713D01*
X118311961Y-49385713D02*
X118407200Y-49338094D01*
X118407200Y-49338094D02*
X118454819Y-49242856D01*
X118454819Y-49242856D02*
X118454819Y-49147618D01*
X117502438Y-109623810D02*
X117454819Y-109719048D01*
X117454819Y-109719048D02*
X117454819Y-109861905D01*
X117454819Y-109861905D02*
X117502438Y-110004762D01*
X117502438Y-110004762D02*
X117597676Y-110100000D01*
X117597676Y-110100000D02*
X117692914Y-110147619D01*
X117692914Y-110147619D02*
X117883390Y-110195238D01*
X117883390Y-110195238D02*
X118026247Y-110195238D01*
X118026247Y-110195238D02*
X118216723Y-110147619D01*
X118216723Y-110147619D02*
X118311961Y-110100000D01*
X118311961Y-110100000D02*
X118407200Y-110004762D01*
X118407200Y-110004762D02*
X118454819Y-109861905D01*
X118454819Y-109861905D02*
X118454819Y-109766667D01*
X118454819Y-109766667D02*
X118407200Y-109623810D01*
X118407200Y-109623810D02*
X118359580Y-109576191D01*
X118359580Y-109576191D02*
X118026247Y-109576191D01*
X118026247Y-109576191D02*
X118026247Y-109766667D01*
X118454819Y-108719048D02*
X117931009Y-108719048D01*
X117931009Y-108719048D02*
X117835771Y-108766667D01*
X117835771Y-108766667D02*
X117788152Y-108861905D01*
X117788152Y-108861905D02*
X117788152Y-109052381D01*
X117788152Y-109052381D02*
X117835771Y-109147619D01*
X118407200Y-108719048D02*
X118454819Y-108814286D01*
X118454819Y-108814286D02*
X118454819Y-109052381D01*
X118454819Y-109052381D02*
X118407200Y-109147619D01*
X118407200Y-109147619D02*
X118311961Y-109195238D01*
X118311961Y-109195238D02*
X118216723Y-109195238D01*
X118216723Y-109195238D02*
X118121485Y-109147619D01*
X118121485Y-109147619D02*
X118073866Y-109052381D01*
X118073866Y-109052381D02*
X118073866Y-108814286D01*
X118073866Y-108814286D02*
X118026247Y-108719048D01*
X117788152Y-108385714D02*
X117788152Y-108004762D01*
X117454819Y-108242857D02*
X118311961Y-108242857D01*
X118311961Y-108242857D02*
X118407200Y-108195238D01*
X118407200Y-108195238D02*
X118454819Y-108100000D01*
X118454819Y-108100000D02*
X118454819Y-108004762D01*
X118407200Y-107290476D02*
X118454819Y-107385714D01*
X118454819Y-107385714D02*
X118454819Y-107576190D01*
X118454819Y-107576190D02*
X118407200Y-107671428D01*
X118407200Y-107671428D02*
X118311961Y-107719047D01*
X118311961Y-107719047D02*
X117931009Y-107719047D01*
X117931009Y-107719047D02*
X117835771Y-107671428D01*
X117835771Y-107671428D02*
X117788152Y-107576190D01*
X117788152Y-107576190D02*
X117788152Y-107385714D01*
X117788152Y-107385714D02*
X117835771Y-107290476D01*
X117835771Y-107290476D02*
X117931009Y-107242857D01*
X117931009Y-107242857D02*
X118026247Y-107242857D01*
X118026247Y-107242857D02*
X118121485Y-107719047D01*
X117454819Y-106338095D02*
X117454819Y-106814285D01*
X117454819Y-106814285D02*
X117931009Y-106861904D01*
X117931009Y-106861904D02*
X117883390Y-106814285D01*
X117883390Y-106814285D02*
X117835771Y-106719047D01*
X117835771Y-106719047D02*
X117835771Y-106480952D01*
X117835771Y-106480952D02*
X117883390Y-106385714D01*
X117883390Y-106385714D02*
X117931009Y-106338095D01*
X117931009Y-106338095D02*
X118026247Y-106290476D01*
X118026247Y-106290476D02*
X118264342Y-106290476D01*
X118264342Y-106290476D02*
X118359580Y-106338095D01*
X118359580Y-106338095D02*
X118407200Y-106385714D01*
X118407200Y-106385714D02*
X118454819Y-106480952D01*
X118454819Y-106480952D02*
X118454819Y-106719047D01*
X118454819Y-106719047D02*
X118407200Y-106814285D01*
X118407200Y-106814285D02*
X118359580Y-106861904D01*
X118550057Y-106100000D02*
X118550057Y-105338095D01*
X117454819Y-104909523D02*
X117454819Y-104719047D01*
X117454819Y-104719047D02*
X117502438Y-104623809D01*
X117502438Y-104623809D02*
X117597676Y-104528571D01*
X117597676Y-104528571D02*
X117788152Y-104480952D01*
X117788152Y-104480952D02*
X118121485Y-104480952D01*
X118121485Y-104480952D02*
X118311961Y-104528571D01*
X118311961Y-104528571D02*
X118407200Y-104623809D01*
X118407200Y-104623809D02*
X118454819Y-104719047D01*
X118454819Y-104719047D02*
X118454819Y-104909523D01*
X118454819Y-104909523D02*
X118407200Y-105004761D01*
X118407200Y-105004761D02*
X118311961Y-105099999D01*
X118311961Y-105099999D02*
X118121485Y-105147618D01*
X118121485Y-105147618D02*
X117788152Y-105147618D01*
X117788152Y-105147618D02*
X117597676Y-105099999D01*
X117597676Y-105099999D02*
X117502438Y-105004761D01*
X117502438Y-105004761D02*
X117454819Y-104909523D01*
X117788152Y-103623809D02*
X118454819Y-103623809D01*
X117788152Y-104052380D02*
X118311961Y-104052380D01*
X118311961Y-104052380D02*
X118407200Y-104004761D01*
X118407200Y-104004761D02*
X118454819Y-103909523D01*
X118454819Y-103909523D02*
X118454819Y-103766666D01*
X118454819Y-103766666D02*
X118407200Y-103671428D01*
X118407200Y-103671428D02*
X118359580Y-103623809D01*
X117788152Y-103290475D02*
X117788152Y-102909523D01*
X117454819Y-103147618D02*
X118311961Y-103147618D01*
X118311961Y-103147618D02*
X118407200Y-103099999D01*
X118407200Y-103099999D02*
X118454819Y-103004761D01*
X118454819Y-103004761D02*
X118454819Y-102909523D01*
D11*
X133264000Y-53960000D02*
X133420000Y-53960000D01*
X135580000Y-53960000D02*
X135736000Y-53960000D01*
X133264484Y-53960000D02*
G75*
G02*
X133421392Y-50727665I1235517J1560000D01*
G01*
X133420000Y-53440961D02*
G75*
G02*
X133420163Y-51358870I1080000J1040961D01*
G01*
X135578608Y-50727665D02*
G75*
G02*
X135735516Y-53960000I-1078609J-1672335D01*
G01*
X135579837Y-51358870D02*
G75*
G02*
X135580000Y-53440961I-1079837J-1041130D01*
G01*
X133264000Y-67060000D02*
X133420000Y-67060000D01*
X135580000Y-67060000D02*
X135736000Y-67060000D01*
X133264484Y-67060000D02*
G75*
G02*
X133421392Y-63827665I1235517J1560000D01*
G01*
X133420000Y-66540961D02*
G75*
G02*
X133420163Y-64458870I1080000J1040961D01*
G01*
X135578608Y-63827665D02*
G75*
G02*
X135735516Y-67060000I-1078609J-1672335D01*
G01*
X135579837Y-64458870D02*
G75*
G02*
X135580000Y-66540961I-1079837J-1041130D01*
G01*
X133264000Y-93360000D02*
X133420000Y-93360000D01*
X135580000Y-93360000D02*
X135736000Y-93360000D01*
X133264484Y-93360000D02*
G75*
G02*
X133421392Y-90127665I1235517J1560000D01*
G01*
X133420000Y-92840961D02*
G75*
G02*
X133420163Y-90758870I1080000J1040961D01*
G01*
X135578608Y-90127665D02*
G75*
G02*
X135735516Y-93360000I-1078609J-1672335D01*
G01*
X135579837Y-90758870D02*
G75*
G02*
X135580000Y-92840961I-1079837J-1041130D01*
G01*
X104264000Y-67060000D02*
X104420000Y-67060000D01*
X106580000Y-67060000D02*
X106736000Y-67060000D01*
X104264484Y-67060000D02*
G75*
G02*
X104421392Y-63827665I1235517J1560000D01*
G01*
X104420000Y-66540961D02*
G75*
G02*
X104420163Y-64458870I1080000J1040961D01*
G01*
X106578608Y-63827665D02*
G75*
G02*
X106735516Y-67060000I-1078609J-1672335D01*
G01*
X106579837Y-64458870D02*
G75*
G02*
X106580000Y-66540961I-1079837J-1041130D01*
G01*
X104264000Y-80160000D02*
X104420000Y-80160000D01*
X106580000Y-80160000D02*
X106736000Y-80160000D01*
X104264484Y-80160000D02*
G75*
G02*
X104421392Y-76927665I1235517J1560000D01*
G01*
X104420000Y-79640961D02*
G75*
G02*
X104420163Y-77558870I1080000J1040961D01*
G01*
X106578608Y-76927665D02*
G75*
G02*
X106735516Y-80160000I-1078609J-1672335D01*
G01*
X106579837Y-77558870D02*
G75*
G02*
X106580000Y-79640961I-1079837J-1041130D01*
G01*
X104264000Y-93360000D02*
X104420000Y-93360000D01*
X106580000Y-93360000D02*
X106736000Y-93360000D01*
X104264484Y-93360000D02*
G75*
G02*
X104421392Y-90127665I1235517J1560000D01*
G01*
X104420000Y-92840961D02*
G75*
G02*
X104420163Y-90758870I1080000J1040961D01*
G01*
X106578608Y-90127665D02*
G75*
G02*
X106735516Y-93360000I-1078609J-1672335D01*
G01*
X106579837Y-90758870D02*
G75*
G02*
X106580000Y-92840961I-1079837J-1041130D01*
G01*
X133264000Y-108560000D02*
X133420000Y-108560000D01*
X135580000Y-108560000D02*
X135736000Y-108560000D01*
X133264484Y-108560000D02*
G75*
G02*
X133421392Y-105327665I1235517J1560000D01*
G01*
X133420000Y-108040961D02*
G75*
G02*
X133420163Y-105958870I1080000J1040961D01*
G01*
X135578608Y-105327665D02*
G75*
G02*
X135735516Y-108560000I-1078609J-1672335D01*
G01*
X135579837Y-105958870D02*
G75*
G02*
X135580000Y-108040961I-1079837J-1041130D01*
G01*
X104264000Y-121760000D02*
X104420000Y-121760000D01*
X106580000Y-121760000D02*
X106736000Y-121760000D01*
X104264484Y-121760000D02*
G75*
G02*
X104421392Y-118527665I1235517J1560000D01*
G01*
X104420000Y-121240961D02*
G75*
G02*
X104420163Y-119158870I1080000J1040961D01*
G01*
X106578608Y-118527665D02*
G75*
G02*
X106735516Y-121760000I-1078609J-1672335D01*
G01*
X106579837Y-119158870D02*
G75*
G02*
X106580000Y-121240961I-1079837J-1041130D01*
G01*
D10*
X123000000Y-72600000D02*
X123000000Y-83100000D01*
X123000000Y-72600000D02*
X132000000Y-72600000D01*
X123000000Y-83100000D02*
X132000000Y-83100000D01*
X123055000Y-82410000D02*
X125595000Y-82410000D01*
X125595000Y-76695000D02*
X129405000Y-76695000D01*
X125595000Y-82410000D02*
X125595000Y-83045000D01*
X125595000Y-83045000D02*
X129405000Y-83045000D01*
X129405000Y-80505000D02*
X125595000Y-80505000D01*
X129405000Y-82410000D02*
X131945000Y-82410000D01*
X129405000Y-83045000D02*
X129405000Y-82410000D01*
X132000000Y-72600000D02*
X132000000Y-83100000D01*
X125595000Y-80505000D02*
G75*
G02*
X125595000Y-76695000I1904999J1905000D01*
G01*
X129405000Y-76695000D02*
G75*
G02*
X129405000Y-80505000I-1905000J-1905000D01*
G01*
X129296051Y-78600000D02*
G75*
G02*
X125703949Y-78600000I-1796051J0D01*
G01*
X125703949Y-78600000D02*
G75*
G02*
X129296051Y-78600000I1796051J0D01*
G01*
X123000000Y-85800000D02*
X123000000Y-96300000D01*
X123000000Y-85800000D02*
X132000000Y-85800000D01*
X123000000Y-96300000D02*
X132000000Y-96300000D01*
X123055000Y-95610000D02*
X125595000Y-95610000D01*
X125595000Y-89895000D02*
X129405000Y-89895000D01*
X125595000Y-95610000D02*
X125595000Y-96245000D01*
X125595000Y-96245000D02*
X129405000Y-96245000D01*
X129405000Y-93705000D02*
X125595000Y-93705000D01*
X129405000Y-95610000D02*
X131945000Y-95610000D01*
X129405000Y-96245000D02*
X129405000Y-95610000D01*
X132000000Y-85800000D02*
X132000000Y-96300000D01*
X125595000Y-93705000D02*
G75*
G02*
X125595000Y-89895000I1904999J1905000D01*
G01*
X129405000Y-89895000D02*
G75*
G02*
X129405000Y-93705000I-1905000J-1905000D01*
G01*
X129296051Y-91800000D02*
G75*
G02*
X125703949Y-91800000I-1796051J0D01*
G01*
X125703949Y-91800000D02*
G75*
G02*
X129296051Y-91800000I1796051J0D01*
G01*
X123000000Y-46400000D02*
X123000000Y-56900000D01*
X123000000Y-46400000D02*
X132000000Y-46400000D01*
X123000000Y-56900000D02*
X132000000Y-56900000D01*
X123055000Y-56210000D02*
X125595000Y-56210000D01*
X125595000Y-50495000D02*
X129405000Y-50495000D01*
X125595000Y-56210000D02*
X125595000Y-56845000D01*
X125595000Y-56845000D02*
X129405000Y-56845000D01*
X129405000Y-54305000D02*
X125595000Y-54305000D01*
X129405000Y-56210000D02*
X131945000Y-56210000D01*
X129405000Y-56845000D02*
X129405000Y-56210000D01*
X132000000Y-46400000D02*
X132000000Y-56900000D01*
X125595000Y-54305000D02*
G75*
G02*
X125595000Y-50495000I1904999J1905000D01*
G01*
X129405000Y-50495000D02*
G75*
G02*
X129405000Y-54305000I-1905000J-1905000D01*
G01*
X129296051Y-52400000D02*
G75*
G02*
X125703949Y-52400000I-1796051J0D01*
G01*
X125703949Y-52400000D02*
G75*
G02*
X129296051Y-52400000I1796051J0D01*
G01*
X123000000Y-59500000D02*
X123000000Y-70000000D01*
X123000000Y-59500000D02*
X132000000Y-59500000D01*
X123000000Y-70000000D02*
X132000000Y-70000000D01*
X123055000Y-69310000D02*
X125595000Y-69310000D01*
X125595000Y-63595000D02*
X129405000Y-63595000D01*
X125595000Y-69310000D02*
X125595000Y-69945000D01*
X125595000Y-69945000D02*
X129405000Y-69945000D01*
X129405000Y-67405000D02*
X125595000Y-67405000D01*
X129405000Y-69310000D02*
X131945000Y-69310000D01*
X129405000Y-69945000D02*
X129405000Y-69310000D01*
X132000000Y-59500000D02*
X132000000Y-70000000D01*
X125595000Y-67405000D02*
G75*
G02*
X125595000Y-63595000I1904999J1905000D01*
G01*
X129405000Y-63595000D02*
G75*
G02*
X129405000Y-67405000I-1905000J-1905000D01*
G01*
X129296051Y-65500000D02*
G75*
G02*
X125703949Y-65500000I-1796051J0D01*
G01*
X125703949Y-65500000D02*
G75*
G02*
X129296051Y-65500000I1796051J0D01*
G01*
X123000000Y-101000000D02*
X123000000Y-111500000D01*
X123000000Y-101000000D02*
X132000000Y-101000000D01*
X123000000Y-111500000D02*
X132000000Y-111500000D01*
X123055000Y-110810000D02*
X125595000Y-110810000D01*
X125595000Y-105095000D02*
X129405000Y-105095000D01*
X125595000Y-110810000D02*
X125595000Y-111445000D01*
X125595000Y-111445000D02*
X129405000Y-111445000D01*
X129405000Y-108905000D02*
X125595000Y-108905000D01*
X129405000Y-110810000D02*
X131945000Y-110810000D01*
X129405000Y-111445000D02*
X129405000Y-110810000D01*
X132000000Y-101000000D02*
X132000000Y-111500000D01*
X125595000Y-108905000D02*
G75*
G02*
X125595000Y-105095000I1904999J1905000D01*
G01*
X129405000Y-105095000D02*
G75*
G02*
X129405000Y-108905000I-1905000J-1905000D01*
G01*
X129296051Y-107000000D02*
G75*
G02*
X125703949Y-107000000I-1796051J0D01*
G01*
X125703949Y-107000000D02*
G75*
G02*
X129296051Y-107000000I1796051J0D01*
G01*
X108000000Y-59500000D02*
X108000000Y-70000000D01*
X108000000Y-59500000D02*
X117000000Y-59500000D01*
X108000000Y-70000000D02*
X117000000Y-70000000D01*
X108055000Y-69310000D02*
X110595000Y-69310000D01*
X110595000Y-63595000D02*
X114405000Y-63595000D01*
X110595000Y-69310000D02*
X110595000Y-69945000D01*
X110595000Y-69945000D02*
X114405000Y-69945000D01*
X114405000Y-67405000D02*
X110595000Y-67405000D01*
X114405000Y-69310000D02*
X116945000Y-69310000D01*
X114405000Y-69945000D02*
X114405000Y-69310000D01*
X117000000Y-59500000D02*
X117000000Y-70000000D01*
X110595000Y-67405000D02*
G75*
G02*
X110595000Y-63595000I1904999J1905000D01*
G01*
X114405000Y-63595000D02*
G75*
G02*
X114405000Y-67405000I-1905000J-1905000D01*
G01*
X114296051Y-65500000D02*
G75*
G02*
X110703949Y-65500000I-1796051J0D01*
G01*
X110703949Y-65500000D02*
G75*
G02*
X114296051Y-65500000I1796051J0D01*
G01*
X123000000Y-114200000D02*
X123000000Y-124700000D01*
X123000000Y-114200000D02*
X132000000Y-114200000D01*
X123000000Y-124700000D02*
X132000000Y-124700000D01*
X123055000Y-124010000D02*
X125595000Y-124010000D01*
X125595000Y-118295000D02*
X129405000Y-118295000D01*
X125595000Y-124010000D02*
X125595000Y-124645000D01*
X125595000Y-124645000D02*
X129405000Y-124645000D01*
X129405000Y-122105000D02*
X125595000Y-122105000D01*
X129405000Y-124010000D02*
X131945000Y-124010000D01*
X129405000Y-124645000D02*
X129405000Y-124010000D01*
X132000000Y-114200000D02*
X132000000Y-124700000D01*
X125595000Y-122105000D02*
G75*
G02*
X125595000Y-118295000I1904999J1905000D01*
G01*
X129405000Y-118295000D02*
G75*
G02*
X129405000Y-122105000I-1905000J-1905000D01*
G01*
X129296051Y-120200000D02*
G75*
G02*
X125703949Y-120200000I-1796051J0D01*
G01*
X125703949Y-120200000D02*
G75*
G02*
X129296051Y-120200000I1796051J0D01*
G01*
D11*
X133264000Y-121760000D02*
X133420000Y-121760000D01*
X135580000Y-121760000D02*
X135736000Y-121760000D01*
X133264484Y-121760000D02*
G75*
G02*
X133421392Y-118527665I1235517J1560000D01*
G01*
X133420000Y-121240961D02*
G75*
G02*
X133420163Y-119158870I1080000J1040961D01*
G01*
X135578608Y-118527665D02*
G75*
G02*
X135735516Y-121760000I-1078609J-1672335D01*
G01*
X135579837Y-119158870D02*
G75*
G02*
X135580000Y-121240961I-1079837J-1041130D01*
G01*
D10*
X108000000Y-85800000D02*
X108000000Y-96300000D01*
X108000000Y-85800000D02*
X117000000Y-85800000D01*
X108000000Y-96300000D02*
X117000000Y-96300000D01*
X108055000Y-95610000D02*
X110595000Y-95610000D01*
X110595000Y-89895000D02*
X114405000Y-89895000D01*
X110595000Y-95610000D02*
X110595000Y-96245000D01*
X110595000Y-96245000D02*
X114405000Y-96245000D01*
X114405000Y-93705000D02*
X110595000Y-93705000D01*
X114405000Y-95610000D02*
X116945000Y-95610000D01*
X114405000Y-96245000D02*
X114405000Y-95610000D01*
X117000000Y-85800000D02*
X117000000Y-96300000D01*
X110595000Y-93705000D02*
G75*
G02*
X110595000Y-89895000I1904999J1905000D01*
G01*
X114405000Y-89895000D02*
G75*
G02*
X114405000Y-93705000I-1905000J-1905000D01*
G01*
X114296051Y-91800000D02*
G75*
G02*
X110703949Y-91800000I-1796051J0D01*
G01*
X110703949Y-91800000D02*
G75*
G02*
X114296051Y-91800000I1796051J0D01*
G01*
D11*
X133264000Y-80160000D02*
X133420000Y-80160000D01*
X135580000Y-80160000D02*
X135736000Y-80160000D01*
X133264484Y-80160000D02*
G75*
G02*
X133421392Y-76927665I1235517J1560000D01*
G01*
X133420000Y-79640961D02*
G75*
G02*
X133420163Y-77558870I1080000J1040961D01*
G01*
X135578608Y-76927665D02*
G75*
G02*
X135735516Y-80160000I-1078609J-1672335D01*
G01*
X135579837Y-77558870D02*
G75*
G02*
X135580000Y-79640961I-1079837J-1041130D01*
G01*
D10*
X108000000Y-72600000D02*
X108000000Y-83100000D01*
X108000000Y-72600000D02*
X117000000Y-72600000D01*
X108000000Y-83100000D02*
X117000000Y-83100000D01*
X108055000Y-82410000D02*
X110595000Y-82410000D01*
X110595000Y-76695000D02*
X114405000Y-76695000D01*
X110595000Y-82410000D02*
X110595000Y-83045000D01*
X110595000Y-83045000D02*
X114405000Y-83045000D01*
X114405000Y-80505000D02*
X110595000Y-80505000D01*
X114405000Y-82410000D02*
X116945000Y-82410000D01*
X114405000Y-83045000D02*
X114405000Y-82410000D01*
X117000000Y-72600000D02*
X117000000Y-83100000D01*
X110595000Y-80505000D02*
G75*
G02*
X110595000Y-76695000I1904999J1905000D01*
G01*
X114405000Y-76695000D02*
G75*
G02*
X114405000Y-80505000I-1905000J-1905000D01*
G01*
X114296051Y-78600000D02*
G75*
G02*
X110703949Y-78600000I-1796051J0D01*
G01*
X110703949Y-78600000D02*
G75*
G02*
X114296051Y-78600000I1796051J0D01*
G01*
X108000000Y-114200000D02*
X108000000Y-124700000D01*
X108000000Y-114200000D02*
X117000000Y-114200000D01*
X108000000Y-124700000D02*
X117000000Y-124700000D01*
X108055000Y-124010000D02*
X110595000Y-124010000D01*
X110595000Y-118295000D02*
X114405000Y-118295000D01*
X110595000Y-124010000D02*
X110595000Y-124645000D01*
X110595000Y-124645000D02*
X114405000Y-124645000D01*
X114405000Y-122105000D02*
X110595000Y-122105000D01*
X114405000Y-124010000D02*
X116945000Y-124010000D01*
X114405000Y-124645000D02*
X114405000Y-124010000D01*
X117000000Y-114200000D02*
X117000000Y-124700000D01*
X110595000Y-122105000D02*
G75*
G02*
X110595000Y-118295000I1904999J1905000D01*
G01*
X114405000Y-118295000D02*
G75*
G02*
X114405000Y-122105000I-1905000J-1905000D01*
G01*
X114296051Y-120200000D02*
G75*
G02*
X110703949Y-120200000I-1796051J0D01*
G01*
X110703949Y-120200000D02*
G75*
G02*
X114296051Y-120200000I1796051J0D01*
G01*
D11*
X104264000Y-108560000D02*
X104420000Y-108560000D01*
X106580000Y-108560000D02*
X106736000Y-108560000D01*
X104264484Y-108560000D02*
G75*
G02*
X104421392Y-105327665I1235517J1560000D01*
G01*
X104420000Y-108040961D02*
G75*
G02*
X104420163Y-105958870I1080000J1040961D01*
G01*
X106578608Y-105327665D02*
G75*
G02*
X106735516Y-108560000I-1078609J-1672335D01*
G01*
X106579837Y-105958870D02*
G75*
G02*
X106580000Y-108040961I-1079837J-1041130D01*
G01*
X104264000Y-53960000D02*
X104420000Y-53960000D01*
X106580000Y-53960000D02*
X106736000Y-53960000D01*
X104264484Y-53960000D02*
G75*
G02*
X104421392Y-50727665I1235517J1560000D01*
G01*
X104420000Y-53440961D02*
G75*
G02*
X104420163Y-51358870I1080000J1040961D01*
G01*
X106578608Y-50727665D02*
G75*
G02*
X106735516Y-53960000I-1078609J-1672335D01*
G01*
X106579837Y-51358870D02*
G75*
G02*
X106580000Y-53440961I-1079837J-1041130D01*
G01*
D10*
X108000000Y-46400000D02*
X108000000Y-56900000D01*
X108000000Y-46400000D02*
X117000000Y-46400000D01*
X108000000Y-56900000D02*
X117000000Y-56900000D01*
X108055000Y-56210000D02*
X110595000Y-56210000D01*
X110595000Y-50495000D02*
X114405000Y-50495000D01*
X110595000Y-56210000D02*
X110595000Y-56845000D01*
X110595000Y-56845000D02*
X114405000Y-56845000D01*
X114405000Y-54305000D02*
X110595000Y-54305000D01*
X114405000Y-56210000D02*
X116945000Y-56210000D01*
X114405000Y-56845000D02*
X114405000Y-56210000D01*
X117000000Y-46400000D02*
X117000000Y-56900000D01*
X110595000Y-54305000D02*
G75*
G02*
X110595000Y-50495000I1904999J1905000D01*
G01*
X114405000Y-50495000D02*
G75*
G02*
X114405000Y-54305000I-1905000J-1905000D01*
G01*
X114296051Y-52400000D02*
G75*
G02*
X110703949Y-52400000I-1796051J0D01*
G01*
X110703949Y-52400000D02*
G75*
G02*
X114296051Y-52400000I1796051J0D01*
G01*
X108000000Y-101000000D02*
X108000000Y-111500000D01*
X108000000Y-101000000D02*
X117000000Y-101000000D01*
X108000000Y-111500000D02*
X117000000Y-111500000D01*
X108055000Y-110810000D02*
X110595000Y-110810000D01*
X110595000Y-105095000D02*
X114405000Y-105095000D01*
X110595000Y-110810000D02*
X110595000Y-111445000D01*
X110595000Y-111445000D02*
X114405000Y-111445000D01*
X114405000Y-108905000D02*
X110595000Y-108905000D01*
X114405000Y-110810000D02*
X116945000Y-110810000D01*
X114405000Y-111445000D02*
X114405000Y-110810000D01*
X117000000Y-101000000D02*
X117000000Y-111500000D01*
X110595000Y-108905000D02*
G75*
G02*
X110595000Y-105095000I1904999J1905000D01*
G01*
X114405000Y-105095000D02*
G75*
G02*
X114405000Y-108905000I-1905000J-1905000D01*
G01*
X114296051Y-107000000D02*
G75*
G02*
X110703949Y-107000000I-1796051J0D01*
G01*
X110703949Y-107000000D02*
G75*
G02*
X114296051Y-107000000I1796051J0D01*
G01*
D11*
X116500000Y-134050000D02*
X116500000Y-135550000D01*
X117750000Y-138050000D02*
X122250000Y-138050000D01*
X122250000Y-131550000D02*
X117750000Y-131550000D01*
X123500000Y-135550000D02*
X123500000Y-134050000D01*
X116300000Y-140300000D02*
X116300000Y-141200000D01*
X116300000Y-150800000D02*
X116300000Y-151700000D01*
X123700000Y-140300000D02*
X116300000Y-140300000D01*
X123700000Y-140300000D02*
X123700000Y-141200000D01*
X123700000Y-150800000D02*
X123700000Y-151700000D01*
X123700000Y-151700000D02*
X116300000Y-151700000D01*
X123761803Y-143250000D02*
G75*
G02*
X123538197Y-143250000I-111803J0D01*
G01*
X123538197Y-143250000D02*
G75*
G02*
X123761803Y-143250000I111803J0D01*
G01*
D12*
X125785000Y-139650000D02*
X127377500Y-139650000D01*
X125785000Y-152350000D02*
X125785000Y-139650000D01*
X127377500Y-152350000D02*
X125785000Y-152350000D01*
X130792500Y-139650000D02*
X132207500Y-139650000D01*
X130792500Y-152350000D02*
X132207500Y-152350000D01*
X137215000Y-139650000D02*
X135622500Y-139650000D01*
X137215000Y-139650000D02*
X137215000Y-152350000D01*
X137215000Y-152350000D02*
X135622500Y-152350000D01*
D13*
X129200000Y-153000000D02*
G75*
G02*
X129000000Y-153000000I-100000J0D01*
G01*
X129000000Y-153000000D02*
G75*
G02*
X129200000Y-153000000I100000J0D01*
G01*
X103800000Y-140000000D02*
X106700000Y-140000000D01*
X103800000Y-150500000D02*
X103800000Y-140000000D01*
X103800000Y-150500000D02*
X106800000Y-150500000D01*
X109800000Y-150500000D02*
X112800000Y-150500000D01*
X109900000Y-140000000D02*
X112800000Y-140000000D01*
X112800000Y-150500000D02*
X112800000Y-140000000D01*
D11*
X106850000Y-148500000D02*
G75*
G02*
X109703542Y-148526375I1449985J2498381D01*
G01*
X110100000Y-146000000D02*
G75*
G02*
X106500000Y-146000000I-1800000J0D01*
G01*
X106500000Y-146000000D02*
G75*
G02*
X110100000Y-146000000I1800000J0D01*
G01*
M02*
