M48
; DRILL file {KiCad 8.0.4} date 2024-08-08T14:55:01+0100
; FORMAT={-:-/ absolute / inch / decimal}
; #@! TF.CreationDate,2024-08-08T14:55:01+01:00
; #@! TF.GenerationSoftware,Kicad,Pcbnew,8.0.4
; #@! TF.FileFunction,Plated,1,2,PTH
FMAT,2
INCH
; #@! TA.AperFunction,Plated,PTH,ViaDrill
T1C0.0157
; #@! TA.AperFunction,Plated,PTH,ComponentDrill
T2C0.0197
; #@! TA.AperFunction,Plated,PTH,ComponentDrill
T3C0.0236
; #@! TA.AperFunction,Plated,PTH,ComponentDrill
T4C0.0354
; #@! TA.AperFunction,Plated,PTH,ComponentDrill
T5C0.0394
; #@! TA.AperFunction,Plated,PTH,ComponentDrill
T6C0.0433
; #@! TA.AperFunction,Plated,PTH,ComponentDrill
T7C0.0728
%
G90
G05
T1
X4.7048Y-5.7667
X4.7598Y-5.7323
T4
X4.1535Y-2.013
X4.1535Y-2.113
X4.1535Y-2.5287
X4.1535Y-2.6287
X4.1535Y-3.0445
X4.1535Y-3.1445
X4.1535Y-3.5642
X4.1535Y-3.6642
X4.1535Y-4.1626
X4.1535Y-4.2626
X4.1535Y-4.6823
X4.1535Y-4.7823
X5.2953Y-2.013
X5.2953Y-2.113
X5.2953Y-2.5287
X5.2953Y-2.6287
X5.2953Y-3.0445
X5.2953Y-3.1445
X5.2953Y-3.5642
X5.2953Y-3.6642
X5.2953Y-4.1626
X5.2953Y-4.2626
X5.2953Y-4.6823
X5.2953Y-4.7823
T5
X4.0157Y-2.6772
X4.0157Y-2.7772
X4.0157Y-2.8772
X4.0157Y-2.9772
X4.0157Y-3.0772
X4.0157Y-3.1772
X4.0157Y-3.2772
X4.0157Y-3.3772
X4.0157Y-3.4772
X4.0157Y-4.8819
X4.0157Y-4.9819
X4.0157Y-5.0819
X4.0157Y-5.1819
X4.0157Y-5.2819
X4.0157Y-5.3819
X4.0157Y-5.4819
X4.0157Y-5.5819
X4.0157Y-5.6819
X4.0157Y-5.7819
X5.4331Y-2.6772
X5.4331Y-2.7772
X5.4331Y-2.8772
X5.4331Y-2.9772
X5.4331Y-3.0772
X5.4331Y-3.1772
X5.4331Y-3.2772
X5.4331Y-3.3772
X5.4331Y-3.4772
X5.4331Y-4.8819
X5.4331Y-4.9819
X5.4331Y-5.0819
X5.4331Y-5.1819
X5.4331Y-5.2819
X5.4331Y-5.3819
X5.4331Y-5.4819
X5.4331Y-5.5819
X5.4331Y-5.6819
X5.4331Y-5.7819
T6
X4.5965Y-5.2185
X4.5965Y-5.3957
X4.8524Y-5.2185
X4.8524Y-5.3957
T7
X5.0821Y-5.563
X5.0821Y-5.748
X5.0821Y-5.9331
X5.2722Y-5.563
X5.2722Y-5.748
X5.2722Y-5.9331
T2
G00X4.4094Y-1.8693
M15
G01X4.4488Y-1.8693
M16
G05
G00X4.4094Y-2.1961
M15
G01X4.4488Y-2.1961
M16
G05
G00X4.4094Y-2.3181
M15
G01X4.4488Y-2.3181
M16
G05
G00X4.4094Y-2.385
M15
G01X4.4488Y-2.385
M16
G05
G00X4.4094Y-2.7118
M15
G01X4.4488Y-2.7118
M16
G05
G00X4.4094Y-2.8339
M15
G01X4.4488Y-2.8339
M16
G05
G00X4.4094Y-2.9008
M15
G01X4.4488Y-2.9008
M16
G05
G00X4.4094Y-3.2276
M15
G01X4.4488Y-3.2276
M16
G05
G00X4.4094Y-3.3496
M15
G01X4.4488Y-3.3496
M16
G05
G00X4.4094Y-3.4205
M15
G01X4.4488Y-3.4205
M16
G05
G00X4.4094Y-3.7472
M15
G01X4.4488Y-3.7472
M16
G05
G00X4.4094Y-3.8693
M15
G01X4.4488Y-3.8693
M16
G05
G00X4.4094Y-4.0189
M15
G01X4.4488Y-4.0189
M16
G05
G00X4.4094Y-4.3457
M15
G01X4.4488Y-4.3457
M16
G05
G00X4.4094Y-4.4677
M15
G01X4.4488Y-4.4677
M16
G05
G00X4.4094Y-4.5386
M15
G01X4.4488Y-4.5386
M16
G05
G00X4.4094Y-4.8654
M15
G01X4.4488Y-4.8654
M16
G05
G00X4.4094Y-4.9874
M15
G01X4.4488Y-4.9874
M16
G05
G00X5.0Y-1.8693
M15
G01X5.0394Y-1.8693
M16
G05
G00X5.0Y-2.1961
M15
G01X5.0394Y-2.1961
M16
G05
G00X5.0Y-2.3181
M15
G01X5.0394Y-2.3181
M16
G05
G00X5.0Y-2.385
M15
G01X5.0394Y-2.385
M16
G05
G00X5.0Y-2.7118
M15
G01X5.0394Y-2.7118
M16
G05
G00X5.0Y-2.8339
M15
G01X5.0394Y-2.8339
M16
G05
G00X5.0Y-2.9008
M15
G01X5.0394Y-2.9008
M16
G05
G00X5.0Y-3.2276
M15
G01X5.0394Y-3.2276
M16
G05
G00X5.0Y-3.3496
M15
G01X5.0394Y-3.3496
M16
G05
G00X5.0Y-3.4205
M15
G01X5.0394Y-3.4205
M16
G05
G00X5.0Y-3.7472
M15
G01X5.0394Y-3.7472
M16
G05
G00X5.0Y-3.8693
M15
G01X5.0394Y-3.8693
M16
G05
G00X5.0Y-4.0189
M15
G01X5.0394Y-4.0189
M16
G05
G00X5.0Y-4.3457
M15
G01X5.0394Y-4.3457
M16
G05
G00X5.0Y-4.4677
M15
G01X5.0394Y-4.4677
M16
G05
G00X5.0Y-4.5386
M15
G01X5.0394Y-4.5386
M16
G05
G00X5.0Y-4.8654
M15
G01X5.0394Y-4.8654
M16
G05
G00X5.0Y-4.9874
M15
G01X5.0394Y-4.9874
M16
G05
T3
G00X4.2441Y-5.5543
M15
G01X4.2835Y-5.5543
M16
G05
G00X4.2441Y-5.8811
M15
G01X4.2835Y-5.8811
M16
G05
G00X4.2441Y-6.0031
M15
G01X4.2835Y-6.0031
M16
G05
G00X4.6035Y-5.5768
M15
G01X4.6035Y-5.5965
M16
G05
G00X4.6035Y-5.8996
M15
G01X4.6035Y-5.9193
M16
G05
G00X4.8453Y-5.5768
M15
G01X4.8453Y-5.5965
M16
G05
G00X4.8453Y-5.8996
M15
G01X4.8453Y-5.9193
M16
G05
M30
