G04 #@! TF.GenerationSoftware,KiCad,Pcbnew,8.0.4*
G04 #@! TF.CreationDate,2024-08-08T14:54:58+01:00*
G04 #@! TF.ProjectId,MidiMonger_controls,4d696469-4d6f-46e6-9765-725f636f6e74,rev?*
G04 #@! TF.SameCoordinates,Original*
G04 #@! TF.FileFunction,Soldermask,Bot*
G04 #@! TF.FilePolarity,Negative*
%FSLAX46Y46*%
G04 Gerber Fmt 4.6, Leading zero omitted, Abs format (unit mm)*
G04 Created by KiCad (PCBNEW 8.0.4) date 2024-08-08 14:54:58*
%MOMM*%
%LPD*%
G01*
G04 APERTURE LIST*
G04 Aperture macros list*
%AMRoundRect*
0 Rectangle with rounded corners*
0 $1 Rounding radius*
0 $2 $3 $4 $5 $6 $7 $8 $9 X,Y pos of 4 corners*
0 Add a 4 corners polygon primitive as box body*
4,1,4,$2,$3,$4,$5,$6,$7,$8,$9,$2,$3,0*
0 Add four circle primitives for the rounded corners*
1,1,$1+$1,$2,$3*
1,1,$1+$1,$4,$5*
1,1,$1+$1,$6,$7*
1,1,$1+$1,$8,$9*
0 Add four rect primitives between the rounded corners*
20,1,$1+$1,$2,$3,$4,$5,0*
20,1,$1+$1,$4,$5,$6,$7,0*
20,1,$1+$1,$6,$7,$8,$9,0*
20,1,$1+$1,$8,$9,$2,$3,0*%
G04 Aperture macros list end*
%ADD10R,1.700000X1.700000*%
%ADD11O,1.700000X1.700000*%
%ADD12R,1.800000X1.800000*%
%ADD13C,1.800000*%
%ADD14C,2.500000*%
%ADD15R,2.500000X1.000000*%
%ADD16C,2.000000*%
%ADD17O,0.400000X0.600000*%
%ADD18O,1.000000X1.500000*%
%ADD19R,2.775000X2.775000*%
%ADD20C,2.775000*%
%ADD21RoundRect,0.650000X-0.650000X-0.650000X0.650000X-0.650000X0.650000X0.650000X-0.650000X0.650000X0*%
%ADD22O,3.100000X2.100000*%
G04 APERTURE END LIST*
D10*
X138000000Y-124000000D03*
D11*
X138000000Y-126540000D03*
X138000000Y-129080000D03*
X138000000Y-131620000D03*
X138000000Y-134160000D03*
X138000000Y-136700000D03*
X138000000Y-139240000D03*
X138000000Y-141780000D03*
X138000000Y-144320000D03*
X138000000Y-146860000D03*
D10*
X102000000Y-124000000D03*
D11*
X102000000Y-126540000D03*
X102000000Y-129080000D03*
X102000000Y-131620000D03*
X102000000Y-134160000D03*
X102000000Y-136700000D03*
X102000000Y-139240000D03*
X102000000Y-141780000D03*
X102000000Y-144320000D03*
X102000000Y-146860000D03*
D10*
X138000000Y-68000000D03*
D11*
X138000000Y-70540000D03*
X138000000Y-73080000D03*
X138000000Y-75620000D03*
X138000000Y-78160000D03*
X138000000Y-80700000D03*
X138000000Y-83240000D03*
X138000000Y-85780000D03*
X138000000Y-88320000D03*
D10*
X102000000Y-68000000D03*
D11*
X102000000Y-70540000D03*
X102000000Y-73080000D03*
X102000000Y-75620000D03*
X102000000Y-78160000D03*
X102000000Y-80700000D03*
X102000000Y-83240000D03*
X102000000Y-85780000D03*
X102000000Y-88320000D03*
D12*
X134500000Y-53670000D03*
D13*
X134500000Y-51130000D03*
D12*
X134500000Y-66770000D03*
D13*
X134500000Y-64230000D03*
D12*
X134500000Y-93070000D03*
D13*
X134500000Y-90530000D03*
D12*
X105500000Y-66770000D03*
D13*
X105500000Y-64230000D03*
D12*
X105500000Y-79870000D03*
D13*
X105500000Y-77330000D03*
D12*
X105500000Y-93070000D03*
D13*
X105500000Y-90530000D03*
D12*
X134500000Y-108270000D03*
D13*
X134500000Y-105730000D03*
D12*
X105500000Y-121470000D03*
D13*
X105500000Y-118930000D03*
D14*
X127500000Y-78600000D03*
D15*
X127500000Y-85080000D03*
X127500000Y-81980000D03*
X127500000Y-73680000D03*
D14*
X127500000Y-91800000D03*
D15*
X127500000Y-98280000D03*
X127500000Y-95180000D03*
X127500000Y-86880000D03*
D14*
X127500000Y-52400000D03*
D15*
X127500000Y-58880000D03*
X127500000Y-55780000D03*
X127500000Y-47480000D03*
D14*
X127500000Y-65500000D03*
D15*
X127500000Y-71980000D03*
X127500000Y-68880000D03*
X127500000Y-60580000D03*
D14*
X127500000Y-107000000D03*
D15*
X127500000Y-113480000D03*
X127500000Y-110380000D03*
X127500000Y-102080000D03*
D14*
X112500000Y-65500000D03*
D15*
X112500000Y-71980000D03*
X112500000Y-68880000D03*
X112500000Y-60580000D03*
D14*
X127500000Y-120200000D03*
D15*
X127500000Y-126680000D03*
X127500000Y-123580000D03*
X127500000Y-115280000D03*
D12*
X134500000Y-121470000D03*
D13*
X134500000Y-118930000D03*
D14*
X112500000Y-91800000D03*
D15*
X112500000Y-98280000D03*
X112500000Y-95180000D03*
X112500000Y-86880000D03*
D12*
X134500000Y-79870000D03*
D13*
X134500000Y-77330000D03*
D14*
X112500000Y-78600000D03*
D15*
X112500000Y-85080000D03*
X112500000Y-81980000D03*
X112500000Y-73680000D03*
D14*
X112500000Y-120200000D03*
D15*
X112500000Y-126680000D03*
X112500000Y-123580000D03*
X112500000Y-115280000D03*
D12*
X105500000Y-108270000D03*
D13*
X105500000Y-105730000D03*
D12*
X105500000Y-53670000D03*
D13*
X105500000Y-51130000D03*
D14*
X112500000Y-52400000D03*
D15*
X112500000Y-58880000D03*
X112500000Y-55780000D03*
X112500000Y-47480000D03*
D14*
X112500000Y-107000000D03*
D15*
X112500000Y-113480000D03*
X112500000Y-110380000D03*
X112500000Y-102080000D03*
D16*
X116750000Y-132550000D03*
X123250000Y-132550000D03*
X116750000Y-137050000D03*
X123250000Y-137050000D03*
D17*
X120000000Y-142225000D03*
X120000000Y-149775000D03*
D18*
X123070000Y-141900000D03*
X116930000Y-141900000D03*
X123070000Y-150100000D03*
X116930000Y-150100000D03*
D19*
X129085000Y-150700000D03*
D20*
X129085000Y-146000000D03*
X129085000Y-141300000D03*
X133915000Y-150700000D03*
X133915000Y-146000000D03*
X133915000Y-141300000D03*
D21*
X108300000Y-149380000D03*
D22*
X108300000Y-152480000D03*
D21*
X108300000Y-141080000D03*
M02*
