G04 #@! TF.GenerationSoftware,KiCad,Pcbnew,8.0.4*
G04 #@! TF.CreationDate,2024-08-08T14:54:58+01:00*
G04 #@! TF.ProjectId,MidiMonger_controls,4d696469-4d6f-46e6-9765-725f636f6e74,rev?*
G04 #@! TF.SameCoordinates,Original*
G04 #@! TF.FileFunction,Copper,L2,Bot*
G04 #@! TF.FilePolarity,Positive*
%FSLAX46Y46*%
G04 Gerber Fmt 4.6, Leading zero omitted, Abs format (unit mm)*
G04 Created by KiCad (PCBNEW 8.0.4) date 2024-08-08 14:54:58*
%MOMM*%
%LPD*%
G01*
G04 APERTURE LIST*
G04 Aperture macros list*
%AMRoundRect*
0 Rectangle with rounded corners*
0 $1 Rounding radius*
0 $2 $3 $4 $5 $6 $7 $8 $9 X,Y pos of 4 corners*
0 Add a 4 corners polygon primitive as box body*
4,1,4,$2,$3,$4,$5,$6,$7,$8,$9,$2,$3,0*
0 Add four circle primitives for the rounded corners*
1,1,$1+$1,$2,$3*
1,1,$1+$1,$4,$5*
1,1,$1+$1,$6,$7*
1,1,$1+$1,$8,$9*
0 Add four rect primitives between the rounded corners*
20,1,$1+$1,$2,$3,$4,$5,0*
20,1,$1+$1,$4,$5,$6,$7,0*
20,1,$1+$1,$6,$7,$8,$9,0*
20,1,$1+$1,$8,$9,$2,$3,0*%
G04 Aperture macros list end*
G04 #@! TA.AperFunction,ComponentPad*
%ADD10R,1.700000X1.700000*%
G04 #@! TD*
G04 #@! TA.AperFunction,ComponentPad*
%ADD11O,1.700000X1.700000*%
G04 #@! TD*
G04 #@! TA.AperFunction,ComponentPad*
%ADD12R,1.800000X1.800000*%
G04 #@! TD*
G04 #@! TA.AperFunction,ComponentPad*
%ADD13C,1.800000*%
G04 #@! TD*
G04 #@! TA.AperFunction,ComponentPad*
%ADD14R,2.500000X1.000000*%
G04 #@! TD*
G04 #@! TA.AperFunction,ComponentPad*
%ADD15C,2.000000*%
G04 #@! TD*
G04 #@! TA.AperFunction,ComponentPad*
%ADD16O,1.000000X1.500000*%
G04 #@! TD*
G04 #@! TA.AperFunction,ComponentPad*
%ADD17R,2.775000X2.775000*%
G04 #@! TD*
G04 #@! TA.AperFunction,ComponentPad*
%ADD18C,2.775000*%
G04 #@! TD*
G04 #@! TA.AperFunction,ComponentPad*
%ADD19RoundRect,0.650000X-0.650000X-0.650000X0.650000X-0.650000X0.650000X0.650000X-0.650000X0.650000X0*%
G04 #@! TD*
G04 #@! TA.AperFunction,ComponentPad*
%ADD20O,3.100000X2.100000*%
G04 #@! TD*
G04 #@! TA.AperFunction,ViaPad*
%ADD21C,0.800000*%
G04 #@! TD*
G04 #@! TA.AperFunction,Conductor*
%ADD22C,0.400000*%
G04 #@! TD*
G04 #@! TA.AperFunction,Conductor*
%ADD23C,0.300000*%
G04 #@! TD*
G04 #@! TA.AperFunction,Conductor*
%ADD24C,0.250000*%
G04 #@! TD*
G04 APERTURE END LIST*
D10*
X138000000Y-124000000D03*
D11*
X138000000Y-126540000D03*
X138000000Y-129080000D03*
X138000000Y-131620000D03*
X138000000Y-134160000D03*
X138000000Y-136700000D03*
X138000000Y-139240000D03*
X138000000Y-141780000D03*
X138000000Y-144320000D03*
X138000000Y-146860000D03*
D10*
X102000000Y-124000000D03*
D11*
X102000000Y-126540000D03*
X102000000Y-129080000D03*
X102000000Y-131620000D03*
X102000000Y-134160000D03*
X102000000Y-136700000D03*
X102000000Y-139240000D03*
X102000000Y-141780000D03*
X102000000Y-144320000D03*
X102000000Y-146860000D03*
D10*
X138000000Y-68000000D03*
D11*
X138000000Y-70540000D03*
X138000000Y-73080000D03*
X138000000Y-75620000D03*
X138000000Y-78160000D03*
X138000000Y-80700000D03*
X138000000Y-83240000D03*
X138000000Y-85780000D03*
X138000000Y-88320000D03*
D10*
X102000000Y-68000000D03*
D11*
X102000000Y-70540000D03*
X102000000Y-73080000D03*
X102000000Y-75620000D03*
X102000000Y-78160000D03*
X102000000Y-80700000D03*
X102000000Y-83240000D03*
X102000000Y-85780000D03*
X102000000Y-88320000D03*
D12*
X134500000Y-53670000D03*
D13*
X134500000Y-51130000D03*
D12*
X134500000Y-66770000D03*
D13*
X134500000Y-64230000D03*
D12*
X134500000Y-93070000D03*
D13*
X134500000Y-90530000D03*
D12*
X105500000Y-66770000D03*
D13*
X105500000Y-64230000D03*
D12*
X105500000Y-79870000D03*
D13*
X105500000Y-77330000D03*
D12*
X105500000Y-93070000D03*
D13*
X105500000Y-90530000D03*
D12*
X134500000Y-108270000D03*
D13*
X134500000Y-105730000D03*
D12*
X105500000Y-121470000D03*
D13*
X105500000Y-118930000D03*
D14*
X127500000Y-85080000D03*
X127500000Y-81980000D03*
X127500000Y-73680000D03*
X127500000Y-98280000D03*
X127500000Y-95180000D03*
X127500000Y-86880000D03*
X127500000Y-58880000D03*
X127500000Y-55780000D03*
X127500000Y-47480000D03*
X127500000Y-71980000D03*
X127500000Y-68880000D03*
X127500000Y-60580000D03*
X127500000Y-113480000D03*
X127500000Y-110380000D03*
X127500000Y-102080000D03*
X112500000Y-71980000D03*
X112500000Y-68880000D03*
X112500000Y-60580000D03*
X127500000Y-126680000D03*
X127500000Y-123580000D03*
X127500000Y-115280000D03*
D12*
X134500000Y-121470000D03*
D13*
X134500000Y-118930000D03*
D14*
X112500000Y-98280000D03*
X112500000Y-95180000D03*
X112500000Y-86880000D03*
D12*
X134500000Y-79870000D03*
D13*
X134500000Y-77330000D03*
D14*
X112500000Y-85080000D03*
X112500000Y-81980000D03*
X112500000Y-73680000D03*
X112500000Y-126680000D03*
X112500000Y-123580000D03*
X112500000Y-115280000D03*
D12*
X105500000Y-108270000D03*
D13*
X105500000Y-105730000D03*
D12*
X105500000Y-53670000D03*
D13*
X105500000Y-51130000D03*
D14*
X112500000Y-58880000D03*
X112500000Y-55780000D03*
X112500000Y-47480000D03*
X112500000Y-113480000D03*
X112500000Y-110380000D03*
X112500000Y-102080000D03*
D15*
X116750000Y-132550000D03*
X123250000Y-132550000D03*
X116750000Y-137050000D03*
X123250000Y-137050000D03*
D16*
X123070000Y-141900000D03*
X116930000Y-141900000D03*
X123070000Y-150100000D03*
X116930000Y-150100000D03*
D17*
X129085000Y-150700000D03*
D18*
X129085000Y-146000000D03*
X129085000Y-141300000D03*
X133915000Y-150700000D03*
X133915000Y-146000000D03*
X133915000Y-141300000D03*
D19*
X108300000Y-149380000D03*
D20*
X108300000Y-152480000D03*
D19*
X108300000Y-141080000D03*
D21*
X119501366Y-146475000D03*
X120900000Y-145600000D03*
D22*
X103600000Y-53030000D02*
X103600000Y-69450000D01*
X103600000Y-69450000D02*
X107250000Y-73100000D01*
X103650000Y-97550000D02*
X103650000Y-124890000D01*
X107250000Y-93950000D02*
X103650000Y-97550000D01*
X105500000Y-51130000D02*
X103600000Y-53030000D01*
X107250000Y-73100000D02*
X107250000Y-93950000D01*
X103650000Y-124890000D02*
X102000000Y-126540000D01*
X108350000Y-67080000D02*
X105500000Y-64230000D01*
X102000000Y-129080000D02*
X108350000Y-122730000D01*
X108350000Y-122730000D02*
X108350000Y-67080000D01*
X103650000Y-88508478D02*
X103650000Y-79180000D01*
X100700000Y-130320000D02*
X100700000Y-91458478D01*
X103650000Y-79180000D02*
X105500000Y-77330000D01*
X102000000Y-131620000D02*
X100700000Y-130320000D01*
X100700000Y-91458478D02*
X103650000Y-88508478D01*
X131400000Y-103400000D02*
X131400000Y-112300000D01*
X138000000Y-85780000D02*
X136350000Y-87430000D01*
X136350000Y-87430000D02*
X136350000Y-98450000D01*
X131400000Y-112300000D02*
X128620000Y-115080000D01*
X136350000Y-98450000D02*
X131400000Y-103400000D01*
X128620000Y-115080000D02*
X127500000Y-115080000D01*
X136400000Y-80900000D02*
X130400000Y-86900000D01*
X127520000Y-86900000D02*
X127500000Y-86880000D01*
X138000000Y-75620000D02*
X137980000Y-75600000D01*
X136400000Y-77180000D02*
X136400000Y-80900000D01*
X130400000Y-86900000D02*
X127520000Y-86900000D01*
X137980000Y-75600000D02*
X136400000Y-77180000D01*
X130600000Y-98980000D02*
X127500000Y-102080000D01*
X130600000Y-90640000D02*
X130600000Y-98980000D01*
X138000000Y-83240000D02*
X130600000Y-90640000D01*
X127185000Y-143500000D02*
X102820000Y-143500000D01*
X129085000Y-145400000D02*
X127185000Y-143500000D01*
X129085000Y-146000000D02*
X129085000Y-145400000D01*
X102820000Y-143500000D02*
X102000000Y-144320000D01*
X102000000Y-139240000D02*
X106460000Y-139240000D01*
X106460000Y-139240000D02*
X108300000Y-141080000D01*
D23*
X118900000Y-92230000D02*
X113250000Y-86580000D01*
X138000000Y-141780000D02*
X137680000Y-141780000D01*
X137680000Y-141780000D02*
X118900000Y-123000000D01*
X118900000Y-123000000D02*
X118900000Y-92230000D01*
X113250000Y-86580000D02*
X112500000Y-86580000D01*
X110100000Y-76100000D02*
X109600000Y-75600000D01*
X136440000Y-139240000D02*
X120600000Y-123400000D01*
X120600000Y-123400000D02*
X120600000Y-78692893D01*
X109600000Y-75600000D02*
X109600000Y-50480000D01*
X112500000Y-47580000D02*
X112500000Y-47480000D01*
X109600000Y-50480000D02*
X112500000Y-47580000D01*
X138000000Y-139240000D02*
X136440000Y-139240000D01*
X118007107Y-76100000D02*
X110100000Y-76100000D01*
X120600000Y-78692893D02*
X118007107Y-76100000D01*
D22*
X133915000Y-146000000D02*
X135595000Y-144320000D01*
X135595000Y-144320000D02*
X138000000Y-144320000D01*
D24*
X120900000Y-145600000D02*
X120025000Y-146475000D01*
X120025000Y-146475000D02*
X119501366Y-146475000D01*
D23*
X129125000Y-125285000D02*
X126585000Y-125285000D01*
X124000000Y-122700000D02*
X124000000Y-78000000D01*
X112520000Y-73700000D02*
X112500000Y-73680000D01*
X138000000Y-134160000D02*
X129125000Y-125285000D01*
X119700000Y-73700000D02*
X112520000Y-73700000D01*
X124000000Y-78000000D02*
X119700000Y-73700000D01*
X126585000Y-125285000D02*
X124000000Y-122700000D01*
X111100000Y-75300000D02*
X119100000Y-75300000D01*
X119100000Y-75300000D02*
X122400000Y-78600000D01*
X122400000Y-78600000D02*
X122400000Y-123940000D01*
X114700000Y-70900000D02*
X111080000Y-70900000D01*
X110700000Y-74900000D02*
X111100000Y-75300000D01*
X111080000Y-70900000D02*
X110700000Y-71280000D01*
X110700000Y-71280000D02*
X110700000Y-74900000D01*
X115300000Y-70300000D02*
X114700000Y-70900000D01*
X112500000Y-60580000D02*
X115300000Y-63380000D01*
X115300000Y-63380000D02*
X115300000Y-70300000D01*
X135160000Y-136700000D02*
X138000000Y-136700000D01*
X122400000Y-123940000D02*
X135160000Y-136700000D01*
G04 #@! TA.AperFunction,Conductor*
G36*
X139891621Y-44070502D02*
G01*
X139938114Y-44124158D01*
X139949500Y-44176500D01*
X139949500Y-153823500D01*
X139929498Y-153891621D01*
X139875842Y-153938114D01*
X139823500Y-153949500D01*
X109816673Y-153949500D01*
X109748552Y-153929498D01*
X109702059Y-153875842D01*
X109691955Y-153805568D01*
X109721449Y-153740988D01*
X109742612Y-153721564D01*
X109753868Y-153713385D01*
X109815294Y-153668757D01*
X109988757Y-153495294D01*
X110132949Y-153296832D01*
X110244318Y-153078256D01*
X110320124Y-152844950D01*
X110358500Y-152602657D01*
X110358500Y-152357343D01*
X110320124Y-152115050D01*
X110244318Y-151881744D01*
X110132949Y-151663168D01*
X109988757Y-151464706D01*
X109988755Y-151464703D01*
X109815296Y-151291244D01*
X109641157Y-151164724D01*
X109597803Y-151108501D01*
X109591728Y-151037765D01*
X109624860Y-150974973D01*
X109644012Y-150958838D01*
X109693271Y-150925095D01*
X109693272Y-150925093D01*
X109693275Y-150925092D01*
X109845092Y-150773275D01*
X109966427Y-150596146D01*
X110053150Y-150399739D01*
X110102306Y-150190740D01*
X110108500Y-150101502D01*
X110108500Y-149750718D01*
X115922000Y-149750718D01*
X115922000Y-149846000D01*
X116630000Y-149846000D01*
X116630000Y-150354000D01*
X115922000Y-150354000D01*
X115922000Y-150449281D01*
X115960737Y-150644023D01*
X115960739Y-150644028D01*
X116036722Y-150827466D01*
X116147032Y-150992557D01*
X116147037Y-150992564D01*
X116287435Y-151132962D01*
X116287442Y-151132967D01*
X116452533Y-151243277D01*
X116635971Y-151319260D01*
X116635976Y-151319262D01*
X116675999Y-151327223D01*
X116676000Y-151327223D01*
X116676000Y-150510060D01*
X116689940Y-150534205D01*
X116745795Y-150590060D01*
X116814204Y-150629556D01*
X116890504Y-150650000D01*
X116969496Y-150650000D01*
X117045796Y-150629556D01*
X117114205Y-150590060D01*
X117170060Y-150534205D01*
X117184000Y-150510060D01*
X117184000Y-151327223D01*
X117224023Y-151319262D01*
X117224028Y-151319260D01*
X117407466Y-151243277D01*
X117572557Y-151132967D01*
X117572564Y-151132962D01*
X117712962Y-150992564D01*
X117712967Y-150992557D01*
X117823277Y-150827466D01*
X117899260Y-150644028D01*
X117899262Y-150644023D01*
X117937999Y-150449281D01*
X117938000Y-150449277D01*
X117938000Y-150354000D01*
X117230000Y-150354000D01*
X117230000Y-149934307D01*
X119549499Y-149934307D01*
X119580201Y-150048886D01*
X119639508Y-150151609D01*
X119639516Y-150151619D01*
X119723380Y-150235483D01*
X119723385Y-150235487D01*
X119723387Y-150235489D01*
X119826114Y-150294799D01*
X119940691Y-150325500D01*
X119940693Y-150325500D01*
X120059307Y-150325500D01*
X120059309Y-150325500D01*
X120173886Y-150294799D01*
X120276613Y-150235489D01*
X120360489Y-150151613D01*
X120419799Y-150048886D01*
X120450500Y-149934309D01*
X120450500Y-149750718D01*
X122062000Y-149750718D01*
X122062000Y-149846000D01*
X122770000Y-149846000D01*
X122770000Y-150354000D01*
X122062000Y-150354000D01*
X122062000Y-150449281D01*
X122100737Y-150644023D01*
X122100739Y-150644028D01*
X122176722Y-150827466D01*
X122287032Y-150992557D01*
X122287037Y-150992564D01*
X122427435Y-151132962D01*
X122427442Y-151132967D01*
X122592533Y-151243277D01*
X122775971Y-151319260D01*
X122775976Y-151319262D01*
X122815999Y-151327223D01*
X122816000Y-151327223D01*
X122816000Y-150510060D01*
X122829940Y-150534205D01*
X122885795Y-150590060D01*
X122954204Y-150629556D01*
X123030504Y-150650000D01*
X123109496Y-150650000D01*
X123185796Y-150629556D01*
X123254205Y-150590060D01*
X123310060Y-150534205D01*
X123324000Y-150510060D01*
X123324000Y-151327223D01*
X123364023Y-151319262D01*
X123364028Y-151319260D01*
X123547466Y-151243277D01*
X123712557Y-151132967D01*
X123712564Y-151132962D01*
X123852962Y-150992564D01*
X123852967Y-150992557D01*
X123963277Y-150827466D01*
X124039260Y-150644028D01*
X124039262Y-150644023D01*
X124077999Y-150449281D01*
X124078000Y-150449277D01*
X124078000Y-150354000D01*
X123370000Y-150354000D01*
X123370000Y-149846000D01*
X124078000Y-149846000D01*
X124078000Y-149750722D01*
X124077999Y-149750718D01*
X124039262Y-149555976D01*
X124039260Y-149555971D01*
X123963277Y-149372533D01*
X123890658Y-149263850D01*
X127189000Y-149263850D01*
X127189000Y-152136149D01*
X127195509Y-152196696D01*
X127195511Y-152196704D01*
X127246610Y-152333702D01*
X127246612Y-152333707D01*
X127334238Y-152450761D01*
X127451292Y-152538387D01*
X127451294Y-152538388D01*
X127451296Y-152538389D01*
X127510375Y-152560424D01*
X127588295Y-152589488D01*
X127588303Y-152589490D01*
X127648850Y-152595999D01*
X127648855Y-152595999D01*
X127648862Y-152596000D01*
X127648868Y-152596000D01*
X130521132Y-152596000D01*
X130521138Y-152596000D01*
X130521145Y-152595999D01*
X130521149Y-152595999D01*
X130581696Y-152589490D01*
X130581699Y-152589489D01*
X130581701Y-152589489D01*
X130718704Y-152538389D01*
X130835761Y-152450761D01*
X130923389Y-152333704D01*
X130974489Y-152196701D01*
X130981000Y-152136138D01*
X130981000Y-150700000D01*
X132014658Y-150700000D01*
X132034000Y-150970443D01*
X132091635Y-151235388D01*
X132186387Y-151489430D01*
X132186389Y-151489434D01*
X132316331Y-151727403D01*
X132407113Y-151848673D01*
X132407114Y-151848674D01*
X133104231Y-151151556D01*
X133196505Y-151289653D01*
X133325347Y-151418495D01*
X133463441Y-151510767D01*
X132766324Y-152207884D01*
X132766325Y-152207885D01*
X132887596Y-152298668D01*
X133125565Y-152428610D01*
X133125569Y-152428612D01*
X133379611Y-152523364D01*
X133644556Y-152580999D01*
X133915000Y-152600341D01*
X134185443Y-152580999D01*
X134450388Y-152523364D01*
X134704430Y-152428612D01*
X134704434Y-152428610D01*
X134942399Y-152298670D01*
X135063673Y-152207884D01*
X135063674Y-152207884D01*
X134366557Y-151510767D01*
X134504653Y-151418495D01*
X134633495Y-151289653D01*
X134725767Y-151151557D01*
X135422884Y-151848674D01*
X135422884Y-151848673D01*
X135513670Y-151727399D01*
X135643610Y-151489434D01*
X135643612Y-151489430D01*
X135738364Y-151235388D01*
X135795999Y-150970443D01*
X135815341Y-150700000D01*
X135795999Y-150429556D01*
X135738364Y-150164611D01*
X135643612Y-149910569D01*
X135643610Y-149910565D01*
X135513668Y-149672596D01*
X135422885Y-149551325D01*
X135422884Y-149551324D01*
X134725767Y-150248441D01*
X134633495Y-150110347D01*
X134504653Y-149981505D01*
X134366557Y-149889232D01*
X135063674Y-149192114D01*
X135063673Y-149192113D01*
X134942403Y-149101331D01*
X134704434Y-148971389D01*
X134704430Y-148971387D01*
X134450388Y-148876635D01*
X134185443Y-148819000D01*
X133915000Y-148799658D01*
X133644556Y-148819000D01*
X133379611Y-148876635D01*
X133125569Y-148971387D01*
X133125565Y-148971389D01*
X132887601Y-149101328D01*
X132766325Y-149192113D01*
X132766324Y-149192114D01*
X133463442Y-149889232D01*
X133325347Y-149981505D01*
X133196505Y-150110347D01*
X133104232Y-150248442D01*
X132407114Y-149551324D01*
X132407113Y-149551325D01*
X132316328Y-149672601D01*
X132186389Y-149910565D01*
X132186387Y-149910569D01*
X132091635Y-150164611D01*
X132034000Y-150429556D01*
X132014658Y-150700000D01*
X130981000Y-150700000D01*
X130981000Y-149263862D01*
X130980069Y-149255201D01*
X130974490Y-149203303D01*
X130974488Y-149203295D01*
X130945424Y-149125375D01*
X130923389Y-149066296D01*
X130923388Y-149066294D01*
X130923387Y-149066292D01*
X130835761Y-148949238D01*
X130718707Y-148861612D01*
X130718702Y-148861610D01*
X130581704Y-148810511D01*
X130581696Y-148810509D01*
X130521149Y-148804000D01*
X130521138Y-148804000D01*
X127648862Y-148804000D01*
X127648850Y-148804000D01*
X127588303Y-148810509D01*
X127588295Y-148810511D01*
X127451297Y-148861610D01*
X127451292Y-148861612D01*
X127334238Y-148949238D01*
X127246612Y-149066292D01*
X127246610Y-149066297D01*
X127195511Y-149203295D01*
X127195509Y-149203303D01*
X127189000Y-149263850D01*
X123890658Y-149263850D01*
X123852967Y-149207442D01*
X123852962Y-149207435D01*
X123712564Y-149067037D01*
X123712557Y-149067032D01*
X123547467Y-148956722D01*
X123364020Y-148880736D01*
X123364015Y-148880735D01*
X123324000Y-148872774D01*
X123324000Y-149689939D01*
X123310060Y-149665795D01*
X123254205Y-149609940D01*
X123185796Y-149570444D01*
X123109496Y-149550000D01*
X123030504Y-149550000D01*
X122954204Y-149570444D01*
X122885795Y-149609940D01*
X122829940Y-149665795D01*
X122816000Y-149689939D01*
X122816000Y-148872775D01*
X122815999Y-148872774D01*
X122775984Y-148880735D01*
X122775979Y-148880736D01*
X122592532Y-148956722D01*
X122427442Y-149067032D01*
X122427435Y-149067037D01*
X122287037Y-149207435D01*
X122287032Y-149207442D01*
X122176722Y-149372533D01*
X122100739Y-149555971D01*
X122100737Y-149555976D01*
X122062000Y-149750718D01*
X120450500Y-149750718D01*
X120450500Y-149615691D01*
X120419799Y-149501114D01*
X120360489Y-149398387D01*
X120360487Y-149398385D01*
X120360483Y-149398380D01*
X120276619Y-149314516D01*
X120276609Y-149314508D01*
X120173886Y-149255201D01*
X120059309Y-149224500D01*
X119940691Y-149224500D01*
X119864306Y-149244967D01*
X119826113Y-149255201D01*
X119723390Y-149314508D01*
X119723380Y-149314516D01*
X119639516Y-149398380D01*
X119639508Y-149398390D01*
X119580201Y-149501113D01*
X119549500Y-149615692D01*
X119549500Y-149934307D01*
X119549499Y-149934307D01*
X117230000Y-149934307D01*
X117230000Y-149846000D01*
X117938000Y-149846000D01*
X117938000Y-149750722D01*
X117937999Y-149750718D01*
X117899262Y-149555976D01*
X117899260Y-149555971D01*
X117823277Y-149372533D01*
X117712967Y-149207442D01*
X117712962Y-149207435D01*
X117572564Y-149067037D01*
X117572557Y-149067032D01*
X117407467Y-148956722D01*
X117224020Y-148880736D01*
X117224015Y-148880735D01*
X117184000Y-148872774D01*
X117184000Y-149689939D01*
X117170060Y-149665795D01*
X117114205Y-149609940D01*
X117045796Y-149570444D01*
X116969496Y-149550000D01*
X116890504Y-149550000D01*
X116814204Y-149570444D01*
X116745795Y-149609940D01*
X116689940Y-149665795D01*
X116676000Y-149689939D01*
X116676000Y-148872775D01*
X116675999Y-148872774D01*
X116635984Y-148880735D01*
X116635979Y-148880736D01*
X116452532Y-148956722D01*
X116287442Y-149067032D01*
X116287435Y-149067037D01*
X116147037Y-149207435D01*
X116147032Y-149207442D01*
X116036722Y-149372533D01*
X115960739Y-149555971D01*
X115960737Y-149555976D01*
X115922000Y-149750718D01*
X110108500Y-149750718D01*
X110108500Y-148658498D01*
X110102306Y-148569260D01*
X110053150Y-148360261D01*
X109966427Y-148163854D01*
X109845092Y-147986725D01*
X109845091Y-147986724D01*
X109845088Y-147986720D01*
X109693279Y-147834911D01*
X109693275Y-147834908D01*
X109516145Y-147713572D01*
X109319740Y-147626850D01*
X109110741Y-147577694D01*
X109021503Y-147571500D01*
X109021502Y-147571500D01*
X107578498Y-147571500D01*
X107578496Y-147571500D01*
X107489259Y-147577694D01*
X107489256Y-147577694D01*
X107280259Y-147626850D01*
X107083854Y-147713572D01*
X106906724Y-147834908D01*
X106906720Y-147834911D01*
X106754911Y-147986720D01*
X106754908Y-147986724D01*
X106633572Y-148163854D01*
X106546850Y-148360259D01*
X106497694Y-148569256D01*
X106497694Y-148569259D01*
X106491500Y-148658496D01*
X106491500Y-150101503D01*
X106497694Y-150190740D01*
X106497694Y-150190743D01*
X106546850Y-150399740D01*
X106633572Y-150596145D01*
X106754908Y-150773275D01*
X106754911Y-150773279D01*
X106906720Y-150925088D01*
X106906724Y-150925091D01*
X106906725Y-150925092D01*
X106928726Y-150940163D01*
X106955988Y-150958838D01*
X107000884Y-151013837D01*
X107008918Y-151084378D01*
X106977539Y-151148064D01*
X106958843Y-151164724D01*
X106784699Y-151291248D01*
X106611244Y-151464703D01*
X106467051Y-151663167D01*
X106355685Y-151881736D01*
X106355682Y-151881744D01*
X106279876Y-152115047D01*
X106266943Y-152196704D01*
X106241500Y-152357343D01*
X106241500Y-152602657D01*
X106267084Y-152764185D01*
X106279876Y-152844952D01*
X106355682Y-153078255D01*
X106355685Y-153078263D01*
X106467051Y-153296832D01*
X106611244Y-153495296D01*
X106784703Y-153668755D01*
X106857388Y-153721564D01*
X106900742Y-153777787D01*
X106906817Y-153848523D01*
X106873685Y-153911315D01*
X106811865Y-153946226D01*
X106783327Y-153949500D01*
X100176500Y-153949500D01*
X100108379Y-153929498D01*
X100061886Y-153875842D01*
X100050500Y-153823500D01*
X100050500Y-130976661D01*
X100070502Y-130908540D01*
X100124158Y-130862047D01*
X100194432Y-130851943D01*
X100259012Y-130881437D01*
X100265595Y-130887566D01*
X100628700Y-131250671D01*
X100662726Y-131312983D01*
X100661750Y-131370694D01*
X100655437Y-131395625D01*
X100655436Y-131395629D01*
X100655436Y-131395632D01*
X100636844Y-131620000D01*
X100654833Y-131837095D01*
X100655437Y-131844375D01*
X100710702Y-132062612D01*
X100710703Y-132062613D01*
X100710704Y-132062616D01*
X100801140Y-132268791D01*
X100801141Y-132268793D01*
X100924275Y-132457265D01*
X100924279Y-132457270D01*
X101076762Y-132622908D01*
X101131331Y-132665381D01*
X101254424Y-132761189D01*
X101287153Y-132778901D01*
X101287680Y-132779186D01*
X101338071Y-132829200D01*
X101353423Y-132898516D01*
X101328862Y-132965129D01*
X101287680Y-133000813D01*
X101254426Y-133018810D01*
X101254424Y-133018811D01*
X101076762Y-133157091D01*
X100924279Y-133322729D01*
X100924275Y-133322734D01*
X100801141Y-133511206D01*
X100710703Y-133717386D01*
X100710702Y-133717387D01*
X100655437Y-133935624D01*
X100636844Y-134160000D01*
X100655437Y-134384375D01*
X100710702Y-134602612D01*
X100710703Y-134602613D01*
X100801141Y-134808793D01*
X100924275Y-134997265D01*
X100924279Y-134997270D01*
X101076762Y-135162908D01*
X101131331Y-135205381D01*
X101254424Y-135301189D01*
X101287680Y-135319186D01*
X101338071Y-135369200D01*
X101353423Y-135438516D01*
X101328862Y-135505129D01*
X101287680Y-135540813D01*
X101254426Y-135558810D01*
X101254424Y-135558811D01*
X101076762Y-135697091D01*
X100924279Y-135862729D01*
X100924275Y-135862734D01*
X100801141Y-136051206D01*
X100710703Y-136257386D01*
X100710702Y-136257387D01*
X100655437Y-136475624D01*
X100655436Y-136475630D01*
X100655436Y-136475632D01*
X100644311Y-136609890D01*
X100636844Y-136700000D01*
X100655437Y-136924375D01*
X100710702Y-137142612D01*
X100710703Y-137142613D01*
X100710704Y-137142616D01*
X100773875Y-137286632D01*
X100801141Y-137348793D01*
X100924275Y-137537265D01*
X100924279Y-137537270D01*
X101076762Y-137702908D01*
X101120227Y-137736738D01*
X101254424Y-137841189D01*
X101287680Y-137859186D01*
X101338071Y-137909200D01*
X101353423Y-137978516D01*
X101328862Y-138045129D01*
X101287680Y-138080813D01*
X101254426Y-138098810D01*
X101254424Y-138098811D01*
X101076762Y-138237091D01*
X100924279Y-138402729D01*
X100924275Y-138402734D01*
X100801141Y-138591206D01*
X100710703Y-138797386D01*
X100710702Y-138797387D01*
X100655437Y-139015624D01*
X100655436Y-139015630D01*
X100655436Y-139015632D01*
X100636844Y-139240000D01*
X100650926Y-139409944D01*
X100655437Y-139464375D01*
X100710702Y-139682612D01*
X100710703Y-139682613D01*
X100710704Y-139682616D01*
X100790020Y-139863439D01*
X100801141Y-139888793D01*
X100924275Y-140077265D01*
X100924279Y-140077270D01*
X101076762Y-140242908D01*
X101110614Y-140269256D01*
X101254424Y-140381189D01*
X101288205Y-140399470D01*
X101338596Y-140449482D01*
X101353949Y-140518799D01*
X101329389Y-140585412D01*
X101288209Y-140621096D01*
X101254704Y-140639228D01*
X101254698Y-140639232D01*
X101077097Y-140777465D01*
X100924674Y-140943041D01*
X100801580Y-141131451D01*
X100711179Y-141337543D01*
X100711176Y-141337550D01*
X100663455Y-141525999D01*
X100663456Y-141526000D01*
X101569297Y-141526000D01*
X101534075Y-141587007D01*
X101500000Y-141714174D01*
X101500000Y-141845826D01*
X101534075Y-141972993D01*
X101569297Y-142034000D01*
X100663455Y-142034000D01*
X100711176Y-142222449D01*
X100711179Y-142222456D01*
X100801580Y-142428548D01*
X100924674Y-142616958D01*
X101077097Y-142782534D01*
X101254698Y-142920767D01*
X101254704Y-142920771D01*
X101288207Y-142938902D01*
X101338597Y-142988915D01*
X101353949Y-143058232D01*
X101329388Y-143124845D01*
X101288207Y-143160528D01*
X101254430Y-143178807D01*
X101254424Y-143178811D01*
X101076762Y-143317091D01*
X100924279Y-143482729D01*
X100924275Y-143482734D01*
X100801141Y-143671206D01*
X100710703Y-143877386D01*
X100710702Y-143877387D01*
X100655437Y-144095624D01*
X100655436Y-144095630D01*
X100655436Y-144095632D01*
X100636844Y-144320000D01*
X100643548Y-144400909D01*
X100655437Y-144544375D01*
X100710702Y-144762612D01*
X100710703Y-144762613D01*
X100710704Y-144762616D01*
X100801140Y-144968791D01*
X100801141Y-144968793D01*
X100924275Y-145157265D01*
X100924279Y-145157270D01*
X101076762Y-145322908D01*
X101088162Y-145331781D01*
X101254424Y-145461189D01*
X101287680Y-145479186D01*
X101338071Y-145529200D01*
X101353423Y-145598516D01*
X101328862Y-145665129D01*
X101287680Y-145700813D01*
X101254426Y-145718810D01*
X101254424Y-145718811D01*
X101076762Y-145857091D01*
X100924279Y-146022729D01*
X100924275Y-146022734D01*
X100801141Y-146211206D01*
X100710703Y-146417386D01*
X100710702Y-146417387D01*
X100655437Y-146635624D01*
X100655436Y-146635630D01*
X100655436Y-146635632D01*
X100636844Y-146860000D01*
X100655418Y-147084155D01*
X100655437Y-147084375D01*
X100710702Y-147302612D01*
X100710703Y-147302613D01*
X100710704Y-147302616D01*
X100769457Y-147436561D01*
X100801141Y-147508793D01*
X100924275Y-147697265D01*
X100924279Y-147697270D01*
X101076762Y-147862908D01*
X101100643Y-147881495D01*
X101254424Y-148001189D01*
X101452426Y-148108342D01*
X101452427Y-148108342D01*
X101452428Y-148108343D01*
X101564227Y-148146723D01*
X101665365Y-148181444D01*
X101887431Y-148218500D01*
X101887435Y-148218500D01*
X102112565Y-148218500D01*
X102112569Y-148218500D01*
X102334635Y-148181444D01*
X102547574Y-148108342D01*
X102745576Y-148001189D01*
X102923240Y-147862906D01*
X103075722Y-147697268D01*
X103198860Y-147508791D01*
X103289296Y-147302616D01*
X103344564Y-147084368D01*
X103363156Y-146860000D01*
X103344564Y-146635632D01*
X103321715Y-146545405D01*
X103303886Y-146475000D01*
X118587862Y-146475000D01*
X118607823Y-146664927D01*
X118637892Y-146757470D01*
X118666839Y-146846556D01*
X118666842Y-146846561D01*
X118762324Y-147011941D01*
X118762331Y-147011951D01*
X118890110Y-147153864D01*
X118890113Y-147153866D01*
X119044614Y-147266118D01*
X119219078Y-147343794D01*
X119405879Y-147383500D01*
X119596853Y-147383500D01*
X119783654Y-147343794D01*
X119958118Y-147266118D01*
X120112619Y-147153866D01*
X120139877Y-147123591D01*
X120200320Y-147086354D01*
X120208914Y-147084328D01*
X120209785Y-147084155D01*
X120325075Y-147036400D01*
X120428833Y-146967071D01*
X120850499Y-146545405D01*
X120912811Y-146511379D01*
X120939594Y-146508500D01*
X120995487Y-146508500D01*
X121182288Y-146468794D01*
X121356752Y-146391118D01*
X121511253Y-146278866D01*
X121572172Y-146211209D01*
X121639034Y-146136951D01*
X121639035Y-146136949D01*
X121639040Y-146136944D01*
X121734527Y-145971556D01*
X121793542Y-145789928D01*
X121813504Y-145600000D01*
X121793542Y-145410072D01*
X121734527Y-145228444D01*
X121639040Y-145063056D01*
X121639038Y-145063054D01*
X121639034Y-145063048D01*
X121511255Y-144921135D01*
X121356752Y-144808882D01*
X121182288Y-144731206D01*
X120995487Y-144691500D01*
X120804513Y-144691500D01*
X120617711Y-144731206D01*
X120443247Y-144808882D01*
X120288744Y-144921135D01*
X120160965Y-145063048D01*
X120160958Y-145063058D01*
X120065476Y-145228438D01*
X120065473Y-145228445D01*
X120006457Y-145410072D01*
X119994932Y-145519728D01*
X119967918Y-145585385D01*
X119909697Y-145626014D01*
X119838752Y-145628717D01*
X119818373Y-145621664D01*
X119783654Y-145606206D01*
X119596853Y-145566500D01*
X119405879Y-145566500D01*
X119219077Y-145606206D01*
X119044613Y-145683882D01*
X118890110Y-145796135D01*
X118762331Y-145938048D01*
X118762324Y-145938058D01*
X118666842Y-146103438D01*
X118666839Y-146103445D01*
X118607823Y-146285072D01*
X118587862Y-146475000D01*
X103303886Y-146475000D01*
X103289297Y-146417387D01*
X103289296Y-146417386D01*
X103289296Y-146417384D01*
X103198860Y-146211209D01*
X103150345Y-146136951D01*
X103075724Y-146022734D01*
X103075720Y-146022729D01*
X102923237Y-145857091D01*
X102836945Y-145789927D01*
X102745576Y-145718811D01*
X102712319Y-145700813D01*
X102661929Y-145650802D01*
X102646576Y-145581485D01*
X102671136Y-145514872D01*
X102712320Y-145479186D01*
X102745576Y-145461189D01*
X102923240Y-145322906D01*
X103075722Y-145157268D01*
X103198860Y-144968791D01*
X103289296Y-144762616D01*
X103344564Y-144544368D01*
X103362816Y-144324092D01*
X103388376Y-144257859D01*
X103445687Y-144215955D01*
X103488386Y-144208500D01*
X126839338Y-144208500D01*
X126907459Y-144228502D01*
X126928433Y-144245404D01*
X127481249Y-144798219D01*
X127515274Y-144860532D01*
X127510210Y-144931347D01*
X127493026Y-144962819D01*
X127485907Y-144972329D01*
X127355933Y-145210357D01*
X127355931Y-145210361D01*
X127261154Y-145464470D01*
X127203504Y-145729485D01*
X127184157Y-146000000D01*
X127203504Y-146270514D01*
X127261154Y-146535529D01*
X127355931Y-146789638D01*
X127355933Y-146789642D01*
X127485909Y-147027674D01*
X127648434Y-147244781D01*
X127648437Y-147244784D01*
X127648439Y-147244787D01*
X127840213Y-147436561D01*
X127840216Y-147436563D01*
X127840218Y-147436565D01*
X128057325Y-147599090D01*
X128237127Y-147697270D01*
X128295361Y-147729068D01*
X128549471Y-147823846D01*
X128814482Y-147881495D01*
X129085000Y-147900843D01*
X129355518Y-147881495D01*
X129620529Y-147823846D01*
X129874639Y-147729068D01*
X130112673Y-147599091D01*
X130329787Y-147436561D01*
X130521561Y-147244787D01*
X130684091Y-147027673D01*
X130814068Y-146789639D01*
X130908846Y-146535529D01*
X130966495Y-146270518D01*
X130985843Y-146000000D01*
X130966495Y-145729482D01*
X130908846Y-145464471D01*
X130814068Y-145210361D01*
X130684091Y-144972327D01*
X130681445Y-144968793D01*
X130521565Y-144755218D01*
X130521557Y-144755209D01*
X130329790Y-144563442D01*
X130329781Y-144563434D01*
X130112674Y-144400909D01*
X129874642Y-144270933D01*
X129874638Y-144270931D01*
X129620529Y-144176154D01*
X129355514Y-144118504D01*
X129095528Y-144099910D01*
X129085000Y-144099157D01*
X129084999Y-144099157D01*
X128863471Y-144115001D01*
X128794097Y-144099910D01*
X128765390Y-144078420D01*
X127636643Y-142949672D01*
X127594015Y-142921189D01*
X127520601Y-142872135D01*
X127426482Y-142833150D01*
X127426480Y-142833149D01*
X127391669Y-142818729D01*
X127391663Y-142818727D01*
X127357441Y-142811920D01*
X127323221Y-142805113D01*
X127323220Y-142805112D01*
X127254787Y-142791500D01*
X127254782Y-142791500D01*
X127254781Y-142791500D01*
X124083906Y-142791500D01*
X124015785Y-142771498D01*
X123969292Y-142717842D01*
X123959188Y-142647568D01*
X123967497Y-142617282D01*
X124039260Y-142444028D01*
X124039262Y-142444023D01*
X124077999Y-142249281D01*
X124078000Y-142249277D01*
X124078000Y-142154000D01*
X123370000Y-142154000D01*
X123370000Y-141646000D01*
X124078000Y-141646000D01*
X124078000Y-141550722D01*
X124077999Y-141550718D01*
X124039262Y-141355976D01*
X124039260Y-141355971D01*
X124016076Y-141300000D01*
X127184157Y-141300000D01*
X127203504Y-141570514D01*
X127261154Y-141835529D01*
X127355931Y-142089638D01*
X127355933Y-142089642D01*
X127485909Y-142327674D01*
X127648434Y-142544781D01*
X127648437Y-142544784D01*
X127648439Y-142544787D01*
X127840213Y-142736561D01*
X127840216Y-142736563D01*
X127840218Y-142736565D01*
X128057325Y-142899090D01*
X128239482Y-142998556D01*
X128295361Y-143029068D01*
X128549471Y-143123846D01*
X128814482Y-143181495D01*
X129085000Y-143200843D01*
X129355518Y-143181495D01*
X129620529Y-143123846D01*
X129874639Y-143029068D01*
X130112673Y-142899091D01*
X130329787Y-142736561D01*
X130521561Y-142544787D01*
X130684091Y-142327673D01*
X130814068Y-142089639D01*
X130908846Y-141835529D01*
X130966495Y-141570518D01*
X130985843Y-141300000D01*
X130966495Y-141029482D01*
X130908846Y-140764471D01*
X130814068Y-140510361D01*
X130780825Y-140449482D01*
X130684090Y-140272325D01*
X130521565Y-140055218D01*
X130521557Y-140055209D01*
X130329790Y-139863442D01*
X130329781Y-139863434D01*
X130112674Y-139700909D01*
X129874642Y-139570933D01*
X129874638Y-139570931D01*
X129620529Y-139476154D01*
X129355514Y-139418504D01*
X129085000Y-139399157D01*
X128814485Y-139418504D01*
X128549470Y-139476154D01*
X128295361Y-139570931D01*
X128295357Y-139570933D01*
X128057325Y-139700909D01*
X127840218Y-139863434D01*
X127840209Y-139863442D01*
X127648442Y-140055209D01*
X127648434Y-140055218D01*
X127485909Y-140272325D01*
X127355933Y-140510357D01*
X127355931Y-140510361D01*
X127261154Y-140764470D01*
X127203504Y-141029485D01*
X127184157Y-141300000D01*
X124016076Y-141300000D01*
X123963277Y-141172533D01*
X123852967Y-141007442D01*
X123852962Y-141007435D01*
X123712564Y-140867037D01*
X123712557Y-140867032D01*
X123547467Y-140756722D01*
X123364020Y-140680736D01*
X123364015Y-140680735D01*
X123324000Y-140672774D01*
X123324000Y-141489939D01*
X123310060Y-141465795D01*
X123254205Y-141409940D01*
X123185796Y-141370444D01*
X123109496Y-141350000D01*
X123030504Y-141350000D01*
X122954204Y-141370444D01*
X122885795Y-141409940D01*
X122829940Y-141465795D01*
X122816000Y-141489939D01*
X122816000Y-140672775D01*
X122815999Y-140672774D01*
X122775984Y-140680735D01*
X122775979Y-140680736D01*
X122592532Y-140756722D01*
X122427442Y-140867032D01*
X122427435Y-140867037D01*
X122287037Y-141007435D01*
X122287032Y-141007442D01*
X122176722Y-141172533D01*
X122100739Y-141355971D01*
X122100737Y-141355976D01*
X122062000Y-141550718D01*
X122062000Y-141646000D01*
X122770000Y-141646000D01*
X122770000Y-142154000D01*
X122062000Y-142154000D01*
X122062000Y-142249281D01*
X122100737Y-142444023D01*
X122100739Y-142444028D01*
X122172503Y-142617282D01*
X122180092Y-142687872D01*
X122148313Y-142751359D01*
X122087255Y-142787586D01*
X122056094Y-142791500D01*
X120469096Y-142791500D01*
X120400975Y-142771498D01*
X120354482Y-142717842D01*
X120344378Y-142647568D01*
X120359977Y-142602500D01*
X120393296Y-142544790D01*
X120419799Y-142498886D01*
X120450500Y-142384309D01*
X120450500Y-142065691D01*
X120419799Y-141951114D01*
X120360489Y-141848387D01*
X120360487Y-141848385D01*
X120360483Y-141848380D01*
X120276619Y-141764516D01*
X120276609Y-141764508D01*
X120173886Y-141705201D01*
X120145817Y-141697680D01*
X120059309Y-141674500D01*
X119940691Y-141674500D01*
X119864306Y-141694967D01*
X119826113Y-141705201D01*
X119723390Y-141764508D01*
X119723380Y-141764516D01*
X119639516Y-141848380D01*
X119639508Y-141848390D01*
X119580201Y-141951113D01*
X119549500Y-142065692D01*
X119549500Y-142384307D01*
X119549499Y-142384307D01*
X119580201Y-142498886D01*
X119640023Y-142602500D01*
X119656761Y-142671495D01*
X119633541Y-142738587D01*
X119577734Y-142782474D01*
X119530904Y-142791500D01*
X117943906Y-142791500D01*
X117875785Y-142771498D01*
X117829292Y-142717842D01*
X117819188Y-142647568D01*
X117827497Y-142617282D01*
X117899260Y-142444028D01*
X117899262Y-142444023D01*
X117937999Y-142249281D01*
X117938000Y-142249277D01*
X117938000Y-142154000D01*
X117230000Y-142154000D01*
X117230000Y-141646000D01*
X117938000Y-141646000D01*
X117938000Y-141550722D01*
X117937999Y-141550718D01*
X117899262Y-141355976D01*
X117899260Y-141355971D01*
X117823277Y-141172533D01*
X117712967Y-141007442D01*
X117712962Y-141007435D01*
X117572564Y-140867037D01*
X117572557Y-140867032D01*
X117407467Y-140756722D01*
X117224020Y-140680736D01*
X117224015Y-140680735D01*
X117184000Y-140672774D01*
X117184000Y-141489939D01*
X117170060Y-141465795D01*
X117114205Y-141409940D01*
X117045796Y-141370444D01*
X116969496Y-141350000D01*
X116890504Y-141350000D01*
X116814204Y-141370444D01*
X116745795Y-141409940D01*
X116689940Y-141465795D01*
X116676000Y-141489939D01*
X116676000Y-140672775D01*
X116675999Y-140672774D01*
X116635984Y-140680735D01*
X116635979Y-140680736D01*
X116452532Y-140756722D01*
X116287442Y-140867032D01*
X116287435Y-140867037D01*
X116147037Y-141007435D01*
X116147032Y-141007442D01*
X116036722Y-141172533D01*
X115960739Y-141355971D01*
X115960737Y-141355976D01*
X115922000Y-141550718D01*
X115922000Y-141646000D01*
X116630000Y-141646000D01*
X116630000Y-142154000D01*
X115922000Y-142154000D01*
X115922000Y-142249281D01*
X115960737Y-142444023D01*
X115960739Y-142444028D01*
X116032503Y-142617282D01*
X116040092Y-142687872D01*
X116008313Y-142751359D01*
X115947255Y-142787586D01*
X115916094Y-142791500D01*
X109831058Y-142791500D01*
X109762937Y-142771498D01*
X109716444Y-142717842D01*
X109706340Y-142647568D01*
X109735834Y-142582988D01*
X109741963Y-142576405D01*
X109845088Y-142473279D01*
X109845092Y-142473275D01*
X109966427Y-142296146D01*
X110053150Y-142099739D01*
X110102306Y-141890740D01*
X110108500Y-141801502D01*
X110108500Y-140358498D01*
X110102306Y-140269260D01*
X110053150Y-140060261D01*
X109966427Y-139863854D01*
X109845092Y-139686725D01*
X109845091Y-139686724D01*
X109845088Y-139686720D01*
X109693279Y-139534911D01*
X109693275Y-139534908D01*
X109516145Y-139413572D01*
X109319740Y-139326850D01*
X109110741Y-139277694D01*
X109021503Y-139271500D01*
X109021502Y-139271500D01*
X107578498Y-139271500D01*
X107578487Y-139271500D01*
X107556229Y-139273045D01*
X107486887Y-139257806D01*
X107458416Y-139236445D01*
X106911643Y-138689672D01*
X106795601Y-138612135D01*
X106704427Y-138574369D01*
X106704426Y-138574368D01*
X106666669Y-138558729D01*
X106666663Y-138558727D01*
X106666662Y-138558727D01*
X106598221Y-138545113D01*
X106598220Y-138545112D01*
X106529787Y-138531500D01*
X106529782Y-138531500D01*
X106529781Y-138531500D01*
X103228038Y-138531500D01*
X103159917Y-138511498D01*
X103122555Y-138474415D01*
X103075724Y-138402734D01*
X103075720Y-138402729D01*
X102923237Y-138237091D01*
X102841382Y-138173381D01*
X102745576Y-138098811D01*
X102712319Y-138080813D01*
X102661929Y-138030802D01*
X102646576Y-137961485D01*
X102671136Y-137894872D01*
X102712320Y-137859186D01*
X102745576Y-137841189D01*
X102923240Y-137702906D01*
X103075722Y-137537268D01*
X103198860Y-137348791D01*
X103289296Y-137142616D01*
X103312750Y-137050000D01*
X115237337Y-137050000D01*
X115255960Y-137286632D01*
X115311371Y-137517437D01*
X115402208Y-137736738D01*
X115516896Y-137923890D01*
X115516897Y-137923890D01*
X116225016Y-137215771D01*
X116237482Y-137262292D01*
X116309890Y-137387708D01*
X116412292Y-137490110D01*
X116537708Y-137562518D01*
X116584226Y-137574982D01*
X115876107Y-138283101D01*
X115876108Y-138283102D01*
X116063261Y-138397791D01*
X116282562Y-138488628D01*
X116513367Y-138544039D01*
X116750000Y-138562662D01*
X116986632Y-138544039D01*
X117217437Y-138488628D01*
X117436738Y-138397791D01*
X117623890Y-138283102D01*
X117623891Y-138283102D01*
X116915772Y-137574982D01*
X116962292Y-137562518D01*
X117087708Y-137490110D01*
X117190110Y-137387708D01*
X117262518Y-137262292D01*
X117274983Y-137215772D01*
X117983102Y-137923891D01*
X117983102Y-137923890D01*
X118097791Y-137736738D01*
X118188628Y-137517437D01*
X118244039Y-137286632D01*
X118262662Y-137050000D01*
X121737337Y-137050000D01*
X121755960Y-137286632D01*
X121811371Y-137517437D01*
X121902208Y-137736738D01*
X122016896Y-137923890D01*
X122016897Y-137923890D01*
X122725016Y-137215771D01*
X122737482Y-137262292D01*
X122809890Y-137387708D01*
X122912292Y-137490110D01*
X123037708Y-137562518D01*
X123084226Y-137574982D01*
X122376107Y-138283101D01*
X122376108Y-138283102D01*
X122563261Y-138397791D01*
X122782562Y-138488628D01*
X123013367Y-138544039D01*
X123250000Y-138562662D01*
X123486632Y-138544039D01*
X123717437Y-138488628D01*
X123936738Y-138397791D01*
X124123890Y-138283102D01*
X124123891Y-138283102D01*
X123415772Y-137574982D01*
X123462292Y-137562518D01*
X123587708Y-137490110D01*
X123690110Y-137387708D01*
X123762518Y-137262292D01*
X123774983Y-137215772D01*
X124483102Y-137923891D01*
X124483102Y-137923890D01*
X124597791Y-137736738D01*
X124688628Y-137517437D01*
X124744039Y-137286632D01*
X124762662Y-137050000D01*
X124744039Y-136813367D01*
X124688628Y-136582562D01*
X124597791Y-136363261D01*
X124483102Y-136176108D01*
X124483101Y-136176107D01*
X123774982Y-136884226D01*
X123762518Y-136837708D01*
X123690110Y-136712292D01*
X123587708Y-136609890D01*
X123462292Y-136537482D01*
X123415771Y-136525016D01*
X124123890Y-135816897D01*
X124123890Y-135816896D01*
X123936738Y-135702208D01*
X123717437Y-135611371D01*
X123486632Y-135555960D01*
X123250000Y-135537337D01*
X123013367Y-135555960D01*
X122782562Y-135611371D01*
X122563266Y-135702206D01*
X122376108Y-135816897D01*
X122376108Y-135816898D01*
X123084227Y-136525017D01*
X123037708Y-136537482D01*
X122912292Y-136609890D01*
X122809890Y-136712292D01*
X122737482Y-136837708D01*
X122725017Y-136884227D01*
X122016898Y-136176108D01*
X122016897Y-136176108D01*
X121902206Y-136363266D01*
X121811371Y-136582562D01*
X121755960Y-136813367D01*
X121737337Y-137050000D01*
X118262662Y-137050000D01*
X118244039Y-136813367D01*
X118188628Y-136582562D01*
X118097791Y-136363261D01*
X117983102Y-136176108D01*
X117983101Y-136176107D01*
X117274982Y-136884226D01*
X117262518Y-136837708D01*
X117190110Y-136712292D01*
X117087708Y-136609890D01*
X116962292Y-136537482D01*
X116915771Y-136525016D01*
X117623890Y-135816897D01*
X117623890Y-135816896D01*
X117436738Y-135702208D01*
X117217437Y-135611371D01*
X116986632Y-135555960D01*
X116750000Y-135537337D01*
X116513367Y-135555960D01*
X116282562Y-135611371D01*
X116063266Y-135702206D01*
X115876108Y-135816897D01*
X115876108Y-135816898D01*
X116584227Y-136525017D01*
X116537708Y-136537482D01*
X116412292Y-136609890D01*
X116309890Y-136712292D01*
X116237482Y-136837708D01*
X116225017Y-136884227D01*
X115516898Y-136176108D01*
X115516897Y-136176108D01*
X115402206Y-136363266D01*
X115311371Y-136582562D01*
X115255960Y-136813367D01*
X115237337Y-137050000D01*
X103312750Y-137050000D01*
X103344564Y-136924368D01*
X103363156Y-136700000D01*
X103344564Y-136475632D01*
X103289296Y-136257384D01*
X103198860Y-136051209D01*
X103168406Y-136004595D01*
X103075724Y-135862734D01*
X103075720Y-135862729D01*
X102923237Y-135697091D01*
X102813104Y-135611371D01*
X102745576Y-135558811D01*
X102712319Y-135540813D01*
X102661929Y-135490802D01*
X102646576Y-135421485D01*
X102671136Y-135354872D01*
X102712320Y-135319186D01*
X102745576Y-135301189D01*
X102923240Y-135162906D01*
X103075722Y-134997268D01*
X103198860Y-134808791D01*
X103289296Y-134602616D01*
X103344564Y-134384368D01*
X103363156Y-134160000D01*
X103344564Y-133935632D01*
X103303677Y-133774173D01*
X103289297Y-133717387D01*
X103289296Y-133717386D01*
X103289296Y-133717384D01*
X103198860Y-133511209D01*
X103192140Y-133500924D01*
X103075724Y-133322734D01*
X103075720Y-133322729D01*
X102923237Y-133157091D01*
X102841382Y-133093381D01*
X102745576Y-133018811D01*
X102743327Y-133017594D01*
X102712320Y-133000814D01*
X102661929Y-132950802D01*
X102646576Y-132881485D01*
X102671136Y-132814872D01*
X102712320Y-132779186D01*
X102712847Y-132778901D01*
X102745576Y-132761189D01*
X102923240Y-132622906D01*
X102990355Y-132550000D01*
X115236835Y-132550000D01*
X115255465Y-132786710D01*
X115310894Y-133017592D01*
X115401759Y-133236961D01*
X115525825Y-133439417D01*
X115525826Y-133439419D01*
X115680030Y-133619969D01*
X115813833Y-133734247D01*
X115860584Y-133774176D01*
X116063037Y-133898240D01*
X116282406Y-133989105D01*
X116513289Y-134044535D01*
X116750000Y-134063165D01*
X116986711Y-134044535D01*
X117217594Y-133989105D01*
X117436963Y-133898240D01*
X117639416Y-133774176D01*
X117819969Y-133619969D01*
X117974176Y-133439416D01*
X118098240Y-133236963D01*
X118189105Y-133017594D01*
X118244535Y-132786711D01*
X118263165Y-132550000D01*
X121736835Y-132550000D01*
X121755465Y-132786710D01*
X121810894Y-133017592D01*
X121901759Y-133236961D01*
X122025825Y-133439417D01*
X122025826Y-133439419D01*
X122180030Y-133619969D01*
X122313833Y-133734247D01*
X122360584Y-133774176D01*
X122563037Y-133898240D01*
X122782406Y-133989105D01*
X123013289Y-134044535D01*
X123250000Y-134063165D01*
X123486711Y-134044535D01*
X123717594Y-133989105D01*
X123936963Y-133898240D01*
X124139416Y-133774176D01*
X124319969Y-133619969D01*
X124474176Y-133439416D01*
X124598240Y-133236963D01*
X124689105Y-133017594D01*
X124744535Y-132786711D01*
X124763165Y-132550000D01*
X124744535Y-132313289D01*
X124689105Y-132082406D01*
X124598240Y-131863037D01*
X124474176Y-131660584D01*
X124439514Y-131620000D01*
X124319969Y-131480030D01*
X124139419Y-131325826D01*
X124139417Y-131325825D01*
X124139416Y-131325824D01*
X123936963Y-131201760D01*
X123878515Y-131177550D01*
X123717592Y-131110894D01*
X123559651Y-131072976D01*
X123486711Y-131055465D01*
X123250000Y-131036835D01*
X123013289Y-131055465D01*
X122782407Y-131110894D01*
X122563038Y-131201759D01*
X122360582Y-131325825D01*
X122360580Y-131325826D01*
X122180030Y-131480030D01*
X122025826Y-131660580D01*
X122025825Y-131660582D01*
X121901759Y-131863038D01*
X121810894Y-132082407D01*
X121755465Y-132313289D01*
X121736835Y-132550000D01*
X118263165Y-132550000D01*
X118244535Y-132313289D01*
X118189105Y-132082406D01*
X118098240Y-131863037D01*
X117974176Y-131660584D01*
X117939514Y-131620000D01*
X117819969Y-131480030D01*
X117639419Y-131325826D01*
X117639417Y-131325825D01*
X117639416Y-131325824D01*
X117436963Y-131201760D01*
X117378515Y-131177550D01*
X117217592Y-131110894D01*
X117059651Y-131072976D01*
X116986711Y-131055465D01*
X116750000Y-131036835D01*
X116513289Y-131055465D01*
X116282407Y-131110894D01*
X116063038Y-131201759D01*
X115860582Y-131325825D01*
X115860580Y-131325826D01*
X115680030Y-131480030D01*
X115525826Y-131660580D01*
X115525825Y-131660582D01*
X115401759Y-131863038D01*
X115310894Y-132082407D01*
X115255465Y-132313289D01*
X115236835Y-132550000D01*
X102990355Y-132550000D01*
X103075722Y-132457268D01*
X103198860Y-132268791D01*
X103289296Y-132062616D01*
X103344564Y-131844368D01*
X103363156Y-131620000D01*
X103344564Y-131395632D01*
X103326887Y-131325826D01*
X103289297Y-131177387D01*
X103289296Y-131177386D01*
X103289296Y-131177384D01*
X103198860Y-130971209D01*
X103192140Y-130960924D01*
X103075724Y-130782734D01*
X103075720Y-130782729D01*
X102958689Y-130655601D01*
X102923240Y-130617094D01*
X102923239Y-130617093D01*
X102923237Y-130617091D01*
X102841382Y-130553381D01*
X102745576Y-130478811D01*
X102712319Y-130460813D01*
X102661929Y-130410802D01*
X102646576Y-130341485D01*
X102671136Y-130274872D01*
X102712320Y-130239186D01*
X102745576Y-130221189D01*
X102923240Y-130082906D01*
X103075722Y-129917268D01*
X103198860Y-129728791D01*
X103289296Y-129522616D01*
X103344564Y-129304368D01*
X103363156Y-129080000D01*
X103344564Y-128855632D01*
X103344563Y-128855627D01*
X103344562Y-128855621D01*
X103338250Y-128830697D01*
X103340917Y-128759751D01*
X103371297Y-128710672D01*
X104853373Y-127228597D01*
X110742000Y-127228597D01*
X110748505Y-127289093D01*
X110799555Y-127425964D01*
X110799555Y-127425965D01*
X110887095Y-127542904D01*
X111004034Y-127630444D01*
X111140906Y-127681494D01*
X111201402Y-127687999D01*
X111201415Y-127688000D01*
X112246000Y-127688000D01*
X112754000Y-127688000D01*
X113798585Y-127688000D01*
X113798597Y-127687999D01*
X113859093Y-127681494D01*
X113995964Y-127630444D01*
X113995965Y-127630444D01*
X114112904Y-127542904D01*
X114200444Y-127425965D01*
X114200444Y-127425964D01*
X114251494Y-127289093D01*
X114257999Y-127228597D01*
X114258000Y-127228585D01*
X114258000Y-126934000D01*
X112754000Y-126934000D01*
X112754000Y-127688000D01*
X112246000Y-127688000D01*
X112246000Y-126934000D01*
X110742000Y-126934000D01*
X110742000Y-127228597D01*
X104853373Y-127228597D01*
X105451698Y-126630272D01*
X111750000Y-126630272D01*
X111750000Y-126729728D01*
X111788060Y-126821614D01*
X111858386Y-126891940D01*
X111950272Y-126930000D01*
X113049728Y-126930000D01*
X113141614Y-126891940D01*
X113211940Y-126821614D01*
X113250000Y-126729728D01*
X113250000Y-126630272D01*
X113211940Y-126538386D01*
X113141614Y-126468060D01*
X113049728Y-126430000D01*
X111950272Y-126430000D01*
X111858386Y-126468060D01*
X111788060Y-126538386D01*
X111750000Y-126630272D01*
X105451698Y-126630272D01*
X105950568Y-126131402D01*
X110742000Y-126131402D01*
X110742000Y-126426000D01*
X112246000Y-126426000D01*
X112754000Y-126426000D01*
X114258000Y-126426000D01*
X114258000Y-126131414D01*
X114257999Y-126131402D01*
X114251494Y-126070906D01*
X114200444Y-125934035D01*
X114200444Y-125934034D01*
X114112904Y-125817095D01*
X113995965Y-125729555D01*
X113859093Y-125678505D01*
X113798597Y-125672000D01*
X112754000Y-125672000D01*
X112754000Y-126426000D01*
X112246000Y-126426000D01*
X112246000Y-125672000D01*
X111201402Y-125672000D01*
X111140906Y-125678505D01*
X111004035Y-125729555D01*
X111004034Y-125729555D01*
X110887095Y-125817095D01*
X110799555Y-125934034D01*
X110799555Y-125934035D01*
X110748505Y-126070906D01*
X110742000Y-126131402D01*
X105950568Y-126131402D01*
X108900328Y-123181643D01*
X108977865Y-123065601D01*
X108992052Y-123031350D01*
X110741500Y-123031350D01*
X110741500Y-124128649D01*
X110748009Y-124189196D01*
X110748011Y-124189204D01*
X110799110Y-124326202D01*
X110799112Y-124326207D01*
X110886738Y-124443261D01*
X111003792Y-124530887D01*
X111003794Y-124530888D01*
X111003796Y-124530889D01*
X111062875Y-124552924D01*
X111140795Y-124581988D01*
X111140803Y-124581990D01*
X111201350Y-124588499D01*
X111201355Y-124588499D01*
X111201362Y-124588500D01*
X111201368Y-124588500D01*
X113798632Y-124588500D01*
X113798638Y-124588500D01*
X113798645Y-124588499D01*
X113798649Y-124588499D01*
X113859196Y-124581990D01*
X113859199Y-124581989D01*
X113859201Y-124581989D01*
X113996204Y-124530889D01*
X114113261Y-124443261D01*
X114200889Y-124326204D01*
X114251989Y-124189201D01*
X114258500Y-124128638D01*
X114258500Y-123031362D01*
X114254863Y-122997532D01*
X114251990Y-122970803D01*
X114251988Y-122970795D01*
X114200889Y-122833797D01*
X114200887Y-122833792D01*
X114113261Y-122716738D01*
X113996207Y-122629112D01*
X113996202Y-122629110D01*
X113859204Y-122578011D01*
X113859196Y-122578009D01*
X113798649Y-122571500D01*
X113798638Y-122571500D01*
X111201362Y-122571500D01*
X111201350Y-122571500D01*
X111140803Y-122578009D01*
X111140795Y-122578011D01*
X111003797Y-122629110D01*
X111003792Y-122629112D01*
X110886738Y-122716738D01*
X110799112Y-122833792D01*
X110799110Y-122833797D01*
X110748011Y-122970795D01*
X110748009Y-122970803D01*
X110741500Y-123031350D01*
X108992052Y-123031350D01*
X109031273Y-122936661D01*
X109058500Y-122799782D01*
X109058500Y-122660219D01*
X109058500Y-120081908D01*
X110999500Y-120081908D01*
X110999500Y-120318092D01*
X111036447Y-120551368D01*
X111109432Y-120775992D01*
X111109433Y-120775993D01*
X111216659Y-120986436D01*
X111355484Y-121177512D01*
X111522487Y-121344515D01*
X111522490Y-121344517D01*
X111713567Y-121483343D01*
X111924008Y-121590568D01*
X112148632Y-121663553D01*
X112381908Y-121700500D01*
X112381911Y-121700500D01*
X112618089Y-121700500D01*
X112618092Y-121700500D01*
X112851368Y-121663553D01*
X113075992Y-121590568D01*
X113286433Y-121483343D01*
X113477510Y-121344517D01*
X113644517Y-121177510D01*
X113783343Y-120986433D01*
X113890568Y-120775992D01*
X113963553Y-120551368D01*
X114000500Y-120318092D01*
X114000500Y-120081908D01*
X113963553Y-119848632D01*
X113890568Y-119624008D01*
X113783343Y-119413567D01*
X113644517Y-119222490D01*
X113644515Y-119222487D01*
X113477512Y-119055484D01*
X113286436Y-118916659D01*
X113286435Y-118916658D01*
X113286433Y-118916657D01*
X113075992Y-118809432D01*
X112851368Y-118736447D01*
X112618092Y-118699500D01*
X112381908Y-118699500D01*
X112148632Y-118736447D01*
X112148629Y-118736447D01*
X112148628Y-118736448D01*
X111924008Y-118809432D01*
X111924006Y-118809433D01*
X111713563Y-118916659D01*
X111522487Y-119055484D01*
X111355484Y-119222487D01*
X111216659Y-119413563D01*
X111109433Y-119624006D01*
X111109432Y-119624008D01*
X111052873Y-119798079D01*
X111036447Y-119848632D01*
X110999500Y-120081908D01*
X109058500Y-120081908D01*
X109058500Y-114731350D01*
X110741500Y-114731350D01*
X110741500Y-115828649D01*
X110748009Y-115889196D01*
X110748011Y-115889204D01*
X110799110Y-116026202D01*
X110799112Y-116026207D01*
X110886738Y-116143261D01*
X111003792Y-116230887D01*
X111003794Y-116230888D01*
X111003796Y-116230889D01*
X111062875Y-116252924D01*
X111140795Y-116281988D01*
X111140803Y-116281990D01*
X111201350Y-116288499D01*
X111201355Y-116288499D01*
X111201362Y-116288500D01*
X111201368Y-116288500D01*
X113798632Y-116288500D01*
X113798638Y-116288500D01*
X113798645Y-116288499D01*
X113798649Y-116288499D01*
X113859196Y-116281990D01*
X113859199Y-116281989D01*
X113859201Y-116281989D01*
X113996204Y-116230889D01*
X114113261Y-116143261D01*
X114200889Y-116026204D01*
X114251989Y-115889201D01*
X114258500Y-115828638D01*
X114258500Y-114731362D01*
X114258499Y-114731350D01*
X114251990Y-114670803D01*
X114251988Y-114670795D01*
X114200889Y-114533797D01*
X114200887Y-114533792D01*
X114141972Y-114455091D01*
X114117161Y-114388571D01*
X114132253Y-114319196D01*
X114141973Y-114304072D01*
X114200443Y-114225966D01*
X114200444Y-114225964D01*
X114251494Y-114089093D01*
X114257999Y-114028597D01*
X114258000Y-114028585D01*
X114258000Y-113734000D01*
X110742000Y-113734000D01*
X110742000Y-114028597D01*
X110748505Y-114089093D01*
X110799555Y-114225964D01*
X110799555Y-114225965D01*
X110858027Y-114304073D01*
X110882838Y-114370593D01*
X110867747Y-114439967D01*
X110858028Y-114455090D01*
X110799112Y-114533793D01*
X110799110Y-114533797D01*
X110748011Y-114670795D01*
X110748009Y-114670803D01*
X110741500Y-114731350D01*
X109058500Y-114731350D01*
X109058500Y-113430272D01*
X111750000Y-113430272D01*
X111750000Y-113529728D01*
X111788060Y-113621614D01*
X111858386Y-113691940D01*
X111950272Y-113730000D01*
X113049728Y-113730000D01*
X113141614Y-113691940D01*
X113211940Y-113621614D01*
X113250000Y-113529728D01*
X113250000Y-113430272D01*
X113211940Y-113338386D01*
X113141614Y-113268060D01*
X113049728Y-113230000D01*
X111950272Y-113230000D01*
X111858386Y-113268060D01*
X111788060Y-113338386D01*
X111750000Y-113430272D01*
X109058500Y-113430272D01*
X109058500Y-112931402D01*
X110742000Y-112931402D01*
X110742000Y-113226000D01*
X112246000Y-113226000D01*
X112754000Y-113226000D01*
X114258000Y-113226000D01*
X114258000Y-112931414D01*
X114257999Y-112931402D01*
X114251494Y-112870906D01*
X114200444Y-112734035D01*
X114200444Y-112734034D01*
X114112904Y-112617095D01*
X113995965Y-112529555D01*
X113859093Y-112478505D01*
X113798597Y-112472000D01*
X112754000Y-112472000D01*
X112754000Y-113226000D01*
X112246000Y-113226000D01*
X112246000Y-112472000D01*
X111201402Y-112472000D01*
X111140906Y-112478505D01*
X111004035Y-112529555D01*
X111004034Y-112529555D01*
X110887095Y-112617095D01*
X110799555Y-112734034D01*
X110799555Y-112734035D01*
X110748505Y-112870906D01*
X110742000Y-112931402D01*
X109058500Y-112931402D01*
X109058500Y-109831350D01*
X110741500Y-109831350D01*
X110741500Y-110928649D01*
X110748009Y-110989196D01*
X110748011Y-110989204D01*
X110799110Y-111126202D01*
X110799112Y-111126207D01*
X110886738Y-111243261D01*
X111003792Y-111330887D01*
X111003794Y-111330888D01*
X111003796Y-111330889D01*
X111062875Y-111352924D01*
X111140795Y-111381988D01*
X111140803Y-111381990D01*
X111201350Y-111388499D01*
X111201355Y-111388499D01*
X111201362Y-111388500D01*
X111201368Y-111388500D01*
X113798632Y-111388500D01*
X113798638Y-111388500D01*
X113798645Y-111388499D01*
X113798649Y-111388499D01*
X113859196Y-111381990D01*
X113859199Y-111381989D01*
X113859201Y-111381989D01*
X113996204Y-111330889D01*
X114113261Y-111243261D01*
X114200889Y-111126204D01*
X114251989Y-110989201D01*
X114258500Y-110928638D01*
X114258500Y-109831362D01*
X114254863Y-109797532D01*
X114251990Y-109770803D01*
X114251988Y-109770795D01*
X114200889Y-109633797D01*
X114200887Y-109633792D01*
X114113261Y-109516738D01*
X113996207Y-109429112D01*
X113996202Y-109429110D01*
X113859204Y-109378011D01*
X113859196Y-109378009D01*
X113798649Y-109371500D01*
X113798638Y-109371500D01*
X111201362Y-109371500D01*
X111201350Y-109371500D01*
X111140803Y-109378009D01*
X111140795Y-109378011D01*
X111003797Y-109429110D01*
X111003792Y-109429112D01*
X110886738Y-109516738D01*
X110799112Y-109633792D01*
X110799110Y-109633797D01*
X110748011Y-109770795D01*
X110748009Y-109770803D01*
X110741500Y-109831350D01*
X109058500Y-109831350D01*
X109058500Y-106881908D01*
X110999500Y-106881908D01*
X110999500Y-107118092D01*
X111036447Y-107351368D01*
X111109432Y-107575992D01*
X111109433Y-107575993D01*
X111216659Y-107786436D01*
X111355484Y-107977512D01*
X111522487Y-108144515D01*
X111522490Y-108144517D01*
X111713567Y-108283343D01*
X111924008Y-108390568D01*
X112148632Y-108463553D01*
X112381908Y-108500500D01*
X112381911Y-108500500D01*
X112618089Y-108500500D01*
X112618092Y-108500500D01*
X112851368Y-108463553D01*
X113075992Y-108390568D01*
X113286433Y-108283343D01*
X113477510Y-108144517D01*
X113644517Y-107977510D01*
X113783343Y-107786433D01*
X113890568Y-107575992D01*
X113963553Y-107351368D01*
X114000500Y-107118092D01*
X114000500Y-106881908D01*
X113963553Y-106648632D01*
X113890568Y-106424008D01*
X113783343Y-106213567D01*
X113644517Y-106022490D01*
X113644515Y-106022487D01*
X113477512Y-105855484D01*
X113286436Y-105716659D01*
X113286435Y-105716658D01*
X113286433Y-105716657D01*
X113075992Y-105609432D01*
X112851368Y-105536447D01*
X112618092Y-105499500D01*
X112381908Y-105499500D01*
X112148632Y-105536447D01*
X112148629Y-105536447D01*
X112148628Y-105536448D01*
X111924008Y-105609432D01*
X111924006Y-105609433D01*
X111713563Y-105716659D01*
X111522487Y-105855484D01*
X111355484Y-106022487D01*
X111216659Y-106213563D01*
X111109433Y-106424006D01*
X111109432Y-106424008D01*
X111052873Y-106598079D01*
X111036447Y-106648632D01*
X110999500Y-106881908D01*
X109058500Y-106881908D01*
X109058500Y-101531350D01*
X110741500Y-101531350D01*
X110741500Y-102628649D01*
X110748009Y-102689196D01*
X110748011Y-102689204D01*
X110799110Y-102826202D01*
X110799112Y-102826207D01*
X110886738Y-102943261D01*
X111003792Y-103030887D01*
X111003794Y-103030888D01*
X111003796Y-103030889D01*
X111062875Y-103052924D01*
X111140795Y-103081988D01*
X111140803Y-103081990D01*
X111201350Y-103088499D01*
X111201355Y-103088499D01*
X111201362Y-103088500D01*
X111201368Y-103088500D01*
X113798632Y-103088500D01*
X113798638Y-103088500D01*
X113798645Y-103088499D01*
X113798649Y-103088499D01*
X113859196Y-103081990D01*
X113859199Y-103081989D01*
X113859201Y-103081989D01*
X113996204Y-103030889D01*
X114113261Y-102943261D01*
X114200889Y-102826204D01*
X114251989Y-102689201D01*
X114258500Y-102628638D01*
X114258500Y-101531362D01*
X114258499Y-101531350D01*
X114251990Y-101470803D01*
X114251988Y-101470795D01*
X114215621Y-101373293D01*
X114200889Y-101333796D01*
X114200888Y-101333794D01*
X114200887Y-101333792D01*
X114113261Y-101216738D01*
X113996207Y-101129112D01*
X113996202Y-101129110D01*
X113859204Y-101078011D01*
X113859196Y-101078009D01*
X113798649Y-101071500D01*
X113798638Y-101071500D01*
X111201362Y-101071500D01*
X111201350Y-101071500D01*
X111140803Y-101078009D01*
X111140795Y-101078011D01*
X111003797Y-101129110D01*
X111003792Y-101129112D01*
X110886738Y-101216738D01*
X110799112Y-101333792D01*
X110799110Y-101333797D01*
X110748011Y-101470795D01*
X110748009Y-101470803D01*
X110741500Y-101531350D01*
X109058500Y-101531350D01*
X109058500Y-98828597D01*
X110742000Y-98828597D01*
X110748505Y-98889093D01*
X110799555Y-99025964D01*
X110799555Y-99025965D01*
X110887095Y-99142904D01*
X111004034Y-99230444D01*
X111140906Y-99281494D01*
X111201402Y-99287999D01*
X111201415Y-99288000D01*
X112246000Y-99288000D01*
X112754000Y-99288000D01*
X113798585Y-99288000D01*
X113798597Y-99287999D01*
X113859093Y-99281494D01*
X113995964Y-99230444D01*
X113995965Y-99230444D01*
X114112904Y-99142904D01*
X114200444Y-99025965D01*
X114200444Y-99025964D01*
X114251494Y-98889093D01*
X114257999Y-98828597D01*
X114258000Y-98828585D01*
X114258000Y-98534000D01*
X112754000Y-98534000D01*
X112754000Y-99288000D01*
X112246000Y-99288000D01*
X112246000Y-98534000D01*
X110742000Y-98534000D01*
X110742000Y-98828597D01*
X109058500Y-98828597D01*
X109058500Y-98230272D01*
X111750000Y-98230272D01*
X111750000Y-98329728D01*
X111788060Y-98421614D01*
X111858386Y-98491940D01*
X111950272Y-98530000D01*
X113049728Y-98530000D01*
X113141614Y-98491940D01*
X113211940Y-98421614D01*
X113250000Y-98329728D01*
X113250000Y-98230272D01*
X113211940Y-98138386D01*
X113141614Y-98068060D01*
X113049728Y-98030000D01*
X111950272Y-98030000D01*
X111858386Y-98068060D01*
X111788060Y-98138386D01*
X111750000Y-98230272D01*
X109058500Y-98230272D01*
X109058500Y-97731402D01*
X110742000Y-97731402D01*
X110742000Y-98026000D01*
X112246000Y-98026000D01*
X112754000Y-98026000D01*
X114258000Y-98026000D01*
X114258000Y-97731414D01*
X114257999Y-97731402D01*
X114251494Y-97670906D01*
X114200444Y-97534035D01*
X114200444Y-97534034D01*
X114112904Y-97417095D01*
X113995965Y-97329555D01*
X113859093Y-97278505D01*
X113798597Y-97272000D01*
X112754000Y-97272000D01*
X112754000Y-98026000D01*
X112246000Y-98026000D01*
X112246000Y-97272000D01*
X111201402Y-97272000D01*
X111140906Y-97278505D01*
X111004035Y-97329555D01*
X111004034Y-97329555D01*
X110887095Y-97417095D01*
X110799555Y-97534034D01*
X110799555Y-97534035D01*
X110748505Y-97670906D01*
X110742000Y-97731402D01*
X109058500Y-97731402D01*
X109058500Y-94631350D01*
X110741500Y-94631350D01*
X110741500Y-95728649D01*
X110748009Y-95789196D01*
X110748011Y-95789204D01*
X110799110Y-95926202D01*
X110799112Y-95926207D01*
X110886738Y-96043261D01*
X111003792Y-96130887D01*
X111003794Y-96130888D01*
X111003796Y-96130889D01*
X111062875Y-96152924D01*
X111140795Y-96181988D01*
X111140803Y-96181990D01*
X111201350Y-96188499D01*
X111201355Y-96188499D01*
X111201362Y-96188500D01*
X111201368Y-96188500D01*
X113798632Y-96188500D01*
X113798638Y-96188500D01*
X113798645Y-96188499D01*
X113798649Y-96188499D01*
X113859196Y-96181990D01*
X113859199Y-96181989D01*
X113859201Y-96181989D01*
X113996204Y-96130889D01*
X114113261Y-96043261D01*
X114200889Y-95926204D01*
X114251989Y-95789201D01*
X114258500Y-95728638D01*
X114258500Y-94631362D01*
X114254863Y-94597532D01*
X114251990Y-94570803D01*
X114251988Y-94570795D01*
X114200889Y-94433797D01*
X114200887Y-94433792D01*
X114113261Y-94316738D01*
X113996207Y-94229112D01*
X113996202Y-94229110D01*
X113859204Y-94178011D01*
X113859196Y-94178009D01*
X113798649Y-94171500D01*
X113798638Y-94171500D01*
X111201362Y-94171500D01*
X111201350Y-94171500D01*
X111140803Y-94178009D01*
X111140795Y-94178011D01*
X111003797Y-94229110D01*
X111003792Y-94229112D01*
X110886738Y-94316738D01*
X110799112Y-94433792D01*
X110799110Y-94433797D01*
X110748011Y-94570795D01*
X110748009Y-94570803D01*
X110741500Y-94631350D01*
X109058500Y-94631350D01*
X109058500Y-91681908D01*
X110999500Y-91681908D01*
X110999500Y-91918092D01*
X111036447Y-92151368D01*
X111109432Y-92375992D01*
X111186969Y-92528167D01*
X111216659Y-92586436D01*
X111355484Y-92777512D01*
X111522487Y-92944515D01*
X111522490Y-92944517D01*
X111713567Y-93083343D01*
X111924008Y-93190568D01*
X112148632Y-93263553D01*
X112381908Y-93300500D01*
X112381911Y-93300500D01*
X112618089Y-93300500D01*
X112618092Y-93300500D01*
X112851368Y-93263553D01*
X113075992Y-93190568D01*
X113286433Y-93083343D01*
X113477510Y-92944517D01*
X113644517Y-92777510D01*
X113783343Y-92586433D01*
X113890568Y-92375992D01*
X113963553Y-92151368D01*
X114000500Y-91918092D01*
X114000500Y-91681908D01*
X113963553Y-91448632D01*
X113890568Y-91224008D01*
X113783343Y-91013567D01*
X113644517Y-90822490D01*
X113644515Y-90822487D01*
X113477512Y-90655484D01*
X113286436Y-90516659D01*
X113286435Y-90516658D01*
X113286433Y-90516657D01*
X113075992Y-90409432D01*
X112851368Y-90336447D01*
X112618092Y-90299500D01*
X112381908Y-90299500D01*
X112148632Y-90336447D01*
X112148629Y-90336447D01*
X112148628Y-90336448D01*
X111924008Y-90409432D01*
X111924006Y-90409433D01*
X111713563Y-90516659D01*
X111522487Y-90655484D01*
X111355484Y-90822487D01*
X111216659Y-91013563D01*
X111109433Y-91224006D01*
X111109432Y-91224008D01*
X111052873Y-91398079D01*
X111036447Y-91448632D01*
X110999500Y-91681908D01*
X109058500Y-91681908D01*
X109058500Y-85030272D01*
X111750000Y-85030272D01*
X111750000Y-85129728D01*
X111788060Y-85221614D01*
X111858386Y-85291940D01*
X111950272Y-85330000D01*
X113049728Y-85330000D01*
X113141614Y-85291940D01*
X113211940Y-85221614D01*
X113250000Y-85129728D01*
X113250000Y-85030272D01*
X113211940Y-84938386D01*
X113141614Y-84868060D01*
X113049728Y-84830000D01*
X111950272Y-84830000D01*
X111858386Y-84868060D01*
X111788060Y-84938386D01*
X111750000Y-85030272D01*
X109058500Y-85030272D01*
X109058500Y-84531402D01*
X110742000Y-84531402D01*
X110742000Y-84826000D01*
X112246000Y-84826000D01*
X112754000Y-84826000D01*
X114258000Y-84826000D01*
X114258000Y-84531414D01*
X114257999Y-84531402D01*
X114251494Y-84470906D01*
X114200444Y-84334035D01*
X114200444Y-84334034D01*
X114112904Y-84217095D01*
X113995965Y-84129555D01*
X113859093Y-84078505D01*
X113798597Y-84072000D01*
X112754000Y-84072000D01*
X112754000Y-84826000D01*
X112246000Y-84826000D01*
X112246000Y-84072000D01*
X111201402Y-84072000D01*
X111140906Y-84078505D01*
X111004035Y-84129555D01*
X111004034Y-84129555D01*
X110887095Y-84217095D01*
X110799555Y-84334034D01*
X110799555Y-84334035D01*
X110748505Y-84470906D01*
X110742000Y-84531402D01*
X109058500Y-84531402D01*
X109058500Y-81431350D01*
X110741500Y-81431350D01*
X110741500Y-82528649D01*
X110748009Y-82589196D01*
X110748011Y-82589204D01*
X110799110Y-82726202D01*
X110799112Y-82726207D01*
X110886738Y-82843261D01*
X111003792Y-82930887D01*
X111003794Y-82930888D01*
X111003796Y-82930889D01*
X111062875Y-82952924D01*
X111140795Y-82981988D01*
X111140803Y-82981990D01*
X111201350Y-82988499D01*
X111201355Y-82988499D01*
X111201362Y-82988500D01*
X111201368Y-82988500D01*
X113798632Y-82988500D01*
X113798638Y-82988500D01*
X113798645Y-82988499D01*
X113798649Y-82988499D01*
X113859196Y-82981990D01*
X113859199Y-82981989D01*
X113859201Y-82981989D01*
X113996204Y-82930889D01*
X114113261Y-82843261D01*
X114200889Y-82726204D01*
X114251989Y-82589201D01*
X114258500Y-82528638D01*
X114258500Y-81431362D01*
X114258499Y-81431350D01*
X114251990Y-81370803D01*
X114251988Y-81370795D01*
X114200889Y-81233797D01*
X114200887Y-81233792D01*
X114113261Y-81116738D01*
X113996207Y-81029112D01*
X113996202Y-81029110D01*
X113859204Y-80978011D01*
X113859196Y-80978009D01*
X113798649Y-80971500D01*
X113798638Y-80971500D01*
X111201362Y-80971500D01*
X111201350Y-80971500D01*
X111140803Y-80978009D01*
X111140795Y-80978011D01*
X111003797Y-81029110D01*
X111003792Y-81029112D01*
X110886738Y-81116738D01*
X110799112Y-81233792D01*
X110799110Y-81233797D01*
X110748011Y-81370795D01*
X110748009Y-81370803D01*
X110741500Y-81431350D01*
X109058500Y-81431350D01*
X109058500Y-78481908D01*
X110999500Y-78481908D01*
X110999500Y-78718092D01*
X111036447Y-78951368D01*
X111109432Y-79175992D01*
X111216657Y-79386433D01*
X111216659Y-79386436D01*
X111355484Y-79577512D01*
X111522487Y-79744515D01*
X111522490Y-79744517D01*
X111713567Y-79883343D01*
X111924008Y-79990568D01*
X112148632Y-80063553D01*
X112381908Y-80100500D01*
X112381911Y-80100500D01*
X112618089Y-80100500D01*
X112618092Y-80100500D01*
X112851368Y-80063553D01*
X113075992Y-79990568D01*
X113286433Y-79883343D01*
X113477510Y-79744517D01*
X113644517Y-79577510D01*
X113783343Y-79386433D01*
X113890568Y-79175992D01*
X113963553Y-78951368D01*
X114000500Y-78718092D01*
X114000500Y-78481908D01*
X113963553Y-78248632D01*
X113890568Y-78024008D01*
X113783343Y-77813567D01*
X113644517Y-77622490D01*
X113644515Y-77622487D01*
X113477512Y-77455484D01*
X113286436Y-77316659D01*
X113286435Y-77316658D01*
X113286433Y-77316657D01*
X113075992Y-77209432D01*
X112851368Y-77136447D01*
X112618092Y-77099500D01*
X112381908Y-77099500D01*
X112148632Y-77136447D01*
X112148629Y-77136447D01*
X112148628Y-77136448D01*
X111924008Y-77209432D01*
X111924006Y-77209433D01*
X111713563Y-77316659D01*
X111522487Y-77455484D01*
X111355484Y-77622487D01*
X111216659Y-77813563D01*
X111109433Y-78024006D01*
X111109432Y-78024008D01*
X111052873Y-78198079D01*
X111036447Y-78248632D01*
X110999500Y-78481908D01*
X109058500Y-78481908D01*
X109058500Y-76293951D01*
X109078502Y-76225830D01*
X109132158Y-76179337D01*
X109202432Y-76169233D01*
X109267012Y-76198727D01*
X109273595Y-76204856D01*
X109680223Y-76611484D01*
X109680227Y-76611487D01*
X109680231Y-76611491D01*
X109748836Y-76657331D01*
X109788083Y-76683555D01*
X109907923Y-76733194D01*
X110035143Y-76758500D01*
X110035144Y-76758500D01*
X110164857Y-76758500D01*
X117682157Y-76758500D01*
X117750278Y-76778502D01*
X117771252Y-76795405D01*
X119904595Y-78928747D01*
X119938620Y-78991059D01*
X119941500Y-79017842D01*
X119941500Y-122806050D01*
X119921498Y-122874171D01*
X119867842Y-122920664D01*
X119797568Y-122930768D01*
X119732988Y-122901274D01*
X119726405Y-122895145D01*
X119595405Y-122764145D01*
X119561379Y-122701833D01*
X119558500Y-122675050D01*
X119558500Y-92165147D01*
X119558499Y-92165139D01*
X119553449Y-92139749D01*
X119533196Y-92037927D01*
X119533195Y-92037926D01*
X119533195Y-92037923D01*
X119483555Y-91918083D01*
X119411491Y-91810231D01*
X114295405Y-86694145D01*
X114261379Y-86631833D01*
X114258500Y-86605050D01*
X114258500Y-86331367D01*
X114258499Y-86331350D01*
X114251990Y-86270803D01*
X114251988Y-86270795D01*
X114214951Y-86171498D01*
X114200889Y-86133796D01*
X114200887Y-86133793D01*
X114200887Y-86133792D01*
X114141972Y-86055091D01*
X114117161Y-85988571D01*
X114132253Y-85919196D01*
X114141973Y-85904072D01*
X114200443Y-85825966D01*
X114200444Y-85825964D01*
X114251494Y-85689093D01*
X114257999Y-85628597D01*
X114258000Y-85628585D01*
X114258000Y-85334000D01*
X110742000Y-85334000D01*
X110742000Y-85628597D01*
X110748505Y-85689093D01*
X110799555Y-85825964D01*
X110799555Y-85825965D01*
X110858027Y-85904073D01*
X110882838Y-85970593D01*
X110867747Y-86039967D01*
X110858028Y-86055090D01*
X110799112Y-86133793D01*
X110799110Y-86133797D01*
X110748011Y-86270795D01*
X110748009Y-86270803D01*
X110741500Y-86331350D01*
X110741500Y-87428649D01*
X110748009Y-87489196D01*
X110748011Y-87489204D01*
X110799110Y-87626202D01*
X110799112Y-87626207D01*
X110886738Y-87743261D01*
X111003792Y-87830887D01*
X111003794Y-87830888D01*
X111003796Y-87830889D01*
X111062875Y-87852924D01*
X111140795Y-87881988D01*
X111140803Y-87881990D01*
X111201350Y-87888499D01*
X111201355Y-87888499D01*
X111201362Y-87888500D01*
X113575050Y-87888500D01*
X113643171Y-87908502D01*
X113664145Y-87925405D01*
X118204595Y-92465855D01*
X118238621Y-92528167D01*
X118241500Y-92554950D01*
X118241500Y-123064860D01*
X118266806Y-123192077D01*
X118316445Y-123311917D01*
X118388509Y-123419769D01*
X118388513Y-123419773D01*
X134163910Y-139195170D01*
X134197936Y-139257482D01*
X134192871Y-139328297D01*
X134150324Y-139385133D01*
X134083804Y-139409944D01*
X134065827Y-139409944D01*
X133915000Y-139399157D01*
X133644485Y-139418504D01*
X133379470Y-139476154D01*
X133125361Y-139570931D01*
X133125357Y-139570933D01*
X132887325Y-139700909D01*
X132670218Y-139863434D01*
X132670209Y-139863442D01*
X132478442Y-140055209D01*
X132478434Y-140055218D01*
X132315909Y-140272325D01*
X132185933Y-140510357D01*
X132185931Y-140510361D01*
X132091154Y-140764470D01*
X132033504Y-141029485D01*
X132014157Y-141300000D01*
X132033504Y-141570514D01*
X132091154Y-141835529D01*
X132185931Y-142089638D01*
X132185933Y-142089642D01*
X132315909Y-142327674D01*
X132478434Y-142544781D01*
X132478437Y-142544784D01*
X132478439Y-142544787D01*
X132670213Y-142736561D01*
X132670216Y-142736563D01*
X132670218Y-142736565D01*
X132887325Y-142899090D01*
X133069482Y-142998556D01*
X133125361Y-143029068D01*
X133379471Y-143123846D01*
X133644482Y-143181495D01*
X133915000Y-143200843D01*
X134185518Y-143181495D01*
X134450529Y-143123846D01*
X134704639Y-143029068D01*
X134942673Y-142899091D01*
X135159787Y-142736561D01*
X135351561Y-142544787D01*
X135514091Y-142327673D01*
X135644068Y-142089639D01*
X135738846Y-141835529D01*
X135796495Y-141570518D01*
X135815843Y-141300000D01*
X135805055Y-141149171D01*
X135820146Y-141079799D01*
X135870348Y-141029597D01*
X135939722Y-141014505D01*
X136006243Y-141039316D01*
X136019829Y-141051089D01*
X136604108Y-141635368D01*
X136638134Y-141697680D01*
X136640583Y-141734865D01*
X136638127Y-141764511D01*
X136636844Y-141780000D01*
X136652836Y-141972993D01*
X136655437Y-142004375D01*
X136710702Y-142222612D01*
X136710703Y-142222613D01*
X136710704Y-142222616D01*
X136801035Y-142428551D01*
X136801141Y-142428793D01*
X136924275Y-142617265D01*
X136924279Y-142617270D01*
X137076762Y-142782908D01*
X137087389Y-142791179D01*
X137254424Y-142921189D01*
X137287155Y-142938902D01*
X137287680Y-142939186D01*
X137338071Y-142989200D01*
X137353423Y-143058516D01*
X137328862Y-143125129D01*
X137287680Y-143160813D01*
X137254426Y-143178810D01*
X137254424Y-143178811D01*
X137076762Y-143317091D01*
X136924279Y-143482729D01*
X136924275Y-143482734D01*
X136877445Y-143554415D01*
X136823442Y-143600504D01*
X136771962Y-143611500D01*
X135525213Y-143611500D01*
X135388342Y-143638725D01*
X135388339Y-143638726D01*
X135350572Y-143654368D01*
X135350572Y-143654369D01*
X135331690Y-143662190D01*
X135259400Y-143692133D01*
X135143356Y-143769673D01*
X134716344Y-144196684D01*
X134654032Y-144230709D01*
X134583217Y-144225644D01*
X134450529Y-144176154D01*
X134185514Y-144118504D01*
X133915000Y-144099157D01*
X133644485Y-144118504D01*
X133379470Y-144176154D01*
X133125361Y-144270931D01*
X133125357Y-144270933D01*
X132887325Y-144400909D01*
X132670218Y-144563434D01*
X132670209Y-144563442D01*
X132478442Y-144755209D01*
X132478434Y-144755218D01*
X132315909Y-144972325D01*
X132185933Y-145210357D01*
X132185931Y-145210361D01*
X132091154Y-145464470D01*
X132033504Y-145729485D01*
X132014157Y-146000000D01*
X132033504Y-146270514D01*
X132091154Y-146535529D01*
X132185931Y-146789638D01*
X132185933Y-146789642D01*
X132315909Y-147027674D01*
X132478434Y-147244781D01*
X132478437Y-147244784D01*
X132478439Y-147244787D01*
X132670213Y-147436561D01*
X132670216Y-147436563D01*
X132670218Y-147436565D01*
X132887325Y-147599090D01*
X133067127Y-147697270D01*
X133125361Y-147729068D01*
X133379471Y-147823846D01*
X133644482Y-147881495D01*
X133915000Y-147900843D01*
X134185518Y-147881495D01*
X134450529Y-147823846D01*
X134704639Y-147729068D01*
X134942673Y-147599091D01*
X135159787Y-147436561D01*
X135351561Y-147244787D01*
X135514091Y-147027673D01*
X135644068Y-146789639D01*
X135738846Y-146535529D01*
X135796495Y-146270518D01*
X135815843Y-146000000D01*
X135796495Y-145729482D01*
X135738846Y-145464471D01*
X135689355Y-145331781D01*
X135684291Y-145260966D01*
X135718316Y-145198653D01*
X135851566Y-145065404D01*
X135913878Y-145031379D01*
X135940661Y-145028500D01*
X136771962Y-145028500D01*
X136840083Y-145048502D01*
X136877445Y-145085585D01*
X136924275Y-145157265D01*
X136924279Y-145157270D01*
X137076762Y-145322908D01*
X137088162Y-145331781D01*
X137254424Y-145461189D01*
X137287680Y-145479186D01*
X137338071Y-145529200D01*
X137353423Y-145598516D01*
X137328862Y-145665129D01*
X137287680Y-145700813D01*
X137254426Y-145718810D01*
X137254424Y-145718811D01*
X137076762Y-145857091D01*
X136924279Y-146022729D01*
X136924275Y-146022734D01*
X136801141Y-146211206D01*
X136710703Y-146417386D01*
X136710702Y-146417387D01*
X136655437Y-146635624D01*
X136655436Y-146635630D01*
X136655436Y-146635632D01*
X136636844Y-146860000D01*
X136655418Y-147084155D01*
X136655437Y-147084375D01*
X136710702Y-147302612D01*
X136710703Y-147302613D01*
X136710704Y-147302616D01*
X136769457Y-147436561D01*
X136801141Y-147508793D01*
X136924275Y-147697265D01*
X136924279Y-147697270D01*
X137076762Y-147862908D01*
X137100643Y-147881495D01*
X137254424Y-148001189D01*
X137452426Y-148108342D01*
X137452427Y-148108342D01*
X137452428Y-148108343D01*
X137564227Y-148146723D01*
X137665365Y-148181444D01*
X137887431Y-148218500D01*
X137887435Y-148218500D01*
X138112565Y-148218500D01*
X138112569Y-148218500D01*
X138334635Y-148181444D01*
X138547574Y-148108342D01*
X138745576Y-148001189D01*
X138923240Y-147862906D01*
X139075722Y-147697268D01*
X139198860Y-147508791D01*
X139289296Y-147302616D01*
X139344564Y-147084368D01*
X139363156Y-146860000D01*
X139344564Y-146635632D01*
X139321715Y-146545405D01*
X139289297Y-146417387D01*
X139289296Y-146417386D01*
X139289296Y-146417384D01*
X139198860Y-146211209D01*
X139150345Y-146136951D01*
X139075724Y-146022734D01*
X139075720Y-146022729D01*
X138923237Y-145857091D01*
X138836945Y-145789927D01*
X138745576Y-145718811D01*
X138712319Y-145700813D01*
X138661929Y-145650802D01*
X138646576Y-145581485D01*
X138671136Y-145514872D01*
X138712320Y-145479186D01*
X138745576Y-145461189D01*
X138923240Y-145322906D01*
X139075722Y-145157268D01*
X139198860Y-144968791D01*
X139289296Y-144762616D01*
X139344564Y-144544368D01*
X139363156Y-144320000D01*
X139344564Y-144095632D01*
X139289296Y-143877384D01*
X139198860Y-143671209D01*
X139187857Y-143654368D01*
X139075724Y-143482734D01*
X139075720Y-143482729D01*
X138923237Y-143317091D01*
X138773882Y-143200843D01*
X138745576Y-143178811D01*
X138712319Y-143160813D01*
X138661929Y-143110802D01*
X138646576Y-143041485D01*
X138671136Y-142974872D01*
X138712320Y-142939186D01*
X138712845Y-142938902D01*
X138745576Y-142921189D01*
X138923240Y-142782906D01*
X139075722Y-142617268D01*
X139198860Y-142428791D01*
X139289296Y-142222616D01*
X139344564Y-142004368D01*
X139363156Y-141780000D01*
X139344564Y-141555632D01*
X139289338Y-141337550D01*
X139289297Y-141337387D01*
X139289296Y-141337386D01*
X139289296Y-141337384D01*
X139198860Y-141131209D01*
X139146515Y-141051089D01*
X139075724Y-140942734D01*
X139075720Y-140942729D01*
X138959570Y-140816559D01*
X138923240Y-140777094D01*
X138923239Y-140777093D01*
X138923237Y-140777091D01*
X138841382Y-140713381D01*
X138745576Y-140638811D01*
X138712319Y-140620813D01*
X138661929Y-140570802D01*
X138646576Y-140501485D01*
X138671136Y-140434872D01*
X138712320Y-140399186D01*
X138745576Y-140381189D01*
X138923240Y-140242906D01*
X139075722Y-140077268D01*
X139198860Y-139888791D01*
X139289296Y-139682616D01*
X139344564Y-139464368D01*
X139363156Y-139240000D01*
X139344564Y-139015632D01*
X139289296Y-138797384D01*
X139198860Y-138591209D01*
X139177640Y-138558729D01*
X139075724Y-138402734D01*
X139075720Y-138402729D01*
X138923237Y-138237091D01*
X138841382Y-138173381D01*
X138745576Y-138098811D01*
X138712319Y-138080813D01*
X138661929Y-138030802D01*
X138646576Y-137961485D01*
X138671136Y-137894872D01*
X138712320Y-137859186D01*
X138745576Y-137841189D01*
X138923240Y-137702906D01*
X139075722Y-137537268D01*
X139198860Y-137348791D01*
X139289296Y-137142616D01*
X139344564Y-136924368D01*
X139363156Y-136700000D01*
X139344564Y-136475632D01*
X139289296Y-136257384D01*
X139198860Y-136051209D01*
X139168406Y-136004595D01*
X139075724Y-135862734D01*
X139075720Y-135862729D01*
X138923237Y-135697091D01*
X138813104Y-135611371D01*
X138745576Y-135558811D01*
X138712319Y-135540813D01*
X138661929Y-135490802D01*
X138646576Y-135421485D01*
X138671136Y-135354872D01*
X138712320Y-135319186D01*
X138745576Y-135301189D01*
X138923240Y-135162906D01*
X139075722Y-134997268D01*
X139198860Y-134808791D01*
X139289296Y-134602616D01*
X139344564Y-134384368D01*
X139363156Y-134160000D01*
X139344564Y-133935632D01*
X139303677Y-133774173D01*
X139289297Y-133717387D01*
X139289296Y-133717386D01*
X139289296Y-133717384D01*
X139198860Y-133511209D01*
X139192140Y-133500924D01*
X139075724Y-133322734D01*
X139075720Y-133322729D01*
X138923237Y-133157091D01*
X138841382Y-133093381D01*
X138745576Y-133018811D01*
X138711792Y-133000528D01*
X138661402Y-132950516D01*
X138646050Y-132881199D01*
X138670610Y-132814586D01*
X138711793Y-132778901D01*
X138745300Y-132760767D01*
X138745301Y-132760767D01*
X138922902Y-132622534D01*
X139075325Y-132456958D01*
X139198419Y-132268548D01*
X139288820Y-132062456D01*
X139288823Y-132062449D01*
X139336544Y-131874000D01*
X138430703Y-131874000D01*
X138465925Y-131812993D01*
X138500000Y-131685826D01*
X138500000Y-131554174D01*
X138465925Y-131427007D01*
X138430703Y-131366000D01*
X139336544Y-131366000D01*
X139336544Y-131365999D01*
X139288823Y-131177550D01*
X139288820Y-131177543D01*
X139198419Y-130971451D01*
X139075325Y-130783041D01*
X138922902Y-130617465D01*
X138745301Y-130479232D01*
X138745300Y-130479231D01*
X138711791Y-130461097D01*
X138661401Y-130411083D01*
X138646050Y-130341766D01*
X138670612Y-130275153D01*
X138711790Y-130239472D01*
X138745576Y-130221189D01*
X138923240Y-130082906D01*
X139075722Y-129917268D01*
X139198860Y-129728791D01*
X139289296Y-129522616D01*
X139344564Y-129304368D01*
X139363156Y-129080000D01*
X139344564Y-128855632D01*
X139289296Y-128637384D01*
X139198860Y-128431209D01*
X139192140Y-128420924D01*
X139075724Y-128242734D01*
X139075720Y-128242729D01*
X138923237Y-128077091D01*
X138841382Y-128013381D01*
X138745576Y-127938811D01*
X138712319Y-127920813D01*
X138661929Y-127870802D01*
X138646576Y-127801485D01*
X138671136Y-127734872D01*
X138712320Y-127699186D01*
X138727110Y-127691182D01*
X138745576Y-127681189D01*
X138923240Y-127542906D01*
X139075722Y-127377268D01*
X139198860Y-127188791D01*
X139289296Y-126982616D01*
X139344564Y-126764368D01*
X139363156Y-126540000D01*
X139344564Y-126315632D01*
X139289296Y-126097384D01*
X139198860Y-125891209D01*
X139123814Y-125776342D01*
X139075724Y-125702734D01*
X139075719Y-125702729D01*
X138932524Y-125547179D01*
X138901103Y-125483514D01*
X138909090Y-125412968D01*
X138953948Y-125357939D01*
X138981183Y-125343789D01*
X139096204Y-125300889D01*
X139213261Y-125213261D01*
X139300889Y-125096204D01*
X139351773Y-124959781D01*
X139351988Y-124959204D01*
X139351990Y-124959196D01*
X139358499Y-124898649D01*
X139358500Y-124898632D01*
X139358500Y-123101367D01*
X139358499Y-123101350D01*
X139351990Y-123040803D01*
X139351988Y-123040795D01*
X139310443Y-122929411D01*
X139300889Y-122903796D01*
X139300888Y-122903794D01*
X139300887Y-122903792D01*
X139213261Y-122786738D01*
X139096207Y-122699112D01*
X139096202Y-122699110D01*
X138959204Y-122648011D01*
X138959196Y-122648009D01*
X138898649Y-122641500D01*
X138898638Y-122641500D01*
X137101362Y-122641500D01*
X137101350Y-122641500D01*
X137040803Y-122648009D01*
X137040795Y-122648011D01*
X136903797Y-122699110D01*
X136903792Y-122699112D01*
X136786738Y-122786738D01*
X136699112Y-122903792D01*
X136699110Y-122903797D01*
X136648011Y-123040795D01*
X136648009Y-123040803D01*
X136641500Y-123101350D01*
X136641500Y-124898649D01*
X136648009Y-124959196D01*
X136648011Y-124959204D01*
X136699110Y-125096202D01*
X136699112Y-125096207D01*
X136786738Y-125213261D01*
X136903791Y-125300886D01*
X136903792Y-125300886D01*
X136903796Y-125300889D01*
X137018810Y-125343787D01*
X137075642Y-125386332D01*
X137100453Y-125452852D01*
X137085362Y-125522226D01*
X137067475Y-125547179D01*
X136924280Y-125702729D01*
X136924275Y-125702734D01*
X136801141Y-125891206D01*
X136710703Y-126097386D01*
X136710702Y-126097387D01*
X136655437Y-126315624D01*
X136655437Y-126315628D01*
X136655436Y-126315632D01*
X136642805Y-126468060D01*
X136636844Y-126540000D01*
X136655437Y-126764375D01*
X136710702Y-126982612D01*
X136710703Y-126982613D01*
X136801141Y-127188793D01*
X136924275Y-127377265D01*
X136924279Y-127377270D01*
X137076762Y-127542908D01*
X137131331Y-127585381D01*
X137254424Y-127681189D01*
X137287680Y-127699186D01*
X137338071Y-127749200D01*
X137353423Y-127818516D01*
X137328862Y-127885129D01*
X137287680Y-127920813D01*
X137254426Y-127938810D01*
X137254424Y-127938811D01*
X137076762Y-128077091D01*
X136924279Y-128242729D01*
X136924275Y-128242734D01*
X136801141Y-128431206D01*
X136710703Y-128637386D01*
X136710702Y-128637387D01*
X136655437Y-128855624D01*
X136636844Y-129080000D01*
X136655437Y-129304375D01*
X136710702Y-129522612D01*
X136710703Y-129522613D01*
X136801141Y-129728793D01*
X136924275Y-129917265D01*
X136924279Y-129917270D01*
X137076762Y-130082908D01*
X137131331Y-130125381D01*
X137254424Y-130221189D01*
X137288205Y-130239470D01*
X137338596Y-130289482D01*
X137353949Y-130358799D01*
X137329389Y-130425412D01*
X137288209Y-130461096D01*
X137254704Y-130479228D01*
X137254698Y-130479232D01*
X137077097Y-130617465D01*
X136924674Y-130783041D01*
X136801580Y-130971451D01*
X136711179Y-131177543D01*
X136711176Y-131177550D01*
X136663455Y-131365999D01*
X136663456Y-131366000D01*
X137569297Y-131366000D01*
X137534075Y-131427007D01*
X137500000Y-131554174D01*
X137500000Y-131685826D01*
X137534075Y-131812993D01*
X137569297Y-131874000D01*
X136697449Y-131874000D01*
X136629328Y-131853998D01*
X136608354Y-131837095D01*
X133532555Y-128761296D01*
X129544769Y-124773509D01*
X129436917Y-124701445D01*
X129317080Y-124651807D01*
X129317078Y-124651806D01*
X129317077Y-124651806D01*
X129249112Y-124638286D01*
X129199913Y-124628500D01*
X129137004Y-124595592D01*
X129101873Y-124533896D01*
X129105674Y-124463002D01*
X129123625Y-124429415D01*
X129200889Y-124326204D01*
X129251989Y-124189201D01*
X129258500Y-124128638D01*
X129258500Y-123031362D01*
X129254863Y-122997532D01*
X129251990Y-122970803D01*
X129251988Y-122970795D01*
X129200889Y-122833797D01*
X129200887Y-122833792D01*
X129113261Y-122716738D01*
X128996207Y-122629112D01*
X128996202Y-122629110D01*
X128859204Y-122578011D01*
X128859196Y-122578009D01*
X128798649Y-122571500D01*
X128798638Y-122571500D01*
X126201362Y-122571500D01*
X126201350Y-122571500D01*
X126140803Y-122578009D01*
X126140795Y-122578011D01*
X126003797Y-122629110D01*
X126003792Y-122629112D01*
X125886738Y-122716738D01*
X125799112Y-122833792D01*
X125799110Y-122833797D01*
X125748011Y-122970795D01*
X125748009Y-122970803D01*
X125741500Y-123031350D01*
X125741500Y-123206050D01*
X125721498Y-123274171D01*
X125667842Y-123320664D01*
X125597568Y-123330768D01*
X125532988Y-123301274D01*
X125526405Y-123295145D01*
X124695405Y-122464145D01*
X124661379Y-122401833D01*
X124658500Y-122375050D01*
X124658500Y-120081908D01*
X125999500Y-120081908D01*
X125999500Y-120318092D01*
X126036447Y-120551368D01*
X126109432Y-120775992D01*
X126109433Y-120775993D01*
X126216659Y-120986436D01*
X126355484Y-121177512D01*
X126522487Y-121344515D01*
X126522490Y-121344517D01*
X126713567Y-121483343D01*
X126924008Y-121590568D01*
X127148632Y-121663553D01*
X127381908Y-121700500D01*
X127381911Y-121700500D01*
X127618089Y-121700500D01*
X127618092Y-121700500D01*
X127851368Y-121663553D01*
X128075992Y-121590568D01*
X128286433Y-121483343D01*
X128477510Y-121344517D01*
X128644517Y-121177510D01*
X128783343Y-120986433D01*
X128890568Y-120775992D01*
X128963553Y-120551368D01*
X129000500Y-120318092D01*
X129000500Y-120081908D01*
X128963553Y-119848632D01*
X128890568Y-119624008D01*
X128783343Y-119413567D01*
X128644517Y-119222490D01*
X128644515Y-119222487D01*
X128477512Y-119055484D01*
X128304798Y-118930000D01*
X133086673Y-118930000D01*
X133105950Y-119162633D01*
X133163249Y-119388903D01*
X133163252Y-119388910D01*
X133257015Y-119602668D01*
X133358499Y-119758002D01*
X133384686Y-119798083D01*
X133470209Y-119890985D01*
X133501629Y-119954648D01*
X133493642Y-120025194D01*
X133448784Y-120080223D01*
X133421541Y-120094376D01*
X133354037Y-120119554D01*
X133354034Y-120119555D01*
X133237095Y-120207095D01*
X133149555Y-120324034D01*
X133149555Y-120324035D01*
X133098505Y-120460906D01*
X133092000Y-120521402D01*
X133092000Y-121216000D01*
X134127032Y-121216000D01*
X134080667Y-121296306D01*
X134050000Y-121410756D01*
X134050000Y-121529244D01*
X134080667Y-121643694D01*
X134127032Y-121724000D01*
X133092000Y-121724000D01*
X133092000Y-122418597D01*
X133098505Y-122479093D01*
X133149555Y-122615964D01*
X133149555Y-122615965D01*
X133237095Y-122732904D01*
X133354034Y-122820444D01*
X133490906Y-122871494D01*
X133551402Y-122877999D01*
X133551415Y-122878000D01*
X134246000Y-122878000D01*
X134246000Y-121842968D01*
X134326306Y-121889333D01*
X134440756Y-121920000D01*
X134559244Y-121920000D01*
X134673694Y-121889333D01*
X134754000Y-121842968D01*
X134754000Y-122878000D01*
X135448585Y-122878000D01*
X135448597Y-122877999D01*
X135509093Y-122871494D01*
X135645964Y-122820444D01*
X135645965Y-122820444D01*
X135762904Y-122732904D01*
X135850444Y-122615965D01*
X135850444Y-122615964D01*
X135901494Y-122479093D01*
X135907999Y-122418597D01*
X135908000Y-122418585D01*
X135908000Y-121724000D01*
X134872968Y-121724000D01*
X134919333Y-121643694D01*
X134950000Y-121529244D01*
X134950000Y-121410756D01*
X134919333Y-121296306D01*
X134872968Y-121216000D01*
X135908000Y-121216000D01*
X135908000Y-120521414D01*
X135907999Y-120521402D01*
X135901494Y-120460906D01*
X135850444Y-120324035D01*
X135850444Y-120324034D01*
X135762904Y-120207095D01*
X135645965Y-120119555D01*
X135645960Y-120119553D01*
X135578459Y-120094376D01*
X135521623Y-120051829D01*
X135496813Y-119985309D01*
X135511905Y-119915935D01*
X135529784Y-119890991D01*
X135615314Y-119798083D01*
X135742984Y-119602669D01*
X135836749Y-119388907D01*
X135894051Y-119162626D01*
X135913327Y-118930000D01*
X135894051Y-118697374D01*
X135836749Y-118471093D01*
X135742984Y-118257331D01*
X135641500Y-118101997D01*
X135615314Y-118061916D01*
X135457225Y-117890186D01*
X135457221Y-117890182D01*
X135310359Y-117775875D01*
X135273017Y-117746810D01*
X135067727Y-117635713D01*
X135067724Y-117635712D01*
X135067723Y-117635711D01*
X134846955Y-117559921D01*
X134846948Y-117559919D01*
X134748411Y-117543476D01*
X134616712Y-117521500D01*
X134383288Y-117521500D01*
X134268066Y-117540727D01*
X134153051Y-117559919D01*
X134153044Y-117559921D01*
X133932276Y-117635711D01*
X133932273Y-117635713D01*
X133726985Y-117746809D01*
X133726983Y-117746810D01*
X133542778Y-117890182D01*
X133542774Y-117890186D01*
X133384685Y-118061916D01*
X133257015Y-118257331D01*
X133163252Y-118471089D01*
X133163249Y-118471096D01*
X133105950Y-118697366D01*
X133105949Y-118697372D01*
X133105949Y-118697374D01*
X133087779Y-118916657D01*
X133086673Y-118930000D01*
X128304798Y-118930000D01*
X128286436Y-118916659D01*
X128286435Y-118916658D01*
X128286433Y-118916657D01*
X128075992Y-118809432D01*
X127851368Y-118736447D01*
X127618092Y-118699500D01*
X127381908Y-118699500D01*
X127148632Y-118736447D01*
X127148629Y-118736447D01*
X127148628Y-118736448D01*
X126924008Y-118809432D01*
X126924006Y-118809433D01*
X126713563Y-118916659D01*
X126522487Y-119055484D01*
X126355484Y-119222487D01*
X126216659Y-119413563D01*
X126109433Y-119624006D01*
X126109432Y-119624008D01*
X126052873Y-119798079D01*
X126036447Y-119848632D01*
X125999500Y-120081908D01*
X124658500Y-120081908D01*
X124658500Y-112931402D01*
X125742000Y-112931402D01*
X125742000Y-113226000D01*
X127246000Y-113226000D01*
X127246000Y-112472000D01*
X126201402Y-112472000D01*
X126140906Y-112478505D01*
X126004035Y-112529555D01*
X126004034Y-112529555D01*
X125887095Y-112617095D01*
X125799555Y-112734034D01*
X125799555Y-112734035D01*
X125748505Y-112870906D01*
X125742000Y-112931402D01*
X124658500Y-112931402D01*
X124658500Y-109831350D01*
X125741500Y-109831350D01*
X125741500Y-110928649D01*
X125748009Y-110989196D01*
X125748011Y-110989204D01*
X125799110Y-111126202D01*
X125799112Y-111126207D01*
X125886738Y-111243261D01*
X126003792Y-111330887D01*
X126003794Y-111330888D01*
X126003796Y-111330889D01*
X126062875Y-111352924D01*
X126140795Y-111381988D01*
X126140803Y-111381990D01*
X126201350Y-111388499D01*
X126201355Y-111388499D01*
X126201362Y-111388500D01*
X126201368Y-111388500D01*
X128798632Y-111388500D01*
X128798638Y-111388500D01*
X128798645Y-111388499D01*
X128798649Y-111388499D01*
X128859196Y-111381990D01*
X128859199Y-111381989D01*
X128859201Y-111381989D01*
X128996204Y-111330889D01*
X129113261Y-111243261D01*
X129200889Y-111126204D01*
X129251989Y-110989201D01*
X129258500Y-110928638D01*
X129258500Y-109831362D01*
X129254863Y-109797532D01*
X129251990Y-109770803D01*
X129251988Y-109770795D01*
X129200889Y-109633797D01*
X129200887Y-109633792D01*
X129113261Y-109516738D01*
X128996207Y-109429112D01*
X128996202Y-109429110D01*
X128859204Y-109378011D01*
X128859196Y-109378009D01*
X128798649Y-109371500D01*
X128798638Y-109371500D01*
X126201362Y-109371500D01*
X126201350Y-109371500D01*
X126140803Y-109378009D01*
X126140795Y-109378011D01*
X126003797Y-109429110D01*
X126003792Y-109429112D01*
X125886738Y-109516738D01*
X125799112Y-109633792D01*
X125799110Y-109633797D01*
X125748011Y-109770795D01*
X125748009Y-109770803D01*
X125741500Y-109831350D01*
X124658500Y-109831350D01*
X124658500Y-106881908D01*
X125999500Y-106881908D01*
X125999500Y-107118092D01*
X126036447Y-107351368D01*
X126109432Y-107575992D01*
X126109433Y-107575993D01*
X126216659Y-107786436D01*
X126355484Y-107977512D01*
X126522487Y-108144515D01*
X126522490Y-108144517D01*
X126713567Y-108283343D01*
X126924008Y-108390568D01*
X127148632Y-108463553D01*
X127381908Y-108500500D01*
X127381911Y-108500500D01*
X127618089Y-108500500D01*
X127618092Y-108500500D01*
X127851368Y-108463553D01*
X128075992Y-108390568D01*
X128286433Y-108283343D01*
X128477510Y-108144517D01*
X128644517Y-107977510D01*
X128783343Y-107786433D01*
X128890568Y-107575992D01*
X128963553Y-107351368D01*
X129000500Y-107118092D01*
X129000500Y-106881908D01*
X128963553Y-106648632D01*
X128890568Y-106424008D01*
X128783343Y-106213567D01*
X128644517Y-106022490D01*
X128644515Y-106022487D01*
X128477512Y-105855484D01*
X128286436Y-105716659D01*
X128286435Y-105716658D01*
X128286433Y-105716657D01*
X128075992Y-105609432D01*
X127851368Y-105536447D01*
X127618092Y-105499500D01*
X127381908Y-105499500D01*
X127148632Y-105536447D01*
X127148629Y-105536447D01*
X127148628Y-105536448D01*
X126924008Y-105609432D01*
X126924006Y-105609433D01*
X126713563Y-105716659D01*
X126522487Y-105855484D01*
X126355484Y-106022487D01*
X126216659Y-106213563D01*
X126109433Y-106424006D01*
X126109432Y-106424008D01*
X126052873Y-106598079D01*
X126036447Y-106648632D01*
X125999500Y-106881908D01*
X124658500Y-106881908D01*
X124658500Y-98828597D01*
X125742000Y-98828597D01*
X125748505Y-98889093D01*
X125799555Y-99025964D01*
X125799555Y-99025965D01*
X125887095Y-99142904D01*
X126004034Y-99230444D01*
X126140906Y-99281494D01*
X126201402Y-99287999D01*
X126201415Y-99288000D01*
X127246000Y-99288000D01*
X127246000Y-98534000D01*
X125742000Y-98534000D01*
X125742000Y-98828597D01*
X124658500Y-98828597D01*
X124658500Y-98230272D01*
X126750000Y-98230272D01*
X126750000Y-98329728D01*
X126788060Y-98421614D01*
X126858386Y-98491940D01*
X126950272Y-98530000D01*
X128049728Y-98530000D01*
X128141614Y-98491940D01*
X128211940Y-98421614D01*
X128250000Y-98329728D01*
X128250000Y-98230272D01*
X128211940Y-98138386D01*
X128141614Y-98068060D01*
X128049728Y-98030000D01*
X126950272Y-98030000D01*
X126858386Y-98068060D01*
X126788060Y-98138386D01*
X126750000Y-98230272D01*
X124658500Y-98230272D01*
X124658500Y-97731402D01*
X125742000Y-97731402D01*
X125742000Y-98026000D01*
X127246000Y-98026000D01*
X127754000Y-98026000D01*
X129258000Y-98026000D01*
X129258000Y-97731414D01*
X129257999Y-97731402D01*
X129251494Y-97670906D01*
X129200444Y-97534035D01*
X129200444Y-97534034D01*
X129112904Y-97417095D01*
X128995965Y-97329555D01*
X128859093Y-97278505D01*
X128798597Y-97272000D01*
X127754000Y-97272000D01*
X127754000Y-98026000D01*
X127246000Y-98026000D01*
X127246000Y-97272000D01*
X126201402Y-97272000D01*
X126140906Y-97278505D01*
X126004035Y-97329555D01*
X126004034Y-97329555D01*
X125887095Y-97417095D01*
X125799555Y-97534034D01*
X125799555Y-97534035D01*
X125748505Y-97670906D01*
X125742000Y-97731402D01*
X124658500Y-97731402D01*
X124658500Y-94631350D01*
X125741500Y-94631350D01*
X125741500Y-95728649D01*
X125748009Y-95789196D01*
X125748011Y-95789204D01*
X125799110Y-95926202D01*
X125799112Y-95926207D01*
X125886738Y-96043261D01*
X126003792Y-96130887D01*
X126003794Y-96130888D01*
X126003796Y-96130889D01*
X126062875Y-96152924D01*
X126140795Y-96181988D01*
X126140803Y-96181990D01*
X126201350Y-96188499D01*
X126201355Y-96188499D01*
X126201362Y-96188500D01*
X126201368Y-96188500D01*
X128798632Y-96188500D01*
X128798638Y-96188500D01*
X128798645Y-96188499D01*
X128798649Y-96188499D01*
X128859196Y-96181990D01*
X128859199Y-96181989D01*
X128859201Y-96181989D01*
X128996204Y-96130889D01*
X129113261Y-96043261D01*
X129200889Y-95926204D01*
X129251989Y-95789201D01*
X129258500Y-95728638D01*
X129258500Y-94631362D01*
X129254863Y-94597532D01*
X129251990Y-94570803D01*
X129251988Y-94570795D01*
X129200889Y-94433797D01*
X129200887Y-94433792D01*
X129113261Y-94316738D01*
X128996207Y-94229112D01*
X128996202Y-94229110D01*
X128859204Y-94178011D01*
X128859196Y-94178009D01*
X128798649Y-94171500D01*
X128798638Y-94171500D01*
X126201362Y-94171500D01*
X126201350Y-94171500D01*
X126140803Y-94178009D01*
X126140795Y-94178011D01*
X126003797Y-94229110D01*
X126003792Y-94229112D01*
X125886738Y-94316738D01*
X125799112Y-94433792D01*
X125799110Y-94433797D01*
X125748011Y-94570795D01*
X125748009Y-94570803D01*
X125741500Y-94631350D01*
X124658500Y-94631350D01*
X124658500Y-91681908D01*
X125999500Y-91681908D01*
X125999500Y-91918092D01*
X126036447Y-92151368D01*
X126109432Y-92375992D01*
X126186969Y-92528167D01*
X126216659Y-92586436D01*
X126355484Y-92777512D01*
X126522487Y-92944515D01*
X126522490Y-92944517D01*
X126713567Y-93083343D01*
X126924008Y-93190568D01*
X127148632Y-93263553D01*
X127381908Y-93300500D01*
X127381911Y-93300500D01*
X127618089Y-93300500D01*
X127618092Y-93300500D01*
X127851368Y-93263553D01*
X128075992Y-93190568D01*
X128286433Y-93083343D01*
X128477510Y-92944517D01*
X128644517Y-92777510D01*
X128783343Y-92586433D01*
X128890568Y-92375992D01*
X128963553Y-92151368D01*
X129000500Y-91918092D01*
X129000500Y-91681908D01*
X128963553Y-91448632D01*
X128890568Y-91224008D01*
X128783343Y-91013567D01*
X128644517Y-90822490D01*
X128644515Y-90822487D01*
X128477512Y-90655484D01*
X128286436Y-90516659D01*
X128286435Y-90516658D01*
X128286433Y-90516657D01*
X128075992Y-90409432D01*
X127851368Y-90336447D01*
X127618092Y-90299500D01*
X127381908Y-90299500D01*
X127148632Y-90336447D01*
X127148629Y-90336447D01*
X127148628Y-90336448D01*
X126924008Y-90409432D01*
X126924006Y-90409433D01*
X126713563Y-90516659D01*
X126522487Y-90655484D01*
X126355484Y-90822487D01*
X126216659Y-91013563D01*
X126109433Y-91224006D01*
X126109432Y-91224008D01*
X126052873Y-91398079D01*
X126036447Y-91448632D01*
X125999500Y-91681908D01*
X124658500Y-91681908D01*
X124658500Y-86331350D01*
X125741500Y-86331350D01*
X125741500Y-87428649D01*
X125748009Y-87489196D01*
X125748011Y-87489204D01*
X125799110Y-87626202D01*
X125799112Y-87626207D01*
X125886738Y-87743261D01*
X126003792Y-87830887D01*
X126003794Y-87830888D01*
X126003796Y-87830889D01*
X126062875Y-87852924D01*
X126140795Y-87881988D01*
X126140803Y-87881990D01*
X126201350Y-87888499D01*
X126201355Y-87888499D01*
X126201362Y-87888500D01*
X126201368Y-87888500D01*
X128798632Y-87888500D01*
X128798638Y-87888500D01*
X128798645Y-87888499D01*
X128798649Y-87888499D01*
X128859196Y-87881990D01*
X128859199Y-87881989D01*
X128859201Y-87881989D01*
X128996204Y-87830889D01*
X129113261Y-87743261D01*
X129176345Y-87658991D01*
X129233180Y-87616444D01*
X129277213Y-87608500D01*
X130469777Y-87608500D01*
X130469782Y-87608500D01*
X130538221Y-87594886D01*
X130606662Y-87581273D01*
X130644427Y-87565630D01*
X130735601Y-87527865D01*
X130851643Y-87450328D01*
X136754935Y-81547034D01*
X136817245Y-81513011D01*
X136888060Y-81518075D01*
X136936728Y-81550792D01*
X137076760Y-81702906D01*
X137076762Y-81702908D01*
X137131331Y-81745381D01*
X137254424Y-81841189D01*
X137287680Y-81859186D01*
X137338071Y-81909200D01*
X137353423Y-81978516D01*
X137328862Y-82045129D01*
X137287680Y-82080813D01*
X137254426Y-82098810D01*
X137254424Y-82098811D01*
X137076762Y-82237091D01*
X136924279Y-82402729D01*
X136924275Y-82402734D01*
X136801141Y-82591206D01*
X136710703Y-82797386D01*
X136710702Y-82797387D01*
X136655437Y-83015624D01*
X136636844Y-83240000D01*
X136655436Y-83464371D01*
X136661750Y-83489302D01*
X136659082Y-83560248D01*
X136628700Y-83609327D01*
X130049674Y-90188354D01*
X130049669Y-90188361D01*
X129972134Y-90304400D01*
X129972133Y-90304401D01*
X129934369Y-90395573D01*
X129918726Y-90433339D01*
X129918725Y-90433342D01*
X129891500Y-90570213D01*
X129891500Y-98634339D01*
X129871498Y-98702460D01*
X129854599Y-98723429D01*
X129552066Y-99025963D01*
X129397172Y-99180857D01*
X129334860Y-99214882D01*
X129264044Y-99209817D01*
X129207209Y-99167270D01*
X129182398Y-99100750D01*
X129197490Y-99031376D01*
X129197490Y-99031375D01*
X129200444Y-99025963D01*
X129251494Y-98889093D01*
X129257999Y-98828597D01*
X129258000Y-98828585D01*
X129258000Y-98534000D01*
X127754000Y-98534000D01*
X127754000Y-99288000D01*
X128798585Y-99288000D01*
X128798597Y-99287999D01*
X128859093Y-99281494D01*
X128995963Y-99230444D01*
X129001375Y-99227490D01*
X129070749Y-99212398D01*
X129137269Y-99237208D01*
X129179816Y-99294044D01*
X129184882Y-99364860D01*
X129150857Y-99427172D01*
X129150856Y-99427172D01*
X127543434Y-101034595D01*
X127481122Y-101068620D01*
X127454339Y-101071500D01*
X126201350Y-101071500D01*
X126140803Y-101078009D01*
X126140795Y-101078011D01*
X126003797Y-101129110D01*
X126003792Y-101129112D01*
X125886738Y-101216738D01*
X125799112Y-101333792D01*
X125799110Y-101333797D01*
X125748011Y-101470795D01*
X125748009Y-101470803D01*
X125741500Y-101531350D01*
X125741500Y-102628649D01*
X125748009Y-102689196D01*
X125748011Y-102689204D01*
X125799110Y-102826202D01*
X125799112Y-102826207D01*
X125886738Y-102943261D01*
X126003792Y-103030887D01*
X126003794Y-103030888D01*
X126003796Y-103030889D01*
X126062875Y-103052924D01*
X126140795Y-103081988D01*
X126140803Y-103081990D01*
X126201350Y-103088499D01*
X126201355Y-103088499D01*
X126201362Y-103088500D01*
X126201368Y-103088500D01*
X128798632Y-103088500D01*
X128798638Y-103088500D01*
X128798645Y-103088499D01*
X128798649Y-103088499D01*
X128859196Y-103081990D01*
X128859199Y-103081989D01*
X128859201Y-103081989D01*
X128996204Y-103030889D01*
X129113261Y-102943261D01*
X129200889Y-102826204D01*
X129251989Y-102689201D01*
X129258500Y-102628638D01*
X129258500Y-101531362D01*
X129258499Y-101531350D01*
X129251990Y-101470803D01*
X129251989Y-101470801D01*
X129251989Y-101470799D01*
X129242032Y-101444106D01*
X129236966Y-101373293D01*
X129270986Y-101310983D01*
X131150328Y-99431643D01*
X131227865Y-99315601D01*
X131281273Y-99186661D01*
X131308500Y-99049782D01*
X131308500Y-98910218D01*
X131308500Y-90985660D01*
X131328502Y-90917539D01*
X131345400Y-90896570D01*
X136431247Y-85810722D01*
X136493557Y-85776698D01*
X136564372Y-85781763D01*
X136621208Y-85824310D01*
X136645910Y-85889413D01*
X136655437Y-86004375D01*
X136661749Y-86029300D01*
X136659082Y-86100246D01*
X136628701Y-86149326D01*
X135799670Y-86978359D01*
X135799669Y-86978361D01*
X135722135Y-87094398D01*
X135693490Y-87163555D01*
X135668729Y-87223332D01*
X135668727Y-87223337D01*
X135641500Y-87360216D01*
X135641500Y-89375875D01*
X135621498Y-89443996D01*
X135567842Y-89490489D01*
X135497568Y-89500593D01*
X135438109Y-89475307D01*
X135394409Y-89441294D01*
X135273017Y-89346810D01*
X135067727Y-89235713D01*
X135067724Y-89235712D01*
X135067723Y-89235711D01*
X134846955Y-89159921D01*
X134846948Y-89159919D01*
X134748411Y-89143476D01*
X134616712Y-89121500D01*
X134383288Y-89121500D01*
X134268066Y-89140727D01*
X134153051Y-89159919D01*
X134153044Y-89159921D01*
X133932276Y-89235711D01*
X133932273Y-89235713D01*
X133726985Y-89346809D01*
X133726983Y-89346810D01*
X133542778Y-89490182D01*
X133542774Y-89490186D01*
X133384685Y-89661916D01*
X133257015Y-89857331D01*
X133163252Y-90071089D01*
X133163249Y-90071096D01*
X133105950Y-90297366D01*
X133105949Y-90297372D01*
X133105949Y-90297374D01*
X133094683Y-90433338D01*
X133086673Y-90530000D01*
X133105950Y-90762633D01*
X133163249Y-90988903D01*
X133163252Y-90988910D01*
X133257015Y-91202668D01*
X133358499Y-91358002D01*
X133384686Y-91398083D01*
X133470209Y-91490985D01*
X133501629Y-91554648D01*
X133493642Y-91625194D01*
X133448784Y-91680223D01*
X133421541Y-91694376D01*
X133354037Y-91719554D01*
X133354034Y-91719555D01*
X133237095Y-91807095D01*
X133149555Y-91924034D01*
X133149555Y-91924035D01*
X133098505Y-92060906D01*
X133092000Y-92121402D01*
X133092000Y-92816000D01*
X134127032Y-92816000D01*
X134080667Y-92896306D01*
X134050000Y-93010756D01*
X134050000Y-93129244D01*
X134080667Y-93243694D01*
X134127032Y-93324000D01*
X133092000Y-93324000D01*
X133092000Y-94018597D01*
X133098505Y-94079093D01*
X133149555Y-94215964D01*
X133149555Y-94215965D01*
X133237095Y-94332904D01*
X133354034Y-94420444D01*
X133490906Y-94471494D01*
X133551402Y-94477999D01*
X133551415Y-94478000D01*
X134246000Y-94478000D01*
X134246000Y-93442968D01*
X134326306Y-93489333D01*
X134440756Y-93520000D01*
X134559244Y-93520000D01*
X134673694Y-93489333D01*
X134754000Y-93442968D01*
X134754000Y-94478000D01*
X135448585Y-94478000D01*
X135448595Y-94477999D01*
X135502029Y-94472254D01*
X135571898Y-94484859D01*
X135623861Y-94533236D01*
X135641500Y-94597532D01*
X135641500Y-98104338D01*
X135621498Y-98172459D01*
X135604595Y-98193433D01*
X130849676Y-102948351D01*
X130849671Y-102948357D01*
X130772134Y-103064400D01*
X130772133Y-103064401D01*
X130734369Y-103155573D01*
X130718726Y-103193339D01*
X130718725Y-103193342D01*
X130691500Y-103330213D01*
X130691500Y-111954339D01*
X130671498Y-112022460D01*
X130654595Y-112043434D01*
X129473095Y-113224934D01*
X129410783Y-113258960D01*
X129339968Y-113253895D01*
X129283132Y-113211348D01*
X129258321Y-113144828D01*
X129258000Y-113135839D01*
X129258000Y-112931414D01*
X129257999Y-112931402D01*
X129251494Y-112870906D01*
X129200444Y-112734035D01*
X129200444Y-112734034D01*
X129112904Y-112617095D01*
X128995965Y-112529555D01*
X128859093Y-112478505D01*
X128798597Y-112472000D01*
X127754000Y-112472000D01*
X127754000Y-113230000D01*
X126950272Y-113230000D01*
X126858386Y-113268060D01*
X126788060Y-113338386D01*
X126750000Y-113430272D01*
X126750000Y-113529728D01*
X126788060Y-113621614D01*
X126858386Y-113691940D01*
X126950272Y-113730000D01*
X127646388Y-113730000D01*
X127628000Y-113734000D01*
X125742000Y-113734000D01*
X125742000Y-114028597D01*
X125748505Y-114089093D01*
X125799555Y-114225964D01*
X125799555Y-114225965D01*
X125858027Y-114304073D01*
X125882838Y-114370593D01*
X125867747Y-114439967D01*
X125858028Y-114455090D01*
X125799112Y-114533793D01*
X125799110Y-114533797D01*
X125748011Y-114670795D01*
X125748009Y-114670803D01*
X125741500Y-114731350D01*
X125741500Y-115828649D01*
X125748009Y-115889196D01*
X125748011Y-115889204D01*
X125799110Y-116026202D01*
X125799112Y-116026207D01*
X125886738Y-116143261D01*
X126003792Y-116230887D01*
X126003794Y-116230888D01*
X126003796Y-116230889D01*
X126062875Y-116252924D01*
X126140795Y-116281988D01*
X126140803Y-116281990D01*
X126201350Y-116288499D01*
X126201355Y-116288499D01*
X126201362Y-116288500D01*
X126201368Y-116288500D01*
X128798632Y-116288500D01*
X128798638Y-116288500D01*
X128798645Y-116288499D01*
X128798649Y-116288499D01*
X128859196Y-116281990D01*
X128859199Y-116281989D01*
X128859201Y-116281989D01*
X128996204Y-116230889D01*
X129113261Y-116143261D01*
X129200889Y-116026204D01*
X129251989Y-115889201D01*
X129258500Y-115828638D01*
X129258500Y-115495660D01*
X129278502Y-115427539D01*
X129295405Y-115406565D01*
X131950323Y-112751647D01*
X131950328Y-112751642D01*
X132027865Y-112635600D01*
X132081273Y-112506661D01*
X132108500Y-112369781D01*
X132108500Y-112230218D01*
X132108500Y-105730000D01*
X133086673Y-105730000D01*
X133105950Y-105962633D01*
X133163249Y-106188903D01*
X133163252Y-106188910D01*
X133257015Y-106402668D01*
X133358499Y-106558002D01*
X133384686Y-106598083D01*
X133470209Y-106690985D01*
X133501629Y-106754648D01*
X133493642Y-106825194D01*
X133448784Y-106880223D01*
X133421541Y-106894376D01*
X133354037Y-106919554D01*
X133354034Y-106919555D01*
X133237095Y-107007095D01*
X133149555Y-107124034D01*
X133149555Y-107124035D01*
X133098505Y-107260906D01*
X133092000Y-107321402D01*
X133092000Y-108016000D01*
X134127032Y-108016000D01*
X134080667Y-108096306D01*
X134050000Y-108210756D01*
X134050000Y-108329244D01*
X134080667Y-108443694D01*
X134127032Y-108524000D01*
X133092000Y-108524000D01*
X133092000Y-109218597D01*
X133098505Y-109279093D01*
X133149555Y-109415964D01*
X133149555Y-109415965D01*
X133237095Y-109532904D01*
X133354034Y-109620444D01*
X133490906Y-109671494D01*
X133551402Y-109677999D01*
X133551415Y-109678000D01*
X134246000Y-109678000D01*
X134246000Y-108642968D01*
X134326306Y-108689333D01*
X134440756Y-108720000D01*
X134559244Y-108720000D01*
X134673694Y-108689333D01*
X134754000Y-108642968D01*
X134754000Y-109678000D01*
X135448585Y-109678000D01*
X135448597Y-109677999D01*
X135509093Y-109671494D01*
X135645964Y-109620444D01*
X135645965Y-109620444D01*
X135762904Y-109532904D01*
X135850444Y-109415965D01*
X135850444Y-109415964D01*
X135901494Y-109279093D01*
X135907999Y-109218597D01*
X135908000Y-109218585D01*
X135908000Y-108524000D01*
X134872968Y-108524000D01*
X134919333Y-108443694D01*
X134950000Y-108329244D01*
X134950000Y-108210756D01*
X134919333Y-108096306D01*
X134872968Y-108016000D01*
X135908000Y-108016000D01*
X135908000Y-107321414D01*
X135907999Y-107321402D01*
X135901494Y-107260906D01*
X135850444Y-107124035D01*
X135850444Y-107124034D01*
X135762904Y-107007095D01*
X135645965Y-106919555D01*
X135645960Y-106919553D01*
X135578459Y-106894376D01*
X135521623Y-106851829D01*
X135496813Y-106785309D01*
X135511905Y-106715935D01*
X135529784Y-106690991D01*
X135615314Y-106598083D01*
X135742984Y-106402669D01*
X135836749Y-106188907D01*
X135894051Y-105962626D01*
X135913327Y-105730000D01*
X135894051Y-105497374D01*
X135836749Y-105271093D01*
X135742984Y-105057331D01*
X135641500Y-104901997D01*
X135615314Y-104861916D01*
X135457225Y-104690186D01*
X135457221Y-104690182D01*
X135310359Y-104575875D01*
X135273017Y-104546810D01*
X135067727Y-104435713D01*
X135067724Y-104435712D01*
X135067723Y-104435711D01*
X134846955Y-104359921D01*
X134846948Y-104359919D01*
X134748411Y-104343476D01*
X134616712Y-104321500D01*
X134383288Y-104321500D01*
X134268066Y-104340727D01*
X134153051Y-104359919D01*
X134153044Y-104359921D01*
X133932276Y-104435711D01*
X133932273Y-104435713D01*
X133726985Y-104546809D01*
X133726983Y-104546810D01*
X133542778Y-104690182D01*
X133542774Y-104690186D01*
X133384685Y-104861916D01*
X133257015Y-105057331D01*
X133163252Y-105271089D01*
X133163249Y-105271096D01*
X133105950Y-105497366D01*
X133105949Y-105497372D01*
X133105949Y-105497374D01*
X133087779Y-105716657D01*
X133086673Y-105730000D01*
X132108500Y-105730000D01*
X132108500Y-103745661D01*
X132128502Y-103677540D01*
X132145405Y-103656566D01*
X136900323Y-98901648D01*
X136900328Y-98901643D01*
X136977865Y-98785601D01*
X137031273Y-98656661D01*
X137058500Y-98519782D01*
X137058500Y-98380219D01*
X137058500Y-89566012D01*
X137078502Y-89497891D01*
X137132158Y-89451398D01*
X137202432Y-89441294D01*
X137249626Y-89459103D01*
X137249840Y-89458708D01*
X137252743Y-89460279D01*
X137253429Y-89460538D01*
X137254419Y-89461185D01*
X137254424Y-89461189D01*
X137452426Y-89568342D01*
X137452427Y-89568342D01*
X137452428Y-89568343D01*
X137502679Y-89585594D01*
X137665365Y-89641444D01*
X137887431Y-89678500D01*
X137887435Y-89678500D01*
X138112565Y-89678500D01*
X138112569Y-89678500D01*
X138334635Y-89641444D01*
X138547574Y-89568342D01*
X138745576Y-89461189D01*
X138923240Y-89322906D01*
X139075722Y-89157268D01*
X139198860Y-88968791D01*
X139289296Y-88762616D01*
X139344564Y-88544368D01*
X139363156Y-88320000D01*
X139344564Y-88095632D01*
X139292111Y-87888499D01*
X139289297Y-87877387D01*
X139289296Y-87877386D01*
X139289296Y-87877384D01*
X139198860Y-87671209D01*
X139169457Y-87626204D01*
X139075724Y-87482734D01*
X139075720Y-87482729D01*
X138959570Y-87356559D01*
X138923240Y-87317094D01*
X138923239Y-87317093D01*
X138923237Y-87317091D01*
X138841382Y-87253381D01*
X138745576Y-87178811D01*
X138712319Y-87160813D01*
X138661929Y-87110802D01*
X138646576Y-87041485D01*
X138671136Y-86974872D01*
X138712320Y-86939186D01*
X138745576Y-86921189D01*
X138923240Y-86782906D01*
X139075722Y-86617268D01*
X139198860Y-86428791D01*
X139289296Y-86222616D01*
X139344564Y-86004368D01*
X139363156Y-85780000D01*
X139344564Y-85555632D01*
X139289296Y-85337384D01*
X139198860Y-85131209D01*
X139132915Y-85030272D01*
X139075724Y-84942734D01*
X139075720Y-84942729D01*
X138959570Y-84816559D01*
X138923240Y-84777094D01*
X138923239Y-84777093D01*
X138923237Y-84777091D01*
X138841382Y-84713381D01*
X138745576Y-84638811D01*
X138712319Y-84620813D01*
X138661929Y-84570802D01*
X138646576Y-84501485D01*
X138671136Y-84434872D01*
X138712320Y-84399186D01*
X138745576Y-84381189D01*
X138923240Y-84242906D01*
X139075722Y-84077268D01*
X139198860Y-83888791D01*
X139289296Y-83682616D01*
X139344564Y-83464368D01*
X139363156Y-83240000D01*
X139344564Y-83015632D01*
X139289296Y-82797384D01*
X139198860Y-82591209D01*
X139157988Y-82528649D01*
X139075724Y-82402734D01*
X139075720Y-82402729D01*
X138959570Y-82276559D01*
X138923240Y-82237094D01*
X138923239Y-82237093D01*
X138923237Y-82237091D01*
X138841382Y-82173381D01*
X138745576Y-82098811D01*
X138712319Y-82080813D01*
X138661929Y-82030802D01*
X138646576Y-81961485D01*
X138671136Y-81894872D01*
X138712320Y-81859186D01*
X138745576Y-81841189D01*
X138923240Y-81702906D01*
X139075722Y-81537268D01*
X139198860Y-81348791D01*
X139289296Y-81142616D01*
X139344564Y-80924368D01*
X139363156Y-80700000D01*
X139344564Y-80475632D01*
X139289296Y-80257384D01*
X139198860Y-80051209D01*
X139192140Y-80040924D01*
X139075724Y-79862734D01*
X139075720Y-79862729D01*
X138959570Y-79736559D01*
X138923240Y-79697094D01*
X138923239Y-79697093D01*
X138923237Y-79697091D01*
X138833680Y-79627386D01*
X138745576Y-79558811D01*
X138711792Y-79540528D01*
X138661402Y-79490516D01*
X138646050Y-79421199D01*
X138670610Y-79354586D01*
X138711793Y-79318901D01*
X138745300Y-79300767D01*
X138745301Y-79300767D01*
X138922902Y-79162534D01*
X139075325Y-78996958D01*
X139198419Y-78808548D01*
X139288820Y-78602456D01*
X139288823Y-78602449D01*
X139336544Y-78414000D01*
X138430703Y-78414000D01*
X138465925Y-78352993D01*
X138500000Y-78225826D01*
X138500000Y-78094174D01*
X138465925Y-77967007D01*
X138430703Y-77906000D01*
X139336544Y-77906000D01*
X139336544Y-77905999D01*
X139288823Y-77717550D01*
X139288820Y-77717543D01*
X139198419Y-77511451D01*
X139075325Y-77323041D01*
X138922902Y-77157465D01*
X138745301Y-77019232D01*
X138745300Y-77019231D01*
X138711791Y-77001097D01*
X138661401Y-76951083D01*
X138646050Y-76881766D01*
X138670612Y-76815153D01*
X138711790Y-76779472D01*
X138745576Y-76761189D01*
X138923240Y-76622906D01*
X139075722Y-76457268D01*
X139198860Y-76268791D01*
X139289296Y-76062616D01*
X139344564Y-75844368D01*
X139363156Y-75620000D01*
X139344564Y-75395632D01*
X139289296Y-75177384D01*
X139198860Y-74971209D01*
X139192140Y-74960924D01*
X139075724Y-74782734D01*
X139075720Y-74782729D01*
X138959570Y-74656559D01*
X138923240Y-74617094D01*
X138923239Y-74617093D01*
X138923237Y-74617091D01*
X138828380Y-74543261D01*
X138745576Y-74478811D01*
X138712319Y-74460813D01*
X138661929Y-74410802D01*
X138646576Y-74341485D01*
X138671136Y-74274872D01*
X138712320Y-74239186D01*
X138745576Y-74221189D01*
X138923240Y-74082906D01*
X139075722Y-73917268D01*
X139198860Y-73728791D01*
X139289296Y-73522616D01*
X139344564Y-73304368D01*
X139363156Y-73080000D01*
X139344564Y-72855632D01*
X139318846Y-72754073D01*
X139289297Y-72637387D01*
X139289296Y-72637386D01*
X139289296Y-72637384D01*
X139198860Y-72431209D01*
X139119708Y-72310057D01*
X139075724Y-72242734D01*
X139075720Y-72242729D01*
X138923237Y-72077091D01*
X138841382Y-72013381D01*
X138745576Y-71938811D01*
X138712319Y-71920813D01*
X138661929Y-71870802D01*
X138646576Y-71801485D01*
X138671136Y-71734872D01*
X138712320Y-71699186D01*
X138745576Y-71681189D01*
X138923240Y-71542906D01*
X139075722Y-71377268D01*
X139079879Y-71370906D01*
X139082441Y-71366983D01*
X139198860Y-71188791D01*
X139289296Y-70982616D01*
X139344564Y-70764368D01*
X139363156Y-70540000D01*
X139344564Y-70315632D01*
X139289296Y-70097384D01*
X139198860Y-69891209D01*
X139102201Y-69743261D01*
X139075724Y-69702734D01*
X139075719Y-69702729D01*
X138932524Y-69547179D01*
X138901103Y-69483514D01*
X138909090Y-69412968D01*
X138953948Y-69357939D01*
X138981183Y-69343789D01*
X139096204Y-69300889D01*
X139213261Y-69213261D01*
X139300889Y-69096204D01*
X139351989Y-68959201D01*
X139358500Y-68898638D01*
X139358500Y-67101362D01*
X139358499Y-67101350D01*
X139351990Y-67040803D01*
X139351988Y-67040795D01*
X139300889Y-66903797D01*
X139300887Y-66903792D01*
X139213261Y-66786738D01*
X139096207Y-66699112D01*
X139096202Y-66699110D01*
X138959204Y-66648011D01*
X138959196Y-66648009D01*
X138898649Y-66641500D01*
X138898638Y-66641500D01*
X137101362Y-66641500D01*
X137101350Y-66641500D01*
X137040803Y-66648009D01*
X137040795Y-66648011D01*
X136903797Y-66699110D01*
X136903792Y-66699112D01*
X136786738Y-66786738D01*
X136699112Y-66903792D01*
X136699110Y-66903797D01*
X136648011Y-67040795D01*
X136648009Y-67040803D01*
X136641500Y-67101350D01*
X136641500Y-68898649D01*
X136648009Y-68959196D01*
X136648011Y-68959204D01*
X136699110Y-69096202D01*
X136699112Y-69096207D01*
X136786738Y-69213261D01*
X136903791Y-69300886D01*
X136903792Y-69300886D01*
X136903796Y-69300889D01*
X137018810Y-69343787D01*
X137075642Y-69386332D01*
X137100453Y-69452852D01*
X137085362Y-69522226D01*
X137067475Y-69547179D01*
X136924280Y-69702729D01*
X136924275Y-69702734D01*
X136801141Y-69891206D01*
X136710703Y-70097386D01*
X136710702Y-70097387D01*
X136655437Y-70315624D01*
X136655436Y-70315630D01*
X136655436Y-70315632D01*
X136636844Y-70540000D01*
X136651740Y-70719769D01*
X136655437Y-70764375D01*
X136710702Y-70982612D01*
X136710703Y-70982613D01*
X136710704Y-70982616D01*
X136801140Y-71188791D01*
X136801141Y-71188793D01*
X136924275Y-71377265D01*
X136924279Y-71377270D01*
X136974112Y-71431402D01*
X137067818Y-71533193D01*
X137076762Y-71542908D01*
X137131331Y-71585381D01*
X137254424Y-71681189D01*
X137287680Y-71699186D01*
X137338071Y-71749200D01*
X137353423Y-71818516D01*
X137328862Y-71885129D01*
X137287680Y-71920813D01*
X137254426Y-71938810D01*
X137254424Y-71938811D01*
X137076762Y-72077091D01*
X136924279Y-72242729D01*
X136924275Y-72242734D01*
X136801141Y-72431206D01*
X136710703Y-72637386D01*
X136710702Y-72637387D01*
X136655437Y-72855624D01*
X136655436Y-72855630D01*
X136655436Y-72855632D01*
X136636844Y-73080000D01*
X136645835Y-73188509D01*
X136655437Y-73304375D01*
X136710702Y-73522612D01*
X136710703Y-73522613D01*
X136801141Y-73728793D01*
X136924275Y-73917265D01*
X136924279Y-73917270D01*
X137076762Y-74082908D01*
X137131331Y-74125381D01*
X137254424Y-74221189D01*
X137287680Y-74239186D01*
X137338071Y-74289200D01*
X137353423Y-74358516D01*
X137328862Y-74425129D01*
X137287680Y-74460813D01*
X137254426Y-74478810D01*
X137254424Y-74478811D01*
X137076762Y-74617091D01*
X136924279Y-74782729D01*
X136924275Y-74782734D01*
X136801141Y-74971206D01*
X136710703Y-75177386D01*
X136710702Y-75177387D01*
X136655437Y-75395624D01*
X136636844Y-75620000D01*
X136655437Y-75844380D01*
X136655949Y-75847447D01*
X136655796Y-75848709D01*
X136655867Y-75849562D01*
X136655691Y-75849576D01*
X136647424Y-75917930D01*
X136620761Y-75957266D01*
X135922924Y-76655104D01*
X135860611Y-76689129D01*
X135789796Y-76684065D01*
X135732960Y-76641518D01*
X135728345Y-76634924D01*
X135615314Y-76461916D01*
X135457225Y-76290186D01*
X135457221Y-76290182D01*
X135314807Y-76179337D01*
X135273017Y-76146810D01*
X135067727Y-76035713D01*
X135067724Y-76035712D01*
X135067723Y-76035711D01*
X134846955Y-75959921D01*
X134846948Y-75959919D01*
X134748411Y-75943476D01*
X134616712Y-75921500D01*
X134383288Y-75921500D01*
X134268066Y-75940727D01*
X134153051Y-75959919D01*
X134153044Y-75959921D01*
X133932276Y-76035711D01*
X133932273Y-76035713D01*
X133726985Y-76146809D01*
X133726983Y-76146810D01*
X133542778Y-76290182D01*
X133542774Y-76290186D01*
X133384685Y-76461916D01*
X133271655Y-76634924D01*
X133257016Y-76657331D01*
X133245513Y-76683555D01*
X133163252Y-76871089D01*
X133163249Y-76871096D01*
X133105950Y-77097366D01*
X133105949Y-77097372D01*
X133105949Y-77097374D01*
X133086673Y-77330000D01*
X133098561Y-77473470D01*
X133105950Y-77562633D01*
X133163249Y-77788903D01*
X133163252Y-77788910D01*
X133257015Y-78002668D01*
X133373022Y-78180231D01*
X133384686Y-78198083D01*
X133470209Y-78290985D01*
X133501629Y-78354648D01*
X133493642Y-78425194D01*
X133448784Y-78480223D01*
X133421541Y-78494376D01*
X133354037Y-78519554D01*
X133354034Y-78519555D01*
X133237095Y-78607095D01*
X133149555Y-78724034D01*
X133149555Y-78724035D01*
X133098505Y-78860906D01*
X133092000Y-78921402D01*
X133092000Y-79616000D01*
X134127032Y-79616000D01*
X134080667Y-79696306D01*
X134050000Y-79810756D01*
X134050000Y-79929244D01*
X134080667Y-80043694D01*
X134127032Y-80124000D01*
X133092000Y-80124000D01*
X133092000Y-80818597D01*
X133098505Y-80879093D01*
X133149555Y-81015964D01*
X133149555Y-81015965D01*
X133237095Y-81132904D01*
X133354034Y-81220444D01*
X133490906Y-81271494D01*
X133551402Y-81277999D01*
X133551415Y-81278000D01*
X134246000Y-81278000D01*
X134246000Y-80242968D01*
X134326306Y-80289333D01*
X134440756Y-80320000D01*
X134559244Y-80320000D01*
X134673694Y-80289333D01*
X134754000Y-80242968D01*
X134754000Y-81278001D01*
X134769861Y-81293862D01*
X134783960Y-81298002D01*
X134830453Y-81351658D01*
X134840557Y-81421932D01*
X134811063Y-81486512D01*
X134804934Y-81493095D01*
X130143434Y-86154595D01*
X130081122Y-86188621D01*
X130054339Y-86191500D01*
X129307156Y-86191500D01*
X129239035Y-86171498D01*
X129206287Y-86141008D01*
X129200889Y-86133797D01*
X129200889Y-86133796D01*
X129141970Y-86055090D01*
X129117161Y-85988571D01*
X129132253Y-85919197D01*
X129141972Y-85904073D01*
X129200445Y-85825963D01*
X129251494Y-85689093D01*
X129257999Y-85628597D01*
X129258000Y-85628585D01*
X129258000Y-85334000D01*
X125742000Y-85334000D01*
X125742000Y-85628597D01*
X125748505Y-85689093D01*
X125799555Y-85825964D01*
X125799555Y-85825965D01*
X125858027Y-85904073D01*
X125882838Y-85970593D01*
X125867747Y-86039967D01*
X125858028Y-86055090D01*
X125799112Y-86133793D01*
X125799110Y-86133797D01*
X125748011Y-86270795D01*
X125748009Y-86270803D01*
X125741500Y-86331350D01*
X124658500Y-86331350D01*
X124658500Y-85030272D01*
X126750000Y-85030272D01*
X126750000Y-85129728D01*
X126788060Y-85221614D01*
X126858386Y-85291940D01*
X126950272Y-85330000D01*
X128049728Y-85330000D01*
X128141614Y-85291940D01*
X128211940Y-85221614D01*
X128250000Y-85129728D01*
X128250000Y-85030272D01*
X128211940Y-84938386D01*
X128141614Y-84868060D01*
X128049728Y-84830000D01*
X126950272Y-84830000D01*
X126858386Y-84868060D01*
X126788060Y-84938386D01*
X126750000Y-85030272D01*
X124658500Y-85030272D01*
X124658500Y-84531402D01*
X125742000Y-84531402D01*
X125742000Y-84826000D01*
X127246000Y-84826000D01*
X127754000Y-84826000D01*
X129258000Y-84826000D01*
X129258000Y-84531414D01*
X129257999Y-84531402D01*
X129251494Y-84470906D01*
X129200444Y-84334035D01*
X129200444Y-84334034D01*
X129112904Y-84217095D01*
X128995965Y-84129555D01*
X128859093Y-84078505D01*
X128798597Y-84072000D01*
X127754000Y-84072000D01*
X127754000Y-84826000D01*
X127246000Y-84826000D01*
X127246000Y-84072000D01*
X126201402Y-84072000D01*
X126140906Y-84078505D01*
X126004035Y-84129555D01*
X126004034Y-84129555D01*
X125887095Y-84217095D01*
X125799555Y-84334034D01*
X125799555Y-84334035D01*
X125748505Y-84470906D01*
X125742000Y-84531402D01*
X124658500Y-84531402D01*
X124658500Y-81431350D01*
X125741500Y-81431350D01*
X125741500Y-82528649D01*
X125748009Y-82589196D01*
X125748011Y-82589204D01*
X125799110Y-82726202D01*
X125799112Y-82726207D01*
X125886738Y-82843261D01*
X126003792Y-82930887D01*
X126003794Y-82930888D01*
X126003796Y-82930889D01*
X126062875Y-82952924D01*
X126140795Y-82981988D01*
X126140803Y-82981990D01*
X126201350Y-82988499D01*
X126201355Y-82988499D01*
X126201362Y-82988500D01*
X126201368Y-82988500D01*
X128798632Y-82988500D01*
X128798638Y-82988500D01*
X128798645Y-82988499D01*
X128798649Y-82988499D01*
X128859196Y-82981990D01*
X128859199Y-82981989D01*
X128859201Y-82981989D01*
X128996204Y-82930889D01*
X129113261Y-82843261D01*
X129200889Y-82726204D01*
X129251989Y-82589201D01*
X129258500Y-82528638D01*
X129258500Y-81431362D01*
X129258499Y-81431350D01*
X129251990Y-81370803D01*
X129251988Y-81370795D01*
X129200889Y-81233797D01*
X129200887Y-81233792D01*
X129113261Y-81116738D01*
X128996207Y-81029112D01*
X128996202Y-81029110D01*
X128859204Y-80978011D01*
X128859196Y-80978009D01*
X128798649Y-80971500D01*
X128798638Y-80971500D01*
X126201362Y-80971500D01*
X126201350Y-80971500D01*
X126140803Y-80978009D01*
X126140795Y-80978011D01*
X126003797Y-81029110D01*
X126003792Y-81029112D01*
X125886738Y-81116738D01*
X125799112Y-81233792D01*
X125799110Y-81233797D01*
X125748011Y-81370795D01*
X125748009Y-81370803D01*
X125741500Y-81431350D01*
X124658500Y-81431350D01*
X124658500Y-78481908D01*
X125999500Y-78481908D01*
X125999500Y-78718092D01*
X126036447Y-78951368D01*
X126109432Y-79175992D01*
X126216657Y-79386433D01*
X126216659Y-79386436D01*
X126355484Y-79577512D01*
X126522487Y-79744515D01*
X126522490Y-79744517D01*
X126713567Y-79883343D01*
X126924008Y-79990568D01*
X127148632Y-80063553D01*
X127381908Y-80100500D01*
X127381911Y-80100500D01*
X127618089Y-80100500D01*
X127618092Y-80100500D01*
X127851368Y-80063553D01*
X128075992Y-79990568D01*
X128286433Y-79883343D01*
X128477510Y-79744517D01*
X128644517Y-79577510D01*
X128783343Y-79386433D01*
X128890568Y-79175992D01*
X128963553Y-78951368D01*
X129000500Y-78718092D01*
X129000500Y-78481908D01*
X128963553Y-78248632D01*
X128890568Y-78024008D01*
X128783343Y-77813567D01*
X128644517Y-77622490D01*
X128644515Y-77622487D01*
X128477512Y-77455484D01*
X128286436Y-77316659D01*
X128286435Y-77316658D01*
X128286433Y-77316657D01*
X128075992Y-77209432D01*
X127851368Y-77136447D01*
X127618092Y-77099500D01*
X127381908Y-77099500D01*
X127148632Y-77136447D01*
X127148629Y-77136447D01*
X127148628Y-77136448D01*
X126924008Y-77209432D01*
X126924006Y-77209433D01*
X126713563Y-77316659D01*
X126522487Y-77455484D01*
X126355484Y-77622487D01*
X126216659Y-77813563D01*
X126109433Y-78024006D01*
X126109432Y-78024008D01*
X126052873Y-78198079D01*
X126036447Y-78248632D01*
X125999500Y-78481908D01*
X124658500Y-78481908D01*
X124658500Y-77935142D01*
X124658499Y-77935139D01*
X124652703Y-77906000D01*
X124633194Y-77807923D01*
X124583555Y-77688083D01*
X124511490Y-77580231D01*
X124419769Y-77488510D01*
X120119769Y-73188509D01*
X120034224Y-73131350D01*
X125741500Y-73131350D01*
X125741500Y-74228649D01*
X125748009Y-74289196D01*
X125748011Y-74289204D01*
X125799110Y-74426202D01*
X125799112Y-74426207D01*
X125886738Y-74543261D01*
X126003792Y-74630887D01*
X126003794Y-74630888D01*
X126003796Y-74630889D01*
X126032245Y-74641500D01*
X126140795Y-74681988D01*
X126140803Y-74681990D01*
X126201350Y-74688499D01*
X126201355Y-74688499D01*
X126201362Y-74688500D01*
X126201368Y-74688500D01*
X128798632Y-74688500D01*
X128798638Y-74688500D01*
X128798645Y-74688499D01*
X128798649Y-74688499D01*
X128859196Y-74681990D01*
X128859199Y-74681989D01*
X128859201Y-74681989D01*
X128996204Y-74630889D01*
X129113261Y-74543261D01*
X129200887Y-74426207D01*
X129200887Y-74426206D01*
X129200889Y-74426204D01*
X129251989Y-74289201D01*
X129253530Y-74274872D01*
X129258499Y-74228649D01*
X129258500Y-74228632D01*
X129258500Y-73131367D01*
X129258499Y-73131350D01*
X129251990Y-73070803D01*
X129251988Y-73070795D01*
X129200890Y-72933798D01*
X129200889Y-72933797D01*
X129200889Y-72933796D01*
X129179400Y-72905090D01*
X129154590Y-72838572D01*
X129169681Y-72769198D01*
X129179401Y-72754073D01*
X129200446Y-72725960D01*
X129251494Y-72589093D01*
X129257999Y-72528597D01*
X129258000Y-72528585D01*
X129258000Y-72234000D01*
X125742000Y-72234000D01*
X125742000Y-72528597D01*
X125748505Y-72589093D01*
X125799554Y-72725963D01*
X125820598Y-72754073D01*
X125845409Y-72820594D01*
X125830318Y-72889968D01*
X125820598Y-72905092D01*
X125799112Y-72933792D01*
X125799110Y-72933797D01*
X125748011Y-73070795D01*
X125748009Y-73070803D01*
X125741500Y-73131350D01*
X120034224Y-73131350D01*
X120011917Y-73116445D01*
X119892080Y-73066807D01*
X119892077Y-73066806D01*
X119764860Y-73041500D01*
X119764857Y-73041500D01*
X114328544Y-73041500D01*
X114260423Y-73021498D01*
X114213930Y-72967842D01*
X114210493Y-72959545D01*
X114200889Y-72933796D01*
X114179400Y-72905090D01*
X114154590Y-72838572D01*
X114169681Y-72769198D01*
X114179401Y-72754073D01*
X114200446Y-72725960D01*
X114251494Y-72589093D01*
X114257999Y-72528597D01*
X114258000Y-72528585D01*
X114258000Y-72234000D01*
X112372000Y-72234000D01*
X112358377Y-72230000D01*
X113049728Y-72230000D01*
X113141614Y-72191940D01*
X113211940Y-72121614D01*
X113250000Y-72029728D01*
X113250000Y-71930272D01*
X126750000Y-71930272D01*
X126750000Y-72029728D01*
X126788060Y-72121614D01*
X126858386Y-72191940D01*
X126950272Y-72230000D01*
X128049728Y-72230000D01*
X128141614Y-72191940D01*
X128211940Y-72121614D01*
X128250000Y-72029728D01*
X128250000Y-71930272D01*
X128211940Y-71838386D01*
X128141614Y-71768060D01*
X128049728Y-71730000D01*
X126950272Y-71730000D01*
X126858386Y-71768060D01*
X126788060Y-71838386D01*
X126750000Y-71930272D01*
X113250000Y-71930272D01*
X113211940Y-71838386D01*
X113141614Y-71768060D01*
X113049728Y-71730000D01*
X112353612Y-71730000D01*
X112372000Y-71726000D01*
X114258000Y-71726000D01*
X114258000Y-71684500D01*
X114278002Y-71616379D01*
X114331658Y-71569886D01*
X114384000Y-71558500D01*
X114764857Y-71558500D01*
X114892077Y-71533194D01*
X115011917Y-71483555D01*
X115089970Y-71431402D01*
X125742000Y-71431402D01*
X125742000Y-71726000D01*
X127246000Y-71726000D01*
X127754000Y-71726000D01*
X129258000Y-71726000D01*
X129258000Y-71431414D01*
X129257999Y-71431402D01*
X129251494Y-71370906D01*
X129200444Y-71234035D01*
X129200444Y-71234034D01*
X129112904Y-71117095D01*
X128995965Y-71029555D01*
X128859093Y-70978505D01*
X128798597Y-70972000D01*
X127754000Y-70972000D01*
X127754000Y-71726000D01*
X127246000Y-71726000D01*
X127246000Y-70972000D01*
X126201402Y-70972000D01*
X126140906Y-70978505D01*
X126004035Y-71029555D01*
X126004034Y-71029555D01*
X125887095Y-71117095D01*
X125799555Y-71234034D01*
X125799555Y-71234035D01*
X125748505Y-71370906D01*
X125742000Y-71431402D01*
X115089970Y-71431402D01*
X115119769Y-71411491D01*
X115811491Y-70719769D01*
X115883555Y-70611917D01*
X115933194Y-70492077D01*
X115943419Y-70440671D01*
X115958500Y-70364857D01*
X115958500Y-68331350D01*
X125741500Y-68331350D01*
X125741500Y-69428649D01*
X125748009Y-69489196D01*
X125748011Y-69489204D01*
X125799110Y-69626202D01*
X125799112Y-69626207D01*
X125886738Y-69743261D01*
X126003792Y-69830887D01*
X126003794Y-69830888D01*
X126003796Y-69830889D01*
X126062875Y-69852924D01*
X126140795Y-69881988D01*
X126140803Y-69881990D01*
X126201350Y-69888499D01*
X126201355Y-69888499D01*
X126201362Y-69888500D01*
X126201368Y-69888500D01*
X128798632Y-69888500D01*
X128798638Y-69888500D01*
X128798645Y-69888499D01*
X128798649Y-69888499D01*
X128859196Y-69881990D01*
X128859199Y-69881989D01*
X128859201Y-69881989D01*
X128996204Y-69830889D01*
X129113261Y-69743261D01*
X129200889Y-69626204D01*
X129251989Y-69489201D01*
X129252601Y-69483514D01*
X129258499Y-69428649D01*
X129258500Y-69428632D01*
X129258500Y-68331367D01*
X129258499Y-68331350D01*
X129251990Y-68270803D01*
X129251988Y-68270795D01*
X129213229Y-68166880D01*
X129200889Y-68133796D01*
X129200888Y-68133794D01*
X129200887Y-68133792D01*
X129113261Y-68016738D01*
X128996207Y-67929112D01*
X128996202Y-67929110D01*
X128859204Y-67878011D01*
X128859196Y-67878009D01*
X128798649Y-67871500D01*
X128798638Y-67871500D01*
X126201362Y-67871500D01*
X126201350Y-67871500D01*
X126140803Y-67878009D01*
X126140795Y-67878011D01*
X126003797Y-67929110D01*
X126003792Y-67929112D01*
X125886738Y-68016738D01*
X125799112Y-68133792D01*
X125799110Y-68133797D01*
X125748011Y-68270795D01*
X125748009Y-68270803D01*
X125741500Y-68331350D01*
X115958500Y-68331350D01*
X115958500Y-65381908D01*
X125999500Y-65381908D01*
X125999500Y-65618092D01*
X126036447Y-65851368D01*
X126109432Y-66075992D01*
X126109433Y-66075993D01*
X126216659Y-66286436D01*
X126355484Y-66477512D01*
X126522487Y-66644515D01*
X126597632Y-66699111D01*
X126713567Y-66783343D01*
X126924008Y-66890568D01*
X127148632Y-66963553D01*
X127381908Y-67000500D01*
X127381911Y-67000500D01*
X127618089Y-67000500D01*
X127618092Y-67000500D01*
X127851368Y-66963553D01*
X128075992Y-66890568D01*
X128286433Y-66783343D01*
X128477510Y-66644517D01*
X128644517Y-66477510D01*
X128783343Y-66286433D01*
X128890568Y-66075992D01*
X128963553Y-65851368D01*
X129000500Y-65618092D01*
X129000500Y-65381908D01*
X128963553Y-65148632D01*
X128890568Y-64924008D01*
X128783343Y-64713567D01*
X128693464Y-64589860D01*
X128644515Y-64522487D01*
X128477512Y-64355484D01*
X128304798Y-64230000D01*
X133086673Y-64230000D01*
X133105950Y-64462633D01*
X133163249Y-64688903D01*
X133163252Y-64688910D01*
X133257015Y-64902668D01*
X133308499Y-64981471D01*
X133384686Y-65098083D01*
X133470209Y-65190985D01*
X133501629Y-65254648D01*
X133493642Y-65325194D01*
X133448784Y-65380223D01*
X133421541Y-65394376D01*
X133354037Y-65419554D01*
X133354034Y-65419555D01*
X133237095Y-65507095D01*
X133149555Y-65624034D01*
X133149555Y-65624035D01*
X133098505Y-65760906D01*
X133092000Y-65821402D01*
X133092000Y-66516000D01*
X134127032Y-66516000D01*
X134080667Y-66596306D01*
X134050000Y-66710756D01*
X134050000Y-66829244D01*
X134080667Y-66943694D01*
X134127032Y-67024000D01*
X133092000Y-67024000D01*
X133092000Y-67718597D01*
X133098505Y-67779093D01*
X133149555Y-67915964D01*
X133149555Y-67915965D01*
X133237095Y-68032904D01*
X133354034Y-68120444D01*
X133490906Y-68171494D01*
X133551402Y-68177999D01*
X133551415Y-68178000D01*
X134246000Y-68178000D01*
X134246000Y-67142968D01*
X134326306Y-67189333D01*
X134440756Y-67220000D01*
X134559244Y-67220000D01*
X134673694Y-67189333D01*
X134754000Y-67142968D01*
X134754000Y-68178000D01*
X135448585Y-68178000D01*
X135448597Y-68177999D01*
X135509093Y-68171494D01*
X135645964Y-68120444D01*
X135645965Y-68120444D01*
X135762904Y-68032904D01*
X135850444Y-67915965D01*
X135850444Y-67915964D01*
X135901494Y-67779093D01*
X135907999Y-67718597D01*
X135908000Y-67718585D01*
X135908000Y-67024000D01*
X134872968Y-67024000D01*
X134919333Y-66943694D01*
X134950000Y-66829244D01*
X134950000Y-66710756D01*
X134919333Y-66596306D01*
X134872968Y-66516000D01*
X135908000Y-66516000D01*
X135908000Y-65821414D01*
X135907999Y-65821402D01*
X135901494Y-65760906D01*
X135850444Y-65624035D01*
X135850444Y-65624034D01*
X135762904Y-65507095D01*
X135645965Y-65419555D01*
X135645960Y-65419553D01*
X135578459Y-65394376D01*
X135521623Y-65351829D01*
X135496813Y-65285309D01*
X135511905Y-65215935D01*
X135529784Y-65190991D01*
X135615314Y-65098083D01*
X135742984Y-64902669D01*
X135836749Y-64688907D01*
X135894051Y-64462626D01*
X135913327Y-64230000D01*
X135894051Y-63997374D01*
X135836749Y-63771093D01*
X135742984Y-63557331D01*
X135691500Y-63478528D01*
X135615314Y-63361916D01*
X135457225Y-63190186D01*
X135457221Y-63190182D01*
X135300348Y-63068083D01*
X135273017Y-63046810D01*
X135067727Y-62935713D01*
X135067724Y-62935712D01*
X135067723Y-62935711D01*
X134846955Y-62859921D01*
X134846948Y-62859919D01*
X134748411Y-62843476D01*
X134616712Y-62821500D01*
X134383288Y-62821500D01*
X134268066Y-62840727D01*
X134153051Y-62859919D01*
X134153044Y-62859921D01*
X133932276Y-62935711D01*
X133932273Y-62935713D01*
X133726985Y-63046809D01*
X133726983Y-63046810D01*
X133542778Y-63190182D01*
X133542774Y-63190186D01*
X133384685Y-63361916D01*
X133257015Y-63557331D01*
X133163252Y-63771089D01*
X133163249Y-63771096D01*
X133105950Y-63997366D01*
X133105949Y-63997372D01*
X133105949Y-63997374D01*
X133087779Y-64216657D01*
X133086673Y-64230000D01*
X128304798Y-64230000D01*
X128286436Y-64216659D01*
X128286435Y-64216658D01*
X128286433Y-64216657D01*
X128075992Y-64109432D01*
X127851368Y-64036447D01*
X127618092Y-63999500D01*
X127381908Y-63999500D01*
X127148632Y-64036447D01*
X127148629Y-64036447D01*
X127148628Y-64036448D01*
X126924008Y-64109432D01*
X126924006Y-64109433D01*
X126713563Y-64216659D01*
X126522487Y-64355484D01*
X126355484Y-64522487D01*
X126216659Y-64713563D01*
X126109433Y-64924006D01*
X126109432Y-64924008D01*
X126052873Y-65098079D01*
X126036447Y-65148632D01*
X125999500Y-65381908D01*
X115958500Y-65381908D01*
X115958500Y-63315143D01*
X115933194Y-63187923D01*
X115883555Y-63068083D01*
X115869341Y-63046810D01*
X115811491Y-62960231D01*
X114251784Y-61400524D01*
X114217758Y-61338212D01*
X114222823Y-61267397D01*
X114222823Y-61267396D01*
X114251989Y-61189201D01*
X114258500Y-61128638D01*
X114258500Y-60031362D01*
X114258499Y-60031350D01*
X125741500Y-60031350D01*
X125741500Y-61128649D01*
X125748009Y-61189196D01*
X125748011Y-61189204D01*
X125799110Y-61326202D01*
X125799112Y-61326207D01*
X125886738Y-61443261D01*
X126003792Y-61530887D01*
X126003794Y-61530888D01*
X126003796Y-61530889D01*
X126062875Y-61552924D01*
X126140795Y-61581988D01*
X126140803Y-61581990D01*
X126201350Y-61588499D01*
X126201355Y-61588499D01*
X126201362Y-61588500D01*
X126201368Y-61588500D01*
X128798632Y-61588500D01*
X128798638Y-61588500D01*
X128798645Y-61588499D01*
X128798649Y-61588499D01*
X128859196Y-61581990D01*
X128859199Y-61581989D01*
X128859201Y-61581989D01*
X128996204Y-61530889D01*
X129113261Y-61443261D01*
X129200889Y-61326204D01*
X129251989Y-61189201D01*
X129251989Y-61189199D01*
X129251990Y-61189196D01*
X129258499Y-61128649D01*
X129258500Y-61128632D01*
X129258500Y-60031367D01*
X129258499Y-60031350D01*
X129251990Y-59970803D01*
X129251988Y-59970795D01*
X129200890Y-59833798D01*
X129200889Y-59833797D01*
X129200889Y-59833796D01*
X129179400Y-59805090D01*
X129154590Y-59738572D01*
X129169681Y-59669198D01*
X129179401Y-59654073D01*
X129200446Y-59625960D01*
X129251494Y-59489093D01*
X129257999Y-59428597D01*
X129258000Y-59428585D01*
X129258000Y-59134000D01*
X125742000Y-59134000D01*
X125742000Y-59428597D01*
X125748505Y-59489093D01*
X125799554Y-59625963D01*
X125820598Y-59654073D01*
X125845409Y-59720594D01*
X125830318Y-59789968D01*
X125820598Y-59805092D01*
X125799112Y-59833792D01*
X125799110Y-59833797D01*
X125748011Y-59970795D01*
X125748009Y-59970803D01*
X125741500Y-60031350D01*
X114258499Y-60031350D01*
X114251990Y-59970803D01*
X114251988Y-59970795D01*
X114200890Y-59833798D01*
X114200889Y-59833797D01*
X114200889Y-59833796D01*
X114179400Y-59805090D01*
X114154590Y-59738572D01*
X114169681Y-59669198D01*
X114179401Y-59654073D01*
X114200446Y-59625960D01*
X114251494Y-59489093D01*
X114257999Y-59428597D01*
X114258000Y-59428585D01*
X114258000Y-59134000D01*
X110742000Y-59134000D01*
X110742000Y-59428597D01*
X110748505Y-59489093D01*
X110799554Y-59625963D01*
X110820598Y-59654073D01*
X110845409Y-59720594D01*
X110830318Y-59789968D01*
X110820598Y-59805092D01*
X110799112Y-59833792D01*
X110799110Y-59833797D01*
X110748011Y-59970795D01*
X110748009Y-59970803D01*
X110741500Y-60031350D01*
X110741500Y-61128649D01*
X110748009Y-61189196D01*
X110748011Y-61189204D01*
X110799110Y-61326202D01*
X110799112Y-61326207D01*
X110886738Y-61443261D01*
X111003792Y-61530887D01*
X111003794Y-61530888D01*
X111003796Y-61530889D01*
X111062875Y-61552924D01*
X111140795Y-61581988D01*
X111140803Y-61581990D01*
X111201350Y-61588499D01*
X111201355Y-61588499D01*
X111201362Y-61588500D01*
X112525050Y-61588500D01*
X112593171Y-61608502D01*
X112614145Y-61625405D01*
X114604595Y-63615855D01*
X114638621Y-63678167D01*
X114641500Y-63704950D01*
X114641500Y-69975050D01*
X114621498Y-70043171D01*
X114604595Y-70064145D01*
X114464145Y-70204595D01*
X114401833Y-70238621D01*
X114375050Y-70241500D01*
X111015139Y-70241500D01*
X110887922Y-70266806D01*
X110887919Y-70266807D01*
X110768082Y-70316445D01*
X110660232Y-70388508D01*
X110660226Y-70388513D01*
X110473595Y-70575145D01*
X110411283Y-70609171D01*
X110340468Y-70604106D01*
X110283632Y-70561559D01*
X110258821Y-70495039D01*
X110258500Y-70486050D01*
X110258500Y-68331350D01*
X110741500Y-68331350D01*
X110741500Y-69428649D01*
X110748009Y-69489196D01*
X110748011Y-69489204D01*
X110799110Y-69626202D01*
X110799112Y-69626207D01*
X110886738Y-69743261D01*
X111003792Y-69830887D01*
X111003794Y-69830888D01*
X111003796Y-69830889D01*
X111062875Y-69852924D01*
X111140795Y-69881988D01*
X111140803Y-69881990D01*
X111201350Y-69888499D01*
X111201355Y-69888499D01*
X111201362Y-69888500D01*
X111201368Y-69888500D01*
X113798632Y-69888500D01*
X113798638Y-69888500D01*
X113798645Y-69888499D01*
X113798649Y-69888499D01*
X113859196Y-69881990D01*
X113859199Y-69881989D01*
X113859201Y-69881989D01*
X113996204Y-69830889D01*
X114113261Y-69743261D01*
X114200889Y-69626204D01*
X114251989Y-69489201D01*
X114252601Y-69483514D01*
X114258499Y-69428649D01*
X114258500Y-69428632D01*
X114258500Y-68331367D01*
X114258499Y-68331350D01*
X114251990Y-68270803D01*
X114251988Y-68270795D01*
X114213229Y-68166880D01*
X114200889Y-68133796D01*
X114200888Y-68133794D01*
X114200887Y-68133792D01*
X114113261Y-68016738D01*
X113996207Y-67929112D01*
X113996202Y-67929110D01*
X113859204Y-67878011D01*
X113859196Y-67878009D01*
X113798649Y-67871500D01*
X113798638Y-67871500D01*
X111201362Y-67871500D01*
X111201350Y-67871500D01*
X111140803Y-67878009D01*
X111140795Y-67878011D01*
X111003797Y-67929110D01*
X111003792Y-67929112D01*
X110886738Y-68016738D01*
X110799112Y-68133792D01*
X110799110Y-68133797D01*
X110748011Y-68270795D01*
X110748009Y-68270803D01*
X110741500Y-68331350D01*
X110258500Y-68331350D01*
X110258500Y-65381908D01*
X110999500Y-65381908D01*
X110999500Y-65618092D01*
X111036447Y-65851368D01*
X111109432Y-66075992D01*
X111109433Y-66075993D01*
X111216659Y-66286436D01*
X111355484Y-66477512D01*
X111522487Y-66644515D01*
X111597632Y-66699111D01*
X111713567Y-66783343D01*
X111924008Y-66890568D01*
X112148632Y-66963553D01*
X112381908Y-67000500D01*
X112381911Y-67000500D01*
X112618089Y-67000500D01*
X112618092Y-67000500D01*
X112851368Y-66963553D01*
X113075992Y-66890568D01*
X113286433Y-66783343D01*
X113477510Y-66644517D01*
X113644517Y-66477510D01*
X113783343Y-66286433D01*
X113890568Y-66075992D01*
X113963553Y-65851368D01*
X114000500Y-65618092D01*
X114000500Y-65381908D01*
X113963553Y-65148632D01*
X113890568Y-64924008D01*
X113783343Y-64713567D01*
X113693464Y-64589860D01*
X113644515Y-64522487D01*
X113477512Y-64355484D01*
X113286436Y-64216659D01*
X113286435Y-64216658D01*
X113286433Y-64216657D01*
X113075992Y-64109432D01*
X112851368Y-64036447D01*
X112618092Y-63999500D01*
X112381908Y-63999500D01*
X112148632Y-64036447D01*
X112148629Y-64036447D01*
X112148628Y-64036448D01*
X111924008Y-64109432D01*
X111924006Y-64109433D01*
X111713563Y-64216659D01*
X111522487Y-64355484D01*
X111355484Y-64522487D01*
X111216659Y-64713563D01*
X111109433Y-64924006D01*
X111109432Y-64924008D01*
X111052873Y-65098079D01*
X111036447Y-65148632D01*
X110999500Y-65381908D01*
X110258500Y-65381908D01*
X110258500Y-58830272D01*
X111750000Y-58830272D01*
X111750000Y-58929728D01*
X111788060Y-59021614D01*
X111858386Y-59091940D01*
X111950272Y-59130000D01*
X113049728Y-59130000D01*
X113141614Y-59091940D01*
X113211940Y-59021614D01*
X113250000Y-58929728D01*
X113250000Y-58830272D01*
X126750000Y-58830272D01*
X126750000Y-58929728D01*
X126788060Y-59021614D01*
X126858386Y-59091940D01*
X126950272Y-59130000D01*
X128049728Y-59130000D01*
X128141614Y-59091940D01*
X128211940Y-59021614D01*
X128250000Y-58929728D01*
X128250000Y-58830272D01*
X128211940Y-58738386D01*
X128141614Y-58668060D01*
X128049728Y-58630000D01*
X126950272Y-58630000D01*
X126858386Y-58668060D01*
X126788060Y-58738386D01*
X126750000Y-58830272D01*
X113250000Y-58830272D01*
X113211940Y-58738386D01*
X113141614Y-58668060D01*
X113049728Y-58630000D01*
X111950272Y-58630000D01*
X111858386Y-58668060D01*
X111788060Y-58738386D01*
X111750000Y-58830272D01*
X110258500Y-58830272D01*
X110258500Y-58331402D01*
X110742000Y-58331402D01*
X110742000Y-58626000D01*
X112246000Y-58626000D01*
X112754000Y-58626000D01*
X114258000Y-58626000D01*
X114258000Y-58331414D01*
X114257999Y-58331402D01*
X125742000Y-58331402D01*
X125742000Y-58626000D01*
X127246000Y-58626000D01*
X127754000Y-58626000D01*
X129258000Y-58626000D01*
X129258000Y-58331414D01*
X129257999Y-58331402D01*
X129251494Y-58270906D01*
X129200444Y-58134035D01*
X129200444Y-58134034D01*
X129112904Y-58017095D01*
X128995965Y-57929555D01*
X128859093Y-57878505D01*
X128798597Y-57872000D01*
X127754000Y-57872000D01*
X127754000Y-58626000D01*
X127246000Y-58626000D01*
X127246000Y-57872000D01*
X126201402Y-57872000D01*
X126140906Y-57878505D01*
X126004035Y-57929555D01*
X126004034Y-57929555D01*
X125887095Y-58017095D01*
X125799555Y-58134034D01*
X125799555Y-58134035D01*
X125748505Y-58270906D01*
X125742000Y-58331402D01*
X114257999Y-58331402D01*
X114251494Y-58270906D01*
X114200444Y-58134035D01*
X114200444Y-58134034D01*
X114112904Y-58017095D01*
X113995965Y-57929555D01*
X113859093Y-57878505D01*
X113798597Y-57872000D01*
X112754000Y-57872000D01*
X112754000Y-58626000D01*
X112246000Y-58626000D01*
X112246000Y-57872000D01*
X111201402Y-57872000D01*
X111140906Y-57878505D01*
X111004035Y-57929555D01*
X111004034Y-57929555D01*
X110887095Y-58017095D01*
X110799555Y-58134034D01*
X110799555Y-58134035D01*
X110748505Y-58270906D01*
X110742000Y-58331402D01*
X110258500Y-58331402D01*
X110258500Y-55231350D01*
X110741500Y-55231350D01*
X110741500Y-56328649D01*
X110748009Y-56389196D01*
X110748011Y-56389204D01*
X110799110Y-56526202D01*
X110799112Y-56526207D01*
X110886738Y-56643261D01*
X111003792Y-56730887D01*
X111003794Y-56730888D01*
X111003796Y-56730889D01*
X111062875Y-56752924D01*
X111140795Y-56781988D01*
X111140803Y-56781990D01*
X111201350Y-56788499D01*
X111201355Y-56788499D01*
X111201362Y-56788500D01*
X111201368Y-56788500D01*
X113798632Y-56788500D01*
X113798638Y-56788500D01*
X113798645Y-56788499D01*
X113798649Y-56788499D01*
X113859196Y-56781990D01*
X113859199Y-56781989D01*
X113859201Y-56781989D01*
X113996204Y-56730889D01*
X114113261Y-56643261D01*
X114200889Y-56526204D01*
X114251989Y-56389201D01*
X114258500Y-56328638D01*
X114258500Y-55231362D01*
X114258499Y-55231350D01*
X125741500Y-55231350D01*
X125741500Y-56328649D01*
X125748009Y-56389196D01*
X125748011Y-56389204D01*
X125799110Y-56526202D01*
X125799112Y-56526207D01*
X125886738Y-56643261D01*
X126003792Y-56730887D01*
X126003794Y-56730888D01*
X126003796Y-56730889D01*
X126062875Y-56752924D01*
X126140795Y-56781988D01*
X126140803Y-56781990D01*
X126201350Y-56788499D01*
X126201355Y-56788499D01*
X126201362Y-56788500D01*
X126201368Y-56788500D01*
X128798632Y-56788500D01*
X128798638Y-56788500D01*
X128798645Y-56788499D01*
X128798649Y-56788499D01*
X128859196Y-56781990D01*
X128859199Y-56781989D01*
X128859201Y-56781989D01*
X128996204Y-56730889D01*
X129113261Y-56643261D01*
X129200889Y-56526204D01*
X129251989Y-56389201D01*
X129258500Y-56328638D01*
X129258500Y-55231362D01*
X129253509Y-55184935D01*
X129251990Y-55170803D01*
X129251988Y-55170795D01*
X129213229Y-55066880D01*
X129200889Y-55033796D01*
X129200888Y-55033794D01*
X129200887Y-55033792D01*
X129113261Y-54916738D01*
X128996207Y-54829112D01*
X128996202Y-54829110D01*
X128859204Y-54778011D01*
X128859196Y-54778009D01*
X128798649Y-54771500D01*
X128798638Y-54771500D01*
X126201362Y-54771500D01*
X126201350Y-54771500D01*
X126140803Y-54778009D01*
X126140795Y-54778011D01*
X126003797Y-54829110D01*
X126003792Y-54829112D01*
X125886738Y-54916738D01*
X125799112Y-55033792D01*
X125799110Y-55033797D01*
X125748011Y-55170795D01*
X125748009Y-55170803D01*
X125741500Y-55231350D01*
X114258499Y-55231350D01*
X114253509Y-55184935D01*
X114251990Y-55170803D01*
X114251988Y-55170795D01*
X114213229Y-55066880D01*
X114200889Y-55033796D01*
X114200888Y-55033794D01*
X114200887Y-55033792D01*
X114113261Y-54916738D01*
X113996207Y-54829112D01*
X113996202Y-54829110D01*
X113859204Y-54778011D01*
X113859196Y-54778009D01*
X113798649Y-54771500D01*
X113798638Y-54771500D01*
X111201362Y-54771500D01*
X111201350Y-54771500D01*
X111140803Y-54778009D01*
X111140795Y-54778011D01*
X111003797Y-54829110D01*
X111003792Y-54829112D01*
X110886738Y-54916738D01*
X110799112Y-55033792D01*
X110799110Y-55033797D01*
X110748011Y-55170795D01*
X110748009Y-55170803D01*
X110741500Y-55231350D01*
X110258500Y-55231350D01*
X110258500Y-52281908D01*
X110999500Y-52281908D01*
X110999500Y-52518092D01*
X111036447Y-52751368D01*
X111109432Y-52975992D01*
X111109433Y-52975993D01*
X111216659Y-53186436D01*
X111355484Y-53377512D01*
X111522487Y-53544515D01*
X111522490Y-53544517D01*
X111713567Y-53683343D01*
X111924008Y-53790568D01*
X112148632Y-53863553D01*
X112381908Y-53900500D01*
X112381911Y-53900500D01*
X112618089Y-53900500D01*
X112618092Y-53900500D01*
X112851368Y-53863553D01*
X113075992Y-53790568D01*
X113286433Y-53683343D01*
X113477510Y-53544517D01*
X113644517Y-53377510D01*
X113783343Y-53186433D01*
X113890568Y-52975992D01*
X113963553Y-52751368D01*
X114000500Y-52518092D01*
X114000500Y-52281908D01*
X125999500Y-52281908D01*
X125999500Y-52518092D01*
X126036447Y-52751368D01*
X126109432Y-52975992D01*
X126109433Y-52975993D01*
X126216659Y-53186436D01*
X126355484Y-53377512D01*
X126522487Y-53544515D01*
X126522490Y-53544517D01*
X126713567Y-53683343D01*
X126924008Y-53790568D01*
X127148632Y-53863553D01*
X127381908Y-53900500D01*
X127381911Y-53900500D01*
X127618089Y-53900500D01*
X127618092Y-53900500D01*
X127851368Y-53863553D01*
X128075992Y-53790568D01*
X128286433Y-53683343D01*
X128477510Y-53544517D01*
X128644517Y-53377510D01*
X128783343Y-53186433D01*
X128890568Y-52975992D01*
X128963553Y-52751368D01*
X129000500Y-52518092D01*
X129000500Y-52281908D01*
X128963553Y-52048632D01*
X128890568Y-51824008D01*
X128783343Y-51613567D01*
X128644517Y-51422490D01*
X128644515Y-51422487D01*
X128477512Y-51255484D01*
X128304798Y-51130000D01*
X133086673Y-51130000D01*
X133105950Y-51362633D01*
X133163249Y-51588903D01*
X133163252Y-51588910D01*
X133257015Y-51802668D01*
X133257016Y-51802669D01*
X133384686Y-51998083D01*
X133470209Y-52090985D01*
X133501629Y-52154648D01*
X133493642Y-52225194D01*
X133448784Y-52280223D01*
X133421541Y-52294376D01*
X133354037Y-52319554D01*
X133354034Y-52319555D01*
X133237095Y-52407095D01*
X133149555Y-52524034D01*
X133149555Y-52524035D01*
X133098505Y-52660906D01*
X133092000Y-52721402D01*
X133092000Y-53416000D01*
X134127032Y-53416000D01*
X134080667Y-53496306D01*
X134050000Y-53610756D01*
X134050000Y-53729244D01*
X134080667Y-53843694D01*
X134127032Y-53924000D01*
X133092000Y-53924000D01*
X133092000Y-54618597D01*
X133098505Y-54679093D01*
X133149555Y-54815964D01*
X133149555Y-54815965D01*
X133237095Y-54932904D01*
X133354034Y-55020444D01*
X133490906Y-55071494D01*
X133551402Y-55077999D01*
X133551415Y-55078000D01*
X134246000Y-55078000D01*
X134246000Y-54042968D01*
X134326306Y-54089333D01*
X134440756Y-54120000D01*
X134559244Y-54120000D01*
X134673694Y-54089333D01*
X134754000Y-54042968D01*
X134754000Y-55078000D01*
X135448585Y-55078000D01*
X135448597Y-55077999D01*
X135509093Y-55071494D01*
X135645964Y-55020444D01*
X135645965Y-55020444D01*
X135762904Y-54932904D01*
X135850444Y-54815965D01*
X135850444Y-54815964D01*
X135901494Y-54679093D01*
X135907999Y-54618597D01*
X135908000Y-54618585D01*
X135908000Y-53924000D01*
X134872968Y-53924000D01*
X134919333Y-53843694D01*
X134950000Y-53729244D01*
X134950000Y-53610756D01*
X134919333Y-53496306D01*
X134872968Y-53416000D01*
X135908000Y-53416000D01*
X135908000Y-52721414D01*
X135907999Y-52721402D01*
X135901494Y-52660906D01*
X135850444Y-52524035D01*
X135850444Y-52524034D01*
X135762904Y-52407095D01*
X135645965Y-52319555D01*
X135645960Y-52319553D01*
X135578459Y-52294376D01*
X135521623Y-52251829D01*
X135496813Y-52185309D01*
X135511905Y-52115935D01*
X135529784Y-52090991D01*
X135615314Y-51998083D01*
X135742984Y-51802669D01*
X135836749Y-51588907D01*
X135894051Y-51362626D01*
X135913327Y-51130000D01*
X135894051Y-50897374D01*
X135857430Y-50752759D01*
X135836750Y-50671096D01*
X135836747Y-50671089D01*
X135742984Y-50457331D01*
X135615314Y-50261916D01*
X135457225Y-50090186D01*
X135457221Y-50090182D01*
X135365118Y-50018496D01*
X135273017Y-49946810D01*
X135067727Y-49835713D01*
X135067724Y-49835712D01*
X135067723Y-49835711D01*
X134846955Y-49759921D01*
X134846948Y-49759919D01*
X134748411Y-49743476D01*
X134616712Y-49721500D01*
X134383288Y-49721500D01*
X134268066Y-49740727D01*
X134153051Y-49759919D01*
X134153044Y-49759921D01*
X133932276Y-49835711D01*
X133932273Y-49835713D01*
X133726985Y-49946809D01*
X133726983Y-49946810D01*
X133542778Y-50090182D01*
X133542774Y-50090186D01*
X133384685Y-50261916D01*
X133257015Y-50457331D01*
X133163252Y-50671089D01*
X133163249Y-50671096D01*
X133105950Y-50897366D01*
X133105949Y-50897372D01*
X133105949Y-50897374D01*
X133087779Y-51116657D01*
X133086673Y-51130000D01*
X128304798Y-51130000D01*
X128286436Y-51116659D01*
X128286435Y-51116658D01*
X128286433Y-51116657D01*
X128075992Y-51009432D01*
X127851368Y-50936447D01*
X127618092Y-50899500D01*
X127381908Y-50899500D01*
X127148632Y-50936447D01*
X127148629Y-50936447D01*
X127148628Y-50936448D01*
X126924008Y-51009432D01*
X126924006Y-51009433D01*
X126713563Y-51116659D01*
X126522487Y-51255484D01*
X126355484Y-51422487D01*
X126216659Y-51613563D01*
X126109433Y-51824006D01*
X126109432Y-51824008D01*
X126052873Y-51998079D01*
X126036447Y-52048632D01*
X125999500Y-52281908D01*
X114000500Y-52281908D01*
X113963553Y-52048632D01*
X113890568Y-51824008D01*
X113783343Y-51613567D01*
X113644517Y-51422490D01*
X113644515Y-51422487D01*
X113477512Y-51255484D01*
X113286436Y-51116659D01*
X113286435Y-51116658D01*
X113286433Y-51116657D01*
X113075992Y-51009432D01*
X112851368Y-50936447D01*
X112618092Y-50899500D01*
X112381908Y-50899500D01*
X112148632Y-50936447D01*
X112148629Y-50936447D01*
X112148628Y-50936448D01*
X111924008Y-51009432D01*
X111924006Y-51009433D01*
X111713563Y-51116659D01*
X111522487Y-51255484D01*
X111355484Y-51422487D01*
X111216659Y-51613563D01*
X111109433Y-51824006D01*
X111109432Y-51824008D01*
X111052873Y-51998079D01*
X111036447Y-52048632D01*
X110999500Y-52281908D01*
X110258500Y-52281908D01*
X110258500Y-50804949D01*
X110278502Y-50736828D01*
X110295405Y-50715854D01*
X112485854Y-48525405D01*
X112548166Y-48491379D01*
X112574949Y-48488500D01*
X113798632Y-48488500D01*
X113798638Y-48488500D01*
X113798645Y-48488499D01*
X113798649Y-48488499D01*
X113859196Y-48481990D01*
X113859199Y-48481989D01*
X113859201Y-48481989D01*
X113996204Y-48430889D01*
X114073893Y-48372732D01*
X114113261Y-48343261D01*
X114200887Y-48226207D01*
X114200887Y-48226206D01*
X114200889Y-48226204D01*
X114251989Y-48089201D01*
X114258500Y-48028638D01*
X114258500Y-46931362D01*
X114258499Y-46931350D01*
X125741500Y-46931350D01*
X125741500Y-48028649D01*
X125748009Y-48089196D01*
X125748011Y-48089204D01*
X125799110Y-48226202D01*
X125799112Y-48226207D01*
X125886738Y-48343261D01*
X126003792Y-48430887D01*
X126003794Y-48430888D01*
X126003796Y-48430889D01*
X126062875Y-48452924D01*
X126140795Y-48481988D01*
X126140803Y-48481990D01*
X126201350Y-48488499D01*
X126201355Y-48488499D01*
X126201362Y-48488500D01*
X126201368Y-48488500D01*
X128798632Y-48488500D01*
X128798638Y-48488500D01*
X128798645Y-48488499D01*
X128798649Y-48488499D01*
X128859196Y-48481990D01*
X128859199Y-48481989D01*
X128859201Y-48481989D01*
X128996204Y-48430889D01*
X129073893Y-48372732D01*
X129113261Y-48343261D01*
X129200887Y-48226207D01*
X129200887Y-48226206D01*
X129200889Y-48226204D01*
X129251989Y-48089201D01*
X129258500Y-48028638D01*
X129258500Y-46931362D01*
X129258499Y-46931350D01*
X129251990Y-46870803D01*
X129251988Y-46870795D01*
X129200889Y-46733797D01*
X129200887Y-46733792D01*
X129113261Y-46616738D01*
X128996207Y-46529112D01*
X128996202Y-46529110D01*
X128859204Y-46478011D01*
X128859196Y-46478009D01*
X128798649Y-46471500D01*
X128798638Y-46471500D01*
X126201362Y-46471500D01*
X126201350Y-46471500D01*
X126140803Y-46478009D01*
X126140795Y-46478011D01*
X126003797Y-46529110D01*
X126003792Y-46529112D01*
X125886738Y-46616738D01*
X125799112Y-46733792D01*
X125799110Y-46733797D01*
X125748011Y-46870795D01*
X125748009Y-46870803D01*
X125741500Y-46931350D01*
X114258499Y-46931350D01*
X114251990Y-46870803D01*
X114251988Y-46870795D01*
X114200889Y-46733797D01*
X114200887Y-46733792D01*
X114113261Y-46616738D01*
X113996207Y-46529112D01*
X113996202Y-46529110D01*
X113859204Y-46478011D01*
X113859196Y-46478009D01*
X113798649Y-46471500D01*
X113798638Y-46471500D01*
X111201362Y-46471500D01*
X111201350Y-46471500D01*
X111140803Y-46478009D01*
X111140795Y-46478011D01*
X111003797Y-46529110D01*
X111003792Y-46529112D01*
X110886738Y-46616738D01*
X110799112Y-46733792D01*
X110799110Y-46733797D01*
X110748011Y-46870795D01*
X110748009Y-46870803D01*
X110741500Y-46931350D01*
X110741500Y-48028649D01*
X110748009Y-48089196D01*
X110748011Y-48089204D01*
X110802260Y-48234647D01*
X110800150Y-48235433D01*
X110812589Y-48292640D01*
X110787771Y-48359157D01*
X110776006Y-48372732D01*
X109088515Y-50060223D01*
X109088510Y-50060229D01*
X109016445Y-50168082D01*
X108966807Y-50287919D01*
X108966806Y-50287922D01*
X108941500Y-50415139D01*
X108941500Y-66365339D01*
X108921498Y-66433460D01*
X108867842Y-66479953D01*
X108797568Y-66490057D01*
X108732988Y-66460563D01*
X108726405Y-66454434D01*
X106912454Y-64640484D01*
X106878429Y-64578172D01*
X106879404Y-64520460D01*
X106894051Y-64462626D01*
X106913327Y-64230000D01*
X106894051Y-63997374D01*
X106836749Y-63771093D01*
X106742984Y-63557331D01*
X106691500Y-63478528D01*
X106615314Y-63361916D01*
X106457225Y-63190186D01*
X106457221Y-63190182D01*
X106300348Y-63068083D01*
X106273017Y-63046810D01*
X106067727Y-62935713D01*
X106067724Y-62935712D01*
X106067723Y-62935711D01*
X105846955Y-62859921D01*
X105846948Y-62859919D01*
X105748411Y-62843476D01*
X105616712Y-62821500D01*
X105383288Y-62821500D01*
X105268066Y-62840727D01*
X105153051Y-62859919D01*
X105153044Y-62859921D01*
X104932276Y-62935711D01*
X104932273Y-62935713D01*
X104726985Y-63046809D01*
X104726983Y-63046810D01*
X104542778Y-63190182D01*
X104527200Y-63207105D01*
X104466346Y-63243675D01*
X104395381Y-63241540D01*
X104336837Y-63201377D01*
X104309300Y-63135938D01*
X104308500Y-63121766D01*
X104308500Y-55184935D01*
X104328502Y-55116814D01*
X104382158Y-55070321D01*
X104452432Y-55060217D01*
X104478534Y-55066880D01*
X104490905Y-55071494D01*
X104551402Y-55077999D01*
X104551415Y-55078000D01*
X105246000Y-55078000D01*
X105246000Y-54042968D01*
X105326306Y-54089333D01*
X105440756Y-54120000D01*
X105559244Y-54120000D01*
X105673694Y-54089333D01*
X105754000Y-54042968D01*
X105754000Y-55078000D01*
X106448585Y-55078000D01*
X106448597Y-55077999D01*
X106509093Y-55071494D01*
X106645964Y-55020444D01*
X106645965Y-55020444D01*
X106762904Y-54932904D01*
X106850444Y-54815965D01*
X106850444Y-54815964D01*
X106901494Y-54679093D01*
X106907999Y-54618597D01*
X106908000Y-54618585D01*
X106908000Y-53924000D01*
X105872968Y-53924000D01*
X105919333Y-53843694D01*
X105950000Y-53729244D01*
X105950000Y-53610756D01*
X105919333Y-53496306D01*
X105872968Y-53416000D01*
X106908000Y-53416000D01*
X106908000Y-52721414D01*
X106907999Y-52721402D01*
X106901494Y-52660906D01*
X106850444Y-52524035D01*
X106850444Y-52524034D01*
X106762904Y-52407095D01*
X106645965Y-52319555D01*
X106645960Y-52319553D01*
X106578459Y-52294376D01*
X106521623Y-52251829D01*
X106496813Y-52185309D01*
X106511905Y-52115935D01*
X106529784Y-52090991D01*
X106615314Y-51998083D01*
X106742984Y-51802669D01*
X106836749Y-51588907D01*
X106894051Y-51362626D01*
X106913327Y-51130000D01*
X106894051Y-50897374D01*
X106857430Y-50752759D01*
X106836750Y-50671096D01*
X106836747Y-50671089D01*
X106742984Y-50457331D01*
X106615314Y-50261916D01*
X106457225Y-50090186D01*
X106457221Y-50090182D01*
X106365118Y-50018496D01*
X106273017Y-49946810D01*
X106067727Y-49835713D01*
X106067724Y-49835712D01*
X106067723Y-49835711D01*
X105846955Y-49759921D01*
X105846948Y-49759919D01*
X105748411Y-49743476D01*
X105616712Y-49721500D01*
X105383288Y-49721500D01*
X105268066Y-49740727D01*
X105153051Y-49759919D01*
X105153044Y-49759921D01*
X104932276Y-49835711D01*
X104932273Y-49835713D01*
X104726985Y-49946809D01*
X104726983Y-49946810D01*
X104542778Y-50090182D01*
X104542774Y-50090186D01*
X104384685Y-50261916D01*
X104257015Y-50457331D01*
X104163252Y-50671089D01*
X104163249Y-50671096D01*
X104105950Y-50897366D01*
X104105949Y-50897372D01*
X104105949Y-50897374D01*
X104087779Y-51116657D01*
X104086673Y-51130000D01*
X104105949Y-51362629D01*
X104120594Y-51420459D01*
X104117926Y-51491405D01*
X104087544Y-51540484D01*
X103049676Y-52578351D01*
X103049671Y-52578357D01*
X102972135Y-52694398D01*
X102948538Y-52751368D01*
X102918729Y-52823332D01*
X102918727Y-52823337D01*
X102891500Y-52960216D01*
X102891500Y-66515500D01*
X102871498Y-66583621D01*
X102817842Y-66630114D01*
X102765500Y-66641500D01*
X101101350Y-66641500D01*
X101040803Y-66648009D01*
X101040795Y-66648011D01*
X100903797Y-66699110D01*
X100903792Y-66699112D01*
X100786738Y-66786738D01*
X100699112Y-66903792D01*
X100699110Y-66903797D01*
X100648011Y-67040795D01*
X100648009Y-67040803D01*
X100641500Y-67101350D01*
X100641500Y-68898649D01*
X100648009Y-68959196D01*
X100648011Y-68959204D01*
X100699110Y-69096202D01*
X100699112Y-69096207D01*
X100786738Y-69213261D01*
X100903791Y-69300886D01*
X100903792Y-69300886D01*
X100903796Y-69300889D01*
X101018810Y-69343787D01*
X101075642Y-69386332D01*
X101100453Y-69452852D01*
X101085362Y-69522226D01*
X101067475Y-69547179D01*
X100924280Y-69702729D01*
X100924275Y-69702734D01*
X100801141Y-69891206D01*
X100710703Y-70097386D01*
X100710702Y-70097387D01*
X100655437Y-70315624D01*
X100655436Y-70315630D01*
X100655436Y-70315632D01*
X100636844Y-70540000D01*
X100651740Y-70719769D01*
X100655437Y-70764375D01*
X100710702Y-70982612D01*
X100710703Y-70982613D01*
X100710704Y-70982616D01*
X100801140Y-71188791D01*
X100801141Y-71188793D01*
X100924275Y-71377265D01*
X100924279Y-71377270D01*
X100974112Y-71431402D01*
X101067818Y-71533193D01*
X101076762Y-71542908D01*
X101131331Y-71585381D01*
X101254424Y-71681189D01*
X101287680Y-71699186D01*
X101338071Y-71749200D01*
X101353423Y-71818516D01*
X101328862Y-71885129D01*
X101287680Y-71920813D01*
X101254426Y-71938810D01*
X101254424Y-71938811D01*
X101076762Y-72077091D01*
X100924279Y-72242729D01*
X100924275Y-72242734D01*
X100801141Y-72431206D01*
X100710703Y-72637386D01*
X100710702Y-72637387D01*
X100655437Y-72855624D01*
X100655436Y-72855630D01*
X100655436Y-72855632D01*
X100636844Y-73080000D01*
X100645835Y-73188509D01*
X100655437Y-73304375D01*
X100710702Y-73522612D01*
X100710703Y-73522613D01*
X100801141Y-73728793D01*
X100924275Y-73917265D01*
X100924279Y-73917270D01*
X101076762Y-74082908D01*
X101131331Y-74125381D01*
X101254424Y-74221189D01*
X101287680Y-74239186D01*
X101338071Y-74289200D01*
X101353423Y-74358516D01*
X101328862Y-74425129D01*
X101287680Y-74460813D01*
X101254426Y-74478810D01*
X101254424Y-74478811D01*
X101076762Y-74617091D01*
X100924279Y-74782729D01*
X100924275Y-74782734D01*
X100801141Y-74971206D01*
X100710703Y-75177386D01*
X100710702Y-75177387D01*
X100655437Y-75395624D01*
X100636844Y-75620000D01*
X100655437Y-75844375D01*
X100710702Y-76062612D01*
X100710703Y-76062613D01*
X100710704Y-76062616D01*
X100773096Y-76204856D01*
X100801141Y-76268793D01*
X100924275Y-76457265D01*
X100924279Y-76457270D01*
X101076762Y-76622908D01*
X101120986Y-76657329D01*
X101254424Y-76761189D01*
X101288205Y-76779470D01*
X101338596Y-76829482D01*
X101353949Y-76898799D01*
X101329389Y-76965412D01*
X101288209Y-77001096D01*
X101254704Y-77019228D01*
X101254698Y-77019232D01*
X101077097Y-77157465D01*
X100924674Y-77323041D01*
X100801580Y-77511451D01*
X100711179Y-77717543D01*
X100711176Y-77717550D01*
X100663455Y-77905999D01*
X100663456Y-77906000D01*
X101569297Y-77906000D01*
X101534075Y-77967007D01*
X101500000Y-78094174D01*
X101500000Y-78225826D01*
X101534075Y-78352993D01*
X101569297Y-78414000D01*
X100663455Y-78414000D01*
X100711176Y-78602449D01*
X100711179Y-78602456D01*
X100801580Y-78808548D01*
X100924674Y-78996958D01*
X101077097Y-79162534D01*
X101254698Y-79300767D01*
X101254704Y-79300771D01*
X101288207Y-79318902D01*
X101338597Y-79368915D01*
X101353949Y-79438232D01*
X101329388Y-79504845D01*
X101288207Y-79540528D01*
X101254430Y-79558807D01*
X101254424Y-79558811D01*
X101076762Y-79697091D01*
X100924279Y-79862729D01*
X100924275Y-79862734D01*
X100801141Y-80051206D01*
X100710703Y-80257386D01*
X100710702Y-80257387D01*
X100655437Y-80475624D01*
X100655436Y-80475630D01*
X100655436Y-80475632D01*
X100636844Y-80700000D01*
X100651684Y-80879093D01*
X100655437Y-80924375D01*
X100710702Y-81142612D01*
X100710703Y-81142613D01*
X100710704Y-81142616D01*
X100770089Y-81278001D01*
X100801141Y-81348793D01*
X100924275Y-81537265D01*
X100924279Y-81537270D01*
X101052539Y-81676596D01*
X101058499Y-81683070D01*
X101076762Y-81702908D01*
X101131331Y-81745381D01*
X101254424Y-81841189D01*
X101287680Y-81859186D01*
X101338071Y-81909200D01*
X101353423Y-81978516D01*
X101328862Y-82045129D01*
X101287680Y-82080813D01*
X101254426Y-82098810D01*
X101254424Y-82098811D01*
X101076762Y-82237091D01*
X100924279Y-82402729D01*
X100924275Y-82402734D01*
X100801141Y-82591206D01*
X100710703Y-82797386D01*
X100710702Y-82797387D01*
X100655437Y-83015624D01*
X100636844Y-83240000D01*
X100655437Y-83464375D01*
X100710702Y-83682612D01*
X100710703Y-83682613D01*
X100801141Y-83888793D01*
X100924275Y-84077265D01*
X100924279Y-84077270D01*
X100972412Y-84129555D01*
X101058499Y-84223070D01*
X101076762Y-84242908D01*
X101131331Y-84285381D01*
X101254424Y-84381189D01*
X101287680Y-84399186D01*
X101338071Y-84449200D01*
X101353423Y-84518516D01*
X101328862Y-84585129D01*
X101287680Y-84620813D01*
X101254426Y-84638810D01*
X101254424Y-84638811D01*
X101076762Y-84777091D01*
X100924279Y-84942729D01*
X100924275Y-84942734D01*
X100801141Y-85131206D01*
X100710703Y-85337386D01*
X100710702Y-85337387D01*
X100655437Y-85555624D01*
X100655436Y-85555630D01*
X100655436Y-85555632D01*
X100636844Y-85780000D01*
X100652637Y-85970593D01*
X100655437Y-86004375D01*
X100710702Y-86222612D01*
X100710703Y-86222613D01*
X100801141Y-86428793D01*
X100924275Y-86617265D01*
X100924279Y-86617270D01*
X100961075Y-86657240D01*
X101058499Y-86763070D01*
X101076762Y-86782908D01*
X101131331Y-86825381D01*
X101254424Y-86921189D01*
X101287680Y-86939186D01*
X101338071Y-86989200D01*
X101353423Y-87058516D01*
X101328862Y-87125129D01*
X101287680Y-87160813D01*
X101254426Y-87178810D01*
X101254424Y-87178811D01*
X101076762Y-87317091D01*
X100924279Y-87482729D01*
X100924275Y-87482734D01*
X100801141Y-87671206D01*
X100710703Y-87877386D01*
X100710702Y-87877387D01*
X100655437Y-88095624D01*
X100636844Y-88320000D01*
X100655437Y-88544375D01*
X100710702Y-88762612D01*
X100710703Y-88762613D01*
X100801141Y-88968793D01*
X100924275Y-89157265D01*
X100924279Y-89157270D01*
X100996492Y-89235713D01*
X101058499Y-89303070D01*
X101076762Y-89322908D01*
X101131331Y-89365381D01*
X101254424Y-89461189D01*
X101391889Y-89535581D01*
X101442280Y-89585594D01*
X101457632Y-89654911D01*
X101433071Y-89721524D01*
X101421015Y-89735490D01*
X100265595Y-90890911D01*
X100203283Y-90924936D01*
X100132468Y-90919872D01*
X100075632Y-90877325D01*
X100050821Y-90810805D01*
X100050500Y-90801816D01*
X100050500Y-44176500D01*
X100070502Y-44108379D01*
X100124158Y-44061886D01*
X100176500Y-44050500D01*
X139823500Y-44050500D01*
X139891621Y-44070502D01*
G37*
G04 #@! TD.AperFunction*
G04 #@! TA.AperFunction,Conductor*
G36*
X106182460Y-139968502D02*
G01*
X106203434Y-139985405D01*
X106456442Y-140238413D01*
X106490468Y-140300725D01*
X106493045Y-140336229D01*
X106491500Y-140358487D01*
X106491500Y-141801503D01*
X106497694Y-141890740D01*
X106497694Y-141890743D01*
X106546850Y-142099740D01*
X106633572Y-142296145D01*
X106754908Y-142473275D01*
X106754911Y-142473279D01*
X106858037Y-142576405D01*
X106892063Y-142638717D01*
X106886998Y-142709532D01*
X106844451Y-142766368D01*
X106777931Y-142791179D01*
X106768942Y-142791500D01*
X103194120Y-142791500D01*
X103125999Y-142771498D01*
X103079506Y-142717842D01*
X103069402Y-142647568D01*
X103088637Y-142596585D01*
X103198418Y-142428551D01*
X103288820Y-142222456D01*
X103288823Y-142222449D01*
X103336544Y-142034000D01*
X102430703Y-142034000D01*
X102465925Y-141972993D01*
X102500000Y-141845826D01*
X102500000Y-141714174D01*
X102465925Y-141587007D01*
X102430703Y-141526000D01*
X103336544Y-141526000D01*
X103336544Y-141525999D01*
X103288823Y-141337550D01*
X103288820Y-141337543D01*
X103198419Y-141131451D01*
X103075325Y-140943041D01*
X102922902Y-140777465D01*
X102745301Y-140639232D01*
X102745300Y-140639231D01*
X102711791Y-140621097D01*
X102661401Y-140571083D01*
X102646050Y-140501766D01*
X102670612Y-140435153D01*
X102711790Y-140399472D01*
X102745576Y-140381189D01*
X102923240Y-140242906D01*
X103075722Y-140077268D01*
X103086833Y-140060261D01*
X103122555Y-140005585D01*
X103176558Y-139959496D01*
X103228038Y-139948500D01*
X106114339Y-139948500D01*
X106182460Y-139968502D01*
G37*
G04 #@! TD.AperFunction*
G04 #@! TA.AperFunction,Conductor*
G36*
X129350672Y-126446002D02*
G01*
X129371641Y-126462901D01*
X132826006Y-129917265D01*
X136642988Y-133734247D01*
X136677014Y-133796559D01*
X136676038Y-133854272D01*
X136655436Y-133935628D01*
X136636844Y-134160000D01*
X136655437Y-134384375D01*
X136710702Y-134602612D01*
X136710703Y-134602613D01*
X136801141Y-134808793D01*
X136924275Y-134997265D01*
X136924279Y-134997270D01*
X137076762Y-135162908D01*
X137131331Y-135205381D01*
X137254424Y-135301189D01*
X137287680Y-135319186D01*
X137338071Y-135369200D01*
X137353423Y-135438516D01*
X137328862Y-135505129D01*
X137287680Y-135540813D01*
X137254426Y-135558810D01*
X137254424Y-135558811D01*
X137076762Y-135697091D01*
X136924279Y-135862729D01*
X136924275Y-135862735D01*
X136844778Y-135984415D01*
X136790774Y-136030504D01*
X136739295Y-136041500D01*
X135484950Y-136041500D01*
X135416829Y-136021498D01*
X135395855Y-136004595D01*
X127251725Y-127860465D01*
X127217699Y-127798153D01*
X127222764Y-127727338D01*
X127246000Y-127691182D01*
X127246000Y-127688000D01*
X127754000Y-127688000D01*
X128798585Y-127688000D01*
X128798597Y-127687999D01*
X128859093Y-127681494D01*
X128995964Y-127630444D01*
X128995965Y-127630444D01*
X129112904Y-127542904D01*
X129200444Y-127425965D01*
X129200444Y-127425964D01*
X129251494Y-127289093D01*
X129257999Y-127228597D01*
X129258000Y-127228585D01*
X129258000Y-126934000D01*
X127754000Y-126934000D01*
X127754000Y-127688000D01*
X127246000Y-127688000D01*
X127246000Y-126930000D01*
X128049728Y-126930000D01*
X128141614Y-126891940D01*
X128211940Y-126821614D01*
X128250000Y-126729728D01*
X128250000Y-126630272D01*
X128211940Y-126538386D01*
X128141614Y-126468060D01*
X128049728Y-126430000D01*
X127353612Y-126430000D01*
X127372000Y-126426000D01*
X129282551Y-126426000D01*
X129350672Y-126446002D01*
G37*
G04 #@! TD.AperFunction*
G04 #@! TA.AperFunction,Conductor*
G36*
X107559532Y-94746604D02*
G01*
X107616368Y-94789151D01*
X107641179Y-94855671D01*
X107641500Y-94864660D01*
X107641500Y-122384338D01*
X107621498Y-122452459D01*
X107604595Y-122473433D01*
X103568753Y-126509274D01*
X103506441Y-126543300D01*
X103435625Y-126538235D01*
X103378790Y-126495688D01*
X103354089Y-126430587D01*
X103344564Y-126315632D01*
X103338250Y-126290699D01*
X103340916Y-126219753D01*
X103371297Y-126170672D01*
X104200328Y-125341643D01*
X104277865Y-125225601D01*
X104299986Y-125172192D01*
X104331273Y-125096662D01*
X104358500Y-124959781D01*
X104358500Y-122997532D01*
X104378502Y-122929411D01*
X104432158Y-122882918D01*
X104497971Y-122872254D01*
X104551404Y-122877999D01*
X104551415Y-122878000D01*
X105246000Y-122878000D01*
X105246000Y-121842968D01*
X105326306Y-121889333D01*
X105440756Y-121920000D01*
X105559244Y-121920000D01*
X105673694Y-121889333D01*
X105754000Y-121842968D01*
X105754000Y-122878000D01*
X106448585Y-122878000D01*
X106448597Y-122877999D01*
X106509093Y-122871494D01*
X106645964Y-122820444D01*
X106645965Y-122820444D01*
X106762904Y-122732904D01*
X106850444Y-122615965D01*
X106850444Y-122615964D01*
X106901494Y-122479093D01*
X106907999Y-122418597D01*
X106908000Y-122418585D01*
X106908000Y-121724000D01*
X105872968Y-121724000D01*
X105919333Y-121643694D01*
X105950000Y-121529244D01*
X105950000Y-121410756D01*
X105919333Y-121296306D01*
X105872968Y-121216000D01*
X106908000Y-121216000D01*
X106908000Y-120521414D01*
X106907999Y-120521402D01*
X106901494Y-120460906D01*
X106850444Y-120324035D01*
X106850444Y-120324034D01*
X106762904Y-120207095D01*
X106645965Y-120119555D01*
X106645960Y-120119553D01*
X106578459Y-120094376D01*
X106521623Y-120051829D01*
X106496813Y-119985309D01*
X106511905Y-119915935D01*
X106529784Y-119890991D01*
X106615314Y-119798083D01*
X106742984Y-119602669D01*
X106836749Y-119388907D01*
X106894051Y-119162626D01*
X106913327Y-118930000D01*
X106894051Y-118697374D01*
X106836749Y-118471093D01*
X106742984Y-118257331D01*
X106641500Y-118101997D01*
X106615314Y-118061916D01*
X106457225Y-117890186D01*
X106457221Y-117890182D01*
X106310359Y-117775875D01*
X106273017Y-117746810D01*
X106067727Y-117635713D01*
X106067724Y-117635712D01*
X106067723Y-117635711D01*
X105846955Y-117559921D01*
X105846948Y-117559919D01*
X105748411Y-117543476D01*
X105616712Y-117521500D01*
X105383288Y-117521500D01*
X105268066Y-117540727D01*
X105153051Y-117559919D01*
X105153044Y-117559921D01*
X104932276Y-117635711D01*
X104932273Y-117635713D01*
X104726985Y-117746809D01*
X104726983Y-117746810D01*
X104561891Y-117875307D01*
X104495849Y-117901363D01*
X104426203Y-117887578D01*
X104375067Y-117838328D01*
X104358500Y-117775875D01*
X104358500Y-109797532D01*
X104378502Y-109729411D01*
X104432158Y-109682918D01*
X104497971Y-109672254D01*
X104551404Y-109677999D01*
X104551415Y-109678000D01*
X105246000Y-109678000D01*
X105246000Y-108642968D01*
X105326306Y-108689333D01*
X105440756Y-108720000D01*
X105559244Y-108720000D01*
X105673694Y-108689333D01*
X105754000Y-108642968D01*
X105754000Y-109678000D01*
X106448585Y-109678000D01*
X106448597Y-109677999D01*
X106509093Y-109671494D01*
X106645964Y-109620444D01*
X106645965Y-109620444D01*
X106762904Y-109532904D01*
X106850444Y-109415965D01*
X106850444Y-109415964D01*
X106901494Y-109279093D01*
X106907999Y-109218597D01*
X106908000Y-109218585D01*
X106908000Y-108524000D01*
X105872968Y-108524000D01*
X105919333Y-108443694D01*
X105950000Y-108329244D01*
X105950000Y-108210756D01*
X105919333Y-108096306D01*
X105872968Y-108016000D01*
X106908000Y-108016000D01*
X106908000Y-107321414D01*
X106907999Y-107321402D01*
X106901494Y-107260906D01*
X106850444Y-107124035D01*
X106850444Y-107124034D01*
X106762904Y-107007095D01*
X106645965Y-106919555D01*
X106645960Y-106919553D01*
X106578459Y-106894376D01*
X106521623Y-106851829D01*
X106496813Y-106785309D01*
X106511905Y-106715935D01*
X106529784Y-106690991D01*
X106615314Y-106598083D01*
X106742984Y-106402669D01*
X106836749Y-106188907D01*
X106894051Y-105962626D01*
X106913327Y-105730000D01*
X106894051Y-105497374D01*
X106836749Y-105271093D01*
X106742984Y-105057331D01*
X106641500Y-104901997D01*
X106615314Y-104861916D01*
X106457225Y-104690186D01*
X106457221Y-104690182D01*
X106310359Y-104575875D01*
X106273017Y-104546810D01*
X106067727Y-104435713D01*
X106067724Y-104435712D01*
X106067723Y-104435711D01*
X105846955Y-104359921D01*
X105846948Y-104359919D01*
X105748411Y-104343476D01*
X105616712Y-104321500D01*
X105383288Y-104321500D01*
X105268066Y-104340727D01*
X105153051Y-104359919D01*
X105153044Y-104359921D01*
X104932276Y-104435711D01*
X104932273Y-104435713D01*
X104726985Y-104546809D01*
X104726983Y-104546810D01*
X104561891Y-104675307D01*
X104495849Y-104701363D01*
X104426203Y-104687578D01*
X104375067Y-104638328D01*
X104358500Y-104575875D01*
X104358500Y-97895660D01*
X104378502Y-97827539D01*
X104395405Y-97806565D01*
X107426405Y-94775565D01*
X107488717Y-94741539D01*
X107559532Y-94746604D01*
G37*
G04 #@! TD.AperFunction*
G04 #@! TA.AperFunction,Conductor*
G36*
X105754000Y-81278000D02*
G01*
X106415500Y-81278000D01*
X106483621Y-81298002D01*
X106530114Y-81351658D01*
X106541500Y-81404000D01*
X106541500Y-89298041D01*
X106521498Y-89366162D01*
X106467842Y-89412655D01*
X106397568Y-89422759D01*
X106338110Y-89397473D01*
X106273023Y-89346814D01*
X106273019Y-89346812D01*
X106273017Y-89346810D01*
X106067727Y-89235713D01*
X106067724Y-89235712D01*
X106067723Y-89235711D01*
X105846955Y-89159921D01*
X105846948Y-89159919D01*
X105748411Y-89143476D01*
X105616712Y-89121500D01*
X105383288Y-89121500D01*
X105268066Y-89140727D01*
X105153051Y-89159919D01*
X105153044Y-89159921D01*
X104932276Y-89235711D01*
X104932273Y-89235713D01*
X104726985Y-89346809D01*
X104726983Y-89346810D01*
X104542778Y-89490182D01*
X104542774Y-89490186D01*
X104384685Y-89661916D01*
X104257015Y-89857331D01*
X104163252Y-90071089D01*
X104163249Y-90071096D01*
X104105950Y-90297366D01*
X104105949Y-90297372D01*
X104105949Y-90297374D01*
X104094683Y-90433338D01*
X104086673Y-90530000D01*
X104105950Y-90762633D01*
X104163249Y-90988903D01*
X104163252Y-90988910D01*
X104257015Y-91202668D01*
X104358499Y-91358002D01*
X104384686Y-91398083D01*
X104470209Y-91490985D01*
X104501629Y-91554648D01*
X104493642Y-91625194D01*
X104448784Y-91680223D01*
X104421541Y-91694376D01*
X104354037Y-91719554D01*
X104354034Y-91719555D01*
X104237095Y-91807095D01*
X104149555Y-91924034D01*
X104149555Y-91924035D01*
X104098505Y-92060906D01*
X104092000Y-92121402D01*
X104092000Y-92816000D01*
X105127032Y-92816000D01*
X105080667Y-92896306D01*
X105050000Y-93010756D01*
X105050000Y-93129244D01*
X105080667Y-93243694D01*
X105127032Y-93324000D01*
X104092000Y-93324000D01*
X104092000Y-94018597D01*
X104098505Y-94079093D01*
X104149555Y-94215964D01*
X104149555Y-94215965D01*
X104237095Y-94332904D01*
X104354034Y-94420444D01*
X104490906Y-94471494D01*
X104551402Y-94477999D01*
X104551415Y-94478000D01*
X105246000Y-94478000D01*
X105246000Y-93442968D01*
X105326306Y-93489333D01*
X105440756Y-93520000D01*
X105559244Y-93520000D01*
X105673694Y-93489333D01*
X105754000Y-93442968D01*
X105754000Y-94391838D01*
X105733998Y-94459959D01*
X105717095Y-94480933D01*
X103099676Y-97098351D01*
X103099671Y-97098357D01*
X103022134Y-97214400D01*
X103022133Y-97214401D01*
X102984369Y-97305573D01*
X102968726Y-97343339D01*
X102968725Y-97343342D01*
X102941500Y-97480213D01*
X102941500Y-122515500D01*
X102921498Y-122583621D01*
X102867842Y-122630114D01*
X102815500Y-122641500D01*
X101534500Y-122641500D01*
X101466379Y-122621498D01*
X101419886Y-122567842D01*
X101408500Y-122515500D01*
X101408500Y-91804139D01*
X101428502Y-91736018D01*
X101445405Y-91715044D01*
X104200323Y-88960126D01*
X104200328Y-88960121D01*
X104277865Y-88844079D01*
X104331273Y-88715139D01*
X104358500Y-88578260D01*
X104358500Y-88438696D01*
X104358500Y-81397532D01*
X104378502Y-81329411D01*
X104432158Y-81282918D01*
X104497971Y-81272254D01*
X104551404Y-81277999D01*
X104551415Y-81278000D01*
X105246000Y-81278000D01*
X105246000Y-80242968D01*
X105326306Y-80289333D01*
X105440756Y-80320000D01*
X105559244Y-80320000D01*
X105673694Y-80289333D01*
X105754000Y-80242968D01*
X105754000Y-81278000D01*
G37*
G04 #@! TD.AperFunction*
G04 #@! TA.AperFunction,Conductor*
G36*
X103562125Y-70416205D02*
G01*
X103576846Y-70428817D01*
X104931909Y-71783879D01*
X106504595Y-73356565D01*
X106538621Y-73418877D01*
X106541500Y-73445660D01*
X106541500Y-76098041D01*
X106521498Y-76166162D01*
X106467842Y-76212655D01*
X106397568Y-76222759D01*
X106338110Y-76197473D01*
X106273023Y-76146814D01*
X106273019Y-76146812D01*
X106273017Y-76146810D01*
X106067727Y-76035713D01*
X106067724Y-76035712D01*
X106067723Y-76035711D01*
X105846955Y-75959921D01*
X105846948Y-75959919D01*
X105748411Y-75943476D01*
X105616712Y-75921500D01*
X105383288Y-75921500D01*
X105268066Y-75940727D01*
X105153051Y-75959919D01*
X105153044Y-75959921D01*
X104932276Y-76035711D01*
X104932273Y-76035713D01*
X104726985Y-76146809D01*
X104726983Y-76146810D01*
X104542778Y-76290182D01*
X104542774Y-76290186D01*
X104384685Y-76461916D01*
X104271655Y-76634924D01*
X104257016Y-76657331D01*
X104245513Y-76683555D01*
X104163252Y-76871089D01*
X104163249Y-76871096D01*
X104105950Y-77097366D01*
X104105949Y-77097372D01*
X104105949Y-77097374D01*
X104090476Y-77284098D01*
X104086673Y-77329999D01*
X104105949Y-77562629D01*
X104105950Y-77562633D01*
X104120593Y-77620459D01*
X104117924Y-77691405D01*
X104087543Y-77740483D01*
X103450931Y-78377095D01*
X103388619Y-78411121D01*
X103361836Y-78414000D01*
X102430703Y-78414000D01*
X102465925Y-78352993D01*
X102500000Y-78225826D01*
X102500000Y-78094174D01*
X102465925Y-77967007D01*
X102430703Y-77906000D01*
X103336544Y-77906000D01*
X103336544Y-77905999D01*
X103288823Y-77717550D01*
X103288820Y-77717543D01*
X103198419Y-77511451D01*
X103075325Y-77323041D01*
X102922902Y-77157465D01*
X102745301Y-77019232D01*
X102745300Y-77019231D01*
X102711791Y-77001097D01*
X102661401Y-76951083D01*
X102646050Y-76881766D01*
X102670612Y-76815153D01*
X102711790Y-76779472D01*
X102745576Y-76761189D01*
X102923240Y-76622906D01*
X103075722Y-76457268D01*
X103198860Y-76268791D01*
X103289296Y-76062616D01*
X103344564Y-75844368D01*
X103363156Y-75620000D01*
X103344564Y-75395632D01*
X103289296Y-75177384D01*
X103198860Y-74971209D01*
X103192140Y-74960924D01*
X103075724Y-74782734D01*
X103075720Y-74782729D01*
X102959570Y-74656559D01*
X102923240Y-74617094D01*
X102923239Y-74617093D01*
X102923237Y-74617091D01*
X102828380Y-74543261D01*
X102745576Y-74478811D01*
X102712319Y-74460813D01*
X102661929Y-74410802D01*
X102646576Y-74341485D01*
X102671136Y-74274872D01*
X102712320Y-74239186D01*
X102745576Y-74221189D01*
X102923240Y-74082906D01*
X103075722Y-73917268D01*
X103198860Y-73728791D01*
X103289296Y-73522616D01*
X103344564Y-73304368D01*
X103363156Y-73080000D01*
X103344564Y-72855632D01*
X103318846Y-72754073D01*
X103289297Y-72637387D01*
X103289296Y-72637386D01*
X103289296Y-72637384D01*
X103198860Y-72431209D01*
X103119708Y-72310057D01*
X103075724Y-72242734D01*
X103075720Y-72242729D01*
X102923237Y-72077091D01*
X102841382Y-72013381D01*
X102745576Y-71938811D01*
X102712319Y-71920813D01*
X102661929Y-71870802D01*
X102646576Y-71801485D01*
X102671136Y-71734872D01*
X102712320Y-71699186D01*
X102745576Y-71681189D01*
X102923240Y-71542906D01*
X103075722Y-71377268D01*
X103079879Y-71370906D01*
X103082441Y-71366983D01*
X103198860Y-71188791D01*
X103289296Y-70982616D01*
X103344564Y-70764368D01*
X103363156Y-70540000D01*
X103362188Y-70528321D01*
X103376497Y-70458783D01*
X103426130Y-70408018D01*
X103495329Y-70392146D01*
X103562125Y-70416205D01*
G37*
G04 #@! TD.AperFunction*
G04 #@! TA.AperFunction,Conductor*
G36*
X107116512Y-66848936D02*
G01*
X107123095Y-66855065D01*
X107604595Y-67336565D01*
X107638621Y-67398877D01*
X107641500Y-67425660D01*
X107641500Y-72185339D01*
X107621498Y-72253460D01*
X107567842Y-72299953D01*
X107497568Y-72310057D01*
X107432988Y-72280563D01*
X107426405Y-72274434D01*
X104345405Y-69193434D01*
X104311379Y-69131122D01*
X104308500Y-69104339D01*
X104308500Y-68284935D01*
X104328502Y-68216814D01*
X104382158Y-68170321D01*
X104452432Y-68160217D01*
X104478534Y-68166880D01*
X104490905Y-68171494D01*
X104551402Y-68177999D01*
X104551415Y-68178000D01*
X105246000Y-68178000D01*
X105246000Y-67142968D01*
X105326306Y-67189333D01*
X105440756Y-67220000D01*
X105559244Y-67220000D01*
X105673694Y-67189333D01*
X105754000Y-67142968D01*
X105754000Y-68178000D01*
X106448585Y-68178000D01*
X106448597Y-68177999D01*
X106509093Y-68171494D01*
X106645964Y-68120444D01*
X106645965Y-68120444D01*
X106762904Y-68032904D01*
X106850444Y-67915965D01*
X106850444Y-67915964D01*
X106901494Y-67779093D01*
X106907999Y-67718597D01*
X106908000Y-67718585D01*
X106908000Y-66944160D01*
X106928002Y-66876039D01*
X106981658Y-66829546D01*
X107051932Y-66819442D01*
X107116512Y-66848936D01*
G37*
G04 #@! TD.AperFunction*
M02*
