G04 #@! TF.GenerationSoftware,KiCad,Pcbnew,8.0.4*
G04 #@! TF.CreationDate,2024-08-08T14:54:58+01:00*
G04 #@! TF.ProjectId,MidiMonger_controls,4d696469-4d6f-46e6-9765-725f636f6e74,rev?*
G04 #@! TF.SameCoordinates,Original*
G04 #@! TF.FileFunction,Copper,L1,Top*
G04 #@! TF.FilePolarity,Positive*
%FSLAX46Y46*%
G04 Gerber Fmt 4.6, Leading zero omitted, Abs format (unit mm)*
G04 Created by KiCad (PCBNEW 8.0.4) date 2024-08-08 14:54:58*
%MOMM*%
%LPD*%
G01*
G04 APERTURE LIST*
G04 Aperture macros list*
%AMRoundRect*
0 Rectangle with rounded corners*
0 $1 Rounding radius*
0 $2 $3 $4 $5 $6 $7 $8 $9 X,Y pos of 4 corners*
0 Add a 4 corners polygon primitive as box body*
4,1,4,$2,$3,$4,$5,$6,$7,$8,$9,$2,$3,0*
0 Add four circle primitives for the rounded corners*
1,1,$1+$1,$2,$3*
1,1,$1+$1,$4,$5*
1,1,$1+$1,$6,$7*
1,1,$1+$1,$8,$9*
0 Add four rect primitives between the rounded corners*
20,1,$1+$1,$2,$3,$4,$5,0*
20,1,$1+$1,$4,$5,$6,$7,0*
20,1,$1+$1,$6,$7,$8,$9,0*
20,1,$1+$1,$8,$9,$2,$3,0*%
G04 Aperture macros list end*
G04 #@! TA.AperFunction,ComponentPad*
%ADD10R,1.700000X1.700000*%
G04 #@! TD*
G04 #@! TA.AperFunction,ComponentPad*
%ADD11O,1.700000X1.700000*%
G04 #@! TD*
G04 #@! TA.AperFunction,ComponentPad*
%ADD12R,1.800000X1.800000*%
G04 #@! TD*
G04 #@! TA.AperFunction,ComponentPad*
%ADD13C,1.800000*%
G04 #@! TD*
G04 #@! TA.AperFunction,ComponentPad*
%ADD14R,2.500000X1.000000*%
G04 #@! TD*
G04 #@! TA.AperFunction,ComponentPad*
%ADD15C,2.000000*%
G04 #@! TD*
G04 #@! TA.AperFunction,SMDPad,CuDef*
%ADD16R,1.400000X0.270000*%
G04 #@! TD*
G04 #@! TA.AperFunction,ComponentPad*
%ADD17O,1.000000X1.500000*%
G04 #@! TD*
G04 #@! TA.AperFunction,ComponentPad*
%ADD18R,2.775000X2.775000*%
G04 #@! TD*
G04 #@! TA.AperFunction,ComponentPad*
%ADD19C,2.775000*%
G04 #@! TD*
G04 #@! TA.AperFunction,ComponentPad*
%ADD20RoundRect,0.650000X-0.650000X-0.650000X0.650000X-0.650000X0.650000X0.650000X-0.650000X0.650000X0*%
G04 #@! TD*
G04 #@! TA.AperFunction,ComponentPad*
%ADD21O,3.100000X2.100000*%
G04 #@! TD*
G04 #@! TA.AperFunction,ViaPad*
%ADD22C,0.800000*%
G04 #@! TD*
G04 #@! TA.AperFunction,Conductor*
%ADD23C,0.400000*%
G04 #@! TD*
G04 #@! TA.AperFunction,Conductor*
%ADD24C,0.250000*%
G04 #@! TD*
G04 #@! TA.AperFunction,Conductor*
%ADD25C,0.300000*%
G04 #@! TD*
G04 APERTURE END LIST*
D10*
X138000000Y-124000000D03*
D11*
X138000000Y-126540000D03*
X138000000Y-129080000D03*
X138000000Y-131620000D03*
X138000000Y-134160000D03*
X138000000Y-136700000D03*
X138000000Y-139240000D03*
X138000000Y-141780000D03*
X138000000Y-144320000D03*
X138000000Y-146860000D03*
D10*
X102000000Y-124000000D03*
D11*
X102000000Y-126540000D03*
X102000000Y-129080000D03*
X102000000Y-131620000D03*
X102000000Y-134160000D03*
X102000000Y-136700000D03*
X102000000Y-139240000D03*
X102000000Y-141780000D03*
X102000000Y-144320000D03*
X102000000Y-146860000D03*
D10*
X138000000Y-68000000D03*
D11*
X138000000Y-70540000D03*
X138000000Y-73080000D03*
X138000000Y-75620000D03*
X138000000Y-78160000D03*
X138000000Y-80700000D03*
X138000000Y-83240000D03*
X138000000Y-85780000D03*
X138000000Y-88320000D03*
D10*
X102000000Y-68000000D03*
D11*
X102000000Y-70540000D03*
X102000000Y-73080000D03*
X102000000Y-75620000D03*
X102000000Y-78160000D03*
X102000000Y-80700000D03*
X102000000Y-83240000D03*
X102000000Y-85780000D03*
X102000000Y-88320000D03*
D12*
X134500000Y-53670000D03*
D13*
X134500000Y-51130000D03*
D12*
X134500000Y-66770000D03*
D13*
X134500000Y-64230000D03*
D12*
X134500000Y-93070000D03*
D13*
X134500000Y-90530000D03*
D12*
X105500000Y-66770000D03*
D13*
X105500000Y-64230000D03*
D12*
X105500000Y-79870000D03*
D13*
X105500000Y-77330000D03*
D12*
X105500000Y-93070000D03*
D13*
X105500000Y-90530000D03*
D12*
X134500000Y-108270000D03*
D13*
X134500000Y-105730000D03*
D12*
X105500000Y-121470000D03*
D13*
X105500000Y-118930000D03*
D14*
X127500000Y-85080000D03*
X127500000Y-81980000D03*
X127500000Y-73680000D03*
X127500000Y-98280000D03*
X127500000Y-95180000D03*
X127500000Y-86880000D03*
X127500000Y-58880000D03*
X127500000Y-55780000D03*
X127500000Y-47480000D03*
X127500000Y-71980000D03*
X127500000Y-68880000D03*
X127500000Y-60580000D03*
X127500000Y-113480000D03*
X127500000Y-110380000D03*
X127500000Y-102080000D03*
X112500000Y-71980000D03*
X112500000Y-68880000D03*
X112500000Y-60580000D03*
X127500000Y-126680000D03*
X127500000Y-123580000D03*
X127500000Y-115280000D03*
D12*
X134500000Y-121470000D03*
D13*
X134500000Y-118930000D03*
D14*
X112500000Y-98280000D03*
X112500000Y-95180000D03*
X112500000Y-86880000D03*
D12*
X134500000Y-79870000D03*
D13*
X134500000Y-77330000D03*
D14*
X112500000Y-85080000D03*
X112500000Y-81980000D03*
X112500000Y-73680000D03*
X112500000Y-126680000D03*
X112500000Y-123580000D03*
X112500000Y-115280000D03*
D12*
X105500000Y-108270000D03*
D13*
X105500000Y-105730000D03*
D12*
X105500000Y-53670000D03*
D13*
X105500000Y-51130000D03*
D14*
X112500000Y-58880000D03*
X112500000Y-55780000D03*
X112500000Y-47480000D03*
X112500000Y-113480000D03*
X112500000Y-110380000D03*
X112500000Y-102080000D03*
D15*
X116750000Y-132550000D03*
X123250000Y-132550000D03*
X116750000Y-137050000D03*
X123250000Y-137050000D03*
D16*
X122300000Y-143250000D03*
X122300000Y-143750000D03*
X122300000Y-144250000D03*
X122300000Y-144750000D03*
X122300000Y-145250000D03*
X122300000Y-145750000D03*
X122300000Y-146250000D03*
X122300000Y-146750000D03*
X122300000Y-147250000D03*
X122300000Y-147750000D03*
X122300000Y-148250000D03*
X122300000Y-148750000D03*
X117700000Y-148750000D03*
X117700000Y-148250000D03*
X117700000Y-147750000D03*
X117700000Y-147250000D03*
X117700000Y-146750000D03*
X117700000Y-146250000D03*
X117700000Y-145750000D03*
X117700000Y-145250000D03*
X117700000Y-144750000D03*
X117700000Y-144250000D03*
X117700000Y-143750000D03*
X117700000Y-143250000D03*
D17*
X123070000Y-141900000D03*
X116930000Y-141900000D03*
X123070000Y-150100000D03*
X116930000Y-150100000D03*
D18*
X129085000Y-150700000D03*
D19*
X129085000Y-146000000D03*
X129085000Y-141300000D03*
X133915000Y-150700000D03*
X133915000Y-146000000D03*
X133915000Y-141300000D03*
D20*
X108300000Y-149380000D03*
D21*
X108300000Y-152480000D03*
D20*
X108300000Y-141080000D03*
D22*
X119501366Y-146475000D03*
X120900000Y-145600000D03*
D23*
X138000000Y-68000000D02*
X138000000Y-52800000D01*
X136430000Y-51230000D02*
X134500000Y-51230000D01*
X138000000Y-52800000D02*
X136430000Y-51230000D01*
X133230000Y-62960000D02*
X134500000Y-64230000D01*
X102000000Y-70540000D02*
X103040000Y-69500000D01*
X111940000Y-62960000D02*
X133230000Y-62960000D01*
X105400000Y-69500000D02*
X111940000Y-62960000D01*
X103040000Y-69500000D02*
X105400000Y-69500000D01*
X138000000Y-73080000D02*
X134500000Y-76580000D01*
X134500000Y-76580000D02*
X134500000Y-77230000D01*
X102820000Y-74800000D02*
X126204163Y-74800000D01*
X134500000Y-83095837D02*
X134500000Y-90230000D01*
X102000000Y-75620000D02*
X102820000Y-74800000D01*
X126204163Y-74800000D02*
X134500000Y-83095837D01*
D24*
X101492588Y-87095000D02*
X102507412Y-87095000D01*
X100775000Y-87812588D02*
X101492588Y-87095000D01*
X105500000Y-90087588D02*
X105500000Y-90530000D01*
X100775000Y-132935000D02*
X100775000Y-87812588D01*
X102000000Y-134160000D02*
X100775000Y-132935000D01*
X102507412Y-87095000D02*
X105500000Y-90087588D01*
D23*
X136350000Y-88400811D02*
X136300000Y-88350811D01*
X105500000Y-105730000D02*
X105830000Y-105730000D01*
X129900000Y-116300000D02*
X136350000Y-109850000D01*
X105830000Y-105730000D02*
X106900000Y-106800000D01*
X106900000Y-113800000D02*
X109400000Y-116300000D01*
X136300000Y-88350811D02*
X136300000Y-82400000D01*
X109400000Y-116300000D02*
X129900000Y-116300000D01*
X106900000Y-106800000D02*
X106900000Y-113800000D01*
X136300000Y-82400000D02*
X138000000Y-80700000D01*
X136350000Y-109850000D02*
X136350000Y-88400811D01*
X111260000Y-104460000D02*
X133230000Y-104460000D01*
X109400000Y-102600000D02*
X111260000Y-104460000D01*
X102000000Y-83240000D02*
X105040000Y-83240000D01*
X105040000Y-83240000D02*
X109400000Y-87600000D01*
X109400000Y-87600000D02*
X109400000Y-102600000D01*
X133230000Y-104460000D02*
X134500000Y-105730000D01*
X135800000Y-123100000D02*
X138000000Y-120900000D01*
X133600000Y-123100000D02*
X135800000Y-123100000D01*
X105530000Y-118930000D02*
X108900000Y-122300000D01*
X105500000Y-118930000D02*
X105530000Y-118930000D01*
X138000000Y-120900000D02*
X138000000Y-88320000D01*
X108900000Y-122300000D02*
X132800000Y-122300000D01*
X132800000Y-122300000D02*
X133600000Y-123100000D01*
X102000000Y-88320000D02*
X102000000Y-111000000D01*
X133030000Y-117460000D02*
X134500000Y-118930000D01*
X102000000Y-111000000D02*
X108460000Y-117460000D01*
X108460000Y-117460000D02*
X133030000Y-117460000D01*
X108200000Y-113000000D02*
X110480000Y-115280000D01*
X110480000Y-115280000D02*
X112500000Y-115280000D01*
X108200000Y-89000000D02*
X108200000Y-113000000D01*
X102000000Y-85780000D02*
X104980000Y-85780000D01*
X104980000Y-85780000D02*
X108200000Y-89000000D01*
X104180000Y-70900000D02*
X123170000Y-70900000D01*
X125950000Y-73680000D02*
X127500000Y-73680000D01*
X123170000Y-70900000D02*
X125950000Y-73680000D01*
X102000000Y-73080000D02*
X104180000Y-70900000D01*
X105500000Y-46200000D02*
X126220000Y-46200000D01*
X102000000Y-49700000D02*
X105500000Y-46200000D01*
X126220000Y-46200000D02*
X127500000Y-47480000D01*
X102000000Y-68000000D02*
X102000000Y-49700000D01*
X110400000Y-99980000D02*
X112500000Y-102080000D01*
X110400000Y-86100000D02*
X110400000Y-99980000D01*
X102000000Y-80700000D02*
X103200000Y-81900000D01*
X103200000Y-81900000D02*
X106200000Y-81900000D01*
X106200000Y-81900000D02*
X110400000Y-86100000D01*
X138000000Y-70540000D02*
X136700000Y-69240000D01*
X136700000Y-62750811D02*
X134529189Y-60580000D01*
X134529189Y-60580000D02*
X127500000Y-60580000D01*
X136700000Y-69240000D02*
X136700000Y-62750811D01*
D25*
X123200000Y-132500000D02*
X123250000Y-132550000D01*
X116750000Y-132550000D02*
X116800000Y-132500000D01*
X102000000Y-124000000D02*
X110500000Y-132500000D01*
X110500000Y-132500000D02*
X116700000Y-132500000D01*
X116700000Y-132500000D02*
X116750000Y-132550000D01*
X116800000Y-132500000D02*
X123200000Y-132500000D01*
D23*
X102000000Y-136700000D02*
X104600000Y-139300000D01*
X106080000Y-149380000D02*
X108300000Y-149380000D01*
X104600000Y-147900000D02*
X106080000Y-149380000D01*
X104600000Y-139300000D02*
X104600000Y-147900000D01*
D24*
X122300000Y-145750000D02*
X123285000Y-145750000D01*
X120900000Y-145600000D02*
X121050000Y-145750000D01*
X121050000Y-145750000D02*
X122300000Y-145750000D01*
X117700000Y-146250000D02*
X119276366Y-146250000D01*
X123285000Y-145750000D02*
X125300000Y-143735000D01*
X119276366Y-146250000D02*
X119501366Y-146475000D01*
X125300000Y-141780000D02*
X138000000Y-129080000D01*
X125300000Y-143735000D02*
X125300000Y-141780000D01*
X117700000Y-147250000D02*
X122300000Y-147250000D01*
X129085000Y-150100000D02*
X129085000Y-150700000D01*
X117700000Y-144750000D02*
X122300000Y-144750000D01*
X135800000Y-128800000D02*
X135800000Y-126200000D01*
X135800000Y-126200000D02*
X138000000Y-124000000D01*
X124300000Y-140300000D02*
X135800000Y-128800000D01*
X122300000Y-147250000D02*
X126235000Y-147250000D01*
X126235000Y-147250000D02*
X129085000Y-150100000D01*
X116550000Y-147250000D02*
X116000000Y-146700000D01*
X117700000Y-147250000D02*
X116550000Y-147250000D01*
X122300000Y-144750000D02*
X123285000Y-144750000D01*
X116715000Y-144750000D02*
X117700000Y-144750000D01*
X124300000Y-143735000D02*
X124300000Y-140300000D01*
X123285000Y-144750000D02*
X124300000Y-143735000D01*
X116000000Y-145465000D02*
X116715000Y-144750000D01*
X116000000Y-146700000D02*
X116000000Y-145465000D01*
X139225000Y-127765000D02*
X138000000Y-126540000D01*
X125967500Y-144032500D02*
X125967500Y-141920088D01*
X137582588Y-130305000D02*
X138507412Y-130305000D01*
X139225000Y-129587412D02*
X139225000Y-127765000D01*
X122300000Y-146250000D02*
X121346016Y-146250000D01*
X125967500Y-141920088D02*
X137582588Y-130305000D01*
X121221016Y-146375000D02*
X120497382Y-146375000D01*
X119130350Y-145750000D02*
X117700000Y-145750000D01*
X138507412Y-130305000D02*
X139225000Y-129587412D01*
X119822382Y-145700000D02*
X119180350Y-145700000D01*
X123750000Y-146250000D02*
X125967500Y-144032500D01*
X119180350Y-145700000D02*
X119130350Y-145750000D01*
X122300000Y-146250000D02*
X123750000Y-146250000D01*
X121346016Y-146250000D02*
X121221016Y-146375000D01*
X120497382Y-146375000D02*
X119822382Y-145700000D01*
G04 #@! TA.AperFunction,Conductor*
G36*
X100259012Y-133311120D02*
G01*
X100281264Y-133336341D01*
X100282929Y-133338833D01*
X100282931Y-133338835D01*
X100650132Y-133706036D01*
X100684158Y-133768348D01*
X100683182Y-133826061D01*
X100655436Y-133935628D01*
X100636844Y-134160000D01*
X100655437Y-134384375D01*
X100710702Y-134602612D01*
X100710703Y-134602613D01*
X100801141Y-134808793D01*
X100924275Y-134997265D01*
X100924279Y-134997270D01*
X101076762Y-135162908D01*
X101131331Y-135205381D01*
X101254424Y-135301189D01*
X101287680Y-135319186D01*
X101338071Y-135369200D01*
X101353423Y-135438516D01*
X101328862Y-135505129D01*
X101287680Y-135540813D01*
X101254426Y-135558810D01*
X101254424Y-135558811D01*
X101076762Y-135697091D01*
X100924279Y-135862729D01*
X100924275Y-135862734D01*
X100801141Y-136051206D01*
X100710703Y-136257386D01*
X100710702Y-136257387D01*
X100655437Y-136475624D01*
X100655436Y-136475630D01*
X100655436Y-136475632D01*
X100644311Y-136609890D01*
X100636844Y-136700000D01*
X100655437Y-136924375D01*
X100710702Y-137142612D01*
X100710703Y-137142613D01*
X100710704Y-137142616D01*
X100773875Y-137286632D01*
X100801141Y-137348793D01*
X100924275Y-137537265D01*
X100924279Y-137537270D01*
X101076762Y-137702908D01*
X101120227Y-137736738D01*
X101254424Y-137841189D01*
X101287680Y-137859186D01*
X101338071Y-137909200D01*
X101353423Y-137978516D01*
X101328862Y-138045129D01*
X101287680Y-138080813D01*
X101254426Y-138098810D01*
X101254424Y-138098811D01*
X101076762Y-138237091D01*
X100924279Y-138402729D01*
X100924275Y-138402734D01*
X100801141Y-138591206D01*
X100710703Y-138797386D01*
X100710702Y-138797387D01*
X100655437Y-139015624D01*
X100655436Y-139015630D01*
X100655436Y-139015632D01*
X100636844Y-139240000D01*
X100650032Y-139399157D01*
X100655437Y-139464375D01*
X100710702Y-139682612D01*
X100710703Y-139682613D01*
X100710704Y-139682616D01*
X100790020Y-139863439D01*
X100801141Y-139888793D01*
X100924275Y-140077265D01*
X100924279Y-140077270D01*
X101076762Y-140242908D01*
X101110614Y-140269256D01*
X101254424Y-140381189D01*
X101288205Y-140399470D01*
X101338596Y-140449482D01*
X101353949Y-140518799D01*
X101329389Y-140585412D01*
X101288209Y-140621096D01*
X101254704Y-140639228D01*
X101254698Y-140639232D01*
X101077097Y-140777465D01*
X100924674Y-140943041D01*
X100801580Y-141131451D01*
X100711179Y-141337543D01*
X100711176Y-141337550D01*
X100663455Y-141525999D01*
X100663456Y-141526000D01*
X101569297Y-141526000D01*
X101534075Y-141587007D01*
X101500000Y-141714174D01*
X101500000Y-141845826D01*
X101534075Y-141972993D01*
X101569297Y-142034000D01*
X100663455Y-142034000D01*
X100711176Y-142222449D01*
X100711179Y-142222456D01*
X100801580Y-142428548D01*
X100924674Y-142616958D01*
X101077097Y-142782534D01*
X101254698Y-142920767D01*
X101254704Y-142920771D01*
X101288207Y-142938902D01*
X101338597Y-142988915D01*
X101353949Y-143058232D01*
X101329388Y-143124845D01*
X101288207Y-143160528D01*
X101254430Y-143178807D01*
X101254424Y-143178811D01*
X101076762Y-143317091D01*
X100924279Y-143482729D01*
X100924275Y-143482734D01*
X100801141Y-143671206D01*
X100710703Y-143877386D01*
X100710702Y-143877387D01*
X100655437Y-144095624D01*
X100655436Y-144095630D01*
X100655436Y-144095632D01*
X100636844Y-144320000D01*
X100643548Y-144400909D01*
X100655437Y-144544375D01*
X100710702Y-144762612D01*
X100710703Y-144762613D01*
X100801141Y-144968793D01*
X100924275Y-145157265D01*
X100924279Y-145157270D01*
X101076762Y-145322908D01*
X101131331Y-145365381D01*
X101254424Y-145461189D01*
X101287680Y-145479186D01*
X101338071Y-145529200D01*
X101353423Y-145598516D01*
X101328862Y-145665129D01*
X101287680Y-145700813D01*
X101254426Y-145718810D01*
X101254424Y-145718811D01*
X101076762Y-145857091D01*
X100924279Y-146022729D01*
X100924275Y-146022734D01*
X100801141Y-146211206D01*
X100710703Y-146417386D01*
X100710702Y-146417387D01*
X100655437Y-146635624D01*
X100655436Y-146635630D01*
X100655436Y-146635632D01*
X100636844Y-146860000D01*
X100648451Y-147000076D01*
X100655437Y-147084375D01*
X100710702Y-147302612D01*
X100710703Y-147302613D01*
X100710704Y-147302616D01*
X100769457Y-147436561D01*
X100801141Y-147508793D01*
X100924275Y-147697265D01*
X100924279Y-147697270D01*
X101076762Y-147862908D01*
X101103219Y-147883500D01*
X101254424Y-148001189D01*
X101452426Y-148108342D01*
X101452427Y-148108342D01*
X101452428Y-148108343D01*
X101564227Y-148146723D01*
X101665365Y-148181444D01*
X101887431Y-148218500D01*
X101887435Y-148218500D01*
X102112565Y-148218500D01*
X102112569Y-148218500D01*
X102334635Y-148181444D01*
X102547574Y-148108342D01*
X102745576Y-148001189D01*
X102923240Y-147862906D01*
X103075722Y-147697268D01*
X103198860Y-147508791D01*
X103289296Y-147302616D01*
X103344564Y-147084368D01*
X103363156Y-146860000D01*
X103344564Y-146635632D01*
X103321066Y-146542842D01*
X103289297Y-146417387D01*
X103289296Y-146417386D01*
X103289296Y-146417384D01*
X103198860Y-146211209D01*
X103084893Y-146036769D01*
X103075724Y-146022734D01*
X103075720Y-146022729D01*
X102923237Y-145857091D01*
X102841382Y-145793381D01*
X102745576Y-145718811D01*
X102712319Y-145700813D01*
X102661929Y-145650802D01*
X102646576Y-145581485D01*
X102671136Y-145514872D01*
X102712320Y-145479186D01*
X102745576Y-145461189D01*
X102923240Y-145322906D01*
X103075722Y-145157268D01*
X103198860Y-144968791D01*
X103289296Y-144762616D01*
X103344564Y-144544368D01*
X103363156Y-144320000D01*
X103344564Y-144095632D01*
X103313400Y-143972568D01*
X103289297Y-143877387D01*
X103289296Y-143877386D01*
X103289296Y-143877384D01*
X103198860Y-143671209D01*
X103149235Y-143595252D01*
X103075724Y-143482734D01*
X103075720Y-143482729D01*
X102959570Y-143356559D01*
X102923240Y-143317094D01*
X102923239Y-143317093D01*
X102923237Y-143317091D01*
X102841382Y-143253381D01*
X102745576Y-143178811D01*
X102711792Y-143160528D01*
X102661402Y-143110516D01*
X102646050Y-143041199D01*
X102670610Y-142974586D01*
X102711793Y-142938901D01*
X102745300Y-142920767D01*
X102745301Y-142920767D01*
X102922902Y-142782534D01*
X103075325Y-142616958D01*
X103198419Y-142428548D01*
X103288820Y-142222456D01*
X103288823Y-142222449D01*
X103336544Y-142034000D01*
X102430703Y-142034000D01*
X102465925Y-141972993D01*
X102500000Y-141845826D01*
X102500000Y-141714174D01*
X102465925Y-141587007D01*
X102430703Y-141526000D01*
X103336544Y-141526000D01*
X103336544Y-141525999D01*
X103288823Y-141337550D01*
X103288820Y-141337543D01*
X103198419Y-141131451D01*
X103075325Y-140943041D01*
X102922902Y-140777465D01*
X102745301Y-140639232D01*
X102745300Y-140639231D01*
X102711791Y-140621097D01*
X102661401Y-140571083D01*
X102646050Y-140501766D01*
X102670612Y-140435153D01*
X102711790Y-140399472D01*
X102745576Y-140381189D01*
X102923240Y-140242906D01*
X103075722Y-140077268D01*
X103198860Y-139888791D01*
X103289296Y-139682616D01*
X103344564Y-139464368D01*
X103354089Y-139349410D01*
X103379647Y-139283178D01*
X103436958Y-139241275D01*
X103507827Y-139237008D01*
X103568753Y-139270724D01*
X103854595Y-139556566D01*
X103888621Y-139618878D01*
X103891500Y-139645661D01*
X103891500Y-147830218D01*
X103891500Y-147969782D01*
X103894870Y-147986725D01*
X103904289Y-148034080D01*
X103916457Y-148095250D01*
X103918727Y-148106661D01*
X103972133Y-148235598D01*
X103972134Y-148235600D01*
X104049671Y-148351642D01*
X104049676Y-148351648D01*
X105628351Y-149930323D01*
X105628357Y-149930328D01*
X105744399Y-150007865D01*
X105835572Y-150045630D01*
X105873338Y-150061273D01*
X105941778Y-150074886D01*
X106010218Y-150088500D01*
X106010219Y-150088500D01*
X106373855Y-150088500D01*
X106441976Y-150108502D01*
X106488469Y-150162158D01*
X106495546Y-150186009D01*
X106496527Y-150185779D01*
X106546850Y-150399740D01*
X106633572Y-150596145D01*
X106754908Y-150773275D01*
X106754911Y-150773279D01*
X106906720Y-150925088D01*
X106906724Y-150925091D01*
X106906725Y-150925092D01*
X106928726Y-150940163D01*
X106955988Y-150958838D01*
X107000884Y-151013837D01*
X107008918Y-151084378D01*
X106977539Y-151148064D01*
X106958843Y-151164724D01*
X106784699Y-151291248D01*
X106611244Y-151464703D01*
X106467051Y-151663167D01*
X106355685Y-151881736D01*
X106355682Y-151881744D01*
X106279876Y-152115047D01*
X106266943Y-152196704D01*
X106241500Y-152357343D01*
X106241500Y-152602657D01*
X106267084Y-152764185D01*
X106279876Y-152844952D01*
X106355682Y-153078255D01*
X106355685Y-153078263D01*
X106467051Y-153296832D01*
X106611244Y-153495296D01*
X106784703Y-153668755D01*
X106857388Y-153721564D01*
X106900742Y-153777787D01*
X106906817Y-153848523D01*
X106873685Y-153911315D01*
X106811865Y-153946226D01*
X106783327Y-153949500D01*
X100176500Y-153949500D01*
X100108379Y-153929498D01*
X100061886Y-153875842D01*
X100050500Y-153823500D01*
X100050500Y-133406344D01*
X100070502Y-133338223D01*
X100124158Y-133291730D01*
X100194432Y-133281626D01*
X100259012Y-133311120D01*
G37*
G04 #@! TD.AperFunction*
G04 #@! TA.AperFunction,Conductor*
G36*
X101617012Y-111619437D02*
G01*
X101623595Y-111625566D01*
X105463530Y-115465500D01*
X108008358Y-118010328D01*
X108124400Y-118087865D01*
X108199930Y-118119150D01*
X108253338Y-118141273D01*
X108390219Y-118168500D01*
X132684338Y-118168500D01*
X132752459Y-118188502D01*
X132773433Y-118205404D01*
X133087544Y-118519514D01*
X133121569Y-118581827D01*
X133120594Y-118639540D01*
X133105949Y-118697370D01*
X133086673Y-118930000D01*
X133105950Y-119162633D01*
X133163249Y-119388903D01*
X133163252Y-119388910D01*
X133257015Y-119602668D01*
X133257016Y-119602669D01*
X133384686Y-119798083D01*
X133470209Y-119890985D01*
X133501629Y-119954648D01*
X133493642Y-120025194D01*
X133448784Y-120080223D01*
X133421541Y-120094376D01*
X133354037Y-120119554D01*
X133354034Y-120119555D01*
X133237095Y-120207095D01*
X133149555Y-120324034D01*
X133149555Y-120324035D01*
X133098505Y-120460906D01*
X133092000Y-120521402D01*
X133092000Y-121216000D01*
X134127032Y-121216000D01*
X134080667Y-121296306D01*
X134050000Y-121410756D01*
X134050000Y-121529244D01*
X134080667Y-121643694D01*
X134127032Y-121724000D01*
X133251444Y-121724000D01*
X133183323Y-121703998D01*
X133181442Y-121702765D01*
X133177568Y-121700176D01*
X133135601Y-121672135D01*
X133044427Y-121634369D01*
X133044426Y-121634368D01*
X133006669Y-121618729D01*
X133006663Y-121618727D01*
X133006662Y-121618727D01*
X132938221Y-121605113D01*
X132938220Y-121605112D01*
X132869787Y-121591500D01*
X132869782Y-121591500D01*
X132869781Y-121591500D01*
X128525355Y-121591500D01*
X128457234Y-121571498D01*
X128410741Y-121517842D01*
X128400637Y-121447568D01*
X128430131Y-121382988D01*
X128451294Y-121363564D01*
X128467703Y-121351642D01*
X128477510Y-121344517D01*
X128644517Y-121177510D01*
X128783343Y-120986433D01*
X128890568Y-120775992D01*
X128963553Y-120551368D01*
X129000500Y-120318092D01*
X129000500Y-120081908D01*
X128963553Y-119848632D01*
X128890568Y-119624008D01*
X128783343Y-119413567D01*
X128676072Y-119265922D01*
X128644515Y-119222487D01*
X128477512Y-119055484D01*
X128286436Y-118916659D01*
X128286435Y-118916658D01*
X128286433Y-118916657D01*
X128075992Y-118809432D01*
X127851368Y-118736447D01*
X127618092Y-118699500D01*
X127381908Y-118699500D01*
X127148632Y-118736447D01*
X127148629Y-118736447D01*
X127148628Y-118736448D01*
X126924008Y-118809432D01*
X126924006Y-118809433D01*
X126713563Y-118916659D01*
X126522487Y-119055484D01*
X126355484Y-119222487D01*
X126216659Y-119413563D01*
X126109433Y-119624006D01*
X126109432Y-119624008D01*
X126052873Y-119798079D01*
X126036447Y-119848632D01*
X125999500Y-120081908D01*
X125999500Y-120318092D01*
X126036447Y-120551368D01*
X126109432Y-120775992D01*
X126216657Y-120986433D01*
X126216659Y-120986436D01*
X126355484Y-121177512D01*
X126522487Y-121344515D01*
X126548706Y-121363564D01*
X126592060Y-121419787D01*
X126598135Y-121490523D01*
X126565003Y-121553314D01*
X126503183Y-121588226D01*
X126474645Y-121591500D01*
X113525355Y-121591500D01*
X113457234Y-121571498D01*
X113410741Y-121517842D01*
X113400637Y-121447568D01*
X113430131Y-121382988D01*
X113451294Y-121363564D01*
X113467703Y-121351642D01*
X113477510Y-121344517D01*
X113644517Y-121177510D01*
X113783343Y-120986433D01*
X113890568Y-120775992D01*
X113963553Y-120551368D01*
X114000500Y-120318092D01*
X114000500Y-120081908D01*
X113963553Y-119848632D01*
X113890568Y-119624008D01*
X113783343Y-119413567D01*
X113676072Y-119265922D01*
X113644515Y-119222487D01*
X113477512Y-119055484D01*
X113286436Y-118916659D01*
X113286435Y-118916658D01*
X113286433Y-118916657D01*
X113075992Y-118809432D01*
X112851368Y-118736447D01*
X112618092Y-118699500D01*
X112381908Y-118699500D01*
X112148632Y-118736447D01*
X112148629Y-118736447D01*
X112148628Y-118736448D01*
X111924008Y-118809432D01*
X111924006Y-118809433D01*
X111713563Y-118916659D01*
X111522487Y-119055484D01*
X111355484Y-119222487D01*
X111216659Y-119413563D01*
X111109433Y-119624006D01*
X111109432Y-119624008D01*
X111052873Y-119798079D01*
X111036447Y-119848632D01*
X110999500Y-120081908D01*
X110999500Y-120318092D01*
X111036447Y-120551368D01*
X111109432Y-120775992D01*
X111216657Y-120986433D01*
X111216659Y-120986436D01*
X111355484Y-121177512D01*
X111522487Y-121344515D01*
X111548706Y-121363564D01*
X111592060Y-121419787D01*
X111598135Y-121490523D01*
X111565003Y-121553314D01*
X111503183Y-121588226D01*
X111474645Y-121591500D01*
X109245660Y-121591500D01*
X109177539Y-121571498D01*
X109156565Y-121554595D01*
X106918516Y-119316546D01*
X106884490Y-119254234D01*
X106885467Y-119196518D01*
X106894051Y-119162626D01*
X106913327Y-118930000D01*
X106894051Y-118697374D01*
X106894049Y-118697366D01*
X106836750Y-118471096D01*
X106836747Y-118471089D01*
X106742984Y-118257331D01*
X106615314Y-118061916D01*
X106457225Y-117890186D01*
X106457221Y-117890182D01*
X106365118Y-117818496D01*
X106273017Y-117746810D01*
X106067727Y-117635713D01*
X106067724Y-117635712D01*
X106067723Y-117635711D01*
X105846955Y-117559921D01*
X105846948Y-117559919D01*
X105748411Y-117543476D01*
X105616712Y-117521500D01*
X105383288Y-117521500D01*
X105268066Y-117540727D01*
X105153051Y-117559919D01*
X105153044Y-117559921D01*
X104932276Y-117635711D01*
X104932273Y-117635713D01*
X104726985Y-117746809D01*
X104726983Y-117746810D01*
X104542778Y-117890182D01*
X104542774Y-117890186D01*
X104384685Y-118061916D01*
X104257015Y-118257331D01*
X104163252Y-118471089D01*
X104163249Y-118471096D01*
X104105950Y-118697366D01*
X104105950Y-118697370D01*
X104105949Y-118697374D01*
X104087779Y-118916657D01*
X104086673Y-118930000D01*
X104105950Y-119162633D01*
X104163249Y-119388903D01*
X104163252Y-119388910D01*
X104257015Y-119602668D01*
X104257016Y-119602669D01*
X104384686Y-119798083D01*
X104470209Y-119890985D01*
X104501629Y-119954648D01*
X104493642Y-120025194D01*
X104448784Y-120080223D01*
X104421541Y-120094376D01*
X104354037Y-120119554D01*
X104354034Y-120119555D01*
X104237095Y-120207095D01*
X104149555Y-120324034D01*
X104149555Y-120324035D01*
X104098505Y-120460906D01*
X104092000Y-120521402D01*
X104092000Y-121216000D01*
X105127032Y-121216000D01*
X105080667Y-121296306D01*
X105050000Y-121410756D01*
X105050000Y-121529244D01*
X105080667Y-121643694D01*
X105127032Y-121724000D01*
X104092000Y-121724000D01*
X104092000Y-122418597D01*
X104098505Y-122479093D01*
X104149555Y-122615964D01*
X104149555Y-122615965D01*
X104237095Y-122732904D01*
X104354034Y-122820444D01*
X104490906Y-122871494D01*
X104551402Y-122877999D01*
X104551415Y-122878000D01*
X105246000Y-122878000D01*
X105246000Y-121842968D01*
X105326306Y-121889333D01*
X105440756Y-121920000D01*
X105559244Y-121920000D01*
X105673694Y-121889333D01*
X105754000Y-121842968D01*
X105754000Y-122878000D01*
X106448585Y-122878000D01*
X106448597Y-122877999D01*
X106509093Y-122871494D01*
X106645964Y-122820444D01*
X106645965Y-122820444D01*
X106762904Y-122732904D01*
X106850444Y-122615965D01*
X106850444Y-122615964D01*
X106901494Y-122479093D01*
X106907999Y-122418597D01*
X106908000Y-122418585D01*
X106908000Y-121614160D01*
X106928002Y-121546039D01*
X106981658Y-121499546D01*
X107051932Y-121489442D01*
X107116512Y-121518936D01*
X107123087Y-121525058D01*
X107169528Y-121571498D01*
X108448352Y-122850323D01*
X108448358Y-122850328D01*
X108564400Y-122927865D01*
X108639930Y-122959150D01*
X108693338Y-122981273D01*
X108830219Y-123008500D01*
X110615500Y-123008500D01*
X110683621Y-123028502D01*
X110730114Y-123082158D01*
X110741500Y-123134500D01*
X110741500Y-124128649D01*
X110748009Y-124189196D01*
X110748011Y-124189204D01*
X110799110Y-124326202D01*
X110799112Y-124326207D01*
X110886738Y-124443261D01*
X111003792Y-124530887D01*
X111003794Y-124530888D01*
X111003796Y-124530889D01*
X111062875Y-124552924D01*
X111140795Y-124581988D01*
X111140803Y-124581990D01*
X111201350Y-124588499D01*
X111201355Y-124588499D01*
X111201362Y-124588500D01*
X111201368Y-124588500D01*
X113798632Y-124588500D01*
X113798638Y-124588500D01*
X113798645Y-124588499D01*
X113798649Y-124588499D01*
X113859196Y-124581990D01*
X113859199Y-124581989D01*
X113859201Y-124581989D01*
X113996204Y-124530889D01*
X114038134Y-124499501D01*
X114113261Y-124443261D01*
X114200887Y-124326207D01*
X114200887Y-124326206D01*
X114200889Y-124326204D01*
X114251989Y-124189201D01*
X114258500Y-124128638D01*
X114258500Y-123134500D01*
X114278502Y-123066379D01*
X114332158Y-123019886D01*
X114384500Y-123008500D01*
X125615500Y-123008500D01*
X125683621Y-123028502D01*
X125730114Y-123082158D01*
X125741500Y-123134500D01*
X125741500Y-124128649D01*
X125748009Y-124189196D01*
X125748011Y-124189204D01*
X125799110Y-124326202D01*
X125799112Y-124326207D01*
X125886738Y-124443261D01*
X126003792Y-124530887D01*
X126003794Y-124530888D01*
X126003796Y-124530889D01*
X126062875Y-124552924D01*
X126140795Y-124581988D01*
X126140803Y-124581990D01*
X126201350Y-124588499D01*
X126201355Y-124588499D01*
X126201362Y-124588500D01*
X126201368Y-124588500D01*
X128798632Y-124588500D01*
X128798638Y-124588500D01*
X128798645Y-124588499D01*
X128798649Y-124588499D01*
X128859196Y-124581990D01*
X128859199Y-124581989D01*
X128859201Y-124581989D01*
X128996204Y-124530889D01*
X129038134Y-124499501D01*
X129113261Y-124443261D01*
X129200887Y-124326207D01*
X129200887Y-124326206D01*
X129200889Y-124326204D01*
X129251989Y-124189201D01*
X129258500Y-124128638D01*
X129258500Y-123134500D01*
X129278502Y-123066379D01*
X129332158Y-123019886D01*
X129384500Y-123008500D01*
X132454338Y-123008500D01*
X132522459Y-123028502D01*
X132543433Y-123045404D01*
X133148358Y-123650328D01*
X133264399Y-123727865D01*
X133355572Y-123765630D01*
X133393338Y-123781273D01*
X133530219Y-123808500D01*
X133530220Y-123808500D01*
X135869777Y-123808500D01*
X135869782Y-123808500D01*
X135938221Y-123794886D01*
X136006662Y-123781273D01*
X136044427Y-123765630D01*
X136135601Y-123727865D01*
X136251643Y-123650328D01*
X136426405Y-123475565D01*
X136488716Y-123441541D01*
X136559532Y-123446605D01*
X136616368Y-123489152D01*
X136641179Y-123555672D01*
X136641500Y-123564661D01*
X136641500Y-124410406D01*
X136621498Y-124478527D01*
X136604595Y-124499501D01*
X135307931Y-125796164D01*
X135307929Y-125796167D01*
X135238600Y-125899925D01*
X135224471Y-125934035D01*
X135190846Y-126015212D01*
X135166500Y-126137603D01*
X135166500Y-128485406D01*
X135146498Y-128553527D01*
X135129595Y-128574501D01*
X123807931Y-139896164D01*
X123807926Y-139896171D01*
X123738601Y-139999923D01*
X123690846Y-140115212D01*
X123666500Y-140237603D01*
X123666500Y-140617454D01*
X123646498Y-140685575D01*
X123592842Y-140732068D01*
X123522568Y-140742172D01*
X123492283Y-140733863D01*
X123364024Y-140680737D01*
X123364015Y-140680735D01*
X123324000Y-140672774D01*
X123324000Y-141489939D01*
X123310060Y-141465795D01*
X123254205Y-141409940D01*
X123185796Y-141370444D01*
X123109496Y-141350000D01*
X123030504Y-141350000D01*
X122954204Y-141370444D01*
X122885795Y-141409940D01*
X122829940Y-141465795D01*
X122816000Y-141489939D01*
X122816000Y-140672775D01*
X122815999Y-140672774D01*
X122775984Y-140680735D01*
X122775979Y-140680736D01*
X122592532Y-140756722D01*
X122427442Y-140867032D01*
X122427435Y-140867037D01*
X122287037Y-141007435D01*
X122287032Y-141007442D01*
X122176722Y-141172533D01*
X122100739Y-141355971D01*
X122100737Y-141355976D01*
X122062000Y-141550718D01*
X122062000Y-141646000D01*
X122770000Y-141646000D01*
X122770000Y-142154000D01*
X122062000Y-142154000D01*
X122062000Y-142249281D01*
X122100739Y-142444030D01*
X122100862Y-142444436D01*
X122100863Y-142444658D01*
X122101945Y-142450093D01*
X122100913Y-142450298D01*
X122101489Y-142515430D01*
X122063634Y-142575492D01*
X121999316Y-142605554D01*
X121980284Y-142607000D01*
X121551402Y-142607000D01*
X121490906Y-142613505D01*
X121354035Y-142664555D01*
X121354034Y-142664555D01*
X121237095Y-142752095D01*
X121149555Y-142869034D01*
X121149555Y-142869035D01*
X121098505Y-143005906D01*
X121092000Y-143066402D01*
X121092000Y-143115000D01*
X122309000Y-143115000D01*
X122377121Y-143135002D01*
X122423614Y-143188658D01*
X122435000Y-143241000D01*
X122435000Y-143259000D01*
X122414998Y-143327121D01*
X122361342Y-143373614D01*
X122309000Y-143385000D01*
X121092000Y-143385000D01*
X121092000Y-143433597D01*
X121098505Y-143494093D01*
X121149555Y-143630964D01*
X121149555Y-143630965D01*
X121237095Y-143747904D01*
X121352605Y-143834374D01*
X121395152Y-143891210D01*
X121400675Y-143910660D01*
X121411667Y-143965918D01*
X121405339Y-144036632D01*
X121361785Y-144092699D01*
X121294833Y-144116319D01*
X121288088Y-144116500D01*
X118711912Y-144116500D01*
X118643791Y-144096498D01*
X118597298Y-144042842D01*
X118587194Y-143972568D01*
X118588333Y-143965920D01*
X118599324Y-143910662D01*
X118632231Y-143847752D01*
X118647394Y-143834374D01*
X118762904Y-143747904D01*
X118850444Y-143630965D01*
X118850444Y-143630964D01*
X118901494Y-143494093D01*
X118907999Y-143433597D01*
X118908000Y-143433585D01*
X118908000Y-143385000D01*
X116492000Y-143385000D01*
X116492000Y-143433597D01*
X116498505Y-143494093D01*
X116549555Y-143630964D01*
X116549555Y-143630965D01*
X116637095Y-143747904D01*
X116752605Y-143834374D01*
X116795152Y-143891210D01*
X116800675Y-143910660D01*
X116811667Y-143965918D01*
X116805339Y-144036632D01*
X116761785Y-144092699D01*
X116694833Y-144116319D01*
X116688088Y-144116500D01*
X116652600Y-144116500D01*
X116530217Y-144140844D01*
X116530209Y-144140846D01*
X116496447Y-144154830D01*
X116496447Y-144154831D01*
X116414925Y-144188599D01*
X116311167Y-144257927D01*
X115596167Y-144972929D01*
X115507927Y-145061169D01*
X115507926Y-145061171D01*
X115438601Y-145164923D01*
X115390846Y-145280212D01*
X115366500Y-145402603D01*
X115366500Y-145402606D01*
X115366500Y-146637606D01*
X115366500Y-146762394D01*
X115390845Y-146884785D01*
X115438600Y-147000075D01*
X115507929Y-147103833D01*
X116057929Y-147653833D01*
X116146167Y-147742071D01*
X116249925Y-147811400D01*
X116365215Y-147859155D01*
X116487606Y-147883500D01*
X116688088Y-147883500D01*
X116756209Y-147903502D01*
X116802702Y-147957158D01*
X116812806Y-148027432D01*
X116811667Y-148034082D01*
X116800675Y-148089340D01*
X116767767Y-148152250D01*
X116752605Y-148165626D01*
X116637095Y-148252095D01*
X116549555Y-148369034D01*
X116549555Y-148369035D01*
X116498505Y-148505906D01*
X116492000Y-148566402D01*
X116492000Y-148615000D01*
X118908000Y-148615000D01*
X118908000Y-148566414D01*
X118907999Y-148566402D01*
X118901494Y-148505906D01*
X118850444Y-148369035D01*
X118850444Y-148369034D01*
X118762904Y-148252095D01*
X118647394Y-148165626D01*
X118604847Y-148108791D01*
X118599324Y-148089338D01*
X118588333Y-148034080D01*
X118594661Y-147963366D01*
X118638216Y-147907299D01*
X118705169Y-147883681D01*
X118711912Y-147883500D01*
X121288088Y-147883500D01*
X121356209Y-147903502D01*
X121402702Y-147957158D01*
X121412806Y-148027432D01*
X121411667Y-148034082D01*
X121400675Y-148089340D01*
X121367767Y-148152250D01*
X121352605Y-148165626D01*
X121237095Y-148252095D01*
X121149555Y-148369034D01*
X121149555Y-148369035D01*
X121098505Y-148505906D01*
X121092000Y-148566402D01*
X121092000Y-148615000D01*
X123508000Y-148615000D01*
X123508000Y-148566414D01*
X123507999Y-148566402D01*
X123501494Y-148505906D01*
X123450444Y-148369035D01*
X123450444Y-148369034D01*
X123362904Y-148252095D01*
X123247394Y-148165626D01*
X123204847Y-148108791D01*
X123199324Y-148089338D01*
X123188333Y-148034080D01*
X123194661Y-147963366D01*
X123238216Y-147907299D01*
X123305169Y-147883681D01*
X123311912Y-147883500D01*
X125920406Y-147883500D01*
X125988527Y-147903502D01*
X126009501Y-147920405D01*
X127164572Y-149075476D01*
X127198598Y-149137788D01*
X127194510Y-149194968D01*
X127197323Y-149195633D01*
X127195509Y-149203304D01*
X127189000Y-149263850D01*
X127189000Y-152136149D01*
X127195509Y-152196696D01*
X127195511Y-152196704D01*
X127246610Y-152333702D01*
X127246612Y-152333707D01*
X127334238Y-152450761D01*
X127451292Y-152538387D01*
X127451294Y-152538388D01*
X127451296Y-152538389D01*
X127510375Y-152560424D01*
X127588295Y-152589488D01*
X127588303Y-152589490D01*
X127648850Y-152595999D01*
X127648855Y-152595999D01*
X127648862Y-152596000D01*
X127648868Y-152596000D01*
X130521132Y-152596000D01*
X130521138Y-152596000D01*
X130521145Y-152595999D01*
X130521149Y-152595999D01*
X130581696Y-152589490D01*
X130581699Y-152589489D01*
X130581701Y-152589489D01*
X130718704Y-152538389D01*
X130835761Y-152450761D01*
X130923389Y-152333704D01*
X130974489Y-152196701D01*
X130981000Y-152136138D01*
X130981000Y-150700000D01*
X132014658Y-150700000D01*
X132034000Y-150970443D01*
X132091635Y-151235388D01*
X132186387Y-151489430D01*
X132186389Y-151489434D01*
X132316331Y-151727403D01*
X132407113Y-151848673D01*
X132407114Y-151848674D01*
X133104231Y-151151556D01*
X133196505Y-151289653D01*
X133325347Y-151418495D01*
X133463441Y-151510767D01*
X132766324Y-152207884D01*
X132766325Y-152207885D01*
X132887596Y-152298668D01*
X133125565Y-152428610D01*
X133125569Y-152428612D01*
X133379611Y-152523364D01*
X133644556Y-152580999D01*
X133915000Y-152600341D01*
X134185443Y-152580999D01*
X134450388Y-152523364D01*
X134704430Y-152428612D01*
X134704434Y-152428610D01*
X134942399Y-152298670D01*
X135063673Y-152207884D01*
X135063674Y-152207884D01*
X134366557Y-151510767D01*
X134504653Y-151418495D01*
X134633495Y-151289653D01*
X134725767Y-151151557D01*
X135422884Y-151848674D01*
X135422884Y-151848673D01*
X135513670Y-151727399D01*
X135643610Y-151489434D01*
X135643612Y-151489430D01*
X135738364Y-151235388D01*
X135795999Y-150970443D01*
X135815341Y-150700000D01*
X135795999Y-150429556D01*
X135738364Y-150164611D01*
X135643612Y-149910569D01*
X135643610Y-149910565D01*
X135513668Y-149672596D01*
X135422885Y-149551325D01*
X135422884Y-149551324D01*
X134725767Y-150248441D01*
X134633495Y-150110347D01*
X134504653Y-149981505D01*
X134366557Y-149889232D01*
X135063674Y-149192114D01*
X135063673Y-149192113D01*
X134942403Y-149101331D01*
X134704434Y-148971389D01*
X134704430Y-148971387D01*
X134450388Y-148876635D01*
X134185443Y-148819000D01*
X133915000Y-148799658D01*
X133644556Y-148819000D01*
X133379611Y-148876635D01*
X133125569Y-148971387D01*
X133125565Y-148971389D01*
X132887601Y-149101328D01*
X132766325Y-149192113D01*
X132766324Y-149192114D01*
X133463442Y-149889232D01*
X133325347Y-149981505D01*
X133196505Y-150110347D01*
X133104232Y-150248442D01*
X132407114Y-149551324D01*
X132407113Y-149551325D01*
X132316328Y-149672601D01*
X132186389Y-149910565D01*
X132186387Y-149910569D01*
X132091635Y-150164611D01*
X132034000Y-150429556D01*
X132014658Y-150700000D01*
X130981000Y-150700000D01*
X130981000Y-149263862D01*
X130980069Y-149255201D01*
X130974490Y-149203303D01*
X130974488Y-149203295D01*
X130945424Y-149125375D01*
X130923389Y-149066296D01*
X130923388Y-149066294D01*
X130923387Y-149066292D01*
X130835761Y-148949238D01*
X130718707Y-148861612D01*
X130718702Y-148861610D01*
X130581704Y-148810511D01*
X130581696Y-148810509D01*
X130521149Y-148804000D01*
X130521138Y-148804000D01*
X128737095Y-148804000D01*
X128668974Y-148783998D01*
X128648000Y-148767095D01*
X126638835Y-146757931D01*
X126638833Y-146757929D01*
X126535075Y-146688600D01*
X126419785Y-146640845D01*
X126346086Y-146626185D01*
X126297396Y-146616500D01*
X126297394Y-146616500D01*
X124583594Y-146616500D01*
X124515473Y-146596498D01*
X124468980Y-146542842D01*
X124458876Y-146472568D01*
X124488370Y-146407988D01*
X124494499Y-146401405D01*
X124895904Y-146000000D01*
X127184157Y-146000000D01*
X127203504Y-146270514D01*
X127261154Y-146535529D01*
X127355931Y-146789638D01*
X127355933Y-146789642D01*
X127485909Y-147027674D01*
X127648434Y-147244781D01*
X127648437Y-147244784D01*
X127648439Y-147244787D01*
X127840213Y-147436561D01*
X127840216Y-147436563D01*
X127840218Y-147436565D01*
X128057325Y-147599090D01*
X128237127Y-147697270D01*
X128295361Y-147729068D01*
X128549471Y-147823846D01*
X128814482Y-147881495D01*
X129085000Y-147900843D01*
X129355518Y-147881495D01*
X129620529Y-147823846D01*
X129874639Y-147729068D01*
X130112673Y-147599091D01*
X130329787Y-147436561D01*
X130521561Y-147244787D01*
X130684091Y-147027673D01*
X130814068Y-146789639D01*
X130908846Y-146535529D01*
X130966495Y-146270518D01*
X130985843Y-146000000D01*
X132014157Y-146000000D01*
X132033504Y-146270514D01*
X132091154Y-146535529D01*
X132185931Y-146789638D01*
X132185933Y-146789642D01*
X132315909Y-147027674D01*
X132478434Y-147244781D01*
X132478437Y-147244784D01*
X132478439Y-147244787D01*
X132670213Y-147436561D01*
X132670216Y-147436563D01*
X132670218Y-147436565D01*
X132887325Y-147599090D01*
X133067127Y-147697270D01*
X133125361Y-147729068D01*
X133379471Y-147823846D01*
X133644482Y-147881495D01*
X133915000Y-147900843D01*
X134185518Y-147881495D01*
X134450529Y-147823846D01*
X134704639Y-147729068D01*
X134942673Y-147599091D01*
X135159787Y-147436561D01*
X135351561Y-147244787D01*
X135514091Y-147027673D01*
X135644068Y-146789639D01*
X135738846Y-146535529D01*
X135796495Y-146270518D01*
X135815843Y-146000000D01*
X135796495Y-145729482D01*
X135738846Y-145464471D01*
X135644068Y-145210361D01*
X135514091Y-144972327D01*
X135511445Y-144968793D01*
X135351565Y-144755218D01*
X135351557Y-144755209D01*
X135159790Y-144563442D01*
X135159781Y-144563434D01*
X134942674Y-144400909D01*
X134704642Y-144270933D01*
X134704638Y-144270931D01*
X134450529Y-144176154D01*
X134185514Y-144118504D01*
X133915000Y-144099157D01*
X133644485Y-144118504D01*
X133379470Y-144176154D01*
X133125361Y-144270931D01*
X133125357Y-144270933D01*
X132887325Y-144400909D01*
X132670218Y-144563434D01*
X132670209Y-144563442D01*
X132478442Y-144755209D01*
X132478434Y-144755218D01*
X132315909Y-144972325D01*
X132185933Y-145210357D01*
X132185931Y-145210361D01*
X132091154Y-145464470D01*
X132033504Y-145729485D01*
X132014157Y-146000000D01*
X130985843Y-146000000D01*
X130966495Y-145729482D01*
X130908846Y-145464471D01*
X130814068Y-145210361D01*
X130684091Y-144972327D01*
X130681445Y-144968793D01*
X130521565Y-144755218D01*
X130521557Y-144755209D01*
X130329790Y-144563442D01*
X130329781Y-144563434D01*
X130112674Y-144400909D01*
X129874642Y-144270933D01*
X129874638Y-144270931D01*
X129620529Y-144176154D01*
X129355514Y-144118504D01*
X129085000Y-144099157D01*
X128814485Y-144118504D01*
X128549470Y-144176154D01*
X128295361Y-144270931D01*
X128295357Y-144270933D01*
X128057325Y-144400909D01*
X127840218Y-144563434D01*
X127840209Y-144563442D01*
X127648442Y-144755209D01*
X127648434Y-144755218D01*
X127485909Y-144972325D01*
X127355933Y-145210357D01*
X127355931Y-145210361D01*
X127261154Y-145464470D01*
X127203504Y-145729485D01*
X127184157Y-146000000D01*
X124895904Y-146000000D01*
X125381033Y-145514872D01*
X126459572Y-144436333D01*
X126528901Y-144332575D01*
X126576655Y-144217284D01*
X126601000Y-144094893D01*
X126601000Y-143970106D01*
X126601000Y-142234682D01*
X126621002Y-142166561D01*
X126637900Y-142145591D01*
X127042031Y-141741459D01*
X127104342Y-141707436D01*
X127175157Y-141712500D01*
X127231993Y-141755047D01*
X127254245Y-141803772D01*
X127261152Y-141835522D01*
X127261154Y-141835529D01*
X127265950Y-141848387D01*
X127355931Y-142089638D01*
X127355933Y-142089642D01*
X127485909Y-142327674D01*
X127648434Y-142544781D01*
X127648437Y-142544784D01*
X127648439Y-142544787D01*
X127840213Y-142736561D01*
X127840216Y-142736563D01*
X127840218Y-142736565D01*
X128057325Y-142899090D01*
X128239482Y-142998556D01*
X128295361Y-143029068D01*
X128549471Y-143123846D01*
X128814482Y-143181495D01*
X129085000Y-143200843D01*
X129355518Y-143181495D01*
X129620529Y-143123846D01*
X129874639Y-143029068D01*
X130112673Y-142899091D01*
X130329787Y-142736561D01*
X130521561Y-142544787D01*
X130684091Y-142327673D01*
X130814068Y-142089639D01*
X130908846Y-141835529D01*
X130966495Y-141570518D01*
X130985843Y-141300000D01*
X132014157Y-141300000D01*
X132033504Y-141570514D01*
X132091154Y-141835529D01*
X132185931Y-142089638D01*
X132185933Y-142089642D01*
X132315909Y-142327674D01*
X132478434Y-142544781D01*
X132478437Y-142544784D01*
X132478439Y-142544787D01*
X132670213Y-142736561D01*
X132670216Y-142736563D01*
X132670218Y-142736565D01*
X132887325Y-142899090D01*
X133069482Y-142998556D01*
X133125361Y-143029068D01*
X133379471Y-143123846D01*
X133644482Y-143181495D01*
X133915000Y-143200843D01*
X134185518Y-143181495D01*
X134450529Y-143123846D01*
X134704639Y-143029068D01*
X134942673Y-142899091D01*
X135159787Y-142736561D01*
X135351561Y-142544787D01*
X135514091Y-142327673D01*
X135644068Y-142089639D01*
X135738846Y-141835529D01*
X135796495Y-141570518D01*
X135815843Y-141300000D01*
X135796495Y-141029482D01*
X135738846Y-140764471D01*
X135644068Y-140510361D01*
X135610825Y-140449482D01*
X135514090Y-140272325D01*
X135351565Y-140055218D01*
X135351557Y-140055209D01*
X135159790Y-139863442D01*
X135159781Y-139863434D01*
X134942674Y-139700909D01*
X134704642Y-139570933D01*
X134704638Y-139570931D01*
X134450529Y-139476154D01*
X134185514Y-139418504D01*
X133915000Y-139399157D01*
X133644485Y-139418504D01*
X133379470Y-139476154D01*
X133125361Y-139570931D01*
X133125357Y-139570933D01*
X132887325Y-139700909D01*
X132670218Y-139863434D01*
X132670209Y-139863442D01*
X132478442Y-140055209D01*
X132478434Y-140055218D01*
X132315909Y-140272325D01*
X132185933Y-140510357D01*
X132185931Y-140510361D01*
X132091154Y-140764470D01*
X132033504Y-141029485D01*
X132014157Y-141300000D01*
X130985843Y-141300000D01*
X130966495Y-141029482D01*
X130908846Y-140764471D01*
X130814068Y-140510361D01*
X130780825Y-140449482D01*
X130684090Y-140272325D01*
X130521565Y-140055218D01*
X130521557Y-140055209D01*
X130329790Y-139863442D01*
X130329781Y-139863434D01*
X130112674Y-139700909D01*
X129874642Y-139570933D01*
X129874638Y-139570931D01*
X129620527Y-139476153D01*
X129600554Y-139471808D01*
X129588770Y-139469245D01*
X129526460Y-139435221D01*
X129492435Y-139372908D01*
X129497499Y-139302093D01*
X129526458Y-139257032D01*
X136583785Y-132199706D01*
X136646093Y-132165683D01*
X136716908Y-132170748D01*
X136773744Y-132213295D01*
X136788263Y-132238189D01*
X136801579Y-132268547D01*
X136801580Y-132268549D01*
X136924674Y-132456958D01*
X137077097Y-132622534D01*
X137254698Y-132760767D01*
X137254704Y-132760771D01*
X137288207Y-132778902D01*
X137338597Y-132828915D01*
X137353949Y-132898232D01*
X137329388Y-132964845D01*
X137288207Y-133000528D01*
X137254430Y-133018807D01*
X137254424Y-133018811D01*
X137076762Y-133157091D01*
X136924279Y-133322729D01*
X136924275Y-133322734D01*
X136801141Y-133511206D01*
X136710703Y-133717386D01*
X136710702Y-133717387D01*
X136655437Y-133935624D01*
X136636844Y-134160000D01*
X136655437Y-134384375D01*
X136710702Y-134602612D01*
X136710703Y-134602613D01*
X136801141Y-134808793D01*
X136924275Y-134997265D01*
X136924279Y-134997270D01*
X137076762Y-135162908D01*
X137131331Y-135205381D01*
X137254424Y-135301189D01*
X137287680Y-135319186D01*
X137338071Y-135369200D01*
X137353423Y-135438516D01*
X137328862Y-135505129D01*
X137287680Y-135540813D01*
X137254426Y-135558810D01*
X137254424Y-135558811D01*
X137076762Y-135697091D01*
X136924279Y-135862729D01*
X136924275Y-135862734D01*
X136801141Y-136051206D01*
X136710703Y-136257386D01*
X136710702Y-136257387D01*
X136655437Y-136475624D01*
X136655436Y-136475630D01*
X136655436Y-136475632D01*
X136644311Y-136609890D01*
X136636844Y-136700000D01*
X136655437Y-136924375D01*
X136710702Y-137142612D01*
X136710703Y-137142613D01*
X136710704Y-137142616D01*
X136773875Y-137286632D01*
X136801141Y-137348793D01*
X136924275Y-137537265D01*
X136924279Y-137537270D01*
X137076762Y-137702908D01*
X137120227Y-137736738D01*
X137254424Y-137841189D01*
X137287680Y-137859186D01*
X137338071Y-137909200D01*
X137353423Y-137978516D01*
X137328862Y-138045129D01*
X137287680Y-138080813D01*
X137254426Y-138098810D01*
X137254424Y-138098811D01*
X137076762Y-138237091D01*
X136924279Y-138402729D01*
X136924275Y-138402734D01*
X136801141Y-138591206D01*
X136710703Y-138797386D01*
X136710702Y-138797387D01*
X136655437Y-139015624D01*
X136655436Y-139015630D01*
X136655436Y-139015632D01*
X136636844Y-139240000D01*
X136650032Y-139399157D01*
X136655437Y-139464375D01*
X136710702Y-139682612D01*
X136710703Y-139682613D01*
X136710704Y-139682616D01*
X136790020Y-139863439D01*
X136801141Y-139888793D01*
X136924275Y-140077265D01*
X136924279Y-140077270D01*
X137076762Y-140242908D01*
X137110614Y-140269256D01*
X137254424Y-140381189D01*
X137287680Y-140399186D01*
X137338071Y-140449200D01*
X137353423Y-140518516D01*
X137328862Y-140585129D01*
X137287680Y-140620813D01*
X137254426Y-140638810D01*
X137254424Y-140638811D01*
X137076762Y-140777091D01*
X136924279Y-140942729D01*
X136924275Y-140942734D01*
X136801141Y-141131206D01*
X136710703Y-141337386D01*
X136710702Y-141337387D01*
X136655437Y-141555624D01*
X136655436Y-141555630D01*
X136655436Y-141555632D01*
X136636844Y-141780000D01*
X136652836Y-141972993D01*
X136655437Y-142004375D01*
X136710702Y-142222612D01*
X136710703Y-142222613D01*
X136710704Y-142222616D01*
X136801140Y-142428791D01*
X136801141Y-142428793D01*
X136924275Y-142617265D01*
X136924279Y-142617270D01*
X137076762Y-142782908D01*
X137089159Y-142792557D01*
X137254424Y-142921189D01*
X137287153Y-142938901D01*
X137287680Y-142939186D01*
X137338071Y-142989200D01*
X137353423Y-143058516D01*
X137328862Y-143125129D01*
X137287680Y-143160813D01*
X137254426Y-143178810D01*
X137254424Y-143178811D01*
X137076762Y-143317091D01*
X136924279Y-143482729D01*
X136924275Y-143482734D01*
X136801141Y-143671206D01*
X136710703Y-143877386D01*
X136710702Y-143877387D01*
X136655437Y-144095624D01*
X136655436Y-144095630D01*
X136655436Y-144095632D01*
X136636844Y-144320000D01*
X136643548Y-144400909D01*
X136655437Y-144544375D01*
X136710702Y-144762612D01*
X136710703Y-144762613D01*
X136801141Y-144968793D01*
X136924275Y-145157265D01*
X136924279Y-145157270D01*
X137076762Y-145322908D01*
X137131331Y-145365381D01*
X137254424Y-145461189D01*
X137287680Y-145479186D01*
X137338071Y-145529200D01*
X137353423Y-145598516D01*
X137328862Y-145665129D01*
X137287680Y-145700813D01*
X137254426Y-145718810D01*
X137254424Y-145718811D01*
X137076762Y-145857091D01*
X136924279Y-146022729D01*
X136924275Y-146022734D01*
X136801141Y-146211206D01*
X136710703Y-146417386D01*
X136710702Y-146417387D01*
X136655437Y-146635624D01*
X136655436Y-146635630D01*
X136655436Y-146635632D01*
X136636844Y-146860000D01*
X136648451Y-147000076D01*
X136655437Y-147084375D01*
X136710702Y-147302612D01*
X136710703Y-147302613D01*
X136710704Y-147302616D01*
X136769457Y-147436561D01*
X136801141Y-147508793D01*
X136924275Y-147697265D01*
X136924279Y-147697270D01*
X137076762Y-147862908D01*
X137103219Y-147883500D01*
X137254424Y-148001189D01*
X137452426Y-148108342D01*
X137452427Y-148108342D01*
X137452428Y-148108343D01*
X137564227Y-148146723D01*
X137665365Y-148181444D01*
X137887431Y-148218500D01*
X137887435Y-148218500D01*
X138112565Y-148218500D01*
X138112569Y-148218500D01*
X138334635Y-148181444D01*
X138547574Y-148108342D01*
X138745576Y-148001189D01*
X138923240Y-147862906D01*
X139075722Y-147697268D01*
X139198860Y-147508791D01*
X139289296Y-147302616D01*
X139344564Y-147084368D01*
X139363156Y-146860000D01*
X139344564Y-146635632D01*
X139321066Y-146542842D01*
X139289297Y-146417387D01*
X139289296Y-146417386D01*
X139289296Y-146417384D01*
X139198860Y-146211209D01*
X139084893Y-146036769D01*
X139075724Y-146022734D01*
X139075720Y-146022729D01*
X138923237Y-145857091D01*
X138841382Y-145793381D01*
X138745576Y-145718811D01*
X138712319Y-145700813D01*
X138661929Y-145650802D01*
X138646576Y-145581485D01*
X138671136Y-145514872D01*
X138712320Y-145479186D01*
X138745576Y-145461189D01*
X138923240Y-145322906D01*
X139075722Y-145157268D01*
X139198860Y-144968791D01*
X139289296Y-144762616D01*
X139344564Y-144544368D01*
X139363156Y-144320000D01*
X139344564Y-144095632D01*
X139313400Y-143972568D01*
X139289297Y-143877387D01*
X139289296Y-143877386D01*
X139289296Y-143877384D01*
X139198860Y-143671209D01*
X139149235Y-143595252D01*
X139075724Y-143482734D01*
X139075720Y-143482729D01*
X138959570Y-143356559D01*
X138923240Y-143317094D01*
X138923239Y-143317093D01*
X138923237Y-143317091D01*
X138841382Y-143253381D01*
X138745576Y-143178811D01*
X138712319Y-143160813D01*
X138661929Y-143110802D01*
X138646576Y-143041485D01*
X138671136Y-142974872D01*
X138712320Y-142939186D01*
X138712847Y-142938901D01*
X138745576Y-142921189D01*
X138923240Y-142782906D01*
X139075722Y-142617268D01*
X139078181Y-142613505D01*
X139095498Y-142586998D01*
X139198860Y-142428791D01*
X139289296Y-142222616D01*
X139344564Y-142004368D01*
X139363156Y-141780000D01*
X139344564Y-141555632D01*
X139289338Y-141337550D01*
X139289297Y-141337387D01*
X139289296Y-141337386D01*
X139289296Y-141337384D01*
X139198860Y-141131209D01*
X139158561Y-141069526D01*
X139075724Y-140942734D01*
X139075720Y-140942729D01*
X138959570Y-140816559D01*
X138923240Y-140777094D01*
X138923239Y-140777093D01*
X138923237Y-140777091D01*
X138841382Y-140713381D01*
X138745576Y-140638811D01*
X138712319Y-140620813D01*
X138661929Y-140570802D01*
X138646576Y-140501485D01*
X138671136Y-140434872D01*
X138712320Y-140399186D01*
X138745576Y-140381189D01*
X138923240Y-140242906D01*
X139075722Y-140077268D01*
X139198860Y-139888791D01*
X139289296Y-139682616D01*
X139344564Y-139464368D01*
X139363156Y-139240000D01*
X139344564Y-139015632D01*
X139289296Y-138797384D01*
X139198860Y-138591209D01*
X139131841Y-138488628D01*
X139075724Y-138402734D01*
X139075720Y-138402729D01*
X138923237Y-138237091D01*
X138841382Y-138173381D01*
X138745576Y-138098811D01*
X138712319Y-138080813D01*
X138661929Y-138030802D01*
X138646576Y-137961485D01*
X138671136Y-137894872D01*
X138712320Y-137859186D01*
X138745576Y-137841189D01*
X138923240Y-137702906D01*
X139075722Y-137537268D01*
X139198860Y-137348791D01*
X139289296Y-137142616D01*
X139344564Y-136924368D01*
X139363156Y-136700000D01*
X139344564Y-136475632D01*
X139289296Y-136257384D01*
X139198860Y-136051209D01*
X139192140Y-136040924D01*
X139075724Y-135862734D01*
X139075720Y-135862729D01*
X138923237Y-135697091D01*
X138813104Y-135611371D01*
X138745576Y-135558811D01*
X138712319Y-135540813D01*
X138661929Y-135490802D01*
X138646576Y-135421485D01*
X138671136Y-135354872D01*
X138712320Y-135319186D01*
X138745576Y-135301189D01*
X138923240Y-135162906D01*
X139075722Y-134997268D01*
X139198860Y-134808791D01*
X139289296Y-134602616D01*
X139344564Y-134384368D01*
X139363156Y-134160000D01*
X139344564Y-133935632D01*
X139302202Y-133768348D01*
X139289297Y-133717387D01*
X139289296Y-133717386D01*
X139289296Y-133717384D01*
X139198860Y-133511209D01*
X139192140Y-133500924D01*
X139075724Y-133322734D01*
X139075720Y-133322729D01*
X138923237Y-133157091D01*
X138828757Y-133083554D01*
X138745576Y-133018811D01*
X138711792Y-133000528D01*
X138661402Y-132950516D01*
X138646050Y-132881199D01*
X138670610Y-132814586D01*
X138711793Y-132778901D01*
X138745300Y-132760767D01*
X138745301Y-132760767D01*
X138922902Y-132622534D01*
X139075325Y-132456958D01*
X139198419Y-132268548D01*
X139288820Y-132062456D01*
X139288823Y-132062449D01*
X139336544Y-131874000D01*
X138430703Y-131874000D01*
X138465925Y-131812993D01*
X138500000Y-131685826D01*
X138500000Y-131554174D01*
X138465925Y-131427007D01*
X138430703Y-131366000D01*
X139336544Y-131366000D01*
X139336544Y-131365999D01*
X139288823Y-131177550D01*
X139288820Y-131177543D01*
X139198419Y-130971451D01*
X139072475Y-130778679D01*
X139074411Y-130777413D01*
X139051934Y-130720384D01*
X139065744Y-130650744D01*
X139088324Y-130619991D01*
X139717072Y-129991245D01*
X139718734Y-129988756D01*
X139719942Y-129987746D01*
X139720999Y-129986460D01*
X139721243Y-129986660D01*
X139773210Y-129943229D01*
X139843653Y-129934380D01*
X139907697Y-129965020D01*
X139945010Y-130025421D01*
X139949500Y-130058758D01*
X139949500Y-153823500D01*
X139929498Y-153891621D01*
X139875842Y-153938114D01*
X139823500Y-153949500D01*
X109816673Y-153949500D01*
X109748552Y-153929498D01*
X109702059Y-153875842D01*
X109691955Y-153805568D01*
X109721449Y-153740988D01*
X109742612Y-153721564D01*
X109753868Y-153713385D01*
X109815294Y-153668757D01*
X109988757Y-153495294D01*
X110132949Y-153296832D01*
X110244318Y-153078256D01*
X110320124Y-152844950D01*
X110358500Y-152602657D01*
X110358500Y-152357343D01*
X110320124Y-152115050D01*
X110244318Y-151881744D01*
X110132949Y-151663168D01*
X109988757Y-151464706D01*
X109988755Y-151464703D01*
X109815296Y-151291244D01*
X109641157Y-151164724D01*
X109597803Y-151108501D01*
X109591728Y-151037765D01*
X109624860Y-150974973D01*
X109644012Y-150958838D01*
X109693271Y-150925095D01*
X109693272Y-150925093D01*
X109693275Y-150925092D01*
X109845092Y-150773275D01*
X109966427Y-150596146D01*
X110053150Y-150399739D01*
X110102306Y-150190740D01*
X110108500Y-150101502D01*
X110108500Y-149750718D01*
X115922000Y-149750718D01*
X115922000Y-149846000D01*
X116630000Y-149846000D01*
X116630000Y-150354000D01*
X115922000Y-150354000D01*
X115922000Y-150449281D01*
X115960737Y-150644023D01*
X115960739Y-150644028D01*
X116036722Y-150827466D01*
X116147032Y-150992557D01*
X116147037Y-150992564D01*
X116287435Y-151132962D01*
X116287442Y-151132967D01*
X116452533Y-151243277D01*
X116635971Y-151319260D01*
X116635976Y-151319262D01*
X116675999Y-151327223D01*
X116676000Y-151327223D01*
X116676000Y-150510060D01*
X116689940Y-150534205D01*
X116745795Y-150590060D01*
X116814204Y-150629556D01*
X116890504Y-150650000D01*
X116969496Y-150650000D01*
X117045796Y-150629556D01*
X117114205Y-150590060D01*
X117170060Y-150534205D01*
X117184000Y-150510060D01*
X117184000Y-151327223D01*
X117224023Y-151319262D01*
X117224028Y-151319260D01*
X117407466Y-151243277D01*
X117572557Y-151132967D01*
X117572564Y-151132962D01*
X117712962Y-150992564D01*
X117712967Y-150992557D01*
X117823277Y-150827466D01*
X117899260Y-150644028D01*
X117899262Y-150644023D01*
X117937999Y-150449281D01*
X117938000Y-150449277D01*
X117938000Y-150354000D01*
X117230000Y-150354000D01*
X117230000Y-149934307D01*
X119549499Y-149934307D01*
X119580201Y-150048886D01*
X119639508Y-150151609D01*
X119639516Y-150151619D01*
X119723380Y-150235483D01*
X119723385Y-150235487D01*
X119723387Y-150235489D01*
X119826114Y-150294799D01*
X119940691Y-150325500D01*
X119940693Y-150325500D01*
X120059307Y-150325500D01*
X120059309Y-150325500D01*
X120173886Y-150294799D01*
X120276613Y-150235489D01*
X120360489Y-150151613D01*
X120419799Y-150048886D01*
X120450500Y-149934309D01*
X120450500Y-149615691D01*
X120419799Y-149501114D01*
X120360489Y-149398387D01*
X120360487Y-149398385D01*
X120360483Y-149398380D01*
X120276619Y-149314516D01*
X120276609Y-149314508D01*
X120173886Y-149255201D01*
X120146653Y-149247904D01*
X120059309Y-149224500D01*
X119940691Y-149224500D01*
X119864306Y-149244967D01*
X119826113Y-149255201D01*
X119723390Y-149314508D01*
X119723380Y-149314516D01*
X119639516Y-149398380D01*
X119639508Y-149398390D01*
X119580201Y-149501113D01*
X119549500Y-149615692D01*
X119549500Y-149934307D01*
X119549499Y-149934307D01*
X117230000Y-149934307D01*
X117230000Y-149846000D01*
X117938000Y-149846000D01*
X117938000Y-149750722D01*
X117937999Y-149750718D01*
X117899260Y-149555969D01*
X117899138Y-149555564D01*
X117899136Y-149555341D01*
X117898055Y-149549907D01*
X117899086Y-149549701D01*
X117898511Y-149484570D01*
X117936366Y-149424508D01*
X118000684Y-149394446D01*
X118019716Y-149393000D01*
X118448585Y-149393000D01*
X118448597Y-149392999D01*
X118509093Y-149386494D01*
X118645964Y-149335444D01*
X118645965Y-149335444D01*
X118762904Y-149247904D01*
X118850444Y-149130965D01*
X118850444Y-149130964D01*
X118901494Y-148994093D01*
X118907999Y-148933597D01*
X121092000Y-148933597D01*
X121098505Y-148994093D01*
X121149555Y-149130964D01*
X121149555Y-149130965D01*
X121237095Y-149247904D01*
X121354034Y-149335444D01*
X121490906Y-149386494D01*
X121551402Y-149392999D01*
X121551415Y-149393000D01*
X121980284Y-149393000D01*
X122048405Y-149413002D01*
X122094898Y-149466658D01*
X122105002Y-149536932D01*
X122100862Y-149555564D01*
X122100739Y-149555969D01*
X122062000Y-149750718D01*
X122062000Y-149846000D01*
X122770000Y-149846000D01*
X122770000Y-150354000D01*
X122062000Y-150354000D01*
X122062000Y-150449281D01*
X122100737Y-150644023D01*
X122100739Y-150644028D01*
X122176722Y-150827466D01*
X122287032Y-150992557D01*
X122287037Y-150992564D01*
X122427435Y-151132962D01*
X122427442Y-151132967D01*
X122592533Y-151243277D01*
X122775971Y-151319260D01*
X122775976Y-151319262D01*
X122815999Y-151327223D01*
X122816000Y-151327223D01*
X122816000Y-150510060D01*
X122829940Y-150534205D01*
X122885795Y-150590060D01*
X122954204Y-150629556D01*
X123030504Y-150650000D01*
X123109496Y-150650000D01*
X123185796Y-150629556D01*
X123254205Y-150590060D01*
X123310060Y-150534205D01*
X123324000Y-150510060D01*
X123324000Y-151327223D01*
X123364023Y-151319262D01*
X123364028Y-151319260D01*
X123547466Y-151243277D01*
X123712557Y-151132967D01*
X123712564Y-151132962D01*
X123852962Y-150992564D01*
X123852967Y-150992557D01*
X123963277Y-150827466D01*
X124039260Y-150644028D01*
X124039262Y-150644023D01*
X124077999Y-150449281D01*
X124078000Y-150449277D01*
X124078000Y-150354000D01*
X123370000Y-150354000D01*
X123370000Y-149846000D01*
X124078000Y-149846000D01*
X124078000Y-149750722D01*
X124077999Y-149750718D01*
X124039262Y-149555976D01*
X124039260Y-149555971D01*
X123963277Y-149372533D01*
X123852967Y-149207442D01*
X123852962Y-149207435D01*
X123712564Y-149067037D01*
X123712557Y-149067032D01*
X123563998Y-148967767D01*
X123518470Y-148913290D01*
X123513784Y-148890783D01*
X123508001Y-148885000D01*
X121092000Y-148885000D01*
X121092000Y-148933597D01*
X118907999Y-148933597D01*
X118908000Y-148933585D01*
X118908000Y-148885000D01*
X116491999Y-148885000D01*
X116482856Y-148894142D01*
X116471998Y-148931123D01*
X116436002Y-148967767D01*
X116287442Y-149067032D01*
X116287435Y-149067037D01*
X116147037Y-149207435D01*
X116147032Y-149207442D01*
X116036722Y-149372533D01*
X115960739Y-149555971D01*
X115960737Y-149555976D01*
X115922000Y-149750718D01*
X110108500Y-149750718D01*
X110108500Y-148658498D01*
X110102306Y-148569260D01*
X110053150Y-148360261D01*
X109966427Y-148163854D01*
X109845092Y-147986725D01*
X109845091Y-147986724D01*
X109845088Y-147986720D01*
X109693279Y-147834911D01*
X109693275Y-147834908D01*
X109516145Y-147713572D01*
X109319740Y-147626850D01*
X109110741Y-147577694D01*
X109021503Y-147571500D01*
X109021502Y-147571500D01*
X107578498Y-147571500D01*
X107578496Y-147571500D01*
X107489259Y-147577694D01*
X107489256Y-147577694D01*
X107280259Y-147626850D01*
X107083854Y-147713572D01*
X106906724Y-147834908D01*
X106906720Y-147834911D01*
X106754911Y-147986720D01*
X106754908Y-147986724D01*
X106633572Y-148163854D01*
X106550655Y-148351643D01*
X106546850Y-148360261D01*
X106536387Y-148404748D01*
X106506363Y-148532398D01*
X106471295Y-148594129D01*
X106408420Y-148627102D01*
X106337700Y-148620848D01*
X106294615Y-148592644D01*
X105345405Y-147643434D01*
X105311379Y-147581122D01*
X105308500Y-147554339D01*
X105308500Y-140358496D01*
X106491500Y-140358496D01*
X106491500Y-141801503D01*
X106497694Y-141890740D01*
X106497694Y-141890743D01*
X106546850Y-142099740D01*
X106633572Y-142296145D01*
X106754908Y-142473275D01*
X106754911Y-142473279D01*
X106906720Y-142625088D01*
X106906724Y-142625091D01*
X106906725Y-142625092D01*
X107083854Y-142746427D01*
X107280261Y-142833150D01*
X107489260Y-142882306D01*
X107578498Y-142888500D01*
X107578504Y-142888500D01*
X109021496Y-142888500D01*
X109021502Y-142888500D01*
X109110740Y-142882306D01*
X109319739Y-142833150D01*
X109516146Y-142746427D01*
X109693275Y-142625092D01*
X109845092Y-142473275D01*
X109966427Y-142296146D01*
X110053150Y-142099739D01*
X110102306Y-141890740D01*
X110108500Y-141801502D01*
X110108500Y-141550718D01*
X115922000Y-141550718D01*
X115922000Y-141646000D01*
X116630000Y-141646000D01*
X116630000Y-142154000D01*
X115922000Y-142154000D01*
X115922000Y-142249281D01*
X115960737Y-142444023D01*
X115960739Y-142444028D01*
X116036722Y-142627466D01*
X116147032Y-142792557D01*
X116147037Y-142792564D01*
X116287435Y-142932962D01*
X116287442Y-142932967D01*
X116436002Y-143032232D01*
X116481530Y-143086709D01*
X116486216Y-143109217D01*
X116491999Y-143115000D01*
X118908000Y-143115000D01*
X118908000Y-143066414D01*
X118907999Y-143066402D01*
X118901494Y-143005906D01*
X118850444Y-142869035D01*
X118850444Y-142869034D01*
X118762904Y-142752095D01*
X118645965Y-142664555D01*
X118509093Y-142613505D01*
X118448597Y-142607000D01*
X118019716Y-142607000D01*
X117951595Y-142586998D01*
X117905102Y-142533342D01*
X117894998Y-142463068D01*
X117899138Y-142444436D01*
X117899260Y-142444030D01*
X117911140Y-142384307D01*
X119549499Y-142384307D01*
X119580201Y-142498886D01*
X119639508Y-142601609D01*
X119639516Y-142601619D01*
X119723380Y-142685483D01*
X119723385Y-142685487D01*
X119723387Y-142685489D01*
X119826114Y-142744799D01*
X119940691Y-142775500D01*
X119940693Y-142775500D01*
X120059307Y-142775500D01*
X120059309Y-142775500D01*
X120173886Y-142744799D01*
X120276613Y-142685489D01*
X120360489Y-142601613D01*
X120419799Y-142498886D01*
X120450500Y-142384309D01*
X120450500Y-142065691D01*
X120419799Y-141951114D01*
X120360489Y-141848387D01*
X120360487Y-141848385D01*
X120360483Y-141848380D01*
X120276619Y-141764516D01*
X120276609Y-141764508D01*
X120173886Y-141705201D01*
X120059309Y-141674500D01*
X119940691Y-141674500D01*
X119864306Y-141694967D01*
X119826113Y-141705201D01*
X119723390Y-141764508D01*
X119723380Y-141764516D01*
X119639516Y-141848380D01*
X119639508Y-141848390D01*
X119580201Y-141951113D01*
X119549500Y-142065692D01*
X119549500Y-142384307D01*
X119549499Y-142384307D01*
X117911140Y-142384307D01*
X117937999Y-142249281D01*
X117938000Y-142249277D01*
X117938000Y-142154000D01*
X117230000Y-142154000D01*
X117230000Y-141646000D01*
X117938000Y-141646000D01*
X117938000Y-141550722D01*
X117937999Y-141550718D01*
X117899262Y-141355976D01*
X117899260Y-141355971D01*
X117823277Y-141172533D01*
X117712967Y-141007442D01*
X117712962Y-141007435D01*
X117572564Y-140867037D01*
X117572557Y-140867032D01*
X117407467Y-140756722D01*
X117224020Y-140680736D01*
X117224015Y-140680735D01*
X117184000Y-140672774D01*
X117184000Y-141489939D01*
X117170060Y-141465795D01*
X117114205Y-141409940D01*
X117045796Y-141370444D01*
X116969496Y-141350000D01*
X116890504Y-141350000D01*
X116814204Y-141370444D01*
X116745795Y-141409940D01*
X116689940Y-141465795D01*
X116676000Y-141489939D01*
X116676000Y-140672775D01*
X116675999Y-140672774D01*
X116635984Y-140680735D01*
X116635979Y-140680736D01*
X116452532Y-140756722D01*
X116287442Y-140867032D01*
X116287435Y-140867037D01*
X116147037Y-141007435D01*
X116147032Y-141007442D01*
X116036722Y-141172533D01*
X115960739Y-141355971D01*
X115960737Y-141355976D01*
X115922000Y-141550718D01*
X110108500Y-141550718D01*
X110108500Y-140358498D01*
X110102306Y-140269260D01*
X110053150Y-140060261D01*
X109966427Y-139863854D01*
X109845092Y-139686725D01*
X109845091Y-139686724D01*
X109845088Y-139686720D01*
X109693279Y-139534911D01*
X109693275Y-139534908D01*
X109516145Y-139413572D01*
X109319740Y-139326850D01*
X109110741Y-139277694D01*
X109021503Y-139271500D01*
X109021502Y-139271500D01*
X107578498Y-139271500D01*
X107578496Y-139271500D01*
X107489259Y-139277694D01*
X107489256Y-139277694D01*
X107280259Y-139326850D01*
X107083854Y-139413572D01*
X106906724Y-139534908D01*
X106906720Y-139534911D01*
X106754911Y-139686720D01*
X106754908Y-139686724D01*
X106633572Y-139863854D01*
X106546850Y-140060259D01*
X106497694Y-140269256D01*
X106497694Y-140269259D01*
X106491500Y-140358496D01*
X105308500Y-140358496D01*
X105308500Y-139230220D01*
X105308499Y-139230216D01*
X105281273Y-139093338D01*
X105249086Y-139015632D01*
X105227865Y-138964399D01*
X105150328Y-138848357D01*
X105150323Y-138848351D01*
X103371299Y-137069328D01*
X103360745Y-137050000D01*
X115237337Y-137050000D01*
X115255960Y-137286632D01*
X115311371Y-137517437D01*
X115402208Y-137736738D01*
X115516896Y-137923890D01*
X115516897Y-137923890D01*
X116225016Y-137215771D01*
X116237482Y-137262292D01*
X116309890Y-137387708D01*
X116412292Y-137490110D01*
X116537708Y-137562518D01*
X116584226Y-137574982D01*
X115876107Y-138283101D01*
X115876108Y-138283102D01*
X116063261Y-138397791D01*
X116282562Y-138488628D01*
X116513367Y-138544039D01*
X116750000Y-138562662D01*
X116986632Y-138544039D01*
X117217437Y-138488628D01*
X117436738Y-138397791D01*
X117623890Y-138283102D01*
X117623891Y-138283102D01*
X116915772Y-137574982D01*
X116962292Y-137562518D01*
X117087708Y-137490110D01*
X117190110Y-137387708D01*
X117262518Y-137262292D01*
X117274983Y-137215772D01*
X117983102Y-137923891D01*
X117983102Y-137923890D01*
X118097791Y-137736738D01*
X118188628Y-137517437D01*
X118244039Y-137286632D01*
X118262662Y-137050000D01*
X121737337Y-137050000D01*
X121755960Y-137286632D01*
X121811371Y-137517437D01*
X121902208Y-137736738D01*
X122016896Y-137923890D01*
X122016897Y-137923890D01*
X122725016Y-137215771D01*
X122737482Y-137262292D01*
X122809890Y-137387708D01*
X122912292Y-137490110D01*
X123037708Y-137562518D01*
X123084226Y-137574982D01*
X122376107Y-138283101D01*
X122376108Y-138283102D01*
X122563261Y-138397791D01*
X122782562Y-138488628D01*
X123013367Y-138544039D01*
X123250000Y-138562662D01*
X123486632Y-138544039D01*
X123717437Y-138488628D01*
X123936738Y-138397791D01*
X124123890Y-138283102D01*
X124123891Y-138283102D01*
X123415772Y-137574982D01*
X123462292Y-137562518D01*
X123587708Y-137490110D01*
X123690110Y-137387708D01*
X123762518Y-137262292D01*
X123774983Y-137215772D01*
X124483102Y-137923891D01*
X124483102Y-137923890D01*
X124597791Y-137736738D01*
X124688628Y-137517437D01*
X124744039Y-137286632D01*
X124762662Y-137050000D01*
X124744039Y-136813367D01*
X124688628Y-136582562D01*
X124597791Y-136363261D01*
X124483102Y-136176108D01*
X124483101Y-136176107D01*
X123774982Y-136884226D01*
X123762518Y-136837708D01*
X123690110Y-136712292D01*
X123587708Y-136609890D01*
X123462292Y-136537482D01*
X123415771Y-136525016D01*
X124123890Y-135816897D01*
X124123890Y-135816896D01*
X123936738Y-135702208D01*
X123717437Y-135611371D01*
X123486632Y-135555960D01*
X123250000Y-135537337D01*
X123013367Y-135555960D01*
X122782562Y-135611371D01*
X122563266Y-135702206D01*
X122376108Y-135816897D01*
X122376108Y-135816898D01*
X123084227Y-136525017D01*
X123037708Y-136537482D01*
X122912292Y-136609890D01*
X122809890Y-136712292D01*
X122737482Y-136837708D01*
X122725017Y-136884227D01*
X122016898Y-136176108D01*
X122016897Y-136176108D01*
X121902206Y-136363266D01*
X121811371Y-136582562D01*
X121755960Y-136813367D01*
X121737337Y-137050000D01*
X118262662Y-137050000D01*
X118244039Y-136813367D01*
X118188628Y-136582562D01*
X118097791Y-136363261D01*
X117983102Y-136176108D01*
X117983101Y-136176107D01*
X117274982Y-136884226D01*
X117262518Y-136837708D01*
X117190110Y-136712292D01*
X117087708Y-136609890D01*
X116962292Y-136537482D01*
X116915771Y-136525016D01*
X117623890Y-135816897D01*
X117623890Y-135816896D01*
X117436738Y-135702208D01*
X117217437Y-135611371D01*
X116986632Y-135555960D01*
X116750000Y-135537337D01*
X116513367Y-135555960D01*
X116282562Y-135611371D01*
X116063266Y-135702206D01*
X115876108Y-135816897D01*
X115876108Y-135816898D01*
X116584227Y-136525017D01*
X116537708Y-136537482D01*
X116412292Y-136609890D01*
X116309890Y-136712292D01*
X116237482Y-136837708D01*
X116225017Y-136884227D01*
X115516898Y-136176108D01*
X115516897Y-136176108D01*
X115402206Y-136363266D01*
X115311371Y-136582562D01*
X115255960Y-136813367D01*
X115237337Y-137050000D01*
X103360745Y-137050000D01*
X103337274Y-137007016D01*
X103338250Y-136949299D01*
X103344563Y-136924371D01*
X103344564Y-136924368D01*
X103363156Y-136700000D01*
X103344564Y-136475632D01*
X103289296Y-136257384D01*
X103198860Y-136051209D01*
X103192140Y-136040924D01*
X103075724Y-135862734D01*
X103075720Y-135862729D01*
X102923237Y-135697091D01*
X102813104Y-135611371D01*
X102745576Y-135558811D01*
X102712319Y-135540813D01*
X102661929Y-135490802D01*
X102646576Y-135421485D01*
X102671136Y-135354872D01*
X102712320Y-135319186D01*
X102745576Y-135301189D01*
X102923240Y-135162906D01*
X103075722Y-134997268D01*
X103198860Y-134808791D01*
X103289296Y-134602616D01*
X103344564Y-134384368D01*
X103363156Y-134160000D01*
X103344564Y-133935632D01*
X103302202Y-133768348D01*
X103289297Y-133717387D01*
X103289296Y-133717386D01*
X103289296Y-133717384D01*
X103198860Y-133511209D01*
X103192140Y-133500924D01*
X103075724Y-133322734D01*
X103075720Y-133322729D01*
X102923237Y-133157091D01*
X102828757Y-133083554D01*
X102745576Y-133018811D01*
X102743327Y-133017594D01*
X102712320Y-133000814D01*
X102661929Y-132950802D01*
X102646576Y-132881485D01*
X102671136Y-132814872D01*
X102712320Y-132779186D01*
X102712847Y-132778901D01*
X102745576Y-132761189D01*
X102923240Y-132622906D01*
X103075722Y-132457268D01*
X103198860Y-132268791D01*
X103289296Y-132062616D01*
X103344564Y-131844368D01*
X103363156Y-131620000D01*
X103344564Y-131395632D01*
X103344562Y-131395624D01*
X103289297Y-131177387D01*
X103289296Y-131177386D01*
X103289296Y-131177384D01*
X103198860Y-130971209D01*
X103130385Y-130866400D01*
X103075724Y-130782734D01*
X103075720Y-130782729D01*
X102954217Y-130650744D01*
X102923240Y-130617094D01*
X102923239Y-130617093D01*
X102923237Y-130617091D01*
X102841382Y-130553381D01*
X102745576Y-130478811D01*
X102712319Y-130460813D01*
X102661929Y-130410802D01*
X102646576Y-130341485D01*
X102671136Y-130274872D01*
X102712320Y-130239186D01*
X102745576Y-130221189D01*
X102923240Y-130082906D01*
X103075722Y-129917268D01*
X103198860Y-129728791D01*
X103289296Y-129522616D01*
X103344564Y-129304368D01*
X103363156Y-129080000D01*
X103344564Y-128855632D01*
X103333835Y-128813263D01*
X103289297Y-128637387D01*
X103289296Y-128637386D01*
X103289296Y-128637384D01*
X103198860Y-128431209D01*
X103192140Y-128420924D01*
X103075724Y-128242734D01*
X103075720Y-128242729D01*
X102923237Y-128077091D01*
X102841382Y-128013381D01*
X102745576Y-127938811D01*
X102712319Y-127920813D01*
X102661929Y-127870802D01*
X102646576Y-127801485D01*
X102671136Y-127734872D01*
X102712320Y-127699186D01*
X102745576Y-127681189D01*
X102923240Y-127542906D01*
X103075722Y-127377268D01*
X103198860Y-127188791D01*
X103289296Y-126982616D01*
X103344564Y-126764368D01*
X103359500Y-126584112D01*
X103385060Y-126517878D01*
X103442371Y-126475974D01*
X103513240Y-126471708D01*
X103574162Y-126505422D01*
X109988510Y-132919769D01*
X110080231Y-133011490D01*
X110188083Y-133083555D01*
X110307923Y-133133194D01*
X110435143Y-133158500D01*
X115285070Y-133158500D01*
X115353191Y-133178502D01*
X115399684Y-133232158D01*
X115401460Y-133236239D01*
X115401760Y-133236963D01*
X115505558Y-133406344D01*
X115525825Y-133439417D01*
X115525826Y-133439419D01*
X115680030Y-133619969D01*
X115853760Y-133768348D01*
X115860584Y-133774176D01*
X116063037Y-133898240D01*
X116282406Y-133989105D01*
X116513289Y-134044535D01*
X116750000Y-134063165D01*
X116986711Y-134044535D01*
X117217594Y-133989105D01*
X117436963Y-133898240D01*
X117639416Y-133774176D01*
X117819969Y-133619969D01*
X117974176Y-133439416D01*
X118098240Y-133236963D01*
X118098521Y-133236284D01*
X118098694Y-133236068D01*
X118100484Y-133232557D01*
X118101221Y-133232932D01*
X118143065Y-133181004D01*
X118210427Y-133158580D01*
X118214930Y-133158500D01*
X121785070Y-133158500D01*
X121853191Y-133178502D01*
X121899684Y-133232158D01*
X121901460Y-133236239D01*
X121901760Y-133236963D01*
X122005558Y-133406344D01*
X122025825Y-133439417D01*
X122025826Y-133439419D01*
X122180030Y-133619969D01*
X122353760Y-133768348D01*
X122360584Y-133774176D01*
X122563037Y-133898240D01*
X122782406Y-133989105D01*
X123013289Y-134044535D01*
X123250000Y-134063165D01*
X123486711Y-134044535D01*
X123717594Y-133989105D01*
X123936963Y-133898240D01*
X124139416Y-133774176D01*
X124319969Y-133619969D01*
X124474176Y-133439416D01*
X124598240Y-133236963D01*
X124689105Y-133017594D01*
X124744535Y-132786711D01*
X124763165Y-132550000D01*
X124744535Y-132313289D01*
X124689105Y-132082406D01*
X124598240Y-131863037D01*
X124474176Y-131660584D01*
X124439514Y-131620000D01*
X124319969Y-131480030D01*
X124139419Y-131325826D01*
X124139417Y-131325825D01*
X124139416Y-131325824D01*
X123936963Y-131201760D01*
X123878515Y-131177550D01*
X123717592Y-131110894D01*
X123559651Y-131072976D01*
X123486711Y-131055465D01*
X123250000Y-131036835D01*
X123013289Y-131055465D01*
X122782407Y-131110894D01*
X122563038Y-131201759D01*
X122360582Y-131325825D01*
X122360580Y-131325826D01*
X122180030Y-131480030D01*
X122025826Y-131660580D01*
X122025818Y-131660591D01*
X121951826Y-131781335D01*
X121899178Y-131828967D01*
X121844394Y-131841500D01*
X118155606Y-131841500D01*
X118087485Y-131821498D01*
X118048174Y-131781335D01*
X117974181Y-131660591D01*
X117974173Y-131660580D01*
X117819969Y-131480030D01*
X117639419Y-131325826D01*
X117639417Y-131325825D01*
X117639416Y-131325824D01*
X117436963Y-131201760D01*
X117378515Y-131177550D01*
X117217592Y-131110894D01*
X117059651Y-131072976D01*
X116986711Y-131055465D01*
X116750000Y-131036835D01*
X116513289Y-131055465D01*
X116282407Y-131110894D01*
X116063038Y-131201759D01*
X115860582Y-131325825D01*
X115860580Y-131325826D01*
X115680030Y-131480030D01*
X115525826Y-131660580D01*
X115525818Y-131660591D01*
X115451826Y-131781335D01*
X115399178Y-131828967D01*
X115344394Y-131841500D01*
X110824949Y-131841500D01*
X110756828Y-131821498D01*
X110735854Y-131804595D01*
X106159857Y-127228597D01*
X110742000Y-127228597D01*
X110748505Y-127289093D01*
X110799555Y-127425964D01*
X110799555Y-127425965D01*
X110887095Y-127542904D01*
X111004034Y-127630444D01*
X111140906Y-127681494D01*
X111201402Y-127687999D01*
X111201415Y-127688000D01*
X112246000Y-127688000D01*
X112754000Y-127688000D01*
X113798585Y-127688000D01*
X113798597Y-127687999D01*
X113859093Y-127681494D01*
X113995964Y-127630444D01*
X113995965Y-127630444D01*
X114112904Y-127542904D01*
X114200444Y-127425965D01*
X114200444Y-127425964D01*
X114251494Y-127289093D01*
X114257999Y-127228597D01*
X125742000Y-127228597D01*
X125748505Y-127289093D01*
X125799555Y-127425964D01*
X125799555Y-127425965D01*
X125887095Y-127542904D01*
X126004034Y-127630444D01*
X126140906Y-127681494D01*
X126201402Y-127687999D01*
X126201415Y-127688000D01*
X127246000Y-127688000D01*
X127754000Y-127688000D01*
X128798585Y-127688000D01*
X128798597Y-127687999D01*
X128859093Y-127681494D01*
X128995964Y-127630444D01*
X128995965Y-127630444D01*
X129112904Y-127542904D01*
X129200444Y-127425965D01*
X129200444Y-127425964D01*
X129251494Y-127289093D01*
X129257999Y-127228597D01*
X129258000Y-127228585D01*
X129258000Y-126934000D01*
X127754000Y-126934000D01*
X127754000Y-127688000D01*
X127246000Y-127688000D01*
X127246000Y-126934000D01*
X125742000Y-126934000D01*
X125742000Y-127228597D01*
X114257999Y-127228597D01*
X114258000Y-127228585D01*
X114258000Y-126934000D01*
X112754000Y-126934000D01*
X112754000Y-127688000D01*
X112246000Y-127688000D01*
X112246000Y-126934000D01*
X110742000Y-126934000D01*
X110742000Y-127228597D01*
X106159857Y-127228597D01*
X105561532Y-126630272D01*
X111750000Y-126630272D01*
X111750000Y-126729728D01*
X111788060Y-126821614D01*
X111858386Y-126891940D01*
X111950272Y-126930000D01*
X113049728Y-126930000D01*
X113141614Y-126891940D01*
X113211940Y-126821614D01*
X113250000Y-126729728D01*
X113250000Y-126630272D01*
X126750000Y-126630272D01*
X126750000Y-126729728D01*
X126788060Y-126821614D01*
X126858386Y-126891940D01*
X126950272Y-126930000D01*
X128049728Y-126930000D01*
X128141614Y-126891940D01*
X128211940Y-126821614D01*
X128250000Y-126729728D01*
X128250000Y-126630272D01*
X128211940Y-126538386D01*
X128141614Y-126468060D01*
X128049728Y-126430000D01*
X126950272Y-126430000D01*
X126858386Y-126468060D01*
X126788060Y-126538386D01*
X126750000Y-126630272D01*
X113250000Y-126630272D01*
X113211940Y-126538386D01*
X113141614Y-126468060D01*
X113049728Y-126430000D01*
X111950272Y-126430000D01*
X111858386Y-126468060D01*
X111788060Y-126538386D01*
X111750000Y-126630272D01*
X105561532Y-126630272D01*
X105062662Y-126131402D01*
X110742000Y-126131402D01*
X110742000Y-126426000D01*
X112246000Y-126426000D01*
X112754000Y-126426000D01*
X114258000Y-126426000D01*
X114258000Y-126131414D01*
X114257999Y-126131402D01*
X125742000Y-126131402D01*
X125742000Y-126426000D01*
X127246000Y-126426000D01*
X127754000Y-126426000D01*
X129258000Y-126426000D01*
X129258000Y-126131414D01*
X129257999Y-126131402D01*
X129251494Y-126070906D01*
X129200444Y-125934035D01*
X129200444Y-125934034D01*
X129112904Y-125817095D01*
X128995965Y-125729555D01*
X128859093Y-125678505D01*
X128798597Y-125672000D01*
X127754000Y-125672000D01*
X127754000Y-126426000D01*
X127246000Y-126426000D01*
X127246000Y-125672000D01*
X126201402Y-125672000D01*
X126140906Y-125678505D01*
X126004035Y-125729555D01*
X126004034Y-125729555D01*
X125887095Y-125817095D01*
X125799555Y-125934034D01*
X125799555Y-125934035D01*
X125748505Y-126070906D01*
X125742000Y-126131402D01*
X114257999Y-126131402D01*
X114251494Y-126070906D01*
X114200444Y-125934035D01*
X114200444Y-125934034D01*
X114112904Y-125817095D01*
X113995965Y-125729555D01*
X113859093Y-125678505D01*
X113798597Y-125672000D01*
X112754000Y-125672000D01*
X112754000Y-126426000D01*
X112246000Y-126426000D01*
X112246000Y-125672000D01*
X111201402Y-125672000D01*
X111140906Y-125678505D01*
X111004035Y-125729555D01*
X111004034Y-125729555D01*
X110887095Y-125817095D01*
X110799555Y-125934034D01*
X110799555Y-125934035D01*
X110748505Y-126070906D01*
X110742000Y-126131402D01*
X105062662Y-126131402D01*
X103395405Y-124464145D01*
X103361379Y-124401833D01*
X103358500Y-124375050D01*
X103358500Y-123101367D01*
X103358499Y-123101350D01*
X103351990Y-123040803D01*
X103351988Y-123040795D01*
X103309866Y-122927865D01*
X103300889Y-122903796D01*
X103300888Y-122903794D01*
X103300887Y-122903792D01*
X103213261Y-122786738D01*
X103096207Y-122699112D01*
X103096202Y-122699110D01*
X102959204Y-122648011D01*
X102959196Y-122648009D01*
X102898649Y-122641500D01*
X102898638Y-122641500D01*
X101534500Y-122641500D01*
X101466379Y-122621498D01*
X101419886Y-122567842D01*
X101408500Y-122515500D01*
X101408500Y-111714661D01*
X101428502Y-111646540D01*
X101482158Y-111600047D01*
X101552432Y-111589943D01*
X101617012Y-111619437D01*
G37*
G04 #@! TD.AperFunction*
G04 #@! TA.AperFunction,Conductor*
G36*
X139891621Y-44070502D02*
G01*
X139938114Y-44124158D01*
X139949500Y-44176500D01*
X139949500Y-127293653D01*
X139929498Y-127361774D01*
X139875842Y-127408267D01*
X139805568Y-127418371D01*
X139740988Y-127388877D01*
X139718738Y-127363659D01*
X139717078Y-127361175D01*
X139717074Y-127361170D01*
X139717072Y-127361167D01*
X139349866Y-126993961D01*
X139315840Y-126931649D01*
X139316816Y-126873936D01*
X139344564Y-126764368D01*
X139363156Y-126540000D01*
X139344564Y-126315632D01*
X139289296Y-126097384D01*
X139198860Y-125891209D01*
X139136764Y-125796164D01*
X139075724Y-125702734D01*
X139075719Y-125702729D01*
X138932524Y-125547179D01*
X138901103Y-125483514D01*
X138909090Y-125412968D01*
X138953948Y-125357939D01*
X138981183Y-125343789D01*
X139096204Y-125300889D01*
X139213261Y-125213261D01*
X139300889Y-125096204D01*
X139351989Y-124959201D01*
X139358500Y-124898638D01*
X139358500Y-123101362D01*
X139358499Y-123101350D01*
X139351990Y-123040803D01*
X139351988Y-123040795D01*
X139309866Y-122927865D01*
X139300889Y-122903796D01*
X139300888Y-122903794D01*
X139300887Y-122903792D01*
X139213261Y-122786738D01*
X139096207Y-122699112D01*
X139096202Y-122699110D01*
X138959204Y-122648011D01*
X138959196Y-122648009D01*
X138898649Y-122641500D01*
X138898638Y-122641500D01*
X137564661Y-122641500D01*
X137496540Y-122621498D01*
X137450047Y-122567842D01*
X137439943Y-122497568D01*
X137469437Y-122432988D01*
X137475566Y-122426405D01*
X138550323Y-121351647D01*
X138550322Y-121351647D01*
X138550328Y-121351642D01*
X138627865Y-121235601D01*
X138681273Y-121106661D01*
X138708500Y-120969781D01*
X138708500Y-120830218D01*
X138708500Y-89551644D01*
X138728502Y-89483523D01*
X138757109Y-89452213D01*
X138923234Y-89322911D01*
X138923235Y-89322909D01*
X138923240Y-89322906D01*
X139075722Y-89157268D01*
X139198860Y-88968791D01*
X139289296Y-88762616D01*
X139344564Y-88544368D01*
X139363156Y-88320000D01*
X139344564Y-88095632D01*
X139299804Y-87918878D01*
X139289297Y-87877387D01*
X139289296Y-87877386D01*
X139289296Y-87877384D01*
X139198860Y-87671209D01*
X139192140Y-87660924D01*
X139075724Y-87482734D01*
X139075720Y-87482729D01*
X138923237Y-87317091D01*
X138841382Y-87253381D01*
X138745576Y-87178811D01*
X138712319Y-87160813D01*
X138661929Y-87110802D01*
X138646576Y-87041485D01*
X138671136Y-86974872D01*
X138712320Y-86939186D01*
X138745576Y-86921189D01*
X138923240Y-86782906D01*
X139075722Y-86617268D01*
X139198860Y-86428791D01*
X139289296Y-86222616D01*
X139344564Y-86004368D01*
X139363156Y-85780000D01*
X139344564Y-85555632D01*
X139289296Y-85337384D01*
X139198860Y-85131209D01*
X139177640Y-85098729D01*
X139075724Y-84942734D01*
X139075720Y-84942729D01*
X138923237Y-84777091D01*
X138841382Y-84713381D01*
X138745576Y-84638811D01*
X138712319Y-84620813D01*
X138661929Y-84570802D01*
X138646576Y-84501485D01*
X138671136Y-84434872D01*
X138712320Y-84399186D01*
X138745576Y-84381189D01*
X138923240Y-84242906D01*
X139075722Y-84077268D01*
X139198860Y-83888791D01*
X139289296Y-83682616D01*
X139344564Y-83464368D01*
X139363156Y-83240000D01*
X139344564Y-83015632D01*
X139312541Y-82889175D01*
X139289297Y-82797387D01*
X139289296Y-82797386D01*
X139289296Y-82797384D01*
X139198860Y-82591209D01*
X139157988Y-82528649D01*
X139075724Y-82402734D01*
X139075720Y-82402729D01*
X138923237Y-82237091D01*
X138818503Y-82155573D01*
X138745576Y-82098811D01*
X138712319Y-82080813D01*
X138661929Y-82030802D01*
X138646576Y-81961485D01*
X138671136Y-81894872D01*
X138712320Y-81859186D01*
X138745576Y-81841189D01*
X138923240Y-81702906D01*
X139075722Y-81537268D01*
X139198860Y-81348791D01*
X139289296Y-81142616D01*
X139344564Y-80924368D01*
X139363156Y-80700000D01*
X139344564Y-80475632D01*
X139289296Y-80257384D01*
X139198860Y-80051209D01*
X139192140Y-80040924D01*
X139075724Y-79862734D01*
X139075720Y-79862729D01*
X138923237Y-79697091D01*
X138841382Y-79633381D01*
X138745576Y-79558811D01*
X138711792Y-79540528D01*
X138661402Y-79490516D01*
X138646050Y-79421199D01*
X138670610Y-79354586D01*
X138711793Y-79318901D01*
X138745300Y-79300767D01*
X138745301Y-79300767D01*
X138922902Y-79162534D01*
X139075325Y-78996958D01*
X139198419Y-78808548D01*
X139288820Y-78602456D01*
X139288823Y-78602449D01*
X139336544Y-78414000D01*
X138430703Y-78414000D01*
X138465925Y-78352993D01*
X138500000Y-78225826D01*
X138500000Y-78094174D01*
X138465925Y-77967007D01*
X138430703Y-77906000D01*
X139336544Y-77906000D01*
X139336544Y-77905999D01*
X139288823Y-77717550D01*
X139288820Y-77717543D01*
X139198419Y-77511451D01*
X139075325Y-77323041D01*
X138922902Y-77157465D01*
X138745301Y-77019232D01*
X138745300Y-77019231D01*
X138711791Y-77001097D01*
X138661401Y-76951083D01*
X138646050Y-76881766D01*
X138670612Y-76815153D01*
X138711790Y-76779472D01*
X138745576Y-76761189D01*
X138923240Y-76622906D01*
X139075722Y-76457268D01*
X139198860Y-76268791D01*
X139289296Y-76062616D01*
X139344564Y-75844368D01*
X139363156Y-75620000D01*
X139344564Y-75395632D01*
X139289296Y-75177384D01*
X139198860Y-74971209D01*
X139154686Y-74903595D01*
X139075724Y-74782734D01*
X139075720Y-74782729D01*
X138923237Y-74617091D01*
X138828380Y-74543261D01*
X138745576Y-74478811D01*
X138712319Y-74460813D01*
X138661929Y-74410802D01*
X138646576Y-74341485D01*
X138671136Y-74274872D01*
X138712320Y-74239186D01*
X138745576Y-74221189D01*
X138923240Y-74082906D01*
X139075722Y-73917268D01*
X139198860Y-73728791D01*
X139289296Y-73522616D01*
X139344564Y-73304368D01*
X139363156Y-73080000D01*
X139344564Y-72855632D01*
X139312819Y-72730273D01*
X139289297Y-72637387D01*
X139289296Y-72637386D01*
X139289296Y-72637384D01*
X139198860Y-72431209D01*
X139192140Y-72420924D01*
X139075724Y-72242734D01*
X139075720Y-72242729D01*
X138923237Y-72077091D01*
X138841382Y-72013381D01*
X138745576Y-71938811D01*
X138712319Y-71920813D01*
X138661929Y-71870802D01*
X138646576Y-71801485D01*
X138671136Y-71734872D01*
X138712320Y-71699186D01*
X138745576Y-71681189D01*
X138923240Y-71542906D01*
X139075722Y-71377268D01*
X139079879Y-71370906D01*
X139082441Y-71366983D01*
X139198860Y-71188791D01*
X139289296Y-70982616D01*
X139344564Y-70764368D01*
X139363156Y-70540000D01*
X139344564Y-70315632D01*
X139320024Y-70218727D01*
X139289297Y-70097387D01*
X139289296Y-70097386D01*
X139289296Y-70097384D01*
X139198860Y-69891209D01*
X139102201Y-69743261D01*
X139075724Y-69702734D01*
X139075719Y-69702729D01*
X138932524Y-69547179D01*
X138901103Y-69483514D01*
X138909090Y-69412968D01*
X138953948Y-69357939D01*
X138981183Y-69343789D01*
X139096204Y-69300889D01*
X139213261Y-69213261D01*
X139300889Y-69096204D01*
X139351989Y-68959201D01*
X139358500Y-68898638D01*
X139358500Y-67101362D01*
X139358499Y-67101350D01*
X139351990Y-67040803D01*
X139351988Y-67040795D01*
X139300889Y-66903797D01*
X139300887Y-66903792D01*
X139213261Y-66786738D01*
X139096207Y-66699112D01*
X139096202Y-66699110D01*
X138959204Y-66648011D01*
X138959196Y-66648009D01*
X138898649Y-66641500D01*
X138898638Y-66641500D01*
X138834500Y-66641500D01*
X138766379Y-66621498D01*
X138719886Y-66567842D01*
X138708500Y-66515500D01*
X138708500Y-52730220D01*
X138708499Y-52730216D01*
X138681273Y-52593338D01*
X138642644Y-52500080D01*
X138627865Y-52464399D01*
X138550328Y-52348357D01*
X138550323Y-52348351D01*
X136881648Y-50679676D01*
X136881642Y-50679671D01*
X136843137Y-50653943D01*
X136765601Y-50602135D01*
X136674427Y-50564369D01*
X136674426Y-50564368D01*
X136636669Y-50548729D01*
X136636663Y-50548727D01*
X136636662Y-50548727D01*
X136568221Y-50535113D01*
X136568220Y-50535112D01*
X136499787Y-50521500D01*
X136499782Y-50521500D01*
X136499781Y-50521500D01*
X135852790Y-50521500D01*
X135784669Y-50501498D01*
X135747026Y-50460913D01*
X135745834Y-50461693D01*
X135615314Y-50261916D01*
X135457225Y-50090186D01*
X135457221Y-50090182D01*
X135312497Y-49977539D01*
X135273017Y-49946810D01*
X135067727Y-49835713D01*
X135067724Y-49835712D01*
X135067723Y-49835711D01*
X134846955Y-49759921D01*
X134846948Y-49759919D01*
X134748411Y-49743476D01*
X134616712Y-49721500D01*
X134383288Y-49721500D01*
X134268066Y-49740727D01*
X134153051Y-49759919D01*
X134153044Y-49759921D01*
X133932276Y-49835711D01*
X133932273Y-49835713D01*
X133726985Y-49946809D01*
X133726983Y-49946810D01*
X133542778Y-50090182D01*
X133542774Y-50090186D01*
X133384685Y-50261916D01*
X133257015Y-50457331D01*
X133163252Y-50671089D01*
X133163249Y-50671096D01*
X133105950Y-50897366D01*
X133105949Y-50897372D01*
X133105949Y-50897374D01*
X133087779Y-51116657D01*
X133086673Y-51130000D01*
X133105950Y-51362633D01*
X133163249Y-51588903D01*
X133163252Y-51588910D01*
X133257015Y-51802668D01*
X133382536Y-51994793D01*
X133384686Y-51998083D01*
X133470209Y-52090985D01*
X133501629Y-52154648D01*
X133493642Y-52225194D01*
X133448784Y-52280223D01*
X133421541Y-52294376D01*
X133354037Y-52319554D01*
X133354034Y-52319555D01*
X133237095Y-52407095D01*
X133149555Y-52524034D01*
X133149555Y-52524035D01*
X133098505Y-52660906D01*
X133092000Y-52721402D01*
X133092000Y-53416000D01*
X134127032Y-53416000D01*
X134080667Y-53496306D01*
X134050000Y-53610756D01*
X134050000Y-53729244D01*
X134080667Y-53843694D01*
X134127032Y-53924000D01*
X133092000Y-53924000D01*
X133092000Y-54618597D01*
X133098505Y-54679093D01*
X133149555Y-54815964D01*
X133149555Y-54815965D01*
X133237095Y-54932904D01*
X133354034Y-55020444D01*
X133490906Y-55071494D01*
X133551402Y-55077999D01*
X133551415Y-55078000D01*
X134246000Y-55078000D01*
X134246000Y-54042968D01*
X134326306Y-54089333D01*
X134440756Y-54120000D01*
X134559244Y-54120000D01*
X134673694Y-54089333D01*
X134754000Y-54042968D01*
X134754000Y-55078000D01*
X135448585Y-55078000D01*
X135448597Y-55077999D01*
X135509093Y-55071494D01*
X135645964Y-55020444D01*
X135645965Y-55020444D01*
X135762904Y-54932904D01*
X135850444Y-54815965D01*
X135850444Y-54815964D01*
X135901494Y-54679093D01*
X135907999Y-54618597D01*
X135908000Y-54618585D01*
X135908000Y-53924000D01*
X134872968Y-53924000D01*
X134919333Y-53843694D01*
X134950000Y-53729244D01*
X134950000Y-53610756D01*
X134919333Y-53496306D01*
X134872968Y-53416000D01*
X135908000Y-53416000D01*
X135908000Y-52721414D01*
X135907999Y-52721402D01*
X135901494Y-52660906D01*
X135850444Y-52524035D01*
X135850444Y-52524034D01*
X135762904Y-52407095D01*
X135645965Y-52319555D01*
X135645960Y-52319553D01*
X135578459Y-52294376D01*
X135521623Y-52251829D01*
X135496813Y-52185309D01*
X135511905Y-52115935D01*
X135529784Y-52090991D01*
X135615314Y-51998083D01*
X135616943Y-51995588D01*
X135617875Y-51994793D01*
X135618517Y-51993969D01*
X135618686Y-51994100D01*
X135670944Y-51949499D01*
X135722429Y-51938500D01*
X136084339Y-51938500D01*
X136152460Y-51958502D01*
X136173434Y-51975405D01*
X137254595Y-53056566D01*
X137288621Y-53118878D01*
X137291500Y-53145661D01*
X137291500Y-62036149D01*
X137271498Y-62104270D01*
X137217842Y-62150763D01*
X137147568Y-62160867D01*
X137082988Y-62131373D01*
X137076405Y-62125244D01*
X134980837Y-60029676D01*
X134980831Y-60029671D01*
X134942326Y-60003943D01*
X134864790Y-59952135D01*
X134773616Y-59914369D01*
X134773615Y-59914368D01*
X134735858Y-59898729D01*
X134735852Y-59898727D01*
X134735851Y-59898727D01*
X134667410Y-59885113D01*
X134667409Y-59885112D01*
X134598976Y-59871500D01*
X134598971Y-59871500D01*
X134598970Y-59871500D01*
X129292184Y-59871500D01*
X129224063Y-59851498D01*
X129191318Y-59821011D01*
X129179399Y-59805089D01*
X129154590Y-59738570D01*
X129169682Y-59669196D01*
X129179401Y-59654073D01*
X129200446Y-59625960D01*
X129251494Y-59489093D01*
X129257999Y-59428597D01*
X129258000Y-59428585D01*
X129258000Y-59134000D01*
X125742000Y-59134000D01*
X125742000Y-59428597D01*
X125748505Y-59489093D01*
X125799554Y-59625963D01*
X125820598Y-59654073D01*
X125845409Y-59720594D01*
X125830318Y-59789968D01*
X125820598Y-59805092D01*
X125799112Y-59833792D01*
X125799110Y-59833797D01*
X125748011Y-59970795D01*
X125748009Y-59970803D01*
X125741500Y-60031350D01*
X125741500Y-61128649D01*
X125748009Y-61189196D01*
X125748011Y-61189204D01*
X125799110Y-61326202D01*
X125799112Y-61326207D01*
X125886738Y-61443261D01*
X126003792Y-61530887D01*
X126003794Y-61530888D01*
X126003796Y-61530889D01*
X126062875Y-61552924D01*
X126140795Y-61581988D01*
X126140803Y-61581990D01*
X126201350Y-61588499D01*
X126201355Y-61588499D01*
X126201362Y-61588500D01*
X126201368Y-61588500D01*
X128798632Y-61588500D01*
X128798638Y-61588500D01*
X128798645Y-61588499D01*
X128798649Y-61588499D01*
X128859196Y-61581990D01*
X128859199Y-61581989D01*
X128859201Y-61581989D01*
X128996204Y-61530889D01*
X129113261Y-61443261D01*
X129191317Y-61338991D01*
X129248153Y-61296444D01*
X129292185Y-61288500D01*
X134183528Y-61288500D01*
X134251649Y-61308502D01*
X134272623Y-61325405D01*
X135954595Y-63007377D01*
X135988621Y-63069689D01*
X135991500Y-63096472D01*
X135991500Y-63522968D01*
X135971498Y-63591089D01*
X135917842Y-63637582D01*
X135847568Y-63647686D01*
X135782988Y-63618192D01*
X135750113Y-63573584D01*
X135742984Y-63557331D01*
X135695514Y-63484672D01*
X135615314Y-63361916D01*
X135457225Y-63190186D01*
X135457221Y-63190182D01*
X135336822Y-63096472D01*
X135273017Y-63046810D01*
X135067727Y-62935713D01*
X135067724Y-62935712D01*
X135067723Y-62935711D01*
X134846955Y-62859921D01*
X134846948Y-62859919D01*
X134748411Y-62843476D01*
X134616712Y-62821500D01*
X134383288Y-62821500D01*
X134198887Y-62852270D01*
X134128405Y-62843753D01*
X134089057Y-62817086D01*
X133681643Y-62409672D01*
X133565601Y-62332135D01*
X133474427Y-62294369D01*
X133474426Y-62294368D01*
X133436669Y-62278729D01*
X133436663Y-62278727D01*
X133436662Y-62278727D01*
X133368221Y-62265113D01*
X133368220Y-62265112D01*
X133299787Y-62251500D01*
X133299782Y-62251500D01*
X133299781Y-62251500D01*
X111870219Y-62251500D01*
X111870216Y-62251500D01*
X111767558Y-62271920D01*
X111733338Y-62278727D01*
X111733336Y-62278727D01*
X111733335Y-62278728D01*
X111683990Y-62299168D01*
X111604399Y-62332135D01*
X111488362Y-62409669D01*
X111488355Y-62409674D01*
X106910934Y-66987095D01*
X106848622Y-67021121D01*
X106821839Y-67024000D01*
X105872968Y-67024000D01*
X105919333Y-66943694D01*
X105950000Y-66829244D01*
X105950000Y-66710756D01*
X105919333Y-66596306D01*
X105872968Y-66516000D01*
X106908000Y-66516000D01*
X106908000Y-65821414D01*
X106907999Y-65821402D01*
X106901494Y-65760906D01*
X106850444Y-65624035D01*
X106850444Y-65624034D01*
X106762904Y-65507095D01*
X106645965Y-65419555D01*
X106645960Y-65419553D01*
X106578459Y-65394376D01*
X106521623Y-65351829D01*
X106496813Y-65285309D01*
X106511905Y-65215935D01*
X106529784Y-65190991D01*
X106615314Y-65098083D01*
X106742984Y-64902669D01*
X106836749Y-64688907D01*
X106894051Y-64462626D01*
X106913327Y-64230000D01*
X106894051Y-63997374D01*
X106888193Y-63974240D01*
X106836750Y-63771096D01*
X106836747Y-63771089D01*
X106782617Y-63647686D01*
X106742984Y-63557331D01*
X106720534Y-63522968D01*
X106615314Y-63361916D01*
X106457225Y-63190186D01*
X106457221Y-63190182D01*
X106336822Y-63096472D01*
X106273017Y-63046810D01*
X106067727Y-62935713D01*
X106067724Y-62935712D01*
X106067723Y-62935711D01*
X105846955Y-62859921D01*
X105846948Y-62859919D01*
X105748411Y-62843476D01*
X105616712Y-62821500D01*
X105383288Y-62821500D01*
X105268066Y-62840727D01*
X105153051Y-62859919D01*
X105153044Y-62859921D01*
X104932276Y-62935711D01*
X104932273Y-62935713D01*
X104731655Y-63044282D01*
X104726985Y-63046809D01*
X104726983Y-63046810D01*
X104542778Y-63190182D01*
X104542774Y-63190186D01*
X104384685Y-63361916D01*
X104257015Y-63557331D01*
X104163252Y-63771089D01*
X104163249Y-63771096D01*
X104105950Y-63997366D01*
X104105950Y-63997371D01*
X104105949Y-63997374D01*
X104087779Y-64216657D01*
X104086673Y-64230000D01*
X104105950Y-64462633D01*
X104163249Y-64688903D01*
X104163252Y-64688910D01*
X104257015Y-64902668D01*
X104377085Y-65086450D01*
X104384686Y-65098083D01*
X104470209Y-65190985D01*
X104501629Y-65254648D01*
X104493642Y-65325194D01*
X104448784Y-65380223D01*
X104421541Y-65394376D01*
X104354037Y-65419554D01*
X104354034Y-65419555D01*
X104237095Y-65507095D01*
X104149555Y-65624034D01*
X104149555Y-65624035D01*
X104098505Y-65760906D01*
X104092000Y-65821402D01*
X104092000Y-66516000D01*
X105127032Y-66516000D01*
X105080667Y-66596306D01*
X105050000Y-66710756D01*
X105050000Y-66829244D01*
X105080667Y-66943694D01*
X105127032Y-67024000D01*
X104092000Y-67024000D01*
X104092000Y-67718597D01*
X104098505Y-67779093D01*
X104149555Y-67915964D01*
X104149555Y-67915965D01*
X104237095Y-68032904D01*
X104354034Y-68120444D01*
X104490906Y-68171494D01*
X104551402Y-68177999D01*
X104551415Y-68178000D01*
X105246000Y-68178000D01*
X105246000Y-67142968D01*
X105326306Y-67189333D01*
X105440756Y-67220000D01*
X105559244Y-67220000D01*
X105673694Y-67189333D01*
X105754000Y-67142968D01*
X105754000Y-68091839D01*
X105733998Y-68159960D01*
X105717095Y-68180934D01*
X105143434Y-68754595D01*
X105081122Y-68788621D01*
X105054339Y-68791500D01*
X103484500Y-68791500D01*
X103416379Y-68771498D01*
X103369886Y-68717842D01*
X103358500Y-68665500D01*
X103358500Y-67101367D01*
X103358499Y-67101350D01*
X103351990Y-67040803D01*
X103351988Y-67040795D01*
X103300889Y-66903797D01*
X103300887Y-66903792D01*
X103213261Y-66786738D01*
X103096207Y-66699112D01*
X103096202Y-66699110D01*
X102959204Y-66648011D01*
X102959196Y-66648009D01*
X102898649Y-66641500D01*
X102898638Y-66641500D01*
X102834500Y-66641500D01*
X102766379Y-66621498D01*
X102719886Y-66567842D01*
X102708500Y-66515500D01*
X102708500Y-60031350D01*
X110741500Y-60031350D01*
X110741500Y-61128649D01*
X110748009Y-61189196D01*
X110748011Y-61189204D01*
X110799110Y-61326202D01*
X110799112Y-61326207D01*
X110886738Y-61443261D01*
X111003792Y-61530887D01*
X111003794Y-61530888D01*
X111003796Y-61530889D01*
X111062875Y-61552924D01*
X111140795Y-61581988D01*
X111140803Y-61581990D01*
X111201350Y-61588499D01*
X111201355Y-61588499D01*
X111201362Y-61588500D01*
X111201368Y-61588500D01*
X113798632Y-61588500D01*
X113798638Y-61588500D01*
X113798645Y-61588499D01*
X113798649Y-61588499D01*
X113859196Y-61581990D01*
X113859199Y-61581989D01*
X113859201Y-61581989D01*
X113996204Y-61530889D01*
X114113261Y-61443261D01*
X114200889Y-61326204D01*
X114251989Y-61189201D01*
X114258500Y-61128638D01*
X114258500Y-60031362D01*
X114258319Y-60029676D01*
X114251990Y-59970803D01*
X114251988Y-59970795D01*
X114200890Y-59833798D01*
X114200889Y-59833797D01*
X114200889Y-59833796D01*
X114179400Y-59805090D01*
X114154590Y-59738572D01*
X114169681Y-59669198D01*
X114179401Y-59654073D01*
X114200446Y-59625960D01*
X114251494Y-59489093D01*
X114257999Y-59428597D01*
X114258000Y-59428585D01*
X114258000Y-59134000D01*
X110742000Y-59134000D01*
X110742000Y-59428597D01*
X110748505Y-59489093D01*
X110799554Y-59625963D01*
X110820598Y-59654073D01*
X110845409Y-59720594D01*
X110830318Y-59789968D01*
X110820598Y-59805092D01*
X110799112Y-59833792D01*
X110799110Y-59833797D01*
X110748011Y-59970795D01*
X110748009Y-59970803D01*
X110741500Y-60031350D01*
X102708500Y-60031350D01*
X102708500Y-58830272D01*
X111750000Y-58830272D01*
X111750000Y-58929728D01*
X111788060Y-59021614D01*
X111858386Y-59091940D01*
X111950272Y-59130000D01*
X113049728Y-59130000D01*
X113141614Y-59091940D01*
X113211940Y-59021614D01*
X113250000Y-58929728D01*
X113250000Y-58830272D01*
X126750000Y-58830272D01*
X126750000Y-58929728D01*
X126788060Y-59021614D01*
X126858386Y-59091940D01*
X126950272Y-59130000D01*
X128049728Y-59130000D01*
X128141614Y-59091940D01*
X128211940Y-59021614D01*
X128250000Y-58929728D01*
X128250000Y-58830272D01*
X128211940Y-58738386D01*
X128141614Y-58668060D01*
X128049728Y-58630000D01*
X126950272Y-58630000D01*
X126858386Y-58668060D01*
X126788060Y-58738386D01*
X126750000Y-58830272D01*
X113250000Y-58830272D01*
X113211940Y-58738386D01*
X113141614Y-58668060D01*
X113049728Y-58630000D01*
X111950272Y-58630000D01*
X111858386Y-58668060D01*
X111788060Y-58738386D01*
X111750000Y-58830272D01*
X102708500Y-58830272D01*
X102708500Y-58331402D01*
X110742000Y-58331402D01*
X110742000Y-58626000D01*
X112246000Y-58626000D01*
X112754000Y-58626000D01*
X114258000Y-58626000D01*
X114258000Y-58331414D01*
X114257999Y-58331402D01*
X125742000Y-58331402D01*
X125742000Y-58626000D01*
X127246000Y-58626000D01*
X127754000Y-58626000D01*
X129258000Y-58626000D01*
X129258000Y-58331414D01*
X129257999Y-58331402D01*
X129251494Y-58270906D01*
X129200444Y-58134035D01*
X129200444Y-58134034D01*
X129112904Y-58017095D01*
X128995965Y-57929555D01*
X128859093Y-57878505D01*
X128798597Y-57872000D01*
X127754000Y-57872000D01*
X127754000Y-58626000D01*
X127246000Y-58626000D01*
X127246000Y-57872000D01*
X126201402Y-57872000D01*
X126140906Y-57878505D01*
X126004035Y-57929555D01*
X126004034Y-57929555D01*
X125887095Y-58017095D01*
X125799555Y-58134034D01*
X125799555Y-58134035D01*
X125748505Y-58270906D01*
X125742000Y-58331402D01*
X114257999Y-58331402D01*
X114251494Y-58270906D01*
X114200444Y-58134035D01*
X114200444Y-58134034D01*
X114112904Y-58017095D01*
X113995965Y-57929555D01*
X113859093Y-57878505D01*
X113798597Y-57872000D01*
X112754000Y-57872000D01*
X112754000Y-58626000D01*
X112246000Y-58626000D01*
X112246000Y-57872000D01*
X111201402Y-57872000D01*
X111140906Y-57878505D01*
X111004035Y-57929555D01*
X111004034Y-57929555D01*
X110887095Y-58017095D01*
X110799555Y-58134034D01*
X110799555Y-58134035D01*
X110748505Y-58270906D01*
X110742000Y-58331402D01*
X102708500Y-58331402D01*
X102708500Y-55231350D01*
X110741500Y-55231350D01*
X110741500Y-56328649D01*
X110748009Y-56389196D01*
X110748011Y-56389204D01*
X110799110Y-56526202D01*
X110799112Y-56526207D01*
X110886738Y-56643261D01*
X111003792Y-56730887D01*
X111003794Y-56730888D01*
X111003796Y-56730889D01*
X111062875Y-56752924D01*
X111140795Y-56781988D01*
X111140803Y-56781990D01*
X111201350Y-56788499D01*
X111201355Y-56788499D01*
X111201362Y-56788500D01*
X111201368Y-56788500D01*
X113798632Y-56788500D01*
X113798638Y-56788500D01*
X113798645Y-56788499D01*
X113798649Y-56788499D01*
X113859196Y-56781990D01*
X113859199Y-56781989D01*
X113859201Y-56781989D01*
X113996204Y-56730889D01*
X114113261Y-56643261D01*
X114200889Y-56526204D01*
X114251989Y-56389201D01*
X114258500Y-56328638D01*
X114258500Y-55231362D01*
X114258499Y-55231350D01*
X125741500Y-55231350D01*
X125741500Y-56328649D01*
X125748009Y-56389196D01*
X125748011Y-56389204D01*
X125799110Y-56526202D01*
X125799112Y-56526207D01*
X125886738Y-56643261D01*
X126003792Y-56730887D01*
X126003794Y-56730888D01*
X126003796Y-56730889D01*
X126062875Y-56752924D01*
X126140795Y-56781988D01*
X126140803Y-56781990D01*
X126201350Y-56788499D01*
X126201355Y-56788499D01*
X126201362Y-56788500D01*
X126201368Y-56788500D01*
X128798632Y-56788500D01*
X128798638Y-56788500D01*
X128798645Y-56788499D01*
X128798649Y-56788499D01*
X128859196Y-56781990D01*
X128859199Y-56781989D01*
X128859201Y-56781989D01*
X128996204Y-56730889D01*
X129113261Y-56643261D01*
X129200889Y-56526204D01*
X129251989Y-56389201D01*
X129258500Y-56328638D01*
X129258500Y-55231362D01*
X129258499Y-55231350D01*
X129251990Y-55170803D01*
X129251988Y-55170795D01*
X129200889Y-55033797D01*
X129200887Y-55033792D01*
X129113261Y-54916738D01*
X128996207Y-54829112D01*
X128996202Y-54829110D01*
X128859204Y-54778011D01*
X128859196Y-54778009D01*
X128798649Y-54771500D01*
X128798638Y-54771500D01*
X126201362Y-54771500D01*
X126201350Y-54771500D01*
X126140803Y-54778009D01*
X126140795Y-54778011D01*
X126003797Y-54829110D01*
X126003792Y-54829112D01*
X125886738Y-54916738D01*
X125799112Y-55033792D01*
X125799110Y-55033797D01*
X125748011Y-55170795D01*
X125748009Y-55170803D01*
X125741500Y-55231350D01*
X114258499Y-55231350D01*
X114251990Y-55170803D01*
X114251988Y-55170795D01*
X114200889Y-55033797D01*
X114200887Y-55033792D01*
X114113261Y-54916738D01*
X113996207Y-54829112D01*
X113996202Y-54829110D01*
X113859204Y-54778011D01*
X113859196Y-54778009D01*
X113798649Y-54771500D01*
X113798638Y-54771500D01*
X111201362Y-54771500D01*
X111201350Y-54771500D01*
X111140803Y-54778009D01*
X111140795Y-54778011D01*
X111003797Y-54829110D01*
X111003792Y-54829112D01*
X110886738Y-54916738D01*
X110799112Y-55033792D01*
X110799110Y-55033797D01*
X110748011Y-55170795D01*
X110748009Y-55170803D01*
X110741500Y-55231350D01*
X102708500Y-55231350D01*
X102708500Y-51130000D01*
X104086673Y-51130000D01*
X104105950Y-51362633D01*
X104163249Y-51588903D01*
X104163252Y-51588910D01*
X104257015Y-51802668D01*
X104382536Y-51994793D01*
X104384686Y-51998083D01*
X104470209Y-52090985D01*
X104501629Y-52154648D01*
X104493642Y-52225194D01*
X104448784Y-52280223D01*
X104421541Y-52294376D01*
X104354037Y-52319554D01*
X104354034Y-52319555D01*
X104237095Y-52407095D01*
X104149555Y-52524034D01*
X104149555Y-52524035D01*
X104098505Y-52660906D01*
X104092000Y-52721402D01*
X104092000Y-53416000D01*
X105127032Y-53416000D01*
X105080667Y-53496306D01*
X105050000Y-53610756D01*
X105050000Y-53729244D01*
X105080667Y-53843694D01*
X105127032Y-53924000D01*
X104092000Y-53924000D01*
X104092000Y-54618597D01*
X104098505Y-54679093D01*
X104149555Y-54815964D01*
X104149555Y-54815965D01*
X104237095Y-54932904D01*
X104354034Y-55020444D01*
X104490906Y-55071494D01*
X104551402Y-55077999D01*
X104551415Y-55078000D01*
X105246000Y-55078000D01*
X105246000Y-54042968D01*
X105326306Y-54089333D01*
X105440756Y-54120000D01*
X105559244Y-54120000D01*
X105673694Y-54089333D01*
X105754000Y-54042968D01*
X105754000Y-55078000D01*
X106448585Y-55078000D01*
X106448597Y-55077999D01*
X106509093Y-55071494D01*
X106645964Y-55020444D01*
X106645965Y-55020444D01*
X106762904Y-54932904D01*
X106850444Y-54815965D01*
X106850444Y-54815964D01*
X106901494Y-54679093D01*
X106907999Y-54618597D01*
X106908000Y-54618585D01*
X106908000Y-53924000D01*
X105872968Y-53924000D01*
X105919333Y-53843694D01*
X105950000Y-53729244D01*
X105950000Y-53610756D01*
X105919333Y-53496306D01*
X105872968Y-53416000D01*
X106908000Y-53416000D01*
X106908000Y-52721414D01*
X106907999Y-52721402D01*
X106901494Y-52660906D01*
X106850444Y-52524035D01*
X106850444Y-52524034D01*
X106762904Y-52407095D01*
X106645965Y-52319555D01*
X106645960Y-52319553D01*
X106578459Y-52294376D01*
X106561804Y-52281908D01*
X110999500Y-52281908D01*
X110999500Y-52518092D01*
X111036447Y-52751368D01*
X111109432Y-52975992D01*
X111195883Y-53145661D01*
X111216659Y-53186436D01*
X111355484Y-53377512D01*
X111522487Y-53544515D01*
X111522490Y-53544517D01*
X111713567Y-53683343D01*
X111924008Y-53790568D01*
X112148632Y-53863553D01*
X112381908Y-53900500D01*
X112381911Y-53900500D01*
X112618089Y-53900500D01*
X112618092Y-53900500D01*
X112851368Y-53863553D01*
X113075992Y-53790568D01*
X113286433Y-53683343D01*
X113477510Y-53544517D01*
X113644517Y-53377510D01*
X113783343Y-53186433D01*
X113890568Y-52975992D01*
X113963553Y-52751368D01*
X114000500Y-52518092D01*
X114000500Y-52281908D01*
X125999500Y-52281908D01*
X125999500Y-52518092D01*
X126036447Y-52751368D01*
X126109432Y-52975992D01*
X126195883Y-53145661D01*
X126216659Y-53186436D01*
X126355484Y-53377512D01*
X126522487Y-53544515D01*
X126522490Y-53544517D01*
X126713567Y-53683343D01*
X126924008Y-53790568D01*
X127148632Y-53863553D01*
X127381908Y-53900500D01*
X127381911Y-53900500D01*
X127618089Y-53900500D01*
X127618092Y-53900500D01*
X127851368Y-53863553D01*
X128075992Y-53790568D01*
X128286433Y-53683343D01*
X128477510Y-53544517D01*
X128644517Y-53377510D01*
X128783343Y-53186433D01*
X128890568Y-52975992D01*
X128963553Y-52751368D01*
X129000500Y-52518092D01*
X129000500Y-52281908D01*
X128963553Y-52048632D01*
X128890568Y-51824008D01*
X128783343Y-51613567D01*
X128644517Y-51422490D01*
X128644515Y-51422487D01*
X128477512Y-51255484D01*
X128286436Y-51116659D01*
X128286435Y-51116658D01*
X128286433Y-51116657D01*
X128075992Y-51009432D01*
X127851368Y-50936447D01*
X127618092Y-50899500D01*
X127381908Y-50899500D01*
X127148632Y-50936447D01*
X127148629Y-50936447D01*
X127148628Y-50936448D01*
X126924008Y-51009432D01*
X126924006Y-51009433D01*
X126713563Y-51116659D01*
X126522487Y-51255484D01*
X126355484Y-51422487D01*
X126216659Y-51613563D01*
X126109433Y-51824006D01*
X126109432Y-51824008D01*
X126052873Y-51998079D01*
X126036447Y-52048632D01*
X125999500Y-52281908D01*
X114000500Y-52281908D01*
X113963553Y-52048632D01*
X113890568Y-51824008D01*
X113783343Y-51613567D01*
X113644517Y-51422490D01*
X113644515Y-51422487D01*
X113477512Y-51255484D01*
X113286436Y-51116659D01*
X113286435Y-51116658D01*
X113286433Y-51116657D01*
X113075992Y-51009432D01*
X112851368Y-50936447D01*
X112618092Y-50899500D01*
X112381908Y-50899500D01*
X112148632Y-50936447D01*
X112148629Y-50936447D01*
X112148628Y-50936448D01*
X111924008Y-51009432D01*
X111924006Y-51009433D01*
X111713563Y-51116659D01*
X111522487Y-51255484D01*
X111355484Y-51422487D01*
X111216659Y-51613563D01*
X111109433Y-51824006D01*
X111109432Y-51824008D01*
X111052873Y-51998079D01*
X111036447Y-52048632D01*
X110999500Y-52281908D01*
X106561804Y-52281908D01*
X106521623Y-52251829D01*
X106496813Y-52185309D01*
X106511905Y-52115935D01*
X106529784Y-52090991D01*
X106615314Y-51998083D01*
X106742984Y-51802669D01*
X106836749Y-51588907D01*
X106894051Y-51362626D01*
X106913327Y-51130000D01*
X106894051Y-50897374D01*
X106838923Y-50679676D01*
X106836750Y-50671096D01*
X106836747Y-50671089D01*
X106762357Y-50501498D01*
X106742984Y-50457331D01*
X106615314Y-50261916D01*
X106457225Y-50090186D01*
X106457221Y-50090182D01*
X106312497Y-49977539D01*
X106273017Y-49946810D01*
X106067727Y-49835713D01*
X106067724Y-49835712D01*
X106067723Y-49835711D01*
X105846955Y-49759921D01*
X105846948Y-49759919D01*
X105748411Y-49743476D01*
X105616712Y-49721500D01*
X105383288Y-49721500D01*
X105268066Y-49740727D01*
X105153051Y-49759919D01*
X105153044Y-49759921D01*
X104932276Y-49835711D01*
X104932273Y-49835713D01*
X104726985Y-49946809D01*
X104726983Y-49946810D01*
X104542778Y-50090182D01*
X104542774Y-50090186D01*
X104384685Y-50261916D01*
X104257015Y-50457331D01*
X104163252Y-50671089D01*
X104163249Y-50671096D01*
X104105950Y-50897366D01*
X104105949Y-50897372D01*
X104105949Y-50897374D01*
X104087779Y-51116657D01*
X104086673Y-51130000D01*
X102708500Y-51130000D01*
X102708500Y-50045660D01*
X102728502Y-49977539D01*
X102745405Y-49956565D01*
X105756565Y-46945405D01*
X105818877Y-46911379D01*
X105845660Y-46908500D01*
X110615500Y-46908500D01*
X110683621Y-46928502D01*
X110730114Y-46982158D01*
X110741500Y-47034500D01*
X110741500Y-48028649D01*
X110748009Y-48089196D01*
X110748011Y-48089204D01*
X110799110Y-48226202D01*
X110799112Y-48226207D01*
X110886738Y-48343261D01*
X111003792Y-48430887D01*
X111003794Y-48430888D01*
X111003796Y-48430889D01*
X111062875Y-48452924D01*
X111140795Y-48481988D01*
X111140803Y-48481990D01*
X111201350Y-48488499D01*
X111201355Y-48488499D01*
X111201362Y-48488500D01*
X111201368Y-48488500D01*
X113798632Y-48488500D01*
X113798638Y-48488500D01*
X113798645Y-48488499D01*
X113798649Y-48488499D01*
X113859196Y-48481990D01*
X113859199Y-48481989D01*
X113859201Y-48481989D01*
X113996204Y-48430889D01*
X114113261Y-48343261D01*
X114200889Y-48226204D01*
X114251989Y-48089201D01*
X114258500Y-48028638D01*
X114258500Y-47034500D01*
X114278502Y-46966379D01*
X114332158Y-46919886D01*
X114384500Y-46908500D01*
X125615500Y-46908500D01*
X125683621Y-46928502D01*
X125730114Y-46982158D01*
X125741500Y-47034500D01*
X125741500Y-48028649D01*
X125748009Y-48089196D01*
X125748011Y-48089204D01*
X125799110Y-48226202D01*
X125799112Y-48226207D01*
X125886738Y-48343261D01*
X126003792Y-48430887D01*
X126003794Y-48430888D01*
X126003796Y-48430889D01*
X126062875Y-48452924D01*
X126140795Y-48481988D01*
X126140803Y-48481990D01*
X126201350Y-48488499D01*
X126201355Y-48488499D01*
X126201362Y-48488500D01*
X126201368Y-48488500D01*
X128798632Y-48488500D01*
X128798638Y-48488500D01*
X128798645Y-48488499D01*
X128798649Y-48488499D01*
X128859196Y-48481990D01*
X128859199Y-48481989D01*
X128859201Y-48481989D01*
X128996204Y-48430889D01*
X129113261Y-48343261D01*
X129200889Y-48226204D01*
X129251989Y-48089201D01*
X129258500Y-48028638D01*
X129258500Y-46931362D01*
X129258193Y-46928502D01*
X129251990Y-46870803D01*
X129251988Y-46870795D01*
X129200889Y-46733797D01*
X129200887Y-46733792D01*
X129113261Y-46616738D01*
X128996207Y-46529112D01*
X128996202Y-46529110D01*
X128859204Y-46478011D01*
X128859196Y-46478009D01*
X128798649Y-46471500D01*
X128798638Y-46471500D01*
X127545661Y-46471500D01*
X127477540Y-46451498D01*
X127456570Y-46434599D01*
X126671643Y-45649672D01*
X126555601Y-45572135D01*
X126464427Y-45534369D01*
X126464426Y-45534368D01*
X126426669Y-45518729D01*
X126426663Y-45518727D01*
X126426662Y-45518727D01*
X126358221Y-45505113D01*
X126358220Y-45505112D01*
X126289787Y-45491500D01*
X126289782Y-45491500D01*
X126289781Y-45491500D01*
X105430219Y-45491500D01*
X105430216Y-45491500D01*
X105293337Y-45518727D01*
X105293332Y-45518729D01*
X105217807Y-45550013D01*
X105164399Y-45572135D01*
X105048353Y-45649675D01*
X105048351Y-45649677D01*
X101449676Y-49248351D01*
X101449671Y-49248357D01*
X101372134Y-49364400D01*
X101372133Y-49364401D01*
X101334369Y-49455573D01*
X101318726Y-49493339D01*
X101318725Y-49493342D01*
X101291500Y-49630213D01*
X101291500Y-66515500D01*
X101271498Y-66583621D01*
X101217842Y-66630114D01*
X101165500Y-66641500D01*
X101101350Y-66641500D01*
X101040803Y-66648009D01*
X101040795Y-66648011D01*
X100903797Y-66699110D01*
X100903792Y-66699112D01*
X100786738Y-66786738D01*
X100699112Y-66903792D01*
X100699110Y-66903797D01*
X100648011Y-67040795D01*
X100648009Y-67040803D01*
X100641500Y-67101350D01*
X100641500Y-68898649D01*
X100648009Y-68959196D01*
X100648011Y-68959204D01*
X100699110Y-69096202D01*
X100699112Y-69096207D01*
X100786738Y-69213261D01*
X100903791Y-69300886D01*
X100903792Y-69300886D01*
X100903796Y-69300889D01*
X101018810Y-69343787D01*
X101075642Y-69386332D01*
X101100453Y-69452852D01*
X101085362Y-69522226D01*
X101067475Y-69547179D01*
X100924280Y-69702729D01*
X100924275Y-69702734D01*
X100801141Y-69891206D01*
X100710703Y-70097386D01*
X100710702Y-70097387D01*
X100655437Y-70315624D01*
X100655436Y-70315630D01*
X100655436Y-70315632D01*
X100652615Y-70349676D01*
X100636844Y-70540000D01*
X100655437Y-70764375D01*
X100710702Y-70982612D01*
X100710703Y-70982613D01*
X100710704Y-70982616D01*
X100801140Y-71188791D01*
X100801141Y-71188793D01*
X100924275Y-71377265D01*
X100924279Y-71377270D01*
X101076762Y-71542908D01*
X101131331Y-71585381D01*
X101254424Y-71681189D01*
X101287680Y-71699186D01*
X101338071Y-71749200D01*
X101353423Y-71818516D01*
X101328862Y-71885129D01*
X101287680Y-71920813D01*
X101254426Y-71938810D01*
X101254424Y-71938811D01*
X101076762Y-72077091D01*
X100924279Y-72242729D01*
X100924275Y-72242734D01*
X100801141Y-72431206D01*
X100710703Y-72637386D01*
X100710702Y-72637387D01*
X100655437Y-72855624D01*
X100655437Y-72855627D01*
X100655436Y-72855632D01*
X100636844Y-73080000D01*
X100641100Y-73131367D01*
X100655437Y-73304375D01*
X100710702Y-73522612D01*
X100710703Y-73522613D01*
X100801141Y-73728793D01*
X100924275Y-73917265D01*
X100924279Y-73917270D01*
X101076762Y-74082908D01*
X101087389Y-74091179D01*
X101254424Y-74221189D01*
X101287680Y-74239186D01*
X101338071Y-74289200D01*
X101353423Y-74358516D01*
X101328862Y-74425129D01*
X101287680Y-74460813D01*
X101254426Y-74478810D01*
X101254424Y-74478811D01*
X101076762Y-74617091D01*
X100924279Y-74782729D01*
X100924275Y-74782734D01*
X100801141Y-74971206D01*
X100710703Y-75177386D01*
X100710702Y-75177387D01*
X100655437Y-75395624D01*
X100655436Y-75395630D01*
X100655436Y-75395632D01*
X100636844Y-75620000D01*
X100645910Y-75729412D01*
X100655437Y-75844375D01*
X100710702Y-76062612D01*
X100710703Y-76062613D01*
X100801141Y-76268793D01*
X100924275Y-76457265D01*
X100924279Y-76457270D01*
X101076762Y-76622908D01*
X101131331Y-76665381D01*
X101254424Y-76761189D01*
X101288205Y-76779470D01*
X101338596Y-76829482D01*
X101353949Y-76898799D01*
X101329389Y-76965412D01*
X101288209Y-77001096D01*
X101254704Y-77019228D01*
X101254698Y-77019232D01*
X101077097Y-77157465D01*
X100924674Y-77323041D01*
X100801580Y-77511451D01*
X100711179Y-77717543D01*
X100711176Y-77717550D01*
X100663455Y-77905999D01*
X100663456Y-77906000D01*
X101569297Y-77906000D01*
X101534075Y-77967007D01*
X101500000Y-78094174D01*
X101500000Y-78225826D01*
X101534075Y-78352993D01*
X101569297Y-78414000D01*
X100663455Y-78414000D01*
X100711176Y-78602449D01*
X100711179Y-78602456D01*
X100801580Y-78808548D01*
X100924674Y-78996958D01*
X101077097Y-79162534D01*
X101254698Y-79300767D01*
X101254704Y-79300771D01*
X101288207Y-79318902D01*
X101338597Y-79368915D01*
X101353949Y-79438232D01*
X101329388Y-79504845D01*
X101288207Y-79540528D01*
X101254430Y-79558807D01*
X101254424Y-79558811D01*
X101076762Y-79697091D01*
X100924279Y-79862729D01*
X100924275Y-79862734D01*
X100801141Y-80051206D01*
X100710703Y-80257386D01*
X100710702Y-80257387D01*
X100655437Y-80475624D01*
X100655436Y-80475630D01*
X100655436Y-80475632D01*
X100636844Y-80700000D01*
X100651684Y-80879093D01*
X100655437Y-80924375D01*
X100710702Y-81142612D01*
X100710703Y-81142613D01*
X100710704Y-81142616D01*
X100770229Y-81278321D01*
X100801141Y-81348793D01*
X100924275Y-81537265D01*
X100924279Y-81537270D01*
X101076762Y-81702908D01*
X101131331Y-81745381D01*
X101254424Y-81841189D01*
X101287680Y-81859186D01*
X101338071Y-81909200D01*
X101353423Y-81978516D01*
X101328862Y-82045129D01*
X101287680Y-82080813D01*
X101254426Y-82098810D01*
X101254424Y-82098811D01*
X101076762Y-82237091D01*
X100924279Y-82402729D01*
X100924275Y-82402734D01*
X100801141Y-82591206D01*
X100710703Y-82797386D01*
X100710702Y-82797387D01*
X100655437Y-83015624D01*
X100655436Y-83015630D01*
X100655436Y-83015632D01*
X100636844Y-83240000D01*
X100649216Y-83389308D01*
X100655437Y-83464375D01*
X100710702Y-83682612D01*
X100710703Y-83682613D01*
X100801141Y-83888793D01*
X100924275Y-84077265D01*
X100924279Y-84077270D01*
X101076762Y-84242908D01*
X101131331Y-84285381D01*
X101254424Y-84381189D01*
X101287680Y-84399186D01*
X101338071Y-84449200D01*
X101353423Y-84518516D01*
X101328862Y-84585129D01*
X101287680Y-84620813D01*
X101254426Y-84638810D01*
X101254424Y-84638811D01*
X101076762Y-84777091D01*
X100924279Y-84942729D01*
X100924275Y-84942734D01*
X100801141Y-85131206D01*
X100710703Y-85337386D01*
X100710702Y-85337387D01*
X100655437Y-85555624D01*
X100655436Y-85555630D01*
X100655436Y-85555632D01*
X100636844Y-85780000D01*
X100652637Y-85970593D01*
X100655437Y-86004375D01*
X100710702Y-86222612D01*
X100710703Y-86222613D01*
X100710704Y-86222616D01*
X100785647Y-86393471D01*
X100801141Y-86428793D01*
X100927128Y-86621631D01*
X100925197Y-86622892D01*
X100947702Y-86679924D01*
X100933919Y-86749570D01*
X100911310Y-86780372D01*
X100371167Y-87320517D01*
X100282923Y-87408761D01*
X100281264Y-87411246D01*
X100280057Y-87412254D01*
X100278998Y-87413545D01*
X100278753Y-87413344D01*
X100226787Y-87456773D01*
X100156344Y-87465620D01*
X100092300Y-87434979D01*
X100054989Y-87374576D01*
X100050500Y-87341243D01*
X100050500Y-44176500D01*
X100070502Y-44108379D01*
X100124158Y-44061886D01*
X100176500Y-44050500D01*
X139823500Y-44050500D01*
X139891621Y-44070502D01*
G37*
G04 #@! TD.AperFunction*
G04 #@! TA.AperFunction,Conductor*
G36*
X137207418Y-109908888D02*
G01*
X137265004Y-109950414D01*
X137290999Y-110016481D01*
X137291500Y-110027711D01*
X137291500Y-120554339D01*
X137271498Y-120622460D01*
X137254595Y-120643434D01*
X136123095Y-121774934D01*
X136060783Y-121808960D01*
X135989968Y-121803895D01*
X135933132Y-121761348D01*
X135925864Y-121741863D01*
X135908001Y-121724000D01*
X134872968Y-121724000D01*
X134919333Y-121643694D01*
X134950000Y-121529244D01*
X134950000Y-121410756D01*
X134919333Y-121296306D01*
X134872968Y-121216000D01*
X135908000Y-121216000D01*
X135908000Y-120521414D01*
X135907999Y-120521402D01*
X135901494Y-120460906D01*
X135850444Y-120324035D01*
X135850444Y-120324034D01*
X135762904Y-120207095D01*
X135645965Y-120119555D01*
X135645960Y-120119553D01*
X135578459Y-120094376D01*
X135521623Y-120051829D01*
X135496813Y-119985309D01*
X135511905Y-119915935D01*
X135529784Y-119890991D01*
X135615314Y-119798083D01*
X135742984Y-119602669D01*
X135836749Y-119388907D01*
X135894051Y-119162626D01*
X135913327Y-118930000D01*
X135894051Y-118697374D01*
X135894049Y-118697366D01*
X135836750Y-118471096D01*
X135836747Y-118471089D01*
X135742984Y-118257331D01*
X135615314Y-118061916D01*
X135457225Y-117890186D01*
X135457221Y-117890182D01*
X135365118Y-117818496D01*
X135273017Y-117746810D01*
X135067727Y-117635713D01*
X135067724Y-117635712D01*
X135067723Y-117635711D01*
X134846955Y-117559921D01*
X134846948Y-117559919D01*
X134748411Y-117543476D01*
X134616712Y-117521500D01*
X134383288Y-117521500D01*
X134198887Y-117552270D01*
X134128405Y-117543753D01*
X134089054Y-117517084D01*
X133481642Y-116909671D01*
X133443137Y-116883943D01*
X133365601Y-116832135D01*
X133274427Y-116794369D01*
X133274426Y-116794368D01*
X133236669Y-116778729D01*
X133236663Y-116778727D01*
X133236662Y-116778727D01*
X133168221Y-116765113D01*
X133168220Y-116765112D01*
X133099787Y-116751500D01*
X133099782Y-116751500D01*
X133099781Y-116751500D01*
X130754661Y-116751500D01*
X130686540Y-116731498D01*
X130640047Y-116677842D01*
X130629943Y-116607568D01*
X130659437Y-116542988D01*
X130665566Y-116536405D01*
X131736471Y-115465500D01*
X136900327Y-110301643D01*
X136907105Y-110291500D01*
X136919645Y-110272731D01*
X136977865Y-110185601D01*
X136999986Y-110132192D01*
X137031273Y-110056662D01*
X137041921Y-110003129D01*
X137074829Y-109940220D01*
X137136524Y-109905088D01*
X137207418Y-109908888D01*
G37*
G04 #@! TD.AperFunction*
G04 #@! TA.AperFunction,Conductor*
G36*
X109117012Y-103319437D02*
G01*
X109123595Y-103325566D01*
X110808351Y-105010323D01*
X110808357Y-105010328D01*
X110924399Y-105087865D01*
X110977807Y-105109986D01*
X111053338Y-105141273D01*
X111170740Y-105164625D01*
X111190218Y-105168500D01*
X111190219Y-105168500D01*
X132884339Y-105168500D01*
X132952460Y-105188502D01*
X132973434Y-105205405D01*
X133087544Y-105319515D01*
X133121570Y-105381827D01*
X133120594Y-105439540D01*
X133105949Y-105497371D01*
X133096663Y-105609433D01*
X133086673Y-105730000D01*
X133096320Y-105846427D01*
X133105950Y-105962633D01*
X133163249Y-106188903D01*
X133163252Y-106188910D01*
X133257015Y-106402668D01*
X133358499Y-106558002D01*
X133384686Y-106598083D01*
X133470209Y-106690985D01*
X133501629Y-106754648D01*
X133493642Y-106825194D01*
X133448784Y-106880223D01*
X133421541Y-106894376D01*
X133354037Y-106919554D01*
X133354034Y-106919555D01*
X133237095Y-107007095D01*
X133149555Y-107124034D01*
X133149555Y-107124035D01*
X133098505Y-107260906D01*
X133092000Y-107321402D01*
X133092000Y-108016000D01*
X134127032Y-108016000D01*
X134080667Y-108096306D01*
X134050000Y-108210756D01*
X134050000Y-108329244D01*
X134080667Y-108443694D01*
X134127032Y-108524000D01*
X133092000Y-108524000D01*
X133092000Y-109218597D01*
X133098505Y-109279093D01*
X133149555Y-109415964D01*
X133149555Y-109415965D01*
X133237095Y-109532904D01*
X133354034Y-109620444D01*
X133490906Y-109671494D01*
X133551402Y-109677999D01*
X133551415Y-109678000D01*
X134246000Y-109678000D01*
X134246000Y-108642968D01*
X134326306Y-108689333D01*
X134440756Y-108720000D01*
X134559244Y-108720000D01*
X134673694Y-108689333D01*
X134754000Y-108642968D01*
X134754000Y-109678000D01*
X135215838Y-109678000D01*
X135283959Y-109698002D01*
X135330452Y-109751658D01*
X135340556Y-109821932D01*
X135311062Y-109886512D01*
X135304933Y-109893095D01*
X129643434Y-115554595D01*
X129581122Y-115588621D01*
X129554339Y-115591500D01*
X129384500Y-115591500D01*
X129316379Y-115571498D01*
X129269886Y-115517842D01*
X129258500Y-115465500D01*
X129258500Y-114731367D01*
X129258499Y-114731350D01*
X129251990Y-114670803D01*
X129251988Y-114670795D01*
X129200889Y-114533797D01*
X129200887Y-114533792D01*
X129141972Y-114455091D01*
X129117161Y-114388571D01*
X129132253Y-114319196D01*
X129141973Y-114304072D01*
X129200443Y-114225966D01*
X129200444Y-114225964D01*
X129251494Y-114089093D01*
X129257999Y-114028597D01*
X129258000Y-114028585D01*
X129258000Y-113734000D01*
X125742000Y-113734000D01*
X125742000Y-114028597D01*
X125748505Y-114089093D01*
X125799555Y-114225964D01*
X125799555Y-114225965D01*
X125858027Y-114304073D01*
X125882838Y-114370593D01*
X125867747Y-114439967D01*
X125858028Y-114455090D01*
X125799112Y-114533793D01*
X125799110Y-114533797D01*
X125748011Y-114670795D01*
X125748009Y-114670803D01*
X125741500Y-114731350D01*
X125741500Y-115465500D01*
X125721498Y-115533621D01*
X125667842Y-115580114D01*
X125615500Y-115591500D01*
X114384500Y-115591500D01*
X114316379Y-115571498D01*
X114269886Y-115517842D01*
X114258500Y-115465500D01*
X114258500Y-114731367D01*
X114258499Y-114731350D01*
X114251990Y-114670803D01*
X114251988Y-114670795D01*
X114200889Y-114533797D01*
X114200887Y-114533792D01*
X114141972Y-114455091D01*
X114117161Y-114388571D01*
X114132253Y-114319196D01*
X114141973Y-114304072D01*
X114200443Y-114225966D01*
X114200444Y-114225964D01*
X114251494Y-114089093D01*
X114257999Y-114028597D01*
X114258000Y-114028585D01*
X114258000Y-113734000D01*
X110742000Y-113734000D01*
X110742000Y-114028597D01*
X110748505Y-114089093D01*
X110799555Y-114225964D01*
X110799555Y-114225965D01*
X110850335Y-114293798D01*
X110875146Y-114360318D01*
X110860055Y-114429692D01*
X110809853Y-114479894D01*
X110740479Y-114494986D01*
X110673958Y-114470175D01*
X110660372Y-114458402D01*
X109823584Y-113621614D01*
X109632242Y-113430272D01*
X111750000Y-113430272D01*
X111750000Y-113529728D01*
X111788060Y-113621614D01*
X111858386Y-113691940D01*
X111950272Y-113730000D01*
X113049728Y-113730000D01*
X113141614Y-113691940D01*
X113211940Y-113621614D01*
X113250000Y-113529728D01*
X113250000Y-113430272D01*
X126750000Y-113430272D01*
X126750000Y-113529728D01*
X126788060Y-113621614D01*
X126858386Y-113691940D01*
X126950272Y-113730000D01*
X128049728Y-113730000D01*
X128141614Y-113691940D01*
X128211940Y-113621614D01*
X128250000Y-113529728D01*
X128250000Y-113430272D01*
X128211940Y-113338386D01*
X128141614Y-113268060D01*
X128049728Y-113230000D01*
X126950272Y-113230000D01*
X126858386Y-113268060D01*
X126788060Y-113338386D01*
X126750000Y-113430272D01*
X113250000Y-113430272D01*
X113211940Y-113338386D01*
X113141614Y-113268060D01*
X113049728Y-113230000D01*
X111950272Y-113230000D01*
X111858386Y-113268060D01*
X111788060Y-113338386D01*
X111750000Y-113430272D01*
X109632242Y-113430272D01*
X109133373Y-112931402D01*
X110742000Y-112931402D01*
X110742000Y-113226000D01*
X112246000Y-113226000D01*
X112754000Y-113226000D01*
X114258000Y-113226000D01*
X114258000Y-112931414D01*
X114257999Y-112931402D01*
X125742000Y-112931402D01*
X125742000Y-113226000D01*
X127246000Y-113226000D01*
X127754000Y-113226000D01*
X129258000Y-113226000D01*
X129258000Y-112931414D01*
X129257999Y-112931402D01*
X129251494Y-112870906D01*
X129200444Y-112734035D01*
X129200444Y-112734034D01*
X129112904Y-112617095D01*
X128995965Y-112529555D01*
X128859093Y-112478505D01*
X128798597Y-112472000D01*
X127754000Y-112472000D01*
X127754000Y-113226000D01*
X127246000Y-113226000D01*
X127246000Y-112472000D01*
X126201402Y-112472000D01*
X126140906Y-112478505D01*
X126004035Y-112529555D01*
X126004034Y-112529555D01*
X125887095Y-112617095D01*
X125799555Y-112734034D01*
X125799555Y-112734035D01*
X125748505Y-112870906D01*
X125742000Y-112931402D01*
X114257999Y-112931402D01*
X114251494Y-112870906D01*
X114200444Y-112734035D01*
X114200444Y-112734034D01*
X114112904Y-112617095D01*
X113995965Y-112529555D01*
X113859093Y-112478505D01*
X113798597Y-112472000D01*
X112754000Y-112472000D01*
X112754000Y-113226000D01*
X112246000Y-113226000D01*
X112246000Y-112472000D01*
X111201402Y-112472000D01*
X111140906Y-112478505D01*
X111004035Y-112529555D01*
X111004034Y-112529555D01*
X110887095Y-112617095D01*
X110799555Y-112734034D01*
X110799555Y-112734035D01*
X110748505Y-112870906D01*
X110742000Y-112931402D01*
X109133373Y-112931402D01*
X108945405Y-112743434D01*
X108911379Y-112681122D01*
X108908500Y-112654339D01*
X108908500Y-109831350D01*
X110741500Y-109831350D01*
X110741500Y-110928649D01*
X110748009Y-110989196D01*
X110748011Y-110989204D01*
X110799110Y-111126202D01*
X110799112Y-111126207D01*
X110886738Y-111243261D01*
X111003792Y-111330887D01*
X111003794Y-111330888D01*
X111003796Y-111330889D01*
X111062875Y-111352924D01*
X111140795Y-111381988D01*
X111140803Y-111381990D01*
X111201350Y-111388499D01*
X111201355Y-111388499D01*
X111201362Y-111388500D01*
X111201368Y-111388500D01*
X113798632Y-111388500D01*
X113798638Y-111388500D01*
X113798645Y-111388499D01*
X113798649Y-111388499D01*
X113859196Y-111381990D01*
X113859199Y-111381989D01*
X113859201Y-111381989D01*
X113996204Y-111330889D01*
X114113261Y-111243261D01*
X114200889Y-111126204D01*
X114251989Y-110989201D01*
X114258500Y-110928638D01*
X114258500Y-109831362D01*
X114258499Y-109831350D01*
X125741500Y-109831350D01*
X125741500Y-110928649D01*
X125748009Y-110989196D01*
X125748011Y-110989204D01*
X125799110Y-111126202D01*
X125799112Y-111126207D01*
X125886738Y-111243261D01*
X126003792Y-111330887D01*
X126003794Y-111330888D01*
X126003796Y-111330889D01*
X126062875Y-111352924D01*
X126140795Y-111381988D01*
X126140803Y-111381990D01*
X126201350Y-111388499D01*
X126201355Y-111388499D01*
X126201362Y-111388500D01*
X126201368Y-111388500D01*
X128798632Y-111388500D01*
X128798638Y-111388500D01*
X128798645Y-111388499D01*
X128798649Y-111388499D01*
X128859196Y-111381990D01*
X128859199Y-111381989D01*
X128859201Y-111381989D01*
X128996204Y-111330889D01*
X129113261Y-111243261D01*
X129200889Y-111126204D01*
X129251989Y-110989201D01*
X129258500Y-110928638D01*
X129258500Y-109831362D01*
X129258499Y-109831350D01*
X129251990Y-109770803D01*
X129251988Y-109770795D01*
X129200889Y-109633797D01*
X129200887Y-109633792D01*
X129113261Y-109516738D01*
X128996207Y-109429112D01*
X128996202Y-109429110D01*
X128859204Y-109378011D01*
X128859196Y-109378009D01*
X128798649Y-109371500D01*
X128798638Y-109371500D01*
X126201362Y-109371500D01*
X126201350Y-109371500D01*
X126140803Y-109378009D01*
X126140795Y-109378011D01*
X126003797Y-109429110D01*
X126003792Y-109429112D01*
X125886738Y-109516738D01*
X125799112Y-109633792D01*
X125799110Y-109633797D01*
X125748011Y-109770795D01*
X125748009Y-109770803D01*
X125741500Y-109831350D01*
X114258499Y-109831350D01*
X114251990Y-109770803D01*
X114251988Y-109770795D01*
X114200889Y-109633797D01*
X114200887Y-109633792D01*
X114113261Y-109516738D01*
X113996207Y-109429112D01*
X113996202Y-109429110D01*
X113859204Y-109378011D01*
X113859196Y-109378009D01*
X113798649Y-109371500D01*
X113798638Y-109371500D01*
X111201362Y-109371500D01*
X111201350Y-109371500D01*
X111140803Y-109378009D01*
X111140795Y-109378011D01*
X111003797Y-109429110D01*
X111003792Y-109429112D01*
X110886738Y-109516738D01*
X110799112Y-109633792D01*
X110799110Y-109633797D01*
X110748011Y-109770795D01*
X110748009Y-109770803D01*
X110741500Y-109831350D01*
X108908500Y-109831350D01*
X108908500Y-106881908D01*
X110999500Y-106881908D01*
X110999500Y-107118092D01*
X111036447Y-107351368D01*
X111109432Y-107575992D01*
X111109433Y-107575993D01*
X111216659Y-107786436D01*
X111355484Y-107977512D01*
X111522487Y-108144515D01*
X111522490Y-108144517D01*
X111713567Y-108283343D01*
X111924008Y-108390568D01*
X112148632Y-108463553D01*
X112381908Y-108500500D01*
X112381911Y-108500500D01*
X112618089Y-108500500D01*
X112618092Y-108500500D01*
X112851368Y-108463553D01*
X113075992Y-108390568D01*
X113286433Y-108283343D01*
X113477510Y-108144517D01*
X113644517Y-107977510D01*
X113783343Y-107786433D01*
X113890568Y-107575992D01*
X113963553Y-107351368D01*
X114000500Y-107118092D01*
X114000500Y-106881908D01*
X125999500Y-106881908D01*
X125999500Y-107118092D01*
X126036447Y-107351368D01*
X126109432Y-107575992D01*
X126109433Y-107575993D01*
X126216659Y-107786436D01*
X126355484Y-107977512D01*
X126522487Y-108144515D01*
X126522490Y-108144517D01*
X126713567Y-108283343D01*
X126924008Y-108390568D01*
X127148632Y-108463553D01*
X127381908Y-108500500D01*
X127381911Y-108500500D01*
X127618089Y-108500500D01*
X127618092Y-108500500D01*
X127851368Y-108463553D01*
X128075992Y-108390568D01*
X128286433Y-108283343D01*
X128477510Y-108144517D01*
X128644517Y-107977510D01*
X128783343Y-107786433D01*
X128890568Y-107575992D01*
X128963553Y-107351368D01*
X129000500Y-107118092D01*
X129000500Y-106881908D01*
X128963553Y-106648632D01*
X128890568Y-106424008D01*
X128783343Y-106213567D01*
X128644517Y-106022490D01*
X128644515Y-106022487D01*
X128477512Y-105855484D01*
X128286436Y-105716659D01*
X128286435Y-105716658D01*
X128286433Y-105716657D01*
X128075992Y-105609432D01*
X127851368Y-105536447D01*
X127618092Y-105499500D01*
X127381908Y-105499500D01*
X127148632Y-105536447D01*
X127148629Y-105536447D01*
X127148628Y-105536448D01*
X126924008Y-105609432D01*
X126924006Y-105609433D01*
X126713563Y-105716659D01*
X126522487Y-105855484D01*
X126355484Y-106022487D01*
X126216659Y-106213563D01*
X126109433Y-106424006D01*
X126109432Y-106424008D01*
X126052873Y-106598079D01*
X126036447Y-106648632D01*
X125999500Y-106881908D01*
X114000500Y-106881908D01*
X113963553Y-106648632D01*
X113890568Y-106424008D01*
X113783343Y-106213567D01*
X113644517Y-106022490D01*
X113644515Y-106022487D01*
X113477512Y-105855484D01*
X113286436Y-105716659D01*
X113286435Y-105716658D01*
X113286433Y-105716657D01*
X113075992Y-105609432D01*
X112851368Y-105536447D01*
X112618092Y-105499500D01*
X112381908Y-105499500D01*
X112148632Y-105536447D01*
X112148629Y-105536447D01*
X112148628Y-105536448D01*
X111924008Y-105609432D01*
X111924006Y-105609433D01*
X111713563Y-105716659D01*
X111522487Y-105855484D01*
X111355484Y-106022487D01*
X111216659Y-106213563D01*
X111109433Y-106424006D01*
X111109432Y-106424008D01*
X111052873Y-106598079D01*
X111036447Y-106648632D01*
X110999500Y-106881908D01*
X108908500Y-106881908D01*
X108908500Y-103414661D01*
X108928502Y-103346540D01*
X108982158Y-103300047D01*
X109052432Y-103289943D01*
X109117012Y-103319437D01*
G37*
G04 #@! TD.AperFunction*
G04 #@! TA.AperFunction,Conductor*
G36*
X104702460Y-86508502D02*
G01*
X104723434Y-86525405D01*
X107454595Y-89256565D01*
X107488621Y-89318877D01*
X107491500Y-89345660D01*
X107491500Y-106085339D01*
X107471498Y-106153460D01*
X107417842Y-106199953D01*
X107347568Y-106210057D01*
X107282988Y-106180563D01*
X107276404Y-106174434D01*
X107124460Y-106022490D01*
X106948398Y-105846427D01*
X106914373Y-105784115D01*
X106911924Y-105746927D01*
X106913327Y-105730000D01*
X106894051Y-105497374D01*
X106894049Y-105497366D01*
X106836750Y-105271096D01*
X106836747Y-105271089D01*
X106742984Y-105057331D01*
X106615314Y-104861916D01*
X106457225Y-104690186D01*
X106457221Y-104690182D01*
X106310359Y-104575875D01*
X106273017Y-104546810D01*
X106067727Y-104435713D01*
X106067724Y-104435712D01*
X106067723Y-104435711D01*
X105846955Y-104359921D01*
X105846948Y-104359919D01*
X105748411Y-104343476D01*
X105616712Y-104321500D01*
X105383288Y-104321500D01*
X105268066Y-104340727D01*
X105153051Y-104359919D01*
X105153044Y-104359921D01*
X104932276Y-104435711D01*
X104932273Y-104435713D01*
X104726985Y-104546809D01*
X104726983Y-104546810D01*
X104542778Y-104690182D01*
X104542774Y-104690186D01*
X104384685Y-104861916D01*
X104257015Y-105057331D01*
X104163252Y-105271089D01*
X104163249Y-105271096D01*
X104105950Y-105497366D01*
X104105950Y-105497371D01*
X104105949Y-105497374D01*
X104086673Y-105730000D01*
X104096320Y-105846427D01*
X104105950Y-105962633D01*
X104163249Y-106188903D01*
X104163252Y-106188910D01*
X104257015Y-106402668D01*
X104358499Y-106558002D01*
X104384686Y-106598083D01*
X104470209Y-106690985D01*
X104501629Y-106754648D01*
X104493642Y-106825194D01*
X104448784Y-106880223D01*
X104421541Y-106894376D01*
X104354037Y-106919554D01*
X104354034Y-106919555D01*
X104237095Y-107007095D01*
X104149555Y-107124034D01*
X104149555Y-107124035D01*
X104098505Y-107260906D01*
X104092000Y-107321402D01*
X104092000Y-108016000D01*
X105127032Y-108016000D01*
X105080667Y-108096306D01*
X105050000Y-108210756D01*
X105050000Y-108329244D01*
X105080667Y-108443694D01*
X105127032Y-108524000D01*
X104092000Y-108524000D01*
X104092000Y-109218597D01*
X104098505Y-109279093D01*
X104149555Y-109415964D01*
X104149555Y-109415965D01*
X104237095Y-109532904D01*
X104354034Y-109620444D01*
X104490906Y-109671494D01*
X104551402Y-109677999D01*
X104551415Y-109678000D01*
X105246000Y-109678000D01*
X105246000Y-108642968D01*
X105326306Y-108689333D01*
X105440756Y-108720000D01*
X105559244Y-108720000D01*
X105673694Y-108689333D01*
X105754000Y-108642968D01*
X105754000Y-109678000D01*
X106065500Y-109678000D01*
X106133621Y-109698002D01*
X106180114Y-109751658D01*
X106191500Y-109804000D01*
X106191500Y-113869780D01*
X106191917Y-113874016D01*
X106178686Y-113943769D01*
X106129844Y-113995295D01*
X106060898Y-114012236D01*
X105993738Y-113989213D01*
X105977428Y-113975457D01*
X102745405Y-110743434D01*
X102711379Y-110681122D01*
X102708500Y-110654339D01*
X102708500Y-89551644D01*
X102728502Y-89483523D01*
X102757109Y-89452213D01*
X102923234Y-89322911D01*
X102923235Y-89322909D01*
X102923240Y-89322906D01*
X103075722Y-89157268D01*
X103198860Y-88968791D01*
X103212115Y-88938571D01*
X103257792Y-88884224D01*
X103325604Y-88863198D01*
X103394018Y-88882172D01*
X103416596Y-88900088D01*
X104231763Y-89715256D01*
X104265788Y-89777566D01*
X104260723Y-89848381D01*
X104258054Y-89854963D01*
X104163252Y-90071089D01*
X104163249Y-90071096D01*
X104105950Y-90297366D01*
X104105949Y-90297372D01*
X104105949Y-90297374D01*
X104087779Y-90516657D01*
X104086673Y-90530000D01*
X104105950Y-90762633D01*
X104163249Y-90988903D01*
X104163252Y-90988910D01*
X104257015Y-91202668D01*
X104358499Y-91358002D01*
X104384686Y-91398083D01*
X104470209Y-91490985D01*
X104501629Y-91554648D01*
X104493642Y-91625194D01*
X104448784Y-91680223D01*
X104421541Y-91694376D01*
X104354037Y-91719554D01*
X104354034Y-91719555D01*
X104237095Y-91807095D01*
X104149555Y-91924034D01*
X104149555Y-91924035D01*
X104098505Y-92060906D01*
X104092000Y-92121402D01*
X104092000Y-92816000D01*
X105127032Y-92816000D01*
X105080667Y-92896306D01*
X105050000Y-93010756D01*
X105050000Y-93129244D01*
X105080667Y-93243694D01*
X105127032Y-93324000D01*
X104092000Y-93324000D01*
X104092000Y-94018597D01*
X104098505Y-94079093D01*
X104149555Y-94215964D01*
X104149555Y-94215965D01*
X104237095Y-94332904D01*
X104354034Y-94420444D01*
X104490906Y-94471494D01*
X104551402Y-94477999D01*
X104551415Y-94478000D01*
X105246000Y-94478000D01*
X105246000Y-93442968D01*
X105326306Y-93489333D01*
X105440756Y-93520000D01*
X105559244Y-93520000D01*
X105673694Y-93489333D01*
X105754000Y-93442968D01*
X105754000Y-94478000D01*
X106448585Y-94478000D01*
X106448597Y-94477999D01*
X106509093Y-94471494D01*
X106645964Y-94420444D01*
X106645965Y-94420444D01*
X106762904Y-94332904D01*
X106850444Y-94215965D01*
X106850444Y-94215964D01*
X106901494Y-94079093D01*
X106907999Y-94018597D01*
X106908000Y-94018585D01*
X106908000Y-93324000D01*
X105872968Y-93324000D01*
X105919333Y-93243694D01*
X105950000Y-93129244D01*
X105950000Y-93010756D01*
X105919333Y-92896306D01*
X105872968Y-92816000D01*
X106908000Y-92816000D01*
X106908000Y-92121414D01*
X106907999Y-92121402D01*
X106901494Y-92060906D01*
X106850444Y-91924035D01*
X106850444Y-91924034D01*
X106762904Y-91807095D01*
X106645965Y-91719555D01*
X106645960Y-91719553D01*
X106578459Y-91694376D01*
X106521623Y-91651829D01*
X106496813Y-91585309D01*
X106511905Y-91515935D01*
X106529784Y-91490991D01*
X106615314Y-91398083D01*
X106742984Y-91202669D01*
X106836749Y-90988907D01*
X106894051Y-90762626D01*
X106913327Y-90530000D01*
X106894051Y-90297374D01*
X106836749Y-90071093D01*
X106742984Y-89857331D01*
X106737137Y-89848381D01*
X106615314Y-89661916D01*
X106457225Y-89490186D01*
X106457221Y-89490182D01*
X106310359Y-89375875D01*
X106273017Y-89346810D01*
X106067727Y-89235713D01*
X106067724Y-89235712D01*
X106067723Y-89235711D01*
X105846955Y-89159921D01*
X105846948Y-89159919D01*
X105748411Y-89143476D01*
X105616712Y-89121500D01*
X105616708Y-89121500D01*
X105482007Y-89121500D01*
X105413886Y-89101498D01*
X105392912Y-89084595D01*
X104253978Y-87945661D01*
X103088688Y-86780372D01*
X103054664Y-86718061D01*
X103059728Y-86647246D01*
X103073732Y-86622193D01*
X103072872Y-86621631D01*
X103122555Y-86545585D01*
X103176558Y-86499496D01*
X103228038Y-86488500D01*
X104634339Y-86488500D01*
X104702460Y-86508502D01*
G37*
G04 #@! TD.AperFunction*
G04 #@! TA.AperFunction,Conductor*
G36*
X125926623Y-75528502D02*
G01*
X125947597Y-75545405D01*
X127310454Y-76908262D01*
X127344480Y-76970574D01*
X127339415Y-77041389D01*
X127296868Y-77098225D01*
X127241071Y-77121806D01*
X127194080Y-77129248D01*
X127148632Y-77136447D01*
X127148630Y-77136447D01*
X127148627Y-77136448D01*
X126924008Y-77209432D01*
X126924006Y-77209433D01*
X126713563Y-77316659D01*
X126522487Y-77455484D01*
X126355484Y-77622487D01*
X126216659Y-77813563D01*
X126109433Y-78024006D01*
X126109432Y-78024008D01*
X126052873Y-78198079D01*
X126036447Y-78248632D01*
X125999500Y-78481908D01*
X125999500Y-78718092D01*
X126036447Y-78951368D01*
X126109432Y-79175992D01*
X126216657Y-79386433D01*
X126216659Y-79386436D01*
X126355484Y-79577512D01*
X126522487Y-79744515D01*
X126522490Y-79744517D01*
X126713567Y-79883343D01*
X126924008Y-79990568D01*
X127148632Y-80063553D01*
X127381908Y-80100500D01*
X127381911Y-80100500D01*
X127618089Y-80100500D01*
X127618092Y-80100500D01*
X127851368Y-80063553D01*
X128075992Y-79990568D01*
X128286433Y-79883343D01*
X128477510Y-79744517D01*
X128644517Y-79577510D01*
X128783343Y-79386433D01*
X128890568Y-79175992D01*
X128963553Y-78951368D01*
X128978193Y-78858928D01*
X129008605Y-78794776D01*
X129068873Y-78757249D01*
X129139863Y-78758263D01*
X129191737Y-78789545D01*
X133754595Y-83352403D01*
X133788621Y-83414715D01*
X133791500Y-83441498D01*
X133791500Y-89236815D01*
X133771498Y-89304936D01*
X133730623Y-89342854D01*
X133731346Y-89343960D01*
X133726983Y-89346810D01*
X133542778Y-89490182D01*
X133542774Y-89490186D01*
X133384685Y-89661916D01*
X133257015Y-89857331D01*
X133163252Y-90071089D01*
X133163249Y-90071096D01*
X133105950Y-90297366D01*
X133105949Y-90297372D01*
X133105949Y-90297374D01*
X133087779Y-90516657D01*
X133086673Y-90530000D01*
X133105950Y-90762633D01*
X133163249Y-90988903D01*
X133163252Y-90988910D01*
X133257015Y-91202668D01*
X133358499Y-91358002D01*
X133384686Y-91398083D01*
X133470209Y-91490985D01*
X133501629Y-91554648D01*
X133493642Y-91625194D01*
X133448784Y-91680223D01*
X133421541Y-91694376D01*
X133354037Y-91719554D01*
X133354034Y-91719555D01*
X133237095Y-91807095D01*
X133149555Y-91924034D01*
X133149555Y-91924035D01*
X133098505Y-92060906D01*
X133092000Y-92121402D01*
X133092000Y-92816000D01*
X134127032Y-92816000D01*
X134080667Y-92896306D01*
X134050000Y-93010756D01*
X134050000Y-93129244D01*
X134080667Y-93243694D01*
X134127032Y-93324000D01*
X133092000Y-93324000D01*
X133092000Y-94018597D01*
X133098505Y-94079093D01*
X133149555Y-94215964D01*
X133149555Y-94215965D01*
X133237095Y-94332904D01*
X133354034Y-94420444D01*
X133490906Y-94471494D01*
X133551402Y-94477999D01*
X133551415Y-94478000D01*
X134246000Y-94478000D01*
X134246000Y-93442968D01*
X134326306Y-93489333D01*
X134440756Y-93520000D01*
X134559244Y-93520000D01*
X134673694Y-93489333D01*
X134754000Y-93442968D01*
X134754000Y-94478000D01*
X135448585Y-94478000D01*
X135448595Y-94477999D01*
X135502029Y-94472254D01*
X135571898Y-94484859D01*
X135623861Y-94533236D01*
X135641500Y-94597532D01*
X135641500Y-104575875D01*
X135621498Y-104643996D01*
X135567842Y-104690489D01*
X135497568Y-104700593D01*
X135438109Y-104675307D01*
X135310359Y-104575875D01*
X135273017Y-104546810D01*
X135067727Y-104435713D01*
X135067724Y-104435712D01*
X135067723Y-104435711D01*
X134846955Y-104359921D01*
X134846948Y-104359919D01*
X134748411Y-104343476D01*
X134616712Y-104321500D01*
X134383288Y-104321500D01*
X134198887Y-104352270D01*
X134128405Y-104343753D01*
X134089057Y-104317086D01*
X133681643Y-103909672D01*
X133565601Y-103832135D01*
X133474427Y-103794369D01*
X133474426Y-103794368D01*
X133436669Y-103778729D01*
X133436663Y-103778727D01*
X133436662Y-103778727D01*
X133368221Y-103765113D01*
X133368220Y-103765112D01*
X133299787Y-103751500D01*
X133299782Y-103751500D01*
X133299781Y-103751500D01*
X111605661Y-103751500D01*
X111537540Y-103731498D01*
X111516566Y-103714595D01*
X111105377Y-103303406D01*
X111071351Y-103241094D01*
X111076416Y-103170279D01*
X111118963Y-103113443D01*
X111185483Y-103088632D01*
X111197988Y-103088521D01*
X111197988Y-103088500D01*
X111200442Y-103088500D01*
X111201235Y-103088493D01*
X111201358Y-103088499D01*
X111201362Y-103088500D01*
X111201365Y-103088500D01*
X113798632Y-103088500D01*
X113798638Y-103088500D01*
X113798645Y-103088499D01*
X113798649Y-103088499D01*
X113859196Y-103081990D01*
X113859199Y-103081989D01*
X113859201Y-103081989D01*
X113996204Y-103030889D01*
X114113261Y-102943261D01*
X114200889Y-102826204D01*
X114251989Y-102689201D01*
X114258500Y-102628638D01*
X114258500Y-101531362D01*
X114258499Y-101531350D01*
X125741500Y-101531350D01*
X125741500Y-102628649D01*
X125748009Y-102689196D01*
X125748011Y-102689204D01*
X125799110Y-102826202D01*
X125799112Y-102826207D01*
X125886738Y-102943261D01*
X126003792Y-103030887D01*
X126003794Y-103030888D01*
X126003796Y-103030889D01*
X126062875Y-103052924D01*
X126140795Y-103081988D01*
X126140803Y-103081990D01*
X126201350Y-103088499D01*
X126201355Y-103088499D01*
X126201362Y-103088500D01*
X126201368Y-103088500D01*
X128798632Y-103088500D01*
X128798638Y-103088500D01*
X128798645Y-103088499D01*
X128798649Y-103088499D01*
X128859196Y-103081990D01*
X128859199Y-103081989D01*
X128859201Y-103081989D01*
X128996204Y-103030889D01*
X129113261Y-102943261D01*
X129200889Y-102826204D01*
X129251989Y-102689201D01*
X129258500Y-102628638D01*
X129258500Y-101531362D01*
X129251990Y-101470804D01*
X129251990Y-101470803D01*
X129251988Y-101470795D01*
X129200889Y-101333797D01*
X129200887Y-101333792D01*
X129113261Y-101216738D01*
X128996207Y-101129112D01*
X128996202Y-101129110D01*
X128859204Y-101078011D01*
X128859196Y-101078009D01*
X128798649Y-101071500D01*
X128798638Y-101071500D01*
X126201362Y-101071500D01*
X126201350Y-101071500D01*
X126140803Y-101078009D01*
X126140795Y-101078011D01*
X126003797Y-101129110D01*
X126003792Y-101129112D01*
X125886738Y-101216738D01*
X125799112Y-101333792D01*
X125799110Y-101333797D01*
X125748011Y-101470795D01*
X125748009Y-101470803D01*
X125741500Y-101531350D01*
X114258499Y-101531350D01*
X114251990Y-101470804D01*
X114251990Y-101470803D01*
X114251988Y-101470795D01*
X114200889Y-101333797D01*
X114200887Y-101333792D01*
X114113261Y-101216738D01*
X113996207Y-101129112D01*
X113996202Y-101129110D01*
X113859204Y-101078011D01*
X113859196Y-101078009D01*
X113798649Y-101071500D01*
X113798638Y-101071500D01*
X112545660Y-101071500D01*
X112477539Y-101051498D01*
X112456565Y-101034595D01*
X111145405Y-99723434D01*
X111111379Y-99661122D01*
X111108500Y-99634339D01*
X111108500Y-99414000D01*
X111128502Y-99345879D01*
X111182158Y-99299386D01*
X111234500Y-99288000D01*
X112246000Y-99288000D01*
X112754000Y-99288000D01*
X113798585Y-99288000D01*
X113798597Y-99287999D01*
X113859093Y-99281494D01*
X113995964Y-99230444D01*
X113995965Y-99230444D01*
X114112904Y-99142904D01*
X114200444Y-99025965D01*
X114200444Y-99025964D01*
X114251494Y-98889093D01*
X114257999Y-98828597D01*
X125742000Y-98828597D01*
X125748505Y-98889093D01*
X125799555Y-99025964D01*
X125799555Y-99025965D01*
X125887095Y-99142904D01*
X126004034Y-99230444D01*
X126140906Y-99281494D01*
X126201402Y-99287999D01*
X126201415Y-99288000D01*
X127246000Y-99288000D01*
X127754000Y-99288000D01*
X128798585Y-99288000D01*
X128798597Y-99287999D01*
X128859093Y-99281494D01*
X128995964Y-99230444D01*
X128995965Y-99230444D01*
X129112904Y-99142904D01*
X129200444Y-99025965D01*
X129200444Y-99025964D01*
X129251494Y-98889093D01*
X129257999Y-98828597D01*
X129258000Y-98828585D01*
X129258000Y-98534000D01*
X127754000Y-98534000D01*
X127754000Y-99288000D01*
X127246000Y-99288000D01*
X127246000Y-98534000D01*
X125742000Y-98534000D01*
X125742000Y-98828597D01*
X114257999Y-98828597D01*
X114258000Y-98828585D01*
X114258000Y-98534000D01*
X112754000Y-98534000D01*
X112754000Y-99288000D01*
X112246000Y-99288000D01*
X112246000Y-98530000D01*
X113049728Y-98530000D01*
X113141614Y-98491940D01*
X113211940Y-98421614D01*
X113250000Y-98329728D01*
X113250000Y-98230272D01*
X126750000Y-98230272D01*
X126750000Y-98329728D01*
X126788060Y-98421614D01*
X126858386Y-98491940D01*
X126950272Y-98530000D01*
X128049728Y-98530000D01*
X128141614Y-98491940D01*
X128211940Y-98421614D01*
X128250000Y-98329728D01*
X128250000Y-98230272D01*
X128211940Y-98138386D01*
X128141614Y-98068060D01*
X128049728Y-98030000D01*
X126950272Y-98030000D01*
X126858386Y-98068060D01*
X126788060Y-98138386D01*
X126750000Y-98230272D01*
X113250000Y-98230272D01*
X113211940Y-98138386D01*
X113141614Y-98068060D01*
X113049728Y-98030000D01*
X112246000Y-98030000D01*
X112246000Y-98026000D01*
X112754000Y-98026000D01*
X114258000Y-98026000D01*
X114258000Y-97731414D01*
X114257999Y-97731402D01*
X125742000Y-97731402D01*
X125742000Y-98026000D01*
X127246000Y-98026000D01*
X127754000Y-98026000D01*
X129258000Y-98026000D01*
X129258000Y-97731414D01*
X129257999Y-97731402D01*
X129251494Y-97670906D01*
X129200444Y-97534035D01*
X129200444Y-97534034D01*
X129112904Y-97417095D01*
X128995965Y-97329555D01*
X128859093Y-97278505D01*
X128798597Y-97272000D01*
X127754000Y-97272000D01*
X127754000Y-98026000D01*
X127246000Y-98026000D01*
X127246000Y-97272000D01*
X126201402Y-97272000D01*
X126140906Y-97278505D01*
X126004035Y-97329555D01*
X126004034Y-97329555D01*
X125887095Y-97417095D01*
X125799555Y-97534034D01*
X125799555Y-97534035D01*
X125748505Y-97670906D01*
X125742000Y-97731402D01*
X114257999Y-97731402D01*
X114251494Y-97670906D01*
X114200444Y-97534035D01*
X114200444Y-97534034D01*
X114112904Y-97417095D01*
X113995965Y-97329555D01*
X113859093Y-97278505D01*
X113798597Y-97272000D01*
X112754000Y-97272000D01*
X112754000Y-98026000D01*
X112246000Y-98026000D01*
X112246000Y-97272000D01*
X111234500Y-97272000D01*
X111166379Y-97251998D01*
X111119886Y-97198342D01*
X111108500Y-97146000D01*
X111108500Y-96314500D01*
X111128502Y-96246379D01*
X111182158Y-96199886D01*
X111234500Y-96188500D01*
X113798632Y-96188500D01*
X113798638Y-96188500D01*
X113798645Y-96188499D01*
X113798649Y-96188499D01*
X113859196Y-96181990D01*
X113859199Y-96181989D01*
X113859201Y-96181989D01*
X113996204Y-96130889D01*
X114113261Y-96043261D01*
X114200889Y-95926204D01*
X114251989Y-95789201D01*
X114258500Y-95728638D01*
X114258500Y-94631362D01*
X114258499Y-94631350D01*
X125741500Y-94631350D01*
X125741500Y-95728649D01*
X125748009Y-95789196D01*
X125748011Y-95789204D01*
X125799110Y-95926202D01*
X125799112Y-95926207D01*
X125886738Y-96043261D01*
X126003792Y-96130887D01*
X126003794Y-96130888D01*
X126003796Y-96130889D01*
X126062875Y-96152924D01*
X126140795Y-96181988D01*
X126140803Y-96181990D01*
X126201350Y-96188499D01*
X126201355Y-96188499D01*
X126201362Y-96188500D01*
X126201368Y-96188500D01*
X128798632Y-96188500D01*
X128798638Y-96188500D01*
X128798645Y-96188499D01*
X128798649Y-96188499D01*
X128859196Y-96181990D01*
X128859199Y-96181989D01*
X128859201Y-96181989D01*
X128996204Y-96130889D01*
X129113261Y-96043261D01*
X129200889Y-95926204D01*
X129251989Y-95789201D01*
X129258500Y-95728638D01*
X129258500Y-94631362D01*
X129254863Y-94597532D01*
X129251990Y-94570803D01*
X129251988Y-94570795D01*
X129200889Y-94433797D01*
X129200887Y-94433792D01*
X129113261Y-94316738D01*
X128996207Y-94229112D01*
X128996202Y-94229110D01*
X128859204Y-94178011D01*
X128859196Y-94178009D01*
X128798649Y-94171500D01*
X128798638Y-94171500D01*
X126201362Y-94171500D01*
X126201350Y-94171500D01*
X126140803Y-94178009D01*
X126140795Y-94178011D01*
X126003797Y-94229110D01*
X126003792Y-94229112D01*
X125886738Y-94316738D01*
X125799112Y-94433792D01*
X125799110Y-94433797D01*
X125748011Y-94570795D01*
X125748009Y-94570803D01*
X125741500Y-94631350D01*
X114258499Y-94631350D01*
X114254863Y-94597532D01*
X114251990Y-94570803D01*
X114251988Y-94570795D01*
X114200889Y-94433797D01*
X114200887Y-94433792D01*
X114113261Y-94316738D01*
X113996207Y-94229112D01*
X113996202Y-94229110D01*
X113859204Y-94178011D01*
X113859196Y-94178009D01*
X113798649Y-94171500D01*
X113798638Y-94171500D01*
X111234500Y-94171500D01*
X111166379Y-94151498D01*
X111119886Y-94097842D01*
X111108500Y-94045500D01*
X111108500Y-92825354D01*
X111128502Y-92757233D01*
X111182158Y-92710740D01*
X111252432Y-92700636D01*
X111317012Y-92730130D01*
X111336431Y-92751288D01*
X111355483Y-92777510D01*
X111355487Y-92777515D01*
X111522487Y-92944515D01*
X111522490Y-92944517D01*
X111713567Y-93083343D01*
X111924008Y-93190568D01*
X112148632Y-93263553D01*
X112381908Y-93300500D01*
X112381911Y-93300500D01*
X112618089Y-93300500D01*
X112618092Y-93300500D01*
X112851368Y-93263553D01*
X113075992Y-93190568D01*
X113286433Y-93083343D01*
X113477510Y-92944517D01*
X113644517Y-92777510D01*
X113783343Y-92586433D01*
X113890568Y-92375992D01*
X113963553Y-92151368D01*
X114000500Y-91918092D01*
X114000500Y-91681908D01*
X125999500Y-91681908D01*
X125999500Y-91918092D01*
X126036447Y-92151368D01*
X126109432Y-92375992D01*
X126109433Y-92375993D01*
X126216659Y-92586436D01*
X126355484Y-92777512D01*
X126522487Y-92944515D01*
X126522490Y-92944517D01*
X126713567Y-93083343D01*
X126924008Y-93190568D01*
X127148632Y-93263553D01*
X127381908Y-93300500D01*
X127381911Y-93300500D01*
X127618089Y-93300500D01*
X127618092Y-93300500D01*
X127851368Y-93263553D01*
X128075992Y-93190568D01*
X128286433Y-93083343D01*
X128477510Y-92944517D01*
X128644517Y-92777510D01*
X128783343Y-92586433D01*
X128890568Y-92375992D01*
X128963553Y-92151368D01*
X129000500Y-91918092D01*
X129000500Y-91681908D01*
X128963553Y-91448632D01*
X128890568Y-91224008D01*
X128783343Y-91013567D01*
X128735709Y-90948005D01*
X128644515Y-90822487D01*
X128477512Y-90655484D01*
X128286436Y-90516659D01*
X128286435Y-90516658D01*
X128286433Y-90516657D01*
X128075992Y-90409432D01*
X127851368Y-90336447D01*
X127618092Y-90299500D01*
X127381908Y-90299500D01*
X127148632Y-90336447D01*
X127148629Y-90336447D01*
X127148628Y-90336448D01*
X126924008Y-90409432D01*
X126924006Y-90409433D01*
X126713563Y-90516659D01*
X126522487Y-90655484D01*
X126355484Y-90822487D01*
X126216659Y-91013563D01*
X126109433Y-91224006D01*
X126109432Y-91224008D01*
X126052873Y-91398079D01*
X126036447Y-91448632D01*
X125999500Y-91681908D01*
X114000500Y-91681908D01*
X113963553Y-91448632D01*
X113890568Y-91224008D01*
X113783343Y-91013567D01*
X113735709Y-90948005D01*
X113644515Y-90822487D01*
X113477512Y-90655484D01*
X113286436Y-90516659D01*
X113286435Y-90516658D01*
X113286433Y-90516657D01*
X113075992Y-90409432D01*
X112851368Y-90336447D01*
X112618092Y-90299500D01*
X112381908Y-90299500D01*
X112148632Y-90336447D01*
X112148629Y-90336447D01*
X112148628Y-90336448D01*
X111924008Y-90409432D01*
X111924006Y-90409433D01*
X111713563Y-90516659D01*
X111522487Y-90655484D01*
X111355484Y-90822487D01*
X111336436Y-90848706D01*
X111280213Y-90892060D01*
X111209477Y-90898135D01*
X111146686Y-90865003D01*
X111111774Y-90803183D01*
X111108500Y-90774645D01*
X111108500Y-88014500D01*
X111128502Y-87946379D01*
X111182158Y-87899886D01*
X111234500Y-87888500D01*
X113798632Y-87888500D01*
X113798638Y-87888500D01*
X113798645Y-87888499D01*
X113798649Y-87888499D01*
X113859196Y-87881990D01*
X113859199Y-87881989D01*
X113859201Y-87881989D01*
X113996204Y-87830889D01*
X114113261Y-87743261D01*
X114200889Y-87626204D01*
X114251989Y-87489201D01*
X114252685Y-87482734D01*
X114258499Y-87428649D01*
X114258500Y-87428632D01*
X114258500Y-86331367D01*
X114258499Y-86331350D01*
X125741500Y-86331350D01*
X125741500Y-87428649D01*
X125748009Y-87489196D01*
X125748011Y-87489204D01*
X125799110Y-87626202D01*
X125799112Y-87626207D01*
X125886738Y-87743261D01*
X126003792Y-87830887D01*
X126003794Y-87830888D01*
X126003796Y-87830889D01*
X126062875Y-87852924D01*
X126140795Y-87881988D01*
X126140803Y-87881990D01*
X126201350Y-87888499D01*
X126201355Y-87888499D01*
X126201362Y-87888500D01*
X126201368Y-87888500D01*
X128798632Y-87888500D01*
X128798638Y-87888500D01*
X128798645Y-87888499D01*
X128798649Y-87888499D01*
X128859196Y-87881990D01*
X128859199Y-87881989D01*
X128859201Y-87881989D01*
X128996204Y-87830889D01*
X129113261Y-87743261D01*
X129200889Y-87626204D01*
X129251989Y-87489201D01*
X129252685Y-87482734D01*
X129258499Y-87428649D01*
X129258500Y-87428632D01*
X129258500Y-86331367D01*
X129258499Y-86331350D01*
X129251990Y-86270803D01*
X129251988Y-86270795D01*
X129200889Y-86133797D01*
X129200887Y-86133792D01*
X129141972Y-86055091D01*
X129117161Y-85988571D01*
X129132253Y-85919196D01*
X129141973Y-85904072D01*
X129200443Y-85825966D01*
X129200444Y-85825964D01*
X129251494Y-85689093D01*
X129257999Y-85628597D01*
X129258000Y-85628585D01*
X129258000Y-85334000D01*
X125742000Y-85334000D01*
X125742000Y-85628597D01*
X125748505Y-85689093D01*
X125799555Y-85825964D01*
X125799555Y-85825965D01*
X125858027Y-85904073D01*
X125882838Y-85970593D01*
X125867747Y-86039967D01*
X125858028Y-86055090D01*
X125799112Y-86133793D01*
X125799110Y-86133797D01*
X125748011Y-86270795D01*
X125748009Y-86270803D01*
X125741500Y-86331350D01*
X114258499Y-86331350D01*
X114251990Y-86270803D01*
X114251988Y-86270795D01*
X114200889Y-86133797D01*
X114200887Y-86133792D01*
X114141972Y-86055091D01*
X114117161Y-85988571D01*
X114132253Y-85919196D01*
X114141973Y-85904072D01*
X114200443Y-85825966D01*
X114200444Y-85825964D01*
X114251494Y-85689093D01*
X114257999Y-85628597D01*
X114258000Y-85628585D01*
X114258000Y-85334000D01*
X110689809Y-85334000D01*
X110689809Y-85330092D01*
X110644881Y-85326852D01*
X110599890Y-85297918D01*
X110332244Y-85030272D01*
X111750000Y-85030272D01*
X111750000Y-85129728D01*
X111788060Y-85221614D01*
X111858386Y-85291940D01*
X111950272Y-85330000D01*
X113049728Y-85330000D01*
X113141614Y-85291940D01*
X113211940Y-85221614D01*
X113250000Y-85129728D01*
X113250000Y-85030272D01*
X126750000Y-85030272D01*
X126750000Y-85129728D01*
X126788060Y-85221614D01*
X126858386Y-85291940D01*
X126950272Y-85330000D01*
X128049728Y-85330000D01*
X128141614Y-85291940D01*
X128211940Y-85221614D01*
X128250000Y-85129728D01*
X128250000Y-85030272D01*
X128211940Y-84938386D01*
X128141614Y-84868060D01*
X128049728Y-84830000D01*
X126950272Y-84830000D01*
X126858386Y-84868060D01*
X126788060Y-84938386D01*
X126750000Y-85030272D01*
X113250000Y-85030272D01*
X113211940Y-84938386D01*
X113141614Y-84868060D01*
X113049728Y-84830000D01*
X111950272Y-84830000D01*
X111858386Y-84868060D01*
X111788060Y-84938386D01*
X111750000Y-85030272D01*
X110332244Y-85030272D01*
X109833374Y-84531402D01*
X110742000Y-84531402D01*
X110742000Y-84826000D01*
X112246000Y-84826000D01*
X112754000Y-84826000D01*
X114258000Y-84826000D01*
X114258000Y-84531414D01*
X114257999Y-84531402D01*
X125742000Y-84531402D01*
X125742000Y-84826000D01*
X127246000Y-84826000D01*
X127754000Y-84826000D01*
X129258000Y-84826000D01*
X129258000Y-84531414D01*
X129257999Y-84531402D01*
X129251494Y-84470906D01*
X129200444Y-84334035D01*
X129200444Y-84334034D01*
X129112904Y-84217095D01*
X128995965Y-84129555D01*
X128859093Y-84078505D01*
X128798597Y-84072000D01*
X127754000Y-84072000D01*
X127754000Y-84826000D01*
X127246000Y-84826000D01*
X127246000Y-84072000D01*
X126201402Y-84072000D01*
X126140906Y-84078505D01*
X126004035Y-84129555D01*
X126004034Y-84129555D01*
X125887095Y-84217095D01*
X125799555Y-84334034D01*
X125799555Y-84334035D01*
X125748505Y-84470906D01*
X125742000Y-84531402D01*
X114257999Y-84531402D01*
X114251494Y-84470906D01*
X114200444Y-84334035D01*
X114200444Y-84334034D01*
X114112904Y-84217095D01*
X113995965Y-84129555D01*
X113859093Y-84078505D01*
X113798597Y-84072000D01*
X112754000Y-84072000D01*
X112754000Y-84826000D01*
X112246000Y-84826000D01*
X112246000Y-84072000D01*
X111201402Y-84072000D01*
X111140906Y-84078505D01*
X111004035Y-84129555D01*
X111004034Y-84129555D01*
X110887095Y-84217095D01*
X110799555Y-84334034D01*
X110799555Y-84334035D01*
X110748505Y-84470906D01*
X110742000Y-84531402D01*
X109833374Y-84531402D01*
X106733322Y-81431350D01*
X110741500Y-81431350D01*
X110741500Y-82528649D01*
X110748009Y-82589196D01*
X110748011Y-82589204D01*
X110799110Y-82726202D01*
X110799112Y-82726207D01*
X110886738Y-82843261D01*
X111003792Y-82930887D01*
X111003794Y-82930888D01*
X111003796Y-82930889D01*
X111062875Y-82952924D01*
X111140795Y-82981988D01*
X111140803Y-82981990D01*
X111201350Y-82988499D01*
X111201355Y-82988499D01*
X111201362Y-82988500D01*
X111201368Y-82988500D01*
X113798632Y-82988500D01*
X113798638Y-82988500D01*
X113798645Y-82988499D01*
X113798649Y-82988499D01*
X113859196Y-82981990D01*
X113859199Y-82981989D01*
X113859201Y-82981989D01*
X113996204Y-82930889D01*
X114113261Y-82843261D01*
X114200889Y-82726204D01*
X114251989Y-82589201D01*
X114258500Y-82528638D01*
X114258500Y-81431362D01*
X114258499Y-81431350D01*
X125741500Y-81431350D01*
X125741500Y-82528649D01*
X125748009Y-82589196D01*
X125748011Y-82589204D01*
X125799110Y-82726202D01*
X125799112Y-82726207D01*
X125886738Y-82843261D01*
X126003792Y-82930887D01*
X126003794Y-82930888D01*
X126003796Y-82930889D01*
X126062875Y-82952924D01*
X126140795Y-82981988D01*
X126140803Y-82981990D01*
X126201350Y-82988499D01*
X126201355Y-82988499D01*
X126201362Y-82988500D01*
X126201368Y-82988500D01*
X128798632Y-82988500D01*
X128798638Y-82988500D01*
X128798645Y-82988499D01*
X128798649Y-82988499D01*
X128859196Y-82981990D01*
X128859199Y-82981989D01*
X128859201Y-82981989D01*
X128996204Y-82930889D01*
X129113261Y-82843261D01*
X129200889Y-82726204D01*
X129251989Y-82589201D01*
X129258500Y-82528638D01*
X129258500Y-81431362D01*
X129258438Y-81430783D01*
X129251990Y-81370803D01*
X129251988Y-81370795D01*
X129214950Y-81271494D01*
X129200889Y-81233796D01*
X129200888Y-81233794D01*
X129200887Y-81233792D01*
X129113261Y-81116738D01*
X128996207Y-81029112D01*
X128996202Y-81029110D01*
X128859204Y-80978011D01*
X128859196Y-80978009D01*
X128798649Y-80971500D01*
X128798638Y-80971500D01*
X126201362Y-80971500D01*
X126201350Y-80971500D01*
X126140803Y-80978009D01*
X126140795Y-80978011D01*
X126003797Y-81029110D01*
X126003792Y-81029112D01*
X125886738Y-81116738D01*
X125799112Y-81233792D01*
X125799110Y-81233797D01*
X125748011Y-81370795D01*
X125748009Y-81370803D01*
X125741500Y-81431350D01*
X114258499Y-81431350D01*
X114258438Y-81430783D01*
X114251990Y-81370803D01*
X114251988Y-81370795D01*
X114214950Y-81271494D01*
X114200889Y-81233796D01*
X114200888Y-81233794D01*
X114200887Y-81233792D01*
X114113261Y-81116738D01*
X113996207Y-81029112D01*
X113996202Y-81029110D01*
X113859204Y-80978011D01*
X113859196Y-80978009D01*
X113798649Y-80971500D01*
X113798638Y-80971500D01*
X111201362Y-80971500D01*
X111201350Y-80971500D01*
X111140803Y-80978009D01*
X111140795Y-80978011D01*
X111003797Y-81029110D01*
X111003792Y-81029112D01*
X110886738Y-81116738D01*
X110799112Y-81233792D01*
X110799110Y-81233797D01*
X110748011Y-81370795D01*
X110748009Y-81370803D01*
X110741500Y-81431350D01*
X106733322Y-81431350D01*
X106678130Y-81376158D01*
X106644104Y-81313846D01*
X106649169Y-81243031D01*
X106691716Y-81186195D01*
X106762904Y-81132904D01*
X106850444Y-81015965D01*
X106850444Y-81015964D01*
X106901494Y-80879093D01*
X106907999Y-80818597D01*
X106908000Y-80818585D01*
X106908000Y-80124000D01*
X105872968Y-80124000D01*
X105919333Y-80043694D01*
X105950000Y-79929244D01*
X105950000Y-79810756D01*
X105919333Y-79696306D01*
X105872968Y-79616000D01*
X106908000Y-79616000D01*
X106908000Y-78921414D01*
X106907999Y-78921402D01*
X106901494Y-78860906D01*
X106850444Y-78724035D01*
X106850444Y-78724034D01*
X106762904Y-78607095D01*
X106645965Y-78519555D01*
X106645960Y-78519553D01*
X106578459Y-78494376D01*
X106561804Y-78481908D01*
X110999500Y-78481908D01*
X110999500Y-78718092D01*
X111036447Y-78951368D01*
X111109432Y-79175992D01*
X111216657Y-79386433D01*
X111216659Y-79386436D01*
X111355484Y-79577512D01*
X111522487Y-79744515D01*
X111522490Y-79744517D01*
X111713567Y-79883343D01*
X111924008Y-79990568D01*
X112148632Y-80063553D01*
X112381908Y-80100500D01*
X112381911Y-80100500D01*
X112618089Y-80100500D01*
X112618092Y-80100500D01*
X112851368Y-80063553D01*
X113075992Y-79990568D01*
X113286433Y-79883343D01*
X113477510Y-79744517D01*
X113644517Y-79577510D01*
X113783343Y-79386433D01*
X113890568Y-79175992D01*
X113963553Y-78951368D01*
X114000500Y-78718092D01*
X114000500Y-78481908D01*
X113963553Y-78248632D01*
X113890568Y-78024008D01*
X113783343Y-77813567D01*
X113644517Y-77622490D01*
X113644515Y-77622487D01*
X113477512Y-77455484D01*
X113286436Y-77316659D01*
X113286435Y-77316658D01*
X113286433Y-77316657D01*
X113075992Y-77209432D01*
X112851368Y-77136447D01*
X112618092Y-77099500D01*
X112381908Y-77099500D01*
X112148632Y-77136447D01*
X112148629Y-77136447D01*
X112148628Y-77136448D01*
X111924008Y-77209432D01*
X111924006Y-77209433D01*
X111713563Y-77316659D01*
X111522487Y-77455484D01*
X111355484Y-77622487D01*
X111216659Y-77813563D01*
X111109433Y-78024006D01*
X111109432Y-78024008D01*
X111052873Y-78198079D01*
X111036447Y-78248632D01*
X110999500Y-78481908D01*
X106561804Y-78481908D01*
X106521623Y-78451829D01*
X106496813Y-78385309D01*
X106511905Y-78315935D01*
X106529784Y-78290991D01*
X106615314Y-78198083D01*
X106742984Y-78002669D01*
X106836749Y-77788907D01*
X106894051Y-77562626D01*
X106913327Y-77330000D01*
X106894051Y-77097374D01*
X106874262Y-77019228D01*
X106836750Y-76871096D01*
X106836747Y-76871089D01*
X106818496Y-76829482D01*
X106742984Y-76657331D01*
X106615314Y-76461916D01*
X106457225Y-76290186D01*
X106457221Y-76290182D01*
X106365118Y-76218496D01*
X106273017Y-76146810D01*
X106067727Y-76035713D01*
X106067724Y-76035712D01*
X106067723Y-76035711D01*
X105846955Y-75959921D01*
X105846948Y-75959919D01*
X105748411Y-75943476D01*
X105616712Y-75921500D01*
X105383288Y-75921500D01*
X105268066Y-75940727D01*
X105153051Y-75959919D01*
X105153044Y-75959921D01*
X104932276Y-76035711D01*
X104932273Y-76035713D01*
X104726985Y-76146809D01*
X104726983Y-76146810D01*
X104542778Y-76290182D01*
X104542774Y-76290186D01*
X104384685Y-76461916D01*
X104257015Y-76657331D01*
X104163252Y-76871089D01*
X104163249Y-76871096D01*
X104105950Y-77097366D01*
X104105949Y-77097372D01*
X104105949Y-77097374D01*
X104087779Y-77316657D01*
X104086673Y-77330000D01*
X104105950Y-77562633D01*
X104163249Y-77788903D01*
X104163252Y-77788910D01*
X104257015Y-78002668D01*
X104257016Y-78002669D01*
X104384686Y-78198083D01*
X104470209Y-78290985D01*
X104501629Y-78354648D01*
X104493642Y-78425194D01*
X104448784Y-78480223D01*
X104421541Y-78494376D01*
X104354037Y-78519554D01*
X104354034Y-78519555D01*
X104237095Y-78607095D01*
X104149555Y-78724034D01*
X104149555Y-78724035D01*
X104098505Y-78860906D01*
X104092000Y-78921402D01*
X104092000Y-79616000D01*
X105127032Y-79616000D01*
X105080667Y-79696306D01*
X105050000Y-79810756D01*
X105050000Y-79929244D01*
X105080667Y-80043694D01*
X105127032Y-80124000D01*
X104092000Y-80124000D01*
X104092000Y-80818597D01*
X104098505Y-80879093D01*
X104151608Y-81021468D01*
X104156672Y-81092283D01*
X104122647Y-81154596D01*
X104060335Y-81188621D01*
X104033552Y-81191500D01*
X103545661Y-81191500D01*
X103477540Y-81171498D01*
X103456566Y-81154595D01*
X103371299Y-81069328D01*
X103337273Y-81007016D01*
X103338250Y-80949299D01*
X103344563Y-80924371D01*
X103344564Y-80924368D01*
X103363156Y-80700000D01*
X103344564Y-80475632D01*
X103289296Y-80257384D01*
X103198860Y-80051209D01*
X103192140Y-80040924D01*
X103075724Y-79862734D01*
X103075720Y-79862729D01*
X102923237Y-79697091D01*
X102841382Y-79633381D01*
X102745576Y-79558811D01*
X102711792Y-79540528D01*
X102661402Y-79490516D01*
X102646050Y-79421199D01*
X102670610Y-79354586D01*
X102711793Y-79318901D01*
X102745300Y-79300767D01*
X102745301Y-79300767D01*
X102922902Y-79162534D01*
X103075325Y-78996958D01*
X103198419Y-78808548D01*
X103288820Y-78602456D01*
X103288823Y-78602449D01*
X103336544Y-78414000D01*
X102430703Y-78414000D01*
X102465925Y-78352993D01*
X102500000Y-78225826D01*
X102500000Y-78094174D01*
X102465925Y-77967007D01*
X102430703Y-77906000D01*
X103336544Y-77906000D01*
X103336544Y-77905999D01*
X103288823Y-77717550D01*
X103288820Y-77717543D01*
X103198419Y-77511451D01*
X103075325Y-77323041D01*
X102922902Y-77157465D01*
X102745301Y-77019232D01*
X102745300Y-77019231D01*
X102711791Y-77001097D01*
X102661401Y-76951083D01*
X102646050Y-76881766D01*
X102670612Y-76815153D01*
X102711790Y-76779472D01*
X102745576Y-76761189D01*
X102923240Y-76622906D01*
X103075722Y-76457268D01*
X103198860Y-76268791D01*
X103289296Y-76062616D01*
X103344564Y-75844368D01*
X103362816Y-75624092D01*
X103388376Y-75557859D01*
X103445687Y-75515955D01*
X103488386Y-75508500D01*
X125858502Y-75508500D01*
X125926623Y-75528502D01*
G37*
G04 #@! TD.AperFunction*
G04 #@! TA.AperFunction,Conductor*
G36*
X136564372Y-75621762D02*
G01*
X136621208Y-75664309D01*
X136645910Y-75729412D01*
X136655437Y-75844375D01*
X136710702Y-76062612D01*
X136710703Y-76062613D01*
X136801141Y-76268793D01*
X136924275Y-76457265D01*
X136924279Y-76457270D01*
X137076762Y-76622908D01*
X137131331Y-76665381D01*
X137254424Y-76761189D01*
X137288205Y-76779470D01*
X137338596Y-76829482D01*
X137353949Y-76898799D01*
X137329389Y-76965412D01*
X137288209Y-77001096D01*
X137254704Y-77019228D01*
X137254698Y-77019232D01*
X137077097Y-77157465D01*
X136924674Y-77323041D01*
X136801580Y-77511451D01*
X136711179Y-77717543D01*
X136711176Y-77717550D01*
X136663455Y-77905999D01*
X136663456Y-77906000D01*
X137569297Y-77906000D01*
X137534075Y-77967007D01*
X137500000Y-78094174D01*
X137500000Y-78225826D01*
X137534075Y-78352993D01*
X137569297Y-78414000D01*
X136663455Y-78414000D01*
X136711176Y-78602449D01*
X136711179Y-78602456D01*
X136801580Y-78808548D01*
X136924674Y-78996958D01*
X137077097Y-79162534D01*
X137254698Y-79300767D01*
X137254704Y-79300771D01*
X137288207Y-79318902D01*
X137338597Y-79368915D01*
X137353949Y-79438232D01*
X137329388Y-79504845D01*
X137288207Y-79540528D01*
X137254430Y-79558807D01*
X137254424Y-79558811D01*
X137076762Y-79697091D01*
X136924279Y-79862729D01*
X136924275Y-79862734D01*
X136801141Y-80051206D01*
X136710703Y-80257386D01*
X136710702Y-80257387D01*
X136655437Y-80475624D01*
X136655436Y-80475630D01*
X136655436Y-80475632D01*
X136636844Y-80700000D01*
X136651684Y-80879093D01*
X136655437Y-80924375D01*
X136661749Y-80949300D01*
X136659082Y-81020246D01*
X136628701Y-81069326D01*
X135749670Y-81948359D01*
X135749669Y-81948361D01*
X135672134Y-82064400D01*
X135672133Y-82064401D01*
X135634369Y-82155573D01*
X135618726Y-82193339D01*
X135618725Y-82193342D01*
X135591500Y-82330213D01*
X135591500Y-82330219D01*
X135591500Y-88281029D01*
X135591500Y-88420593D01*
X135618727Y-88557472D01*
X135631909Y-88589297D01*
X135641500Y-88637514D01*
X135641500Y-89375875D01*
X135621498Y-89443996D01*
X135567842Y-89490489D01*
X135497568Y-89500593D01*
X135438109Y-89475307D01*
X135310359Y-89375875D01*
X135273017Y-89346810D01*
X135273011Y-89346806D01*
X135268654Y-89343960D01*
X135269509Y-89342651D01*
X135224131Y-89297599D01*
X135208500Y-89236815D01*
X135208500Y-83026057D01*
X135208499Y-83026053D01*
X135181273Y-82889175D01*
X135149986Y-82813644D01*
X135127865Y-82760236D01*
X135050328Y-82644194D01*
X135050323Y-82644188D01*
X133899229Y-81493095D01*
X133865204Y-81430783D01*
X133870268Y-81359968D01*
X133912815Y-81303132D01*
X133979335Y-81278321D01*
X133988324Y-81278000D01*
X134246000Y-81278000D01*
X134246000Y-80242968D01*
X134326306Y-80289333D01*
X134440756Y-80320000D01*
X134559244Y-80320000D01*
X134673694Y-80289333D01*
X134754000Y-80242968D01*
X134754000Y-81278000D01*
X135448585Y-81278000D01*
X135448597Y-81277999D01*
X135509093Y-81271494D01*
X135645964Y-81220444D01*
X135645965Y-81220444D01*
X135762904Y-81132904D01*
X135850444Y-81015965D01*
X135850444Y-81015964D01*
X135901494Y-80879093D01*
X135907999Y-80818597D01*
X135908000Y-80818585D01*
X135908000Y-80124000D01*
X134872968Y-80124000D01*
X134919333Y-80043694D01*
X134950000Y-79929244D01*
X134950000Y-79810756D01*
X134919333Y-79696306D01*
X134872968Y-79616000D01*
X135908000Y-79616000D01*
X135908000Y-78921414D01*
X135907999Y-78921402D01*
X135901494Y-78860906D01*
X135850444Y-78724035D01*
X135850444Y-78724034D01*
X135762904Y-78607095D01*
X135645965Y-78519555D01*
X135645960Y-78519553D01*
X135578459Y-78494376D01*
X135521623Y-78451829D01*
X135496813Y-78385309D01*
X135511905Y-78315935D01*
X135529784Y-78290991D01*
X135615314Y-78198083D01*
X135742984Y-78002669D01*
X135836749Y-77788907D01*
X135894051Y-77562626D01*
X135913327Y-77330000D01*
X135894051Y-77097374D01*
X135874262Y-77019228D01*
X135836750Y-76871096D01*
X135836747Y-76871089D01*
X135835542Y-76868342D01*
X135742984Y-76657331D01*
X135673148Y-76550439D01*
X135652636Y-76482473D01*
X135672125Y-76414204D01*
X135689533Y-76392435D01*
X136431247Y-75650721D01*
X136493557Y-75616697D01*
X136564372Y-75621762D01*
G37*
G04 #@! TD.AperFunction*
G04 #@! TA.AperFunction,Conductor*
G36*
X132952460Y-63688502D02*
G01*
X132973434Y-63705405D01*
X133087544Y-63819515D01*
X133121570Y-63881827D01*
X133120594Y-63939540D01*
X133105949Y-63997371D01*
X133086673Y-64230000D01*
X133105950Y-64462633D01*
X133163249Y-64688903D01*
X133163252Y-64688910D01*
X133257015Y-64902668D01*
X133377085Y-65086450D01*
X133384686Y-65098083D01*
X133470209Y-65190985D01*
X133501629Y-65254648D01*
X133493642Y-65325194D01*
X133448784Y-65380223D01*
X133421541Y-65394376D01*
X133354037Y-65419554D01*
X133354034Y-65419555D01*
X133237095Y-65507095D01*
X133149555Y-65624034D01*
X133149555Y-65624035D01*
X133098505Y-65760906D01*
X133092000Y-65821402D01*
X133092000Y-66516000D01*
X134127032Y-66516000D01*
X134080667Y-66596306D01*
X134050000Y-66710756D01*
X134050000Y-66829244D01*
X134080667Y-66943694D01*
X134127032Y-67024000D01*
X133092000Y-67024000D01*
X133092000Y-67718597D01*
X133098505Y-67779093D01*
X133149555Y-67915964D01*
X133149555Y-67915965D01*
X133237095Y-68032904D01*
X133354034Y-68120444D01*
X133490906Y-68171494D01*
X133551402Y-68177999D01*
X133551415Y-68178000D01*
X134246000Y-68178000D01*
X134246000Y-67142968D01*
X134326306Y-67189333D01*
X134440756Y-67220000D01*
X134559244Y-67220000D01*
X134673694Y-67189333D01*
X134754000Y-67142968D01*
X134754000Y-68178000D01*
X135448585Y-68178000D01*
X135448597Y-68177999D01*
X135509093Y-68171494D01*
X135645964Y-68120444D01*
X135645965Y-68120444D01*
X135762903Y-68032904D01*
X135764631Y-68030597D01*
X135766941Y-68028867D01*
X135769277Y-68026532D01*
X135769612Y-68026867D01*
X135821467Y-67988050D01*
X135892283Y-67982984D01*
X135954595Y-68017009D01*
X135988620Y-68079321D01*
X135991500Y-68106105D01*
X135991500Y-69309784D01*
X136018727Y-69446661D01*
X136018729Y-69446666D01*
X136072135Y-69575601D01*
X136149671Y-69691642D01*
X136628700Y-70170670D01*
X136662725Y-70232983D01*
X136661750Y-70290694D01*
X136655437Y-70315625D01*
X136655436Y-70315629D01*
X136655436Y-70315632D01*
X136652615Y-70349676D01*
X136636844Y-70540000D01*
X136655437Y-70764375D01*
X136710702Y-70982612D01*
X136710703Y-70982613D01*
X136710704Y-70982616D01*
X136801140Y-71188791D01*
X136801141Y-71188793D01*
X136924275Y-71377265D01*
X136924279Y-71377270D01*
X137076762Y-71542908D01*
X137131331Y-71585381D01*
X137254424Y-71681189D01*
X137287680Y-71699186D01*
X137338071Y-71749200D01*
X137353423Y-71818516D01*
X137328862Y-71885129D01*
X137287680Y-71920813D01*
X137254426Y-71938810D01*
X137254424Y-71938811D01*
X137076762Y-72077091D01*
X136924279Y-72242729D01*
X136924275Y-72242734D01*
X136801141Y-72431206D01*
X136710703Y-72637386D01*
X136710702Y-72637387D01*
X136655437Y-72855624D01*
X136655437Y-72855627D01*
X136655436Y-72855632D01*
X136636844Y-73080000D01*
X136655436Y-73304368D01*
X136655436Y-73304371D01*
X136655437Y-73304372D01*
X136661750Y-73329304D01*
X136659081Y-73400250D01*
X136628700Y-73449328D01*
X134120456Y-75957571D01*
X134072274Y-75987649D01*
X133932276Y-76035711D01*
X133932273Y-76035712D01*
X133726985Y-76146809D01*
X133726983Y-76146810D01*
X133542778Y-76290182D01*
X133542774Y-76290186D01*
X133384685Y-76461916D01*
X133257015Y-76657331D01*
X133163252Y-76871089D01*
X133163249Y-76871096D01*
X133105950Y-77097366D01*
X133105949Y-77097372D01*
X133105949Y-77097374D01*
X133087779Y-77316657D01*
X133086673Y-77330000D01*
X133105950Y-77562633D01*
X133163249Y-77788903D01*
X133163252Y-77788910D01*
X133257015Y-78002668D01*
X133257016Y-78002669D01*
X133384686Y-78198083D01*
X133470209Y-78290985D01*
X133501629Y-78354648D01*
X133493642Y-78425194D01*
X133448784Y-78480223D01*
X133421541Y-78494376D01*
X133354037Y-78519554D01*
X133354034Y-78519555D01*
X133237095Y-78607095D01*
X133149555Y-78724034D01*
X133149555Y-78724035D01*
X133098505Y-78860906D01*
X133092000Y-78921402D01*
X133092000Y-79616000D01*
X134127032Y-79616000D01*
X134080667Y-79696306D01*
X134050000Y-79810756D01*
X134050000Y-79929244D01*
X134080667Y-80043694D01*
X134127032Y-80124000D01*
X133092000Y-80124000D01*
X133092000Y-80381676D01*
X133071998Y-80449797D01*
X133018342Y-80496290D01*
X132948068Y-80506394D01*
X132883488Y-80476900D01*
X132876905Y-80470771D01*
X127309729Y-74903595D01*
X127275703Y-74841283D01*
X127280768Y-74770468D01*
X127323315Y-74713632D01*
X127389835Y-74688821D01*
X127398824Y-74688500D01*
X128798632Y-74688500D01*
X128798638Y-74688500D01*
X128798645Y-74688499D01*
X128798649Y-74688499D01*
X128859196Y-74681990D01*
X128859199Y-74681989D01*
X128859201Y-74681989D01*
X128996204Y-74630889D01*
X129113261Y-74543261D01*
X129200889Y-74426204D01*
X129251989Y-74289201D01*
X129253530Y-74274872D01*
X129258499Y-74228649D01*
X129258500Y-74228632D01*
X129258500Y-73131367D01*
X129258499Y-73131350D01*
X129251990Y-73070803D01*
X129251988Y-73070795D01*
X129200890Y-72933798D01*
X129200889Y-72933797D01*
X129200889Y-72933796D01*
X129179400Y-72905090D01*
X129154590Y-72838572D01*
X129169681Y-72769198D01*
X129179401Y-72754073D01*
X129200446Y-72725960D01*
X129251494Y-72589093D01*
X129257999Y-72528597D01*
X129258000Y-72528585D01*
X129258000Y-72234000D01*
X125741999Y-72234000D01*
X125713080Y-72262919D01*
X125650767Y-72296944D01*
X125579952Y-72291878D01*
X125534890Y-72262918D01*
X125202244Y-71930272D01*
X126750000Y-71930272D01*
X126750000Y-72029728D01*
X126788060Y-72121614D01*
X126858386Y-72191940D01*
X126950272Y-72230000D01*
X128049728Y-72230000D01*
X128141614Y-72191940D01*
X128211940Y-72121614D01*
X128250000Y-72029728D01*
X128250000Y-71930272D01*
X128211940Y-71838386D01*
X128141614Y-71768060D01*
X128049728Y-71730000D01*
X126950272Y-71730000D01*
X126858386Y-71768060D01*
X126788060Y-71838386D01*
X126750000Y-71930272D01*
X125202244Y-71930272D01*
X124703374Y-71431402D01*
X125742000Y-71431402D01*
X125742000Y-71726000D01*
X127246000Y-71726000D01*
X127754000Y-71726000D01*
X129258000Y-71726000D01*
X129258000Y-71431414D01*
X129257999Y-71431402D01*
X129251494Y-71370906D01*
X129200444Y-71234035D01*
X129200444Y-71234034D01*
X129112904Y-71117095D01*
X128995965Y-71029555D01*
X128859093Y-70978505D01*
X128798597Y-70972000D01*
X127754000Y-70972000D01*
X127754000Y-71726000D01*
X127246000Y-71726000D01*
X127246000Y-70972000D01*
X126201402Y-70972000D01*
X126140906Y-70978505D01*
X126004035Y-71029555D01*
X126004034Y-71029555D01*
X125887095Y-71117095D01*
X125799555Y-71234034D01*
X125799555Y-71234035D01*
X125748505Y-71370906D01*
X125742000Y-71431402D01*
X124703374Y-71431402D01*
X123621648Y-70349676D01*
X123621642Y-70349671D01*
X123533376Y-70290694D01*
X123505601Y-70272135D01*
X123414427Y-70234369D01*
X123414426Y-70234368D01*
X123376669Y-70218729D01*
X123376663Y-70218727D01*
X123376662Y-70218727D01*
X123308221Y-70205113D01*
X123308220Y-70205112D01*
X123239787Y-70191500D01*
X123239782Y-70191500D01*
X123239781Y-70191500D01*
X106014662Y-70191500D01*
X105946541Y-70171498D01*
X105900048Y-70117842D01*
X105889944Y-70047568D01*
X105919438Y-69982988D01*
X105925567Y-69976405D01*
X107570621Y-68331350D01*
X110741500Y-68331350D01*
X110741500Y-69428649D01*
X110748009Y-69489196D01*
X110748011Y-69489204D01*
X110799110Y-69626202D01*
X110799112Y-69626207D01*
X110886738Y-69743261D01*
X111003792Y-69830887D01*
X111003794Y-69830888D01*
X111003796Y-69830889D01*
X111062875Y-69852924D01*
X111140795Y-69881988D01*
X111140803Y-69881990D01*
X111201350Y-69888499D01*
X111201355Y-69888499D01*
X111201362Y-69888500D01*
X111201368Y-69888500D01*
X113798632Y-69888500D01*
X113798638Y-69888500D01*
X113798645Y-69888499D01*
X113798649Y-69888499D01*
X113859196Y-69881990D01*
X113859199Y-69881989D01*
X113859201Y-69881989D01*
X113996204Y-69830889D01*
X114113261Y-69743261D01*
X114200889Y-69626204D01*
X114251989Y-69489201D01*
X114252601Y-69483514D01*
X114258499Y-69428649D01*
X114258500Y-69428632D01*
X114258500Y-68331367D01*
X114258499Y-68331350D01*
X125741500Y-68331350D01*
X125741500Y-69428649D01*
X125748009Y-69489196D01*
X125748011Y-69489204D01*
X125799110Y-69626202D01*
X125799112Y-69626207D01*
X125886738Y-69743261D01*
X126003792Y-69830887D01*
X126003794Y-69830888D01*
X126003796Y-69830889D01*
X126062875Y-69852924D01*
X126140795Y-69881988D01*
X126140803Y-69881990D01*
X126201350Y-69888499D01*
X126201355Y-69888499D01*
X126201362Y-69888500D01*
X126201368Y-69888500D01*
X128798632Y-69888500D01*
X128798638Y-69888500D01*
X128798645Y-69888499D01*
X128798649Y-69888499D01*
X128859196Y-69881990D01*
X128859199Y-69881989D01*
X128859201Y-69881989D01*
X128996204Y-69830889D01*
X129113261Y-69743261D01*
X129200889Y-69626204D01*
X129251989Y-69489201D01*
X129252601Y-69483514D01*
X129258499Y-69428649D01*
X129258500Y-69428632D01*
X129258500Y-68331367D01*
X129258499Y-68331350D01*
X129251990Y-68270803D01*
X129251988Y-68270795D01*
X129200889Y-68133797D01*
X129200887Y-68133792D01*
X129113261Y-68016738D01*
X128996207Y-67929112D01*
X128996202Y-67929110D01*
X128859204Y-67878011D01*
X128859196Y-67878009D01*
X128798649Y-67871500D01*
X128798638Y-67871500D01*
X126201362Y-67871500D01*
X126201350Y-67871500D01*
X126140803Y-67878009D01*
X126140795Y-67878011D01*
X126003797Y-67929110D01*
X126003792Y-67929112D01*
X125886738Y-68016738D01*
X125799112Y-68133792D01*
X125799110Y-68133797D01*
X125748011Y-68270795D01*
X125748009Y-68270803D01*
X125741500Y-68331350D01*
X114258499Y-68331350D01*
X114251990Y-68270803D01*
X114251988Y-68270795D01*
X114200889Y-68133797D01*
X114200887Y-68133792D01*
X114113261Y-68016738D01*
X113996207Y-67929112D01*
X113996202Y-67929110D01*
X113859204Y-67878011D01*
X113859196Y-67878009D01*
X113798649Y-67871500D01*
X113798638Y-67871500D01*
X111201362Y-67871500D01*
X111201350Y-67871500D01*
X111140803Y-67878009D01*
X111140795Y-67878011D01*
X111003797Y-67929110D01*
X111003792Y-67929112D01*
X110886738Y-68016738D01*
X110799112Y-68133792D01*
X110799110Y-68133797D01*
X110748011Y-68270795D01*
X110748009Y-68270803D01*
X110741500Y-68331350D01*
X107570621Y-68331350D01*
X110815519Y-65086450D01*
X110877831Y-65052425D01*
X110948646Y-65057489D01*
X111005482Y-65100036D01*
X111030293Y-65166556D01*
X111029063Y-65195252D01*
X110999500Y-65381908D01*
X110999500Y-65618092D01*
X111036447Y-65851368D01*
X111109432Y-66075992D01*
X111109433Y-66075993D01*
X111216659Y-66286436D01*
X111355484Y-66477512D01*
X111522487Y-66644515D01*
X111597632Y-66699111D01*
X111713567Y-66783343D01*
X111924008Y-66890568D01*
X112148632Y-66963553D01*
X112381908Y-67000500D01*
X112381911Y-67000500D01*
X112618089Y-67000500D01*
X112618092Y-67000500D01*
X112851368Y-66963553D01*
X113075992Y-66890568D01*
X113286433Y-66783343D01*
X113477510Y-66644517D01*
X113644517Y-66477510D01*
X113783343Y-66286433D01*
X113890568Y-66075992D01*
X113963553Y-65851368D01*
X114000500Y-65618092D01*
X114000500Y-65381908D01*
X125999500Y-65381908D01*
X125999500Y-65618092D01*
X126036447Y-65851368D01*
X126109432Y-66075992D01*
X126109433Y-66075993D01*
X126216659Y-66286436D01*
X126355484Y-66477512D01*
X126522487Y-66644515D01*
X126597632Y-66699111D01*
X126713567Y-66783343D01*
X126924008Y-66890568D01*
X127148632Y-66963553D01*
X127381908Y-67000500D01*
X127381911Y-67000500D01*
X127618089Y-67000500D01*
X127618092Y-67000500D01*
X127851368Y-66963553D01*
X128075992Y-66890568D01*
X128286433Y-66783343D01*
X128477510Y-66644517D01*
X128644517Y-66477510D01*
X128783343Y-66286433D01*
X128890568Y-66075992D01*
X128963553Y-65851368D01*
X129000500Y-65618092D01*
X129000500Y-65381908D01*
X128963553Y-65148632D01*
X128890568Y-64924008D01*
X128783343Y-64713567D01*
X128644517Y-64522490D01*
X128644515Y-64522487D01*
X128477512Y-64355484D01*
X128286436Y-64216659D01*
X128286435Y-64216658D01*
X128286433Y-64216657D01*
X128075992Y-64109432D01*
X127851368Y-64036447D01*
X127618092Y-63999500D01*
X127381908Y-63999500D01*
X127148632Y-64036447D01*
X127148629Y-64036447D01*
X127148628Y-64036448D01*
X126924008Y-64109432D01*
X126924006Y-64109433D01*
X126713563Y-64216659D01*
X126522487Y-64355484D01*
X126355484Y-64522487D01*
X126216659Y-64713563D01*
X126109433Y-64924006D01*
X126109432Y-64924008D01*
X126052873Y-65098079D01*
X126036447Y-65148632D01*
X125999500Y-65381908D01*
X114000500Y-65381908D01*
X113963553Y-65148632D01*
X113890568Y-64924008D01*
X113783343Y-64713567D01*
X113644517Y-64522490D01*
X113644515Y-64522487D01*
X113477512Y-64355484D01*
X113286436Y-64216659D01*
X113286435Y-64216658D01*
X113286433Y-64216657D01*
X113075992Y-64109432D01*
X112851368Y-64036447D01*
X112618092Y-63999500D01*
X112381908Y-63999500D01*
X112313024Y-64010409D01*
X112195256Y-64029062D01*
X112124845Y-64019962D01*
X112070531Y-63974240D01*
X112049559Y-63906411D01*
X112068587Y-63838012D01*
X112086444Y-63815525D01*
X112196566Y-63705404D01*
X112258879Y-63671379D01*
X112285661Y-63668500D01*
X132884339Y-63668500D01*
X132952460Y-63688502D01*
G37*
G04 #@! TD.AperFunction*
G04 #@! TA.AperFunction,Conductor*
G36*
X110684121Y-71628502D02*
G01*
X110730614Y-71682158D01*
X110739637Y-71723638D01*
X110741999Y-71726000D01*
X114258001Y-71726000D01*
X114261532Y-71722468D01*
X114278002Y-71666379D01*
X114331658Y-71619886D01*
X114384000Y-71608500D01*
X122824339Y-71608500D01*
X122892460Y-71628502D01*
X122913433Y-71645404D01*
X124106601Y-72838572D01*
X125144435Y-73876405D01*
X125178460Y-73938717D01*
X125173396Y-74009532D01*
X125130849Y-74066368D01*
X125064329Y-74091179D01*
X125055340Y-74091500D01*
X114384500Y-74091500D01*
X114316379Y-74071498D01*
X114269886Y-74017842D01*
X114258500Y-73965500D01*
X114258500Y-73131367D01*
X114258499Y-73131350D01*
X114251990Y-73070803D01*
X114251988Y-73070795D01*
X114200890Y-72933798D01*
X114200889Y-72933797D01*
X114200889Y-72933796D01*
X114179400Y-72905090D01*
X114154590Y-72838572D01*
X114169681Y-72769198D01*
X114179401Y-72754073D01*
X114200446Y-72725960D01*
X114251494Y-72589093D01*
X114257999Y-72528597D01*
X114258000Y-72528585D01*
X114258000Y-72234000D01*
X110742000Y-72234000D01*
X110742000Y-72528597D01*
X110748505Y-72589093D01*
X110799554Y-72725963D01*
X110820598Y-72754073D01*
X110845409Y-72820594D01*
X110830318Y-72889968D01*
X110820598Y-72905092D01*
X110799112Y-72933792D01*
X110799110Y-72933797D01*
X110748011Y-73070795D01*
X110748009Y-73070803D01*
X110741500Y-73131350D01*
X110741500Y-73965500D01*
X110721498Y-74033621D01*
X110667842Y-74080114D01*
X110615500Y-74091500D01*
X103194718Y-74091500D01*
X103126597Y-74071498D01*
X103080104Y-74017842D01*
X103070000Y-73947568D01*
X103089235Y-73896585D01*
X103107686Y-73868342D01*
X103198860Y-73728791D01*
X103289296Y-73522616D01*
X103344564Y-73304368D01*
X103363156Y-73080000D01*
X103344564Y-72855632D01*
X103338250Y-72830699D01*
X103340914Y-72759754D01*
X103371294Y-72710674D01*
X104151697Y-71930272D01*
X111750000Y-71930272D01*
X111750000Y-72029728D01*
X111788060Y-72121614D01*
X111858386Y-72191940D01*
X111950272Y-72230000D01*
X113049728Y-72230000D01*
X113141614Y-72191940D01*
X113211940Y-72121614D01*
X113250000Y-72029728D01*
X113250000Y-71930272D01*
X113211940Y-71838386D01*
X113141614Y-71768060D01*
X113049728Y-71730000D01*
X111950272Y-71730000D01*
X111858386Y-71768060D01*
X111788060Y-71838386D01*
X111750000Y-71930272D01*
X104151697Y-71930272D01*
X104436567Y-71645402D01*
X104498877Y-71611379D01*
X104525660Y-71608500D01*
X110616000Y-71608500D01*
X110684121Y-71628502D01*
G37*
G04 #@! TD.AperFunction*
M02*
